<?xml version="1.0" encoding="utf-8"?>
<!-- Generator: Adobe Illustrator 27.9.0, SVG Export Plug-In . SVG Version: 6.00 Build 0)  -->
<svg version="1.1" id="Layer_1" xmlns="http://www.w3.org/2000/svg" xmlns:xlink="http://www.w3.org/1999/xlink" x="0px" y="0px"
	 viewBox="0 0 28 28" style="enable-background:new 0 0 28 28;" xml:space="preserve">
<style type="text/css">
	.st0{fill:none;stroke:#DDDDDD;stroke-width:1.5;}
	.st1{display:none;fill:none;stroke:#DDDDDD;stroke-width:1.5;stroke-linecap:square;}
	.st2{display:none;fill:none;stroke:#DDDDDD;stroke-width:1.5;stroke-linecap:round;}
	.st3{fill:none;stroke:#DDDDDD;stroke-width:1.5;stroke-linecap:round;}
</style>
<g>
	<path class="st0" d="M7.8,5.8h12.5c1.1,0,2,0.9,2,2v12.5c0,1.1-0.9,2-2,2H7.8c-1.1,0-2-0.9-2-2V7.8C5.8,6.6,6.6,5.8,7.8,5.8z"/>
	<line class="st1" x1="6" y1="16" x2="21" y2="16"/>
	<line class="st2" x1="9.5" y1="19" x2="11.5" y2="19"/>
	<line class="st3" x1="8.9" y1="8.5" x2="11.9" y2="8.5"/>
	<path class="st3" d="M9.8,10.5h8.4c0.6,0,1,0.4,1,1V13c0,0.6-0.4,1-1,1H9.8c-0.6,0-1-0.4-1-1v-1.5C8.8,10.9,9.3,10.5,9.8,10.5z"/>
	<path class="st3" d="M9.8,16H12c0.6,0,1,0.4,1,1v1.5c0,0.6-0.4,1-1,1H9.8c-0.6,0-1-0.4-1-1V17C8.8,16.5,9.3,16,9.8,16z"/>
	<path class="st3" d="M16,16h2.2c0.6,0,1,0.4,1,1v1.5c0,0.6-0.4,1-1,1H16c-0.6,0-1-0.4-1-1V17C15,16.5,15.4,16,16,16z"/>
</g>
</svg>
