<?xml version="1.0" encoding="UTF-8"?>
<svg width="20px" height="20px" viewBox="0 0 23 23" version="1.1" xmlns="http://www.w3.org/2000/svg">
  <defs>
    <linearGradient id="icon-application-marketplace-active_svg__a" x1="50%" y1="1.89576049%" x2="50%" y2="94.4251638%">
      <stop stop-color="#6D83F2" offset="0%"/>
      <stop stop-color="#4965F2" offset="100%"/>
    </linearGradient>
  </defs>
  <g stroke="none" stroke-width="1" fill="none" fill-rule="evenodd">
    <path d="M2.7,9.45a4.235,4.235,0,0,0,.3.3V22a1,1,0,0,0,1,1H20a1,1,0,0,0,1-1V9.752a4.235,4.235,0,0,0,.3-.3,4,4,0,0,0,.731-3.456L20.97,1.758A1,1,0,0,0,20,1H4a1,1,0,0,0-.97.758L1.972,5.994A4,4,0,0,0,2.7,9.45ZM13,21H11V16h2Zm6,0H15V15a1,1,0,0,0-1-1H10a1,1,0,0,0-1,1v6H5V10.9A3.989,3.989,0,0,0,8.914,9.61c.026.03.053.059.08.089A4.086,4.086,0,0,0,12.041,11a4.039,4.039,0,0,0,2.965-1.3c.027-.03.054-.059.08-.089A3.989,3.989,0,0,0,19,10.9ZM3.911,6.479,4.781,3H19.219l.87,3.479A2.029,2.029,0,0,1,18.12,9,2.041,2.041,0,0,1,16.1,7.14l-.042-.5a1,1,0,0,0-1.993.166v0a2.006,2.006,0,0,1-.529,1.539A2.059,2.059,0,0,1,11.959,9,2.029,2.029,0,0,1,9.937,6.806v0a1,1,0,0,0-.914-1.079.989.989,0,0,0-1.079.913l-.042.5A2.041,2.041,0,0,1,5.88,9,2.029,2.029,0,0,1,3.911,6.479Z" fill="url(#icon-application-marketplace-active_svg__a)" fill-rule="nonzero" />
  </g>
</svg>