<svg width="24" height="24" viewBox="0 0 24 24" xmlns="http://www.w3.org/2000/svg">
  <style type="text/css">
    .st0{fill:#FF3621;}
  </style>
  <g>
    <path class="st0" d="M24,17.77v-4.23l-0.46-0.29l-11.09,6.1l-10.01-5.5l0-2.37l10.01,5.44l11.09-6.01v-4.22l-0.46-0.29
      l-10.63,5.77L1.53,6.65L12,1.14l8.18,4.46l0.64-0.34V4.8L12,0L0,6.23v0.62l12,6.77l10.01-5.5v2.44l-10.01,5.5L0.46,9.44L0,9.72
      v4.23l12,6.54l10.01-5.44v2.37l-10.01,5.5L0.46,16.7L0,16.98v0.62L12,24l12-6.23z"/>
  </g>
</svg>