<?xml version="1.0" encoding="utf-8"?>
<!-- Generator: Adobe Illustrator 27.9.0, SVG Export Plug-In . SVG Version: 6.00 Build 0)  -->
<svg version="1.1" id="Layer_1" xmlns="http://www.w3.org/2000/svg" xmlns:xlink="http://www.w3.org/1999/xlink" x="0px" y="0px"
	 viewBox="0 0 490.2 490.2" style="enable-background:new 0 0 490.2 490.2;" xml:space="preserve">
<style type="text/css">
	.st0{fill:#E6E7E8;}
	.st1{fill:#3377FF;}
</style>
<path class="st0" d="M84.6,0h320.9c46.7,0,84.6,37.9,84.6,84.6v320.9c0,46.7-37.9,84.6-84.6,84.6H84.6C37.9,490.2,0,452.3,0,405.5
	V84.6C0,37.9,37.9,0,84.6,0z"/>
<path class="st1" d="M407.5,111.2c-72.1-3.1-137.8,41-162.4,108.8c-24.6-67.8-90.3-111.9-162.4-108.8
	c-2.4,57.1,24.8,111.4,72.1,143.6c24.2,16.6,38.6,44.1,38.5,73.5v50.9h103.6v-50.9c-0.1-29.3,14.3-56.8,38.5-73.4
	C382.6,222.6,409.9,168.3,407.5,111.2L407.5,111.2z"/>
<path class="st1" d="M160.6,328.3c0.1-18.6-9-36-24.3-46.5c-10.2-7-19.8-14.9-28.5-23.7c-9.5-9.5-17.9-19.9-25.3-31.1v152.1h78.1
	V328.3z"/>
<path class="st1" d="M329.5,328.3c-0.1-18.6,9-36,24.3-46.5c10.2-7,19.8-14.9,28.5-23.7c9.5-9.5,17.9-19.9,25.3-31.1v152.1h-78.1
	V328.3z"/>
</svg>
