<svg version="1.1" id="Layer_1" xmlns="http://www.w3.org/2000/svg" 
xmlns:xlink="http://www.w3.org/1999/xlink" viewBox="0 0 295.24 295.24" 
xml:space="preserve" fill="#000000"><g id="SVGRepo_bgCarrier" 
stroke-width="0"></g><g id="SVGRepo_tracerCarrier" stroke-linecap="round" stroke-linejoin="round">
</g><g id="SVGRepo_iconCarrier"> <g> <g> <path style="fill:#333333;" d="M295.239,161.905h-38.095v-42.824l-75.229-0.505l-29.533-12.233V90.476h-9.524v15.867 l-29.533,12.233l-75.229,0.505v42.824H0.001v57.143h85.714v-57.143H47.62v-33.367l65.676-0.438l29.562,13.095v20.71h-38.095 v57.143h85.714v-57.143h-38.095v-20.71l29.562-13.095l65.676,0.438v33.367h-38.095v57.143h38.095v14.286H142.858v23.81h-19.047 c-10.505,0-19.048,8.543-19.048,19.048s8.543,19.048,19.048,19.048h47.619c10.505,0,19.048-8.543,19.048-19.048 s-8.543-19.048-19.048-19.048h-19.048v-14.286h104.762v-23.81h38.095V161.905z M76.191,209.524H9.525v-38.095h66.666V209.524z M180.953,209.524h-66.667v-38.095h66.667V209.524z M147.62,132.886l-21.243-9.41l21.243-8.795l21.243,8.8L147.62,132.886z M180.953,276.19c0,5.252-4.271,9.524-9.524,9.524h-47.618c-5.252,0-9.524-4.271-9.524-9.524c0-5.252,4.271-9.524,9.524-9.524 h47.619C176.682,266.667,180.953,270.938,180.953,276.19z M285.715,209.524h-66.667v-38.095h66.667V209.524z"></path> <path style="fill:#F9BA48;" d="M171.43,95.238h-47.619V67.81c-8.99-7.219-14.286-18.143-14.286-29.714 C109.525,17.09,126.615,0,147.62,0s38.095,17.09,38.095,38.095c0,11.576-5.295,22.5-14.286,29.714L171.43,95.238L171.43,95.238z"></path> <path style="fill:#333333;" d="M176.191,71.429h-23.81V51.505c5.529-1.971,9.524-7.21,9.524-13.41 c0-7.876-6.41-14.286-14.286-14.286s-14.286,6.41-14.286,14.286c0,6.2,3.995,11.438,9.524,13.41v19.924h-23.81v9.524h57.143 L176.191,71.429L176.191,71.429z M147.62,33.333c2.624,0,4.762,2.138,4.762,4.762s-2.138,4.762-4.762,4.762 s-4.762-2.138-4.762-4.762C142.858,35.471,144.996,33.333,147.62,33.333z"></path> <rect x="71.43" y="33.333" style="fill:#333333;" width="23.81" height="9.524"></rect> <rect x="76.32" y="57.934" transform="matrix(0.9238 -0.3828 0.3828 0.9238 -17.2805 38.549)" style="fill:#333333;" width="23.808" height="9.524"></rect> <rect x="202.248" y="50.792" transform="matrix(0.3827 -0.9239 0.9239 0.3827 69.8651 229.9553)" style="fill:#333333;" width="9.524" height="23.811"></rect> <rect x="200.001" y="33.333" style="fill:#333333;" width="23.81" height="9.524"></rect> <rect x="195.106" y="8.734" transform="matrix(0.9238 -0.3828 0.3828 0.9238 10.6022 80.274)" style="fill:#333333;" width="23.808" height="9.524"></rect> <rect x="83.467" y="1.587" transform="matrix(0.3827 -0.9239 0.9239 0.3827 41.9993 89.8422)" style="fill:#333333;" width="9.524" height="23.811"></rect> </g> </g> </g></svg>