<svg xmlns="http://www.w3.org/2000/svg" viewBox="0 0 64 60" id="ColumnWise"><path fill="#caced8" d="M0 57V3c0-1.7 1.3-3 3-3h58c1.7 0 3 1.3 3 3v54c0 1.7-1.3 3-3 3H3c-1.7 0-3-1.3-3-3z" class="colorcad1d8 svgShape"></path><circle cx="3" cy="4" r="1" fill="#4575f6" class="color9ba7af svgShape"></circle><circle cx="7" cy="4" r="1" fill="#4575f6" class="color9ba7af svgShape"></circle><circle cx="11" cy="4" r="1" fill="#4575f6" class="color9ba7af svgShape"></circle><path fill="#ffffff" d="M3 8h58c.6 0 1 .4 1 1v48c0 .6-.4 1-1 1H3c-.6 0-1-.4-1-1V9c0-.6.4-1 1-1z" class="colorffffff svgShape"></path><path fill="#e2e3e7" d="M61 5H15c-.6 0-1-.4-1-1s.4-1 1-1h46c.6 0 1 .4 1 1s-.4 1-1 1z" class="colore2e5e7 svgShape"></path><path fill="#caced8" d="M56 21H28c-.6 0-1-.4-1-1s.4-1 1-1h28c.6 0 1 .4 1 1s-.4 1-1 1zm-6 8H28c-.6 0-1-.4-1-1s.4-1 1-1h22c.6 0 1 .4 1 1s-.4 1-1 1zm-5-4H28c-.6 0-1-.4-1-1s.4-1 1-1h17c.6 0 1 .4 1 1s-.4 1-1 1z" class="colorcad1d8 svgShape"></path><path fill="#595d66" d="M27 16c0-.6.4-1 1-1h5c.6 0 1 .4 1 1s-.4 1-1 1h-5c-.6 0-1-.4-1-1z" class="color595a66 svgShape"></path><path fill="#caced8" d="M56 42H28c-.6 0-1-.4-1-1s.4-1 1-1h28c.6 0 1 .4 1 1s-.4 1-1 1zm-6 8H28c-.6 0-1-.4-1-1s.4-1 1-1h22c.6 0 1 .4 1 1s-.4 1-1 1zm-5-4H28c-.6 0-1-.4-1-1s.4-1 1-1h17c.6 0 1 .4 1 1s-.4 1-1 1z" class="colorcad1d8 svgShape"></path><path fill="#595d66" d="M27 37c0-.6.4-1 1-1h5c.6 0 1 .4 1 1s-.4 1-1 1h-5c-.6 0-1-.4-1-1z" class="color595a66 svgShape"></path><path fill="#abc0fa" d="M22 29H8c-.6 0-1-.4-1-1V16c0-.6.4-1 1-1h14c.6 0 1 .4 1 1v12c0 .6-.4 1-1 1z" class="colorabe1fa svgShape"></path><circle cx="12" cy="18" r="1" fill="#3568f1" class="colorf19f35 svgShape"></circle><path fill="#595d66" d="M23 28v-2.8l-4.5-4.5c-.3-.3-.9-.3-1.3 0L8.9 29H22c.6 0 1-.4 1-1z" class="color595a66 svgShape"></path><path fill="#595d66" d="M8.2 22.6 7 23.8V28c0 .6.4 1 1 1h7.1l-5.6-6.4c-.3-.4-.9-.4-1.3 0z" class="color595a66 svgShape"></path><path fill="#35373e" d="M14.4 26.1c-.6-.6-1.4-.8-2.2-.4l2.9 3.3h1.8l-2.5-2.9z" class="color35363e svgShape"></path><path fill="#6f737e" d="M15.7 23.9c.2.2.5.2.7 0l1.4-1.4c.2-.2.2-.5 0-.7-.2-.2-.5-.2-.7 0l-1.4 1.4c-.2.1-.2.5 0 .7z" class="color6f707e svgShape"></path><path fill="#35373e" d="m23 25.2-.7-.7c-.2-.2-.6-.2-.9 0-.2.2-.2.6 0 .9l.5.5c.5.5.9 1.1 1.1 1.8v-2.5z" class="color35363e svgShape"></path><path fill="#6f737e" d="M8.7 23.4c-.2-.2-.5-.2-.6 0L7 24.5v.9c.2.1.4 0 .5-.1L8.7 24c.2-.2.2-.4 0-.6z" class="color6f707e svgShape"></path><path fill="#abc0fa" d="M22 50H8c-.6 0-1-.4-1-1V37c0-.6.4-1 1-1h14c.6 0 1 .4 1 1v12c0 .6-.4 1-1 1z" class="colorabe1fa svgShape"></path><circle cx="12" cy="39" r="1" fill="#3568f1" class="colorf19f35 svgShape"></circle><path fill="#595d66" d="M23 49v-2.8l-4.5-4.5c-.3-.3-.9-.3-1.3 0L8.9 50H22c.6 0 1-.4 1-1z" class="color595a66 svgShape"></path><path fill="#595d66" d="M8.2 43.6 7 44.8V49c0 .6.4 1 1 1h7.1l-5.6-6.4c-.3-.4-.9-.4-1.3 0z" class="color595a66 svgShape"></path><path fill="#35373e" d="M14.4 47.1c-.6-.6-1.4-.8-2.2-.4l2.9 3.3h1.8l-2.5-2.9z" class="color35363e svgShape"></path><path fill="#6f737e" d="M15.7 44.9c.2.2.5.2.7 0l1.4-1.4c.2-.2.2-.5 0-.7-.2-.2-.5-.2-.7 0l-1.4 1.4c-.2.1-.2.5 0 .7z" class="color6f707e svgShape"></path><path fill="#35373e" d="m23 46.2-.7-.7c-.2-.2-.6-.2-.9 0-.2.2-.2.6 0 .9l.5.5c.5.5.9 1.1 1.1 1.8v-2.5z" class="color35363e svgShape"></path><path fill="#6f737e" d="M8.7 44.4c-.2-.2-.5-.2-.6 0L7 45.5v.9c.2.1.4 0 .5-.1L8.7 45c.2-.2.2-.4 0-.6z" class="color6f707e svgShape"></path></svg>