<svg t="1690794551698" class="icon" viewBox="0 0 1024 1024" version="1.1" xmlns="http://www.w3.org/2000/svg" p-id="41410" width="200" height="200"><path d="M826.515614 829.65762H94.474185C42.378083 829.65762 0 787.273538 0 735.179436V288.816564C0 236.722462 42.378083 194.34038 94.474185 194.34038h835.05363c52.094102 0 94.474185 42.382083 94.474185 94.476184v326.288637c0 15.58003-12.634025 28.212055-28.212055 28.212055-15.58003 0-28.212055-12.634025-28.212055-28.212055V288.816564c0-20.982041-17.068033-38.050074-38.048075-38.050074H94.474185c-20.978041-0.002-38.048074 17.068033-38.048075 38.050074V735.181436c0 20.982041 17.068033 38.050074 38.048075 38.050074h732.041429c15.58003 0 28.212055 12.634025 28.212055 28.212055 0 15.58203-12.634025 28.214055-28.212055 28.214055z" fill="#d7d9e0" p-id="41411" data-spm-anchor-id="a313x.7781069.0.i11" class=""></path><path d="M913.357784 739.061443c-7.222014 0-14.440028-2.756005-19.950039-8.264016l-95.760187-95.756187c-11.018022-11.018022-11.018022-28.882056 0-39.902078 11.020022-11.014022 28.878056-11.014022 39.902078 0l95.760187 95.756187c11.018022 11.018022 11.018022 28.882056 0 39.902078a28.132055 28.132055 0 0 1-19.952039 8.264016z" fill="#d7d9e0" p-id="41412" data-spm-anchor-id="a313x.7781069.0.i13" class=""></path><path d="M749.529464 547.043068m-122.72024 0a122.72024 122.72024 0 1 0 245.44048 0 122.72024 122.72024 0 1 0-245.44048 0Z" fill="#3377ff" p-id="41413" data-spm-anchor-id="a313x.7781069.0.i15" class="selected"></path><path d="M749.539464 697.963363c-40.316079 0-78.220153-15.698031-106.726209-44.206086-28.506056-28.508056-44.206086-66.41013-44.206086-106.724209 0-40.316079 15.698031-78.220153 44.206086-106.726208 28.508056-28.506056 66.41013-44.206086 106.726209-44.206086s78.220153 15.698031 106.726208 44.206086c58.846115 58.846115 58.846115 154.602302 0 213.448417-28.508056 28.512056-66.41013 44.208086-106.726208 44.208086z m0-245.436479c-25.242049 0-48.974096 9.830019-66.828131 27.682054-17.850035 17.848035-27.682054 41.580081-27.682054 66.82813 0 25.242049 9.830019 48.974096 27.682054 66.824131 17.850035 17.850035 41.582081 27.682054 66.828131 27.682054 25.244049 0 48.974096-9.830019 66.82813-27.682054 36.848072-36.848072 36.848072-96.804189 0-133.650261-17.854035-17.854035-41.586081-27.684054-66.82813-27.684054zM513.349003 635.277241H183.258358c-15.58003 0-28.212055-12.634025-28.212055-28.212055 0-15.58003 12.634025-28.212055 28.212055-28.212055h330.088645c15.58003 0 28.212055 12.634025 28.212055 28.212055 0.002 15.58003-12.628025 28.212055-28.210055 28.212055z" fill="#d7d9e0" p-id="41414" data-spm-anchor-id="a313x.7781069.0.i12" class=""></path></svg>