<svg xmlns="http://www.w3.org/2000/svg" viewBox="0 0 64 60" id="UploadPage"><path fill="#caced8" d="M61 0H3C1.3 0 0 1.3 0 3v54c0 1.7 1.3 3 3 3h58c1.7 0 3-1.3 3-3V3c0-1.7-1.3-3-3-3z" class="colorcad1d8 svgShape"></path><circle cx="7" cy="4" r="1" fill="#4575f6" class="color9ba7af svgShape"></circle><circle cx="11" cy="4" r="1" fill="#4575f6" class="color9ba7af svgShape"></circle><path fill="#ffffff" d="M3 8h58c.6 0 1 .4 1 1v48c0 .6-.4 1-1 1H3c-.6 0-1-.4-1-1V9c0-.6.4-1 1-1z" class="colorffffff svgShape"></path><path fill="#e2e3e7" d="M61 5H15c-.6 0-1-.4-1-1s.4-1 1-1h46c.6 0 1 .4 1 1s-.4 1-1 1z" class="colore2e5e7 svgShape"></path><circle cx="3" cy="4" r="1" fill="#4575f6" class="color9ba7af svgShape"></circle><path fill="#595d66" d="M45 15H19c-.6 0-1-.4-1-1s.4-1 1-1h26c.6 0 1 .4 1 1s-.4 1-1 1zm-5 4H24c-.6 0-1-.4-1-1s.4-1 1-1h16c.6 0 1 .4 1 1s-.4 1-1 1z" class="color595a66 svgShape"></path><path fill="#caced8" d="M55 53c-.6 0-1-.5-1-1s.5-1 1-1 1 .4 1 1c0 .5-.4 1-1 1zm-5-1c0-.5.4-1 1-1 .5 0 1 .5 1 1s-.5 1-1 1c-.6 0-1-.5-1-1zm-4 0c0-.5.4-1 1-1s1 .5 1 1-.4 1-1 1-1-.5-1-1zm-4 0c0-.5.5-1 1-1 .6 0 1 .5 1 1s-.4 1-1 1-1-.5-1-1zm-4.1 0c0-.5.5-1 1-1s1 .5 1 1-.4 1-1 1c-.5 0-1-.5-1-1zm-4 0c0-.5.4-1 1-1 .5 0 1 .5 1 1s-.5 1-1 1-1-.5-1-1zm-4 0c0-.5.4-1 1-1s1 .5 1 1-.4 1-1 1c-.5 0-1-.5-1-1zm-4 0c0-.5.5-1 1-1 .6 0 1 .5 1 1s-.4 1-1 1-1-.5-1-1zm-4 0c0-.5.4-1 1-1 .5 0 1 .5 1 1s-.5 1-1 1c-.6 0-1-.5-1-1zm-4 0c0-.5.4-1 1-1 .5 0 1 .5 1 1s-.5 1-1 1c-.6 0-1-.5-1-1zm-4 0c0-.5.4-1 1-1s1 .5 1 1-.4 1-1 1-1-.5-1-1zm-4.1 0c0-.5.5-1 1-1 .6 0 1 .5 1 1s-.4 1-1 1c-.5 0-1-.5-1-1zm-3.5-.6c-.3-.5-.1-1.1.4-1.4.5-.2 1.1-.1 1.4.4.2.5.1 1.1-.4 1.3-.1.1-.3.1-.5.1-.3.1-.7-.1-.9-.4zM56 49.1c0-.5.4-1 1-1s1 .5 1 1-.5 1-1 1c-.6 0-1-.4-1-1zM6 46.9c0-.5.5-1 1-1 .6 0 1 .5 1 1s-.5 1-1 1c-.6 0-1-.4-1-1zm50-1.8c0-.5.4-1 1-1s1 .5 1 1c0 .6-.5 1-1 1-.6 0-1-.5-1-1zM6 42.9c0-.5.5-1 1-1 .6 0 1 .5 1 1s-.5 1-1 1c-.6 0-1-.4-1-1zm50-1.8c0-.5.4-1 1-1s1 .5 1 1-.5 1-1 1c-.6 0-1-.5-1-1zM6 38.9c0-.5.5-1 1-1 .6 0 1 .5 1 1 0 .6-.5 1-1 1-.6 0-1-.4-1-1zm50-1.8c0-.5.4-1 1-1s1 .5 1 1-.5 1-1 1c-.6 0-1-.5-1-1zM6 34.9c0-.5.5-1 1-1 .6 0 1 .5 1 1s-.5 1-1 1c-.6 0-1-.4-1-1zM56 33c0-.5.4-1 1-1s1 .5 1 1c0 .6-.5 1-1 1-.6 0-1-.4-1-1zM6 30.9c0-.6.5-1 1-1 .6 0 1 .4 1 1s-.5 1-1 1c-.6 0-1-.5-1-1zM56 29c0-.5.4-1 1-1s1 .5 1 1c0 .6-.5 1-1 1-.6 0-1-.4-1-1zM6.8 27.8c-.5-.3-.6-.9-.3-1.4.3-.5.9-.6 1.4-.3.5.3.6.9.3 1.4-.2.3-.5.5-.9.5-.2-.1-.4-.1-.5-.2zm48.3-.8c-.5-.1-1-.5-.9-1.1 0-.6.5-1 1.1-.9.5 0 1 .5.9 1.1-.1.5-.5.9-1.1.9zm-5-1c0-.5.5-1 1-1 .6 0 1 .5 1 1 0 .6-.4 1-1 1-.5 0-1-.4-1-1zm-4 0c0-.5.5-1 1-1 .6 0 1 .5 1 1 0 .6-.4 1-1 1-.5 0-1-.4-1-1zm-4 0c0-.5.4-1 1-1 .5 0 1 .5 1 1 0 .6-.5 1-1 1s-1-.4-1-1zm-4 0c0-.5.5-1 1-1 .6 0 1 .5 1 1 0 .6-.4 1-1 1s-1-.4-1-1zm-4 0c0-.5.5-1 1-1 .6 0 1 .5 1 1 0 .6-.4 1-1 1s-1-.4-1-1zm-4 0c0-.5.5-1 1-1 .6 0 1 .5 1 1 0 .6-.4 1-1 1s-1-.4-1-1zm-4 0c0-.5.5-1 1-1s1 .5 1 1c0 .6-.5 1-1 1-.6 0-1-.4-1-1zM22 26c0-.5.4-1 1-1s1 .5 1 1c0 .6-.5 1-1 1s-1-.4-1-1zm-4 0c0-.5.4-1 1-1 .5 0 1 .5 1 1 0 .6-.5 1-1 1s-1-.4-1-1zm-4 0c0-.5.4-1 1-1s1 .5 1 1c0 .6-.5 1-1 1s-1-.4-1-1zm-4 0c0-.5.5-1 1-1 .6 0 1 .5 1 1 0 .6-.4 1-1 1s-1-.4-1-1zm24 9c-.3 0-.5-.1-.7-.3L32 33.4l-1.3 1.3c-.4.4-1 .4-1.4 0s-.4-1 0-1.4l2-2c.4-.4 1-.4 1.4 0l2 2c.4.4.4 1 0 1.4-.2.2-.4.3-.7.3z" class="colorcad1d8 svgShape"></path><path fill="#caced8" d="M32 38c-.6 0-1-.4-1-1v-4c0-.6.4-1 1-1s1 .4 1 1v4c0 .6-.4 1-1 1z" class="colorcad1d8 svgShape"></path><path fill="#e2e3e7" d="M35 47h-6c-1.1 0-2-.9-2-2s.9-2 2-2h6c1.1 0 2 .9 2 2s-.9 2-2 2z" class="colore2e5e7 svgShape"></path><path fill="#3b5cb5" d="M35 46h-6c-1.1 0-2-.9-2-2s.9-2 2-2h6c1.1 0 2 .9 2 2s-.9 2-2 2z" class="color3bb54a svgShape"></path><circle cx="32" cy="44" r="1" fill="#0e3293" class="color0e9347 svgShape"></circle></svg>