<svg xmlns="http://www.w3.org/2000/svg" viewBox="0 0 64 60" id="LineChart"><path fill="#caced8" d="M0 57V3c0-1.7 1.3-3 3-3h58c1.7 0 3 1.3 3 3v54c0 1.7-1.3 3-3 3H3c-1.7 0-3-1.3-3-3z" class="colorcad1d8 svgShape"></path><circle cx="3" cy="4" r="1" fill="#4575f6" class="color9ba7af svgShape"></circle><circle cx="7" cy="4" r="1" fill="#4575f6" class="color9ba7af svgShape"></circle><circle cx="11" cy="4" r="1" fill="#4575f6" class="color9ba7af svgShape"></circle><path fill="#ffffff" d="M3 8h58c.6 0 1 .4 1 1v48c0 .6-.4 1-1 1H3c-.6 0-1-.4-1-1V9c0-.6.4-1 1-1z" class="colorffffff svgShape"></path><path fill="#e2e3e7" d="M61 5H15c-.6 0-1-.4-1-1s.4-1 1-1h46c.6 0 1 .4 1 1s-.4 1-1 1zM5 51V23c0-1.1.9-2 2-2h50c1.1 0 2 .9 2 2v28c0 1.1-.9 2-2 2H7c-1.1 0-2-.9-2-2z" class="colore2e5e7 svgShape"></path><path fill="#caced8" d="M45 14H19c-.6 0-1-.4-1-1s.4-1 1-1h26c.6 0 1 .4 1 1s-.4 1-1 1zm-5 4H24c-.6 0-1-.4-1-1s.4-1 1-1h16c.6 0 1 .4 1 1s-.4 1-1 1z" class="colorcad1d8 svgShape"></path><path fill="#4575f6" d="M9 46c-.4 0-.8-.2-.9-.6-.2-.5 0-1.1.5-1.3l6.8-2.9 5.8-7.8c.2-.2.4-.4.7-.4.3 0 .6.1.8.2l7.3 6.4 7.3-7.3c.2-.2.6-.3.9-.3l7.6 1.9 8.6-5.8c.5-.3 1.1-.2 1.4.3s.2 1.1-.3 1.4l-9 6c-.2.2-.5.2-.7.2l-7.5-1.9-7.6 7.6c-.4.4-1 .4-1.4 0l-7.2-6.3-5.4 7.1c-.1.1-.2.3-.4.3l-7 3c0 .2-.2.2-.3.2z" class="color9ba7af svgShape"></path><circle cx="38" cy="33" r="2" fill="#595d66" class="color595a66 svgShape"></circle><circle cx="30" cy="41" r="2" fill="#595d66" class="color595a66 svgShape"></circle><circle cx="22" cy="34" r="2" fill="#595d66" class="color595a66 svgShape"></circle><circle cx="16" cy="42" r="2" fill="#595d66" class="color595a66 svgShape"></circle><circle cx="46" cy="35" r="2" fill="#595d66" class="color595a66 svgShape"></circle><circle cx="55" cy="29" r="2" fill="#595d66" class="color595a66 svgShape"></circle><circle cx="9" cy="45" r="2" fill="#595d66" class="color595a66 svgShape"></circle></svg>