<svg xmlns="http://www.w3.org/2000/svg" viewBox="0 0 64 60" id="MultipageColumn"><path fill="#caced8" d="M0 57V3c0-1.7 1.3-3 3-3h58c1.7 0 3 1.3 3 3v54c0 1.7-1.3 3-3 3H3c-1.7 0-3-1.3-3-3z" class="colorcad1d8 svgShape"></path><circle cx="3" cy="4" r="1" fill="#9ba0af" class="color9ba7af svgShape"></circle><circle cx="7" cy="4" r="1" fill="#9ba0af" class="color9ba7af svgShape"></circle><circle cx="11" cy="4" r="1" fill="#9ba0af" class="color9ba7af svgShape"></circle><path fill="#ffffff" d="M3 8h58c.6 0 1 .4 1 1v48c0 .6-.4 1-1 1H3c-.6 0-1-.4-1-1V9c0-.6.4-1 1-1z" class="colorffffff svgShape"></path><path fill="#e2e3e7" d="M61 5H15c-.6 0-1-.4-1-1s.4-1 1-1h46c.6 0 1 .4 1 1s-.4 1-1 1zM6 52V18h52v34c0 1.1-.9 2-2 2H8c-1.1 0-2-.9-2-2z" class="colore2e5e7 svgShape"></path><path fill="#ffffff" d="M6 19h52v1H6zM6 33h52v1H6zM6 26h52v1H6zM6 40h52v1H6zM6 47h52v1H6z" class="colorffffff svgShape"></path><path fill="#595d66" d="M9 30c0-.6.4-1 1-1h5c.6 0 1 .4 1 1s-.4 1-1 1h-5c-.6 0-1-.4-1-1zm0 21c0-.6.4-1 1-1h5c.6 0 1 .4 1 1s-.4 1-1 1h-5c-.6 0-1-.4-1-1zm0-28c0-.6.4-1 1-1h7c.6 0 1 .4 1 1s-.4 1-1 1h-7c-.6 0-1-.4-1-1zm0 21c0-.6.4-1 1-1h6c.6 0 1 .4 1 1s-.4 1-1 1h-6c-.6 0-1-.4-1-1zm0-7c0-.6.4-1 1-1h8c.6 0 1 .4 1 1s-.4 1-1 1h-8c-.6 0-1-.4-1-1z" class="color595a66 svgShape"></path><path fill="#9ba0af" d="M40 24H24c-.6 0-1-.4-1-1s.4-1 1-1h16c.6 0 1 .4 1 1s-.4 1-1 1zm12 0h-4c-.6 0-1-.4-1-1s.4-1 1-1h4c.6 0 1 .4 1 1s-.4 1-1 1zm0 7h-4c-.6 0-1-.4-1-1s.4-1 1-1h4c.6 0 1 .4 1 1s-.4 1-1 1zm0 7h-4c-.6 0-1-.4-1-1s.4-1 1-1h4c.6 0 1 .4 1 1s-.4 1-1 1zm0 7h-4c-.6 0-1-.4-1-1s.4-1 1-1h4c.6 0 1 .4 1 1s-.4 1-1 1zm0 7h-4c-.6 0-1-.4-1-1s.4-1 1-1h4c.6 0 1 .4 1 1s-.4 1-1 1zm-12-7H24c-.6 0-1-.4-1-1s.4-1 1-1h16c.6 0 1 .4 1 1s-.4 1-1 1zm-3-7H24c-.6 0-1-.4-1-1s.4-1 1-1h13c.6 0 1 .4 1 1s-.4 1-1 1zm5-7H24c-.6 0-1-.4-1-1s.4-1 1-1h18c.6 0 1 .4 1 1s-.4 1-1 1zm0 21H24c-.6 0-1-.4-1-1s.4-1 1-1h18c.6 0 1 .4 1 1s-.4 1-1 1z" class="color9ba7af svgShape"></path><path fill="#4575f6" d="M22 17v-3c0-1.1-.9-2-2-2H8c-1.1 0-2 .9-2 2v5h52v-2H22z" class="color3689c9 svgShape"></path><path fill="#abc0fa" d="M40 17H24v-3c0-1.1.9-2 2-2h12c1.1 0 2 .9 2 2v3zm18 0H42v-3c0-1.1.9-2 2-2h12c1.1 0 2 .9 2 2v3z" class="colorabe1fa svgShape"></path><circle cx="32" cy="15" r="1" fill="#4575f6" class="color3689c9 svgShape"></circle><circle cx="50" cy="15" r="1" fill="#4575f6" class="color3689c9 svgShape"></circle><circle cx="14" cy="15" r="1" fill="#ffffff" class="colorffffff svgShape"></circle></svg>