<svg xmlns="http://www.w3.org/2000/svg" viewBox="0 0 64 60" id="Description"><path fill="#caced8" d="M0 57V3c0-1.7 1.3-3 3-3h58c1.7 0 3 1.3 3 3v54c0 1.7-1.3 3-3 3H3c-1.7 0-3-1.3-3-3z" class="colorcad1d8 svgShape"></path><circle cx="3" cy="4" r="1" fill="#4575f6" class="color9ba7af svgShape"></circle><circle cx="7" cy="4" r="1" fill="#4575f6" class="color9ba7af svgShape"></circle><circle cx="11" cy="4" r="1" fill="#4575f6" class="color9ba7af svgShape"></circle><path fill="#ffffff" d="M3 8h58c.6 0 1 .4 1 1v48c0 .6-.4 1-1 1H3c-.6 0-1-.4-1-1V9c0-.6.4-1 1-1z" class="colorffffff svgShape"></path><path fill="#e2e3e7" d="M61 5H15c-.6 0-1-.4-1-1s.4-1 1-1h46c.6 0 1 .4 1 1s-.4 1-1 1z" class="colore2e5e7 svgShape"></path><path fill="#caced8" d="M47 50H19c-.6 0-1-.4-1-1s.4-1 1-1h28c.6 0 1 .4 1 1s-.4 1-1 1zM37 34H8c-.6 0-1-.4-1-1s.4-1 1-1h29c.6 0 1 .4 1 1s-.4 1-1 1zm-6-4H8c-.6 0-1-.4-1-1s.4-1 1-1h23c.6 0 1 .4 1 1s-.4 1-1 1zm16 15c0-.6.4-1 1-1h7c.6 0 1 .4 1 1s-.4 1-1 1h-7c-.6 0-1-.4-1-1zm-7-12c0-.6.4-1 1-1h12c.6 0 1 .4 1 1s-.4 1-1 1H41c-.6 0-1-.4-1-1zm-6-4c0-.6.4-1 1-1h19c.6 0 1 .4 1 1s-.4 1-1 1H35c-.6 0-1-.4-1-1zm-3-15H8c-.6 0-1-.4-1-1s.4-1 1-1h23c.6 0 1 .4 1 1s-.4 1-1 1zm3-1c0-.6.4-1 1-1h19c.6 0 1 .4 1 1s-.4 1-1 1H35c-.6 0-1-.4-1-1zm-3 29H8c-.6 0-1-.4-1-1s.4-1 1-1h23c.6 0 1 .4 1 1s-.4 1-1 1zm3-1c0-.6.4-1 1-1h15c.6 0 1 .4 1 1s-.4 1-1 1H35c-.6 0-1-.4-1-1zM7 37c0-.6.4-1 1-1h15c.6 0 1 .4 1 1s-.4 1-1 1H8c-.6 0-1-.4-1-1zm19 0c0-.6.4-1 1-1h13c.6 0 1 .4 1 1s-.4 1-1 1H27c-.6 0-1-.4-1-1zM7 45c0-.6.4-1 1-1h26c.6 0 1 .4 1 1s-.4 1-1 1H8c-.6 0-1-.4-1-1zm30 0c0-.6.4-1 1-1h6c.6 0 1 .4 1 1s-.4 1-1 1h-6c-.6 0-1-.4-1-1zm10-20c0-.6.4-1 1-1h7c.6 0 1 .4 1 1s-.4 1-1 1h-7c-.6 0-1-.4-1-1zm-20-3H8c-.6 0-1-.4-1-1s.4-1 1-1h19c.6 0 1 .4 1 1s-.4 1-1 1zm3-1c0-.6.4-1 1-1h19c.6 0 1 .4 1 1s-.4 1-1 1H31c-.6 0-1-.4-1-1zM7 25c0-.6.4-1 1-1h26c.6 0 1 .4 1 1s-.4 1-1 1H8c-.6 0-1-.4-1-1zm30 0c0-.6.4-1 1-1h6c.6 0 1 .4 1 1s-.4 1-1 1h-6c-.6 0-1-.4-1-1zm-8 28c0-.6.4-1 1-1h3c.6 0 1 .4 1 1s-.4 1-1 1h-3c-.6 0-1-.4-1-1zM7 49c0-.6.4-1 1-1h7c.6 0 1 .4 1 1s-.4 1-1 1H8c-.6 0-1-.4-1-1zm43 0c0-.6.4-1 1-1h3c.6 0 1 .4 1 1s-.4 1-1 1h-3c-.6 0-1-.4-1-1zm-3-31H8c-.6 0-1-.4-1-1s.4-1 1-1h39c.6 0 1 .4 1 1s-.4 1-1 1zm3-1c0-.6.4-1 1-1h3c.6 0 1 .4 1 1s-.4 1-1 1h-3c-.6 0-1-.4-1-1zM7 53c0-.6.4-1 1-1h18c.6 0 1 .4 1 1s-.4 1-1 1H8c-.6 0-1-.4-1-1zm36-16c0-.6.4-1 1-1h12c.6 0 1 .4 1 1s-.4 1-1 1H44c-.6 0-1-.4-1-1z" class="colorcad1d8 svgShape"></path></svg>