<?xml version="1.0" encoding="utf-8"?>
<!-- Generator: Adobe Illustrator 27.9.0, SVG Export Plug-In . SVG Version: 6.00 Build 0)  -->
<svg version="1.1" id="Layer_1" xmlns="http://www.w3.org/2000/svg" xmlns:xlink="http://www.w3.org/1999/xlink" x="0px" y="0px"
	 viewBox="0 0 200 200" style="enable-background:new 0 0 200 200;" xml:space="preserve">
<style type="text/css">
	.st0{fill:#4575F6;}
</style>
<path class="st0" d="M152.6,36.8H52.7c-11.6,0-21.1,10-21.1,22.2v61.1c0,12.7,9.8,23.3,21.5,23.3h23.5c5.9,6.4,21.4,22.9,21.4,22.9
	c1.2,1.3,2.9,2.1,4.7,2.1s3.4-0.7,4.8-2.2c0.1-0.1,12.1-14.1,20.6-22.7h24.2c11.6,0,21.5-10.7,21.5-23.3V59.1
	C173.7,46.8,164.2,36.8,152.6,36.8z M68.3,99.5c-4.9,0-8.9-4-8.9-8.9s4-8.9,8.9-8.9s8.9,4,8.9,8.9S73.3,99.5,68.3,99.5z M103.4,99.5
	c-4.9,0-8.9-4-8.9-8.9s4-8.9,8.9-8.9c4.9,0,8.9,4,8.9,8.9S108.3,99.5,103.4,99.5z M138.4,99.5c-4.9,0-8.9-4-8.9-8.9s4-8.9,8.9-8.9
	c4.9,0,8.9,4,8.9,8.9S143.3,99.5,138.4,99.5z"/>
</svg>
