<svg t="1685006017682" class="icon" viewBox="0 0 2304 1024" version="1.1" xmlns="http://www.w3.org/2000/svg" p-id="4943" id="mx_n_1685006017684" width="200" height="200"><path d="M512 0h1256.727273a512 512 0 0 1 512 512 512 512 0 0 1-512 512H512A512 512 0 0 1 0 512 512 512 0 0 1 512 0z" fill="#848181" p-id="4944" data-spm-anchor-id="a313x.7781069.0.i14" class="selected"></path><path d="M1396.363636 0h395.636364a512 512 0 0 1 512 512 512 512 0 0 1-512 512H1396.363636V0z" fill="#515151" p-id="4945" data-spm-anchor-id="a313x.7781069.0.i15" class="selected"></path><path d="M1024 684.683636l-97.28-97.745454a59.112727 59.112727 0 0 0-12.567273-8.378182A192.698182 192.698182 0 0 0 751.709091 279.272727a193.163636 193.163636 0 1 0 106.589091 353.745455 59.112727 59.112727 0 0 0 8.378182 12.567273l97.745454 97.745454a41.425455 41.425455 0 0 0 70.283637-29.323636 40.96 40.96 0 0 0-12.101819-29.323637z m-270.894545-74.472727a139.636364 139.636364 0 1 1 139.636363-139.636364 139.636364 139.636364 0 0 1-141.498182 139.636364z" fill="#FFFFFF" p-id="4946"></path><path d="M1980.509091 619.985455L1870.196364 512l110.312727-109.847273a27.927273 27.927273 0 0 0 0-38.632727 27.927273 27.927273 0 0 0-38.632727 0l-109.847273 110.312727L1722.181818 361.658182a27.461818 27.461818 0 0 0-38.632727 0 26.530909 26.530909 0 0 0 0 38.167273L1793.396364 512l-109.847273 110.312727a26.530909 26.530909 0 0 0 0 38.167273 27.461818 27.461818 0 0 0 19.083636 8.378182 26.530909 26.530909 0 0 0 19.083637-7.912727l110.312727-109.847273 109.847273 109.847273a25.6 25.6 0 0 0 19.549091 7.912727 25.134545 25.134545 0 0 0 19.083636-7.912727 26.530909 26.530909 0 0 0 0-40.96z" fill="#FFFFFF" p-id="4947"></path></svg>