<svg xmlns="http://www.w3.org/2000/svg" viewBox="0 0 64 60" id="Analytics"><path fill="#caced8" d="M0 57V3c0-1.7 1.3-3 3-3h58c1.7 0 3 1.3 3 3v54c0 1.7-1.3 3-3 3H3c-1.7 0-3-1.3-3-3z" class="colorcad1d8 svgShape"></path><circle cx="3" cy="4" r="1" fill="#9ba0af" class="color9ba7af svgShape"></circle><circle cx="7" cy="4" r="1" fill="#9ba0af" class="color9ba7af svgShape"></circle><circle cx="11" cy="4" r="1" fill="#9ba0af" class="color9ba7af svgShape"></circle><path fill="#ffffff" d="M3 8h58c.6 0 1 .4 1 1v48c0 .6-.4 1-1 1H3c-.6 0-1-.4-1-1V9c0-.6.4-1 1-1z" class="colorffffff svgShape"></path><path fill="#e2e3e7" d="M61 5H15c-.6 0-1-.4-1-1s.4-1 1-1h46c.6 0 1 .4 1 1s-.4 1-1 1zM5 51V23c0-1.1.9-2 2-2h50c1.1 0 2 .9 2 2v28c0 1.1-.9 2-2 2H7c-1.1 0-2-.9-2-2z" class="colore2e5e7 svgShape"></path><path fill="#caced8" d="M45 14H19c-.6 0-1-.4-1-1s.4-1 1-1h26c.6 0 1 .4 1 1s-.4 1-1 1zm-5 4H24c-.6 0-1-.4-1-1s.4-1 1-1h16c.6 0 1 .4 1 1s-.4 1-1 1z" class="colorcad1d8 svgShape"></path><path fill="#3b5cb5" d="M20 49h-6c-.6 0-1-.4-1-1v-6c0-.6.4-1 1-1h6c.6 0 1 .4 1 1v6c0 .6-.4 1-1 1z" class="color3bb54a svgShape"></path><path fill="#4575f6" d="M20 40h-6c-.6 0-1-.4-1-1v-1c0-.6.4-1 1-1h6c.6 0 1 .4 1 1v1c0 .6-.4 1-1 1z" class="color3689c9 svgShape"></path><path fill="#3b5cb5" d="M30 49h-6c-.6 0-1-.4-1-1v-8c0-.6.4-1 1-1h6c.6 0 1 .4 1 1v8c0 .6-.4 1-1 1z" class="color3bb54a svgShape"></path><path fill="#4575f6" d="M30 38h-6c-.6 0-1-.4-1-1v-6c0-.6.4-1 1-1h6c.6 0 1 .4 1 1v6c0 .6-.4 1-1 1z" class="color3689c9 svgShape"></path><path fill="#3b5cb5" d="M50 49h-6c-.6 0-1-.4-1-1v-6c0-.6.4-1 1-1h6c.6 0 1 .4 1 1v6c0 .6-.4 1-1 1z" class="color3bb54a svgShape"></path><path fill="#4575f6" d="M50 40h-6c-.6 0-1-.4-1-1v-5c0-.6.4-1 1-1h6c.6 0 1 .4 1 1v5c0 .6-.4 1-1 1z" class="color3689c9 svgShape"></path><path fill="#3b5cb5" d="M40 49h-6c-.6 0-1-.4-1-1V34c0-.6.4-1 1-1h6c.6 0 1 .4 1 1v14c0 .6-.4 1-1 1z" class="color3bb54a svgShape"></path><path fill="#4575f6" d="M40 32h-6c-.6 0-1-.4-1-1v-3c0-.6.4-1 1-1h6c.6 0 1 .4 1 1v3c0 .6-.4 1-1 1z" class="color3689c9 svgShape"></path></svg>