<svg xmlns="http://www.w3.org/2000/svg" enable-background="new 0 0 64 60" viewBox="0 0 64 60" id="Checkbox"><path fill="#caced8" d="M0,57V3c0-1.7,1.3-3,3-3h58c1.7,0,3,1.3,3,3v54c0,1.7-1.3,3-3,3H3C1.3,60,0,58.7,0,57z" class="colorcad1d8 svgShape"></path><circle cx="3" cy="4" r="1" fill="#9ba0af" class="color9ba7af svgShape"></circle><circle cx="7" cy="4" r="1" fill="#9ba0af" class="color9ba7af svgShape"></circle><circle cx="11" cy="4" r="1" fill="#9ba0af" class="color9ba7af svgShape"></circle><path fill="#ffffff" d="M3,8h58c0.6,0,1,0.4,1,1v48c0,0.6-0.4,1-1,1H3c-0.6,0-1-0.4-1-1V9C2,8.4,2.4,8,3,8z" class="colorffffff svgShape"></path><path fill="#e2e3e7" d="M61,5H15c-0.6,0-1-0.4-1-1v0c0-0.6,0.4-1,1-1h46c0.6,0,1,0.4,1,1v0C62,4.6,61.6,5,61,5z" class="colore2e5e7 svgShape"></path><path fill="#595d66" d="M45 15H19c-.6 0-1-.4-1-1v0c0-.6.4-1 1-1h26c.6 0 1 .4 1 1v0C46 14.6 45.6 15 45 15zM40 19H24c-.6 0-1-.4-1-1v0c0-.6.4-1 1-1h16c.6 0 1 .4 1 1v0C41 18.6 40.6 19 40 19z" class="color595a66 svgShape"></path><path fill="#caced8" d="M53 40H11c-.6 0-1-.4-1-1l0 0c0-.6.4-1 1-1h42c.6 0 1 .4 1 1l0 0C54 39.6 53.6 40 53 40zM53 33H11c-.6 0-1-.4-1-1v0c0-.6.4-1 1-1h42c.6 0 1 .4 1 1v0C54 32.6 53.6 33 53 33z" class="colorcad1d8 svgShape"></path><path fill="#caced8" d="M31 53l0-28c0-.6.4-1 1-1h0c.6 0 1 .4 1 1v28c0 .6-.4 1-1 1h0C31.4 54 31 53.6 31 53zM24 53l0-28c0-.6.4-1 1-1h0c.6 0 1 .4 1 1l0 28c0 .6-.4 1-1 1h0C24.4 54 24 53.6 24 53zM17 53l0-28c0-.6.4-1 1-1h0c.6 0 1 .4 1 1l0 28c0 .6-.4 1-1 1h0C17.4 54 17 53.6 17 53zM45 53V25c0-.6.4-1 1-1h0c.6 0 1 .4 1 1v28c0 .6-.4 1-1 1l0 0C45.4 54 45 53.6 45 53zM52 53V25c0-.6.4-1 1-1h0c.6 0 1 .4 1 1v28c0 .6-.4 1-1 1l0 0C52.4 54 52 53.6 52 53zM10 53l0-28c0-.6.4-1 1-1h0c.6 0 1 .4 1 1l0 28c0 .6-.4 1-1 1h0C10.4 54 10 53.6 10 53zM38 53V25c0-.6.4-1 1-1l0 0c.6 0 1 .4 1 1v28c0 .6-.4 1-1 1h0C38.4 54 38 53.6 38 53z" class="colorcad1d8 svgShape"></path><path fill="#caced8" d="M53 26H11c-.6 0-1-.4-1-1v0c0-.6.4-1 1-1h42c.6 0 1 .4 1 1v0C54 25.6 53.6 26 53 26zM53 47H11c-.6 0-1-.4-1-1l0 0c0-.6.4-1 1-1h42c.6 0 1 .4 1 1l0 0C54 46.6 53.6 47 53 47zM53 54H11c-.6 0-1-.4-1-1l0 0c0-.6.4-1 1-1h42c.6 0 1 .4 1 1l0 0C54 53.6 53.6 54 53 54z" class="colorcad1d8 svgShape"></path><circle cx="14.5" cy="28.5" r="1.5" fill="#3b5cb5" class="color3bb54a svgShape"></circle><circle cx="42.5" cy="28.5" r="1.5" fill="#2c61ee" class="coloree2c39 svgShape"></circle><circle cx="28.5" cy="35.5" r="1.5" fill="#2c61ee" class="coloree2c39 svgShape"></circle><circle cx="28.5" cy="49.5" r="1.5" fill="#3b5cb5" class="color3bb54a svgShape"></circle><circle cx="35.5" cy="42.5" r="1.5" fill="#4575f6" class="color3689c9 svgShape"></circle></svg>