<?xml version="1.0" encoding="utf-8"?>
<!-- Generator: Adobe Illustrator 27.9.0, SVG Export Plug-In . SVG Version: 6.00 Build 0)  -->
<svg version="1.1" id="Layer_1" xmlns="http://www.w3.org/2000/svg" xmlns:xlink="http://www.w3.org/1999/xlink" x="0px" y="0px"
	 viewBox="0 0 48 48" style="enable-background:new 0 0 48 48;" xml:space="preserve">
<style type="text/css">
	.st0{fill:#4575F6;}
</style>
<g>
	<path class="st0" d="M14,38.5c-2.2-1-3.9-2.5-5-4.3c-1.1-1.9-1.7-4-1.7-6.6c0-3.6,0.9-6.9,2.6-9.9c1.8-3,4.2-5.3,7.2-7
		c3.1-1.7,6.5-2.5,10.2-2.5c4.3,0,7.7,1,10.2,2.9c2.5,1.9,3.8,4.6,3.8,8.1c0,2.5-0.5,4.7-1.6,6.8c-1.1,2.1-2.6,3.8-4.4,5
		s-3.9,1.8-6.1,1.8c-1.1,0-1.9-0.3-2.6-0.8c-0.7-0.5-1-1.2-1-2.2c-0.8,0.9-1.7,1.6-2.8,2.2c-1.1,0.5-2.3,0.8-3.5,0.8
		c-1.6,0-2.8-0.4-3.6-1.2c-0.8-0.8-1.2-2-1.2-3.5c0-2.1,0.6-4.2,1.7-6.2c1.1-2,2.6-3.7,4.3-4.9c1.8-1.3,3.6-1.9,5.6-1.9
		c1,0,1.8,0.2,2.5,0.7s1.1,1.1,1.4,1.9l1-2h3.6l-5.6,11.7c-0.2,0.4-0.3,0.7-0.3,1c0,0.6,0.4,0.8,1.3,0.8c1.2,0,2.3-0.5,3.4-1.4
		c1-0.9,1.9-2.1,2.5-3.6c0.6-1.5,0.9-3.1,0.9-4.8c0-2.6-0.9-4.5-2.7-5.7c-1.8-1.2-4.3-1.8-7.4-1.8c-2.9,0-5.5,0.6-7.7,1.9
		c-2.2,1.3-4,3-5.2,5.3c-1.2,2.3-1.8,4.9-1.8,7.8c0,2.9,0.9,5.1,2.7,6.6c1.8,1.5,4.5,2.3,8,2.3c1.8,0,3.4-0.2,4.9-0.5
		c1.5-0.3,2.9-0.9,4.2-1.7c0.5-0.2,0.9-0.4,1.2-0.4c0.5,0,1,0.2,1.4,0.5s0.7,0.8,1,1.4c-1.8,1.6-3.9,2.8-6.2,3.5
		C27,39.6,24.6,40,22.1,40C18.9,40,16.2,39.5,14,38.5z M23.6,28c1-1,1.9-2.2,2.6-3.6c0.7-1.4,1.1-2.8,1.1-4.1c0-1.2-0.6-1.9-1.9-1.9
		c-1,0-2.1,0.5-3.1,1.4c-1.1,0.9-2,2.1-2.7,3.5s-1.1,2.8-1.1,4.1c0,1.3,0.7,2,2.2,2C21.6,29.4,22.6,28.9,23.6,28z"/>
</g>
</svg>
