<svg xmlns="http://www.w3.org/2000/svg" enable-background="new 0 0 64 60" viewBox="0 0 64 60" id="VideoStreamingWebsite"><path fill="#caced8" d="M0,57V3c0-1.7,1.3-3,3-3h58c1.7,0,3,1.3,3,3v54c0,1.7-1.3,3-3,3H3C1.3,60,0,58.7,0,57z" class="colorcad1d8 svgShape"></path><path fill="#ffffff" d="M3,8h58c0.6,0,1,0.4,1,1v48c0,0.6-0.4,1-1,1H3c-0.6,0-1-0.4-1-1V9C2,8.4,2.4,8,3,8z" class="colorffffff svgShape"></path><circle cx="3" cy="4" r="1" fill="#4575f6" class="color9ba7af svgShape"></circle><circle cx="7" cy="4" r="1" fill="#4575f6" class="color9ba7af svgShape"></circle><circle cx="11" cy="4" r="1" fill="#4575f6" class="color9ba7af svgShape"></circle><path fill="#e2e3e7" d="M61,5H15c-0.6,0-1-0.4-1-1v0c0-0.6,0.4-1,1-1h46c0.6,0,1,0.4,1,1v0C62,4.6,61.6,5,61,5z" class="colore2e5e7 svgShape"></path><path fill="#2c61ee" d="M7.5,42.5V15c0-0.8,0.7-1.5,1.5-1.5h46c0.8,0,1.5,0.7,1.5,1.5v27.5H7.5z" class="coloree2c39 svgShape"></path><path fill="#204fcc" d="M55,13H9c-1.1,0-2,0.9-2,2v28h50V15C57,13.9,56.1,13,55,13z M56,42H8V15c0-0.6,0.4-1,1-1h46c0.6,0,1,0.4,1,1
			V42z" class="colorcc202c svgShape"></path><path fill="#204fcc" d="M38.3,27.9l-7.5-3.8c-0.4-0.2-0.8-0.2-1.2,0.1c-0.4,0.2-0.6,0.6-0.6,1.1v7.5c0,0.4,0.2,0.8,0.6,1.1
			c0.2,0.1,0.4,0.2,0.7,0.2c0.2,0,0.4,0,0.6-0.1l7.5-3.8c0.4-0.2,0.7-0.6,0.7-1.1S38.7,28.1,38.3,27.9z" class="colorcc202c svgShape"></path><path fill="#ffffff" d="M38.3,26.9l-7.5-3.8c-0.4-0.2-0.8-0.2-1.2,0.1c-0.4,0.2-0.6,0.6-0.6,1.1v7.5c0,0.4,0.2,0.8,0.6,1.1
			c0.2,0.1,0.4,0.2,0.7,0.2c0.2,0,0.4,0,0.6-0.1l7.5-3.8c0.4-0.2,0.7-0.6,0.7-1.1S38.7,27.1,38.3,26.9z" class="colorffffff svgShape"></path><path fill="#dddee1" d="M38.3,28.1l-7.5,3.8C30.6,32,30.4,32,30.2,32c-0.2,0-0.5-0.1-0.7-0.2c-0.4-0.2-0.6-0.6-0.6-1.1v1
			c0,0.4,0.2,0.8,0.6,1.1c0.2,0.1,0.4,0.2,0.7,0.2c0.2,0,0.4,0,0.6-0.1l7.5-3.8c0.4-0.2,0.7-0.6,0.7-1.1c0-0.2,0-0.3-0.1-0.5
			C38.8,27.8,38.6,28,38.3,28.1z" class="colordddfe1 svgShape"></path><path fill="#e2e3e7" d="M55,53H9c-1.1,0-2-0.9-2-2v-8h50v8C57,52.1,56.1,53,55,53z" class="colore2e5e7 svgShape"></path><path fill="#595d66" d="M52,49H12c-0.6,0-1-0.4-1-1l0,0c0-0.6,0.4-1,1-1h40c0.6,0,1,0.4,1,1l0,0C53,48.6,52.6,49,52,49z" class="color595a66 svgShape"></path><g fill="#000000" class="color000000 svgShape"><circle cx="24" cy="48" r="2" fill="#ffffff" class="colorffffff svgShape"></circle><path fill="#595d66" d="M24,51c-1.7,0-3-1.3-3-3s1.3-3,3-3s3,1.3,3,3S25.7,51,24,51z M24,47c-0.6,0-1,0.4-1,1s0.4,1,1,1s1-0.4,1-1
			S24.6,47,24,47z" class="color595a66 svgShape"></path></g></svg>