<svg xmlns="http://www.w3.org/2000/svg" viewBox="0 0 64 60" id="Coding"><path fill="#caced8" d="M0 57V3c0-1.7 1.3-3 3-3h58c1.7 0 3 1.3 3 3v54c0 1.7-1.3 3-3 3H3c-1.7 0-3-1.3-3-3z" class="colorcad1d8 svgShape"></path><circle cx="3" cy="4" r="1" fill="#9ba0af" class="color9ba7af svgShape"></circle><circle cx="7" cy="4" r="1" fill="#9ba0af" class="color9ba7af svgShape"></circle><circle cx="11" cy="4" r="1" fill="#9ba0af" class="color9ba7af svgShape"></circle><path fill="#35373e" d="M61 58H3c-.6 0-1-.4-1-1V9c0-.6.4-1 1-1h58c.6 0 1 .4 1 1v48c0 .6-.4 1-1 1z" class="color35363e svgShape"></path><path fill="#e2e3e7" d="M61 5H15c-.6 0-1-.4-1-1s.4-1 1-1h46c.6 0 1 .4 1 1s-.4 1-1 1z" class="colore2e5e7 svgShape"></path><path fill="#caced8" d="M16 14H8c-.6 0-1-.4-1-1s.4-1 1-1h8c.6 0 1 .4 1 1s-.4 1-1 1zm6 4H12c-.6 0-1-.4-1-1s.4-1 1-1h10c.6 0 1 .4 1 1s-.4 1-1 1zm22 0H34c-.6 0-1-.4-1-1s.4-1 1-1h10c.6 0 1 .4 1 1s-.4 1-1 1z" class="colorcad1d8 svgShape"></path><path fill="#2c61ee" d="M32 26H22c-.6 0-1-.4-1-1s.4-1 1-1h10c.6 0 1 .4 1 1s-.4 1-1 1z" class="coloree2c39 svgShape"></path><path fill="#3b5cb5" d="M30 18h-4c-.6 0-1-.4-1-1s.4-1 1-1h4c.6 0 1 .4 1 1s-.4 1-1 1z" class="color3bb54a svgShape"></path><path fill="#caced8" d="M25 22H12c-.6 0-1-.4-1-1s.4-1 1-1h13c.6 0 1 .4 1 1s-.4 1-1 1z" class="colorcad1d8 svgShape"></path><path fill="#4d7dfd" d="M18 26h-6c-.6 0-1-.4-1-1s.4-1 1-1h6c.6 0 1 .4 1 1s-.4 1-1 1z" class="colorfdba4d svgShape"></path><path fill="#caced8" d="M49 22h-6c-.6 0-1-.4-1-1s.4-1 1-1h6c.6 0 1 .4 1 1s-.4 1-1 1zM38 42h-6c-.6 0-1-.4-1-1s.4-1 1-1h6c.6 0 1 .4 1 1s-.4 1-1 1z" class="colorcad1d8 svgShape"></path><path fill="#2c61ee" d="M31 46h-6c-.6 0-1-.4-1-1s.4-1 1-1h6c.6 0 1 .4 1 1s-.4 1-1 1zm10 0h-6c-.6 0-1-.4-1-1s.4-1 1-1h6c.6 0 1 .4 1 1s-.4 1-1 1z" class="coloree2c39 svgShape"></path><path fill="#3b5cb5" d="M33 38h-4c-.6 0-1-.4-1-1s.4-1 1-1h4c.6 0 1 .4 1 1s-.4 1-1 1z" class="color3bb54a svgShape"></path><path fill="#4575f6" d="M56 50h-4c-.6 0-1-.4-1-1s.4-1 1-1h4c.6 0 1 .4 1 1s-.4 1-1 1zM34 30h-8c-.6 0-1-.4-1-1s.4-1 1-1h8c.6 0 1 .4 1 1s-.4 1-1 1z" class="color3689c9 svgShape"></path><path fill="#caced8" d="M39 22H29c-.6 0-1-.4-1-1s.4-1 1-1h10c.6 0 1 .4 1 1s-.4 1-1 1zm-17 8H12c-.6 0-1-.4-1-1s.4-1 1-1h10c.6 0 1 .4 1 1s-.4 1-1 1zm-6 4H8c-.6 0-1-.4-1-1s.4-1 1-1h8c.6 0 1 .4 1 1s-.4 1-1 1zm9 4H12c-.6 0-1-.4-1-1s.4-1 1-1h13c.6 0 1 .4 1 1s-.4 1-1 1z" class="colorcad1d8 svgShape"></path><path fill="#4d7dfd" d="M28 42H12c-.6 0-1-.4-1-1s.4-1 1-1h16c.6 0 1 .4 1 1s-.4 1-1 1zm15-4h-6c-.6 0-1-.4-1-1s.4-1 1-1h6c.6 0 1 .4 1 1s-.4 1-1 1z" class="colorfdba4d svgShape"></path><path fill="#caced8" d="M21 46h-9c-.6 0-1-.4-1-1s.4-1 1-1h9c.6 0 1 .4 1 1s-.4 1-1 1zm7 4H12c-.6 0-1-.4-1-1s.4-1 1-1h16c.6 0 1 .4 1 1s-.4 1-1 1zm20 0H32c-.6 0-1-.4-1-1s.4-1 1-1h16c.6 0 1 .4 1 1s-.4 1-1 1zM7 53c0-.6.4-1 1-1h8c.6 0 1 .4 1 1s-.4 1-1 1H8c-.6 0-1-.4-1-1z" class="colorcad1d8 svgShape"></path><circle cx="47" cy="37" r="1" fill="#caced8" class="colorcad1d8 svgShape"></circle><circle cx="36" cy="25" r="1" fill="#caced8" class="colorcad1d8 svgShape"></circle></svg>