<svg t="1690270225287" class="icon" viewBox="0 0 1024 1024" version="1.1" xmlns="http://www.w3.org/2000/svg" p-id="5882" width="200" height="200"><path d="M781.3 188.6H269.7c-59.6 0-108 51.1-108 113.9v312.8c0 64.8 50.3 119.5 109.9 119.5h120.2c30.4 32.8 109.8 117 109.8 117 6.2 6.7 14.9 10.5 23.9 10.5s17.6-3.8 24.6-11.3c0.6-0.7 62.1-72 105.6-116.2h123.7c59.6 0 110-54.7 110-119.5V302.6c-0.1-62.9-48.6-114-108.1-114z m-431.4 321c-25.2 0-45.6-20.4-45.6-45.6s20.4-45.6 45.6-45.6 45.6 20.4 45.6 45.6-20.4 45.6-45.6 45.6z m179.4 0c-25.2 0-45.6-20.4-45.6-45.6s20.4-45.6 45.6-45.6 45.6 20.4 45.6 45.6-20.4 45.6-45.6 45.6z m179.4 0c-25.2 0-45.6-20.4-45.6-45.6s20.4-45.6 45.6-45.6 45.6 20.4 45.6 45.6-20.4 45.6-45.6 45.6z" fill="#B2B2B2" p-id="5883"></path></svg>