<?xml version="1.0" encoding="utf-8"?>
<svg version="1.1" id="图层_1" xmlns="http://www.w3.org/2000/svg" xmlns:xlink="http://www.w3.org/1999/xlink" x="0px" y="0px"
	 viewBox="0 0 1024 1024" style="enable-background:new 0 0 1024 1024;" xml:space="preserve">
<style type="text/css">
	.st0{fill:#D7D9E0;}
</style>
<g>
	<path id="svg_2" class="st0" d="M838,126.4h-59.4V79.2c0-6.7-5.6-12.3-12.6-12.3h-34.2c-7.1,0-12.6,5.5-12.6,12.3v47.2h-416V79.2
		c0-6.7-5.6-12.3-12.6-12.3h-34.2c-7.1,0-12.6,5.5-12.6,12.3v47.2h-59.4c-65.7,0-118.8,53.2-118.8,118.8v594.4
		c0,65.4,53.2,118.8,118.8,118.8H838c65.7,0,118.8-53.2,118.8-118.8V245.2C956.9,179.7,903.7,126.4,838,126.4L838,126.4z
		 M897.4,839.6c0,32.8-26.5,59.3-59.4,59.3H184.3c-32.8,0-59.4-26.7-59.4-59.3V364.1h772.5V839.6z M897.4,304.7H124.9v-59.5
		c0-32.8,26.5-59.3,59.4-59.3h59.4V233c0,6.7,5.6,12.3,12.6,12.3h34.2c7.1,0,12.6-5.5,12.6-12.3v-47.2h416V233
		c0,6.7,5.6,12.3,12.6,12.3H766c7.1,0,12.6-5.5,12.6-12.3v-47.2H838c32.8,0,59.4,26.7,59.4,59.3V304.7L897.4,304.7z"/>
</g>
<g>
	<path class="st0" d="M326,484l-70.7,141.4v115.8h-34.6V625.3L150,484h34.6l52.6,109.8h1.5L291.4,484H326z"/>
	<path class="st0" d="M507.9,684c-2,18-10,32.6-24.1,43.6c-14.1,11-30.6,16.5-49.6,16.5c-24.1,0-43.9-7.8-59.4-23.3
		c-15.6-15.5-23.3-36.8-23.3-63.9s7.8-48.4,23.3-63.9c15.5-15.5,35.3-23.3,59.4-23.3c21.1,0,38.3,6.8,51.9,20.3
		c13.5,13.5,20.3,35.9,20.3,66.9H384.6c0,22.1,4.7,37.6,14.3,46.6c9.5,9,21.3,13.5,35.3,13.5c11,0,20-2.7,27.1-8.3
		c7-5.5,11.5-13.8,13.5-24.8H507.9z M471.8,632.8c-2-14-6.5-23.8-13.5-29.3c-7-5.5-16-8.3-27.1-8.3c-10,0-19.1,2.8-27.1,8.3
		c-8,5.5-14.1,15.3-18,29.3H471.8z"/>
	<path class="st0" d="M701.9,741.1h-36.1c-2-2-3.5-4.7-4.5-8.3c-1-3.5-1.5-7.8-1.5-12.8c-7,8-15.6,14.1-25.6,18c-10,4-20.6,6-31.6,6
		c-16,0-29.6-4-40.6-12c-11-8-16.5-19.5-16.5-34.6c0-15,5-27.1,15-36.1c10-9,25.6-15,46.6-18c14-2,26.3-4.5,36.8-7.5s15.8-7,15.8-12
		c0-6-2.3-12-6.8-18s-14.3-9-29.3-9c-12,0-20.8,2.3-26.3,6.8c-5.5,4.5-9.3,10.8-11.3,18.8H553c2-16,9.3-28.8,21.8-38.3
		c12.5-9.5,28.8-14.3,48.9-14.3c22,0,38.6,5,49.6,15c11,10,16.5,24.1,16.5,42.1v82.7c0,6,1,11.5,3,16.5
		C694.9,731.1,697.9,736.1,701.9,741.1z M659.8,685.5v-30.1c-6,2-11.8,3.8-17.3,5.3c-5.5,1.5-14.8,3.3-27.8,5.3
		c-15,2-24.8,5.5-29.3,10.5c-4.5,5-6.8,11-6.8,18c0,6,2.3,11.3,6.8,15.8c4.5,4.5,11.3,6.8,20.3,6.8c9,0,18.8-2.5,29.3-7.5
		C645.5,704.5,653.8,696.5,659.8,685.5z"/>
	<path class="st0" d="M871.9,602.8c-19.1-3-35.1-0.2-48.1,8.3c-13,8.5-24.1,23.3-33.1,44.4v85.7h-30.1V572.7h30.1v43.6
		c9-16,20.3-27.8,33.8-35.3c13.5-7.5,29.3-11.3,47.4-11.3V602.8z"/>
</g>
</svg>
