<?xml version="1.0" encoding="utf-8"?>
<!-- Generator: Adobe Illustrator 28.0.0, SVG Export Plug-In . SVG Version: 6.00 Build 0)  -->
<svg version="1.1" id="Layer_1" xmlns="http://www.w3.org/2000/svg" xmlns:xlink="http://www.w3.org/1999/xlink" x="0px" y="0px"
	 viewBox="0 0 48 48" style="enable-background:new 0 0 48 48;" xml:space="preserve">
<style type="text/css">
	.st0{clip-path:url(#SVGID_00000076570638122743909300000014393375620789193637_);}
	.st1{fill-rule:evenodd;clip-rule:evenodd;fill:#BAE7FF;}
	.st2{fill-rule:evenodd;clip-rule:evenodd;fill:#E5F7FF;}
	.st3{fill:none;stroke:#D9D9D9;stroke-width:0.3179;stroke-miterlimit:1.2715;}
	.st4{fill:#F5F5F5;}
	.st5{fill:#BAE7FF;}
</style>
<g>
	<defs>
		<rect id="SVGID_1_" y="8" width="48" height="32.1"/>
	</defs>
	<clipPath id="SVGID_00000046323641384316320600000017317416262210082468_">
		<use xlink:href="#SVGID_1_"  style="overflow:visible;"/>
	</clipPath>
	<g style="clip-path:url(#SVGID_00000046323641384316320600000017317416262210082468_);">
		<path class="st1" d="M0,10.1h6.5v29.9H0.6c-0.3,0-0.6-0.3-0.6-0.6V10.1z"/>
		<path class="st2" d="M0.2,11.8V8.8c0-0.3,0.3-0.6,0.6-0.6h46.5c0.3,0,0.6,0.3,0.6,0.6v3.1H0.2z"/>
		<path class="st3" d="M47.2,8.1H0.8c-0.3,0-0.6,0.3-0.6,0.6v30.6c0,0.3,0.3,0.6,0.6,0.6h46.5c0.3,0,0.6-0.3,0.6-0.6V8.8
			C47.8,8.4,47.6,8.1,47.2,8.1z"/>
		<path class="st4" d="M44.9,18.5H9.6V37h35.3V18.5z"/>
		<path class="st5" d="M22.9,15.1H9.6v1.5h13.3V15.1z"/>
	</g>
</g>
</svg>
