<svg xmlns="http://www.w3.org/2000/svg" viewBox="0 0 64 60" id="DetailsPopup"><path fill="#caced8" d="M0 57V3c0-1.7 1.3-3 3-3h58c1.7 0 3 1.3 3 3v54c0 1.7-1.3 3-3 3H3c-1.7 0-3-1.3-3-3z" class="colorcad1d8 svgShape"></path><circle cx="3" cy="4" r="1" fill="#4575f6" class="color9ba7af svgShape"></circle><circle cx="7" cy="4" r="1" fill="#4575f6" class="color9ba7af svgShape"></circle><circle cx="11" cy="4" r="1" fill="#4575f6" class="color9ba7af svgShape"></circle><path fill="#4575f6" d="M3 8h58c.6 0 1 .4 1 1v48c0 .6-.4 1-1 1H3c-.6 0-1-.4-1-1V9c0-.6.4-1 1-1z" class="color9ba7af svgShape"></path><path fill="#e2e3e7" d="M61 5H15c-.6 0-1-.4-1-1s.4-1 1-1h46c.6 0 1 .4 1 1s-.4 1-1 1z" class="colore2e5e7 svgShape"></path><path fill="#ffffff" d="M12 16h40c.6 0 1 .4 1 1v32c0 .6-.4 1-1 1H12c-.6 0-1-.4-1-1V17c0-.6.4-1 1-1z" class="colorffffff svgShape"></path><path fill="#e2e3e7" d="M35 48h-6c-1.1 0-2-.9-2-2s.9-2 2-2h6c1.1 0 2 .9 2 2s-.9 2-2 2z" class="colore2e5e7 svgShape"></path><path fill="#3b5cb5" d="M35 47h-6c-1.1 0-2-.9-2-2s.9-2 2-2h6c1.1 0 2 .9 2 2s-.9 2-2 2z" class="color3bb54a svgShape"></path><circle cx="32" cy="45" r="1" fill="#0e3293" class="color0e9347 svgShape"></circle><path fill="#e2e3e7" d="m49.9 20.5.8-.8c.4-.4.4-1 0-1.4s-1-.4-1.4 0l-.8.8-.8-.8c-.4-.4-1-.4-1.4 0s-.4 1 0 1.4l.8.8-.8.8c-.4.4-.4 1 0 1.4.2.2.5.3.7.3s.5-.1.7-.3l.8-.8.8.8c.2.2.5.3.7.3s.5-.1.7-.3c.4-.4.4-1 0-1.4l-.8-.8z" class="colore2e5e7 svgShape"></path><path fill="#caced8" d="M48 28H16c-.6 0-1-.4-1-1s.4-1 1-1h32c.6 0 1 .4 1 1s-.4 1-1 1zm-10 8H16c-.6 0-1-.4-1-1s.4-1 1-1h22c.6 0 1 .4 1 1s-.4 1-1 1zm-5-4H16c-.6 0-1-.4-1-1s.4-1 1-1h17c.6 0 1 .4 1 1s-.4 1-1 1z" class="colorcad1d8 svgShape"></path><path fill="#595d66" d="M15 21c0-.6.4-1 1-1h12c.6 0 1 .4 1 1s-.4 1-1 1H16c-.6 0-1-.4-1-1zm16 0c0-.6.4-1 1-1h6c.6 0 1 .4 1 1s-.4 1-1 1h-6c-.6 0-1-.4-1-1z" class="color595a66 svgShape"></path><path fill="#caced8" d="M41 35c0-.6.4-1 1-1h3c.6 0 1 .4 1 1s-.4 1-1 1h-3c-.6 0-1-.4-1-1zm-5-4c0-.6.4-1 1-1h8c.6 0 1 .4 1 1s-.4 1-1 1h-8c-.6 0-1-.4-1-1zm-21 8c0-.6.4-1 1-1h8c.6 0 1 .4 1 1s-.4 1-1 1h-8c-.6 0-1-.4-1-1zm12 0c0-.6.4-1 1-1h8c.6 0 1 .4 1 1s-.4 1-1 1h-8c-.6 0-1-.4-1-1z" class="colorcad1d8 svgShape"></path></svg>