<?xml version="1.0" encoding="utf-8"?>
<!-- Generator: Adobe Illustrator 27.9.0, SVG Export Plug-In . SVG Version: 6.00 Build 0)  -->
<svg version="1.1" id="Layer_1" xmlns="http://www.w3.org/2000/svg" xmlns:xlink="http://www.w3.org/1999/xlink" x="0px" y="0px"
	 viewBox="0 0 48 48" style="enable-background:new 0 0 48 48;" xml:space="preserve">
<style type="text/css">
	.st0{fill:#3377FF;}
	.st1{fill:#CFD8DC;}
	.st2{fill:#90A4AE;}
	.st3{fill:#DBDBDB;}
</style>
<path class="st0" d="M43.6,29.5H20.4c-0.5,0-1.1-0.2-1.5-0.7l-4-4c-0.4-0.4-0.4-1.1,0-1.5l4-4c0.4-0.4,1-0.7,1.5-0.7h23.2
	c0.7,0,1.1,0.4,1.1,1.1v8.7C44.7,29,44.2,29.5,43.6,29.5z"/>
<path class="st1" d="M7.5,4.3h2.2v39.3H7.5V4.3z"/>
<path class="st2" d="M5.3,8.7c0,1.8,1.5,3.3,3.3,3.3c1.8,0,3.3-1.5,3.3-3.3c0,0,0,0,0,0c0-1.8-1.5-3.3-3.3-3.3S5.3,6.9,5.3,8.7
	L5.3,8.7z"/>
<path class="st2" d="M5.3,24c0,1.8,1.5,3.3,3.3,3.3s3.3-1.5,3.3-3.3c0,0,0,0,0,0c0-1.8-1.5-3.3-3.3-3.3S5.3,22.2,5.3,24L5.3,24z"/>
<path class="st2" d="M5.3,39.3c0,1.8,1.5,3.3,3.3,3.3s3.3-1.5,3.3-3.3c0,0,0,0,0,0c0-1.8-1.5-3.3-3.3-3.3S5.3,37.5,5.3,39.3
	L5.3,39.3z"/>
<path class="st3" d="M34.8,44.8H20.4c-0.5,0-1.1-0.2-1.5-0.7l-4-4c-0.4-0.4-0.4-1.1,0-1.5l4-4c0.4-0.4,1-0.7,1.5-0.7h14.4
	c0.7,0,1.1,0.4,1.1,1.1v8.7C35.9,44.3,35.5,44.8,34.8,44.8z"/>
<path class="st3" d="M35.9,14.2H20.4c-0.5,0-1.1-0.2-1.5-0.7l-4-4c-0.4-0.4-0.4-1.1,0-1.5l4-4c0.4-0.4,1-0.7,1.5-0.7h15.5
	c0.7,0,1.1,0.4,1.1,1.1v8.7C37,13.7,36.6,14.2,35.9,14.2L35.9,14.2z"/>
</svg>
