<svg xmlns="http://www.w3.org/2000/svg" viewBox="0 0 64 60" id="CompletingStatusTab"><path fill="#caced8" d="M0 57V3c0-1.7 1.3-3 3-3h58c1.7 0 3 1.3 3 3v54c0 1.7-1.3 3-3 3H3c-1.7 0-3-1.3-3-3z" class="colorcad1d8 svgShape"></path><circle cx="3" cy="4" r="1" fill="#9ba0af" class="color9ba7af svgShape"></circle><circle cx="7" cy="4" r="1" fill="#9ba0af" class="color9ba7af svgShape"></circle><circle cx="11" cy="4" r="1" fill="#9ba0af" class="color9ba7af svgShape"></circle><path fill="#ffffff" d="M3 8h58c.6 0 1 .4 1 1v48c0 .6-.4 1-1 1H3c-.6 0-1-.4-1-1V9c0-.6.4-1 1-1z" class="colorffffff svgShape"></path><path fill="#e2e3e7" d="M61 5H15c-.6 0-1-.4-1-1s.4-1 1-1h46c.6 0 1 .4 1 1s-.4 1-1 1z" class="colore2e5e7 svgShape"></path><path fill="#595d66" d="M45 16H19c-.6 0-1-.4-1-1s.4-1 1-1h26c.6 0 1 .4 1 1s-.4 1-1 1zm-5 4H24c-.6 0-1-.4-1-1s.4-1 1-1h16c.6 0 1 .4 1 1s-.4 1-1 1z" class="color595a66 svgShape"></path><path fill="#caced8" d="M47 49H9.9c-.6 0-1-.4-1-1s.4-1 1-1H47c.6 0 1 .4 1 1s-.4 1-1 1zm-18 3c0-.6.4-1 1-1h3c.6 0 1 .4 1 1s-.4 1-1 1h-3c-.6 0-1-.4-1-1zM8.9 52c0-.6.4-1 1-1H26c.6 0 1 .4 1 1s-.4 1-1 1H9.9c-.6 0-1-.4-1-1z" class="colorcad1d8 svgShape"></path><path fill="#e2e3e7" d="M51.9 35h-40c-1.1 0-2-.9-2-2s.9-2 2-2h40c1.1 0 2 .9 2 2s-.9 2-2 2z" class="colore2e5e7 svgShape"></path><path fill="#4575f6" d="M11.9 31h13v4h-13c-1.1 0-2-.9-2-2s.9-2 2-2z" class="color3689c9 svgShape"></path><path fill="#4575f6" d="M11.9 30c-1.7 0-3.1 1.4-3 3.2C9 34.8 10.4 36 12 36h39.8c1.7 0 3-1.3 3-3s-1.3-3-3-3H11.9zm40 5H12c-1 0-1.9-.7-2.1-1.7-.2-1.3.8-2.3 2-2.3h40c1.1 0 2 .9 2 2s-.9 2-2 2z" class="color3689c9 svgShape"></path></svg>