<svg version="1.1" xmlns="http://www.w3.org/2000/svg" xmlns:xlink="http://www.w3.org/1999/xlink" width="40" height="40" viewBox="0,0,256,256"><g fill="#D7D9E0" fill-rule="nonzero" stroke="none" stroke-width="1" stroke-linecap="butt" stroke-linejoin="miter" stroke-miterlimit="10" stroke-dasharray="" stroke-dashoffset="0" font-family="none" font-weight="none" font-size="none" text-anchor="none" style="mix-blend-mode: normal"><g transform="scale(16,16)"><path d="M1.5,2c-0.82253,0 -1.5,0.67747 -1.5,1.5v7c0,0.82253 0.67747,1.5 1.5,1.5h5.49414c-0.00029,0.16122 -0.00065,0.32689 0,0.51172c0.00086,0.24511 0.00072,0.3035 0.00195,0.48828h-2.99609v1h7v-1h-3.00391c-0.00124,-0.18486 -0.00108,-0.24532 -0.00195,-0.49219c-0.00065,-0.18411 -0.00029,-0.34846 0,-0.50781h5.50586c0.82253,0 1.5,-0.67747 1.5,-1.5v-7c0,-0.82253 -0.67747,-1.5 -1.5,-1.5zM1.5,3h12c0.28147,0 0.5,0.21853 0.5,0.5v7c0,0.28147 -0.21853,0.5 -0.5,0.5h-12c-0.28147,0 -0.5,-0.21853 -0.5,-0.5v-7c0,-0.28147 0.21853,-0.5 0.5,-0.5zM3.5,5c-0.27613,0.00003 -0.49997,0.22387 -0.5,0.5v3c0.00003,0.27613 0.22387,0.49997 0.5,0.5h2c0.27613,-0.00003 0.49997,-0.22387 0.5,-0.5v-3c-0.00003,-0.27613 -0.22387,-0.49997 -0.5,-0.5zM7.5,5c-0.27613,0.00003 -0.49997,0.22387 -0.5,0.5v3c0.00003,0.27613 0.22387,0.49997 0.5,0.5h4c0.27613,-0.00003 0.49997,-0.22387 0.5,-0.5v-3c-0.00003,-0.27613 -0.22387,-0.49997 -0.5,-0.5zM4,6h1v2h-1zM8,6h3v2h-3z"></path></g></g></svg>