<svg xmlns="http://www.w3.org/2000/svg" viewBox="0 0 64 60" id="Rating"><path fill="#caced8" d="M61 0H3C1.3 0 0 1.3 0 3v54c0 1.7 1.3 3 3 3h58c1.7 0 3-1.3 3-3V3c0-1.7-1.3-3-3-3z" class="colorcad1d8 svgShape"></path><circle cx="7" cy="4" r="1" fill="#4575f6" class="color9ba7af svgShape"></circle><circle cx="11" cy="4" r="1" fill="#4575f6" class="color9ba7af svgShape"></circle><path fill="#ffffff" d="M3 8h58c.6 0 1 .4 1 1v48c0 .6-.4 1-1 1H3c-.6 0-1-.4-1-1V9c0-.6.4-1 1-1z" class="colorffffff svgShape"></path><path fill="#e2e3e7" d="M61 5H15c-.6 0-1-.4-1-1s.4-1 1-1h46c.6 0 1 .4 1 1s-.4 1-1 1z" class="colore2e5e7 svgShape"></path><circle cx="3" cy="4" r="1" fill="#4575f6" class="color9ba7af svgShape"></circle><path fill="#3568f1" d="M33.6 34c-.1 0-.2 0-.2-.1l-1.4-.7-1.3.7c-.2.1-.4.1-.5 0-.2-.1-.2-.3-.2-.5l.3-1.5-1.1-1.1c-.2-.2-.2-.4-.2-.5.1-.2.2-.3.4-.3l1.5-.2.7-1.4c.1-.2.3-.3.4-.3.2 0 .4.1.4.3l.7 1.4 1.5.2c.2 0 .3.2.4.3.1.2 0 .4-.1.5l-1.1 1.1.3 1.5c0 .2 0 .4-.2.5-.1.1-.2.1-.3.1z" class="colorf19f35 svgShape"></path><path fill="#caced8" d="M51.7 34c-.1 0-.2 0-.2-.1l-1.3-.7-1.3.7c-.2.1-.4.1-.5 0-.2-.1-.2-.3-.2-.5l.3-1.5-1.1-1.1c-.1-.1-.2-.3-.1-.5s.2-.3.4-.3l1.5-.2.7-1.4c.1-.2.3-.3.4-.3.2 0 .4.1.4.3l.7 1.4 1.5.2c.2 0 .3.2.4.3.1.2 0 .4-.1.5l-1.1 1.1.3 1.5c0 .2 0 .4-.2.5-.3.1-.4.1-.5.1z" class="colorcad1d8 svgShape"></path><path fill="#3568f1" d="M15.7 34c-.1 0-.2 0-.2-.1l-1.3-.7-1.3.7c-.2.1-.4.1-.5 0-.2-.1-.2-.3-.2-.5l.3-1.5-1.1-1.1c-.1-.1-.2-.3-.1-.5s.2-.3.4-.3l1.5-.2.7-1.4c.1-.2.3-.3.4-.3.2 0 .4.1.4.3l.7 1.4 1.5.2c.2 0 .3.2.4.3.1.2 0 .4-.1.5l-1.1 1.1.3 1.5c0 .2 0 .4-.2.5-.3.1-.4.1-.5.1zm8.9 0c-.1 0-.2 0-.2-.1l-1.4-.7-1.3.7c-.2.1-.4.1-.5 0-.2-.1-.2-.3-.2-.5l.3-1.5-1.1-1.1c-.2-.2-.2-.4-.2-.5.1-.2.2-.3.4-.3l1.5-.2.7-1.4c.1-.2.3-.3.4-.3.2 0 .4.1.4.3l.7 1.4 1.5.2c.2 0 .3.2.4.3.1.2 0 .4-.1.5l-1.1 1.1.3 1.5c0 .2 0 .4-.2.5-.1.1-.2.1-.3.1z" class="colorf19f35 svgShape"></path><path fill="#caced8" d="m43.7 29.9-1.5-.2-.7-1.4c-.1-.2-.3-.3-.4-.3H41v5.2l.1-.1 1.3.7c.1 0 .1.1.2.1s.2 0 .3-.1c.2-.1.2-.3.2-.5l-.3-1.5 1.1-1.1c.1-.1.2-.3.1-.5 0-.1-.1-.3-.3-.3z" class="colorcad1d8 svgShape"></path><path fill="#3568f1" d="M41 28c-.1 0-.3.1-.3.3l-.7 1.4-1.5.2c-.2 0-.3.2-.4.3-.1.2 0 .4.1.5l1.1 1.1-.3 1.5c0 .2 0 .4.2.5.2.1.4.1.5 0l1.2-.7V28z" class="colorf19f35 svgShape"></path><path fill="#e2e3e7" d="M39 50H25c-1.7 0-3-1.3-3-3s1.3-3 3-3h14c1.7 0 3 1.3 3 3s-1.3 3-3 3z" class="colore2e5e7 svgShape"></path><path fill="#3b5cb5" d="M39 49H25c-1.7 0-3-1.3-3-3s1.3-3 3-3h14c1.7 0 3 1.3 3 3s-1.3 3-3 3z" class="color3bb54a svgShape"></path><circle cx="32" cy="46" r="1" fill="#0e3293" class="color0e9347 svgShape"></circle><circle cx="36" cy="46" r="1" fill="#0e3293" class="color0e9347 svgShape"></circle><circle cx="28" cy="46" r="1" fill="#0e3293" class="color0e9347 svgShape"></circle><path fill="#595d66" d="M45 18H19c-.6 0-1-.4-1-1s.4-1 1-1h26c.6 0 1 .4 1 1s-.4 1-1 1zm-5 4H24c-.6 0-1-.4-1-1s.4-1 1-1h16c.6 0 1 .4 1 1s-.4 1-1 1z" class="color595a66 svgShape"></path></svg>