<svg xmlns="http://www.w3.org/2000/svg" viewBox="0 0 64 60" id="ImageDescription"><path fill="#caced8" d="M0 57V3c0-1.7 1.3-3 3-3h58c1.7 0 3 1.3 3 3v54c0 1.7-1.3 3-3 3H3c-1.7 0-3-1.3-3-3z" class="colorcad1d8 svgShape"></path><circle cx="3" cy="4" r="1" fill="#4575f6" class="color9ba7af svgShape"></circle><circle cx="7" cy="4" r="1" fill="#4575f6" class="color9ba7af svgShape"></circle><circle cx="11" cy="4" r="1" fill="#4575f6" class="color9ba7af svgShape"></circle><path fill="#ffffff" d="M3 8h58c.6 0 1 .4 1 1v48c0 .6-.4 1-1 1H3c-.6 0-1-.4-1-1V9c0-.6.4-1 1-1z" class="colorffffff svgShape"></path><path fill="#e2e3e7" d="M61 5H15c-.6 0-1-.4-1-1s.4-1 1-1h46c.6 0 1 .4 1 1s-.4 1-1 1z" class="colore2e5e7 svgShape"></path><path fill="#abc0fa" d="M29 35H7c-.6 0-1-.4-1-1V18c0-.6.4-1 1-1h22c.6 0 1 .4 1 1v16c0 .6-.4 1-1 1z" class="colorabe1fa svgShape"></path><circle cx="11" cy="21" r="2" fill="#3568f1" class="colorf19f35 svgShape"></circle><path fill="#595d66" d="m30 33-7.3-7.3c-.4-.4-1-.4-1.4 0L12 35h17c.6 0 1-.4 1-1v-1z" class="color595a66 svgShape"></path><path fill="#35373e" d="M26 30c-.3.3-.3.7 0 1l.6.6c.9.9 1.4 2.1 1.4 3.4h1c.6 0 1-.4 1-1v-1l-3-3c-.3-.3-.7-.3-1 0z" class="color35363e svgShape"></path><path fill="#595d66" d="M7 35h12l-6.2-7.1c-.4-.5-1.1-.5-1.5 0L6 33v1c0 .6.4 1 1 1z" class="color595a66 svgShape"></path><path fill="#35373e" d="M18.2 31.8c-.6-.7-1.6-.9-2.4-.5L19 35h2l-2.8-3.2z" class="color35363e svgShape"></path><path fill="#6f737e" d="M19.1 29.3c.2.2.5.2.7 0l1.4-1.4c.2-.2.2-.5 0-.7-.2-.2-.5-.2-.7 0l-1.4 1.4c-.1.2-.1.5 0 .7zm-9.4 1.6c.2.2.5.2.7 0l1.4-1.4c.2-.2.2-.5 0-.7-.2-.2-.5-.2-.7 0l-1.4 1.4c-.2.1-.2.5 0 .7z" class="color6f707e svgShape"></path><path fill="#caced8" d="M27 47H7c-.6 0-1-.4-1-1s.4-1 1-1h20c.6 0 1 .4 1 1s-.4 1-1 1zm-3-4H7c-.6 0-1-.4-1-1s.4-1 1-1h17c.6 0 1 .4 1 1s-.4 1-1 1zm-1 8H7c-.6 0-1-.4-1-1s.4-1 1-1h16c.6 0 1 .4 1 1s-.4 1-1 1zm28-4H37c-.6 0-1-.4-1-1s.4-1 1-1h14c.6 0 1 .4 1 1s-.5 1-1 1zm6-8H37c-.6 0-1-.4-1-1s.4-1 1-1h20c.6 0 1 .4 1 1s-.4 1-1 1zm-4 4H37c-.6 0-1-.4-1-1s.4-1 1-1h16c.6 0 1 .4 1 1s-.5 1-1 1zm0 8H37c-.6 0-1-.4-1-1s.4-1 1-1h16c.6 0 1 .4 1 1s-.5 1-1 1zm-2-20H37c-.6 0-1-.4-1-1s.4-1 1-1h14c.6 0 1 .4 1 1s-.5 1-1 1zm6-8H37c-.6 0-1-.4-1-1s.4-1 1-1h20c.6 0 1 .4 1 1s-.4 1-1 1zm0-4H37c-.6 0-1-.4-1-1s.4-1 1-1h20c.6 0 1 .4 1 1s-.4 1-1 1zm-4 8H37c-.6 0-1-.4-1-1s.4-1 1-1h16c.6 0 1 .4 1 1s-.5 1-1 1zm0 8H37c-.6 0-1-.4-1-1s.4-1 1-1h16c.6 0 1 .4 1 1s-.5 1-1 1zM27 55H7c-.6 0-1-.4-1-1s.4-1 1-1h20c.6 0 1 .4 1 1s-.4 1-1 1zm17 0h-7c-.6 0-1-.4-1-1s.4-1 1-1h7c.6 0 1 .4 1 1s-.4 1-1 1z" class="colorcad1d8 svgShape"></path><path fill="#595d66" d="M6 13c0-.6.4-1 1-1h10c.6 0 1 .4 1 1s-.4 1-1 1H7c-.6 0-1-.4-1-1zm14 0c0-.6.4-1 1-1h5c.6 0 1 .4 1 1s-.4 1-1 1h-5c-.6 0-1-.4-1-1z" class="color595a66 svgShape"></path></svg>