<svg t="1691242418775" class="icon" viewBox="0 0 1024 1024" version="1.1" xmlns="http://www.w3.org/2000/svg" p-id="15052" width="200" height="200"><path d="M497.6 263.9l-4.5-41.9-2.5-21-1.9-12.1c-0.7-4-1.9-7.9-2.9-11.7-9-30.9-28.6-56.9-53-74.1C408.3 86 379.2 77.4 350.6 78c-27.9 0.6-55.8 0.7-83.8 0.1l-41.9-1.4-20.9-1.1h-11c-3.7 0-7.3 0.6-11 0.9-29.3 3.4-58.1 17.4-79.1 40-10.4 11.3-19.1 24.5-25 39-5.9 14.5-9.2 30.1-10 45.9l-2.7 83.8-1.3 41.8-0.7 21 0.3 12.3c0.2 4.1 0.9 8.2 1.3 12.2 5 32.6 21.8 63.5 47 85.4 25.1 22 58.4 35 92.3 35.8 27.9 0.8 55.8 1.6 83.8 2.8l41.9 1.7 21 0.8 13.2-0.2c4.4-0.1 8.8-0.9 13.2-1.4 35-5.2 68.3-23.5 91.2-50.9 11.3-13.8 20.5-29.4 26.3-46.3 5.8-16.9 8.5-34.7 8.3-52.4-1-28-2.8-55.9-5.4-83.9z m-45.9-71.6l-0.8 8.9-2.5 20.9-4.5 41.9c-2.6 27.9-4.4 55.8-5.4 83.8-1 20.5-8.7 40-21.5 55.5-12.9 15.6-30.9 26.7-50.8 31.2-2.5 0.4-5 1.2-7.6 1.5l-7.7 0.8-20.9 0.9-41.9 1.7c-27.9 1.1-55.8 2-83.8 2.8-22 0.6-44.2-6.5-61.9-20.4-17.8-13.8-30.4-34.3-35.1-56.6-0.5-2.8-1.2-5.6-1.5-8.5l-0.8-8.6-0.7-20.9-1.3-41.9-2.7-83.8c-0.9-24.2 6.4-48.9 21.2-69.3 14.8-20.4 37.3-35.8 62.9-42.2 3.2-0.6 6.4-1.5 9.7-1.9L204 87l20.9-1.1 41.9-1.4c27.9-0.6 55.8-0.5 83.8 0.1 27.2 0.8 53.6 12.2 72 30.9 18.6 18.6 28.4 43.9 29.2 67.9-0.1 3 0.2 5.9-0.1 8.9zM497.6 709.6l-4.5-41.9-2.5-21-1.9-12.1c-0.7-4-1.9-7.9-2.9-11.7-9-30.9-28.6-56.9-53-74.1-24.5-17.2-53.6-25.8-82.2-25.2-27.9 0.6-55.8 0.7-83.8 0.1l-41.9-1.4-20.9-1.1h-11c-3.7 0-7.3 0.6-11 0.9-29.3 3.4-58.1 17.4-79.1 40-10.4 11.3-19.1 24.5-25 39-5.9 14.5-9.2 30.1-10 45.9l-2.7 83.8-1.3 41.9-0.7 21 0.3 12.3c0.2 4.1 0.9 8.2 1.3 12.2 5 32.6 21.8 63.5 47 85.4 25.1 22 58.4 35 92.3 35.8 27.9 0.8 55.8 1.6 83.8 2.8l41.9 1.7 21 0.8 13.2-0.2c4.4-0.1 8.8-0.9 13.2-1.4 35-5.2 68.3-23.5 91.2-50.9 11.3-13.8 20.5-29.4 26.3-46.3 5.8-16.9 8.5-34.7 8.3-52.4-1-28-2.8-55.9-5.4-83.9zM451.7 638l-0.8 8.9-2.5 20.9-4.5 41.9c-2.6 27.9-4.4 55.8-5.4 83.8-1 20.5-8.7 40-21.5 55.5-12.9 15.6-30.9 26.7-50.8 31.2-2.5 0.4-5 1.2-7.6 1.5l-7.7 0.8-20.9 0.9-42 1.6c-27.9 1.1-55.8 2-83.8 2.8-22 0.6-44.2-6.5-61.9-20.4-17.8-13.8-30.4-34.3-35.1-56.6-0.5-2.8-1.2-5.6-1.5-8.5l-0.8-8.6-0.7-20.9-1.3-41.9-2.7-83.8c-0.9-24.2 6.4-48.9 21.2-69.3 14.8-20.4 37.3-35.8 62.9-42.2 3.2-0.6 6.4-1.5 9.7-1.9l9.9-1.1 20.9-1.1 41.9-1.4c27.9-0.6 55.8-0.5 83.8 0.1 27.2 0.8 53.6 12.2 72 30.9 18.6 18.6 28.4 43.9 29.2 67.9 0 3 0.3 6 0 9zM521.3 372.5c5 32.6 21.8 63.5 47 85.4 25.1 22 58.4 35 92.3 35.8 27.9 0.8 55.8 1.6 83.8 2.8l41.9 1.7 21 0.8 13.2-0.2c4.4-0.1 8.8-0.9 13.2-1.4 35-5.2 68.3-23.5 91.2-50.9 11.3-13.8 20.5-29.4 26.3-46.3 5.8-16.9 8.5-34.7 8.3-52.4-1-27.9-2.8-55.8-5.4-83.8l-4.5-41.9-2.5-21L945 189c-0.7-4-1.9-7.9-2.9-11.7-9-30.9-28.6-56.9-53-74.1C864.7 86 835.6 77.4 806.9 78c-27.9 0.6-55.8 0.7-83.8 0.1l-41.9-1.4-20.9-1.1h-11c-3.7 0-7.3 0.6-11 0.9-29.3 3.4-58.1 17.4-79.1 40-10.4 11.3-19.1 24.5-25 39-5.9 14.5-9.2 30.1-10 45.9l-2.7 83.8-1.3 41.9-0.7 21 0.3 12.3c0.3 3.9 1 8 1.5 12.1zM577.8 132c14.8-20.4 37.3-35.8 62.9-42.2 3.2-0.6 6.4-1.5 9.7-1.9l9.9-1.1 20.9-1.1 41.9-1.4c27.9-0.6 55.8-0.5 83.8 0.1 27.2 0.8 53.6 12.2 72 30.9 18.6 18.6 28.4 43.9 29.2 67.9-0.1 3 0.2 6-0.1 9l-0.8 8.9-2.5 20.9-4.5 41.9c-2.6 27.9-4.4 55.8-5.4 83.8-1 20.5-8.7 40-21.5 55.5-12.9 15.6-30.9 26.7-50.8 31.2-2.5 0.4-5 1.2-7.6 1.5l-7.7 0.8-20.9 0.9-41.9 1.7c-27.9 1.1-55.8 2-83.8 2.8-22 0.6-44.2-6.5-61.9-20.4-17.8-13.8-30.4-34.3-35.1-56.6-0.5-2.8-1.2-5.6-1.5-8.5l-0.8-8.6-0.7-20.9-1.3-41.9-2.7-83.8c-1-24.3 6.4-49 21.2-69.4zM954 709.6l-4.5-41.9-2.5-21-1.9-12.1c-0.7-4-1.9-7.9-2.9-11.7-9-30.9-28.6-56.9-53-74.1-24.5-17.2-53.6-25.8-82.2-25.2-27.9 0.6-55.8 0.7-83.8 0.1l-41.9-1.4-20.9-1.1h-11c-3.7 0-7.3 0.6-11 0.9-29.3 3.4-58.1 17.4-79.1 40-10.4 11.3-19.1 24.5-25 39-5.9 14.5-9.2 30.1-10 45.9l-2.7 83.8-1.3 41.9-0.7 21 0.3 12.3c0.1 4.1 0.9 8.2 1.3 12.2 5 32.6 21.8 63.5 47 85.4 25.1 22 58.4 35 92.3 35.8 27.9 0.8 55.8 1.6 83.8 2.8l41.9 1.7 21 0.8 13.2-0.2c4.4-0.1 8.8-0.9 13.2-1.4 35-5.2 68.3-23.5 91.2-50.9 11.3-13.8 20.5-29.4 26.3-46.3 5.8-16.9 8.5-34.7 8.3-52.4-1-28-2.8-55.9-5.4-83.9zM908.1 638l-0.8 8.9-2.5 20.9-4.5 41.9c-2.6 27.9-4.4 55.8-5.4 83.8-1 20.5-8.7 40-21.5 55.5-12.9 15.6-30.9 26.7-50.8 31.2-2.5 0.4-5 1.2-7.6 1.5l-7.7 0.8-20.9 0.9-41.9 1.7c-27.9 1.1-55.8 2-83.8 2.8-22 0.6-44.2-6.5-61.9-20.4-17.8-13.8-30.4-34.3-35.1-56.6-0.5-2.8-1.2-5.6-1.5-8.5l-0.8-8.6-0.7-20.9-1.3-41.9-2.7-83.8c-0.9-24.2 6.4-48.9 21.2-69.3 14.8-20.4 37.3-35.8 62.9-42.2 3.2-0.6 6.4-1.5 9.7-1.9l9.9-1.1 20.9-1.1 41.9-1.4c27.9-0.6 55.8-0.5 83.8 0.1 27.2 0.8 53.6 12.2 72 30.9 18.6 18.6 28.4 43.9 29.2 67.9-0.1 2.9 0.1 5.9-0.1 8.9z" fill="#d7d9e0" p-id="15053"></path></svg>