<svg t="1690904126721" class="icon" viewBox="0 0 1024 1024" version="1.1" xmlns="http://www.w3.org/2000/svg" p-id="2446" width="200" height="200"><path d="M219.428571 98.742857A25.6 25.6 0 0 1 245.028571 73.142857h58.514286a25.6 25.6 0 0 1 25.6 25.6v67.145143h365.714286V98.742857A25.6 25.6 0 0 1 720.457143 73.142857h58.514286a25.6 25.6 0 0 1 25.6 25.6v67.145143h18.285714c70.656 0 128 55.954286 128 124.928v535.186286c0 68.973714-57.344 124.854857-128 124.854857h-621.714286C130.486857 950.857143 73.142857 894.976 73.142857 826.002286V290.816c0-68.973714 57.344-124.928 128-124.928H219.428571V98.742857z m603.428572 160.841143h-621.714286a31.817143 31.817143 0 0 0-31.451428 25.6l-0.512 5.632v535.186286c0 15.36 11.264 28.086857 26.185142 30.72l5.778286 0.512h621.714286a31.817143 31.817143 0 0 0 31.451428-25.6l0.585143-5.632V290.816a31.451429 31.451429 0 0 0-26.331428-30.72l-5.705143-0.512zM611.474286 501.321143l-59.026286 244.882286H458.605714l65.828572-244.882286H418.816v-76.068572H611.474286v76.068572z" fill="#d7d9e0" p-id="2447" data-spm-anchor-id="a313x.7781069.0.i3.1e113a819S3vft" class="selected"></path></svg>