<svg xmlns="http://www.w3.org/2000/svg" viewBox="0 0 64 60" id="FullGrid"><path fill="#caced8" d="M0 57V3c0-1.7 1.3-3 3-3h58c1.7 0 3 1.3 3 3v54c0 1.7-1.3 3-3 3H3c-1.7 0-3-1.3-3-3z" class="colorcad1d8 svgShape"></path><circle cx="3" cy="4" r="1" fill="#4575f6" class="color9ba7af svgShape"></circle><circle cx="7" cy="4" r="1" fill="#4575f6" class="color9ba7af svgShape"></circle><circle cx="11" cy="4" r="1" fill="#4575f6" class="color9ba7af svgShape"></circle><path fill="#ffffff" d="M3 8h58c.6 0 1 .4 1 1v48c0 .6-.4 1-1 1H3c-.6 0-1-.4-1-1V9c0-.6.4-1 1-1z" class="colorffffff svgShape"></path><path fill="#e2e3e7" d="M61 5H15c-.6 0-1-.4-1-1s.4-1 1-1h46c.6 0 1 .4 1 1s-.4 1-1 1zM6 52V14c0-1.1.9-2 2-2h48c1.1 0 2 .9 2 2v38c0 1.1-.9 2-2 2H8c-1.1 0-2-.9-2-2z" class="colore2e5e7 svgShape"></path></svg>