<?xml version="1.0" encoding="utf-8"?>
<svg version="1.1" id="图层_1" xmlns="http://www.w3.org/2000/svg" xmlns:xlink="http://www.w3.org/1999/xlink" x="0px" y="0px"
	 viewBox="0 0 1024 1024" style="enable-background:new 0 0 1024 1024;" xml:space="preserve">
<style type="text/css">
	.st0{fill:#D7D9E0;}
</style>
<g>
	<path id="svg_2" class="st0" d="M838,126.4h-59.4V79.2c0-6.7-5.6-12.3-12.6-12.3h-34.2c-7.1,0-12.6,5.5-12.6,12.3v47.2h-416V79.2
		c0-6.7-5.6-12.3-12.6-12.3h-34.2c-7.1,0-12.6,5.5-12.6,12.3v47.2h-59.4c-65.7,0-118.8,53.2-118.8,118.8v594.4
		c0,65.4,53.2,118.8,118.8,118.8H838c65.7,0,118.8-53.2,118.8-118.8V245.2C956.9,179.7,903.7,126.4,838,126.4L838,126.4z
		 M897.4,839.6c0,32.8-26.5,59.3-59.4,59.3H184.3c-32.8,0-59.4-26.7-59.4-59.3V364.1h772.5V839.6z M897.4,304.7H124.9v-59.5
		c0-32.8,26.5-59.3,59.4-59.3h59.4V233c0,6.7,5.6,12.3,12.6,12.3h34.2c7.1,0,12.6-5.5,12.6-12.3v-47.2h416V233
		c0,6.7,5.6,12.3,12.6,12.3H766c7.1,0,12.6-5.5,12.6-12.3v-47.2H838c32.8,0,59.4,26.7,59.4,59.3V304.7L897.4,304.7z"/>
</g>
<g>
	<path class="st0" d="M323.2,778.8c-25,0-46.3-4.8-63.8-14.5s-30.9-23.7-40.1-42.1c-9.2-18.4-13.8-40.7-13.8-66.8v-94.9
		c0-26.2,4.6-48.5,13.8-66.9c9.2-18.3,22.6-32.3,40.1-42c17.5-9.7,38.8-14.5,63.8-14.5c25,0,46.3,4.8,63.8,14.5
		c17.5,9.7,30.9,23.7,40.1,42c9.2,18.3,13.8,40.6,13.8,66.9v94.9c0,26.1-4.6,48.3-13.8,66.8c-9.2,18.4-22.6,32.5-40.1,42.1
		S348.2,778.8,323.2,778.8z M323.2,747.9c26.9,0,47.7-7.9,62.4-23.8c14.7-15.9,22.1-38.3,22.1-67.1v-98.1c0-28.9-7.4-51.2-22.1-67.1
		C370.8,475.9,350,468,323.2,468c-26.9,0-47.7,7.9-62.4,23.8c-14.7,15.9-22.1,38.3-22.1,67.1V657c0,28.9,7.4,51.2,22.1,67.1
		C275.5,740,296.3,747.9,323.2,747.9z M447.3,780.9l-124.8-98.3l18.6-23l124.8,98.1L447.3,780.9z"/>
	<path class="st0" d="M499.3,564.9v-28.5h107.8v28.5H499.3z M579.9,776.5c-19.7,0-33.9-5.4-42.7-16.3c-8.8-10.9-13.2-26.6-13.2-47
		V466.8h33.2v246.8c0,10.1,2.3,18,6.9,23.6c4.6,5.6,11.4,8.4,20.5,8.4h22.6v30.9H579.9z"/>
	<path class="st0" d="M671.5,775.3v-239h33.2v239H671.5z M812.2,579.2c-4.9-5.1-11.1-8.9-18.5-11.5c-7.4-2.6-16.1-3.9-25.9-3.9
		c-20.1,0-35.7,5.4-46.6,16.1c-11,10.7-16.5,25.5-16.5,44.2l-4.8-46c8.7-14.1,20.2-25.2,34.3-33.2c14.1-8,29.7-12,46.7-12
		c10.9,0,20.8,1.6,29.6,4.7c8.8,3.1,16.5,7.8,23.1,13.9L812.2,579.2z"/>
</g>
</svg>
