<svg xmlns="http://www.w3.org/2000/svg" enable-background="new 0 0 64 60" viewBox="0 0 64 60" id="ChattingLayout"><path fill="#caced8" d="M0,57V3c0-1.7,1.3-3,3-3h58c1.7,0,3,1.3,3,3v54c0,1.7-1.3,3-3,3H3C1.3,60,0,58.7,0,57z" class="colorcad1d8 svgShape"></path><circle cx="3" cy="4" r="1" fill="#9ba0af" class="color9ba7af svgShape"></circle><circle cx="7" cy="4" r="1" fill="#9ba0af" class="color9ba7af svgShape"></circle><circle cx="11" cy="4" r="1" fill="#9ba0af" class="color9ba7af svgShape"></circle><path fill="#ffffff" d="M3,8h58c0.6,0,1,0.4,1,1v48c0,0.6-0.4,1-1,1H3c-0.6,0-1-0.4-1-1V9C2,8.4,2.4,8,3,8z" class="colorffffff svgShape"></path><path fill="#e2e3e7" d="M61,5H15c-0.6,0-1-0.4-1-1v0c0-0.6,0.4-1,1-1h46c0.6,0,1,0.4,1,1v0C62,4.6,61.6,5,61,5z" class="colore2e5e7 svgShape"></path><circle cx="12" cy="19" r="4" fill="#abc0fa" class="colorabe1fa svgShape"></circle><path fill="#4575f6" d="M15,21.6c0-0.3-0.2-0.6-0.6-0.8l-1-0.6c-0.1-0.1-0.2-0.1-0.4-0.2v-0.5c0.3-0.3,0.5-0.7,0.5-1.1
		c0-0.8-0.7-1.5-1.5-1.5s-1.5,0.7-1.5,1.5c0,0.4,0.2,0.8,0.5,1.1v0.5c-0.1,0-0.3,0.1-0.4,0.2l-1,0.6C9.3,21,9.1,21.3,9,21.6
		c0.7,0.8,1.8,1.4,3,1.4S14.3,22.5,15,21.6z" class="color1b6fab svgShape"></path><path fill="#e2e3e7" d="M23,15.1c-1.1,0-2,0.9-2,2l0,0c0,1.1-0.9,2-2,2c1.1,0,2,0.9,2,2l0,0c0,1.1,0.9,2,2,2h31c1.1,0,2-0.9,2-2v-4
			c0-1.1-0.9-2-2-2H23z" class="colore2e5e7 svgShape"></path><circle cx="39" cy="19.1" r="1" fill="#9ba0af" class="color9ba7af svgShape"></circle><circle cx="44" cy="19.1" r="1" fill="#9ba0af" class="color9ba7af svgShape"></circle><circle cx="34" cy="19.1" r="1" fill="#9ba0af" class="color9ba7af svgShape"></circle><circle cx="52" cy="33.1" r="4" fill="#abc0fa" class="colorabe1fa svgShape"></circle><path fill="#4575f6" d="M55,35.8c0-0.3-0.2-0.6-0.6-0.8l-1-0.6c-0.1-0.1-0.2-0.1-0.4-0.2v-0.5c0.3-0.3,0.5-0.7,0.5-1.1
		c0-0.8-0.7-1.5-1.5-1.5s-1.5,0.7-1.5,1.5c0,0.4,0.2,0.8,0.5,1.1v0.5c-0.1,0-0.3,0.1-0.4,0.2l-1,0.6c-0.4,0.2-0.6,0.5-0.6,0.8
		c0.7,0.8,1.8,1.4,3,1.4S54.3,36.6,55,35.8z" class="color1b6fab svgShape"></path><path fill="#e2e3e7" d="M41,37.1c1.1,0,2-0.9,2-2l0,0c0-1.1,0.9-2,2-2c-1.1,0-2-0.9-2-2l0,0c0-1.1-0.9-2-2-2H10c-1.1,0-2,0.9-2,2v4
			c0,1.1,0.9,2,2,2H41z" class="colore2e5e7 svgShape"></path><circle cx="25" cy="33.1" r="1" fill="#9ba0af" class="color9ba7af svgShape"></circle><circle cx="20" cy="33.1" r="1" fill="#9ba0af" class="color9ba7af svgShape"></circle><circle cx="30" cy="33.1" r="1" fill="#9ba0af" class="color9ba7af svgShape"></circle><path fill="#caced8" d="M44,47H9c-0.6,0-1,0.4-1,1v4c0,0.6,0.4,1,1,1h35c0.6,0,1-0.4,1-1v-4C45,47.4,44.6,47,44,47z M44,52H9v-4h35V52
		z" class="colorcad1d8 svgShape"></path><rect width="35" height="4" x="9" y="48" fill="#e2e3e7" class="colore2e5e7 svgShape"></rect><path fill="#e2e3e7" d="M56,53h-6c-1.1,0-2-0.9-2-2v0c0-1.1,0.9-2,2-2h6c1.1,0,2,0.9,2,2v0C58,52.1,57.1,53,56,53z" class="colore2e5e7 svgShape"></path><path fill="#3b5cb5" d="M56,52h-6c-1.1,0-2-0.9-2-2v0c0-1.1,0.9-2,2-2h6c1.1,0,2,0.9,2,2v0C58,51.1,57.1,52,56,52z" class="color3bb54a svgShape"></path><circle cx="53" cy="50" r="1" fill="#0e3293" class="color0e9347 svgShape"></circle></svg>