<?xml version="1.0" encoding="utf-8"?>
<!-- Generator: Adobe Illustrator 27.9.0, SVG Export Plug-In . SVG Version: 6.00 Build 0)  -->
<svg version="1.1" id="Layer_1" xmlns="http://www.w3.org/2000/svg" xmlns:xlink="http://www.w3.org/1999/xlink" x="0px" y="0px"
	 viewBox="0 0 48 48" style="enable-background:new 0 0 48 48;" xml:space="preserve">
<style type="text/css">
	.st0{fill:#D7D9E0;}
	.st1{fill:#3377FF;}
</style>
<path class="st0" d="M37.8,37.9H5.7c-2.3,0-4.1-1.9-4.1-4.1V14.2c0-2.3,1.9-4.1,4.1-4.1h36.6c2.3,0,4.1,1.9,4.1,4.1v14.3
	c0,0.7-0.6,1.2-1.2,1.2c-0.7,0-1.2-0.6-1.2-1.2V14.2c0-0.9-0.7-1.7-1.7-1.7H5.7c-0.9,0-1.7,0.7-1.7,1.7v19.6c0,0.9,0.7,1.7,1.7,1.7
	h32.1c0.7,0,1.2,0.6,1.2,1.2C39,37.4,38.5,37.9,37.8,37.9z"/>
<path class="st0" d="M41.6,34c-0.3,0-0.6-0.1-0.9-0.4l-4.2-4.2c-0.5-0.5-0.5-1.3,0-1.7c0.5-0.5,1.3-0.5,1.7,0l4.2,4.2
	c0.5,0.5,0.5,1.3,0,1.7C42.2,33.8,41.9,34,41.6,34L41.6,34z"/>
<path class="st1" d="M29,25.5c0,3,2.4,5.4,5.4,5.4s5.4-2.4,5.4-5.4s-2.4-5.4-5.4-5.4S29,22.6,29,25.5z"/>
<path class="st0" d="M34.4,32.2c-1.8,0-3.4-0.7-4.7-1.9c-1.2-1.2-1.9-2.9-1.9-4.7c0-1.8,0.7-3.4,1.9-4.7c1.2-1.2,2.9-1.9,4.7-1.9
	s3.4,0.7,4.7,1.9c2.6,2.6,2.6,6.8,0,9.4C37.8,31.5,36.2,32.2,34.4,32.2L34.4,32.2z M34.4,21.4c-1.1,0-2.1,0.4-2.9,1.2
	c-0.8,0.8-1.2,1.8-1.2,2.9c0,1.1,0.4,2.1,1.2,2.9c0.8,0.8,1.8,1.2,2.9,1.2c1.1,0,2.1-0.4,2.9-1.2c1.6-1.6,1.6-4.2,0-5.9
	C36.5,21.8,35.5,21.4,34.4,21.4L34.4,21.4z M24,29.4H9.6c-0.7,0-1.2-0.6-1.2-1.2c0-0.7,0.6-1.2,1.2-1.2H24c0.7,0,1.2,0.6,1.2,1.2
	C25.3,28.9,24.7,29.4,24,29.4z"/>
</svg>
