<svg xmlns="http://www.w3.org/2000/svg" enable-background="new 0 0 64 60" viewBox="0 0 64 60" id="CheckBox"><path fill="#caced8" d="M0,57V3c0-1.7,1.3-3,3-3h58c1.7,0,3,1.3,3,3v54c0,1.7-1.3,3-3,3H3C1.3,60,0,58.7,0,57z" class="colorcad1d8 svgShape"></path><circle cx="3" cy="4" r="1" fill="#4575f6" class="color9ba7af svgShape"></circle><circle cx="7" cy="4" r="1" fill="#4575f6" class="color9ba7af svgShape"></circle><circle cx="11" cy="4" r="1" fill="#4575f6" class="color9ba7af svgShape"></circle><path fill="#ffffff" d="M3,8h58c0.6,0,1,0.4,1,1v48c0,0.6-0.4,1-1,1H3c-0.6,0-1-0.4-1-1V9C2,8.4,2.4,8,3,8z" class="colorffffff svgShape"></path><path fill="#e2e3e7" d="M61,5H15c-0.6,0-1-0.4-1-1v0c0-0.6,0.4-1,1-1h46c0.6,0,1,0.4,1,1v0C62,4.6,61.6,5,61,5z" class="colore2e5e7 svgShape"></path><path fill="#caced8" d="M39 29H17c-.6 0-1-.4-1-1v0c0-.6.4-1 1-1h22c.6 0 1 .4 1 1v0C40 28.6 39.6 29 39 29zM34 33H17c-.6 0-1-.4-1-1v0c0-.6.4-1 1-1h17c.6 0 1 .4 1 1v0C35 32.6 34.6 33 34 33zM39 39H17c-.6 0-1-.4-1-1l0 0c0-.6.4-1 1-1h22c.6 0 1 .4 1 1l0 0C40 38.6 39.6 39 39 39zM34 43H17c-.6 0-1-.4-1-1l0 0c0-.6.4-1 1-1h17c.6 0 1 .4 1 1l0 0C35 42.6 34.6 43 34 43zM39 19H17c-.6 0-1-.4-1-1v0c0-.6.4-1 1-1h22c.6 0 1 .4 1 1v0C40 18.6 39.6 19 39 19zM34 23H17c-.6 0-1-.4-1-1v0c0-.6.4-1 1-1h17c.6 0 1 .4 1 1v0C35 22.6 34.6 23 34 23zM39 49H17c-.6 0-1-.4-1-1l0 0c0-.6.4-1 1-1h22c.6 0 1 .4 1 1l0 0C40 48.6 39.6 49 39 49zM34 53H17c-.6 0-1-.4-1-1l0 0c0-.6.4-1 1-1h17c.6 0 1 .4 1 1l0 0C35 52.6 34.6 53 34 53z" class="colorcad1d8 svgShape"></path><path fill="#595d66" d="M8 13L8 13c0-.6.4-1 1-1h10c.6 0 1 .4 1 1v0c0 .6-.4 1-1 1H9C8.4 14 8 13.6 8 13zM22 13L22 13c0-.6.4-1 1-1h5c.6 0 1 .4 1 1v0c0 .6-.4 1-1 1h-5C22.4 14 22 13.6 22 13z" class="color595a66 svgShape"></path><path fill="#e2e3e7" d="M8,53v-4c0-1.1,0.9-2,2-2h44c1.1,0,2,0.9,2,2l0,4c0,1.1-0.9,2-2,2H10C8.9,55,8,54.1,8,53z" class="colore2e5e7 svgShape"></path><path fill="#caced8" d="M13 17H9c-.6 0-1 .4-1 1v4c0 .6.4 1 1 1h4c.6 0 1-.4 1-1v-4C14 17.4 13.6 17 13 17zM13 22H9v-4h4V22zM13 27H9c-.6 0-1 .4-1 1v4c0 .6.4 1 1 1h4c.6 0 1-.4 1-1v-4C14 27.4 13.6 27 13 27zM13 37H9c-.6 0-1 .4-1 1v4c0 .6.4 1 1 1h4c.6 0 1-.4 1-1v-4C14 37.4 13.6 37 13 37zM13 42H9v-4h4V42z" class="colorcad1d8 svgShape"></path><path fill="#3b5cb5" d="M11,32c-0.3,0-0.5-0.1-0.7-0.3l-1-1c-0.4-0.4-0.4-1,0-1.4s1-0.4,1.4,0l0.3,0.3l2.3-2.3c0.4-0.4,1-0.4,1.4,0
				s0.4,1,0,1.4l-3,3C11.5,31.9,11.3,32,11,32z" class="color3bb54a svgShape"></path><path fill="#4575f6" d="M53,50h-1v-1c0-0.6-0.4-1-1-1s-1,0.4-1,1v1h-1c-0.6,0-1,0.4-1,1s0.4,1,1,1h1v1c0,0.6,0.4,1,1,1s1-0.4,1-1v-1
				h1c0.6,0,1-0.4,1-1S53.6,50,53,50z" class="color9ba7af svgShape"></path></svg>