<svg xmlns="http://www.w3.org/2000/svg" viewBox="0 0 64 60" id="Form"><path fill="#caced8" d="M0 57V3c0-1.7 1.3-3 3-3h58c1.7 0 3 1.3 3 3v54c0 1.7-1.3 3-3 3H3c-1.7 0-3-1.3-3-3z" class="colorcad1d8 svgShape"></path><circle cx="3" cy="4" r="1" fill="#4575f6" class="color9ba7af svgShape"></circle><circle cx="7" cy="4" r="1" fill="#4575f6" class="color9ba7af svgShape"></circle><circle cx="11" cy="4" r="1" fill="#4575f6" class="color9ba7af svgShape"></circle><path fill="#ffffff" d="M3 8h58c.6 0 1 .4 1 1v48c0 .6-.4 1-1 1H3c-.6 0-1-.4-1-1V9c0-.6.4-1 1-1z" class="colorffffff svgShape"></path><path fill="#e2e3e7" d="M61 5H15c-.6 0-1-.4-1-1s.4-1 1-1h46c.6 0 1 .4 1 1s-.4 1-1 1z" class="colore2e5e7 svgShape"></path><path fill="#caced8" d="M7 15c0-.6.4-1 1-1h10c.6 0 1 .4 1 1s-.4 1-1 1H8c-.6 0-1-.4-1-1zm0 8c0-.6.4-1 1-1h10c.6 0 1 .4 1 1s-.4 1-1 1H8c-.6 0-1-.4-1-1zm0 8c0-.6.4-1 1-1h10c.6 0 1 .4 1 1s-.4 1-1 1H8c-.6 0-1-.4-1-1z" class="colorcad1d8 svgShape"></path><path fill="#4575f6" d="M56 14H26c-.6 0-1 .4-1 1v4c0 .6.4 1 1 1h30c.6 0 1-.4 1-1v-4c0-.6-.4-1-1-1zm0 5H26v-4h30v4zm0 3H26c-.6 0-1 .4-1 1v4c0 .6.4 1 1 1h30c.6 0 1-.4 1-1v-4c0-.6-.4-1-1-1zm0 5H26v-4h30v4z" class="color9ba7af svgShape"></path><path fill="#e2e3e7" d="M54 53H40c-1.7 0-3-1.3-3-3s1.3-3 3-3h14c1.7 0 3 1.3 3 3s-1.3 3-3 3z" class="colore2e5e7 svgShape"></path><path fill="#3b5cb5" d="M54 52H40c-1.7 0-3-1.3-3-3s1.3-3 3-3h14c1.7 0 3 1.3 3 3s-1.3 3-3 3z" class="color3bb54a svgShape"></path><circle cx="47" cy="49" r="1" fill="#0e3293" class="color0e9347 svgShape"></circle><circle cx="51" cy="49" r="1" fill="#0e3293" class="color0e9347 svgShape"></circle><circle cx="43" cy="49" r="1" fill="#0e3293" class="color0e9347 svgShape"></circle><path fill="#e2e3e7" d="M26 15h30v4H26zM26 23h30v4H26z" class="colore2e5e7 svgShape"></path><path fill="#4575f6" d="M56 30H26c-.6 0-1 .4-1 1v10c0 .6.4 1 1 1h30c.6 0 1-.4 1-1V31c0-.6-.4-1-1-1zm0 11H26V31h30v10z" class="color9ba7af svgShape"></path><path fill="#e2e3e7" d="M26 31h30v10H26z" class="colore2e5e7 svgShape"></path></svg>