<svg xmlns="http://www.w3.org/2000/svg" enable-background="new 0 0 64 60" viewBox="0 0 64 60" id="Play"><path fill="#caced8" d="M0,57V3c0-1.7,1.3-3,3-3h58c1.7,0,3,1.3,3,3v54c0,1.7-1.3,3-3,3H3C1.3,60,0,58.7,0,57z" class="colorcad1d8 svgShape"></path><circle cx="3" cy="4" r="1" fill="#9ba0af" class="color9ba7af svgShape"></circle><circle cx="7" cy="4" r="1" fill="#9ba0af" class="color9ba7af svgShape"></circle><circle cx="11" cy="4" r="1" fill="#9ba0af" class="color9ba7af svgShape"></circle><path fill="#ffffff" d="M3,8h58c0.6,0,1,0.4,1,1v48c0,0.6-0.4,1-1,1H3c-0.6,0-1-0.4-1-1V9C2,8.4,2.4,8,3,8z" class="colorffffff svgShape"></path><path fill="#e2e3e7" d="M61 5H15c-.6 0-1-.4-1-1v0c0-.6.4-1 1-1h46c.6 0 1 .4 1 1v0C62 4.6 61.6 5 61 5zM57 24H20V14h37c.6 0 1 .4 1 1v8C58 23.6 57.6 24 57 24z" class="colore2e5e7 svgShape"></path><path fill="#595d66" d="M53,20H26c-0.6,0-1-0.4-1-1v0c0-0.6,0.4-1,1-1h27c0.6,0,1,0.4,1,1v0C54,19.6,53.6,20,53,20z" class="color595a66 svgShape"></path><circle cx="40" cy="19" r="2" fill="#ffffff" stroke="#595d66" stroke-miterlimit="10" stroke-width="2" class="colorffffff svgShape colorStroke595a66 svgStroke"></circle><path fill="#4575f6" d="M7,23.5c-0.3,0-0.5-0.2-0.5-0.5v-8c0-0.3,0.2-0.5,0.5-0.5h12.5v9H7z" class="color3689c9 svgShape"></path><path fill="#1a42ac" d="M7,14c-0.6,0-1,0.4-1,1v8c0,0.6,0.4,1,1,1h13V14H7z M19,23H7v-8h12V23z" class="color1a70ac svgShape"></path><path fill="#e2e3e7" d="M57,38H20V28h37c0.6,0,1,0.4,1,1v8C58,37.6,57.6,38,57,38z" class="colore2e5e7 svgShape"></path><path fill="#595d66" d="M53,34H26c-0.6,0-1-0.4-1-1l0,0c0-0.6,0.4-1,1-1h27c0.6,0,1,0.4,1,1l0,0C54,33.6,53.6,34,53,34z" class="color595a66 svgShape"></path><path fill="#4575f6" d="M7,37.5c-0.3,0-0.5-0.2-0.5-0.5v-8c0-0.3,0.2-0.5,0.5-0.5h12.5v9H7z" class="color3689c9 svgShape"></path><path fill="#1a42ac" d="M7,28c-0.6,0-1,0.4-1,1v8c0,0.6,0.4,1,1,1h13V28H7z M19,37H7v-8h12V37z" class="color1a70ac svgShape"></path><path fill="#1a42ac" d="M14.7,33.6l-3-1.5c-0.2-0.1-0.3-0.1-0.5,0c-0.1,0.1-0.2,0.3-0.2,0.4v3c0,0.2,0.1,0.3,0.2,0.4
				c0.1,0,0.2,0.1,0.3,0.1c0.1,0,0.2,0,0.2-0.1l3-1.5c0.2-0.1,0.3-0.3,0.3-0.4S14.9,33.6,14.7,33.6z" class="color1a70ac svgShape"></path><path fill="#ffffff" d="M14.7,32.6l-3-1.5c-0.2-0.1-0.3-0.1-0.5,0c-0.1,0.1-0.2,0.3-0.2,0.4v3c0,0.2,0.1,0.3,0.2,0.4
				c0.1,0,0.2,0.1,0.3,0.1c0.1,0,0.2,0,0.2-0.1l3-1.5c0.2-0.1,0.3-0.3,0.3-0.4S14.9,32.6,14.7,32.6z" class="colorffffff svgShape"></path><path fill="#e2e3e7" d="M57,52H20V42h37c0.6,0,1,0.4,1,1v8C58,51.6,57.6,52,57,52z" class="colore2e5e7 svgShape"></path><path fill="#595d66" d="M53,48H26c-0.6,0-1-0.4-1-1l0,0c0-0.6,0.4-1,1-1h27c0.6,0,1,0.4,1,1l0,0C54,47.6,53.6,48,53,48z" class="color595a66 svgShape"></path><g fill="#000000" class="color000000 svgShape"><path fill="#4575f6" d="M7,51.5c-0.3,0-0.5-0.2-0.5-0.5v-8c0-0.3,0.2-0.5,0.5-0.5h12.5v9H7z" class="color3689c9 svgShape"></path><path fill="#1a42ac" d="M7,42c-0.6,0-1,0.4-1,1v8c0,0.6,0.4,1,1,1h13V42H7z M19,51H7v-8h12V51z" class="color1a70ac svgShape"></path><path fill="#1a42ac" d="M14.7,47.6l-3-1.5c-0.2-0.1-0.3-0.1-0.5,0c-0.1,0.1-0.2,0.3-0.2,0.4v3c0,0.2,0.1,0.3,0.2,0.4
				c0.1,0,0.2,0.1,0.3,0.1c0.1,0,0.2,0,0.2-0.1l3-1.5c0.2-0.1,0.3-0.3,0.3-0.4S14.9,47.6,14.7,47.6z" class="color1a70ac svgShape"></path><g fill="#000000" class="color000000 svgShape"><path fill="#ffffff" d="M14.7,46.6l-3-1.5c-0.2-0.1-0.3-0.1-0.5,0c-0.1,0.1-0.2,0.3-0.2,0.4v3c0,0.2,0.1,0.3,0.2,0.4
				c0.1,0,0.2,0.1,0.3,0.1c0.1,0,0.2,0,0.2-0.1l3-1.5c0.2-0.1,0.3-0.3,0.3-0.4S14.9,46.6,14.7,46.6z" class="colorffffff svgShape"></path></g></g><path fill="#ffffff" d="M11.5 21L11.5 21c-.3 0-.5-.2-.5-.5v-3c0-.3.2-.5.5-.5h0c.3 0 .5.2.5.5v3C12 20.8 11.8 21 11.5 21zM14.5 21L14.5 21c-.3 0-.5-.2-.5-.5v-3c0-.3.2-.5.5-.5h0c.3 0 .5.2.5.5v3C15 20.8 14.8 21 14.5 21z" class="colorffffff svgShape"></path></svg>