<svg xmlns="http://www.w3.org/2000/svg" enable-background="new 0 0 64 60" viewBox="0 0 64 60" id="ProcessPage"><path fill="#caced8" d="M61,0H3C1.3,0,0,1.3,0,3v3v51c0,1.7,1.3,3,3,3h58c1.7,0,3-1.3,3-3V6V3C64,1.3,62.7,0,61,0z" class="colorcad1d8 svgShape"></path><circle cx="7" cy="4" r="1" fill="#4575f6" class="color9ba7af svgShape"></circle><circle cx="11" cy="4" r="1" fill="#4575f6" class="color9ba7af svgShape"></circle><path fill="#ffffff" d="M3,8h58c0.6,0,1,0.4,1,1v48c0,0.6-0.4,1-1,1H3c-0.6,0-1-0.4-1-1V9C2,8.4,2.4,8,3,8z" class="colorffffff svgShape"></path><path fill="#e2e3e7" d="M61,5H15c-0.6,0-1-0.4-1-1v0c0-0.6,0.4-1,1-1h46c0.6,0,1,0.4,1,1v0C62,4.6,61.6,5,61,5z" class="colore2e5e7 svgShape"></path><circle cx="3" cy="4" r="1" fill="#4575f6" class="color9ba7af svgShape"></circle><path fill="#caced8" d="M45 18H19c-.6 0-1-.4-1-1v0c0-.6.4-1 1-1h26c.6 0 1 .4 1 1v0C46 17.6 45.6 18 45 18zM40 22H24c-.6 0-1-.4-1-1v0c0-.6.4-1 1-1h16c.6 0 1 .4 1 1v0C41 21.6 40.6 22 40 22zM47.9 28.1c-2.4-.4-4.5.9-5.4 2.8-.3.7-1 1.1-1.8 1.1l-2.4 0c-.8 0-1.5-.4-1.8-1.1C35.7 29.2 34 28 32 28s-3.7 1.2-4.5 2.9c-.3.7-1 1.1-1.8 1.1l-2.4 0c-.8 0-1.5-.4-1.8-1.1-.9-1.9-3-3.2-5.4-2.8-2 .3-3.6 1.9-4 3.8C11.4 35.2 13.9 38 17 38c2 0 3.7-1.2 4.5-2.9.3-.7 1-1.1 1.8-1.1h2.4c.8 0 1.5.4 1.8 1.1C28.3 36.8 30 38 32 38s3.7-1.2 4.5-2.9c.3-.7 1-1.1 1.8-1.1h2.4c.8 0 1.5.4 1.8 1.1C43.3 36.8 45 38 47 38c3.1 0 5.6-2.8 4.9-6.1C51.5 30 49.9 28.4 47.9 28.1z" class="colorcad1d8 svgShape"></path><path fill="#595d66" d="M32.2 32.9c.8-.6.8-1.9-.4-1.9-.4 0-.8.2-1 .6-.3.5-1.3.2-.9-.6.4-.8 1.1-1.1 1.9-1.1 2 0 2.9 2.1 1.2 3.7-.6.5-1.1.8-1.7 1.2.4 0 .8-.1 1.2-.1h1c.7 0 .8 1.1 0 1.1h-3.3c-.5 0-.8-.5-.4-.9C30.7 34.2 31.4 33.7 32.2 32.9zM47.2 31.1h-1.5c-.7 0-.7-1.1 0-1.1h2.6c.5 0 .8.6.4 1l-1.4 1.3c1.1-.1 1.9.7 1.9 1.7 0 1.1-.8 2-2.3 2-.7 0-1.4-.3-1.8-.9-.4-.6.5-1.2.9-.6.2.3.6.4 1 .4.5 0 1-.2 1-.9 0-.9-1.1-.8-1.7-.7-.7.1-.9-.6-.5-1L47.2 31.1zM16.9 31.4l-.5.2c-.7.2-1.1-.8-.3-1.1l1.2-.4c.4-.2.8 0 .8.6v4.8c0 .6-1.1.7-1.1 0V31.4z" class="color595a66 svgShape"></path><path fill="#e2e3e7" d="M39,51H25c-1.7,0-3-1.3-3-3v0c0-1.7,1.3-3,3-3h14c1.7,0,3,1.3,3,3v0C42,49.7,40.7,51,39,51z" class="colore2e5e7 svgShape"></path><path fill="#3b5cb5" d="M39,50H25c-1.7,0-3-1.3-3-3v0c0-1.7,1.3-3,3-3h14c1.7,0,3,1.3,3,3v0C42,48.7,40.7,50,39,50z" class="color3bb54a svgShape"></path><circle cx="32" cy="47" r="1" fill="#0e3293" class="color0e9347 svgShape"></circle><circle cx="36" cy="47" r="1" fill="#0e3293" class="color0e9347 svgShape"></circle><circle cx="28" cy="47" r="1" fill="#0e3293" class="color0e9347 svgShape"></circle></svg>