<svg xmlns="http://www.w3.org/2000/svg" viewBox="0 0 64 60" id="ImageAndVideoDescription"><path fill="#caced8" d="M0 57V3c0-1.7 1.3-3 3-3h58c1.7 0 3 1.3 3 3v54c0 1.7-1.3 3-3 3H3c-1.7 0-3-1.3-3-3z" class="colorcad1d8 svgShape"></path><circle cx="3" cy="4" r="1" fill="#4575f6" class="color9ba7af svgShape"></circle><circle cx="7" cy="4" r="1" fill="#4575f6" class="color9ba7af svgShape"></circle><circle cx="11" cy="4" r="1" fill="#4575f6" class="color9ba7af svgShape"></circle><path fill="#ffffff" d="M3 8h58c.6 0 1 .4 1 1v48c0 .6-.4 1-1 1H3c-.6 0-1-.4-1-1V9c0-.6.4-1 1-1z" class="colorffffff svgShape"></path><path fill="#e2e3e7" d="M61 5H15c-.6 0-1-.4-1-1s.4-1 1-1h46c.6 0 1 .4 1 1s-.4 1-1 1z" class="colore2e5e7 svgShape"></path><path fill="#abc0fa" d="M58 26H6c-.6 0-1-.4-1-1V15c0-.6.4-1 1-1h52c.6 0 1 .4 1 1v10c0 .6-.4 1-1 1z" class="colorabe1fa svgShape"></path><circle cx="32" cy="17" r="1" fill="#4d7dfd" class="colorfdba4d svgShape"></circle><path fill="#595d66" d="M59 25v-2.8l-4.5-4.5c-.3-.3-.9-.3-1.3 0L44.9 26H58c.6 0 1-.4 1-1z" class="color595a66 svgShape"></path><path fill="#595d66" d="M44.2 19.6 38 26h13.1l-5.6-6.4c-.3-.4-.9-.4-1.3 0z" class="color595a66 svgShape"></path><path fill="#35373e" d="M50.4 23.1c-.6-.6-1.4-.8-2.2-.4l2.9 3.3h1.8l-2.5-2.9z" class="color35363e svgShape"></path><path fill="#595d66" d="M37.3 19.6 31.1 26h13.1l-5.6-6.4c-.3-.4-1-.4-1.3 0z" class="color595a66 svgShape"></path><path fill="#35373e" d="M43.5 23.1c-.6-.6-1.4-.8-2.2-.4l2.9 3.3H46l-2.5-2.9z" class="color35363e svgShape"></path><path fill="#6f737e" d="M51.7 20.9c.2.2.5.2.7 0l1.4-1.4c.2-.2.2-.5 0-.7-.2-.2-.5-.2-.7 0l-1.4 1.4c-.2.1-.2.5 0 .7zm-15.8 2.4c.2.2.5.2.7 0l1.4-1.4c.2-.2.2-.5 0-.7-.2-.2-.5-.2-.7 0l-1.4 1.4c-.2.2-.2.5 0 .7z" class="color6f707e svgShape"></path><path fill="#35373e" d="m59 22.2-.7-.7c-.2-.2-.6-.2-.9 0-.2.2-.2.6 0 .9l.5.5c.5.5.9 1.1 1.1 1.8v-2.5z" class="color35363e svgShape"></path><path fill="#caced8" d="M26 49H6c-.6 0-1-.4-1-1s.4-1 1-1h20c.6 0 1 .4 1 1s-.4 1-1 1zm29-4H36c-.6 0-1-.4-1-1s.4-1 1-1h19c.6 0 1 .4 1 1s-.4 1-1 1zm3-8H36c-.6 0-1-.4-1-1s.4-1 1-1h22c.6 0 1 .4 1 1s-.4 1-1 1zm-7 4H36c-.6 0-1-.4-1-1s.4-1 1-1h15c.6 0 1 .4 1 1s-.4 1-1 1zm0-8H36c-.6 0-1-.4-1-1s.4-1 1-1h15c.6 0 1 .4 1 1s-.4 1-1 1zm3 16H36c-.6 0-1-.4-1-1s.4-1 1-1h18c.6 0 1 .4 1 1s-.4 1-1 1zm-37 4H6c-.6 0-1-.4-1-1s.4-1 1-1h11c.6 0 1 .4 1 1s-.4 1-1 1zm26 0h-7c-.6 0-1-.4-1-1s.4-1 1-1h7c.6 0 1 .4 1 1s-.4 1-1 1z" class="colorcad1d8 svgShape"></path><path fill="#595d66" d="M8 18c0-.6.4-1 1-1h13c.6 0 1 .4 1 1s-.4 1-1 1H9c-.6 0-1-.4-1-1zm0 4c0-.6.4-1 1-1h7c.6 0 1 .4 1 1s-.4 1-1 1H9c-.6 0-1-.4-1-1z" class="color595a66 svgShape"></path><path fill="#2c61ee" d="M6 42.5c-.3 0-.5-.2-.5-.5V32c0-.3.2-.5.5-.5h18c.3 0 .5.2.5.5v10c0 .3-.2.5-.5.5H6z" class="coloree2c39 svgShape"></path><path fill="#204fcc" d="M24 31H6c-.6 0-1 .4-1 1v10c0 .6.4 1 1 1h18c.6 0 1-.4 1-1V32c0-.6-.4-1-1-1zm0 11H6V32h18v10z" class="colorcc202c svgShape"></path><path fill="#204fcc" d="m16.7 37.6-3-1.5c-.2-.1-.3-.1-.5 0-.1.1-.2.3-.2.4v3c0 .2.1.3.2.4.1 0 .2.1.3.1.1 0 .2 0 .2-.1l3-1.5c.2-.1.3-.3.3-.4s-.1-.4-.3-.4z" class="colorcc202c svgShape"></path><path fill="#ffffff" d="m16.7 36.6-3-1.5c-.2-.1-.3-.1-.5 0-.1.1-.2.3-.2.4v3c0 .2.1.3.2.4.1 0 .2.1.3.1.1 0 .2 0 .2-.1l3-1.5c.2-.1.3-.3.3-.4s-.1-.4-.3-.4z" class="colorffffff svgShape"></path></svg>