<svg width="339" height="259" viewBox="0 0 339 259" fill="none" xmlns="http://www.w3.org/2000/svg">
<path d="M209.398 0.600296C148.598 0.600296 97.798 42.4 83.998 99C82.798 99 81.598 99 80.198 98.8C35.9982 98.8 0.198196 134.6 0.198196 178.8C0.198196 200 8.5982 220.4 23.5982 235.2C38.5982 250.2 58.9982 258.6 80.198 258.6C101.398 258.6 121.798 250.2 136.798 235C149.398 222.4 156.398 205.6 158.398 187L129.398 184.8C122.798 184 120.798 179 124.798 173.8L173.798 113.2C177.798 108 183.198 108.6 185.798 114.6L213.598 182.6C216.198 188.8 212.998 193 206.398 192.2L184.798 190.2C182.398 212.8 172.198 232.6 157.998 248.4C174.198 255.4 191.598 259 209.398 259C280.798 259 338.598 201.2 338.598 129.8C338.598 58.4 280.798 0.600296 209.398 0.600296Z" fill="#FF6A00"/>
</svg>
