<?xml version="1.0" standalone="no"?>
<!DOCTYPE svg PUBLIC "-//W3C//DTD SVG 20010904//EN"
 "http://www.w3.org/TR/2001/REC-SVG-20010904/DTD/svg10.dtd">
<svg version="1.0" xmlns="http://www.w3.org/2000/svg"
 width="512.000000pt" height="512.000000pt" viewBox="0 0 512.000000 512.000000"
 preserveAspectRatio="xMidYMid meet">

<g transform="translate(0.000000,512.000000) scale(0.100000,-0.100000)"
fill="#000000" stroke="none">
<path d="M2647 3761 c-1006 -714 -1837 -1305 -1848 -1314 -24 -21 -25 -69 -1
-89 9 -8 258 -131 552 -272 294 -142 539 -261 543 -265 5 -5 64 -210 132 -457
68 -247 126 -457 130 -467 9 -23 49 -39 72 -30 10 4 184 123 386 265 202 142
373 258 379 258 6 0 159 -50 340 -111 316 -108 328 -111 352 -95 14 9 29 32
35 53 35 133 841 3737 841 3761 0 35 -27 62 -61 61 -15 0 -691 -474 -1852
-1298z m1661 997 c-24 -29 -559 -663 -1187 -1408 -629 -745 -1153 -1365 -1166
-1378 l-22 -23 -474 227 c-261 125 -477 230 -481 233 -5 5 3356 2398 3371
2400 2 1 -17 -23 -41 -51z m-329 -1783 c-203 -902 -369 -1643 -369 -1647 0 -4
-138 40 -307 96 -310 104 -748 282 -748 303 0 10 1788 2893 1792 2889 1 -1
-165 -739 -368 -1641z m-1242 -1411 c100 -42 159 -72 154 -77 -17 -17 -556
-394 -559 -392 -2 2 38 129 88 284 l92 280 31 -13 c18 -7 105 -44 194 -82z"/>
<path d="M750 1485 c-57 -18 -124 -75 -153 -129 -16 -31 -21 -59 -22 -112 0
-98 47 -193 152 -304 119 -126 247 -203 420 -253 46 -13 85 -26 88 -29 11 -11
-38 -120 -85 -192 -57 -84 -165 -191 -300 -295 -52 -40 -97 -77 -98 -82 -5
-12 17 -39 32 -39 15 0 232 183 319 268 82 81 149 177 181 263 l24 64 104 0
103 0 0 25 c0 24 -2 25 -102 34 l-103 8 0 72 c0 211 -86 469 -200 598 -84 96
-243 141 -360 103z m228 -81 c29 -14 68 -45 87 -68 87 -107 185 -398 185 -552
0 -64 -3 -65 -106 -33 -195 60 -385 207 -459 356 -52 104 -46 223 13 276 58
53 196 63 280 21z"/>
<path d="M2000 837 c-25 -11 -76 -32 -115 -47 -52 -19 -70 -30 -70 -44 0 -40
27 -40 137 3 114 45 138 62 122 89 -15 23 -24 23 -74 -1z"/>
<path d="M1625 716 c-76 -10 -80 -12 -80 -36 0 -25 1 -25 75 -23 42 1 94 6
115 11 34 7 40 12 40 32 0 22 -5 25 -35 26 -19 1 -71 -3 -115 -10z"/>
</g>
</svg>
