<?xml version="1.0" standalone="no"?>
<!DOCTYPE svg PUBLIC "-//W3C//DTD SVG 20010904//EN"
 "http://www.w3.org/TR/2001/REC-SVG-20010904/DTD/svg10.dtd">
<svg version="1.0" xmlns="http://www.w3.org/2000/svg"
 width="200.000000pt" height="200.000000pt" viewBox="0 0 200.000000 200.000000"
 preserveAspectRatio="xMidYMid meet">

<g transform="translate(0.000000,200.000000) scale(0.100000,-0.100000)"
fill="#000000" stroke="none">
<path d="M180 1982 c-74 -36 -70 19 -70 -982 0 -832 1 -897 18 -930 36 -73 -6
-70 872 -70 878 0 836 -3 872 70 17 32 18 93 18 823 0 433 -3 787 -7 788 -5 0
-73 2 -152 3 -108 3 -145 7 -152 17 -5 8 -9 78 -9 157 l0 142 -677 0 c-625 0
-681 -1 -713 -18z m1009 -463 c129 -20 221 -85 221 -156 0 -37 -25 -89 -47
-97 -7 -3 -42 9 -78 25 -167 79 -369 31 -449 -105 -56 -96 -68 -239 -30 -366
23 -78 109 -162 189 -185 93 -27 212 -18 299 24 l70 34 28 -32 c40 -45 40
-108 -1 -149 -108 -107 -384 -121 -585 -29 -69 32 -157 113 -196 183 -87 152
-93 419 -13 584 38 79 145 183 225 219 55 25 85 33 193 55 39 7 111 6 174 -5z"/>
</g>
</svg>
