<svg id="svg" version="1.1" xmlns="http://www.w3.org/2000/svg" xmlns:xlink="http://www.w3.org/1999/xlink" width="400" height="400" viewBox="0, 0, 400,400"><g id="svgg"><path id="path0" d="M0.000 200.000 L 0.000 400.000 18.400 400.000 C 37.447 400.000,39.688 399.792,35.179 398.441 C 34.287 398.174,33.464 397.712,33.350 397.414 C 33.236 397.116,32.693 396.759,32.143 396.621 C 30.947 396.321,25.671 390.966,25.352 389.729 C 25.229 389.250,24.884 388.764,24.586 388.650 C 24.288 388.536,23.819 387.668,23.542 386.721 C 23.266 385.775,22.715 384.550,22.319 384.000 C 21.180 382.420,21.166 17.598,22.304 16.019 C 22.709 15.459,23.263 14.235,23.536 13.300 C 23.809 12.365,24.202 11.600,24.411 11.600 C 24.619 11.600,25.043 11.015,25.352 10.300 C 26.542 7.554,32.880 2.097,35.703 1.389 C 36.306 1.237,36.800 0.863,36.800 0.557 C 36.800 0.089,33.852 0.000,18.400 0.000 L 0.000 0.000 0.000 200.000 M317.200 0.632 C 317.200 1.642,319.388 3.976,333.752 18.293 C 352.763 37.242,377.049 61.302,377.783 61.916 C 378.337 62.379,378.408 77.337,378.482 207.516 C 378.584 388.602,378.611 382.710,377.681 384.000 C 377.285 384.550,376.734 385.775,376.458 386.721 C 376.181 387.668,375.712 388.536,375.414 388.650 C 375.116 388.764,374.763 389.291,374.631 389.821 C 374.388 390.785,369.086 396.400,368.417 396.400 C 368.221 396.400,367.553 396.827,366.931 397.348 C 366.309 397.870,365.215 398.424,364.500 398.580 C 363.777 398.738,363.200 399.116,363.200 399.432 C 363.200 399.915,365.969 400.000,381.600 400.000 L 400.000 400.000 400.000 200.000 L 400.000 0.000 358.600 0.000 C 321.133 0.000,317.200 0.060,317.200 0.632 M201.414 96.681 C 200.101 96.771,198.841 96.995,198.614 97.179 C 198.101 97.593,194.635 98.260,191.246 98.598 C 189.842 98.738,188.278 99.123,187.772 99.455 C 187.266 99.787,185.535 100.240,183.926 100.462 C 182.317 100.683,180.715 101.121,180.367 101.434 C 180.019 101.746,178.688 102.196,177.409 102.432 C 176.130 102.669,174.615 103.191,174.042 103.594 C 173.469 103.996,172.343 104.437,171.540 104.573 C 170.737 104.710,169.861 105.085,169.594 105.408 C 169.326 105.730,168.363 106.192,167.453 106.434 C 166.544 106.676,165.530 107.114,165.200 107.406 C 164.870 107.699,163.859 108.193,162.953 108.504 C 162.047 108.815,161.057 109.289,160.753 109.556 C 160.095 110.135,157.980 111.307,155.900 112.245 C 155.075 112.617,154.400 113.069,154.400 113.250 C 154.400 113.431,153.815 113.879,153.100 114.246 C 152.385 114.613,151.260 115.336,150.600 115.853 C 149.940 116.370,149.040 117.058,148.600 117.382 C 146.501 118.928,141.691 122.863,140.785 123.777 C 140.227 124.339,139.573 124.800,139.332 124.800 C 139.091 124.800,138.796 125.173,138.676 125.630 C 138.557 126.086,138.086 126.557,137.630 126.676 C 137.173 126.796,136.800 127.071,136.800 127.288 C 136.800 127.662,132.963 132.441,131.217 134.242 C 130.767 134.705,130.400 135.258,130.400 135.470 C 130.400 135.682,129.995 136.222,129.500 136.669 C 129.005 137.117,128.240 138.085,127.800 138.822 C 126.295 141.342,126.128 141.596,125.518 142.297 C 124.932 142.971,122.331 147.632,120.661 151.000 C 120.225 151.880,119.645 152.870,119.371 153.200 C 119.098 153.530,118.661 154.610,118.400 155.600 C 118.139 156.590,117.693 157.670,117.408 158.000 C 117.123 158.330,116.684 159.583,116.431 160.784 C 116.179 161.985,115.731 163.245,115.435 163.584 C 115.140 163.923,114.700 165.349,114.459 166.754 C 114.218 168.159,113.749 169.723,113.417 170.230 C 113.085 170.737,112.627 172.798,112.399 174.811 C 112.171 176.824,111.734 178.955,111.427 179.547 C 111.121 180.140,110.755 182.149,110.615 184.012 C 110.474 185.875,110.007 191.540,109.576 196.600 C 108.949 203.976,108.869 206.712,109.176 210.400 C 109.387 212.930,109.841 218.600,110.185 223.000 C 110.566 227.868,111.054 231.616,111.432 232.574 C 111.773 233.440,112.224 235.656,112.434 237.499 C 112.643 239.342,113.068 241.244,113.378 241.725 C 113.688 242.206,114.144 243.730,114.390 245.110 C 114.637 246.491,115.170 248.201,115.575 248.910 C 115.980 249.620,116.431 250.880,116.576 251.712 C 116.722 252.543,117.174 253.803,117.582 254.512 C 117.989 255.220,118.441 256.373,118.587 257.072 C 118.732 257.772,119.109 258.558,119.423 258.819 C 119.737 259.080,120.194 260.037,120.437 260.947 C 120.681 261.856,121.144 262.870,121.466 263.200 C 122.013 263.761,122.426 264.464,124.273 267.988 C 124.673 268.751,125.315 269.696,125.700 270.088 C 126.085 270.479,126.400 270.952,126.400 271.138 C 126.400 271.324,126.850 271.999,127.400 272.638 C 127.949 273.277,128.399 273.910,128.400 274.045 C 128.400 274.386,130.443 277.014,132.560 279.400 C 137.739 285.234,139.422 287.037,140.028 287.400 C 140.396 287.620,141.665 288.645,142.848 289.677 C 146.358 292.740,149.518 295.200,149.942 295.200 C 150.160 295.200,150.912 295.682,151.612 296.272 C 152.937 297.387,154.223 298.152,157.100 299.537 C 158.035 299.987,158.800 300.525,158.800 300.733 C 158.800 300.941,159.398 301.223,160.130 301.360 C 160.861 301.498,161.831 301.956,162.285 302.378 C 162.738 302.801,163.761 303.269,164.558 303.419 C 165.355 303.568,166.431 304.024,166.949 304.431 C 167.467 304.839,168.767 305.369,169.839 305.609 C 170.910 305.849,172.060 306.289,172.394 306.588 C 172.727 306.886,174.066 307.325,175.369 307.564 C 176.672 307.803,178.150 308.268,178.654 308.599 C 179.158 308.929,180.761 309.368,182.216 309.574 C 183.671 309.780,185.284 310.225,185.801 310.564 C 186.370 310.937,188.524 311.348,191.261 311.606 C 193.747 311.840,196.326 312.305,196.991 312.639 C 200.126 314.212,237.964 314.154,241.137 312.572 C 241.822 312.230,244.097 311.775,246.193 311.561 C 248.549 311.320,250.499 310.887,251.302 310.427 C 252.016 310.018,253.620 309.564,254.867 309.417 C 256.224 309.258,257.218 308.929,257.346 308.597 C 257.462 308.293,258.242 307.927,259.079 307.785 C 259.916 307.642,261.069 307.196,261.642 306.794 C 262.215 306.391,263.401 305.869,264.278 305.633 C 265.155 305.397,266.199 304.843,266.598 304.402 C 266.998 303.961,267.521 303.597,267.762 303.593 C 268.172 303.586,270.027 302.450,273.121 300.313 C 274.644 299.260,279.200 294.934,279.200 294.540 C 279.200 294.395,279.634 293.706,280.165 293.010 C 280.696 292.314,281.343 290.947,281.602 289.972 C 281.862 288.998,282.344 287.898,282.673 287.529 C 283.575 286.518,283.509 278.443,282.587 277.037 C 282.220 276.475,281.756 275.291,281.557 274.405 C 281.133 272.518,280.849 272.146,276.505 267.778 C 272.572 263.825,269.405 263.003,267.843 265.530 C 267.703 265.756,266.941 266.156,266.148 266.417 C 265.356 266.679,264.378 267.222,263.976 267.624 C 263.574 268.026,262.617 268.473,261.850 268.617 C 261.083 268.761,260.365 269.114,260.255 269.402 C 260.144 269.689,259.457 270.048,258.727 270.200 C 257.997 270.351,256.770 270.889,256.000 271.394 C 255.230 271.900,253.920 272.432,253.088 272.577 C 252.257 272.722,250.997 273.172,250.288 273.576 C 249.580 273.981,248.280 274.433,247.400 274.582 C 246.520 274.730,245.080 275.181,244.200 275.584 C 243.300 275.996,241.114 276.430,239.201 276.576 C 237.331 276.718,234.811 277.139,233.601 277.509 C 230.439 278.478,214.514 278.494,211.000 277.533 C 209.680 277.172,207.340 276.753,205.800 276.601 C 204.260 276.450,202.280 275.990,201.400 275.580 C 200.520 275.170,198.990 274.713,198.000 274.566 C 197.010 274.418,195.570 273.978,194.800 273.587 C 194.030 273.196,191.870 272.125,190.000 271.206 C 185.317 268.904,182.741 267.329,180.000 265.093 C 179.230 264.464,178.111 263.556,177.513 263.075 C 174.342 260.523,167.981 253.459,167.333 251.771 C 167.184 251.380,166.810 250.777,166.504 250.431 C 165.385 249.164,163.614 246.183,163.607 245.554 C 163.603 245.199,163.225 244.431,162.766 243.848 C 162.307 243.265,161.749 242.115,161.526 241.294 C 161.303 240.472,160.864 239.511,160.550 239.158 C 160.237 238.804,159.783 237.364,159.541 235.958 C 159.300 234.551,158.855 233.116,158.552 232.769 C 158.249 232.423,157.813 230.623,157.582 228.769 C 157.352 226.916,156.883 224.890,156.540 224.267 C 155.092 221.638,155.064 189.688,156.507 187.485 C 156.845 186.971,157.249 185.301,157.406 183.775 C 157.563 182.249,158.019 180.190,158.420 179.200 C 158.820 178.210,159.342 176.435,159.579 175.257 C 159.816 174.078,160.368 172.659,160.805 172.103 C 161.242 171.547,161.600 170.604,161.600 170.008 C 161.600 169.412,161.950 168.607,162.377 168.221 C 162.805 167.834,163.264 167.018,163.398 166.408 C 163.532 165.798,164.082 164.701,164.621 163.972 C 165.159 163.242,165.600 162.481,165.600 162.280 C 165.600 162.080,166.050 161.381,166.600 160.727 C 167.150 160.073,167.600 159.315,167.600 159.041 C 167.600 158.768,168.005 158.157,168.500 157.684 C 168.995 157.211,169.850 156.277,170.400 155.609 C 170.950 154.941,171.634 154.171,171.919 153.897 C 172.205 153.624,172.655 153.162,172.919 152.871 C 174.156 151.511,176.433 149.305,177.534 148.400 C 178.621 147.506,179.217 147.010,181.854 144.800 C 183.639 143.305,185.794 141.891,186.849 141.523 C 187.482 141.302,188.000 140.974,188.000 140.794 C 188.000 140.614,188.855 140.143,189.900 139.748 C 190.945 139.353,192.031 138.805,192.313 138.530 C 192.831 138.026,195.326 137.206,196.356 137.202 C 196.662 137.201,197.112 136.927,197.356 136.594 C 197.600 136.261,198.970 135.780,200.400 135.527 C 201.830 135.273,203.306 134.806,203.680 134.489 C 204.104 134.129,206.289 133.713,209.480 133.383 C 212.296 133.092,216.069 132.641,217.865 132.380 C 221.228 131.891,221.726 131.918,235.440 133.335 C 238.542 133.655,241.605 134.189,242.246 134.520 C 242.886 134.851,244.308 135.251,245.405 135.409 C 246.502 135.566,248.030 136.026,248.800 136.432 C 249.570 136.837,250.957 137.361,251.882 137.595 C 252.807 137.829,253.807 138.264,254.105 138.562 C 254.402 138.859,255.244 139.234,255.977 139.395 C 256.709 139.556,258.553 140.343,260.074 141.144 C 261.596 141.945,263.506 142.934,264.320 143.342 C 265.134 143.749,266.070 144.317,266.400 144.603 C 267.585 145.629,271.091 146.413,271.624 145.771 C 271.885 145.457,272.233 145.200,272.399 145.200 C 272.825 145.200,275.600 142.611,275.600 142.214 C 275.600 142.032,275.974 141.505,276.432 141.042 C 277.764 139.695,279.585 136.671,279.593 135.794 C 279.597 135.351,279.960 134.316,280.400 133.496 C 281.380 131.667,281.538 126.116,280.650 124.686 C 280.347 124.199,279.888 122.916,279.628 121.835 C 279.368 120.754,278.806 119.425,278.378 118.881 C 277.950 118.337,277.600 117.724,277.600 117.517 C 277.600 116.998,270.956 110.400,270.432 110.400 C 270.198 110.400,269.782 110.040,269.507 109.600 C 269.232 109.160,268.806 108.800,268.559 108.800 C 268.312 108.800,267.431 108.260,266.600 107.600 C 265.769 106.940,264.880 106.400,264.623 106.400 C 264.366 106.400,263.545 105.950,262.800 105.400 C 262.055 104.850,261.144 104.400,260.776 104.400 C 260.409 104.400,259.679 104.070,259.154 103.667 C 258.629 103.264,257.210 102.617,256.000 102.229 C 254.790 101.841,253.620 101.378,253.400 101.199 C 253.180 101.020,251.934 100.678,250.631 100.438 C 249.328 100.198,247.876 99.749,247.404 99.439 C 246.932 99.130,244.880 98.674,242.845 98.427 C 240.810 98.179,238.392 97.685,237.472 97.329 C 235.828 96.692,208.422 96.199,201.414 96.681 " stroke="none" fill="#ffffff" fill-rule="evenodd"></path><path id="path1" d="M40.400 0.583 C 40.400 0.959,39.405 1.463,37.600 2.000 C 36.060 2.459,34.800 2.992,34.800 3.186 C 34.800 3.380,34.181 3.742,33.424 3.992 C 31.988 4.466,26.000 10.414,26.000 11.366 C 26.000 11.647,25.658 12.186,25.240 12.564 C 24.821 12.943,24.367 13.852,24.229 14.586 C 24.091 15.319,23.669 16.523,23.289 17.260 C 22.640 18.522,22.594 29.156,22.498 199.183 L 22.396 379.765 23.564 383.220 C 25.203 388.069,31.187 396.000,33.207 396.000 C 33.464 396.000,34.118 396.350,34.661 396.777 C 35.204 397.204,36.649 397.761,37.872 398.015 C 39.486 398.350,40.149 398.685,40.294 399.238 C 40.610 400.447,359.393 400.436,359.709 399.226 C 359.845 398.707,360.414 398.359,361.444 398.165 C 365.284 397.445,374.000 390.895,374.000 388.730 C 374.000 388.473,374.261 387.975,374.580 387.622 C 374.899 387.270,375.709 385.367,376.380 383.394 L 377.600 379.806 377.600 221.327 C 377.600 122.203,377.458 62.760,377.222 62.613 C 377.014 62.485,364.186 62.386,348.716 62.395 L 320.589 62.409 318.794 61.505 C 317.458 60.831,316.768 60.132,316.090 58.767 L 315.180 56.934 315.194 32.223 C 315.202 18.631,315.306 7.353,315.425 7.159 C 315.545 6.966,315.518 5.276,315.366 3.404 L 315.090 0.000 177.745 0.000 C 57.701 0.000,40.400 0.073,40.400 0.583 M232.028 95.545 C 236.554 95.958,240.642 96.502,241.114 96.754 C 241.586 97.007,243.464 97.408,245.286 97.646 C 247.109 97.883,249.000 98.331,249.489 98.641 C 249.978 98.951,251.451 99.454,252.762 99.760 C 254.073 100.066,255.558 100.605,256.062 100.958 C 256.566 101.311,257.234 101.600,257.547 101.600 C 258.956 101.600,265.268 105.145,271.600 109.493 C 274.593 111.548,280.400 118.701,280.400 120.332 C 280.400 120.648,280.798 121.550,281.284 122.337 C 282.519 124.335,282.534 132.724,281.307 135.095 C 280.879 135.923,280.407 137.091,280.259 137.691 C 279.780 139.630,272.303 147.955,271.000 148.000 C 270.657 148.012,262.949 144.223,261.200 143.183 C 260.245 142.615,255.497 140.528,254.400 140.194 C 253.850 140.027,252.977 139.559,252.459 139.155 C 251.942 138.752,250.862 138.302,250.059 138.156 C 249.257 138.011,247.951 137.566,247.158 137.167 C 246.365 136.769,244.745 136.320,243.558 136.170 C 242.371 136.020,240.783 135.646,240.028 135.339 C 235.935 133.674,210.276 133.496,206.200 135.104 C 205.100 135.538,203.300 136.023,202.200 136.182 C 201.100 136.340,199.660 136.795,199.000 137.192 C 198.340 137.589,197.170 138.047,196.400 138.209 C 195.630 138.371,194.571 138.841,194.046 139.252 C 193.521 139.663,192.872 140.000,192.602 140.000 C 191.918 140.000,187.818 142.202,185.260 143.943 C 184.083 144.744,182.697 145.680,182.180 146.022 C 179.448 147.832,171.527 155.504,170.200 157.625 C 169.025 159.504,167.965 161.130,167.217 162.200 C 165.596 164.519,164.400 166.438,164.400 166.721 C 164.400 166.878,163.965 167.824,163.433 168.822 C 162.902 169.821,162.343 171.298,162.191 172.105 C 162.040 172.912,161.675 173.772,161.380 174.017 C 161.085 174.261,160.633 175.483,160.375 176.731 C 160.117 177.979,159.580 179.900,159.182 181.000 C 158.784 182.100,158.164 185.070,157.804 187.600 C 157.445 190.130,156.997 193.190,156.809 194.400 C 156.178 198.464,156.325 215.557,157.012 218.013 C 157.348 219.216,157.783 222.105,157.978 224.432 C 158.173 226.760,158.636 229.370,159.007 230.232 C 159.379 231.095,159.933 232.840,160.239 234.111 C 160.545 235.382,161.049 236.822,161.359 237.311 C 161.668 237.800,162.050 238.815,162.207 239.566 C 162.364 240.317,162.922 241.739,163.446 242.725 C 163.971 243.712,164.400 244.740,164.400 245.011 C 164.400 245.281,164.698 245.749,165.062 246.051 C 165.426 246.353,165.985 247.230,166.305 248.000 C 166.877 249.380,168.067 251.003,172.400 256.317 C 175.176 259.722,177.214 261.595,181.600 264.770 C 182.810 265.645,183.980 266.512,184.200 266.696 C 185.007 267.370,189.944 270.000,190.402 270.000 C 190.661 270.000,191.331 270.360,191.891 270.800 C 192.450 271.240,193.273 271.600,193.719 271.600 C 194.165 271.600,195.268 272.033,196.170 272.561 C 197.072 273.090,198.708 273.652,199.805 273.810 C 200.902 273.969,202.520 274.416,203.400 274.805 C 204.280 275.194,206.980 275.718,209.400 275.969 C 221.702 277.246,222.873 277.305,226.759 276.832 C 228.871 276.576,232.670 276.187,235.200 275.969 C 237.730 275.751,240.790 275.232,242.000 274.816 C 243.210 274.400,244.989 273.951,245.953 273.817 C 247.614 273.586,250.504 272.460,253.600 270.835 C 254.370 270.431,255.630 269.968,256.400 269.806 C 257.170 269.644,258.079 269.266,258.420 268.966 C 258.761 268.666,259.832 268.142,260.800 267.800 C 261.768 267.458,262.839 266.935,263.180 266.637 C 263.521 266.339,264.224 265.965,264.741 265.807 C 265.743 265.502,267.882 264.199,269.712 262.781 C 272.318 260.762,279.146 266.715,282.844 274.229 C 284.756 278.114,284.885 286.359,283.091 290.039 C 282.491 291.270,282.000 292.420,282.000 292.595 C 282.000 293.071,278.536 297.126,276.226 299.355 C 273.811 301.685,269.687 304.517,266.800 305.827 C 266.470 305.977,265.106 306.617,263.768 307.250 C 262.431 307.882,261.168 308.400,260.962 308.400 C 260.757 308.400,259.943 308.746,259.154 309.169 C 258.365 309.591,256.707 310.125,255.469 310.353 C 254.231 310.582,252.809 311.033,252.309 311.356 C 251.809 311.679,249.976 312.138,248.235 312.376 C 246.494 312.615,244.818 313.019,244.511 313.274 C 244.193 313.538,240.894 313.958,236.876 314.248 C 232.984 314.528,228.000 314.973,225.800 315.236 C 221.639 315.735,213.248 315.552,206.299 314.811 C 204.264 314.595,200.462 314.228,197.850 313.996 C 195.237 313.764,192.779 313.403,192.387 313.193 C 191.996 312.984,189.936 312.551,187.809 312.231 C 185.683 311.912,183.721 311.467,183.451 311.242 C 183.180 311.018,181.618 310.620,179.979 310.359 C 178.341 310.097,176.727 309.650,176.394 309.364 C 176.060 309.079,174.896 308.646,173.806 308.401 C 172.717 308.157,171.280 307.629,170.613 307.227 C 169.946 306.826,168.748 306.382,167.951 306.240 C 167.155 306.099,166.092 305.627,165.590 305.192 C 165.088 304.756,164.480 304.400,164.239 304.400 C 163.833 304.400,159.377 302.355,158.000 301.537 C 157.670 301.341,156.659 300.827,155.753 300.395 C 154.847 299.963,153.880 299.337,153.604 299.005 C 153.328 298.672,152.899 298.397,152.651 298.393 C 152.183 298.385,149.344 296.613,147.600 295.241 C 139.590 288.937,134.748 284.367,131.321 279.877 C 130.281 278.515,128.613 276.379,127.615 275.131 C 125.747 272.796,123.600 269.520,123.600 269.006 C 123.600 268.846,123.150 268.181,122.600 267.527 C 122.050 266.873,121.600 266.107,121.600 265.823 C 121.600 265.540,121.266 264.879,120.858 264.354 C 120.450 263.829,119.901 262.739,119.638 261.932 C 119.374 261.125,118.910 260.257,118.605 260.004 C 118.301 259.752,117.930 258.972,117.783 258.272 C 117.635 257.573,117.193 256.460,116.800 255.800 C 116.407 255.140,115.955 253.970,115.794 253.200 C 115.634 252.430,115.169 251.142,114.762 250.337 C 114.354 249.532,113.901 248.092,113.754 247.137 C 113.608 246.182,113.180 244.770,112.804 244.000 C 112.429 243.230,111.909 241.273,111.649 239.652 C 111.389 238.030,110.970 236.320,110.719 235.852 C 110.467 235.383,110.025 232.480,109.736 229.400 C 109.448 226.320,108.949 222.270,108.628 220.400 C 107.685 214.915,107.774 195.061,108.767 189.386 C 109.189 186.974,109.644 183.227,109.778 181.059 C 109.912 178.891,110.280 176.619,110.595 176.009 C 110.911 175.399,111.363 173.685,111.600 172.200 C 111.837 170.715,112.301 168.978,112.631 168.340 C 112.961 167.702,113.418 166.150,113.646 164.890 C 113.874 163.631,114.305 162.220,114.603 161.756 C 114.901 161.292,115.436 159.912,115.791 158.689 C 116.147 157.467,116.699 156.250,117.019 155.985 C 117.338 155.719,117.600 155.229,117.600 154.896 C 117.600 154.356,120.208 148.753,121.182 147.200 C 121.389 146.870,121.793 146.127,122.079 145.550 C 122.573 144.553,124.881 140.960,126.881 138.073 C 127.386 137.343,128.745 135.565,129.900 134.122 C 131.055 132.679,132.000 131.373,132.000 131.220 C 132.000 130.739,141.768 121.078,143.950 119.400 C 145.095 118.520,147.085 116.945,148.374 115.900 C 149.663 114.855,150.841 114.000,150.993 114.000 C 151.145 114.000,152.019 113.489,152.935 112.865 C 156.749 110.264,157.875 109.600,158.473 109.600 C 158.819 109.600,159.311 109.348,159.567 109.040 C 160.151 108.336,165.646 105.600,166.476 105.600 C 166.815 105.600,167.521 105.263,168.046 104.852 C 168.571 104.441,169.630 103.971,170.400 103.809 C 171.170 103.647,172.340 103.188,173.000 102.790 C 173.660 102.393,174.920 101.940,175.800 101.785 C 176.680 101.630,177.940 101.184,178.600 100.794 C 179.260 100.404,180.610 99.958,181.600 99.803 C 182.590 99.647,184.166 99.188,185.102 98.782 C 186.037 98.376,188.467 97.853,190.502 97.621 C 192.536 97.388,194.920 96.947,195.800 96.639 C 196.680 96.332,200.280 95.871,203.800 95.616 C 207.320 95.361,211.190 94.993,212.400 94.799 C 215.194 94.350,221.580 94.593,232.028 95.545 " stroke="none" fill="#a745c6" fill-rule="evenodd"></path><path id="path2" d="M36.800 0.557 C 36.800 0.863,36.306 1.237,35.703 1.389 C 32.880 2.097,26.542 7.554,25.352 10.300 C 25.043 11.015,24.619 11.600,24.411 11.600 C 24.202 11.600,23.809 12.365,23.536 13.300 C 23.263 14.235,22.709 15.459,22.304 16.019 C 21.166 17.598,21.180 382.420,22.319 384.000 C 22.715 384.550,23.266 385.775,23.542 386.721 C 23.819 387.668,24.288 388.536,24.586 388.650 C 24.884 388.764,25.229 389.250,25.352 389.729 C 25.671 390.966,30.947 396.321,32.143 396.621 C 32.693 396.759,33.236 397.116,33.350 397.414 C 33.464 397.712,34.287 398.174,35.179 398.441 C 36.070 398.708,36.800 399.168,36.800 399.463 C 36.800 399.834,37.366 400.000,38.629 400.000 C 41.471 400.000,40.920 398.809,37.688 397.964 C 36.310 397.603,34.858 397.014,34.460 396.654 C 34.062 396.294,33.513 396.000,33.239 396.000 C 31.190 396.000,25.216 388.109,23.564 383.220 L 22.396 379.765 22.498 199.183 C 22.594 29.156,22.640 18.522,23.289 17.260 C 23.669 16.523,24.091 15.319,24.229 14.586 C 24.367 13.852,24.821 12.943,25.240 12.564 C 25.658 12.186,26.000 11.647,26.000 11.366 C 26.000 10.414,31.988 4.466,33.424 3.992 C 34.181 3.742,34.800 3.380,34.800 3.186 C 34.800 2.992,36.060 2.459,37.600 2.000 C 40.952 1.002,41.453 0.000,38.600 0.000 C 37.329 0.000,36.800 0.164,36.800 0.557 M315.268 3.700 C 315.325 5.735,315.329 18.545,315.276 32.167 L 315.180 56.934 316.090 58.767 C 316.768 60.132,317.458 60.831,318.794 61.505 L 320.589 62.409 348.716 62.395 C 364.186 62.386,377.014 62.485,377.222 62.613 C 377.458 62.760,377.600 122.203,377.600 221.327 L 377.600 379.806 376.380 383.394 C 375.709 385.367,374.899 387.270,374.580 387.622 C 374.261 387.975,374.000 388.473,374.000 388.730 C 374.000 390.893,365.702 397.140,361.422 398.200 C 358.985 398.804,358.950 400.000,361.371 400.000 C 362.685 400.000,363.200 399.840,363.200 399.432 C 363.200 399.116,363.777 398.738,364.500 398.580 C 365.215 398.424,366.309 397.870,366.931 397.348 C 367.553 396.827,368.221 396.400,368.417 396.400 C 369.086 396.400,374.388 390.785,374.631 389.821 C 374.763 389.291,375.116 388.764,375.414 388.650 C 375.712 388.536,376.181 387.668,376.458 386.721 C 376.734 385.775,377.285 384.550,377.681 384.000 C 378.611 382.710,378.584 388.602,378.482 207.516 C 378.408 77.337,378.337 62.379,377.783 61.916 C 377.049 61.302,352.763 37.242,333.752 18.293 C 319.388 3.976,317.200 1.642,317.200 0.632 C 317.200 0.222,316.843 0.000,316.182 0.000 L 315.164 0.000 315.268 3.700 M212.400 94.799 C 211.190 94.993,207.320 95.361,203.800 95.616 C 200.280 95.871,196.680 96.332,195.800 96.639 C 194.920 96.947,192.536 97.388,190.502 97.621 C 188.467 97.853,186.037 98.376,185.102 98.782 C 184.166 99.188,182.590 99.647,181.600 99.803 C 180.610 99.958,179.260 100.404,178.600 100.794 C 177.940 101.184,176.680 101.630,175.800 101.785 C 174.920 101.940,173.660 102.393,173.000 102.790 C 172.340 103.188,171.170 103.647,170.400 103.809 C 169.630 103.971,168.571 104.441,168.046 104.852 C 167.521 105.263,166.815 105.600,166.476 105.600 C 165.646 105.600,160.151 108.336,159.567 109.040 C 159.311 109.348,158.819 109.600,158.473 109.600 C 157.875 109.600,156.749 110.264,152.935 112.865 C 152.019 113.489,151.145 114.000,150.993 114.000 C 150.841 114.000,149.663 114.855,148.374 115.900 C 147.085 116.945,145.095 118.520,143.950 119.400 C 141.768 121.078,132.000 130.739,132.000 131.220 C 132.000 131.373,131.055 132.679,129.900 134.122 C 128.745 135.565,127.386 137.343,126.881 138.073 C 124.881 140.960,122.573 144.553,122.079 145.550 C 121.793 146.127,121.389 146.870,121.182 147.200 C 120.208 148.753,117.600 154.356,117.600 154.896 C 117.600 155.229,117.338 155.719,117.019 155.985 C 116.699 156.250,116.147 157.467,115.791 158.689 C 115.436 159.912,114.901 161.292,114.603 161.756 C 114.305 162.220,113.874 163.631,113.646 164.890 C 113.418 166.150,112.961 167.702,112.631 168.340 C 112.301 168.978,111.837 170.715,111.600 172.200 C 111.363 173.685,110.911 175.399,110.595 176.009 C 110.280 176.619,109.912 178.891,109.778 181.059 C 109.644 183.227,109.189 186.974,108.767 189.386 C 107.774 195.061,107.685 214.915,108.628 220.400 C 108.949 222.270,109.448 226.320,109.736 229.400 C 110.025 232.480,110.467 235.383,110.719 235.852 C 110.970 236.320,111.389 238.030,111.649 239.652 C 111.909 241.273,112.429 243.230,112.804 244.000 C 113.180 244.770,113.608 246.182,113.754 247.137 C 113.901 248.092,114.354 249.532,114.762 250.337 C 115.169 251.142,115.634 252.430,115.794 253.200 C 115.955 253.970,116.407 255.140,116.800 255.800 C 117.193 256.460,117.635 257.573,117.783 258.272 C 117.930 258.972,118.301 259.752,118.605 260.004 C 118.910 260.257,119.374 261.125,119.638 261.932 C 119.901 262.739,120.450 263.829,120.858 264.354 C 121.266 264.879,121.600 265.540,121.600 265.823 C 121.600 266.107,122.050 266.873,122.600 267.527 C 123.150 268.181,123.600 268.846,123.600 269.006 C 123.600 269.520,125.747 272.796,127.615 275.131 C 128.613 276.379,130.281 278.515,131.321 279.877 C 134.748 284.367,139.590 288.937,147.600 295.241 C 149.344 296.613,152.183 298.385,152.651 298.393 C 152.899 298.397,153.328 298.672,153.604 299.005 C 153.880 299.337,154.847 299.963,155.753 300.395 C 156.659 300.827,157.670 301.341,158.000 301.537 C 159.377 302.355,163.833 304.400,164.239 304.400 C 164.480 304.400,165.088 304.756,165.590 305.192 C 166.092 305.627,167.155 306.099,167.951 306.240 C 168.748 306.382,169.946 306.826,170.613 307.227 C 171.280 307.629,172.717 308.157,173.806 308.401 C 174.896 308.646,176.060 309.079,176.394 309.364 C 176.727 309.650,178.341 310.097,179.979 310.359 C 181.618 310.620,183.180 311.018,183.451 311.242 C 183.721 311.467,185.683 311.912,187.809 312.231 C 189.936 312.551,191.996 312.984,192.387 313.193 C 192.779 313.403,195.237 313.764,197.850 313.996 C 200.462 314.228,204.264 314.595,206.299 314.811 C 213.248 315.552,221.639 315.735,225.800 315.236 C 228.000 314.973,232.984 314.528,236.876 314.248 C 240.894 313.958,244.193 313.538,244.511 313.274 C 244.818 313.019,246.494 312.615,248.235 312.376 C 249.976 312.138,251.809 311.679,252.309 311.356 C 252.809 311.033,254.231 310.582,255.469 310.353 C 256.707 310.125,258.365 309.591,259.154 309.169 C 259.943 308.746,260.757 308.400,260.962 308.400 C 261.168 308.400,262.431 307.882,263.768 307.250 C 265.106 306.617,266.470 305.977,266.800 305.827 C 269.687 304.517,273.811 301.685,276.226 299.355 C 278.536 297.126,282.000 293.071,282.000 292.595 C 282.000 292.420,282.491 291.270,283.091 290.039 C 284.885 286.359,284.756 278.114,282.844 274.229 C 280.743 269.961,279.424 268.251,275.879 265.203 C 272.038 261.899,271.250 261.589,269.712 262.781 C 267.882 264.199,265.743 265.502,264.741 265.807 C 264.224 265.965,263.521 266.339,263.180 266.637 C 262.839 266.935,261.768 267.458,260.800 267.800 C 259.832 268.142,258.761 268.666,258.420 268.966 C 258.079 269.266,257.170 269.644,256.400 269.806 C 255.630 269.968,254.370 270.431,253.600 270.835 C 250.504 272.460,247.614 273.586,245.953 273.817 C 244.989 273.951,243.210 274.400,242.000 274.816 C 240.790 275.232,237.730 275.751,235.200 275.969 C 232.670 276.187,228.871 276.576,226.759 276.832 C 222.873 277.305,221.702 277.246,209.400 275.969 C 206.980 275.718,204.280 275.194,203.400 274.805 C 202.520 274.416,200.902 273.969,199.805 273.810 C 198.708 273.652,197.072 273.090,196.170 272.561 C 195.268 272.033,194.165 271.600,193.719 271.600 C 193.273 271.600,192.450 271.240,191.891 270.800 C 191.331 270.360,190.661 270.000,190.402 270.000 C 189.944 270.000,185.007 267.370,184.200 266.696 C 183.980 266.512,182.810 265.645,181.600 264.770 C 177.214 261.595,175.176 259.722,172.400 256.317 C 168.067 251.003,166.877 249.380,166.305 248.000 C 165.985 247.230,165.426 246.353,165.062 246.051 C 164.698 245.749,164.400 245.281,164.400 245.011 C 164.400 244.740,163.971 243.712,163.446 242.725 C 162.922 241.739,162.364 240.317,162.207 239.566 C 162.050 238.815,161.668 237.800,161.359 237.311 C 161.049 236.822,160.545 235.382,160.239 234.111 C 159.933 232.840,159.379 231.095,159.007 230.232 C 158.636 229.370,158.173 226.760,157.978 224.432 C 157.783 222.105,157.348 219.216,157.012 218.013 C 156.325 215.557,156.178 198.464,156.809 194.400 C 156.997 193.190,157.445 190.130,157.804 187.600 C 158.164 185.070,158.784 182.100,159.182 181.000 C 159.580 179.900,160.117 177.979,160.375 176.731 C 160.633 175.483,161.085 174.261,161.380 174.017 C 161.675 173.772,162.040 172.912,162.191 172.105 C 162.343 171.298,162.902 169.821,163.433 168.822 C 163.965 167.824,164.400 166.878,164.400 166.721 C 164.400 166.438,165.596 164.519,167.217 162.200 C 167.965 161.130,169.025 159.504,170.200 157.625 C 171.527 155.504,179.448 147.832,182.180 146.022 C 182.697 145.680,184.083 144.744,185.260 143.943 C 187.818 142.202,191.918 140.000,192.602 140.000 C 192.872 140.000,193.521 139.663,194.046 139.252 C 194.571 138.841,195.630 138.371,196.400 138.209 C 197.170 138.047,198.340 137.589,199.000 137.192 C 199.660 136.795,201.100 136.340,202.200 136.182 C 203.300 136.023,205.100 135.538,206.200 135.104 C 210.276 133.496,235.935 133.674,240.028 135.339 C 240.783 135.646,242.371 136.020,243.558 136.170 C 244.745 136.320,246.365 136.769,247.158 137.167 C 247.951 137.566,249.257 138.011,250.059 138.156 C 250.862 138.302,251.942 138.752,252.459 139.155 C 252.977 139.559,253.850 140.027,254.400 140.194 C 255.497 140.528,260.245 142.615,261.200 143.183 C 262.949 144.223,270.657 148.012,271.000 148.000 C 272.303 147.955,279.780 139.630,280.259 137.691 C 280.407 137.091,280.879 135.923,281.307 135.095 C 282.534 132.724,282.519 124.335,281.284 122.337 C 280.798 121.550,280.400 120.648,280.400 120.332 C 280.400 118.701,274.593 111.548,271.600 109.493 C 265.268 105.145,258.956 101.600,257.547 101.600 C 257.234 101.600,256.566 101.311,256.062 100.958 C 255.558 100.605,254.073 100.066,252.762 99.760 C 251.451 99.454,249.978 98.951,249.489 98.641 C 249.000 98.331,247.109 97.883,245.286 97.646 C 243.464 97.408,241.586 97.007,241.114 96.754 C 239.176 95.717,216.360 94.163,212.400 94.799 M237.472 97.329 C 238.392 97.685,240.810 98.179,242.845 98.427 C 244.880 98.674,246.932 99.130,247.404 99.439 C 247.876 99.749,249.328 100.198,250.631 100.438 C 251.934 100.678,253.180 101.020,253.400 101.199 C 253.620 101.378,254.790 101.841,256.000 102.229 C 257.210 102.617,258.629 103.264,259.154 103.667 C 259.679 104.070,260.409 104.400,260.776 104.400 C 261.144 104.400,262.055 104.850,262.800 105.400 C 263.545 105.950,264.366 106.400,264.623 106.400 C 264.880 106.400,265.769 106.940,266.600 107.600 C 267.431 108.260,268.312 108.800,268.559 108.800 C 268.806 108.800,269.232 109.160,269.507 109.600 C 269.782 110.040,270.198 110.400,270.432 110.400 C 270.956 110.400,277.600 116.998,277.600 117.517 C 277.600 117.724,277.950 118.337,278.378 118.881 C 278.806 119.425,279.368 120.754,279.628 121.835 C 279.888 122.916,280.347 124.199,280.650 124.686 C 281.538 126.116,281.380 131.667,280.400 133.496 C 279.960 134.316,279.597 135.351,279.593 135.794 C 279.585 136.671,277.764 139.695,276.432 141.042 C 275.974 141.505,275.600 142.032,275.600 142.214 C 275.600 142.611,272.825 145.200,272.399 145.200 C 272.233 145.200,271.885 145.457,271.624 145.771 C 271.091 146.413,267.585 145.629,266.400 144.603 C 266.070 144.317,265.134 143.749,264.320 143.342 C 263.506 142.934,261.596 141.945,260.074 141.144 C 258.553 140.343,256.709 139.556,255.977 139.395 C 255.244 139.234,254.402 138.859,254.105 138.562 C 253.807 138.264,252.807 137.829,251.882 137.595 C 250.957 137.361,249.570 136.837,248.800 136.432 C 248.030 136.026,246.502 135.566,245.405 135.409 C 244.308 135.251,242.886 134.851,242.246 134.520 C 241.605 134.189,238.542 133.655,235.440 133.335 C 221.726 131.918,221.228 131.891,217.865 132.380 C 216.069 132.641,212.296 133.092,209.480 133.383 C 206.289 133.713,204.104 134.129,203.680 134.489 C 203.306 134.806,201.830 135.273,200.400 135.527 C 198.970 135.780,197.600 136.261,197.356 136.594 C 197.112 136.927,196.662 137.201,196.356 137.202 C 195.326 137.206,192.831 138.026,192.313 138.530 C 192.031 138.805,190.945 139.353,189.900 139.748 C 188.855 140.143,188.000 140.614,188.000 140.794 C 188.000 140.974,187.482 141.302,186.849 141.523 C 185.794 141.891,183.639 143.305,181.854 144.800 C 179.217 147.010,178.621 147.506,177.534 148.400 C 176.433 149.305,174.156 151.511,172.919 152.871 C 172.655 153.162,172.205 153.624,171.919 153.897 C 171.634 154.171,170.950 154.941,170.400 155.609 C 169.850 156.277,168.995 157.211,168.500 157.684 C 168.005 158.157,167.600 158.768,167.600 159.041 C 167.600 159.315,167.150 160.073,166.600 160.727 C 166.050 161.381,165.600 162.080,165.600 162.280 C 165.600 162.481,165.159 163.242,164.621 163.972 C 164.082 164.701,163.532 165.798,163.398 166.408 C 163.264 167.018,162.805 167.834,162.377 168.221 C 161.950 168.607,161.600 169.412,161.600 170.008 C 161.600 170.604,161.242 171.547,160.805 172.103 C 160.368 172.659,159.816 174.078,159.579 175.257 C 159.342 176.435,158.820 178.210,158.420 179.200 C 158.019 180.190,157.563 182.249,157.406 183.775 C 157.249 185.301,156.845 186.971,156.507 187.485 C 155.064 189.688,155.092 221.638,156.540 224.267 C 156.883 224.890,157.352 226.916,157.582 228.769 C 157.813 230.623,158.249 232.423,158.552 232.769 C 158.855 233.116,159.300 234.551,159.541 235.958 C 159.783 237.364,160.237 238.804,160.550 239.158 C 160.864 239.511,161.303 240.472,161.526 241.294 C 161.749 242.115,162.307 243.265,162.766 243.848 C 163.225 244.431,163.603 245.199,163.607 245.554 C 163.614 246.183,165.385 249.164,166.504 250.431 C 166.810 250.777,167.184 251.380,167.333 251.771 C 167.981 253.459,174.342 260.523,177.513 263.075 C 178.111 263.556,179.230 264.464,180.000 265.093 C 182.741 267.329,185.317 268.904,190.000 271.206 C 191.870 272.125,194.030 273.196,194.800 273.587 C 195.570 273.978,197.010 274.418,198.000 274.566 C 198.990 274.713,200.520 275.170,201.400 275.580 C 202.280 275.990,204.260 276.450,205.800 276.601 C 207.340 276.753,209.680 277.172,211.000 277.533 C 214.514 278.494,230.439 278.478,233.601 277.509 C 234.811 277.139,237.331 276.718,239.201 276.576 C 241.114 276.430,243.300 275.996,244.200 275.584 C 245.080 275.181,246.520 274.730,247.400 274.582 C 248.280 274.433,249.580 273.981,250.288 273.576 C 250.997 273.172,252.257 272.722,253.088 272.577 C 253.920 272.432,255.230 271.900,256.000 271.394 C 256.770 270.889,257.997 270.351,258.727 270.200 C 259.457 270.048,260.144 269.689,260.255 269.402 C 260.365 269.114,261.083 268.761,261.850 268.617 C 262.617 268.473,263.574 268.026,263.976 267.624 C 264.378 267.222,265.356 266.679,266.148 266.417 C 266.941 266.156,267.703 265.756,267.843 265.530 C 269.405 263.003,272.572 263.825,276.505 267.778 C 280.849 272.146,281.133 272.518,281.557 274.405 C 281.756 275.291,282.220 276.475,282.587 277.037 C 283.509 278.443,283.575 286.518,282.673 287.529 C 282.344 287.898,281.862 288.998,281.602 289.972 C 281.343 290.947,280.696 292.314,280.165 293.010 C 279.634 293.706,279.200 294.395,279.200 294.540 C 279.200 294.934,274.644 299.260,273.121 300.313 C 270.027 302.450,268.172 303.586,267.762 303.593 C 267.521 303.597,266.998 303.961,266.598 304.402 C 266.199 304.843,265.155 305.397,264.278 305.633 C 263.401 305.869,262.215 306.391,261.642 306.794 C 261.069 307.196,259.916 307.642,259.079 307.785 C 258.242 307.927,257.462 308.293,257.346 308.597 C 257.218 308.929,256.224 309.258,254.867 309.417 C 253.620 309.564,252.016 310.018,251.302 310.427 C 250.499 310.887,248.549 311.320,246.193 311.561 C 244.097 311.775,241.822 312.230,241.137 312.572 C 237.964 314.154,200.126 314.212,196.991 312.639 C 196.326 312.305,193.747 311.840,191.261 311.606 C 188.524 311.348,186.370 310.937,185.801 310.564 C 185.284 310.225,183.671 309.780,182.216 309.574 C 180.761 309.368,179.158 308.929,178.654 308.599 C 178.150 308.268,176.672 307.803,175.369 307.564 C 174.066 307.325,172.727 306.886,172.394 306.588 C 172.060 306.289,170.910 305.849,169.839 305.609 C 168.767 305.369,167.467 304.839,166.949 304.431 C 166.431 304.024,165.355 303.568,164.558 303.419 C 163.761 303.269,162.738 302.801,162.285 302.378 C 161.831 301.956,160.861 301.498,160.130 301.360 C 159.398 301.223,158.800 300.941,158.800 300.733 C 158.800 300.525,158.035 299.987,157.100 299.537 C 154.223 298.152,152.937 297.387,151.612 296.272 C 150.912 295.682,150.160 295.200,149.942 295.200 C 149.518 295.200,146.358 292.740,142.848 289.677 C 141.665 288.645,140.396 287.620,140.028 287.400 C 139.422 287.037,137.739 285.234,132.560 279.400 C 130.443 277.014,128.400 274.386,128.400 274.045 C 128.399 273.910,127.949 273.277,127.400 272.638 C 126.850 271.999,126.400 271.324,126.400 271.138 C 126.400 270.952,126.085 270.479,125.700 270.088 C 125.315 269.696,124.673 268.751,124.273 267.988 C 122.426 264.464,122.013 263.761,121.466 263.200 C 121.144 262.870,120.681 261.856,120.437 260.947 C 120.194 260.037,119.737 259.080,119.423 258.819 C 119.109 258.558,118.732 257.772,118.587 257.072 C 118.441 256.373,117.989 255.220,117.582 254.512 C 117.174 253.803,116.722 252.543,116.576 251.712 C 116.431 250.880,115.980 249.620,115.575 248.910 C 115.170 248.201,114.637 246.491,114.390 245.110 C 114.144 243.730,113.688 242.206,113.378 241.725 C 113.068 241.244,112.643 239.342,112.434 237.499 C 112.224 235.656,111.773 233.440,111.432 232.574 C 111.054 231.616,110.566 227.868,110.185 223.000 C 109.841 218.600,109.387 212.930,109.176 210.400 C 108.869 206.712,108.949 203.976,109.576 196.600 C 110.007 191.540,110.474 185.875,110.615 184.012 C 110.755 182.149,111.121 180.140,111.427 179.547 C 111.734 178.955,112.171 176.824,112.399 174.811 C 112.627 172.798,113.085 170.737,113.417 170.230 C 113.749 169.723,114.218 168.159,114.459 166.754 C 114.700 165.349,115.140 163.923,115.435 163.584 C 115.731 163.245,116.179 161.985,116.431 160.784 C 116.684 159.583,117.123 158.330,117.408 158.000 C 117.693 157.670,118.139 156.590,118.400 155.600 C 118.661 154.610,119.098 153.530,119.371 153.200 C 119.645 152.870,120.225 151.880,120.661 151.000 C 122.331 147.632,124.932 142.971,125.518 142.297 C 126.128 141.596,126.295 141.342,127.800 138.822 C 128.240 138.085,129.005 137.117,129.500 136.669 C 129.995 136.222,130.400 135.682,130.400 135.470 C 130.400 135.258,130.767 134.705,131.217 134.242 C 132.963 132.441,136.800 127.662,136.800 127.288 C 136.800 127.071,137.173 126.796,137.630 126.676 C 138.086 126.557,138.557 126.086,138.676 125.630 C 138.796 125.173,139.091 124.800,139.332 124.800 C 139.573 124.800,140.227 124.339,140.785 123.777 C 141.691 122.863,146.501 118.928,148.600 117.382 C 149.040 117.058,149.940 116.370,150.600 115.853 C 151.260 115.336,152.385 114.613,153.100 114.246 C 153.815 113.879,154.400 113.431,154.400 113.250 C 154.400 113.069,155.075 112.617,155.900 112.245 C 157.980 111.307,160.095 110.135,160.753 109.556 C 161.057 109.289,162.047 108.815,162.953 108.504 C 163.859 108.193,164.870 107.699,165.200 107.406 C 165.530 107.114,166.544 106.676,167.453 106.434 C 168.363 106.192,169.326 105.730,169.594 105.408 C 169.861 105.085,170.737 104.710,171.540 104.573 C 172.343 104.437,173.469 103.996,174.042 103.594 C 174.615 103.191,176.130 102.669,177.409 102.432 C 178.688 102.196,180.019 101.746,180.367 101.434 C 180.715 101.121,182.317 100.683,183.926 100.462 C 185.535 100.240,187.266 99.787,187.772 99.455 C 188.278 99.123,189.842 98.738,191.246 98.598 C 194.635 98.260,198.101 97.593,198.614 97.179 C 199.831 96.197,234.899 96.332,237.472 97.329 " stroke="none" fill="#e9a5fe" fill-rule="evenodd"></path></g></svg>