<svg id="svg" version="1.1" xmlns="http://www.w3.org/2000/svg" xmlns:xlink="http://www.w3.org/1999/xlink" width="400" height="400" viewBox="0, 0, 400,400"><g id="svgg"><path id="path0" d="M187.600 31.437 C 110.421 36.384,46.670 93.395,31.986 170.600 C 15.752 255.958,71.118 341.723,156.800 363.943 C 177.383 369.280,206.817 370.771,225.530 367.422 C 227.218 367.120,230.760 366.487,233.400 366.015 C 329.529 348.824,391.563 247.009,363.430 152.600 C 343.940 87.196,290.168 42.054,220.000 32.190 C 215.618 31.573,193.491 31.060,187.600 31.437 M202.962 59.255 C 205.347 60.342,205.241 58.030,205.229 108.703 C 205.215 165.732,204.813 161.741,210.643 162.445 C 214.316 162.888,215.586 163.638,216.306 165.789 C 217.241 168.581,216.816 311.505,215.869 312.951 C 215.005 314.269,212.989 315.200,211.000 315.200 C 206.211 315.200,205.842 316.089,205.600 328.200 C 205.345 340.922,205.040 341.600,199.559 341.600 C 194.721 341.600,194.316 340.610,194.079 328.200 C 193.844 315.836,193.850 315.851,188.316 315.171 C 184.466 314.699,183.389 313.634,183.015 309.933 C 182.441 304.252,182.966 165.861,183.565 164.800 C 184.427 163.276,185.186 162.882,187.800 162.602 C 194.574 161.877,193.858 167.713,194.124 111.000 C 194.366 59.436,194.321 60.505,196.342 59.407 C 197.618 58.714,201.575 58.623,202.962 59.255 M264.858 80.929 C 266.218 81.778,266.550 83.329,266.776 89.873 C 267.029 97.192,267.438 98.323,270.038 98.904 C 278.387 100.770,277.376 94.114,277.520 148.200 C 277.667 203.475,278.055 199.216,272.800 200.021 C 266.650 200.964,267.041 199.713,266.800 219.219 C 266.617 234.054,266.538 235.532,265.869 236.552 C 264.054 239.319,259.715 239.232,258.301 236.400 C 257.673 235.144,257.600 233.477,257.591 220.200 C 257.578 201.183,257.477 200.783,252.513 200.179 C 249.469 199.809,248.062 199.045,247.368 197.386 C 246.646 195.658,246.511 105.257,247.227 102.679 C 247.727 100.876,249.507 99.615,251.600 99.579 C 256.495 99.495,257.310 98.146,257.583 89.675 C 257.760 84.202,257.930 82.766,258.502 81.892 C 259.641 80.155,262.842 79.670,264.858 80.929 M140.742 100.170 C 142.438 101.047,142.800 102.348,142.800 107.564 C 142.800 116.510,143.593 118.176,148.161 118.823 C 154.175 119.675,153.776 117.930,153.926 143.982 C 154.098 173.748,154.270 172.816,148.459 173.674 C 142.209 174.597,142.690 167.549,142.928 254.800 C 143.134 330.099,143.146 329.435,141.460 331.122 C 139.349 333.233,134.740 332.351,133.306 329.561 C 132.919 328.809,132.806 312.250,132.783 253.400 C 132.762 196.227,132.640 177.873,132.277 176.837 C 131.627 174.982,130.259 174.099,127.322 173.639 C 121.668 172.755,122.000 174.464,122.000 146.200 C 122.000 117.979,121.713 119.370,127.698 118.597 C 131.803 118.066,132.794 116.061,132.798 108.280 C 132.801 100.539,135.711 97.568,140.742 100.170 " stroke="none" fill="#ed5e45" fill-rule="evenodd"></path><path id="path1" d="M0.000 200.000 L 0.000 400.000 200.000 400.000 L 400.000 400.000 400.000 200.000 L 400.000 0.000 200.000 0.000 L 0.000 0.000 0.000 200.000 M220.000 32.190 C 249.280 36.306,271.400 44.370,293.791 59.090 C 382.725 117.560,396.393 241.128,322.400 317.742 C 298.758 342.221,265.461 360.281,233.400 366.015 C 230.760 366.487,227.218 367.120,225.530 367.422 C 206.817 370.771,177.383 369.280,156.800 363.943 C 73.962 342.461,19.541 262.409,30.800 178.600 C 41.577 98.373,107.420 36.576,187.600 31.437 C 193.491 31.060,215.618 31.573,220.000 32.190 M196.342 59.407 C 194.321 60.505,194.366 59.436,194.124 111.000 C 193.858 167.713,194.574 161.877,187.800 162.602 C 185.186 162.882,184.427 163.276,183.565 164.800 C 182.966 165.861,182.441 304.252,183.015 309.933 C 183.389 313.634,184.466 314.699,188.316 315.171 C 193.850 315.851,193.844 315.836,194.079 328.200 C 194.316 340.610,194.721 341.600,199.559 341.600 C 205.040 341.600,205.345 340.922,205.600 328.200 C 205.842 316.089,206.211 315.200,211.000 315.200 C 212.989 315.200,215.005 314.269,215.869 312.951 C 216.816 311.505,217.241 168.581,216.306 165.789 C 215.586 163.638,214.316 162.888,210.643 162.445 C 204.813 161.741,205.215 165.732,205.229 108.703 C 205.241 58.030,205.347 60.342,202.962 59.255 C 201.575 58.623,197.618 58.714,196.342 59.407 M260.502 80.443 C 258.156 81.128,257.826 82.173,257.583 89.675 C 257.310 98.146,256.495 99.495,251.600 99.579 C 249.507 99.615,247.727 100.876,247.227 102.679 C 246.511 105.257,246.646 195.658,247.368 197.386 C 248.062 199.045,249.469 199.809,252.513 200.179 C 257.477 200.783,257.578 201.183,257.591 220.200 C 257.600 233.477,257.673 235.144,258.301 236.400 C 259.715 239.232,264.054 239.319,265.869 236.552 C 266.538 235.532,266.617 234.054,266.800 219.219 C 267.041 199.713,266.650 200.964,272.800 200.021 C 278.055 199.216,277.667 203.475,277.520 148.200 C 277.376 94.114,278.387 100.770,270.038 98.904 C 267.438 98.323,267.029 97.192,266.776 89.873 C 266.471 81.036,265.170 79.080,260.502 80.443 M135.105 100.226 C 133.190 101.265,132.800 102.626,132.798 108.280 C 132.794 116.061,131.803 118.066,127.698 118.597 C 121.713 119.370,122.000 117.979,122.000 146.200 C 122.000 174.464,121.668 172.755,127.322 173.639 C 130.259 174.099,131.627 174.982,132.277 176.837 C 132.640 177.873,132.762 196.227,132.783 253.400 C 132.806 312.250,132.919 328.809,133.306 329.561 C 134.740 332.351,139.349 333.233,141.460 331.122 C 143.146 329.435,143.134 330.099,142.928 254.800 C 142.690 167.549,142.209 174.597,148.459 173.674 C 154.270 172.816,154.098 173.748,153.926 143.982 C 153.776 117.930,154.175 119.675,148.161 118.823 C 143.593 118.176,142.800 116.510,142.800 107.564 C 142.800 102.348,142.438 101.047,140.742 100.170 C 139.325 99.437,136.507 99.465,135.105 100.226 " stroke="none" fill="#fbfbfb" fill-rule="evenodd"></path></g></svg>