<svg id="svg" version="1.1" xmlns="http://www.w3.org/2000/svg" xmlns:xlink="http://www.w3.org/1999/xlink" width="400" height="400" viewBox="0, 0, 400,400"><g id="svgg"><path id="path0" d="M116.000 37.026 C 116.000 74.448,115.957 75.600,114.558 75.600 C 109.315 75.600,96.037 82.878,89.085 89.563 C 56.265 121.123,80.400 173.600,127.800 173.742 C 177.118 173.891,200.672 118.171,164.400 87.160 C 158.201 81.861,145.750 75.600,141.409 75.600 C 140.048 75.600,140.000 74.292,140.000 37.026 L 140.000 0.000 128.000 0.000 L 116.000 0.000 116.000 37.026 M267.600 74.595 C 225.364 80.892,207.383 127.793,235.908 157.262 C 242.800 164.381,256.872 172.400,262.475 172.400 C 263.943 172.400,264.000 173.428,264.000 200.000 C 264.000 226.279,263.931 227.600,262.561 227.600 C 257.298 227.600,244.162 234.776,237.210 241.449 C 210.077 267.492,220.825 310.381,257.635 322.954 C 259.964 323.749,262.163 324.400,262.521 324.400 C 263.962 324.400,264.000 325.379,264.000 362.974 L 264.000 400.000 278.000 400.000 L 292.000 400.000 292.006 362.300 C 292.009 341.565,292.154 324.376,292.328 324.103 C 292.502 323.830,293.960 323.146,295.568 322.584 C 341.404 306.570,340.766 244.373,294.607 229.010 C 293.511 228.645,292.479 228.133,292.313 227.873 C 291.924 227.262,291.918 172.733,292.306 172.187 C 292.468 171.960,293.950 171.258,295.600 170.627 C 310.688 164.860,322.412 153.453,327.255 139.829 C 327.874 138.085,328.611 136.513,328.891 136.335 C 329.171 136.158,345.285 136.009,364.700 136.006 L 400.000 136.000 400.000 121.900 L 400.000 107.800 364.500 107.912 C 344.975 107.974,328.599 107.927,328.110 107.807 C 327.470 107.651,326.818 106.722,325.795 104.508 C 316.071 83.460,291.803 70.986,267.600 74.595 M122.400 226.229 C 104.219 228.292,89.051 237.840,80.189 252.800 C 79.342 254.230,78.458 255.532,78.224 255.694 C 77.991 255.856,60.295 255.991,38.900 255.994 L 0.000 256.000 0.000 270.000 L 0.000 284.000 37.151 284.000 L 74.303 284.000 74.733 285.100 C 74.969 285.705,75.363 287.010,75.607 288.000 C 79.500 303.756,93.505 317.837,110.657 323.240 C 112.826 323.923,114.870 324.619,115.200 324.785 C 115.726 325.050,115.813 329.719,115.902 362.544 L 116.004 400.000 130.002 400.000 L 144.000 400.000 144.006 362.300 C 144.009 341.565,144.144 324.394,144.306 324.143 C 144.468 323.892,146.232 323.056,148.227 322.287 C 182.827 308.938,193.074 268.711,168.409 243.054 C 156.822 231.001,138.712 224.378,122.400 226.229 " stroke="none" fill="#fafafb" fill-rule="evenodd"></path><path id="path1" d="M99.759 0.370 C 97.413 0.518,95.857 0.813,95.382 1.200 C 94.961 1.544,94.775 1.586,94.947 1.300 C 95.112 1.025,95.057 0.800,94.824 0.800 C 94.591 0.800,94.400 0.980,94.400 1.200 C 94.400 1.421,93.348 1.600,92.043 1.600 C 90.316 1.600,89.624 1.761,89.455 2.200 C 89.289 2.634,88.609 2.800,87.000 2.800 C 85.391 2.800,84.711 2.966,84.545 3.400 C 84.389 3.806,83.753 4.000,82.581 4.000 C 81.627 4.000,80.736 4.180,80.600 4.400 C 80.464 4.620,79.768 4.800,79.053 4.800 C 78.338 4.800,77.404 5.064,76.976 5.387 C 76.549 5.710,75.795 5.980,75.300 5.987 C 74.772 5.995,74.400 6.248,74.400 6.600 C 74.400 7.034,73.954 7.200,72.787 7.200 C 71.723 7.200,71.097 7.404,70.945 7.800 C 70.803 8.170,70.195 8.400,69.357 8.400 C 68.611 8.400,68.000 8.580,68.000 8.800 C 68.000 9.020,67.662 9.200,67.249 9.200 C 66.836 9.200,66.274 9.470,66.000 9.800 C 65.726 10.130,64.984 10.400,64.351 10.400 C 63.595 10.400,63.200 10.606,63.200 11.000 C 63.200 11.373,62.822 11.600,62.200 11.600 C 61.578 11.600,61.200 11.827,61.200 12.200 C 61.200 12.600,60.800 12.800,60.000 12.800 C 59.340 12.800,58.800 12.977,58.800 13.192 C 58.800 13.408,58.350 13.698,57.800 13.836 C 57.250 13.974,56.800 14.247,56.800 14.443 C 56.800 14.640,56.595 14.800,56.344 14.800 C 56.093 14.800,55.630 15.115,55.314 15.500 C 54.999 15.885,54.844 15.992,54.971 15.737 C 55.145 15.387,54.958 15.387,54.204 15.737 C 53.655 15.992,53.205 16.425,53.203 16.700 C 53.201 16.975,52.750 17.200,52.200 17.200 C 51.650 17.200,51.200 17.380,51.200 17.600 C 51.200 17.820,50.949 18.000,50.643 18.000 C 50.336 18.000,49.982 18.270,49.855 18.600 C 49.729 18.930,49.259 19.200,48.813 19.200 C 48.357 19.200,48.000 19.464,48.000 19.800 C 48.000 20.130,47.730 20.400,47.400 20.400 C 47.070 20.400,46.800 20.670,46.800 21.000 C 46.800 21.373,46.422 21.600,45.800 21.600 C 45.250 21.600,44.800 21.780,44.800 22.000 C 44.800 22.220,44.530 22.400,44.200 22.400 C 43.870 22.400,43.600 22.670,43.600 23.000 C 43.600 23.330,43.330 23.600,43.000 23.600 C 42.670 23.600,42.400 23.870,42.400 24.200 C 42.400 24.536,42.043 24.800,41.587 24.800 C 41.141 24.800,40.671 25.070,40.545 25.400 C 40.418 25.730,40.129 26.000,39.903 26.000 C 39.677 26.000,39.075 26.450,38.565 27.000 C 38.055 27.550,37.450 28.000,37.219 28.000 C 36.989 28.000,36.800 28.270,36.800 28.600 C 36.800 28.930,36.530 29.200,36.200 29.200 C 35.870 29.200,35.600 29.393,35.600 29.629 C 35.600 30.182,34.582 31.200,34.029 31.200 C 33.793 31.200,33.600 31.470,33.600 31.800 C 33.600 32.130,33.330 32.400,33.000 32.400 C 32.670 32.400,32.400 32.670,32.400 33.000 C 32.400 33.330,32.130 33.600,31.800 33.600 C 31.470 33.600,31.200 33.793,31.200 34.029 C 31.200 34.582,30.182 35.600,29.629 35.600 C 29.393 35.600,29.200 35.870,29.200 36.200 C 29.200 36.530,28.930 36.800,28.600 36.800 C 28.270 36.800,28.000 36.989,28.000 37.219 C 28.000 37.450,27.550 38.055,27.000 38.565 C 26.450 39.075,26.000 39.595,26.000 39.721 C 26.000 39.847,25.460 40.542,24.800 41.264 C 24.140 41.987,23.600 42.808,23.600 43.089 C 23.600 43.370,23.330 43.600,23.000 43.600 C 22.670 43.600,22.400 43.870,22.400 44.200 C 22.400 44.530,22.220 44.800,22.000 44.800 C 21.780 44.800,21.600 45.250,21.600 45.800 C 21.600 46.422,21.373 46.800,21.000 46.800 C 20.670 46.800,20.400 47.070,20.400 47.400 C 20.400 47.730,20.130 48.000,19.800 48.000 C 19.462 48.000,19.200 48.358,19.200 48.819 C 19.200 49.270,18.750 50.055,18.200 50.565 C 17.650 51.075,17.200 51.792,17.200 52.158 C 17.200 52.525,16.930 52.929,16.600 53.055 C 16.270 53.182,16.000 53.514,16.000 53.794 C 16.000 54.073,15.730 54.526,15.400 54.800 C 15.070 55.074,14.800 55.617,14.800 56.006 C 14.800 56.396,14.530 56.818,14.200 56.945 C 13.870 57.071,13.600 57.541,13.600 57.987 C 13.600 58.434,13.420 58.800,13.200 58.800 C 12.980 58.800,12.800 59.340,12.800 60.000 C 12.800 60.800,12.600 61.200,12.200 61.200 C 11.827 61.200,11.600 61.578,11.600 62.200 C 11.600 62.822,11.373 63.200,11.000 63.200 C 10.600 63.200,10.400 63.600,10.400 64.400 C 10.400 65.200,10.200 65.600,9.800 65.600 C 9.431 65.600,9.200 65.975,9.200 66.576 C 9.200 67.113,9.020 67.664,8.800 67.800 C 8.580 67.936,8.400 68.582,8.400 69.236 C 8.400 69.924,8.147 70.522,7.800 70.655 C 7.470 70.782,7.200 71.329,7.200 71.871 C 7.200 72.414,6.930 73.127,6.600 73.457 C 6.270 73.787,6.000 74.569,6.000 75.195 C 6.000 75.821,5.808 76.397,5.574 76.475 C 5.340 76.553,5.046 77.378,4.922 78.309 C 4.797 79.239,4.538 80.000,4.347 80.000 C 4.156 80.000,4.000 80.971,4.000 82.157 C 4.000 83.706,3.831 84.379,3.400 84.545 C 2.966 84.711,2.800 85.391,2.800 87.000 C 2.800 88.609,2.634 89.289,2.200 89.455 C 1.756 89.626,1.600 90.330,1.600 92.163 C 1.600 93.525,1.405 94.835,1.167 95.073 C 0.176 96.064,0.028 106.957,0.014 179.700 L 0.000 256.000 38.900 255.994 C 60.295 255.991,77.991 255.856,78.224 255.694 C 78.458 255.532,79.342 254.230,80.189 252.800 C 96.671 224.978,135.612 217.396,161.600 236.950 C 193.811 261.186,186.554 307.501,148.227 322.287 C 146.232 323.056,144.468 323.892,144.306 324.143 C 144.144 324.394,144.009 341.565,144.006 362.300 L 144.000 400.000 204.000 400.000 L 264.000 400.000 264.000 362.974 C 264.000 325.379,263.962 324.400,262.521 324.400 C 262.163 324.400,259.964 323.749,257.635 322.954 C 220.825 310.381,210.077 267.492,237.210 241.449 C 244.162 234.776,257.298 227.600,262.561 227.600 C 263.931 227.600,264.000 226.279,264.000 200.000 C 264.000 173.428,263.943 172.400,262.475 172.400 C 259.479 172.400,248.403 167.363,243.123 163.601 C 212.254 141.602,216.069 97.261,250.312 80.044 C 278.194 66.025,313.259 77.373,325.776 104.466 C 326.549 106.139,327.470 107.618,327.823 107.754 C 328.876 108.158,398.937 108.028,399.581 107.620 C 400.277 107.180,399.607 95.847,398.839 95.079 C 398.598 94.838,398.400 93.525,398.400 92.163 C 398.400 90.330,398.244 89.626,397.800 89.455 C 397.366 89.289,397.200 88.609,397.200 87.000 C 397.200 85.391,397.034 84.711,396.600 84.545 C 396.181 84.384,396.000 83.731,396.000 82.381 C 396.000 81.317,395.820 80.336,395.600 80.200 C 395.380 80.064,395.200 79.458,395.200 78.853 C 395.200 78.248,394.936 77.404,394.613 76.976 C 394.290 76.549,394.020 75.727,394.013 75.149 C 394.006 74.571,393.730 73.874,393.400 73.600 C 393.070 73.326,392.800 72.603,392.800 71.994 C 392.800 71.378,392.534 70.783,392.200 70.655 C 391.849 70.521,391.600 69.921,391.600 69.213 C 391.600 68.546,391.420 68.000,391.200 68.000 C 390.980 68.000,390.800 67.653,390.800 67.229 C 390.800 66.804,390.530 66.187,390.200 65.857 C 389.870 65.527,389.600 64.794,389.600 64.229 C 389.600 63.581,389.378 63.200,389.000 63.200 C 388.627 63.200,388.400 62.822,388.400 62.200 C 388.400 61.578,388.173 61.200,387.800 61.200 C 387.400 61.200,387.200 60.800,387.200 60.000 C 387.200 59.340,387.040 58.800,386.843 58.800 C 386.647 58.800,386.374 58.350,386.236 57.800 C 386.098 57.250,385.808 56.800,385.592 56.800 C 385.377 56.800,385.200 56.595,385.200 56.344 C 385.200 56.093,384.885 55.630,384.500 55.314 C 384.115 54.999,384.008 54.844,384.263 54.971 C 384.613 55.145,384.613 54.958,384.263 54.204 C 384.008 53.655,383.575 53.205,383.300 53.203 C 383.025 53.201,382.800 52.750,382.800 52.200 C 382.800 51.650,382.620 51.200,382.400 51.200 C 382.180 51.200,382.000 50.930,382.000 50.600 C 382.000 50.270,381.816 50.000,381.590 50.000 C 381.365 50.000,381.009 49.550,380.800 49.000 C 380.591 48.450,380.235 48.000,380.010 48.000 C 379.784 48.000,379.600 47.730,379.600 47.400 C 379.600 47.070,379.330 46.800,379.000 46.800 C 378.670 46.800,378.400 46.566,378.400 46.280 C 378.400 45.361,377.416 43.606,376.900 43.603 C 376.625 43.601,376.400 43.330,376.400 43.000 C 376.400 42.670,376.130 42.400,375.800 42.400 C 375.470 42.400,375.200 42.124,375.200 41.787 C 375.200 41.451,374.930 41.071,374.600 40.945 C 374.270 40.818,374.000 40.439,374.000 40.103 C 374.000 39.767,373.550 39.075,373.000 38.565 C 372.450 38.055,372.000 37.450,372.000 37.219 C 372.000 36.989,371.826 36.800,371.614 36.800 C 371.091 36.800,368.800 34.531,368.800 34.013 C 368.800 33.786,368.530 33.600,368.200 33.600 C 367.870 33.600,367.600 33.330,367.600 33.000 C 367.600 32.670,367.330 32.400,367.000 32.400 C 366.670 32.400,366.400 32.130,366.400 31.800 C 366.400 31.470,366.214 31.200,365.987 31.200 C 365.469 31.200,363.200 28.909,363.200 28.386 C 363.200 28.174,363.011 28.000,362.781 28.000 C 362.550 28.000,361.945 27.550,361.435 27.000 C 360.925 26.450,360.233 26.000,359.897 26.000 C 359.561 26.000,359.182 25.730,359.055 25.400 C 358.929 25.070,358.549 24.800,358.213 24.800 C 357.876 24.800,357.600 24.530,357.600 24.200 C 357.600 23.870,357.330 23.600,357.000 23.600 C 356.670 23.600,356.400 23.419,356.400 23.199 C 356.400 22.978,355.680 22.486,354.800 22.104 C 353.920 21.723,353.200 21.184,353.200 20.906 C 353.200 20.628,352.949 20.400,352.643 20.400 C 352.336 20.400,351.982 20.130,351.855 19.800 C 351.729 19.470,351.259 19.200,350.813 19.200 C 350.357 19.200,350.000 18.936,350.000 18.600 C 350.000 18.270,349.730 18.000,349.400 18.000 C 349.070 18.000,348.800 17.820,348.800 17.600 C 348.800 17.380,348.350 17.200,347.800 17.200 C 347.178 17.200,346.800 16.973,346.800 16.600 C 346.800 16.225,346.421 16.000,345.787 16.000 C 345.231 16.000,344.671 15.730,344.545 15.400 C 344.418 15.070,344.064 14.800,343.757 14.800 C 343.451 14.800,343.200 14.623,343.200 14.408 C 343.200 14.192,342.750 13.902,342.200 13.764 C 341.650 13.626,341.200 13.353,341.200 13.157 C 341.200 12.960,340.660 12.800,340.000 12.800 C 339.200 12.800,338.800 12.600,338.800 12.200 C 338.800 11.834,338.427 11.600,337.843 11.600 C 337.316 11.600,336.782 11.330,336.655 11.000 C 336.529 10.670,336.047 10.400,335.584 10.400 C 335.121 10.400,334.473 10.130,334.143 9.800 C 333.813 9.470,333.206 9.200,332.795 9.200 C 332.384 9.200,331.936 9.020,331.800 8.800 C 331.664 8.580,331.043 8.400,330.419 8.400 C 329.781 8.400,329.185 8.138,329.055 7.800 C 328.924 7.457,328.327 7.200,327.662 7.200 C 327.022 7.200,326.274 6.930,326.000 6.600 C 325.726 6.270,325.061 6.000,324.522 6.000 C 323.984 6.000,323.273 5.730,322.943 5.400 C 322.613 5.070,321.826 4.800,321.195 4.800 C 320.564 4.800,319.936 4.620,319.800 4.400 C 319.664 4.180,318.683 4.000,317.619 4.000 C 316.269 4.000,315.616 3.819,315.455 3.400 C 315.290 2.969,314.616 2.800,313.062 2.800 C 311.626 2.800,310.730 2.598,310.400 2.200 C 310.064 1.796,309.162 1.600,307.631 1.600 C 306.382 1.600,305.170 1.410,304.938 1.178 C 303.947 0.187,291.303 0.018,217.500 0.009 L 140.000 0.000 140.000 37.026 C 140.000 74.292,140.048 75.600,141.409 75.600 C 145.750 75.600,158.201 81.861,164.400 87.160 C 200.672 118.171,177.118 173.891,127.800 173.742 C 80.400 173.600,56.265 121.123,89.085 89.563 C 96.037 82.878,109.315 75.600,114.558 75.600 C 115.957 75.600,116.000 74.448,116.000 37.026 L 116.000 0.000 109.700 0.070 C 106.235 0.109,101.762 0.244,99.759 0.370 M328.891 136.335 C 328.611 136.513,327.874 138.085,327.255 139.829 C 322.412 153.453,310.688 164.860,295.600 170.627 C 293.950 171.258,292.468 171.960,292.306 172.187 C 291.918 172.733,291.924 227.262,292.313 227.873 C 292.479 228.133,293.511 228.645,294.607 229.010 C 340.766 244.373,341.404 306.570,295.568 322.584 C 293.960 323.146,292.502 323.830,292.328 324.103 C 292.154 324.376,292.009 341.565,292.006 362.300 L 292.000 400.000 294.300 399.990 C 297.963 399.973,304.516 399.244,304.957 398.803 C 305.179 398.581,306.481 398.400,307.851 398.400 C 309.490 398.400,310.541 398.202,310.921 397.822 C 311.242 397.500,312.413 397.202,313.560 397.150 C 314.694 397.098,315.819 396.818,316.060 396.528 C 316.301 396.238,317.286 396.000,318.249 396.000 C 319.212 396.000,320.000 395.840,320.000 395.645 C 320.000 395.341,321.372 394.934,323.100 394.727 C 323.375 394.694,323.600 394.517,323.600 394.333 C 323.600 394.150,324.121 394.000,324.757 394.000 C 325.417 394.000,326.013 393.742,326.145 393.400 C 326.287 393.028,326.896 392.800,327.745 392.800 C 328.593 392.800,329.202 392.572,329.345 392.200 C 329.478 391.853,330.076 391.600,330.764 391.600 C 331.418 391.600,332.064 391.420,332.200 391.200 C 332.336 390.980,332.802 390.800,333.236 390.800 C 333.670 390.800,334.129 390.530,334.255 390.200 C 334.387 389.858,334.983 389.600,335.643 389.600 C 336.405 389.600,336.800 389.395,336.800 389.000 C 336.800 388.627,337.178 388.400,337.800 388.400 C 338.422 388.400,338.800 388.173,338.800 387.800 C 338.800 387.400,339.200 387.200,340.000 387.200 C 340.660 387.200,341.200 387.041,341.200 386.847 C 341.200 386.652,341.515 386.388,341.900 386.258 C 342.833 385.945,344.058 385.138,344.720 384.400 C 345.042 384.041,345.150 384.013,344.988 384.330 C 344.634 385.019,346.433 384.060,346.920 383.300 C 347.096 383.025,347.525 382.800,347.874 382.800 C 348.223 382.800,348.925 382.350,349.435 381.800 C 349.945 381.250,350.730 380.800,351.181 380.800 C 351.642 380.800,352.000 380.538,352.000 380.200 C 352.000 379.870,352.270 379.600,352.600 379.600 C 352.930 379.600,353.200 379.330,353.200 379.000 C 353.200 378.470,353.953 378.193,354.930 378.363 C 355.111 378.394,355.145 378.235,355.006 378.010 C 354.864 377.781,355.116 377.600,355.576 377.600 C 356.042 377.600,356.400 377.339,356.400 377.000 C 356.400 376.670,356.670 376.400,357.000 376.400 C 357.330 376.400,357.600 376.130,357.600 375.800 C 357.600 375.464,357.957 375.200,358.413 375.200 C 358.859 375.200,359.329 374.930,359.455 374.600 C 359.582 374.270,359.871 374.000,360.097 374.000 C 360.323 374.000,360.925 373.550,361.435 373.000 C 361.945 372.450,362.550 372.000,362.781 372.000 C 363.011 372.000,363.200 371.826,363.200 371.614 C 363.200 371.091,365.469 368.800,365.987 368.800 C 366.214 368.800,366.400 368.530,366.400 368.200 C 366.400 367.870,366.670 367.600,367.000 367.600 C 367.330 367.600,367.600 367.330,367.600 367.000 C 367.600 366.670,367.870 366.400,368.200 366.400 C 368.530 366.400,368.800 366.130,368.800 365.800 C 368.800 365.470,368.980 365.200,369.200 365.200 C 369.420 365.200,369.600 364.919,369.600 364.576 C 369.600 364.233,369.781 364.065,370.003 364.202 C 370.224 364.339,370.514 364.169,370.646 363.825 C 370.778 363.481,371.136 363.200,371.443 363.200 C 371.749 363.200,372.000 363.011,372.000 362.781 C 372.000 362.550,372.450 361.945,373.000 361.435 C 373.550 360.925,374.000 360.124,374.000 359.654 C 374.000 359.162,374.254 358.800,374.600 358.800 C 374.930 358.800,375.200 358.530,375.200 358.200 C 375.200 357.870,375.470 357.600,375.800 357.600 C 376.130 357.600,376.400 357.330,376.400 357.000 C 376.400 356.670,376.681 356.400,377.024 356.400 C 377.367 356.400,377.549 356.240,377.428 356.045 C 377.307 355.850,377.477 355.468,377.804 355.196 C 378.132 354.924,378.400 354.364,378.400 353.951 C 378.400 353.538,378.670 353.200,379.000 353.200 C 379.330 353.200,379.600 352.949,379.600 352.643 C 379.600 352.336,379.870 351.982,380.200 351.855 C 380.530 351.729,380.800 351.259,380.800 350.813 C 380.800 350.357,381.064 350.000,381.400 350.000 C 381.730 350.000,382.000 349.730,382.000 349.400 C 382.000 349.070,382.180 348.800,382.400 348.800 C 382.620 348.800,382.800 348.350,382.800 347.800 C 382.800 347.250,383.025 346.799,383.300 346.797 C 383.575 346.795,384.008 346.345,384.263 345.796 C 384.613 345.042,384.613 344.855,384.263 345.029 C 384.008 345.156,384.115 345.001,384.500 344.686 C 384.885 344.370,385.200 343.907,385.200 343.656 C 385.200 343.405,385.377 343.200,385.592 343.200 C 385.808 343.200,386.098 342.750,386.236 342.200 C 386.374 341.650,386.647 341.200,386.843 341.200 C 387.040 341.200,387.200 340.660,387.200 340.000 C 387.200 339.200,387.400 338.800,387.800 338.800 C 388.173 338.800,388.400 338.422,388.400 337.800 C 388.400 337.178,388.627 336.800,389.000 336.800 C 389.378 336.800,389.600 336.419,389.600 335.771 C 389.600 335.206,389.870 334.473,390.200 334.143 C 390.530 333.813,390.800 333.196,390.800 332.771 C 390.800 332.347,390.980 332.000,391.200 332.000 C 391.420 332.000,391.600 331.454,391.600 330.787 C 391.600 330.079,391.849 329.479,392.200 329.345 C 392.534 329.217,392.800 328.622,392.800 328.006 C 392.800 327.397,393.070 326.674,393.400 326.400 C 393.730 326.126,394.006 325.429,394.013 324.851 C 394.020 324.273,394.290 323.451,394.613 323.024 C 394.936 322.596,395.200 321.752,395.200 321.147 C 395.200 320.542,395.380 319.936,395.600 319.800 C 395.820 319.664,396.000 318.683,396.000 317.619 C 396.000 316.269,396.181 315.616,396.600 315.455 C 397.031 315.290,397.200 314.616,397.200 313.062 C 397.200 311.739,397.409 310.725,397.737 310.452 C 398.070 310.176,398.307 308.984,398.361 307.316 C 398.409 305.835,398.631 304.404,398.854 304.135 C 399.807 302.987,399.976 289.642,399.988 214.900 L 400.000 136.000 364.700 136.006 C 345.285 136.009,329.171 136.158,328.891 136.335 M0.007 290.300 C 0.014 297.176,0.583 303.943,1.206 304.566 C 1.423 304.783,1.600 306.171,1.600 307.651 C 1.600 309.510,1.786 310.528,2.200 310.943 C 2.533 311.276,2.800 312.254,2.800 313.143 C 2.800 314.032,3.067 315.010,3.400 315.343 C 3.776 315.718,4.000 316.702,4.000 317.971 C 4.000 319.087,4.156 320.000,4.347 320.000 C 4.538 320.000,4.797 320.761,4.922 321.691 C 5.046 322.622,5.340 323.447,5.574 323.525 C 5.808 323.603,6.000 324.170,6.000 324.784 C 6.000 325.399,6.270 326.126,6.600 326.400 C 6.930 326.674,7.200 327.397,7.200 328.006 C 7.200 328.622,7.466 329.217,7.800 329.345 C 8.147 329.478,8.400 330.076,8.400 330.764 C 8.400 331.418,8.580 332.064,8.800 332.200 C 9.020 332.336,9.200 332.802,9.200 333.236 C 9.200 333.670,9.470 334.129,9.800 334.255 C 10.142 334.387,10.400 334.983,10.400 335.643 C 10.400 336.405,10.605 336.800,11.000 336.800 C 11.373 336.800,11.600 337.178,11.600 337.800 C 11.600 338.422,11.827 338.800,12.200 338.800 C 12.600 338.800,12.800 339.200,12.800 340.000 C 12.800 340.660,12.980 341.200,13.200 341.200 C 13.420 341.200,13.600 341.566,13.600 342.013 C 13.600 342.459,13.870 342.929,14.200 343.055 C 14.530 343.182,14.800 343.471,14.800 343.699 C 14.800 343.926,15.115 344.370,15.500 344.686 C 15.885 345.001,15.992 345.156,15.737 345.029 C 15.387 344.855,15.387 345.042,15.737 345.796 C 15.992 346.345,16.425 346.795,16.700 346.797 C 16.975 346.799,17.200 347.250,17.200 347.800 C 17.200 348.350,17.380 348.800,17.600 348.800 C 17.820 348.800,18.000 349.051,18.000 349.357 C 18.000 349.664,18.270 350.018,18.600 350.145 C 18.930 350.271,19.200 350.741,19.200 351.187 C 19.200 351.643,19.464 352.000,19.800 352.000 C 20.130 352.000,20.400 352.270,20.400 352.600 C 20.400 352.930,20.670 353.200,21.000 353.200 C 21.330 353.200,21.600 353.434,21.600 353.720 C 21.600 354.639,22.584 356.394,23.100 356.397 C 23.375 356.399,23.600 356.670,23.600 357.000 C 23.600 357.330,23.870 357.600,24.200 357.600 C 24.530 357.600,24.800 357.870,24.800 358.200 C 24.800 358.530,24.991 358.800,25.224 358.800 C 25.457 358.800,25.536 358.980,25.400 359.200 C 25.264 359.420,25.343 359.600,25.576 359.600 C 25.809 359.600,26.000 359.804,26.000 360.054 C 26.000 360.304,26.450 360.925,27.000 361.435 C 27.550 361.945,28.000 362.550,28.000 362.781 C 28.000 363.011,28.174 363.200,28.386 363.200 C 28.909 363.200,31.200 365.469,31.200 365.987 C 31.200 366.214,31.470 366.400,31.800 366.400 C 32.130 366.400,32.400 366.670,32.400 367.000 C 32.400 367.330,32.670 367.600,33.000 367.600 C 33.330 367.600,33.600 367.870,33.600 368.200 C 33.600 368.530,33.786 368.800,34.013 368.800 C 34.531 368.800,36.800 371.091,36.800 371.614 C 36.800 371.826,36.989 372.000,37.219 372.000 C 37.450 372.000,38.055 372.450,38.565 373.000 C 39.075 373.550,39.677 374.000,39.903 374.000 C 40.129 374.000,40.418 374.270,40.545 374.600 C 40.671 374.930,41.141 375.200,41.587 375.200 C 42.043 375.200,42.400 375.464,42.400 375.800 C 42.400 376.130,42.670 376.400,43.000 376.400 C 43.330 376.400,43.601 376.625,43.603 376.900 C 43.606 377.416,45.361 378.400,46.280 378.400 C 46.566 378.400,46.800 378.670,46.800 379.000 C 46.800 379.330,47.070 379.600,47.400 379.600 C 47.730 379.600,48.000 379.870,48.000 380.200 C 48.000 380.536,48.357 380.800,48.813 380.800 C 49.259 380.800,49.729 381.070,49.855 381.400 C 49.982 381.730,50.336 382.000,50.643 382.000 C 50.949 382.000,51.200 382.180,51.200 382.400 C 51.200 382.620,51.650 382.800,52.200 382.800 C 52.750 382.800,53.201 383.025,53.203 383.300 C 53.205 383.575,53.655 384.008,54.204 384.263 C 54.958 384.613,55.145 384.613,54.971 384.263 C 54.844 384.008,54.999 384.115,55.314 384.500 C 55.630 384.885,56.093 385.200,56.344 385.200 C 56.595 385.200,56.800 385.377,56.800 385.592 C 56.800 385.808,57.250 386.098,57.800 386.236 C 58.350 386.374,58.800 386.647,58.800 386.843 C 58.800 387.040,59.340 387.200,60.000 387.200 C 60.800 387.200,61.200 387.400,61.200 387.800 C 61.200 388.173,61.578 388.400,62.200 388.400 C 62.822 388.400,63.200 388.627,63.200 389.000 C 63.200 389.395,63.595 389.600,64.357 389.600 C 65.017 389.600,65.613 389.858,65.745 390.200 C 65.871 390.530,66.330 390.800,66.764 390.800 C 67.198 390.800,67.664 390.980,67.800 391.200 C 67.936 391.420,68.582 391.600,69.236 391.600 C 69.924 391.600,70.522 391.853,70.655 392.200 C 70.782 392.530,71.329 392.800,71.871 392.800 C 72.414 392.800,73.127 393.070,73.457 393.400 C 73.787 393.730,74.539 394.006,75.129 394.013 C 75.718 394.020,76.549 394.290,76.976 394.613 C 77.404 394.936,78.259 395.200,78.876 395.200 C 79.494 395.200,80.000 395.380,80.000 395.600 C 80.000 395.820,80.788 396.000,81.751 396.000 C 82.820 396.000,83.696 396.234,84.000 396.600 C 84.320 396.985,85.206 397.200,86.478 397.200 C 87.704 397.200,88.685 397.428,89.057 397.800 C 89.462 398.205,90.467 398.400,92.149 398.400 C 93.519 398.400,94.833 398.593,95.069 398.829 C 95.607 399.367,102.408 399.883,110.102 399.968 L 116.004 400.033 115.902 362.560 C 115.813 329.721,115.726 325.050,115.200 324.785 C 114.870 324.619,112.826 323.923,110.657 323.240 C 93.505 317.837,79.500 303.756,75.607 288.000 C 75.363 287.010,74.969 285.705,74.733 285.100 L 74.303 284.000 37.151 284.000 L 0.000 284.000 0.007 290.300 " stroke="none" fill="#6361ec" fill-rule="evenodd"></path></g></svg>