<svg width="16" height="16" xmlns="http://www.w3.org/2000/svg">
 <g>
  <title>Layer 1</title>
  <g stroke="null">
   <path stroke="null" d="m8.0002,14.33834c-0.16548,0 -1.37445,-0.96646 -1.6084,-1.24249c-0.18438,0.28174 -0.48644,0.60128 -0.48644,0.60128c-0.83451,-0.42082 -1.90083,-1.51496 -2.10197,-1.89798c-0.19793,-0.37767 -0.91654,-4.7264 -0.93579,-5.98922c-0.02568,-0.71076 0.44186,-2.15154 5.1326,-2.15154c4.6911,0 5.15792,1.44078 5.13296,2.15154c-0.0189,1.26282 -0.73715,5.61155 -0.93579,5.98922c-0.20114,0.38302 -1.26746,1.47751 -2.10197,1.89798c0,0 -0.30206,-0.31954 -0.48644,-0.60128c-0.23395,0.27567 -1.44328,1.24249 -1.6084,1.24249l-0.00036,0z" fill="#1EBCA1"/>
   <path stroke="null" d="m8.00055,11.53809c-1.5656,0 -2.56487,-0.82738 -2.56487,-0.82738l0.14408,-2.01424l-1.64263,-0.14622l-0.29529,-2.38299l8.71815,0l-0.29565,2.38264l-1.64263,0.14657l0.14443,2.01424s-0.99927,0.82738 -2.56487,0.82738l-0.00071,0z" fill="#183134"/>
   <path stroke="null" d="m9.6225,7.22288l5.93002,-2.05276c-0.35271,-2.11017 -2.20218,-3.67114 -2.20218,-3.67114l0,2.32486l-1.09842,0.28316l-0.68758,-0.82881l-0.58915,1.15904l-2.97428,0.76675l-2.97428,-0.76675l-0.58915,-1.15904l-0.68829,0.82881l-1.0977,-0.28316l0,-2.32486s-1.85126,1.56096 -2.20397,3.67114l5.93038,2.05311l-0.21148,2.82379c0.50606,0.12839 1.0385,0.25606 1.83379,0.25606c0.79528,0 1.32666,-0.12767 1.83307,-0.25606l-0.21148,-2.82379l0.00071,0l0,-0.00036z" fill="#4FF8D2"/>
  </g>
 </g>

</svg>