<svg version="1.2" xmlns="http://www.w3.org/2000/svg" viewBox="0 0 1532 1532" width="1532" height="1532">
	<title>download (7)-svg</title>
	<style>
		.s0 { fill: #fa4616 } 
	</style>
	<g id="Page-1">
		<path id="UiPath_Logo_full" fill-rule="evenodd" class="s0" d="m0 0h1532v1532h-1532zm159.3 1372.7h1213.4v-1213.4h-1213.4zm294.2-977.4v462.7c0 116.4 49 186.9 159.3 186.9 104.2 0 156.3-67.4 156.3-186.9v-462.7h159.3v462.7c0 211.4-116.4 337-318.7 337-196.1 0-312.5-125.6-312.5-337v-462.7zm680.2 95c-54.2 0-98-43.1-98-96.5 0-53.4 43.8-96.5 98-96.5 54.2 0 98.1 43.1 98.1 96.5 0 53.4-43.9 96.5-98.1 96.5zm-79.6 73.5h159.3v622h-159.3z"/>
	</g>
</svg>