<?xml version="1.0" encoding="iso-8859-1"?>
<!-- Uploaded to: SVG Repo, www.svgrepo.com, Generator: SVG Repo Mixer Tools -->
<!DOCTYPE svg PUBLIC "-//W3C//DTD SVG 1.1//EN" "http://www.w3.org/Graphics/SVG/1.1/DTD/svg11.dtd">
<svg height="16px" width="16px" version="1.1" id="Capa_1" xmlns="http://www.w3.org/2000/svg" xmlns:xlink="http://www.w3.org/1999/xlink"
	 viewBox="0 0 349.454 349.454" xml:space="preserve">
<path style="fill:#8B8FA3;" d="M347.258,169.425l-82.373-82.375c-2.929-2.929-7.678-2.929-10.606-0.001l-14.143,14.142
	c-1.407,1.407-2.197,3.314-2.197,5.304c0,1.989,0.79,3.896,2.196,5.303l45.429,45.43H63.892l45.429-45.428
	c1.406-1.406,2.196-3.314,2.196-5.303c0-1.989-0.79-3.897-2.196-5.303L95.178,87.05c-2.929-2.928-7.677-2.93-10.607,0L2.196,169.424
	C0.79,170.83,0,172.738,0,174.727s0.79,3.897,2.196,5.303l82.376,82.375c1.465,1.464,3.385,2.197,5.304,2.197
	c1.919,0,3.839-0.732,5.304-2.197l14.143-14.143c1.406-1.406,2.196-3.314,2.196-5.303c0-1.989-0.79-3.897-2.196-5.303l-45.43-45.429
	h221.672l-45.43,45.429c-1.406,1.406-2.196,3.314-2.196,5.303c0,1.989,0.79,3.897,2.196,5.303l14.143,14.143
	c1.407,1.407,3.314,2.197,5.304,2.197c1.989,0,3.897-0.79,5.304-2.197l82.373-82.374
	C350.186,177.102,350.186,172.353,347.258,169.425z"/>
</svg>