<?xml version="1.0" encoding="iso-8859-1"?>
<!-- Uploaded to: SVG Repo, www.svgrepo.com, Generator: SVG Repo Mixer Tools -->
<!DOCTYPE svg PUBLIC "-//W3C//DTD SVG 1.1//EN" "http://www.w3.org/Graphics/SVG/1.1/DTD/svg11.dtd">
<svg height="16px" width="16px" version="1.1" id="Capa_1" xmlns="http://www.w3.org/2000/svg" xmlns:xlink="http://www.w3.org/1999/xlink" 
	 viewBox="0 0 349.455 349.455" xml:space="preserve">
<path style="fill:#8B8FA3;" d="M248.263,240.135c-1.407-1.407-3.314-2.197-5.304-2.197c-1.989,0-3.896,0.79-5.304,2.197
	l-45.429,45.429l0.001-221.673l45.428,45.429c1.407,1.407,3.314,2.197,5.304,2.197c1.989,0,3.896-0.79,5.304-2.197l14.143-14.143
	c1.406-1.406,2.196-3.314,2.196-5.303c0-1.989-0.79-3.897-2.196-5.303L180.032,2.197C178.625,0.79,176.717,0,174.728,0
	c-1.989,0-3.896,0.79-5.304,2.197L87.049,84.573c-1.406,1.407-2.196,3.314-2.196,5.303c0,1.989,0.79,3.897,2.197,5.304
	l14.143,14.142c1.464,1.464,3.384,2.196,5.303,2.196c1.919,0,3.839-0.732,5.304-2.197l45.429-45.43l-0.001,221.673l-45.428-45.429
	c-1.407-1.407-3.314-2.197-5.304-2.197c-1.989,0-3.896,0.79-5.304,2.197l-14.143,14.143c-1.406,1.406-2.196,3.314-2.196,5.303
	c0,1.989,0.79,3.897,2.196,5.303l82.374,82.374c1.465,1.464,3.385,2.197,5.304,2.197c1.919,0,3.839-0.733,5.304-2.197l82.375-82.375
	c1.406-1.406,2.196-3.314,2.196-5.303c0-1.989-0.79-3.897-2.196-5.303L248.263,240.135z"/>
</svg>