<svg width="48" height="48" viewBox="0 0 48 48" fill="none" xmlns="http://www.w3.org/2000/svg">
<path d="M42 24C42 33.9411 33.9411 42 24 42C14.0589 42 6 33.9411 6 24C6 14.0589 14.0589 6 24 6C33.9411 6 42 14.0589 42 24Z" fill="#E8E8E8"/>
<path fill-rule="evenodd" clip-rule="evenodd" d="M24 7.5C14.8873 7.5 7.5 14.8873 7.5 24C7.5 33.1127 14.8873 40.5 24 40.5C33.1127 40.5 40.5 33.1127 40.5 24C40.5 14.8873 33.1127 7.5 24 7.5ZM4.5 24C4.5 13.2304 13.2304 4.5 24 4.5C34.7696 4.5 43.5 13.2304 43.5 24C43.5 34.7696 34.7696 43.5 24 43.5C13.2304 43.5 4.5 34.7696 4.5 24Z" fill="#B480DE"/>
<path d="M14 16.4004C14 15.2958 14.8954 14.4004 16 14.4004H20C21.1046 14.4004 22 15.2958 22 16.4004V20.4004C22 21.505 21.1046 22.4004 20 22.4004H16C14.8954 22.4004 14 21.505 14 20.4004V16.4004Z" fill="#E8E8E8"/>
<path fill-rule="evenodd" clip-rule="evenodd" d="M13 16.4004C13 14.7435 14.3431 13.4004 16 13.4004H20C21.6569 13.4004 23 14.7435 23 16.4004V20.4004C23 22.0572 21.6569 23.4004 20 23.4004H16C14.3431 23.4004 13 22.0572 13 20.4004V16.4004ZM16 15.4004C15.4477 15.4004 15 15.8481 15 16.4004V20.4004C15 20.9527 15.4477 21.4004 16 21.4004H20C20.5523 21.4004 21 20.9527 21 20.4004V16.4004C21 15.8481 20.5523 15.4004 20 15.4004H16Z" fill="#B480DE"/>
<path d="M26 16.4004C26 15.2958 26.8954 14.4004 28 14.4004H32C33.1046 14.4004 34 15.2958 34 16.4004V20.4004C34 21.505 33.1046 22.4004 32 22.4004H28C26.8954 22.4004 26 21.505 26 20.4004V16.4004Z" fill="#E8E8E8"/>
<path fill-rule="evenodd" clip-rule="evenodd" d="M25 16.4004C25 14.7435 26.3431 13.4004 28 13.4004H32C33.6569 13.4004 35 14.7435 35 16.4004V20.4004C35 22.0572 33.6569 23.4004 32 23.4004H28C26.3431 23.4004 25 22.0572 25 20.4004V16.4004ZM28 15.4004C27.4477 15.4004 27 15.8481 27 16.4004V20.4004C27 20.9527 27.4477 21.4004 28 21.4004H32C32.5523 21.4004 33 20.9527 33 20.4004V16.4004C33 15.8481 32.5523 15.4004 32 15.4004H28Z" fill="#B480DE"/>
<path d="M26 28.4004C26 27.2958 26.8954 26.4004 28 26.4004H32C33.1046 26.4004 34 27.2958 34 28.4004V32.4004C34 33.505 33.1046 34.4004 32 34.4004H28C26.8954 34.4004 26 33.505 26 32.4004V28.4004Z" fill="#E8E8E8"/>
<path fill-rule="evenodd" clip-rule="evenodd" d="M25 28.4004C25 26.7435 26.3431 25.4004 28 25.4004H32C33.6569 25.4004 35 26.7435 35 28.4004V32.4004C35 34.0572 33.6569 35.4004 32 35.4004H28C26.3431 35.4004 25 34.0572 25 32.4004V28.4004ZM28 27.4004C27.4477 27.4004 27 27.8481 27 28.4004V32.4004C27 32.9527 27.4477 33.4004 28 33.4004H32C32.5523 33.4004 33 32.9527 33 32.4004V28.4004C33 27.8481 32.5523 27.4004 32 27.4004H28Z" fill="#B480DE"/>
<path d="M14 28.4004C14 27.2958 14.8954 26.4004 16 26.4004H20C21.1046 26.4004 22 27.2958 22 28.4004V32.4004C22 33.505 21.1046 34.4004 20 34.4004H16C14.8954 34.4004 14 33.505 14 32.4004V28.4004Z" fill="#E8E8E8"/>
<path fill-rule="evenodd" clip-rule="evenodd" d="M13 28.4004C13 26.7435 14.3431 25.4004 16 25.4004H20C21.6569 25.4004 23 26.7435 23 28.4004V32.4004C23 34.0572 21.6569 35.4004 20 35.4004H16C14.3431 35.4004 13 34.0572 13 32.4004V28.4004ZM16 27.4004C15.4477 27.4004 15 27.8481 15 28.4004V32.4004C15 32.9527 15.4477 33.4004 16 33.4004H20C20.5523 33.4004 21 32.9527 21 32.4004V28.4004C21 27.8481 20.5523 27.4004 20 27.4004H16Z" fill="#B480DE"/>
</svg>
