<svg width="24" height="24" viewBox="0 0 24 24" fill="none" xmlns="http://www.w3.org/2000/svg">
<g clip-path="url(#clip0_108_79966)">
<path d="M2 9.56155C2 8.64382 2.62459 7.84385 3.51493 7.62127L5.39236 7.15191C5.78798 7.053 6.14391 6.83553 6.41245 6.52863L8.90238 3.68299C9.28216 3.24896 9.83081 3 10.4075 3H12C13.1046 3 14 3.89543 14 5V19C14 20.1046 13.1046 21 12 21H10.4075C9.83081 21 9.28216 20.751 8.90238 20.317L6.41245 17.4714C6.14391 17.1645 5.78798 16.947 5.39236 16.8481L3.51493 16.3787C2.62459 16.1561 2 15.3562 2 14.4384V9.56155Z" stroke="black" stroke-width="1.5"/>
<path d="M19.1548 7C21.9251 9.7703 22.3123 14.3081 19.1548 17.3092" stroke="black" stroke-linecap="round"/>
<path d="M16.8901 9.69141C17.9927 10.9528 18.4655 12.844 16.8901 14.5782" stroke="black" stroke-linecap="round"/>
</g>
<defs>
<clipPath id="clip0_108_79966">
<rect width="24" height="24" fill="white"/>
</clipPath>
</defs>
</svg>
