<svg width="48" height="48" viewBox="0 0 48 48" fill="none" xmlns="http://www.w3.org/2000/svg">
<path d="M9.68652 19.7588C9.68652 18.3509 10.6447 17.1236 12.0107 16.7821L14.8909 16.062C15.4979 15.9103 16.0439 15.5767 16.4559 15.1058L20.2758 10.7402C20.8585 10.0743 21.7002 9.69238 22.585 9.69238H25.028C26.7226 9.69238 28.0964 11.0661 28.0964 12.7607V34.2388C28.0964 35.9334 26.7226 37.3071 25.028 37.3071H22.585C21.7002 37.3071 20.8585 36.9252 20.2758 36.2593L16.4559 31.8937C16.0439 31.4228 15.4979 31.0892 14.8909 30.9375L12.0107 30.2174C10.6447 29.8759 9.68652 28.6486 9.68652 27.2407V19.7588Z" fill="#E8E8E8"/>
<path fill-rule="evenodd" clip-rule="evenodd" d="M19.4101 9.98273C20.2113 9.06716 21.3686 8.54199 22.5852 8.54199H25.0283C27.3583 8.54199 29.2472 10.4309 29.2472 12.7609V34.239C29.2472 36.5691 27.3583 38.458 25.0283 38.458H22.5852C21.3686 38.458 20.2113 37.9328 19.4101 37.0172L15.5902 32.6516C15.3327 32.3573 14.9914 32.1488 14.6121 32.0539L11.7318 31.3339C9.85369 30.8643 8.53613 29.1769 8.53613 27.2409V19.759C8.53613 17.8231 9.85369 16.1356 11.7318 15.6661L14.6121 14.946C14.9914 14.8512 15.3327 14.6426 15.5902 14.3484L19.4101 9.98273ZM22.5852 10.8432C22.0322 10.8432 21.5061 11.0819 21.142 11.4981L17.322 15.8638C16.7556 16.5111 16.0048 16.9699 15.1702 17.1785L12.2899 17.8986C11.4363 18.112 10.8374 18.8791 10.8374 19.759V27.2409C10.8374 28.1209 11.4363 28.8879 12.2899 29.1014L15.1702 29.8214C16.0048 30.0301 16.7556 30.4888 17.322 31.1362L21.142 35.5019C21.5061 35.918 22.0322 36.1567 22.5852 36.1567H25.0283C26.0874 36.1567 26.946 35.2982 26.946 34.239V12.7609C26.946 11.7018 26.0874 10.8432 25.0283 10.8432H22.5852Z" fill="#B480DE"/>
<path fill-rule="evenodd" clip-rule="evenodd" d="M35.4615 15.2865C35.7611 14.987 36.2467 14.987 36.5463 15.2865C41.0604 19.8006 41.7294 27.2612 36.5324 32.2008C36.2253 32.4927 35.7398 32.4804 35.4479 32.1733C35.156 31.8662 35.1684 31.3807 35.4754 31.0888C39.9665 26.8202 39.4475 20.3574 35.4615 16.3714C35.1619 16.0718 35.1619 15.5861 35.4615 15.2865Z" fill="#B480DE"/>
<path fill-rule="evenodd" clip-rule="evenodd" d="M32.0245 19.3813C32.3434 19.1025 32.828 19.1351 33.1068 19.4541C34.0364 20.5175 34.7303 21.8793 34.8352 23.3821C34.9415 24.9061 34.4354 26.4985 33.0971 27.9717C32.8122 28.2853 32.3271 28.3086 32.0135 28.0237C31.6999 27.7388 31.6767 27.2537 31.9615 26.9401C33.0401 25.7529 33.3798 24.5644 33.3047 23.4888C33.2282 22.3919 32.7138 21.3355 31.9518 20.4637C31.6729 20.1447 31.7055 19.6601 32.0245 19.3813Z" fill="#B480DE"/>
</svg>
