<svg width="48" height="48" viewBox="0 0 48 48" fill="none" xmlns="http://www.w3.org/2000/svg">
<g clip-path="url(#clip0_108_79970)">
<path d="M4.5 18.6231C4.5 16.7876 5.74919 15.1877 7.52986 14.7425L11.2847 13.8038C12.076 13.606 12.7878 13.1711 13.3249 12.5573L18.3048 6.86598C19.0643 5.99792 20.1616 5.5 21.3151 5.5H24.5C26.7091 5.5 28.5 7.29086 28.5 9.5V37.5C28.5 39.7091 26.7091 41.5 24.5 41.5H21.3151C20.1616 41.5 19.0643 41.0021 18.3048 40.134L13.3249 34.4427C12.7878 33.8289 12.076 33.394 11.2847 33.1962L7.52986 32.2575C5.74919 31.8123 4.5 30.2124 4.5 28.3769V18.6231Z" fill="#E8E8E8"/>
<path fill-rule="evenodd" clip-rule="evenodd" d="M17.1759 5.87822C18.2203 4.68464 19.7291 4 21.3151 4H24.5C27.5376 4 30 6.46243 30 9.5V37.5C30 40.5376 27.5376 43 24.5 43H21.3151C19.7291 43 18.2203 42.3154 17.1759 41.1218L12.196 35.4305C11.8604 35.0469 11.4154 34.775 10.9209 34.6514L7.16605 33.7127C4.71763 33.1006 3 30.9007 3 28.3769V18.6231C3 16.0993 4.71764 13.8994 7.16605 13.2873L10.9209 12.3486C11.4154 12.225 11.8604 11.9531 12.196 11.5695L17.1759 5.87822ZM21.3151 7C20.5942 7 19.9084 7.3112 19.4336 7.85374L14.4538 13.545C13.7153 14.389 12.7365 14.987 11.6485 15.259L7.89366 16.1977C6.78074 16.476 6 17.4759 6 18.6231V28.3769C6 29.5241 6.78074 30.524 7.89366 30.8022L11.6485 31.741C12.7365 32.013 13.7153 32.611 14.4538 33.455L19.4336 39.1463C19.9084 39.6888 20.5942 40 21.3151 40H24.5C25.8807 40 27 38.8807 27 37.5V9.5C27 8.11929 25.8807 7 24.5 7H21.3151Z" fill="#B480DE"/>
<path fill-rule="evenodd" clip-rule="evenodd" d="M38.1015 12.793C38.492 12.4025 39.1252 12.4025 39.5157 12.793C45.4005 18.6779 46.2726 28.4038 39.4975 34.8434C39.0972 35.2239 38.4643 35.2078 38.0838 34.8075C37.7033 34.4072 37.7194 33.7742 38.1197 33.3937C43.9744 27.8289 43.2979 19.4036 38.1015 14.2073C37.711 13.8167 37.711 13.1836 38.1015 12.793Z" fill="#B480DE"/>
<path fill-rule="evenodd" clip-rule="evenodd" d="M33.6212 18.1301C34.037 17.7666 34.6687 17.8091 35.0322 18.2249C36.244 19.6112 37.1487 21.3866 37.2853 23.3457C37.4239 25.3324 36.7642 27.4084 35.0195 29.329C34.6481 29.7378 34.0157 29.7681 33.6069 29.3968C33.1981 29.0254 33.1678 28.393 33.5391 27.9842C34.9452 26.4364 35.388 24.887 35.2902 23.4848C35.1905 22.0549 34.5198 20.6777 33.5264 19.5411C33.1629 19.1253 33.2054 18.4936 33.6212 18.1301Z" fill="#B480DE"/>
</g>
<defs>
<clipPath id="clip0_108_79970">
<rect width="48" height="48" fill="white"/>
</clipPath>
</defs>
</svg>
