<svg width="48" height="48" viewBox="0 0 48 48" fill="none" xmlns="http://www.w3.org/2000/svg">
<path fill-rule="evenodd" clip-rule="evenodd" d="M41.3584 15.5L33.3584 15.5L33.3584 12.5L41.3584 12.5L41.3584 15.5Z" fill="#B480DE"/>
<path fill-rule="evenodd" clip-rule="evenodd" d="M41.3584 39.5L33.3584 39.5L33.3584 36.5L41.3584 36.5L41.3584 39.5Z" fill="#B480DE"/>
<path fill-rule="evenodd" clip-rule="evenodd" d="M35.8584 38V14H38.8584V38H35.8584Z" fill="#B480DE"/>
<path d="M21.7592 12.4004L22.5738 15.1858L25.3592 16.0004L22.5738 16.815L21.7592 19.6004L20.9446 16.815L18.1592 16.0004L20.9446 15.1858L21.7592 12.4004Z" fill="#B480DE"/>
<path d="M15.7584 10L16.3015 11.8569L18.1584 12.4L16.3015 12.9431L15.7584 14.8L15.2153 12.9431L13.3584 12.4L15.2153 11.8569L15.7584 10Z" fill="#B480DE"/>
<path d="M33.0952 32.9441C33.0952 33.3174 32.9672 33.6214 32.7112 33.8561C32.4658 34.0907 32.1672 34.2081 31.8152 34.2081C31.4525 34.2081 31.1485 34.0907 30.9032 33.8561C30.6578 33.6214 30.5352 33.3174 30.5352 32.9441C30.5352 32.5707 30.6578 32.2667 30.9032 32.0321C31.1485 31.7867 31.4525 31.6641 31.8152 31.6641C32.1672 31.6641 32.4658 31.7867 32.7112 32.0321C32.9672 32.2667 33.0952 32.5707 33.0952 32.9441Z" fill="#B480DE"/>
<path d="M28.8452 32.9441C28.8452 33.3174 28.7172 33.6214 28.4612 33.8561C28.2158 34.0907 27.9172 34.2081 27.5652 34.2081C27.2025 34.2081 26.8985 34.0907 26.6532 33.8561C26.4078 33.6214 26.2852 33.3174 26.2852 32.9441C26.2852 32.5707 26.4078 32.2667 26.6532 32.0321C26.8985 31.7867 27.2025 31.6641 27.5652 31.6641C27.9172 31.6641 28.2158 31.7867 28.4612 32.0321C28.7172 32.2667 28.8452 32.5707 28.8452 32.9441Z" fill="#B480DE"/>
<path d="M22.6897 29.792C22.6897 28.9707 22.5244 28.32 22.1937 27.84C21.8737 27.36 21.3617 27.12 20.6577 27.12C20.3377 27.12 20.0337 27.168 19.7457 27.264C19.4684 27.36 19.2444 27.4667 19.0737 27.584V32.4C19.2124 32.432 19.3884 32.464 19.6017 32.496C19.8257 32.5173 20.0924 32.528 20.4017 32.528C21.1164 32.528 21.6764 32.288 22.0817 31.808C22.487 31.3173 22.6897 30.6453 22.6897 29.792ZM24.6737 29.824C24.6737 30.496 24.5724 31.104 24.3697 31.648C24.1777 32.1813 23.895 32.64 23.5217 33.024C23.159 33.408 22.7164 33.7013 22.1937 33.904C21.671 34.1067 21.079 34.208 20.4177 34.208C19.7777 34.208 19.1644 34.16 18.5777 34.064C18.0017 33.968 17.5217 33.8613 17.1377 33.744V21.904L19.0737 21.584V25.92C19.2977 25.8027 19.5697 25.696 19.8897 25.6C20.2204 25.504 20.583 25.456 20.9777 25.456C21.5644 25.456 22.087 25.5627 22.5457 25.776C23.015 25.9787 23.4044 26.272 23.7137 26.656C24.023 27.04 24.2577 27.504 24.4177 28.048C24.5884 28.5813 24.6737 29.1733 24.6737 29.824Z" fill="#B480DE"/>
<path d="M11.535 32.6398C12.1324 32.6398 12.5857 32.6078 12.895 32.5438V30.3998C12.7884 30.3678 12.6337 30.3358 12.431 30.3038C12.2284 30.2718 12.0044 30.2558 11.759 30.2558C11.5457 30.2558 11.327 30.2718 11.103 30.3038C10.8897 30.3358 10.6924 30.3945 10.511 30.4798C10.3404 30.5652 10.2017 30.6878 10.095 30.8478C9.98836 30.9972 9.93502 31.1892 9.93502 31.4238C9.93502 31.8825 10.079 32.2025 10.367 32.3838C10.655 32.5545 11.0444 32.6398 11.535 32.6398ZM11.375 25.4238C12.015 25.4238 12.5537 25.5038 12.991 25.6638C13.4284 25.8238 13.775 26.0478 14.031 26.3358C14.2977 26.6238 14.4844 26.9758 14.591 27.3918C14.7084 27.7972 14.767 28.2452 14.767 28.7358V33.8078C14.4684 33.8718 14.015 33.9465 13.407 34.0318C12.8097 34.1278 12.1324 34.1758 11.375 34.1758C10.8737 34.1758 10.415 34.1278 9.99902 34.0318C9.58302 33.9358 9.22569 33.7812 8.92702 33.5678C8.63902 33.3545 8.40969 33.0772 8.23902 32.7358C8.07902 32.3945 7.99902 31.9732 7.99902 31.4718C7.99902 30.9918 8.08969 30.5865 8.27102 30.2558C8.46302 29.9252 8.71902 29.6585 9.03902 29.4558C9.35902 29.2425 9.72702 29.0932 10.143 29.0078C10.5697 28.9118 11.0124 28.8638 11.471 28.8638C11.6844 28.8638 11.9084 28.8798 12.143 28.9118C12.3777 28.9332 12.6284 28.9758 12.895 29.0398V28.7198C12.895 28.4958 12.8684 28.2825 12.815 28.0798C12.7617 27.8772 12.6657 27.7012 12.527 27.5518C12.399 27.3918 12.223 27.2692 11.999 27.1838C11.7857 27.0985 11.5137 27.0558 11.183 27.0558C10.735 27.0558 10.3244 27.0878 9.95102 27.1518C9.57769 27.2158 9.27369 27.2905 9.03902 27.3758L8.79902 25.8078C9.04436 25.7225 9.40169 25.6372 9.87102 25.5518C10.3404 25.4665 10.8417 25.4238 11.375 25.4238Z" fill="#B480DE"/>
</svg>
