<svg width="24" height="24" viewBox="0 0 24 24" fill="none" xmlns="http://www.w3.org/2000/svg">
<path d="M17 6L21 6" stroke="black" stroke-width="1.5"/>
<path d="M17 18L21 18" stroke="black" stroke-width="1.5"/>
<path d="M19 6V18" stroke="black" stroke-width="1.5"/>
<path d="M11.1999 5.2002L11.6072 6.5929L12.9999 7.0002L11.6072 7.40749L11.1999 8.8002L10.7926 7.40749L9.3999 7.0002L10.7926 6.5929L11.1999 5.2002Z" fill="black"/>
<path d="M8.2 4L8.47153 4.92847L9.4 5.2L8.47153 5.47153L8.2 6.4L7.92847 5.47153L7 5.2L7.92847 4.92847L8.2 4Z" fill="black"/>
<path d="M6.088 15.32C6.38667 15.32 6.61333 15.304 6.768 15.272V14.2C6.71467 14.184 6.63733 14.168 6.536 14.152C6.43467 14.136 6.32267 14.128 6.2 14.128C6.09333 14.128 5.984 14.136 5.872 14.152C5.76533 14.168 5.66667 14.1973 5.576 14.24C5.49067 14.2827 5.42133 14.344 5.368 14.424C5.31467 14.4987 5.288 14.5947 5.288 14.712C5.288 14.9413 5.36 15.1013 5.504 15.192C5.648 15.2773 5.84267 15.32 6.088 15.32ZM6.008 11.712C6.328 11.712 6.59733 11.752 6.816 11.832C7.03467 11.912 7.208 12.024 7.336 12.168C7.46933 12.312 7.56267 12.488 7.616 12.696C7.67467 12.8987 7.704 13.1227 7.704 13.368V15.904C7.55467 15.936 7.328 15.9733 7.024 16.016C6.72533 16.064 6.38667 16.088 6.008 16.088C5.75733 16.088 5.528 16.064 5.32 16.016C5.112 15.968 4.93333 15.8907 4.784 15.784C4.64 15.6773 4.52533 15.5387 4.44 15.368C4.36 15.1973 4.32 14.9867 4.32 14.736C4.32 14.496 4.36533 14.2933 4.456 14.128C4.552 13.9627 4.68 13.8293 4.84 13.728C5 13.6213 5.184 13.5467 5.392 13.504C5.60533 13.456 5.82667 13.432 6.056 13.432C6.16267 13.432 6.27467 13.44 6.392 13.456C6.50933 13.4667 6.63467 13.488 6.768 13.52V13.36C6.768 13.248 6.75467 13.1413 6.728 13.04C6.70133 12.9387 6.65333 12.8507 6.584 12.776C6.52 12.696 6.432 12.6347 6.32 12.592C6.21333 12.5493 6.07733 12.528 5.912 12.528C5.688 12.528 5.48267 12.544 5.296 12.576C5.10933 12.608 4.95733 12.6453 4.84 12.688L4.72 11.904C4.84267 11.8613 5.02133 11.8187 5.256 11.776C5.49067 11.7333 5.74133 11.712 6.008 11.712ZM11.6654 13.896C11.6654 13.4853 11.5828 13.16 11.4174 12.92C11.2574 12.68 11.0014 12.56 10.6494 12.56C10.4894 12.56 10.3374 12.584 10.1934 12.632C10.0548 12.68 9.94277 12.7333 9.85744 12.792V15.2C9.92677 15.216 10.0148 15.232 10.1214 15.248C10.2334 15.2587 10.3668 15.264 10.5214 15.264C10.8788 15.264 11.1588 15.144 11.3614 14.904C11.5641 14.6587 11.6654 14.3227 11.6654 13.896ZM12.6574 13.912C12.6574 14.248 12.6068 14.552 12.5054 14.824C12.4094 15.0907 12.2681 15.32 12.0814 15.512C11.9001 15.704 11.6788 15.8507 11.4174 15.952C11.1561 16.0533 10.8601 16.104 10.5294 16.104C10.2094 16.104 9.90277 16.08 9.60944 16.032C9.32144 15.984 9.08144 15.9307 8.88944 15.872V9.952L9.85744 9.792V11.96C9.96944 11.9013 10.1054 11.848 10.2654 11.8C10.4308 11.752 10.6121 11.728 10.8094 11.728C11.1028 11.728 11.3641 11.7813 11.5934 11.888C11.8281 11.9893 12.0228 12.136 12.1774 12.328C12.3321 12.52 12.4494 12.752 12.5294 13.024C12.6148 13.2907 12.6574 13.5867 12.6574 13.912ZM14.7431 15.472C14.7431 15.6587 14.6791 15.8107 14.5511 15.928C14.4284 16.0453 14.2791 16.104 14.1031 16.104C13.9217 16.104 13.7697 16.0453 13.6471 15.928C13.5244 15.8107 13.4631 15.6587 13.4631 15.472C13.4631 15.2853 13.5244 15.1333 13.6471 15.016C13.7697 14.8933 13.9217 14.832 14.1031 14.832C14.2791 14.832 14.4284 14.8933 14.5511 15.016C14.6791 15.1333 14.7431 15.2853 14.7431 15.472ZM16.8681 15.472C16.8681 15.6587 16.8041 15.8107 16.6761 15.928C16.5534 16.0453 16.4041 16.104 16.2281 16.104C16.0467 16.104 15.8947 16.0453 15.7721 15.928C15.6494 15.8107 15.5881 15.6587 15.5881 15.472C15.5881 15.2853 15.6494 15.1333 15.7721 15.016C15.8947 14.8933 16.0467 14.832 16.2281 14.832C16.4041 14.832 16.5534 14.8933 16.6761 15.016C16.8041 15.1333 16.8681 15.2853 16.8681 15.472Z" fill="black"/>
</svg>
