<svg width="48" height="48" viewBox="0 0 48 48" fill="none" xmlns="http://www.w3.org/2000/svg">
<path fill-rule="evenodd" clip-rule="evenodd" d="M41.999 13L33.999 13L33.999 11L41.999 11L41.999 13Z" fill="#B480DE"/>
<path fill-rule="evenodd" clip-rule="evenodd" d="M41.999 37L33.999 37L33.999 35L41.999 35L41.999 37Z" fill="#B480DE"/>
<path fill-rule="evenodd" clip-rule="evenodd" d="M36.999 36V12H38.999V36H36.999Z" fill="#B480DE"/>
<path d="M22.3998 10.4004L23.2144 13.1858L25.9998 14.0004L23.2144 14.815L22.3998 17.6004L21.5852 14.815L18.7998 14.0004L21.5852 13.1858L22.3998 10.4004Z" fill="#B480DE"/>
<path d="M16.399 8L16.9421 9.85694L18.799 10.4L16.9421 10.9431L16.399 12.8L15.856 10.9431L13.999 10.4L15.856 9.85694L16.399 8Z" fill="#B480DE"/>
<path d="M33.7358 30.9441C33.7358 31.3174 33.6078 31.6214 33.3518 31.8561C33.1064 32.0907 32.8078 32.2081 32.4558 32.2081C32.0931 32.2081 31.7891 32.0907 31.5438 31.8561C31.2984 31.6214 31.1758 31.3174 31.1758 30.9441C31.1758 30.5707 31.2984 30.2667 31.5438 30.0321C31.7891 29.7867 32.0931 29.6641 32.4558 29.6641C32.8078 29.6641 33.1064 29.7867 33.3518 30.0321C33.6078 30.2667 33.7358 30.5707 33.7358 30.9441Z" fill="#B480DE"/>
<path d="M29.4858 30.9441C29.4858 31.3174 29.3578 31.6214 29.1018 31.8561C28.8564 32.0907 28.5578 32.2081 28.2058 32.2081C27.8431 32.2081 27.5391 32.0907 27.2938 31.8561C27.0484 31.6214 26.9258 31.3174 26.9258 30.9441C26.9258 30.5707 27.0484 30.2667 27.2938 30.0321C27.5391 29.7867 27.8431 29.6641 28.2058 29.6641C28.5578 29.6641 28.8564 29.7867 29.1018 30.0321C29.3578 30.2667 29.4858 30.5707 29.4858 30.9441Z" fill="#B480DE"/>
<path d="M23.3303 27.792C23.3303 26.9707 23.165 26.32 22.8343 25.84C22.5143 25.36 22.0023 25.12 21.2983 25.12C20.9783 25.12 20.6743 25.168 20.3863 25.264C20.109 25.36 19.885 25.4667 19.7143 25.584V30.4C19.853 30.432 20.029 30.464 20.2423 30.496C20.4663 30.5173 20.733 30.528 21.0423 30.528C21.757 30.528 22.317 30.288 22.7223 29.808C23.1277 29.3173 23.3303 28.6453 23.3303 27.792ZM25.3143 27.824C25.3143 28.496 25.213 29.104 25.0103 29.648C24.8183 30.1813 24.5357 30.64 24.1623 31.024C23.7997 31.408 23.357 31.7013 22.8343 31.904C22.3117 32.1067 21.7197 32.208 21.0583 32.208C20.4183 32.208 19.805 32.16 19.2183 32.064C18.6423 31.968 18.1623 31.8613 17.7783 31.744V19.904L19.7143 19.584V23.92C19.9383 23.8027 20.2103 23.696 20.5303 23.6C20.861 23.504 21.2237 23.456 21.6183 23.456C22.205 23.456 22.7277 23.5627 23.1863 23.776C23.6557 23.9787 24.045 24.272 24.3543 24.656C24.6637 25.04 24.8983 25.504 25.0583 26.048C25.229 26.5813 25.3143 27.1733 25.3143 27.824Z" fill="#B480DE"/>
<path d="M12.1756 30.6398C12.773 30.6398 13.2263 30.6078 13.5356 30.5438V28.3998C13.429 28.3678 13.2743 28.3358 13.0716 28.3038C12.869 28.2718 12.645 28.2558 12.3996 28.2558C12.1863 28.2558 11.9676 28.2718 11.7436 28.3038C11.5303 28.3358 11.333 28.3945 11.1516 28.4798C10.981 28.5652 10.8423 28.6878 10.7356 28.8478C10.629 28.9972 10.5756 29.1892 10.5756 29.4238C10.5756 29.8825 10.7196 30.2025 11.0076 30.3838C11.2956 30.5545 11.685 30.6398 12.1756 30.6398ZM12.0156 23.4238C12.6556 23.4238 13.1943 23.5038 13.6316 23.6638C14.069 23.8238 14.4156 24.0478 14.6716 24.3358C14.9383 24.6238 15.125 24.9758 15.2316 25.3918C15.349 25.7972 15.4076 26.2452 15.4076 26.7358V31.8078C15.109 31.8718 14.6556 31.9465 14.0476 32.0318C13.4503 32.1278 12.773 32.1758 12.0156 32.1758C11.5143 32.1758 11.0556 32.1278 10.6396 32.0318C10.2236 31.9358 9.86632 31.7812 9.56765 31.5678C9.27965 31.3545 9.05032 31.0772 8.87965 30.7358C8.71965 30.3945 8.63965 29.9732 8.63965 29.4718C8.63965 28.9918 8.73032 28.5865 8.91165 28.2558C9.10365 27.9252 9.35965 27.6585 9.67965 27.4558C9.99965 27.2425 10.3676 27.0932 10.7836 27.0078C11.2103 26.9118 11.653 26.8638 12.1116 26.8638C12.325 26.8638 12.549 26.8798 12.7836 26.9118C13.0183 26.9332 13.269 26.9758 13.5356 27.0398V26.7198C13.5356 26.4958 13.509 26.2825 13.4556 26.0798C13.4023 25.8772 13.3063 25.7012 13.1676 25.5518C13.0396 25.3918 12.8636 25.2692 12.6396 25.1838C12.4263 25.0985 12.1543 25.0558 11.8236 25.0558C11.3756 25.0558 10.965 25.0878 10.5916 25.1518C10.2183 25.2158 9.91432 25.2905 9.67965 25.3758L9.43965 23.8078C9.68498 23.7225 10.0423 23.6372 10.5116 23.5518C10.981 23.4665 11.4823 23.4238 12.0156 23.4238Z" fill="#B480DE"/>
</svg>
