<svg width="48" height="48" viewBox="0 0 48 48" fill="none" xmlns="http://www.w3.org/2000/svg">
<path d="M42 24C42 33.9411 33.9411 42 24 42C14.0589 42 6 33.9411 6 24C6 14.0589 14.0589 6 24 6C33.9411 6 42 14.0589 42 24Z" fill="#E8E8E8"/>
<path fill-rule="evenodd" clip-rule="evenodd" d="M24 7.5C14.8873 7.5 7.5 14.8873 7.5 24C7.5 33.1127 14.8873 40.5 24 40.5C33.1127 40.5 40.5 33.1127 40.5 24C40.5 14.8873 33.1127 7.5 24 7.5ZM4.5 24C4.5 13.2304 13.2304 4.5 24 4.5C34.7696 4.5 43.5 13.2304 43.5 24C43.5 34.7696 34.7696 43.5 24 43.5C13.2304 43.5 4.5 34.7696 4.5 24Z" fill="#B480DE"/>
<path d="M30 19.7778C30 22.9688 27.3137 25.5556 24 25.5556C20.6863 25.5556 18 22.9688 18 19.7778C18 16.5868 20.6863 14 24 14C27.3137 14 30 16.5868 30 19.7778Z" fill="white"/>
<path d="M12 35.6667C12 33.2734 14.0147 31.3333 16.5 31.3333H31.5C33.9853 31.3333 36 33.2734 36 35.6667C36 40.384 27.4033 42 24 42C20.5967 42 12 40.384 12 35.6667Z" fill="white"/>
<path fill-rule="evenodd" clip-rule="evenodd" d="M24 15C21.2027 15 19 17.1743 19 19.7778C19 22.3812 21.2027 24.5556 24 24.5556C26.7973 24.5556 29 22.3812 29 19.7778C29 17.1743 26.7973 15 24 15ZM17 19.7778C17 15.9993 20.1699 13 24 13C27.8301 13 31 15.9993 31 19.7778C31 23.5563 27.8301 26.5556 24 26.5556C20.1699 26.5556 17 23.5563 17 19.7778ZM11 35.6667C11 32.6859 13.4983 30.3333 16.5 30.3333H31.5C34.5017 30.3333 37 32.6859 37 35.6667C37 37.1859 36.2968 38.4186 35.2918 39.3719C34.302 40.3107 32.9889 41.0132 31.6363 41.5353C28.9338 42.5783 25.81 43 24 43C22.19 43 19.0662 42.5783 16.3637 41.5353C15.0111 41.0132 13.698 40.3107 12.7082 39.3719C11.7032 38.4186 11 37.1859 11 35.6667ZM16.5 32.3333C14.5311 32.3333 13 33.861 13 35.6667C13 36.5061 13.3714 37.2444 14.0846 37.9208C14.8131 38.6118 15.8618 39.1978 17.0838 39.6694C19.5305 40.6137 22.4067 41 24 41C25.5933 41 28.4695 40.6137 30.9162 39.6694C32.1382 39.1978 33.1869 38.6118 33.9154 37.9208C34.6286 37.2444 35 36.5061 35 35.6667C35 33.861 33.4689 32.3333 31.5 32.3333H16.5Z" fill="#B480DE"/>
</svg>
