<svg width="48" height="48" viewBox="0 0 48 48" fill="none" xmlns="http://www.w3.org/2000/svg">
<path d="M24 24C24 29.5228 19.5228 34 14 34C8.47715 34 4 29.5228 4 24C4 18.4772 8.47715 14 14 14C19.5228 14 24 18.4772 24 24Z" fill="#E8E8E8"/>
<path fill-rule="evenodd" clip-rule="evenodd" d="M14 15.5C9.30558 15.5 5.5 19.3056 5.5 24C5.5 28.6944 9.30558 32.5 14 32.5C18.6944 32.5 22.5 28.6944 22.5 24C22.5 19.3056 18.6944 15.5 14 15.5ZM2.5 24C2.5 17.6487 7.64873 12.5 14 12.5C20.3513 12.5 25.5 17.6487 25.5 24C25.5 30.3513 20.3513 35.5 14 35.5C7.64873 35.5 2.5 30.3513 2.5 24Z" fill="#B480DE"/>
<path d="M17.332 21.6552C17.332 23.428 15.8396 24.8651 13.9987 24.8651C12.1577 24.8651 10.6654 23.428 10.6654 21.6552C10.6654 19.8824 12.1577 18.4453 13.9987 18.4453C15.8396 18.4453 17.332 19.8824 17.332 21.6552Z" fill="white"/>
<path d="M7.33203 30.4824C7.33203 29.1528 8.45132 28.0749 9.83203 28.0749H18.1654C19.5461 28.0749 20.6654 29.1528 20.6654 30.4824C20.6654 33.1031 15.8894 34.0009 13.9987 34.0009C12.108 34.0009 7.33203 33.1031 7.33203 30.4824Z" fill="white"/>
<path fill-rule="evenodd" clip-rule="evenodd" d="M13.9987 19.4453C12.6741 19.4453 11.6654 20.4699 11.6654 21.6552C11.6654 22.8404 12.6741 23.8651 13.9987 23.8651C15.3233 23.8651 16.332 22.8404 16.332 21.6552C16.332 20.4699 15.3233 19.4453 13.9987 19.4453ZM9.66536 21.6552C9.66536 19.2949 11.6414 17.4453 13.9987 17.4453C16.356 17.4453 18.332 19.2949 18.332 21.6552C18.332 24.0155 16.356 25.8651 13.9987 25.8651C11.6414 25.8651 9.66536 24.0155 9.66536 21.6552ZM6.33203 30.4823C6.33203 28.5653 7.93494 27.0749 9.83203 27.0749H18.1654C20.0625 27.0749 21.6654 28.5653 21.6654 30.4823C21.6654 31.4774 21.201 32.2722 20.5778 32.8633C19.9698 33.4399 19.1815 33.8561 18.4011 34.1573C16.8429 34.7587 15.0524 35.0009 13.9987 35.0009C12.945 35.0009 11.1545 34.7587 9.59629 34.1573C8.81585 33.8561 8.02755 33.4399 7.41964 32.8633C6.79641 32.2722 6.33203 31.4774 6.33203 30.4823ZM9.83203 29.0749C8.9677 29.0749 8.33203 29.7403 8.33203 30.4823C8.33203 30.7976 8.46465 31.0979 8.79599 31.4122C9.14267 31.741 9.66652 32.0406 10.3164 32.2915C11.6188 32.7941 13.1617 33.0009 13.9987 33.0009C14.8357 33.0009 16.3786 32.7941 17.681 32.2915C18.3309 32.0406 18.8547 31.741 19.2014 31.4122C19.5327 31.0979 19.6654 30.7976 19.6654 30.4823C19.6654 29.7403 19.0297 29.0749 18.1654 29.0749H9.83203Z" fill="#B480DE"/>
<path d="M34 24C34 29.5228 29.5228 34 24 34C18.4772 34 14 29.5228 14 24C14 18.4772 18.4772 14 24 14C29.5228 14 34 18.4772 34 24Z" fill="white"/>
<path fill-rule="evenodd" clip-rule="evenodd" d="M37 24C37 31.1797 31.1797 37 24 37C16.8203 37 11 31.1797 11 24C11 16.8203 16.8203 11 24 11C31.1797 11 37 16.8203 37 24ZM24 34C29.5228 34 34 29.5228 34 24C34 18.4772 29.5228 14 24 14C18.4772 14 14 18.4772 14 24C14 29.5228 18.4772 34 24 34Z" fill="white"/>
<path d="M34 24C34 29.5228 29.5228 34 24 34C18.4772 34 14 29.5228 14 24C14 18.4772 18.4772 14 24 14C29.5228 14 34 18.4772 34 24Z" fill="#E8E8E8"/>
<path fill-rule="evenodd" clip-rule="evenodd" d="M24 15.5C19.3056 15.5 15.5 19.3056 15.5 24C15.5 28.6944 19.3056 32.5 24 32.5C28.6944 32.5 32.5 28.6944 32.5 24C32.5 19.3056 28.6944 15.5 24 15.5ZM12.5 24C12.5 17.6487 17.6487 12.5 24 12.5C30.3513 12.5 35.5 17.6487 35.5 24C35.5 30.3513 30.3513 35.5 24 35.5C17.6487 35.5 12.5 30.3513 12.5 24Z" fill="#B480DE"/>
<path d="M27.332 21.6552C27.332 23.428 25.8396 24.8651 23.9987 24.8651C22.1577 24.8651 20.6654 23.428 20.6654 21.6552C20.6654 19.8824 22.1577 18.4453 23.9987 18.4453C25.8396 18.4453 27.332 19.8824 27.332 21.6552Z" fill="white"/>
<path d="M17.332 30.4824C17.332 29.1528 18.4513 28.0749 19.832 28.0749H28.1654C29.5461 28.0749 30.6654 29.1528 30.6654 30.4824C30.6654 33.1031 25.8894 34.0009 23.9987 34.0009C22.108 34.0009 17.332 33.1031 17.332 30.4824Z" fill="white"/>
<path fill-rule="evenodd" clip-rule="evenodd" d="M23.9987 19.4453C22.6741 19.4453 21.6654 20.4699 21.6654 21.6552C21.6654 22.8404 22.6741 23.8651 23.9987 23.8651C25.3233 23.8651 26.332 22.8404 26.332 21.6552C26.332 20.4699 25.3233 19.4453 23.9987 19.4453ZM19.6654 21.6552C19.6654 19.2949 21.6414 17.4453 23.9987 17.4453C26.356 17.4453 28.332 19.2949 28.332 21.6552C28.332 24.0155 26.356 25.8651 23.9987 25.8651C21.6414 25.8651 19.6654 24.0155 19.6654 21.6552ZM16.332 30.4823C16.332 28.5653 17.9349 27.0749 19.832 27.0749H28.1654C30.0625 27.0749 31.6654 28.5653 31.6654 30.4823C31.6654 31.4774 31.201 32.2722 30.5778 32.8633C29.9698 33.4399 29.1815 33.8561 28.4011 34.1573C26.8429 34.7587 25.0524 35.0009 23.9987 35.0009C22.945 35.0009 21.1545 34.7587 19.5963 34.1573C18.8159 33.8561 18.0275 33.4399 17.4196 32.8633C16.7964 32.2722 16.332 31.4774 16.332 30.4823ZM19.832 29.0749C18.9677 29.0749 18.332 29.7403 18.332 30.4823C18.332 30.7976 18.4646 31.0979 18.796 31.4122C19.1427 31.741 19.6665 32.0406 20.3164 32.2915C21.6188 32.7941 23.1617 33.0009 23.9987 33.0009C24.8357 33.0009 26.3786 32.7941 27.681 32.2915C28.3309 32.0406 28.8547 31.741 29.2014 31.4122C29.5327 31.0979 29.6654 30.7976 29.6654 30.4823C29.6654 29.7403 29.0297 29.0749 28.1654 29.0749H19.832Z" fill="#B480DE"/>
<path d="M44 24C44 29.5228 39.5228 34 34 34C28.4772 34 24 29.5228 24 24C24 18.4772 28.4772 14 34 14C39.5228 14 44 18.4772 44 24Z" fill="white"/>
<path fill-rule="evenodd" clip-rule="evenodd" d="M47 24C47 31.1797 41.1797 37 34 37C26.8203 37 21 31.1797 21 24C21 16.8203 26.8203 11 34 11C41.1797 11 47 16.8203 47 24ZM34 34C39.5228 34 44 29.5228 44 24C44 18.4772 39.5228 14 34 14C28.4772 14 24 18.4772 24 24C24 29.5228 28.4772 34 34 34Z" fill="white"/>
<path d="M44 24C44 29.5228 39.5228 34 34 34C28.4772 34 24 29.5228 24 24C24 18.4772 28.4772 14 34 14C39.5228 14 44 18.4772 44 24Z" fill="#E8E8E8"/>
<path fill-rule="evenodd" clip-rule="evenodd" d="M34 15.5C29.3056 15.5 25.5 19.3056 25.5 24C25.5 28.6944 29.3056 32.5 34 32.5C38.6944 32.5 42.5 28.6944 42.5 24C42.5 19.3056 38.6944 15.5 34 15.5ZM22.5 24C22.5 17.6487 27.6487 12.5 34 12.5C40.3513 12.5 45.5 17.6487 45.5 24C45.5 30.3513 40.3513 35.5 34 35.5C27.6487 35.5 22.5 30.3513 22.5 24Z" fill="#B480DE"/>
<path d="M37.332 21.6552C37.332 23.428 35.8396 24.8651 33.9987 24.8651C32.1577 24.8651 30.6654 23.428 30.6654 21.6552C30.6654 19.8824 32.1577 18.4453 33.9987 18.4453C35.8396 18.4453 37.332 19.8824 37.332 21.6552Z" fill="white"/>
<path d="M27.332 30.4824C27.332 29.1528 28.4513 28.0749 29.832 28.0749H38.1654C39.5461 28.0749 40.6654 29.1528 40.6654 30.4824C40.6654 33.1031 35.8894 34.0009 33.9987 34.0009C32.108 34.0009 27.332 33.1031 27.332 30.4824Z" fill="white"/>
<path fill-rule="evenodd" clip-rule="evenodd" d="M33.9987 19.4453C32.6741 19.4453 31.6654 20.4699 31.6654 21.6552C31.6654 22.8404 32.6741 23.8651 33.9987 23.8651C35.3233 23.8651 36.332 22.8404 36.332 21.6552C36.332 20.4699 35.3233 19.4453 33.9987 19.4453ZM29.6654 21.6552C29.6654 19.2949 31.6414 17.4453 33.9987 17.4453C36.356 17.4453 38.332 19.2949 38.332 21.6552C38.332 24.0155 36.356 25.8651 33.9987 25.8651C31.6414 25.8651 29.6654 24.0155 29.6654 21.6552ZM26.332 30.4823C26.332 28.5653 27.9349 27.0749 29.832 27.0749H38.1654C40.0625 27.0749 41.6654 28.5653 41.6654 30.4823C41.6654 31.4774 41.201 32.2722 40.5778 32.8633C39.9698 33.4399 39.1815 33.8561 38.4011 34.1573C36.8429 34.7587 35.0524 35.0009 33.9987 35.0009C32.945 35.0009 31.1545 34.7587 29.5963 34.1573C28.8159 33.8561 28.0275 33.4399 27.4196 32.8633C26.7964 32.2722 26.332 31.4774 26.332 30.4823ZM29.832 29.0749C28.9677 29.0749 28.332 29.7403 28.332 30.4823C28.332 30.7976 28.4646 31.0979 28.796 31.4122C29.1427 31.741 29.6665 32.0406 30.3164 32.2915C31.6188 32.7941 33.1617 33.0009 33.9987 33.0009C34.8357 33.0009 36.3786 32.7941 37.681 32.2915C38.3309 32.0406 38.8547 31.741 39.2014 31.4122C39.5327 31.0979 39.6654 30.7976 39.6654 30.4823C39.6654 29.7403 39.0297 29.0749 38.1654 29.0749H29.832Z" fill="#B480DE"/>
</svg>
