<svg width="24" height="24" viewBox="0 0 24 24" fill="none" xmlns="http://www.w3.org/2000/svg">
<circle cx="7" cy="12" r="5" fill="white" stroke="black" stroke-width="1.5"/>
<path d="M8.6665 10.8276C8.6665 11.714 7.92031 12.4325 6.99984 12.4325C6.07936 12.4325 5.33317 11.714 5.33317 10.8276C5.33317 9.94121 6.07936 9.22266 6.99984 9.22266C7.92031 9.22266 8.6665 9.94121 8.6665 10.8276Z" fill="white"/>
<path d="M3.6665 15.2412C3.6665 14.5764 4.22615 14.0375 4.9165 14.0375H9.08317C9.77353 14.0375 10.3332 14.5764 10.3332 15.2412C10.3332 16.5515 7.94519 17.0004 6.99984 17.0004C6.05449 17.0004 3.6665 16.5515 3.6665 15.2412Z" fill="white"/>
<path d="M8.6665 10.8276C8.6665 11.714 7.92031 12.4325 6.99984 12.4325C6.07936 12.4325 5.33317 11.714 5.33317 10.8276C5.33317 9.94121 6.07936 9.22266 6.99984 9.22266C7.92031 9.22266 8.6665 9.94121 8.6665 10.8276Z" stroke="black"/>
<path d="M3.6665 15.2412C3.6665 14.5764 4.22615 14.0375 4.9165 14.0375H9.08317C9.77353 14.0375 10.3332 14.5764 10.3332 15.2412C10.3332 16.5515 7.94519 17.0004 6.99984 17.0004C6.05449 17.0004 3.6665 16.5515 3.6665 15.2412Z" stroke="black"/>
<circle cx="12" cy="12" r="5.75" fill="white" stroke="white" stroke-width="1.5"/>
<circle cx="12" cy="12" r="5" fill="white" stroke="black" stroke-width="1.5"/>
<path d="M13.6665 10.8276C13.6665 11.714 12.9203 12.4325 11.9998 12.4325C11.0794 12.4325 10.3332 11.714 10.3332 10.8276C10.3332 9.94121 11.0794 9.22266 11.9998 9.22266C12.9203 9.22266 13.6665 9.94121 13.6665 10.8276Z" fill="white"/>
<path d="M8.6665 15.2412C8.6665 14.5764 9.22615 14.0375 9.9165 14.0375H14.0832C14.7735 14.0375 15.3332 14.5764 15.3332 15.2412C15.3332 16.5515 12.9452 17.0004 11.9998 17.0004C11.0545 17.0004 8.6665 16.5515 8.6665 15.2412Z" fill="white"/>
<path d="M13.6665 10.8276C13.6665 11.714 12.9203 12.4325 11.9998 12.4325C11.0794 12.4325 10.3332 11.714 10.3332 10.8276C10.3332 9.94121 11.0794 9.22266 11.9998 9.22266C12.9203 9.22266 13.6665 9.94121 13.6665 10.8276Z" stroke="black"/>
<path d="M8.6665 15.2412C8.6665 14.5764 9.22615 14.0375 9.9165 14.0375H14.0832C14.7735 14.0375 15.3332 14.5764 15.3332 15.2412C15.3332 16.5515 12.9452 17.0004 11.9998 17.0004C11.0545 17.0004 8.6665 16.5515 8.6665 15.2412Z" stroke="black"/>
<circle cx="17" cy="12" r="5.75" fill="white" stroke="white" stroke-width="1.5"/>
<circle cx="17" cy="12" r="5" fill="white" stroke="black" stroke-width="1.5"/>
<path d="M18.6665 10.8276C18.6665 11.714 17.9203 12.4325 16.9998 12.4325C16.0794 12.4325 15.3332 11.714 15.3332 10.8276C15.3332 9.94121 16.0794 9.22266 16.9998 9.22266C17.9203 9.22266 18.6665 9.94121 18.6665 10.8276Z" fill="white"/>
<path d="M13.6665 15.2412C13.6665 14.5764 14.2261 14.0375 14.9165 14.0375H19.0832C19.7735 14.0375 20.3332 14.5764 20.3332 15.2412C20.3332 16.5515 17.9452 17.0004 16.9998 17.0004C16.0545 17.0004 13.6665 16.5515 13.6665 15.2412Z" fill="white"/>
<path d="M18.6665 10.8276C18.6665 11.714 17.9203 12.4325 16.9998 12.4325C16.0794 12.4325 15.3332 11.714 15.3332 10.8276C15.3332 9.94121 16.0794 9.22266 16.9998 9.22266C17.9203 9.22266 18.6665 9.94121 18.6665 10.8276Z" stroke="black"/>
<path d="M13.6665 15.2412C13.6665 14.5764 14.2261 14.0375 14.9165 14.0375H19.0832C19.7735 14.0375 20.3332 14.5764 20.3332 15.2412C20.3332 16.5515 17.9452 17.0004 16.9998 17.0004C16.0545 17.0004 13.6665 16.5515 13.6665 15.2412Z" stroke="black"/>
</svg>
