<svg width="24" height="24" viewBox="0 0 24 24" fill="none" xmlns="http://www.w3.org/2000/svg">
<circle cx="12" cy="12" r="9" stroke="black" stroke-width="1.5"/>
<path d="M15 9.88889C15 11.4844 13.6569 12.7778 12 12.7778C10.3431 12.7778 9 11.4844 9 9.88889C9 8.2934 10.3431 7 12 7C13.6569 7 15 8.2934 15 9.88889Z" fill="white"/>
<path d="M6 17.8333C6 16.6367 7.00736 15.6667 8.25 15.6667H15.75C16.9926 15.6667 18 16.6367 18 17.8333C18 20.192 13.7016 21 12 21C10.2984 21 6 20.192 6 17.8333Z" fill="white"/>
<path d="M15 9.88889C15 11.4844 13.6569 12.7778 12 12.7778C10.3431 12.7778 9 11.4844 9 9.88889C9 8.2934 10.3431 7 12 7C13.6569 7 15 8.2934 15 9.88889Z" stroke="black"/>
<path d="M6 17.8333C6 16.6367 7.00736 15.6667 8.25 15.6667H15.75C16.9926 15.6667 18 16.6367 18 17.8333C18 20.192 13.7016 21 12 21C10.2984 21 6 20.192 6 17.8333Z" stroke="black"/>
</svg>
