<svg width="48" height="48" viewBox="0 0 48 48" fill="none" xmlns="http://www.w3.org/2000/svg">
<path fill-rule="evenodd" clip-rule="evenodd" d="M5 12C5 11.4477 5.44772 11 6 11H42C42.5523 11 43 11.4477 43 12C43 12.5523 42.5523 13 42 13H6C5.44772 13 5 12.5523 5 12Z" fill="#DEDEDE"/>
<path fill-rule="evenodd" clip-rule="evenodd" d="M5 22C5 21.4477 5.44772 21 6 21H42C42.5523 21 43 21.4477 43 22C43 22.5523 42.5523 23 42 23H6C5.44772 23 5 22.5523 5 22Z" fill="#DEDEDE"/>
<path fill-rule="evenodd" clip-rule="evenodd" d="M5 32C5 31.4477 5.44772 31 6 31H42C42.5523 31 43 31.4477 43 32C43 32.5523 42.5523 33 42 33H6C5.44772 33 5 32.5523 5 32Z" fill="#DEDEDE"/>
<path d="M9 28C9 26.8954 9.89543 26 11 26H13C14.1046 26 15 26.8954 15 28V40H9V28Z" fill="#B480DE"/>
<path fill-rule="evenodd" clip-rule="evenodd" d="M7.5 28C7.5 26.067 9.067 24.5 11 24.5H13C14.933 24.5 16.5 26.067 16.5 28V41.5H7.5V28ZM11 27.5C10.7239 27.5 10.5 27.7239 10.5 28V38.5H13.5V28C13.5 27.7239 13.2761 27.5 13 27.5H11Z" fill="#B480DE"/>
<path d="M21 8C21 6.89543 21.8954 6 23 6H25C26.1046 6 27 6.89543 27 8V40H21V8Z" fill="#B480DE"/>
<path fill-rule="evenodd" clip-rule="evenodd" d="M19.5 8C19.5 6.067 21.067 4.5 23 4.5H25C26.933 4.5 28.5 6.067 28.5 8V41.5H19.5V8ZM23 7.5C22.7239 7.5 22.5 7.72386 22.5 8V38.5H25.5V8C25.5 7.72386 25.2761 7.5 25 7.5H23Z" fill="#B480DE"/>
<path d="M33 18C33 16.8954 33.8954 16 35 16H37C38.1046 16 39 16.8954 39 18V40H33V18Z" fill="#B480DE"/>
<path fill-rule="evenodd" clip-rule="evenodd" d="M31.5 18C31.5 16.067 33.067 14.5 35 14.5H37C38.933 14.5 40.5 16.067 40.5 18V41.5H31.5V18ZM35 17.5C34.7239 17.5 34.5 17.7239 34.5 18V38.5H37.5V18C37.5 17.7239 37.2761 17.5 37 17.5H35Z" fill="#B480DE"/>
<path fill-rule="evenodd" clip-rule="evenodd" d="M4.5 42C4.5 41.1716 5.17157 40.5 6 40.5H42C42.8284 40.5 43.5 41.1716 43.5 42C43.5 42.8284 42.8284 43.5 42 43.5H6C5.17157 43.5 4.5 42.8284 4.5 42Z" fill="#DEDEDE"/>
</svg>
