<svg width="24" height="24" viewBox="0 0 24 24" fill="none" xmlns="http://www.w3.org/2000/svg">
<path fill-rule="evenodd" clip-rule="evenodd" d="M2.5 6C2.5 5.72386 2.72386 5.5 3 5.5H21C21.2761 5.5 21.5 5.72386 21.5 6C21.5 6.27614 21.2761 6.5 21 6.5H3C2.72386 6.5 2.5 6.27614 2.5 6Z" fill="#DEDEDE"/>
<path fill-rule="evenodd" clip-rule="evenodd" d="M2.5 11C2.5 10.7239 2.72386 10.5 3 10.5H21C21.2761 10.5 21.5 10.7239 21.5 11C21.5 11.2761 21.2761 11.5 21 11.5H3C2.72386 11.5 2.5 11.2761 2.5 11Z" fill="#DEDEDE"/>
<path fill-rule="evenodd" clip-rule="evenodd" d="M2.5 16C2.5 15.7239 2.72386 15.5 3 15.5H21C21.2761 15.5 21.5 15.7239 21.5 16C21.5 16.2761 21.2761 16.5 21 16.5H3C2.72386 16.5 2.5 16.2761 2.5 16Z" fill="#DEDEDE"/>
<path d="M4.5 14C4.5 13.4477 4.94772 13 5.5 13H6.5C7.05228 13 7.5 13.4477 7.5 14V20H4.5V14Z" fill="#B480DE"/>
<path fill-rule="evenodd" clip-rule="evenodd" d="M3.75 14C3.75 13.0335 4.5335 12.25 5.5 12.25H6.5C7.4665 12.25 8.25 13.0335 8.25 14V20.75H3.75V14ZM5.5 13.75C5.36193 13.75 5.25 13.8619 5.25 14V19.25H6.75V14C6.75 13.8619 6.63807 13.75 6.5 13.75H5.5Z" fill="#B480DE"/>
<path d="M10.5 4C10.5 3.44772 10.9477 3 11.5 3H12.5C13.0523 3 13.5 3.44772 13.5 4V20H10.5V4Z" fill="#B480DE"/>
<path fill-rule="evenodd" clip-rule="evenodd" d="M9.75 4C9.75 3.0335 10.5335 2.25 11.5 2.25H12.5C13.4665 2.25 14.25 3.0335 14.25 4V20.75H9.75V4ZM11.5 3.75C11.3619 3.75 11.25 3.86193 11.25 4V19.25H12.75V4C12.75 3.86193 12.6381 3.75 12.5 3.75H11.5Z" fill="#B480DE"/>
<path d="M16.5 9C16.5 8.44772 16.9477 8 17.5 8H18.5C19.0523 8 19.5 8.44772 19.5 9V20H16.5V9Z" fill="#B480DE"/>
<path fill-rule="evenodd" clip-rule="evenodd" d="M15.75 9C15.75 8.0335 16.5335 7.25 17.5 7.25H18.5C19.4665 7.25 20.25 8.0335 20.25 9V20.75H15.75V9ZM17.5 8.75C17.3619 8.75 17.25 8.86193 17.25 9V19.25H18.75V9C18.75 8.86193 18.6381 8.75 18.5 8.75H17.5Z" fill="#B480DE"/>
<path fill-rule="evenodd" clip-rule="evenodd" d="M2.25 21C2.25 20.5858 2.58579 20.25 3 20.25H21C21.4142 20.25 21.75 20.5858 21.75 21C21.75 21.4142 21.4142 21.75 21 21.75H3C2.58579 21.75 2.25 21.4142 2.25 21Z" fill="#DEDEDE"/>
</svg>
