<svg width="48" height="48" viewBox="0 0 48 48" fill="none" xmlns="http://www.w3.org/2000/svg">
<path d="M5.33398 8.11395C5.33398 7.13117 6.13068 6.33447 7.11346 6.33447H19.5698C20.5526 6.33447 21.3493 7.13117 21.3493 8.11395V15.2319C21.3493 16.2146 20.5526 17.0113 19.5698 17.0113H7.11346C6.13068 17.0113 5.33398 16.2146 5.33398 15.2319V8.11395Z" fill="#E8E8E8"/>
<path fill-rule="evenodd" clip-rule="evenodd" d="M4 8.11409C4 6.39423 5.39422 5 7.11409 5H19.5704C21.2903 5 22.6845 6.39423 22.6845 8.11409V15.232C22.6845 16.9519 21.2903 18.3461 19.5704 18.3461H7.11409C5.39422 18.3461 4 16.9519 4 15.232V8.11409ZM7.11409 7.66922C6.86839 7.66922 6.66922 7.86839 6.66922 8.11409V15.232C6.66922 15.4777 6.86839 15.6769 7.11409 15.6769H19.5704C19.8161 15.6769 20.0153 15.4777 20.0153 15.232V8.11409C20.0153 7.86839 19.8161 7.66922 19.5704 7.66922H7.11409Z" fill="#B480DE"/>
<path fill-rule="evenodd" clip-rule="evenodd" d="M30.247 12.5627H21.3496V10.7832H30.247V12.5627Z" fill="#B480DE"/>
<path d="M24.9092 31.2473C24.9092 30.2645 25.7059 29.4678 26.6887 29.4678H39.145C40.1278 29.4678 40.9245 30.2645 40.9245 31.2473V38.3652C40.9245 39.3479 40.1278 40.1446 39.145 40.1446H26.6887C25.7059 40.1446 24.9092 39.3479 24.9092 38.3652V31.2473Z" fill="#E8E8E8"/>
<path fill-rule="evenodd" clip-rule="evenodd" d="M23.5742 31.2474C23.5742 29.5275 24.9684 28.1333 26.6883 28.1333H39.1447C40.8645 28.1333 42.2588 29.5275 42.2588 31.2474V38.3653C42.2588 40.0852 40.8645 41.4794 39.1447 41.4794H26.6883C24.9684 41.4794 23.5742 40.0852 23.5742 38.3653V31.2474ZM26.6883 30.8025C26.4426 30.8025 26.2434 31.0017 26.2434 31.2474V38.3653C26.2434 38.611 26.4426 38.8102 26.6883 38.8102H39.1447C39.3904 38.8102 39.5895 38.611 39.5895 38.3653V31.2474C39.5895 31.0017 39.3904 30.8025 39.1447 30.8025H26.6883Z" fill="#B480DE"/>
<path fill-rule="evenodd" clip-rule="evenodd" d="M34.6953 27.688V17.9009H36.4748V27.688H34.6953Z" fill="#B480DE"/>
<path fill-rule="evenodd" clip-rule="evenodd" d="M34.5886 28.7319L32.2041 25.5526L33.6277 24.4849L35.5851 27.0948L37.5425 24.4849L38.9661 25.5526L36.5816 28.7319C36.0834 29.3962 35.0869 29.3962 34.5886 28.7319Z" fill="#B480DE"/>
<path d="M30.248 11.6729C30.248 8.72457 32.6381 6.33447 35.5865 6.33447C38.5348 6.33447 40.9249 8.72457 40.9249 11.6729C40.9249 14.6212 38.5348 17.0113 35.5865 17.0113C32.6381 17.0113 30.248 14.6212 30.248 11.6729Z" fill="#E8E8E8"/>
<path fill-rule="evenodd" clip-rule="evenodd" d="M28.9121 11.673C28.9121 7.98763 31.8997 5 35.5852 5C39.2706 5 42.2582 7.98763 42.2582 11.673C42.2582 15.3585 39.2706 18.3461 35.5852 18.3461C31.8997 18.3461 28.9121 15.3585 28.9121 11.673ZM35.5852 7.66922C33.3739 7.66922 31.5813 9.46179 31.5813 11.673C31.5813 13.8843 33.3739 15.6769 35.5852 15.6769C37.7964 15.6769 39.589 13.8843 39.589 11.673C39.589 9.46179 37.7964 7.66922 35.5852 7.66922Z" fill="#B480DE"/>
<path d="M7.2743 34.5924L12.1679 28.0677C12.3102 27.8778 12.5949 27.8778 12.7373 28.0677L17.6309 34.5924C17.7258 34.7189 17.7258 34.8929 17.6309 35.0195L12.7373 41.5442C12.5949 41.7341 12.3102 41.7341 12.1679 41.5442L7.2743 35.0195C7.1794 34.8929 7.1794 34.7189 7.2743 34.5924Z" fill="#E8E8E8"/>
<path fill-rule="evenodd" clip-rule="evenodd" d="M12.4532 29.912L8.78304 34.8056L12.4532 39.6992L16.1234 34.8056L12.4532 29.912ZM13.8056 27.2665L12.7461 28.0612L13.8056 27.2665L18.6992 33.7913C19.15 34.3924 19.15 35.2188 18.6992 35.8199L13.8056 42.3447L12.7379 41.5439L13.8056 42.3447C13.1294 43.2463 11.777 43.2463 11.1008 42.3447L12.1685 41.5439L11.1008 42.3447L6.20724 35.8199C5.75644 35.2188 5.75644 34.3924 6.20724 33.7913L7.27493 34.5921L6.20724 33.7913L11.1008 27.2665C11.777 26.3649 13.1294 26.3649 13.8056 27.2665Z" fill="#B480DE"/>
<path fill-rule="evenodd" clip-rule="evenodd" d="M11.5635 19.4214V17.0117H13.343V19.4214H11.5635ZM11.5635 25.2047V20.3853H13.343V25.2047H11.5635ZM11.5635 28.5783V26.1686H13.343V28.5783H11.5635Z" fill="#B480DE"/>
<path fill-rule="evenodd" clip-rule="evenodd" d="M18.5696 35.696H16.9014V33.9165H18.5696V35.696ZM22.5735 35.696H19.2369V33.9165H22.5735V35.696ZM24.909 35.696H23.2408V33.9165H24.909V35.696Z" fill="#B480DE"/>
</svg>
