<svg width="48" height="48" viewBox="0 0 48 48" fill="none" xmlns="http://www.w3.org/2000/svg">
<path d="M6 20C6 17.7909 7.79086 16 10 16H38C40.2091 16 42 17.7909 42 20V28C42 30.2091 40.2091 32 38 32H10C7.79086 32 6 30.2091 6 28V20Z" fill="#B480DE"/>
<path fill-rule="evenodd" clip-rule="evenodd" d="M4.5 20C4.5 16.9624 6.96243 14.5 10 14.5H38C41.0376 14.5 43.5 16.9624 43.5 20V28C43.5 31.0376 41.0376 33.5 38 33.5H10C6.96243 33.5 4.5 31.0376 4.5 28V20ZM10 17.5C8.61929 17.5 7.5 18.6193 7.5 20V28C7.5 29.3807 8.61929 30.5 10 30.5H38C39.3807 30.5 40.5 29.3807 40.5 28V20C40.5 18.6193 39.3807 17.5 38 17.5H10Z" fill="#B480DE"/>
<path fill-rule="evenodd" clip-rule="evenodd" d="M15 24C15 23.4477 15.4477 23 16 23H32C32.5523 23 33 23.4477 33 24C33 24.5523 32.5523 25 32 25H16C15.4477 25 15 24.5523 15 24Z" fill="white"/>
</svg>
