<svg width="48" height="48" viewBox="0 0 48 48" fill="none" xmlns="http://www.w3.org/2000/svg">
<path d="M6 14C6 11.7909 7.79086 10 10 10H38C40.2091 10 42 11.7909 42 14V38C42 40.2091 40.2091 42 38 42H10C7.79086 42 6 40.2091 6 38V14Z" fill="#E8E8E8"/>
<path fill-rule="evenodd" clip-rule="evenodd" d="M5 14C5 11.2386 7.23858 9 10 9H38C40.7614 9 43 11.2386 43 14V38C43 40.7614 40.7614 43 38 43H10C7.23858 43 5 40.7614 5 38V14ZM10 11C8.34315 11 7 12.3431 7 14V38C7 39.6569 8.34315 41 10 41H38C39.6569 41 41 39.6569 41 38V14C41 12.3431 39.6569 11 38 11H10Z" fill="#B480DE"/>
<path fill-rule="evenodd" clip-rule="evenodd" d="M14 22C14 20.8954 14.8954 20 16 20H16.4C17.5046 20 18.4 20.8954 18.4 22C18.4 23.1046 17.5046 24 16.4 24H16C14.8954 24 14 23.1046 14 22Z" fill="#B480DE"/>
<path fill-rule="evenodd" clip-rule="evenodd" d="M22 22C22 20.8954 22.8954 20 24 20H24.4C25.5046 20 26.4 20.8954 26.4 22C26.4 23.1046 25.5046 24 24.4 24H24C22.8954 24 22 23.1046 22 22Z" fill="#B480DE"/>
<path fill-rule="evenodd" clip-rule="evenodd" d="M30 22C30 20.8954 30.8954 20 32 20H32.4C33.5046 20 34.4 20.8954 34.4 22C34.4 23.1046 33.5046 24 32.4 24H32C30.8954 24 30 23.1046 30 22Z" fill="#B480DE"/>
<path fill-rule="evenodd" clip-rule="evenodd" d="M14 30C14 28.8954 14.8954 28 16 28H16.4C17.5046 28 18.4 28.8954 18.4 30C18.4 31.1046 17.5046 32 16.4 32H16C14.8954 32 14 31.1046 14 30Z" fill="#B480DE"/>
<path fill-rule="evenodd" clip-rule="evenodd" d="M22 30C22 28.8954 22.8954 28 24 28H24.4C25.5046 28 26.4 28.8954 26.4 30C26.4 31.1046 25.5046 32 24.4 32H24C22.8954 32 22 31.1046 22 30Z" fill="#B480DE"/>
<path fill-rule="evenodd" clip-rule="evenodd" d="M32 4.5C32.8284 4.5 33.5 5.17157 33.5 6V13.4492C33.5 14.2776 32.8284 14.9492 32 14.9492C31.1716 14.9492 30.5 14.2776 30.5 13.4492V6C30.5 5.17157 31.1716 4.5 32 4.5Z" fill="#B480DE"/>
<path fill-rule="evenodd" clip-rule="evenodd" d="M16 4.5C16.8284 4.5 17.5 5.17157 17.5 6V13.4492C17.5 14.2776 16.8284 14.9492 16 14.9492C15.1716 14.9492 14.5 14.2776 14.5 13.4492V6C14.5 5.17157 15.1716 4.5 16 4.5Z" fill="#B480DE"/>
</svg>
