<svg width="48" height="48" viewBox="0 0 48 48" fill="none" xmlns="http://www.w3.org/2000/svg">
<path d="M32 24C32 28.4183 28.4183 32 24 32C19.5817 32 16 28.4183 16 24C16 19.5817 19.5817 16 24 16C28.4183 16 32 19.5817 32 24Z" fill="#E8E8E8"/>
<path fill-rule="evenodd" clip-rule="evenodd" d="M24 17.5C20.4101 17.5 17.5 20.4101 17.5 24C17.5 27.5899 20.4101 30.5 24 30.5C27.5899 30.5 30.5 27.5899 30.5 24C30.5 20.4101 27.5899 17.5 24 17.5ZM14.5 24C14.5 18.7533 18.7533 14.5 24 14.5C29.2467 14.5 33.5 18.7533 33.5 24C33.5 29.2467 29.2467 33.5 24 33.5C18.7533 33.5 14.5 29.2467 14.5 24Z" fill="#B480DE"/>
<path fill-rule="evenodd" clip-rule="evenodd" d="M37.4309 9.29647C37.8195 8.90398 38.4526 8.90078 38.8451 9.28933C42.6453 13.0513 44.9995 18.2535 44.9995 24C44.9995 29.7465 42.6453 34.9487 38.8451 38.7107C38.4526 39.0992 37.8195 39.096 37.4309 38.7035C37.0424 38.311 37.0456 37.6779 37.4381 37.2893C40.8765 33.8854 42.9995 29.1881 42.9995 24C42.9995 18.8119 40.8765 14.1146 37.4381 10.7107C37.0456 10.3221 37.0424 9.68897 37.4309 9.29647Z" fill="#B480DE"/>
<path fill-rule="evenodd" clip-rule="evenodd" d="M33.3064 13.2797C33.7042 12.8966 34.3372 12.9085 34.7203 13.3064C37.3681 16.056 39 19.8355 39 24C39 28.1645 37.3681 31.944 34.7203 34.6936C34.3372 35.0915 33.7042 35.1034 33.3064 34.7203C32.9085 34.3372 32.8966 33.7042 33.2797 33.3064C35.5776 30.9201 37 27.6343 37 24C37 20.3657 35.5776 17.0799 33.2797 14.6936C32.8966 14.2958 32.9085 13.6628 33.3064 13.2797Z" fill="#B480DE"/>
<path fill-rule="evenodd" clip-rule="evenodd" d="M10.5681 9.29647C10.1795 8.90398 9.54639 8.90078 9.1539 9.28933C5.35376 13.0513 2.99956 18.2535 2.99956 24C2.99956 29.7465 5.35376 34.9487 9.1539 38.7107C9.54639 39.0992 10.1795 39.096 10.5681 38.7035C10.9566 38.311 10.9534 37.6779 10.5609 37.2893C7.12251 33.8854 4.99956 29.1881 4.99956 24C4.99956 18.8119 7.12251 14.1146 10.5609 10.7107C10.9534 10.3221 10.9566 9.68897 10.5681 9.29647Z" fill="#B480DE"/>
<path fill-rule="evenodd" clip-rule="evenodd" d="M14.6936 13.2797C14.2958 12.8966 13.6628 12.9085 13.2797 13.3064C10.6319 16.056 9 19.8355 9 24C9 28.1645 10.6319 31.944 13.2797 34.6936C13.6628 35.0915 14.2958 35.1034 14.6936 34.7203C15.0915 34.3372 15.1034 33.7042 14.7203 33.3064C12.4224 30.9201 11 27.6343 11 24C11 20.3657 12.4224 17.0799 14.7203 14.6936C15.1034 14.2958 15.0915 13.6628 14.6936 13.2797Z" fill="#B480DE"/>
<path fill-rule="evenodd" clip-rule="evenodd" d="M22.5281 21.1183C22.8533 20.9443 23.2478 20.9634 23.5547 21.168L26.5547 23.168C26.8329 23.3534 27 23.6656 27 24C27 24.3344 26.8329 24.6466 26.5547 24.8321L23.5547 26.8321C23.2478 27.0366 22.8533 27.0557 22.5281 26.8817C22.203 26.7077 22 26.3688 22 26V22C22 21.6312 22.203 21.2923 22.5281 21.1183ZM24 23.8685V24.1315L24.1972 24L24 23.8685Z" fill="#B480DE"/>
</svg>
