<svg width="48" height="48" viewBox="0 0 48 48" fill="none" xmlns="http://www.w3.org/2000/svg">
<path fill-rule="evenodd" clip-rule="evenodd" d="M7.5 36V10H8.5V36H7.5Z" fill="#B480DE"/>
<path fill-rule="evenodd" clip-rule="evenodd" d="M6.5 30L6.5 16L9.5 16L9.5 30L6.5 30Z" fill="#B480DE"/>
<path fill-rule="evenodd" clip-rule="evenodd" d="M15.5 40V22H16.5V40H15.5Z" fill="#B480DE"/>
<path fill-rule="evenodd" clip-rule="evenodd" d="M14.5 35.8447L14.5 26.1523L17.5 26.1523L17.5 35.8447L14.5 35.8447Z" fill="#B480DE"/>
<path fill-rule="evenodd" clip-rule="evenodd" d="M23.5 31.3867L23.5 17.3867L24.5 17.3867L24.5 31.3867L23.5 31.3867Z" fill="#B480DE"/>
<path fill-rule="evenodd" clip-rule="evenodd" d="M22.5 26.7692L22.5 16L25.5 16L25.5 26.7692L22.5 26.7692Z" fill="#B480DE"/>
<path fill-rule="evenodd" clip-rule="evenodd" d="M31.5 22V8H32.5V22H31.5Z" fill="#B480DE"/>
<path fill-rule="evenodd" clip-rule="evenodd" d="M30.5 18.7689L30.5 11.2305L33.5 11.2305L33.5 18.7689L30.5 18.7689Z" fill="#B480DE"/>
<path fill-rule="evenodd" clip-rule="evenodd" d="M37.5 40V18H38.5V40H37.5Z" fill="#B480DE"/>
<path fill-rule="evenodd" clip-rule="evenodd" d="M36.5 34.9243L36.5 23.0781L39.5 23.0781L39.5 34.9243L36.5 34.9243Z" fill="#B480DE"/>
</svg>
