<svg width="48" height="48" viewBox="0 0 48 48" fill="none" xmlns="http://www.w3.org/2000/svg">
<path d="M8 12C8 9.79086 9.79086 8 12 8H34C36.2091 8 38 9.79086 38 12V34C38 36.2091 36.2091 38 34 38H12C9.79086 38 8 36.2091 8 34V12Z" fill="#E8E8E8"/>
<path fill-rule="evenodd" clip-rule="evenodd" d="M6.5 12C6.5 8.96243 8.96243 6.5 12 6.5H34C37.0376 6.5 39.5 8.96243 39.5 12V34C39.5 37.0376 37.0376 39.5 34 39.5H12C8.96243 39.5 6.5 37.0376 6.5 34V12ZM12 9.5C10.6193 9.5 9.5 10.6193 9.5 12V34C9.5 35.3807 10.6193 36.5 12 36.5H34C35.3807 36.5 36.5 35.3807 36.5 34V12C36.5 10.6193 35.3807 9.5 34 9.5H12Z" fill="#B480DE"/>
<path fill-rule="evenodd" clip-rule="evenodd" d="M13 17.0889C13 16.4875 13.6268 16 14.4 16H31.6C32.3732 16 33 16.4875 33 17.0889V28.9111C33 29.5125 32.3732 30 31.6 30H14.4C13.6268 30 13 29.5125 13 28.9111V17.0889ZM15 17.5556V28.4444H31V17.5556H15Z" fill="#B480DE"/>
<path fill-rule="evenodd" clip-rule="evenodd" d="M13 13C13 12.4477 13.3918 12 13.875 12H26.125C26.6082 12 27 12.4477 27 13C27 13.5523 26.6082 14 26.125 14H13.875C13.3918 14 13 13.5523 13 13Z" fill="#B480DE"/>
<path fill-rule="evenodd" clip-rule="evenodd" d="M13 33C13 32.4477 13.4029 32 13.9 32H21.1C21.5971 32 22 32.4477 22 33C22 33.5523 21.5971 34 21.1 34H13.9C13.4029 34 13 33.5523 13 33Z" fill="#B480DE"/>
<path fill-rule="evenodd" clip-rule="evenodd" d="M24 33C24 32.4477 24.4029 32 24.9 32H32.1C32.5971 32 33 32.4477 33 33C33 33.5523 32.5971 34 32.1 34H24.9C24.4029 34 24 33.5523 24 33Z" fill="#B480DE"/>
<path fill-rule="evenodd" clip-rule="evenodd" d="M28 12.9991C28 12.4468 28.4531 12.0144 28.7293 12.0144L32.3072 12.0137C32.5833 12.0137 33 12.4468 33 12.9991C33 13.5514 32.5833 13.9941 32.3072 13.9941L28.7344 13.9931C28.4582 13.9931 28 13.5514 28 12.9991Z" fill="#B480DE"/>
</svg>
