<svg width="48" height="48" viewBox="0 0 48 48" fill="none" xmlns="http://www.w3.org/2000/svg">
<path fill-rule="evenodd" clip-rule="evenodd" d="M4.5 10C4.5 6.96243 6.96243 4.5 10 4.5H38C41.0376 4.5 43.5 6.96243 43.5 10V14C43.5 17.0376 41.0376 19.5 38 19.5H10C6.96243 19.5 4.5 17.0376 4.5 14V10ZM10 7.5C8.61929 7.5 7.5 8.61929 7.5 10V14C7.5 15.3807 8.61929 16.5 10 16.5H38C39.3807 16.5 40.5 15.3807 40.5 14V10C40.5 8.61929 39.3807 7.5 38 7.5H10Z" fill="#B480DE"/>
<path d="M14 26C14 24.8954 14.8954 24 16 24H24C25.1046 24 26 24.8954 26 26V28C26 29.1046 25.1046 30 24 30H16C14.8954 30 14 29.1046 14 28V26Z" fill="#E8E8E8"/>
<path fill-rule="evenodd" clip-rule="evenodd" d="M13 26C13 24.3431 14.3431 23 16 23H24C25.6569 23 27 24.3431 27 26V28C27 29.6569 25.6569 31 24 31H16C14.3431 31 13 29.6569 13 28V26ZM16 25C15.4477 25 15 25.4477 15 26V28C15 28.5523 15.4477 29 16 29H24C24.5523 29 25 28.5523 25 28V26C25 25.4477 24.5523 25 24 25H16Z" fill="#B480DE"/>
<path d="M14 38C14 36.8954 14.8954 36 16 36H24C25.1046 36 26 36.8954 26 38V40C26 41.1046 25.1046 42 24 42H16C14.8954 42 14 41.1046 14 40V38Z" fill="#E8E8E8"/>
<path fill-rule="evenodd" clip-rule="evenodd" d="M13 38C13 36.3431 14.3431 35 16 35H24C25.6569 35 27 36.3431 27 38V40C27 41.6569 25.6569 43 24 43H16C14.3431 43 13 41.6569 13 40V38ZM16 37C15.4477 37 15 37.4477 15 38V40C15 40.5523 15.4477 41 16 41H24C24.5523 41 25 40.5523 25 40V38C25 37.4477 24.5523 37 24 37H16Z" fill="#B480DE"/>
<path d="M30 26C30 24.8954 30.8954 24 32 24H40C41.1046 24 42 24.8954 42 26V28C42 29.1046 41.1046 30 40 30H32C30.8954 30 30 29.1046 30 28V26Z" fill="#E8E8E8"/>
<path fill-rule="evenodd" clip-rule="evenodd" d="M29 26C29 24.3431 30.3431 23 32 23H40C41.6569 23 43 24.3431 43 26V28C43 29.6569 41.6569 31 40 31H32C30.3431 31 29 29.6569 29 28V26ZM32 25C31.4477 25 31 25.4477 31 26V28C31 28.5523 31.4477 29 32 29H40C40.5523 29 41 28.5523 41 28V26C41 25.4477 40.5523 25 40 25H32Z" fill="#B480DE"/>
<path fill-rule="evenodd" clip-rule="evenodd" d="M29.2929 13.7071C29.6834 14.0976 30.3166 14.0976 30.7071 13.7071L33 11.4142L35.2929 13.7071C35.6834 14.0976 36.3166 14.0976 36.7071 13.7071C37.0976 13.3166 37.0976 12.6834 36.7071 12.2929L34.2728 9.85858C33.5698 9.15563 32.4302 9.15564 31.7272 9.85858L29.2929 12.2929C28.9024 12.6834 28.9024 13.3166 29.2929 13.7071Z" fill="#B480DE"/>
<path fill-rule="evenodd" clip-rule="evenodd" d="M10 17C10.5523 17 11 17.4477 11 18V37C11 37.5523 11.4477 38 12 38H14C14.5523 38 15 38.4477 15 39C15 39.5523 14.5523 40 14 40H12C10.3431 40 9 38.6569 9 37V18C9 17.4477 9.44772 17 10 17Z" fill="#B480DE"/>
<path fill-rule="evenodd" clip-rule="evenodd" d="M9 27C9 26.4477 9.44772 26 10 26H14C14.5523 26 15 26.4477 15 27C15 27.5523 14.5523 28 14 28H10C9.44772 28 9 27.5523 9 27Z" fill="#B480DE"/>
<path fill-rule="evenodd" clip-rule="evenodd" d="M25 27C25 26.4477 25.4477 26 26 26H30C30.5523 26 31 26.4477 31 27C31 27.5523 30.5523 28 30 28H26C25.4477 28 25 27.5523 25 27Z" fill="#B480DE"/>
</svg>
