<svg width="48" height="48" viewBox="0 0 48 48" fill="none" xmlns="http://www.w3.org/2000/svg">
<path d="M6 10C6 7.79086 7.79086 6 10 6H38C40.2091 6 42 7.79086 42 10V38C42 40.2091 40.2091 42 38 42H10C7.79086 42 6 40.2091 6 38V10Z" fill="#E8E8E8"/>
<path fill-rule="evenodd" clip-rule="evenodd" d="M4.5 10C4.5 6.96243 6.96243 4.5 10 4.5H38C41.0376 4.5 43.5 6.96243 43.5 10V38C43.5 41.0376 41.0376 43.5 38 43.5H10C6.96243 43.5 4.5 41.0376 4.5 38V10ZM10 7.5C8.61929 7.5 7.5 8.61929 7.5 10V38C7.5 39.3807 8.61929 40.5 10 40.5H38C39.3807 40.5 40.5 39.3807 40.5 38V10C40.5 8.61929 39.3807 7.5 38 7.5H10Z" fill="#B480DE"/>
<path fill-rule="evenodd" clip-rule="evenodd" d="M34.6805 16.2672C35.0852 16.643 35.1086 17.2757 34.7328 17.6805L22.0152 31.3763C21.4753 31.9578 20.5605 31.9747 19.9994 31.4136L15.2929 26.7071C14.9024 26.3166 14.9024 25.6834 15.2929 25.2929C15.6834 24.9024 16.3166 24.9024 16.7071 25.2929L20.9733 29.5591L33.2672 16.3196C33.643 15.9148 34.2757 15.8914 34.6805 16.2672Z" fill="#B480DE"/>
</svg>
