<?xml version="1.0"?>
<svg xmlns="http://www.w3.org/2000/svg" width="48.00000000000001" height="48.00000000000001" fill="none" style="background-color:transparent;">
  <g>
    <title>Layer 1</title>
    <rect stroke="null" x="0.01868" y="-0.13823" id="svg_1" fill="none" height="35.79951" width="48"/>
    <g id="svg_8">
      <path id="svg_2" fill="#B480DE" d="m9.00311,11.24533c0,-4.14214 3.3579,-7.5 7.5,-7.5l11.5147,0c1.9891,0 3.8968,0.79018 5.3033,2.1967l4.4853,4.4853c1.4065,1.4065 2.1967,3.3142 2.1967,5.3033l0,12.5147c0,0.8284 -0.6716,1.5 -1.5,1.5c-0.8284,0 -1.5,-0.6716 -1.5,-1.5l0,-12.5147c0,-1.1935 -0.4741,-2.3381 -1.318,-3.182l-4.4853,-4.48528c-0.8439,-0.84391 -1.9885,-1.31802 -3.182,-1.31802l-11.5147,0c-2.4853,0 -4.5,2.01472 -4.5,4.5l0,17c0,0.8284 -0.6716,1.5 -1.5,1.5c-0.82843,0 -1.5,-0.6716 -1.5,-1.5l0,-17z" clip-rule="evenodd" fill-rule="evenodd"/>
      <g>
        <path fill="#B480DE" d="m19.12781,13.66628c0.4313,0.345 0.5012,0.9743 0.1562,1.4055l-3.5003,4.3753l3.5003,4.3753c0.345,0.4313 0.2751,1.0606 -0.1562,1.4056c-0.4313,0.345 -1.0606,0.2751 -1.4056,-0.1562l-4,-5c-0.2921,-0.3652 -0.2921,-0.8841 0,-1.2494l4,-5c0.345,-0.4312 0.9743,-0.5011 1.4056,-0.1561z" clip-rule="evenodd" fill-rule="evenodd"/>
        <path fill="#B480DE" d="m29.87841,13.66628c-0.4313,0.345 -0.5012,0.9743 -0.1562,1.4055l3.5003,4.3753l-3.5003,4.3753c-0.345,0.4313 -0.2751,1.0606 0.1562,1.4056c0.4313,0.345 1.0606,0.2751 1.4056,-0.1562l4,-5c0.2921,-0.3652 0.2921,-0.8841 0,-1.2494l-4,-5c-0.345,-0.4312 -0.9743,-0.5011 -1.4056,-0.1561z" clip-rule="evenodd" fill-rule="evenodd"/>
        <path fill="#B480DE" d="m27.89731,11.52818c0.5076,0.2176 0.7428,0.8054 0.5252,1.3131l-6,14c-0.2176,0.5076 -0.8054,0.7428 -1.3131,0.5252c-0.5076,-0.2176 -0.7427,-0.8054 -0.5252,-1.3131l6,-14c0.2176,-0.5076 0.8054,-0.7427 1.3131,-0.5252z" clip-rule="evenodd" fill-rule="evenodd"/>
      </g>
    </g>
  </g>
</svg>
