<svg width="48" height="48" viewBox="0 0 48 48" fill="none" xmlns="http://www.w3.org/2000/svg">
<path fill-rule="evenodd" clip-rule="evenodd" d="M4.5 10C4.5 6.96243 6.96243 4.5 10 4.5H38C41.0376 4.5 43.5 6.96243 43.5 10V18C43.5 18.8284 42.8284 19.5 42 19.5H6C5.17157 19.5 4.5 18.8284 4.5 18V10ZM10 7.5C8.61929 7.5 7.5 8.61929 7.5 10V16.5H40.5V10C40.5 8.61929 39.3807 7.5 38 7.5H10Z" fill="#B480DE"/>
<path fill-rule="evenodd" clip-rule="evenodd" d="M29.2929 13.7071C29.6834 14.0976 30.3166 14.0976 30.7071 13.7071L33 11.4142L35.2929 13.7071C35.6834 14.0976 36.3166 14.0976 36.7071 13.7071C37.0976 13.3166 37.0976 12.6834 36.7071 12.2929L34.2728 9.85858C33.5698 9.15563 32.4302 9.15564 31.7272 9.85858L29.2929 12.2929C28.9024 12.6834 28.9024 13.3166 29.2929 13.7071Z" fill="#B480DE"/>
<path d="M6 18H42V38C42 40.2091 40.2091 42 38 42H10C7.79086 42 6 40.2091 6 38V18Z" fill="#E8E8E8"/>
<path fill-rule="evenodd" clip-rule="evenodd" d="M4.5 18C4.5 17.1716 5.17157 16.5 6 16.5H42C42.8284 16.5 43.5 17.1716 43.5 18V38C43.5 41.0376 41.0376 43.5 38 43.5H10C6.96243 43.5 4.5 41.0376 4.5 38V18ZM7.5 19.5V38C7.5 39.3807 8.61929 40.5 10 40.5H38C39.3807 40.5 40.5 39.3807 40.5 38V19.5H7.5Z" fill="#B480DE"/>
<path fill-rule="evenodd" clip-rule="evenodd" d="M11 24C11 23.4477 11.4477 23 12 23L36 23C36.5523 23 37 23.4477 37 24C37 24.5523 36.5523 25 36 25L12 25C11.4477 25 11 24.5523 11 24Z" fill="#B480DE"/>
<path fill-rule="evenodd" clip-rule="evenodd" d="M11 30C11 29.4477 11.4477 29 12 29L36 29C36.5523 29 37 29.4477 37 30C37 30.5523 36.5523 31 36 31L12 31C11.4477 31 11 30.5523 11 30Z" fill="#B480DE"/>
<path fill-rule="evenodd" clip-rule="evenodd" d="M11 36C11 35.4477 11.4477 35 12 35L36 35C36.5523 35 37 35.4477 37 36C37 36.5523 36.5523 37 36 37L12 37C11.4477 37 11 36.5523 11 36Z" fill="#B480DE"/>
</svg>
