<svg width="48" height="48" viewBox="0 0 48 48" fill="none" xmlns="http://www.w3.org/2000/svg">
<g clip-path="url(#clip0_224_2258)">
<path fill-rule="evenodd" clip-rule="evenodd" d="M21.9991 14.5977C15.7031 14.5977 10.5991 19.7016 10.5991 25.9977C10.5991 32.2937 15.7031 37.3977 21.9991 37.3977C28.2952 37.3977 33.3991 32.2937 33.3991 25.9977C33.3991 24.6599 33.1699 23.3821 32.7512 22.1974L38.4082 20.1979C39.0508 22.0159 39.3991 23.9693 39.3991 25.9977C39.3991 35.6074 31.6089 43.3977 21.9991 43.3977C12.3894 43.3977 4.59912 35.6074 4.59912 25.9977C4.59912 16.3879 12.3894 8.59766 21.9991 8.59766C24.0274 8.59766 25.9809 8.94596 27.7989 9.58852L25.7994 15.2456C24.6147 14.8268 23.3369 14.5977 21.9991 14.5977Z" fill="#B480DE"/>
<path fill-rule="evenodd" clip-rule="evenodd" d="M22.9995 8.99609L22.9995 42.9961L20.9995 42.9961L20.9995 8.99609L22.9995 8.99609Z" fill="white"/>
<path fill-rule="evenodd" clip-rule="evenodd" d="M34.7282 14.6798L10.6865 38.7215L9.27233 37.3073L33.314 13.2656L34.7282 14.6798Z" fill="white"/>
<path fill-rule="evenodd" clip-rule="evenodd" d="M38.9995 26.9961H4.99951V24.9961H38.9995V26.9961Z" fill="white"/>
<path fill-rule="evenodd" clip-rule="evenodd" d="M33.3119 38.7228L9.27023 14.6812L10.6844 13.267L34.7261 37.3086L33.3119 38.7228Z" fill="white"/>
<path fill-rule="evenodd" clip-rule="evenodd" d="M31.709 9.6053C32.0862 9.20197 32.7191 9.18085 33.1224 9.55812L37.5042 13.6569C37.9075 14.0342 37.9287 14.667 37.5514 15.0703L27.9876 25.2945C27.8638 25.4269 27.7064 25.5231 27.5321 25.5729L21.9256 27.175C21.5878 27.2716 21.2242 27.1838 20.9677 26.9438C20.7111 26.7039 20.5993 26.3469 20.6731 26.0035L21.8978 20.3026C21.9359 20.1254 22.0214 19.9619 22.1452 19.8295L31.709 9.6053ZM32.4864 11.7019L23.795 20.9935L22.9786 24.7941L26.7162 23.726L35.4077 14.4344L32.4864 11.7019Z" fill="#B480DE"/>
<path fill-rule="evenodd" clip-rule="evenodd" d="M21.834 29.4494L20.9992 30L20.1643 29.4496C20.3493 29.1689 20.663 29 20.9991 29C21.3352 29 21.6489 29.1688 21.834 29.4494ZM22.9435 32.0541C23.0218 32.4966 23.0464 33.0571 22.8217 33.589C22.677 33.9318 22.4785 34.2861 22.1731 34.5573C21.8353 34.8573 21.4298 35 20.9996 35C20.5695 35 20.1641 34.8573 19.8263 34.5576C19.5206 34.2864 19.3219 33.9321 19.177 33.589C18.9524 33.0572 18.977 32.4967 19.0552 32.0543C19.1359 31.598 19.2943 31.1547 19.4532 30.7855C19.6143 30.4113 19.7898 30.0817 19.9235 29.8473C19.9908 29.7292 20.0489 29.6331 20.091 29.5651C20.1121 29.5311 20.1293 29.5039 20.1417 29.4844L20.1568 29.461L20.1616 29.4538L20.1632 29.4513L20.1643 29.4496C20.1644 29.4494 20.1643 29.4496 20.9992 30C21.834 29.4494 21.8338 29.4492 21.834 29.4494L21.8351 29.4511L21.8367 29.4536L21.8414 29.4608L21.8565 29.4843C21.869 29.5037 21.8862 29.5309 21.9073 29.5649C21.9495 29.6329 22.0075 29.729 22.0749 29.8471C22.2087 30.0815 22.3842 30.4111 22.5453 30.7853C22.7043 31.1545 22.8628 31.5978 22.9435 32.0541Z" fill="#B480DE"/>
<path fill-rule="evenodd" clip-rule="evenodd" d="M34.4414 6.68343C34.8187 6.28009 35.4515 6.25897 35.8548 6.63625L40.2366 10.735C40.64 11.1123 40.6611 11.7451 40.2838 12.1484L37.5513 15.0696C37.174 15.473 36.5412 15.4941 36.1379 15.1168L31.7561 11.0181C31.3527 10.6408 31.3316 10.008 31.7089 9.60463L34.4414 6.68343ZM35.2189 8.77998L33.8526 10.2406L36.7738 12.9731L38.1401 11.5125L35.2189 8.77998Z" fill="#B480DE"/>
<path fill-rule="evenodd" clip-rule="evenodd" d="M30.248 8.23811C30.6253 7.83478 31.2581 7.81366 31.6615 8.19094L38.9645 15.0222C39.3678 15.3995 39.3889 16.0323 39.0116 16.4356C38.6344 16.8389 38.0016 16.8601 37.5982 16.4828L30.2952 9.65154C29.8919 9.27426 29.8707 8.64145 30.248 8.23811Z" fill="#B480DE"/>
</g>
<defs>
<clipPath id="clip0_224_2258">
<rect width="48" height="48" fill="white"/>
</clipPath>
</defs>
</svg>
