<svg width="48" height="48" viewBox="0 0 48 48" fill="none" xmlns="http://www.w3.org/2000/svg">
<rect x="10" y="22" width="18" height="6" rx="0.2" stroke="#B480DE"/>
<path d="M6 10C6 7.79086 7.79086 6 10 6H38C40.2091 6 42 7.79086 42 10V38C42 40.2091 40.2091 42 38 42H10C7.79086 42 6 40.2091 6 38V10Z" fill="white"/>
<path fill-rule="evenodd" clip-rule="evenodd" d="M4.5 10C4.5 6.96243 6.96243 4.5 10 4.5H38C41.0376 4.5 43.5 6.96243 43.5 10V38C43.5 41.0376 41.0376 43.5 38 43.5H10C6.96243 43.5 4.5 41.0376 4.5 38V10ZM10 7.5C8.61929 7.5 7.5 8.61929 7.5 10V38C7.5 39.3807 8.61929 40.5 10 40.5H38C39.3807 40.5 40.5 39.3807 40.5 38V10C40.5 8.61929 39.3807 7.5 38 7.5H10Z" fill="#B480DE"/>
<path fill-rule="evenodd" clip-rule="evenodd" d="M31 27.0111C31 26.4527 31.6268 26 32.4 26H37.6C38.3732 26 39 26.4527 39 27.0111V37.9889C39 38.5473 38.3732 39 37.6 39H32.4C31.6268 39 31 38.5473 31 37.9889V27.0111ZM32.4 27.4444V37.5556H37.6V27.4444H32.4Z" fill="#B480DE"/>
<path fill-rule="evenodd" clip-rule="evenodd" d="M31 10.1667C31 9.52233 31.6268 9 32.4 9H37.6C38.3732 9 39 9.52233 39 10.1667V22.8333C39 23.4777 38.3732 24 37.6 24H32.4C31.6268 24 31 23.4777 31 22.8333V10.1667ZM32.4 10.5V22.5H37.6V10.5H32.4Z" fill="#B480DE"/>
<path fill-rule="evenodd" clip-rule="evenodd" d="M8.99992 27.0115C8.99992 26.4531 9.22672 26 9.99992 26L15.9999 26.0004C16.7731 26.0004 16.9999 26.4531 16.9999 27.0115V37.9893C16.9999 38.5477 16.7731 39.0004 15.9999 39.0004H9.99992C9.22672 39.0004 8.99992 38.5477 8.99992 37.9893V27.0115ZM10.5 27.4448V37.5559H15.5V27.4448H10.5Z" fill="#B480DE"/>
<path fill-rule="evenodd" clip-rule="evenodd" d="M18 27.0111C18 26.4527 18.0402 26 19.2 26H28.8C29.9598 26 30 26.4527 30 27.0111V37.9889C30 38.5473 29.9598 39 28.8 39H19.2C18.0402 39 18 38.5473 18 37.9889V27.0111ZM19.5 27.4444V37.5556H28.5V27.4444H19.5Z" fill="#B480DE"/>
<path fill-rule="evenodd" clip-rule="evenodd" d="M26.872 9C28.8026 9 28.9746 9.4701 28.9746 10.05L28.9746 22.95C28.9746 23.5299 28.8026 24 26.872 24L11.1026 24C9.17207 24 9.00003 23.5299 9.00003 22.95L9.00003 10.05C9.00003 9.4701 8.92369 9 10.8542 9L26.872 9ZM27.4746 10.5L10.4746 10.5L10.4746 22.5L27.4746 22.5L27.4746 10.5Z" fill="#B480DE"/>
</svg>
