<svg width="48" height="48" viewBox="0 0 48 48" fill="none" xmlns="http://www.w3.org/2000/svg">
<rect width="48" height="48" fill="white"/>
<path d="M6 14C6 10.6863 8.68629 8 12 8H36C39.3137 8 42 10.6863 42 14V28C42 31.3137 39.3137 34 36 34C34.9542 34 33.9109 34 33 34C31.2426 34 28.5 34 28.5 34H24.7016C24.2474 34 23.8068 34.1546 23.4522 34.4383L15.2998 40.9602C14.7759 41.3792 14 41.0063 14 40.3355V35.5616C14 34.6438 13.3754 33.8439 12.4851 33.6213L10.5448 33.1362C7.87378 32.4684 6 30.0685 6 27.3153V26V21V14Z" fill="#E8E8E8"/>
<path fill-rule="evenodd" clip-rule="evenodd" d="M4.5 14C4.5 9.85786 7.85786 6.5 12 6.5H36C40.1421 6.5 43.5 9.85786 43.5 14V28C43.5 32.1421 40.1421 35.5 36 35.5H28.5015L28.5 34L28.5 32.5H36C38.4853 32.5 40.5 30.4853 40.5 28V14C40.5 11.5147 38.4853 9.5 36 9.5H12C9.51472 9.5 7.5 11.5147 7.5 14V27.3153C7.5 29.3802 8.90534 31.1802 10.9086 31.681L12.8489 32.1661C14.407 32.5556 15.5 33.9555 15.5 35.5616V38.8791L22.5151 33.267C23.1357 32.7705 23.9068 32.5 24.7016 32.5H28.5L28.5 34L28.5015 35.5H24.7016C24.588 35.5 24.4779 35.5386 24.3892 35.6096L16.2368 42.1315C14.7308 43.3363 12.5 42.2641 12.5 40.3355V35.5616C12.5 35.3321 12.3439 35.1321 12.1213 35.0765L10.181 34.5914C6.84223 33.7567 4.5 30.7568 4.5 27.3153V14Z" fill="#B480DE"/>
<path fill-rule="evenodd" clip-rule="evenodd" d="M13 17C13 16.4477 13.4477 16 14 16H34C34.5523 16 35 16.4477 35 17C35 17.5523 34.5523 18 34 18H14C13.4477 18 13 17.5523 13 17Z" fill="#B480DE"/>
<path fill-rule="evenodd" clip-rule="evenodd" d="M13 25C13 24.4477 13.4477 24 14 24H26C26.5523 24 27 24.4477 27 25C27 25.5523 26.5523 26 26 26H14C13.4477 26 13 25.5523 13 25Z" fill="#B480DE"/>
</svg>
