<svg width="48" height="48" viewBox="0 0 48 48" fill="none" xmlns="http://www.w3.org/2000/svg">
<path d="M6 20.6667C6 19.1939 7.79086 18 10 18H38C40.2091 18 42 19.1939 42 20.6667V39.3333C42 40.8061 40.2091 42 38 42H10C7.79086 42 6 40.8061 6 39.3333V20.6667Z" fill="#E8E8E8"/>
<path fill-rule="evenodd" clip-rule="evenodd" d="M4.5 10C4.5 6.96243 6.96243 4.5 10 4.5H38C41.0376 4.5 43.5 6.96243 43.5 10V38C43.5 41.0376 41.0376 43.5 38 43.5H10C6.96243 43.5 4.5 41.0376 4.5 38V10ZM10 7.5C8.61929 7.5 7.5 8.61929 7.5 10V38C7.5 39.3807 8.61929 40.5 10 40.5H38C39.3807 40.5 40.5 39.3807 40.5 38V10C40.5 8.61929 39.3807 7.5 38 7.5H10Z" fill="#B480DE"/>
<path fill-rule="evenodd" clip-rule="evenodd" d="M5 18C5 17.4477 5.44772 17 6 17L42 17C42.5523 17 43 17.4477 43 18C43 18.5523 42.5523 19 42 19L6 19C5.44772 19 5 18.5523 5 18Z" fill="#B480DE"/>
<path fill-rule="evenodd" clip-rule="evenodd" d="M11 12C11 11.4477 11.4477 11 12 11H22C22.5523 11 23 11.4477 23 12C23 12.5523 22.5523 13 22 13H12C11.4477 13 11 12.5523 11 12Z" fill="#B480DE"/>
</svg>
