<svg width="48" height="48" viewBox="0 0 48 48" fill="none" xmlns="http://www.w3.org/2000/svg">
<path d="M6 12C6 9.79086 7.79086 8 10 8H38C40.2091 8 42 9.79086 42 12V38C42 40.2091 40.2091 42 38 42H10C7.79086 42 6 40.2091 6 38V12Z" fill="#E8E8E8"/>
<path fill-rule="evenodd" clip-rule="evenodd" d="M4.5 12C4.5 8.96243 6.96243 6.5 10 6.5H38C41.0376 6.5 43.5 8.96243 43.5 12V38C43.5 41.0376 41.0376 43.5 38 43.5H10C6.96243 43.5 4.5 41.0376 4.5 38V12ZM10 9.5C8.61929 9.5 7.5 10.6193 7.5 12V38C7.5 39.3807 8.61929 40.5 10 40.5H38C39.3807 40.5 40.5 39.3807 40.5 38V12C40.5 10.6193 39.3807 9.5 38 9.5H10Z" fill="#B480DE"/>
<path fill-rule="evenodd" clip-rule="evenodd" d="M42 17H6V15H42V17Z" fill="#B480DE"/>
<path fill-rule="evenodd" clip-rule="evenodd" d="M18.6247 23.2192C19.056 23.5642 19.1259 24.1935 18.7809 24.6247L15.2806 29L18.7809 33.3753C19.1259 33.8066 19.056 34.4359 18.6247 34.7809C18.1934 35.1259 17.5641 35.056 17.2191 34.6247L13.2191 29.6247C12.927 29.2595 12.927 28.7406 13.2191 28.3753L17.2191 23.3753C17.5641 22.9441 18.1934 22.8742 18.6247 23.2192Z" fill="#B480DE"/>
<path fill-rule="evenodd" clip-rule="evenodd" d="M29.3753 23.2192C28.944 23.5642 28.8741 24.1935 29.2191 24.6247L32.7194 29L29.2191 33.3753C28.8741 33.8066 28.944 34.4359 29.3753 34.7809C29.8066 35.1259 30.4359 35.056 30.7809 34.6247L34.7809 29.6247C35.073 29.2595 35.073 28.7406 34.7809 28.3753L30.7809 23.3753C30.4359 22.9441 29.8066 22.8742 29.3753 23.2192Z" fill="#B480DE"/>
<path fill-rule="evenodd" clip-rule="evenodd" d="M27.3942 21.0811C27.9018 21.2987 28.137 21.8865 27.9194 22.3942L21.9194 36.3942C21.7018 36.9018 21.114 37.137 20.6063 36.9194C20.0987 36.7018 19.8636 36.114 20.0811 35.6063L26.0811 21.6063C26.2987 21.0987 26.8865 20.8636 27.3942 21.0811Z" fill="#B480DE"/>
</svg>
