<svg width="48" height="48" viewBox="0 0 48 48" fill="none" xmlns="http://www.w3.org/2000/svg">
<path d="M6 14C6 11.7909 7.79086 10 10 10H38C40.2091 10 42 11.7909 42 14V38C42 40.2091 40.2091 42 38 42H10C7.79086 42 6 40.2091 6 38V14Z" fill="#E8E8E8"/>
<path fill-rule="evenodd" clip-rule="evenodd" d="M4.5 14C4.5 10.9624 6.96243 8.5 10 8.5H38C41.0376 8.5 43.5 10.9624 43.5 14V38C43.5 41.0376 41.0376 43.5 38 43.5H10C6.96243 43.5 4.5 41.0376 4.5 38V14ZM10 11.5C8.61929 11.5 7.5 12.6193 7.5 14V38C7.5 39.3807 8.61929 40.5 10 40.5H38C39.3807 40.5 40.5 39.3807 40.5 38V14C40.5 12.6193 39.3807 11.5 38 11.5H10Z" fill="#B480DE"/>
<path fill-rule="evenodd" clip-rule="evenodd" d="M16 4.5C16.8284 4.5 17.5 5.17157 17.5 6V13.4492C17.5 14.2776 16.8284 14.9492 16 14.9492C15.1716 14.9492 14.5 14.2776 14.5 13.4492V6C14.5 5.17157 15.1716 4.5 16 4.5Z" fill="#B480DE"/>
<path fill-rule="evenodd" clip-rule="evenodd" d="M32 4.5C32.8284 4.5 33.5 5.17157 33.5 6V13.4492C33.5 14.2776 32.8284 14.9492 32 14.9492C31.1716 14.9492 30.5 14.2776 30.5 13.4492V6C30.5 5.17157 31.1716 4.5 32 4.5Z" fill="#B480DE"/>
<path d="M11 20C11 18.8954 11.8954 18 13 18H35C36.1046 18 37 18.8954 37 20V24C37 25.1046 36.1046 26 35 26H13C11.8954 26 11 25.1046 11 24V20Z" fill="white"/>
<path fill-rule="evenodd" clip-rule="evenodd" d="M10 20C10 18.3431 11.3431 17 13 17H35C36.6569 17 38 18.3431 38 20V24C38 25.6569 36.6569 27 35 27H13C11.3431 27 10 25.6569 10 24V20ZM13 19C12.4477 19 12 19.4477 12 20V24C12 24.5523 12.4477 25 13 25H35C35.5523 25 36 24.5523 36 24V20C36 19.4477 35.5523 19 35 19H13Z" fill="#B480DE"/>
<path fill-rule="evenodd" clip-rule="evenodd" d="M14 22C14 20.8954 14.8954 20 16 20H16.0002C17.1048 20 18.0002 20.8954 18.0002 22C18.0002 23.1046 17.1048 24 16.0002 24H16C14.8954 24 14 23.1046 14 22Z" fill="#B480DE"/>
<path fill-rule="evenodd" clip-rule="evenodd" d="M22 22C22 20.8954 22.8954 20 24 20H24.0002C25.1048 20 26.0002 20.8954 26.0002 22C26.0002 23.1046 25.1048 24 24.0002 24H24C22.8954 24 22 23.1046 22 22Z" fill="#B480DE"/>
<path fill-rule="evenodd" clip-rule="evenodd" d="M30 22C30 20.8954 30.8954 20 32 20H32.0002C33.1048 20 34.0002 20.8954 34.0002 22C34.0002 23.1046 33.1048 24 32.0002 24H32C30.8954 24 30 23.1046 30 22Z" fill="#B480DE"/>
<path fill-rule="evenodd" clip-rule="evenodd" d="M14 32C14 30.8954 14.8954 30 16 30H16.0002C17.1048 30 18.0002 30.8954 18.0002 32C18.0002 33.1046 17.1048 34 16.0002 34H16C14.8954 34 14 33.1046 14 32Z" fill="#B480DE"/>
<path fill-rule="evenodd" clip-rule="evenodd" d="M22 32C22 30.8954 22.8954 30 24 30H24.0002C25.1048 30 26.0002 30.8954 26.0002 32C26.0002 33.1046 25.1048 34 24.0002 34H24C22.8954 34 22 33.1046 22 32Z" fill="#B480DE"/>
</svg>
