<svg width="48" height="48" viewBox="0 0 48 48" fill="none" xmlns="http://www.w3.org/2000/svg">
<path d="M6 14C6 11.7909 7.79086 10 10 10H38C40.2091 10 42 11.7909 42 14V38C42 40.2091 40.2091 42 38 42H10C7.79086 42 6 40.2091 6 38V14Z" fill="#E8E8E8"/>
<path fill-rule="evenodd" clip-rule="evenodd" d="M4.5 14C4.5 10.9624 6.96243 8.5 10 8.5H38C41.0376 8.5 43.5 10.9624 43.5 14V38C43.5 41.0376 41.0376 43.5 38 43.5H10C6.96243 43.5 4.5 41.0376 4.5 38V14ZM10 11.5C8.61929 11.5 7.5 12.6193 7.5 14V38C7.5 39.3807 8.61929 40.5 10 40.5H38C39.3807 40.5 40.5 39.3807 40.5 38V14C40.5 12.6193 39.3807 11.5 38 11.5H10Z" fill="#B480DE"/>
<path fill-rule="evenodd" clip-rule="evenodd" d="M16 4.5C16.8284 4.5 17.5 5.17157 17.5 6V13.4492C17.5 14.2776 16.8284 14.9492 16 14.9492C15.1716 14.9492 14.5 14.2776 14.5 13.4492V6C14.5 5.17157 15.1716 4.5 16 4.5Z" fill="#B480DE"/>
<path fill-rule="evenodd" clip-rule="evenodd" d="M32 4.5C32.8284 4.5 33.5 5.17157 33.5 6V13.4492C33.5 14.2776 32.8284 14.9492 32 14.9492C31.1716 14.9492 30.5 14.2776 30.5 13.4492V6C30.5 5.17157 31.1716 4.5 32 4.5Z" fill="#B480DE"/>
<path fill-rule="evenodd" clip-rule="evenodd" d="M12 22C12 20.8954 12.814 20 13.8182 20H14.1818C15.186 20 16 20.8954 16 22C16 23.1046 15.186 24 14.1818 24H13.8182C12.814 24 12 23.1046 12 22Z" fill="#B480DE"/>
<path fill-rule="evenodd" clip-rule="evenodd" d="M22 22C22 20.8954 22.814 20 23.8182 20H24.1818C25.186 20 26 20.8954 26 22C26 23.1046 25.186 24 24.1818 24H23.8182C22.814 24 22 23.1046 22 22Z" fill="#B480DE"/>
<path fill-rule="evenodd" clip-rule="evenodd" d="M32 22C32 20.8954 32.814 20 33.8182 20H34.1818C35.186 20 36 20.8954 36 22C36 23.1046 35.186 24 34.1818 24H33.8182C32.814 24 32 23.1046 32 22Z" fill="#B480DE"/>
<path fill-rule="evenodd" clip-rule="evenodd" d="M12 31C12 29.8954 12.814 29 13.8182 29H14.1818C15.186 29 16 29.8954 16 31C16 32.1046 15.186 33 14.1818 33H13.8182C12.814 33 12 32.1046 12 31Z" fill="#B480DE"/>
<path d="M20 28C20 26.8954 20.8954 26 22 26H26C27.1046 26 28 26.8954 28 28V32C28 33.1046 27.1046 34 26 34H22C20.8954 34 20 33.1046 20 32V28Z" fill="white"/>
<path fill-rule="evenodd" clip-rule="evenodd" d="M19 29C19 27.3431 20.3431 26 22 26H26C27.6569 26 29 27.3431 29 29V33C29 34.6569 27.6569 36 26 36H22C20.3431 36 19 34.6569 19 33V29ZM22 28C21.4477 28 21 28.4477 21 29V33C21 33.5523 21.4477 34 22 34H26C26.5523 34 27 33.5523 27 33V29C27 28.4477 26.5523 28 26 28H22Z" fill="#B480DE"/>
<path fill-rule="evenodd" clip-rule="evenodd" d="M22 31C22 29.8954 22.8954 29 24 29H24.0002C25.1048 29 26.0002 29.8954 26.0002 31C26.0002 32.1046 25.1048 33 24.0002 33H24C22.8954 33 22 32.1046 22 31Z" fill="#B480DE"/>
</svg>
