<svg width="48" height="48" viewBox="0 0 48 48" fill="none" xmlns="http://www.w3.org/2000/svg">
<path d="M6 14C6 11.7909 7.79086 10 10 10H38C40.2091 10 42 11.7909 42 14V38C42 40.2091 40.2091 42 38 42H10C7.79086 42 6 40.2091 6 38V14Z" fill="#E8E8E8"/>
<path fill-rule="evenodd" clip-rule="evenodd" d="M4.5 14C4.5 10.9624 6.96243 8.5 10 8.5H38C41.0376 8.5 43.5 10.9624 43.5 14V38C43.5 41.0376 41.0376 43.5 38 43.5H10C6.96243 43.5 4.5 41.0376 4.5 38V14ZM10 11.5C8.61929 11.5 7.5 12.6193 7.5 14V38C7.5 39.3807 8.61929 40.5 10 40.5H38C39.3807 40.5 40.5 39.3807 40.5 38V14C40.5 12.6193 39.3807 11.5 38 11.5H10Z" fill="#B480DE"/>
<path fill-rule="evenodd" clip-rule="evenodd" d="M32 4.5C32.8284 4.5 33.5 5.17157 33.5 6V13.4492C33.5 14.2776 32.8284 14.9492 32 14.9492C31.1716 14.9492 30.5 14.2776 30.5 13.4492V6C30.5 5.17157 31.1716 4.5 32 4.5Z" fill="#B480DE"/>
<path fill-rule="evenodd" clip-rule="evenodd" d="M16 4.5C16.8284 4.5 17.5 5.17157 17.5 6V13.4492C17.5 14.2776 16.8284 14.9492 16 14.9492C15.1716 14.9492 14.5 14.2776 14.5 13.4492V6C14.5 5.17157 15.1716 4.5 16 4.5Z" fill="#B480DE"/>
<path fill-rule="evenodd" clip-rule="evenodd" d="M9 26C9 25.4477 9.44772 25 10 25L12 25C12.5523 25 13 25.4477 13 26C13 26.5523 12.5523 27 12 27L10 27C9.44772 27 9 26.5523 9 26Z" fill="#B480DE"/>
<path fill-rule="evenodd" clip-rule="evenodd" d="M33 26C33 25.4477 33.4477 25 34 25L38 25C38.5523 25 39 25.4477 39 26C39 26.5523 38.5523 27 38 27L34 27C33.4477 27 33 26.5523 33 26Z" fill="#B480DE"/>
<path fill-rule="evenodd" clip-rule="evenodd" d="M17 23L29 23V25L17 25V23Z" fill="#B480DE"/>
<path fill-rule="evenodd" clip-rule="evenodd" d="M17 28C17 27.4477 17.4477 27 18 27L28 27C28.5523 27 29 27.4477 29 28C29 28.5523 28.5523 29 28 29L18 29C17.4477 29 17 28.5523 17 28Z" fill="#B480DE"/>
<path d="M19 26C19 27.6569 17.6569 29 16 29C14.3431 29 13 27.6569 13 26C13 24.3431 14.3431 23 16 23C17.6569 23 19 24.3431 19 26Z" fill="white"/>
<path fill-rule="evenodd" clip-rule="evenodd" d="M16 24C14.8954 24 14 24.8954 14 26C14 27.1046 14.8954 28 16 28C17.1046 28 18 27.1046 18 26C18 24.8954 17.1046 24 16 24ZM12 26C12 23.7909 13.7909 22 16 22C18.2091 22 20 23.7909 20 26C20 28.2091 18.2091 30 16 30C13.7909 30 12 28.2091 12 26Z" fill="#B480DE"/>
<path d="M34 26C34 27.6569 32.6569 29 31 29C29.3431 29 28 27.6569 28 26C28 24.3431 29.3431 23 31 23C32.6569 23 34 24.3431 34 26Z" fill="white"/>
<path fill-rule="evenodd" clip-rule="evenodd" d="M31 24C29.8954 24 29 24.8954 29 26C29 27.1046 29.8954 28 31 28C32.1046 28 33 27.1046 33 26C33 24.8954 32.1046 24 31 24ZM27 26C27 23.7909 28.7909 22 31 22C33.2091 22 35 23.7909 35 26C35 28.2091 33.2091 30 31 30C28.7909 30 27 28.2091 27 26Z" fill="#B480DE"/>
</svg>
