<svg width="48" height="48" viewBox="0 0 48 48" fill="none" xmlns="http://www.w3.org/2000/svg">
<path fill-rule="evenodd" clip-rule="evenodd" d="M9 4V14C9 15.6569 10.3431 17 12 17H36C37.6569 17 39 15.6569 39 14V4H41V14C41 16.7614 38.7614 19 36 19H12C9.23858 19 7 16.7614 7 14V4H9Z" fill="#B480DE"/>
<path fill-rule="evenodd" clip-rule="evenodd" d="M9 44V34C9 32.3431 10.3431 31 12 31H36C37.6569 31 39 32.3431 39 34V44H41V34C41 31.2386 38.7614 29 36 29H12C9.23858 29 7 31.2386 7 34V44H9Z" fill="#B480DE"/>
<path fill-rule="evenodd" clip-rule="evenodd" d="M6.5 24C6.5 23.1716 7.17157 22.5 8 22.5H40C40.8284 22.5 41.5 23.1716 41.5 24C41.5 24.8284 40.8284 25.5 40 25.5H8C7.17157 25.5 6.5 24.8284 6.5 24Z" fill="#B480DE"/>
</svg>
