<svg width="48" height="48" viewBox="0 0 48 48" fill="none" xmlns="http://www.w3.org/2000/svg">
<path d="M6 10C6 7.79086 7.79086 6 10 6H38C40.2091 6 42 7.79086 42 10V38C42 40.2091 40.2091 42 38 42H10C7.79086 42 6 40.2091 6 38V10Z" fill="#E8E8E8"/>
<path fill-rule="evenodd" clip-rule="evenodd" d="M4.5 10C4.5 6.96243 6.96243 4.5 10 4.5H38C41.0376 4.5 43.5 6.96243 43.5 10V38C43.5 41.0376 41.0376 43.5 38 43.5H10C6.96243 43.5 4.5 41.0376 4.5 38V10ZM10 7.5C8.61929 7.5 7.5 8.61929 7.5 10V38C7.5 39.3807 8.61929 40.5 10 40.5H38C39.3807 40.5 40.5 39.3807 40.5 38V10C40.5 8.61929 39.3807 7.5 38 7.5H10Z" fill="#B480DE"/>
<path d="M18 6H38C40.2091 6 42 7.79086 42 10V38C42 40.2091 40.2091 42 38 42H18V6Z" fill="white"/>
<path fill-rule="evenodd" clip-rule="evenodd" d="M17 5H38C40.7614 5 43 7.23858 43 10V38C43 40.7614 40.7614 43 38 43H17V5ZM19 7V41H38C39.6569 41 41 39.6569 41 38V10C41 8.34315 39.6569 7 38 7H19Z" fill="#B480DE"/>
<path fill-rule="evenodd" clip-rule="evenodd" d="M21.2627 9.36801C21.6359 8.96089 22.2685 8.93339 22.6756 9.30659L25.6242 12.0095C26.0314 12.3827 26.0589 13.0153 25.6857 13.4224C25.3125 13.8295 24.6799 13.857 24.2728 13.4838L21.3242 10.7809C20.9171 10.4077 20.8896 9.77513 21.2627 9.36801Z" fill="#B480DE"/>
<path fill-rule="evenodd" clip-rule="evenodd" d="M21.3245 13.488C20.9393 13.0923 20.9478 12.4592 21.3435 12.0739L24.2097 9.28377C24.6054 8.89852 25.2385 8.90703 25.6237 9.30276C26.009 9.6985 26.0005 10.3316 25.6048 10.7169L22.7386 13.507C22.3428 13.8923 21.7097 13.8838 21.3245 13.488Z" fill="#B480DE"/>
<path fill-rule="evenodd" clip-rule="evenodd" d="M18 5C18.5523 5 19 5.44772 19 6L19 42C19 42.5523 18.5523 43 18 43C17.4477 43 17 42.5523 17 42L17 6C17 5.44772 17.4477 5 18 5Z" fill="#B480DE"/>
<path fill-rule="evenodd" clip-rule="evenodd" d="M23 24C23 23.4477 23.4477 23 24 23L36 23C36.5523 23 37 23.4477 37 24C37 24.5523 36.5523 25 36 25L24 25C23.4477 25 23 24.5523 23 24Z" fill="#B480DE"/>
<path fill-rule="evenodd" clip-rule="evenodd" d="M23 30C23 29.4477 23.4477 29 24 29L28 29C28.5523 29 29 29.4477 29 30C29 30.5523 28.5523 31 28 31L24 31C23.4477 31 23 30.5523 23 30Z" fill="#B480DE"/>
<path fill-rule="evenodd" clip-rule="evenodd" d="M17 16C17 15.4477 17.4477 15 18 15H41.4667C42.019 15 42.4667 15.4477 42.4667 16C42.4667 16.5523 42.019 17 41.4667 17H18C17.4477 17 17 16.5523 17 16Z" fill="#B480DE"/>
</svg>
