<svg width="48" height="48" viewBox="0 0 48 48" fill="none" xmlns="http://www.w3.org/2000/svg">
<path fill-rule="evenodd" clip-rule="evenodd" d="M2.5 20C2.5 16.9624 4.96243 14.5 8 14.5H40C43.0376 14.5 45.5 16.9624 45.5 20V28C45.5 31.0376 43.0376 33.5 40 33.5H8C4.96244 33.5 2.5 31.0376 2.5 28V20ZM8 17.5C6.61929 17.5 5.5 18.6193 5.5 20V28C5.5 29.3807 6.61929 30.5 8 30.5H40C41.3807 30.5 42.5 29.3807 42.5 28V20C42.5 18.6193 41.3807 17.5 40 17.5H8Z" fill="#B480DE"/>
<path fill-rule="evenodd" clip-rule="evenodd" d="M31.2929 22.2929C31.6834 21.9024 32.3166 21.9024 32.7071 22.2929L35 24.5858L37.2929 22.2929C37.6834 21.9024 38.3166 21.9024 38.7071 22.2929C39.0976 22.6834 39.0976 23.3166 38.7071 23.7071L36.2728 26.1414C35.5698 26.8444 34.4302 26.8444 33.7272 26.1414L31.2929 23.7071C30.9024 23.3166 30.9024 22.6834 31.2929 22.2929Z" fill="#B480DE"/>
</svg>
