<svg width="48" height="48" viewBox="0 0 48 48" fill="none" xmlns="http://www.w3.org/2000/svg">
<path d="M6 12C6 9.79086 7.79086 8 10 8H38C40.2091 8 42 9.79086 42 12V32C42 34.2091 40.2091 36 38 36H10C7.79086 36 6 34.2091 6 32V12Z" fill="#E8E8E8"/>
<path fill-rule="evenodd" clip-rule="evenodd" d="M4.5 12C4.5 8.96243 6.96243 6.5 10 6.5H38C41.0376 6.5 43.5 8.96243 43.5 12V32C43.5 35.0376 41.0376 37.5 38 37.5H10C6.96243 37.5 4.5 35.0376 4.5 32V12ZM10 9.5C8.61929 9.5 7.5 10.6193 7.5 12V32C7.5 33.3807 8.61929 34.5 10 34.5H38C39.3807 34.5 40.5 33.3807 40.5 32V12C40.5 10.6193 39.3807 9.5 38 9.5H10Z" fill="#B480DE"/>
<path fill-rule="evenodd" clip-rule="evenodd" d="M42 17.5H6V14.5H42V17.5Z" fill="#B480DE"/>
<path fill-rule="evenodd" clip-rule="evenodd" d="M24 34.5C24.8284 34.5 25.5 35.1716 25.5 36L25.5 40C25.5 40.8284 24.8284 41.5 24 41.5C23.1716 41.5 22.5 40.8284 22.5 40L22.5 36C22.5 35.1716 23.1716 34.5 24 34.5Z" fill="#B480DE"/>
<path fill-rule="evenodd" clip-rule="evenodd" d="M16.5 42C16.5 41.1716 17.1716 40.5 18 40.5H30C30.8284 40.5 31.5 41.1716 31.5 42C31.5 42.8284 30.8284 43.5 30 43.5H18C17.1716 43.5 16.5 42.8284 16.5 42Z" fill="#B480DE"/>
<path fill-rule="evenodd" clip-rule="evenodd" d="M23.9992 21.3172L19.6985 25.0036C20.4254 25.0545 20.9992 25.6603 20.9992 26.4001V31.0001H26.9992V26.4001C26.9992 25.6603 27.5731 25.0545 28.3 25.0036L23.9992 21.3172ZM23.0881 19.464C23.6124 19.0146 24.3861 19.0146 24.9103 19.464L30.829 24.5372C31.8159 25.383 31.2177 27.0001 29.9179 27.0001H28.9992V31.6001C28.9992 32.3733 28.3724 33.0001 27.5992 33.0001H20.3992C19.626 33.0001 18.9992 32.3733 18.9992 31.6001V27.0001H18.0805C16.7808 27.0001 16.1826 25.383 17.1694 24.5372L23.0881 19.464Z" fill="#B480DE"/>
<path d="M38.5996 12.0996C38.5996 12.8175 38.0177 13.3994 37.2998 13.3994C36.5819 13.3994 36 12.8175 36 12.0996C36 11.3817 36.5819 10.7998 37.2998 10.7998C38.0177 10.7998 38.5996 11.3817 38.5996 12.0996Z" fill="#B480DE"/>
<path d="M34.5996 12.0996C34.5996 12.8175 34.0177 13.3994 33.2998 13.3994C32.5819 13.3994 32 12.8175 32 12.0996C32 11.3817 32.5819 10.7998 33.2998 10.7998C34.0177 10.7998 34.5996 11.3817 34.5996 12.0996Z" fill="#B480DE"/>
</svg>
