<svg width="48" height="48" viewBox="0 0 48 48" fill="none" xmlns="http://www.w3.org/2000/svg">
<path d="M9.5 9.5C9.5 7.29086 11.2909 5.5 13.5 5.5H23.5H27.8431C28.904 5.5 29.9214 5.92143 30.6716 6.67157L36.3284 12.3284C37.0786 13.0786 37.5 14.096 37.5 15.1569V23.5V37.5C37.5 39.7091 35.7091 41.5 33.5 41.5H13.5C11.2909 41.5 9.5 39.7091 9.5 37.5V9.5Z" fill="#E8E8E8"/>
<path fill-rule="evenodd" clip-rule="evenodd" d="M13.5 7C12.1193 7 11 8.11929 11 9.5V37.5C11 38.8807 12.1193 40 13.5 40H33.5C34.8807 40 36 38.8807 36 37.5V15.1569C36 14.4938 35.7366 13.8579 35.2678 13.3891L29.6109 7.73223C29.1421 7.26339 28.5062 7 27.8431 7H13.5ZM8 9.5C8 6.46243 10.4624 4 13.5 4H27.8431C29.3018 4 30.7008 4.57946 31.7322 5.61091L37.3891 11.2678C38.4205 12.2992 39 13.6982 39 15.1569V37.5C39 40.5376 36.5376 43 33.5 43H13.5C10.4624 43 8 40.5376 8 37.5V9.5Z" fill="#B480DE"/>
<path fill-rule="evenodd" clip-rule="evenodd" d="M25.5 4C26.3284 4 27 4.67157 27 5.5V13.5C27 14.8807 28.1193 16 29.5 16H37.5C38.3284 16 39 16.6716 39 17.5C39 18.3284 38.3284 19 37.5 19H29.5C26.4624 19 24 16.5376 24 13.5V5.5C24 4.67157 24.6716 4 25.5 4Z" fill="#B480DE"/>
<path fill-rule="evenodd" clip-rule="evenodd" d="M23.5 22.5C24.0523 22.5 24.5 22.9477 24.5 23.5L24.5 35.5C24.5 36.0523 24.0523 36.5 23.5 36.5C22.9477 36.5 22.5 36.0523 22.5 35.5L22.5 23.5C22.5 22.9477 22.9477 22.5 23.5 22.5Z" fill="#B480DE"/>
<path fill-rule="evenodd" clip-rule="evenodd" d="M24.2071 23.621C23.8166 23.2305 23.1834 23.2305 22.7929 23.621L18.2071 28.2068C17.8166 28.5973 17.1834 28.5973 16.7929 28.2068C16.4024 27.8163 16.4024 27.1831 16.7929 26.7926L21.3787 22.2068C22.5503 21.0352 24.4497 21.0352 25.6213 22.2068L30.2071 26.7926C30.5976 27.1831 30.5976 27.8163 30.2071 28.2068C29.8166 28.5973 29.1834 28.5973 28.7929 28.2068L24.2071 23.621Z" fill="#B480DE"/>
</svg>
