<svg width="24" height="24" viewBox="0 0 24 24" fill="none" xmlns="http://www.w3.org/2000/svg">
<path d="M5 5C5 3.89543 5.89543 3 7 3H12H14.1716C14.702 3 15.2107 3.21071 15.5858 3.58579L18.4142 6.41421C18.7893 6.78929 19 7.29799 19 7.82843V12V19C19 20.1046 18.1046 21 17 21H7C5.89543 21 5 20.1046 5 19V5Z" stroke="black" stroke-width="1.5"/>
<path d="M13 3V7C13 8.10457 13.8954 9 15 9H19" stroke="black" stroke-width="1.5" stroke-linecap="round" stroke-linejoin="round"/>
<path d="M8.69179 13.5278C9.23952 12.3459 10.5054 11.5 12 11.5V10.5C10.128 10.5 8.50103 11.5612 7.78449 13.1073L8.69179 13.5278ZM12 11.5C13.4946 11.5 14.7605 12.3459 15.3082 13.5278L16.2155 13.1073C15.499 11.5612 13.872 10.5 12 10.5V11.5ZM12 16.5C10.5054 16.5 9.23952 15.6541 8.69179 14.4722L7.78449 14.8927C8.50102 16.4388 10.128 17.5 12 17.5V16.5ZM15.3082 14.4722C14.7605 15.6541 13.4946 16.5 12 16.5V17.5C13.872 17.5 15.499 16.4388 16.2155 14.8927L15.3082 14.4722ZM15.3082 13.5278C15.4465 13.8261 15.4465 14.1739 15.3082 14.4722L16.2155 14.8927C16.4774 14.3277 16.4774 13.6723 16.2155 13.1073L15.3082 13.5278ZM7.78449 13.1073C7.52264 13.6723 7.52264 14.3277 7.78449 14.8927L8.69179 14.4722C8.55354 14.1739 8.55354 13.8261 8.69179 13.5278L7.78449 13.1073Z" fill="black"/>
<circle cx="12" cy="14" r="1" stroke="black"/>
</svg>
