<svg width="48" height="48" viewBox="0 0 48 48" fill="none" xmlns="http://www.w3.org/2000/svg">
<path d="M10 10C10 7.79086 11.7909 6 14 6H24H28.3431C29.404 6 30.4214 6.42143 31.1716 7.17157L36.8284 12.8284C37.5786 13.5786 38 14.596 38 15.6569V24V38C38 40.2091 36.2091 42 34 42H14C11.7909 42 10 40.2091 10 38V10Z" fill="#E8E8E8"/>
<path fill-rule="evenodd" clip-rule="evenodd" d="M14 7.5C12.6193 7.5 11.5 8.61929 11.5 10V38C11.5 39.3807 12.6193 40.5 14 40.5H34C35.3807 40.5 36.5 39.3807 36.5 38V15.6569C36.5 14.9938 36.2366 14.3579 35.7678 13.8891L30.1109 8.23223C29.6421 7.76339 29.0062 7.5 28.3431 7.5H14ZM8.5 10C8.5 6.96243 10.9624 4.5 14 4.5H28.3431C29.8018 4.5 31.2008 5.07946 32.2322 6.11091L37.8891 11.7678C38.9205 12.7992 39.5 14.1982 39.5 15.6569V38C39.5 41.0376 37.0376 43.5 34 43.5H14C10.9624 43.5 8.5 41.0376 8.5 38V10Z" fill="#B480DE"/>
<path fill-rule="evenodd" clip-rule="evenodd" d="M26 4.5C26.8284 4.5 27.5 5.17157 27.5 6V14C27.5 15.3807 28.6193 16.5 30 16.5H38C38.8284 16.5 39.5 17.1716 39.5 18C39.5 18.8284 38.8284 19.5 38 19.5H30C26.9624 19.5 24.5 17.0376 24.5 14V6C24.5 5.17157 25.1716 4.5 26 4.5Z" fill="#B480DE"/>
<path fill-rule="evenodd" clip-rule="evenodd" d="M23.9996 23C21.0104 23 18.4786 24.6918 17.3832 27.0556C17.1067 27.6522 17.1067 28.3478 17.3832 28.9444C18.4786 31.3082 21.0104 33 23.9996 33C26.9888 33 29.5205 31.3082 30.616 28.9444C30.8925 28.3478 30.8925 27.6522 30.616 27.0556C29.5205 24.6918 26.9888 23 23.9996 23ZM15.5685 26.2146C17.0016 23.1223 20.2557 21 23.9996 21C27.7435 21 30.9975 23.1223 32.4306 26.2146C32.9543 27.3447 32.9543 28.6553 32.4306 29.7854C30.9975 32.8777 27.7435 35 23.9996 35C20.2557 35 17.0016 32.8777 15.5685 29.7854C15.0449 28.6553 15.0449 27.3447 15.5685 26.2146Z" fill="#B480DE"/>
<path fill-rule="evenodd" clip-rule="evenodd" d="M24 27C23.4477 27 23 27.4477 23 28C23 28.5523 23.4477 29 24 29C24.5523 29 25 28.5523 25 28C25 27.4477 24.5523 27 24 27ZM21 28C21 26.3431 22.3431 25 24 25C25.6569 25 27 26.3431 27 28C27 29.6569 25.6569 31 24 31C22.3431 31 21 29.6569 21 28Z" fill="#B480DE"/>
</svg>
