<svg width="48" height="48" viewBox="0 0 48 48" fill="none" xmlns="http://www.w3.org/2000/svg">
<path d="M6 10C6 7.79086 7.79086 6 10 6H38C40.2091 6 42 7.79086 42 10V38C42 40.2091 40.2091 42 38 42H10C7.79086 42 6 40.2091 6 38V10Z" fill="#E8E8E8"/>
<path fill-rule="evenodd" clip-rule="evenodd" d="M4.5 10C4.5 6.96243 6.96243 4.5 10 4.5H38C41.0376 4.5 43.5 6.96243 43.5 10V38C43.5 41.0376 41.0376 43.5 38 43.5H10C6.96243 43.5 4.5 41.0376 4.5 38V10ZM10 7.5C8.61929 7.5 7.5 8.61929 7.5 10V38C7.5 39.3807 8.61929 40.5 10 40.5H38C39.3807 40.5 40.5 39.3807 40.5 38V10C40.5 8.61929 39.3807 7.5 38 7.5H10Z" fill="#B480DE"/>
<path fill-rule="evenodd" clip-rule="evenodd" d="M9 24C9 23.4477 9.44772 23 10 23L24 23C24.5523 23 25 23.4477 25 24C25 24.5523 24.5523 25 24 25L10 25C9.44772 25 9 24.5523 9 24Z" fill="#B480DE"/>
<path fill-rule="evenodd" clip-rule="evenodd" d="M9 30C9 29.4477 9.44772 29 10 29H22C22.5523 29 23 29.4477 23 30C23 30.5523 22.5523 31 22 31H10C9.44772 31 9 30.5523 9 30Z" fill="#B480DE"/>
<path fill-rule="evenodd" clip-rule="evenodd" d="M9 18C9 17.4477 9.44772 17 10 17H22C22.5523 17 23 17.4477 23 18C23 18.5523 22.5523 19 22 19H10C9.44772 19 9 18.5523 9 18Z" fill="#B480DE"/>
<path fill-rule="evenodd" clip-rule="evenodd" d="M9 12C9 11.4477 9.44772 11 10 11L38 11C38.5523 11 39 11.4477 39 12C39 12.5523 38.5523 13 38 13L10 13C9.44772 13 9 12.5523 9 12Z" fill="#B480DE"/>
<path d="M27 20C27 17.7909 28.7909 16 31 16C33.2091 16 35 17.7909 35 20C35 22.2091 33.2091 24 31 24C28.7909 24 27 22.2091 27 20Z" fill="#B480DE"/>
<path fill-rule="evenodd" clip-rule="evenodd" d="M25 32C25 28.6863 27.6863 26 31 26C34.3137 26 37 28.6863 37 32C37 35.3137 34.3137 38 31 38C27.6863 38 25 35.3137 25 32ZM31 28C28.7909 28 27 29.7909 27 32C27 34.2091 28.7909 36 31 36C33.2091 36 35 34.2091 35 32C35 29.7909 33.2091 28 31 28Z" fill="#B480DE"/>
</svg>
