<svg width="48" height="48" viewBox="0 0 48 48" fill="none" xmlns="http://www.w3.org/2000/svg">
<path fill-rule="evenodd" clip-rule="evenodd" d="M6 9.5C6 7.567 7.567 6 9.5 6H37.5C39.433 6 41 7.567 41 9.5V11.5C41 13.433 39.433 15 37.5 15H9.5C7.567 15 6 13.433 6 11.5V9.5ZM9.5 9C9.22386 9 9 9.22386 9 9.5V11.5C9 11.7761 9.22386 12 9.5 12H37.5C37.7761 12 38 11.7761 38 11.5V9.5C38 9.22386 37.7761 9 37.5 9H9.5Z" fill="#B480DE"/>
<path fill-rule="evenodd" clip-rule="evenodd" d="M6 21.5C6 19.567 7.567 18 9.5 18H37.5C39.433 18 41 19.567 41 21.5V27.5C41 29.433 39.433 31 37.5 31H9.5C7.567 31 6 29.433 6 27.5V21.5ZM9.5 21C9.22386 21 9 21.2239 9 21.5V27.5C9 27.7761 9.22386 28 9.5 28H37.5C37.7761 28 38 27.7761 38 27.5V21.5C38 21.2239 37.7761 21 37.5 21H9.5Z" fill="#B480DE"/>
<path d="M27.5 37.5C27.5 36.3954 28.3954 35.5 29.5 35.5H37.5C38.6046 35.5 39.5 36.3954 39.5 37.5V39.5C39.5 40.6046 38.6046 41.5 37.5 41.5H29.5C28.3954 41.5 27.5 40.6046 27.5 39.5V37.5Z" fill="#B480DE"/>
<path fill-rule="evenodd" clip-rule="evenodd" d="M26 37.5C26 35.567 27.567 34 29.5 34H37.5C39.433 34 41 35.567 41 37.5V39.5C41 41.433 39.433 43 37.5 43H29.5C27.567 43 26 41.433 26 39.5V37.5ZM29.5 37C29.2239 37 29 37.2239 29 37.5V39.5C29 39.7761 29.2239 40 29.5 40H37.5C37.7761 40 38 39.7761 38 39.5V37.5C38 37.2239 37.7761 37 37.5 37H29.5Z" fill="#B480DE"/>
<path fill-rule="evenodd" clip-rule="evenodd" d="M11.5 24.5C11.5 23.9477 11.9477 23.5 12.5 23.5H23.5C24.0523 23.5 24.5 23.9477 24.5 24.5C24.5 25.0523 24.0523 25.5 23.5 25.5H12.5C11.9477 25.5 11.5 25.0523 11.5 24.5Z" fill="#B480DE"/>
</svg>
