<svg width="48" height="48" viewBox="0 0 48 48" fill="none" xmlns="http://www.w3.org/2000/svg">
<path d="M6 8C6 6.89543 6.89543 6 8 6H40C41.1046 6 42 6.89543 42 8V12C42 13.1046 41.1046 14 40 14H8C6.89543 14 6 13.1046 6 12V8Z" fill="#E8E8E8"/>
<path fill-rule="evenodd" clip-rule="evenodd" d="M4.5 8C4.5 6.067 6.067 4.5 8 4.5H40C41.933 4.5 43.5 6.067 43.5 8V12C43.5 13.933 41.933 15.5 40 15.5H8C6.06701 15.5 4.5 13.933 4.5 12V8ZM8 7.5C7.72386 7.5 7.5 7.72386 7.5 8V12C7.5 12.2761 7.72386 12.5 8 12.5H40C40.2761 12.5 40.5 12.2761 40.5 12V8C40.5 7.72386 40.2761 7.5 40 7.5H8Z" fill="#B480DE"/>
<path d="M12 22C12 20.8954 12.8954 20 14 20H34C35.1046 20 36 20.8954 36 22V26C36 27.1046 35.1046 28 34 28H14C12.8954 28 12 27.1046 12 26V22Z" fill="#E8E8E8"/>
<path fill-rule="evenodd" clip-rule="evenodd" d="M10.5 22C10.5 20.067 12.067 18.5 14 18.5H34C35.933 18.5 37.5 20.067 37.5 22V26C37.5 27.933 35.933 29.5 34 29.5H14C12.067 29.5 10.5 27.933 10.5 26V22ZM14 21.5C13.7239 21.5 13.5 21.7239 13.5 22V26C13.5 26.2761 13.7239 26.5 14 26.5H34C34.2761 26.5 34.5 26.2761 34.5 26V22C34.5 21.7239 34.2761 21.5 34 21.5H14Z" fill="#B480DE"/>
<path d="M18 36C18 34.8954 18.8954 34 20 34H28C29.1046 34 30 34.8954 30 36V40C30 41.1046 29.1046 42 28 42H20C18.8954 42 18 41.1046 18 40V36Z" fill="#E8E8E8"/>
<path fill-rule="evenodd" clip-rule="evenodd" d="M16.5 36C16.5 34.067 18.067 32.5 20 32.5H28C29.933 32.5 31.5 34.067 31.5 36V40C31.5 41.933 29.933 43.5 28 43.5H20C18.067 43.5 16.5 41.933 16.5 40V36ZM20 35.5C19.7239 35.5 19.5 35.7239 19.5 36V40C19.5 40.2761 19.7239 40.5 20 40.5H28C28.2761 40.5 28.5 40.2761 28.5 40V36C28.5 35.7239 28.2761 35.5 28 35.5H20Z" fill="#B480DE"/>
</svg>
