<svg width="48" height="48" viewBox="0 0 48 48" fill="none" xmlns="http://www.w3.org/2000/svg">
<path d="M4 11C4 8.79086 5.79086 7 8 7H40C42.2091 7 44 8.79086 44 11V37C44 39.2091 42.2091 41 40 41H8C5.79086 41 4 39.2091 4 37V11Z" fill="#E8E8E8"/>
<path d="M36.9453 22.1332V17.307C36.9453 17.1293 36.8004 16.9844 36.6227 16.9844H21.4715C21.2937 16.9844 21.1488 16.8395 21.1488 16.6617V12.7707C21.1488 12.593 21.0039 12.448 20.8262 12.448H17.5805C17.4027 12.448 17.2578 12.3031 17.2578 12.1254V10.7445C17.2578 10.5668 17.1129 10.4219 16.9352 10.4219H9.37734C9.19961 10.4246 9.05469 10.5668 9.05469 10.7445V15.5707C9.05469 15.7484 9.19961 15.8934 9.37734 15.8934H16.9379C17.1156 15.8934 17.2605 15.7484 17.2605 15.5707V14.1898C17.2605 14.0121 17.4055 13.8672 17.5832 13.8672H19.407C19.5848 13.8672 19.7297 14.0121 19.7297 14.1898V16.6617C19.7297 16.8395 19.5848 16.9844 19.407 16.9844H17.5832C17.4055 16.9844 17.2605 17.1293 17.2605 17.307V22.1332C17.2605 22.3109 17.4055 22.4559 17.5832 22.4559H19.407C19.5848 22.4559 19.7297 22.6008 19.7297 22.7785V23.227C19.7297 23.4047 19.5848 23.5496 19.407 23.5496H17.5832C17.4055 23.5496 17.2605 23.6945 17.2605 23.8723V28.6984C17.2605 28.8762 17.4055 29.0211 17.5832 29.0211H25.1438C25.3215 29.0211 25.4664 28.8762 25.4664 28.6984V27.3176C25.4664 27.1398 25.6113 26.9949 25.7891 26.9949H27.6129C27.7906 26.9949 27.9355 27.1398 27.9355 27.3176V29.7895C27.9355 29.9672 27.7906 30.1121 27.6129 30.1121H25.7891C25.6113 30.1121 25.4664 30.257 25.4664 30.4348V35.2609C25.4664 35.4387 25.6113 35.5836 25.7891 35.5836H36.084C36.2617 35.5836 36.4066 35.4387 36.4066 35.2609V30.4293C36.4066 30.2516 36.2617 30.1066 36.084 30.1066H29.6746C29.4969 30.1066 29.352 29.9617 29.352 29.784V25.893C29.352 25.7152 29.207 25.5703 29.0293 25.5703H25.7836C25.6059 25.5703 25.4609 25.4254 25.4609 25.2477V23.8668C25.4609 23.6891 25.316 23.5441 25.1383 23.5441H21.4715C21.2937 23.5441 21.1488 23.3992 21.1488 23.2215V22.773C21.1488 22.5953 21.2937 22.4504 21.4715 22.4504H36.6254C36.8004 22.4531 36.9453 22.3109 36.9453 22.1332ZM34.7086 34.2082H27.1508C26.973 34.2082 26.8281 34.0633 26.8281 33.8855V31.7937C26.8281 31.616 26.973 31.4711 27.1508 31.4711H34.7113C34.8891 31.4711 35.034 31.616 35.034 31.7937V33.8855C35.0312 34.066 34.8863 34.2082 34.7086 34.2082ZM18.9477 18.3516H35.2582C35.4359 18.3516 35.5809 18.4965 35.5809 18.6742V20.766C35.5809 20.9437 35.4359 21.0887 35.2582 21.0887H18.9477C18.7699 21.0887 18.625 20.9437 18.625 20.766V18.6742C18.625 18.4965 18.7699 18.3516 18.9477 18.3516Z" fill="#B480DE"/>
<path fill-rule="evenodd" clip-rule="evenodd" d="M2 10.5C2 7.46243 4.46243 5 7.5 5H39.5C42.5376 5 45 7.46243 45 10.5V36.5C45 39.5376 42.5376 42 39.5 42H7.5C4.46244 42 2 39.5376 2 36.5V10.5ZM7.5 8C6.11929 8 5 9.11929 5 10.5V36.5C5 37.8807 6.11929 39 7.5 39H39.5C40.8807 39 42 37.8807 42 36.5V10.5C42 9.11929 40.8807 8 39.5 8H7.5Z" fill="#B480DE"/>
</svg>
