<svg width="24" height="24" viewBox="0 0 24 24" fill="none" xmlns="http://www.w3.org/2000/svg">
<rect x="2" y="4" width="20" height="17" rx="2" stroke="black" stroke-width="1.5"/>
<path d="M19 12.0507V9.55727C19 9.46544 18.9273 9.39057 18.838 9.39057H11.2327C11.1435 9.39057 11.0708 9.31569 11.0708 9.22386V7.21354C11.0708 7.12171 10.998 7.04684 10.9088 7.04684H9.27961C9.19039 7.04684 9.11765 6.97196 9.11765 6.88013V6.1667C9.11765 6.07488 9.0449 6 8.95569 6H5.16196C5.07275 6.00141 5 6.07488 5 6.1667V8.66018C5 8.75201 5.07275 8.82689 5.16196 8.82689H8.95706C9.04627 8.82689 9.11902 8.75201 9.11902 8.66018V7.94675C9.11902 7.85492 9.19176 7.78005 9.28098 7.78005H10.1965C10.2857 7.78005 10.3584 7.85492 10.3584 7.94675V9.22386C10.3584 9.31569 10.2857 9.39057 10.1965 9.39057H9.28098C9.19176 9.39057 9.11902 9.46544 9.11902 9.55727V12.0507C9.11902 12.1426 9.19176 12.2175 9.28098 12.2175H10.1965C10.2857 12.2175 10.3584 12.2923 10.3584 12.3842V12.6158C10.3584 12.7077 10.2857 12.7825 10.1965 12.7825H9.28098C9.19176 12.7825 9.11902 12.8574 9.11902 12.9493V15.4427C9.11902 15.5346 9.19176 15.6094 9.28098 15.6094H13.0761C13.1653 15.6094 13.238 15.5346 13.238 15.4427V14.7293C13.238 14.6375 13.3108 14.5626 13.4 14.5626H14.3155C14.4047 14.5626 14.4775 14.6375 14.4775 14.7293V16.0064C14.4775 16.0982 14.4047 16.1731 14.3155 16.1731H13.4C13.3108 16.1731 13.238 16.248 13.238 16.3398V18.8333C13.238 18.9251 13.3108 19 13.4 19H18.5676C18.6569 19 18.7296 18.9251 18.7296 18.8333V16.337C18.7296 16.2452 18.6569 16.1703 18.5676 16.1703H15.3504C15.2612 16.1703 15.1884 16.0954 15.1884 16.0036V13.9933C15.1884 13.9014 15.1157 13.8266 15.0265 13.8266H13.3973C13.308 13.8266 13.2353 13.7517 13.2353 13.6599V12.9464C13.2353 12.8546 13.1625 12.7797 13.0733 12.7797H11.2327C11.1435 12.7797 11.0708 12.7048 11.0708 12.613V12.3813C11.0708 12.2895 11.1435 12.2146 11.2327 12.2146H18.8394C18.9273 12.216 19 12.1426 19 12.0507ZM17.8773 18.2894H14.0835C13.9943 18.2894 13.9216 18.2145 13.9216 18.1227V17.0419C13.9216 16.9501 13.9943 16.8752 14.0835 16.8752H17.8786C17.9678 16.8752 18.0406 16.9501 18.0406 17.0419V18.1227C18.0392 18.2159 17.9665 18.2894 17.8773 18.2894ZM9.96588 10.0969H18.1531C18.2424 10.0969 18.3151 10.1718 18.3151 10.2636V11.3444C18.3151 11.4362 18.2424 11.5111 18.1531 11.5111H9.96588C9.87667 11.5111 9.80392 11.4362 9.80392 11.3444V10.2636C9.80392 10.1718 9.87667 10.0969 9.96588 10.0969Z" fill="black"/>
</svg>
