<svg width="24" height="24" viewBox="0 0 24 24" fill="none" xmlns="http://www.w3.org/2000/svg">
<path d="M21 15C21 16.0519 20.8195 17.0617 20.4879 18M3 15C3 16.0519 3.18046 17.0617 3.51212 18M12 6C9.58467 6 7.39156 6.95145 5.77503 8.5M20.9863 14.5C20.8709 12.3915 20.0297 10.4764 18.7083 9M12.5 6.01365C13.802 6.08495 15.0304 6.43301 16.1272 7C16.8981 7.39853 17.6041 7.90522 18.225 8.5M3.01365 14.5C3.12911 12.3915 3.97029 10.4764 5.29168 9" stroke="black" stroke-width="1.5"/>
<circle cx="12" cy="15" r="2" stroke="black" stroke-width="1.5"/>
<path d="M12.5 13L15.6144 9.44063C15.6885 9.35597 15.8243 9.43918 15.7826 9.54362L14 14" stroke="black" stroke-linecap="round"/>
</svg>
