<svg width="48" height="48" viewBox="0 0 48 48" fill="none" xmlns="http://www.w3.org/2000/svg">
<path fill-rule="evenodd" clip-rule="evenodd" d="M24 13.5C19.5713 13.5 15.5527 15.2428 12.5877 18.0832L10.5124 15.9168C14.0135 12.563 18.7674 10.5 24 10.5V13.5ZM31.5656 15.3325C29.5561 14.2937 27.3058 13.6558 24.918 13.5251L25.082 10.5296C27.9024 10.684 30.5655 11.4383 32.9432 12.6675C34.6139 13.5312 36.1431 14.6288 37.4876 15.9168L35.4123 18.0832C34.2733 16.992 32.9786 16.0629 31.5656 15.3325ZM11.7011 19.0004C9.27738 21.7083 7.73666 25.2177 7.52506 29.082L4.52955 28.918C4.77977 24.3485 6.60378 20.1972 9.46566 16.9996L11.7011 19.0004ZM40.4749 29.082C40.2633 25.2177 38.7226 21.7083 36.2989 19.0004L38.5343 16.9996C41.3962 20.1972 43.2202 24.3485 43.4704 28.918L40.4749 29.082ZM7.5 30C7.5 31.9312 7.83114 33.7818 8.43849 35.5001L5.60997 36.4999C4.89071 34.4649 4.5 32.2764 4.5 30H7.5ZM39.5615 35.5001C40.1689 33.7818 40.5 31.9312 40.5 30H43.5C43.5 32.2764 43.1093 34.4649 42.39 36.4999L39.5615 35.5001Z" fill="#B480DE"/>
<path d="M28 30C28 32.2091 26.2091 34 24 34C21.7909 34 20 32.2091 20 30C20 27.7909 21.7909 26 24 26C26.2091 26 28 27.7909 28 30Z" fill="#E8E8E8"/>
<path fill-rule="evenodd" clip-rule="evenodd" d="M24 27.5C22.6193 27.5 21.5 28.6193 21.5 30C21.5 31.3807 22.6193 32.5 24 32.5C25.3807 32.5 26.5 31.3807 26.5 30C26.5 28.6193 25.3807 27.5 24 27.5ZM18.5 30C18.5 26.9624 20.9624 24.5 24 24.5C27.0376 24.5 29.5 26.9624 29.5 30C29.5 33.0376 27.0376 35.5 24 35.5C20.9624 35.5 18.5 33.0376 18.5 30Z" fill="#B480DE"/>
<path fill-rule="evenodd" clip-rule="evenodd" d="M28.897 23.0653L27.0715 27.6291C26.8664 28.1419 27.1158 28.7238 27.6286 28.9289C28.1414 29.1341 28.7234 28.8846 28.9285 28.3719L32.4936 19.4591C32.9949 18.2058 31.3653 17.2073 30.4763 18.2232L24.2474 25.342C23.8838 25.7576 23.9259 26.3894 24.3415 26.753C24.7571 27.1167 25.3889 27.0746 25.7526 26.659L28.897 23.0653Z" fill="#B480DE"/>
</svg>
