<svg width="48" height="48" viewBox="0 0 48 48" fill="none" xmlns="http://www.w3.org/2000/svg">
<path d="M4.06888 35.4725L6.96223 13.2901C6.98474 13.1176 7.11616 12.9794 7.28732 12.9483L17.9285 11.0135C17.9758 11.0049 18.0242 11.0049 18.0716 11.0135L28.9189 12.9858C28.9724 12.9955 29.0273 12.9942 29.0804 12.982L41.5532 10.1036C41.7895 10.0491 42.0196 10.2157 42.0415 10.4572L43.9706 31.6774C43.9878 31.8657 43.8706 32.0403 43.6899 32.0959L31.0856 35.9742C31.0292 35.9915 30.9697 35.9962 30.9114 35.9879L17.0587 34.0089C17.0198 34.0034 16.9802 34.0036 16.9414 34.0096L4.52635 35.9196C4.26302 35.9601 4.03442 35.7367 4.06888 35.4725Z" fill="#E8E8E8"/>
<path fill-rule="evenodd" clip-rule="evenodd" d="M41.2163 8.64158C42.3386 8.38258 43.4314 9.1738 43.5357 10.3209L45.4648 31.5411C45.5461 32.4357 44.9899 33.265 44.1314 33.5291L31.5271 37.4074L31.527 37.4074C31.2594 37.4898 30.9768 37.5119 30.6996 37.4723L17.0085 35.5165L4.75478 37.4016C3.50396 37.5941 2.41815 36.5329 2.58183 35.278L5.47518 13.0956L6.94391 13.2872L6.95319 13.2884M6.94391 13.2872L5.47518 13.0956C5.58206 12.2762 6.20631 11.6198 7.01934 11.472L17.6605 9.53727C17.8852 9.4964 18.1155 9.4964 18.3402 9.53727L28.9644 11.4689L41.2163 8.64158M40.6622 11.8483L42.3964 30.9242L30.8801 34.4677L17.2712 32.5235C17.0863 32.4971 16.8984 32.4981 16.7136 32.5265C16.7136 32.5265 16.7136 32.5265 16.7136 32.5265L5.74604 34.2138L8.34611 14.28L18.0004 12.5247L28.6509 14.4611L28.9188 12.9873L28.6509 14.4611C28.9052 14.5073 29.1662 14.5012 29.418 14.4431L40.6622 11.8483ZM4.29861 34.4365C4.2987 34.4365 4.2988 34.4365 4.29889 34.4365L4.29861 34.4365ZM28.9192 12.9853L28.9188 12.9873L28.9192 12.9853Z" fill="#B480DE"/>
<path d="M31.1541 23.9782C31.6464 23.9782 32.0506 24.3785 31.996 24.8678C31.8541 26.1397 31.4093 27.3639 30.6935 28.4352C29.812 29.7544 28.5591 30.7826 27.0932 31.3898C25.6273 31.997 24.0143 32.1559 22.4582 31.8463C20.902 31.5368 19.4726 30.7728 18.3506 29.6508C17.2287 28.5289 16.4647 27.0995 16.1551 25.5433C15.8456 23.9871 16.0045 22.3741 16.6116 20.9082C17.2188 19.4424 18.2471 18.1895 19.5663 17.308C20.6376 16.5921 21.8618 16.1474 23.1337 16.0054C23.6229 15.9509 24.0232 16.3551 24.0232 16.8473V21.3041C24.0232 22.781 25.2205 23.9782 26.6973 23.9782H31.1541Z" fill="#B480DE"/>
<path d="M31.1901 22.0005C31.6678 22.0005 32.0613 21.6113 31.9933 21.1386C31.9216 20.64 31.7878 20.1512 31.5941 19.6837C31.2899 18.9492 30.844 18.2818 30.2818 17.7197C29.7196 17.1575 29.0522 16.7116 28.3177 16.4073C27.8503 16.2137 27.3615 16.0799 26.8629 16.0082C26.3901 15.9402 26.001 16.3337 26.001 16.8113L26.001 21.1356C26.001 21.6133 26.3882 22.0005 26.8658 22.0005H31.1901Z" fill="#B480DE"/>
</svg>
