<svg width="24" height="24" viewBox="0 0 24 24" fill="none" xmlns="http://www.w3.org/2000/svg">
<path d="M2.03444 17.736L3.48111 6.64479C3.49237 6.55853 3.55808 6.48944 3.64366 6.47388L8.96422 5.5065C8.98788 5.5022 9.01212 5.5022 9.03578 5.5065L14.4594 6.49262C14.4862 6.49749 14.5137 6.49685 14.5402 6.49073L20.7766 5.05155C20.8947 5.02429 21.0098 5.10758 21.0208 5.22832L21.9853 15.8384C21.9939 15.9326 21.9353 16.0199 21.845 16.0477L15.5428 17.9868C15.5146 17.9955 15.4849 17.9978 15.4557 17.9937L8.52937 17.0042C8.5099 17.0014 8.49012 17.0015 8.47068 17.0045L2.26317 17.9595C2.13151 17.9798 2.01721 17.8681 2.03444 17.736Z" stroke="black" stroke-width="1.5" stroke-linejoin="round"/>
<path d="M19.0586 14.9414L19.9771 14.0229C19.9923 14.0077 20.0049 13.9902 20.0145 13.971L20.4447 13.1106C20.4786 13.0428 20.5479 13 20.6236 13H21.3C21.4105 13 21.5 13.0895 21.5 13.2V14.9172C21.5 14.9702 21.4789 15.0211 21.4414 15.0586L20.5586 15.9414C20.5211 15.9789 20.4702 16 20.4172 16H19.2C19.0895 16 19 15.9105 19 15.8V15.0828C19 15.0298 19.0211 14.9789 19.0586 14.9414Z" stroke="black" stroke-linejoin="round"/>
<path d="M17.9808 11.9712L17.0847 10.6271C17.0347 10.5521 16.9406 10.5198 16.8551 10.5483L15.6646 10.9451C15.5701 10.9766 15.4669 10.9339 15.4224 10.8449L15.0553 10.1106C15.0214 10.0428 14.9521 10 14.8764 10H12.5H10.0828C10.0298 10 9.97893 9.97893 9.94142 9.94142L9.14142 9.14142C9.06332 9.06332 9.06332 8.93668 9.14142 8.85858L10.4272 7.57278C10.4729 7.52711 10.5378 7.5063 10.6015 7.51692L13.4712 7.99521C13.4903 7.99839 13.5097 7.99878 13.5289 7.99638L17.466 7.50425C17.4885 7.50144 17.5104 7.49482 17.5306 7.48468L20.2578 6.1211C20.3782 6.06092 20.5224 6.13438 20.5445 6.26711L20.9831 8.89848C20.9937 8.96219 20.9729 9.02711 20.9272 9.07278L20.0229 9.97705C20.0077 9.99225 19.9951 10.0098 19.9855 10.029L19.0098 11.9804C19.0033 11.9934 18.9982 12.0071 18.9947 12.0213L18.694 13.2239C18.6435 13.4259 18.3565 13.4259 18.306 13.2239L18.0084 12.0336C18.0028 12.0114 17.9935 11.9903 17.9808 11.9712Z" stroke="black" stroke-linejoin="round"/>
<path d="M13.8211 16.6422L12.5553 14.1106C12.5214 14.0428 12.4521 14 12.3764 14H11.2C11.0895 14 11 13.9105 11 13.8V12.6442C11 12.5581 11.0551 12.4816 11.1368 12.4544L12.4496 12.0168C12.4826 12.0058 12.518 12.0036 12.5521 12.0104L14.8392 12.4678C14.9327 12.4865 15 12.5686 15 12.664V14.9528C15 14.9838 14.9928 15.0145 14.9789 15.0422L14.1789 16.6422C14.1052 16.7896 13.8948 16.7896 13.8211 16.6422Z" stroke="black" stroke-linejoin="round"/>
<path d="M5.53806 8.5571L6.33359 9.75038C6.41275 9.86913 6.58725 9.86913 6.66641 9.75039L7.46641 8.55038C7.48831 8.51753 7.5 8.47893 7.5 8.43945V7.56056C7.5 7.52107 7.51169 7.48247 7.53359 7.44962L8.29271 6.31094C8.38131 6.17803 8.28604 6 8.1263 6H6.53852C6.51307 6 6.48786 6.00486 6.46424 6.0143L4.12572 6.94971C4.04979 6.98008 4 7.05363 4 7.13541V7.85585C4 7.94193 4.05509 8.01836 4.13675 8.04558L5.4349 8.4783C5.47709 8.49236 5.51339 8.52009 5.53806 8.5571Z" stroke="black" stroke-linejoin="round"/>
<path d="M5 12.9172V11.6442C5 11.5581 5.05509 11.4816 5.13675 11.4544L6.4072 11.0309C6.46575 11.0114 6.53004 11.02 6.58139 11.0543L7.88856 11.9257C7.95599 11.9707 7.98963 12.0519 7.97373 12.1313L7.5 14.5L7.18974 15.4308C7.12896 15.6131 6.87104 15.6131 6.81026 15.4308L6.51493 14.5448C6.50511 14.5153 6.48857 14.4886 6.46661 14.4666L5.05858 13.0586C5.02107 13.0211 5 12.9702 5 12.9172Z" stroke="black" stroke-linejoin="round"/>
</svg>
