<svg width="24" height="24" viewBox="0 0 24 24" fill="none" xmlns="http://www.w3.org/2000/svg">
<path d="M2.03444 17.736L3.48111 6.64479C3.49237 6.55853 3.55808 6.48944 3.64366 6.47388L8.96422 5.5065C8.98788 5.5022 9.01212 5.5022 9.03578 5.5065L14.4594 6.49262C14.4862 6.49749 14.5137 6.49685 14.5402 6.49073L20.7766 5.05155C20.8947 5.02429 21.0098 5.10758 21.0208 5.22832L21.9853 15.8384C21.9939 15.9326 21.9353 16.0199 21.845 16.0477L15.5428 17.9868C15.5146 17.9955 15.4849 17.9978 15.4557 17.9937L8.52937 17.0042C8.5099 17.0014 8.49012 17.0015 8.47068 17.0045L2.26317 17.9595C2.13151 17.9798 2.01721 17.8681 2.03444 17.736Z" stroke="black" stroke-width="1.5" stroke-linejoin="round"/>
<path d="M15.5766 11.9889C15.8227 11.9889 16.0248 12.189 15.9975 12.4336C15.9266 13.0696 15.7042 13.6817 15.3463 14.2173C14.9055 14.877 14.2791 15.3911 13.5461 15.6947C12.8132 15.9983 12.0067 16.0777 11.2286 15.9229C10.4505 15.7682 9.7358 15.3861 9.17483 14.8252C8.61387 14.2642 8.23184 13.5495 8.07707 12.7714C7.9223 11.9933 8.00174 11.1868 8.30533 10.4539C8.60892 9.72094 9.12304 9.09449 9.78267 8.65374C10.3183 8.29583 10.9304 8.07343 11.5664 8.00248C11.811 7.97518 12.0111 8.17728 12.0111 8.42342V10.6518C12.0111 11.3903 12.6097 11.9889 13.3482 11.9889H15.5766Z" fill="black"/>
<path d="M15.5946 11C15.8334 11 16.0302 10.8054 15.9962 10.569C15.9603 10.3197 15.8934 10.0753 15.7966 9.84162C15.6445 9.47437 15.4215 9.14067 15.1404 8.85959C14.8593 8.57851 14.5256 8.35554 14.1584 8.20342C13.9247 8.10661 13.6803 8.03969 13.431 8.00384C13.1946 7.96983 13 8.16661 13 8.40543L13 10.5676C13 10.8064 13.1936 11 13.4324 11H15.5946Z" fill="black"/>
</svg>
