<svg width="48" height="48" viewBox="0 0 48 48" fill="none" xmlns="http://www.w3.org/2000/svg">
<path d="M4.06888 35.4725L6.96223 13.2901C6.98474 13.1176 7.11616 12.9794 7.28732 12.9483L17.9285 11.0135C17.9758 11.0049 18.0242 11.0049 18.0716 11.0135L28.9189 12.9858C28.9724 12.9955 29.0273 12.9942 29.0804 12.982L41.5532 10.1036C41.7895 10.0491 42.0196 10.2157 42.0415 10.4572L43.9706 31.6774C43.9878 31.8657 43.8706 32.0403 43.6899 32.0959L31.0856 35.9742C31.0292 35.9915 30.9697 35.9962 30.9114 35.9879L17.0587 34.0089C17.0198 34.0034 16.9802 34.0036 16.9414 34.0096L4.52635 35.9196C4.26302 35.9601 4.03442 35.7367 4.06888 35.4725Z" fill="#E8E8E8"/>
<path fill-rule="evenodd" clip-rule="evenodd" d="M41.2163 8.64158C42.3386 8.38258 43.4314 9.1738 43.5357 10.3209L45.4648 31.5411C45.5461 32.4357 44.9899 33.265 44.1314 33.5291L31.5271 37.4074L31.527 37.4074C31.2594 37.4898 30.9768 37.5119 30.6996 37.4723L17.0085 35.5165L4.75478 37.4016C3.50396 37.5941 2.41815 36.5329 2.58183 35.278L5.47518 13.0956L6.94391 13.2872L6.95319 13.2884M6.94391 13.2872L5.47518 13.0956C5.58206 12.2762 6.20631 11.6198 7.01934 11.472L17.6605 9.53727C17.8852 9.4964 18.1155 9.4964 18.3402 9.53727L28.9644 11.4689L41.2163 8.64158M40.6622 11.8483L42.3964 30.9242L30.8801 34.4677L17.2712 32.5235C17.0863 32.4971 16.8984 32.4981 16.7136 32.5265C16.7136 32.5265 16.7136 32.5265 16.7136 32.5265L5.74604 34.2138L8.34611 14.28L18.0004 12.5247L28.6509 14.4611L28.9188 12.9873L28.6509 14.4611C28.9052 14.5073 29.1662 14.5012 29.418 14.4431L40.6622 11.8483ZM4.29861 34.4365C4.2987 34.4365 4.2988 34.4365 4.29889 34.4365L4.29861 34.4365ZM28.9192 12.9853L28.9188 12.9873L28.9192 12.9853Z" fill="#B480DE"/>
<path fill-rule="evenodd" clip-rule="evenodd" d="M39.996 25.7744C40.2331 25.3001 40.7179 25.0005 41.2482 25.0005H42.601C43.3742 25.0005 44.001 25.6273 44.001 26.4005V29.8348C44.001 30.2061 43.8535 30.5622 43.5909 30.8248L41.8252 32.5904C41.5627 32.853 41.2066 33.0005 40.8353 33.0005H38.401C37.6278 33.0005 37.001 32.3737 37.001 31.6005V30.1662C37.001 29.7949 37.1485 29.4388 37.411 29.1762L39.1791 27.4081L39.996 25.7744ZM41.619 27.0005L40.9244 28.3896C40.8571 28.5242 40.7686 28.6471 40.6622 28.7535L39.001 30.4147V31.0005H40.5868L42.001 29.5863V27.0005H41.619Z" fill="#B480DE"/>
<path fill-rule="evenodd" clip-rule="evenodd" d="M40.0697 11.3476C40.9122 10.9263 41.9219 11.4405 42.0767 12.3696L42.9539 17.6324C43.0282 18.0783 42.8826 18.5328 42.5629 18.8525L40.8232 20.5922L38.9448 24.3488L38.3595 26.6901C38.006 28.104 35.9966 28.1041 35.6431 26.6901L35.0732 24.4104L33.5929 22.19L31.6466 22.8388C30.9857 23.0591 30.2633 22.7599 29.9517 22.1367L29.3833 20.9998H20.167C19.7957 20.9998 19.4396 20.8523 19.177 20.5898L17.577 18.9898C17.0303 18.443 17.0303 17.5566 17.577 17.0099L20.1486 14.4383C20.4683 14.1186 20.9228 13.9729 21.3688 14.0473L27.0219 14.9895L34.7073 14.0288L40.0697 11.3476ZM40.2375 13.4997L35.5098 15.8636C35.3678 15.9346 35.2148 15.9809 35.0574 16.0006L27.1832 16.9849C27.0489 17.0016 26.9129 16.9989 26.7794 16.9766L21.3445 16.0708L19.4155 17.9998L20.4155 18.9998H29.7541C30.2844 18.9998 30.7691 19.2994 31.0063 19.7737L31.5079 20.7769L33.3952 20.1477C33.9942 19.9481 34.6526 20.174 35.0028 20.6993L36.7949 23.3875C36.8839 23.521 36.9493 23.6688 36.9883 23.8245L37.0013 23.8767L37.0205 23.7999C37.0453 23.7008 37.0808 23.6047 37.1265 23.5133L39.0779 19.6107C39.1451 19.4761 39.2337 19.3532 39.3401 19.2468L40.9303 17.6566L40.2375 13.4997Z" fill="#B480DE"/>
<path fill-rule="evenodd" clip-rule="evenodd" d="M25.0653 25.0328L23.001 25.7209V27.0001H24.7538C25.284 27.0001 25.7688 27.2997 26.006 27.774L28.001 31.7641L29.001 29.7641V25.8199L25.0653 25.0328ZM24.584 23.085C24.8151 23.008 25.0623 22.9926 25.3013 23.0404L29.8755 23.9552C30.5299 24.0861 31.001 24.6607 31.001 25.328V29.9057C31.001 30.123 30.9504 30.3374 30.8532 30.5318L29.2532 33.7318C28.7372 34.7637 27.2647 34.7637 26.7488 33.7318L24.3829 29.0001H22.401C21.6278 29.0001 21.001 28.3733 21.001 27.6001V25.2884C21.001 24.6858 21.3866 24.1508 21.9583 23.9603L24.584 23.085Z" fill="#B480DE"/>
<path fill-rule="evenodd" clip-rule="evenodd" d="M13.1936 13.0005L9.00098 14.6775V15.2797L11.187 16.0084C11.4824 16.1069 11.7365 16.3009 11.9092 16.56L13.001 18.1977L14.001 16.6977V15.1216C14.001 14.8452 14.0828 14.575 14.2361 14.345L15.1325 13.0005H13.1936ZM12.5581 11.1006C12.7234 11.0345 12.8999 11.0005 13.078 11.0005H16.2536C17.3717 11.0005 18.0387 12.2467 17.4184 13.1771L16.001 15.3033V16.8794C16.001 17.1558 15.9192 17.426 15.7658 17.656L14.1658 20.056C13.6117 20.8872 12.3903 20.8872 11.8361 20.056L10.3592 17.8407L7.95826 17.0403C7.38658 16.8498 7.00098 16.3148 7.00098 15.7122V14.2713C7.00098 13.6988 7.34951 13.184 7.88103 12.9714L12.5581 11.1006Z" fill="#B480DE"/>
<path fill-rule="evenodd" clip-rule="evenodd" d="M12.4992 21.1134C12.909 20.9767 13.359 21.037 13.7185 21.2766L16.3328 23.0195C16.8048 23.3342 17.0403 23.9027 16.929 24.459L15.9816 29.1963C15.9734 29.2369 15.9628 29.2771 15.9497 29.3164L15.3291 31.178C14.9037 32.4544 13.0983 32.4544 12.6728 31.178L12.1269 29.5404L9.41103 26.8244C9.14848 26.5619 9.00098 26.2058 9.00098 25.8345V23.2885C9.00098 22.6859 9.38658 22.1509 9.95826 21.9603L12.4992 21.1134ZM12.8532 23.1035L11.001 23.7209V25.586L13.6413 28.2263C13.795 28.38 13.9108 28.5673 13.9795 28.7735L14.001 28.8379L14.0326 28.743L14.8891 24.4607L12.8532 23.1035Z" fill="#B480DE"/>
</svg>
