<svg width="48" height="48" viewBox="0 0 48 48" fill="none" xmlns="http://www.w3.org/2000/svg">
<path d="M22 10C22 12.2091 20.2091 14 18 14C15.7909 14 14 12.2091 14 10C14 7.79086 15.7909 6 18 6C20.2091 6 22 7.79086 22 10Z" fill="#E8E8E8"/>
<path fill-rule="evenodd" clip-rule="evenodd" d="M18 7C16.3431 7 15 8.34315 15 10C15 11.6569 16.3431 13 18 13C19.6569 13 21 11.6569 21 10C21 8.34315 19.6569 7 18 7ZM13 10C13 7.23858 15.2386 5 18 5C20.7614 5 23 7.23858 23 10C23 12.7614 20.7614 15 18 15C15.2386 15 13 12.7614 13 10Z" fill="#B480DE"/>
<path fill-rule="evenodd" clip-rule="evenodd" d="M31.6289 15.9282L21.6289 11.9282L22.3717 10.0713L32.3717 14.0713L31.6289 15.9282Z" fill="#B480DE"/>
<path fill-rule="evenodd" clip-rule="evenodd" d="M10.2324 18.3599L15.2324 12.3599L16.7689 13.6402L11.7689 19.6402L10.2324 18.3599Z" fill="#B480DE"/>
<path fill-rule="evenodd" clip-rule="evenodd" d="M9.96958 25.7573L11.9696 33.7573L10.0293 34.2424L8.0293 26.2424L9.96958 25.7573Z" fill="#B480DE"/>
<path fill-rule="evenodd" clip-rule="evenodd" d="M16.0563 38.0015L34.0563 39.0015L33.9453 40.9984L15.9453 39.9984L16.0563 38.0015Z" fill="#B480DE"/>
<path fill-rule="evenodd" clip-rule="evenodd" d="M37.9981 19.9375L38.9981 35.9375L37.002 36.0623L36.002 20.0623L37.9981 19.9375Z" fill="#B480DE"/>
<path fill-rule="evenodd" clip-rule="evenodd" d="M33.7072 19.7072L27.7072 25.7072L26.293 24.293L32.293 18.293L33.7072 19.7072Z" fill="#B480DE"/>
<path fill-rule="evenodd" clip-rule="evenodd" d="M19.9292 13.6284L23.9292 23.6284L22.0723 24.3712L18.0723 14.3712L19.9292 13.6284Z" fill="#B480DE"/>
<path fill-rule="evenodd" clip-rule="evenodd" d="M11.316 22.0513L20.316 25.0513L19.6836 26.9486L10.6836 23.9486L11.316 22.0513Z" fill="#B480DE"/>
<path fill-rule="evenodd" clip-rule="evenodd" d="M14.3594 34.2319L20.3594 29.2319L21.6397 30.7684L15.6397 35.7684L14.3594 34.2319Z" fill="#B480DE"/>
<path fill-rule="evenodd" clip-rule="evenodd" d="M34.3418 37.7527L26.3418 30.7527L27.6588 29.2476L35.6588 36.2476L34.3418 37.7527Z" fill="#B480DE"/>
<path d="M40 16C40 18.2091 38.2091 20 36 20C33.7909 20 32 18.2091 32 16C32 13.7909 33.7909 12 36 12C38.2091 12 40 13.7909 40 16Z" fill="#E8E8E8"/>
<path fill-rule="evenodd" clip-rule="evenodd" d="M36 13C34.3431 13 33 14.3431 33 16C33 17.6569 34.3431 19 36 19C37.6569 19 39 17.6569 39 16C39 14.3431 37.6569 13 36 13ZM31 16C31 13.2386 33.2386 11 36 11C38.7614 11 41 13.2386 41 16C41 18.7614 38.7614 21 36 21C33.2386 21 31 18.7614 31 16Z" fill="#B480DE"/>
<path d="M16 38C16 40.2091 14.2091 42 12 42C9.79086 42 8 40.2091 8 38C8 35.7909 9.79086 34 12 34C14.2091 34 16 35.7909 16 38Z" fill="#E8E8E8"/>
<path fill-rule="evenodd" clip-rule="evenodd" d="M12 35C10.3431 35 9 36.3431 9 38C9 39.6569 10.3431 41 12 41C13.6569 41 15 39.6569 15 38C15 36.3431 13.6569 35 12 35ZM7 38C7 35.2386 9.23858 33 12 33C14.7614 33 17 35.2386 17 38C17 40.7614 14.7614 43 12 43C9.23858 43 7 40.7614 7 38Z" fill="#B480DE"/>
<path d="M42 40C42 42.2091 40.2091 44 38 44C35.7909 44 34 42.2091 34 40C34 37.7909 35.7909 36 38 36C40.2091 36 42 37.7909 42 40Z" fill="#E8E8E8"/>
<path fill-rule="evenodd" clip-rule="evenodd" d="M38 37C36.3431 37 35 38.3431 35 40C35 41.6569 36.3431 43 38 43C39.6569 43 41 41.6569 41 40C41 38.3431 39.6569 37 38 37ZM33 40C33 37.2386 35.2386 35 38 35C40.7614 35 43 37.2386 43 40C43 42.7614 40.7614 45 38 45C35.2386 45 33 42.7614 33 40Z" fill="#B480DE"/>
<path d="M28 28C28 30.2091 26.2091 32 24 32C21.7909 32 20 30.2091 20 28C20 25.7909 21.7909 24 24 24C26.2091 24 28 25.7909 28 28Z" fill="#E8E8E8"/>
<path fill-rule="evenodd" clip-rule="evenodd" d="M24 25.5C22.6193 25.5 21.5 26.6193 21.5 28C21.5 29.3807 22.6193 30.5 24 30.5C25.3807 30.5 26.5 29.3807 26.5 28C26.5 26.6193 25.3807 25.5 24 25.5ZM18.5 28C18.5 24.9624 20.9624 22.5 24 22.5C27.0376 22.5 29.5 24.9624 29.5 28C29.5 31.0376 27.0376 33.5 24 33.5C20.9624 33.5 18.5 31.0376 18.5 28Z" fill="#B480DE"/>
<path d="M12 22C12 24.2091 10.2091 26 8 26C5.79086 26 4 24.2091 4 22C4 19.7909 5.79086 18 8 18C10.2091 18 12 19.7909 12 22Z" fill="#E8E8E8"/>
<path fill-rule="evenodd" clip-rule="evenodd" d="M8 19C6.34315 19 5 20.3431 5 22C5 23.6569 6.34315 25 8 25C9.65685 25 11 23.6569 11 22C11 20.3431 9.65685 19 8 19ZM3 22C3 19.2386 5.23858 17 8 17C10.7614 17 13 19.2386 13 22C13 24.7614 10.7614 27 8 27C5.23858 27 3 24.7614 3 22Z" fill="#B480DE"/>
</svg>
