<svg width="48" height="48" viewBox="0 0 48 48" fill="none" xmlns="http://www.w3.org/2000/svg">
<rect width="48" height="48" fill="white"/>
<path d="M18 10C18 8.89543 18.8954 8 20 8H28C29.1046 8 30 8.89543 30 10V18C30 19.1046 29.1046 20 28 20H20C18.8954 20 18 19.1046 18 18V10Z" fill="#E8E8E8"/>
<path fill-rule="evenodd" clip-rule="evenodd" d="M16.5 10C16.5 8.067 18.067 6.5 20 6.5H28C29.933 6.5 31.5 8.067 31.5 10V18C31.5 19.933 29.933 21.5 28 21.5H20C18.067 21.5 16.5 19.933 16.5 18V10ZM20 9.5C19.7239 9.5 19.5 9.72386 19.5 10V18C19.5 18.2761 19.7239 18.5 20 18.5H28C28.2761 18.5 28.5 18.2761 28.5 18V10C28.5 9.72386 28.2761 9.5 28 9.5H20Z" fill="#B480DE"/>
<path d="M6 34C6 32.8954 6.89543 32 8 32H14C15.1046 32 16 32.8954 16 34V40C16 41.1046 15.1046 42 14 42H8C6.89543 42 6 41.1046 6 40V34Z" fill="#E8E8E8"/>
<path fill-rule="evenodd" clip-rule="evenodd" d="M5 34C5 32.3431 6.34315 31 8 31H14C15.6569 31 17 32.3431 17 34V40C17 41.6569 15.6569 43 14 43H8C6.34315 43 5 41.6569 5 40V34ZM8 33C7.44772 33 7 33.4477 7 34V40C7 40.5523 7.44772 41 8 41H14C14.5523 41 15 40.5523 15 40V34C15 33.4477 14.5523 33 14 33H8Z" fill="#B480DE"/>
<path d="M20 34C20 32.8954 20.8954 32 22 32H26C27.1046 32 28 32.8954 28 34V40C28 41.1046 27.1046 42 26 42H22C20.8954 42 20 41.1046 20 40V34Z" fill="#E8E8E8"/>
<path fill-rule="evenodd" clip-rule="evenodd" d="M19 34C19 32.3431 20.3431 31 22 31H26C27.6569 31 29 32.3431 29 34V40C29 41.6569 27.6569 43 26 43H22C20.3431 43 19 41.6569 19 40V34ZM22 33C21.4477 33 21 33.4477 21 34V40C21 40.5523 21.4477 41 22 41H26C26.5523 41 27 40.5523 27 40V34C27 33.4477 26.5523 33 26 33H22Z" fill="#B480DE"/>
<path d="M32 34C32 32.8954 32.8954 32 34 32H40C41.1046 32 42 32.8954 42 34V40C42 41.1046 41.1046 42 40 42H34C32.8954 42 32 41.1046 32 40V34Z" fill="#E8E8E8"/>
<path fill-rule="evenodd" clip-rule="evenodd" d="M31 34C31 32.3431 32.3431 31 34 31H40C41.6569 31 43 32.3431 43 34V40C43 41.6569 41.6569 43 40 43H34C32.3431 43 31 41.6569 31 40V34ZM34 33C33.4477 33 33 33.4477 33 34V40C33 40.5523 33.4477 41 34 41H40C40.5523 41 41 40.5523 41 40V34C41 33.4477 40.5523 33 40 33H34Z" fill="#B480DE"/>
<path fill-rule="evenodd" clip-rule="evenodd" d="M23 22.2842V20H25V22.2842C25 23.7649 23.9197 25.0241 22.4562 25.2493L12.8479 26.7275C12.3601 26.8025 12 27.2223 12 27.7158V32H10V27.7158C10 26.2351 11.0803 24.9759 12.5438 24.7507L22.1521 23.2725C22.6399 23.1975 23 22.7777 23 22.2842Z" fill="#B480DE"/>
<path fill-rule="evenodd" clip-rule="evenodd" d="M23 22.2842V20H25V22.2842C25 22.7777 25.3601 23.1975 25.8479 23.2725L35.4562 24.7507C36.9197 24.9759 38 26.2351 38 27.7158V32H36V27.7158C36 27.2223 35.6399 26.8025 35.1521 26.7275L25.5438 25.2493C24.0803 25.0241 23 23.7649 23 22.2842Z" fill="#B480DE"/>
<path fill-rule="evenodd" clip-rule="evenodd" d="M23 32V20H25V32H23Z" fill="#B480DE"/>
</svg>
