<svg width="48" height="48" viewBox="0 0 48 48" fill="none" xmlns="http://www.w3.org/2000/svg">
<path d="M6 10C6 7.79086 7.79086 6 10 6H38C40.2091 6 42 7.79086 42 10V38C42 40.2091 40.2091 42 38 42H10C7.79086 42 6 40.2091 6 38V10Z" fill="#E8E8E8"/>
<path fill-rule="evenodd" clip-rule="evenodd" d="M4.5 10C4.5 6.96243 6.96243 4.5 10 4.5H38C41.0376 4.5 43.5 6.96243 43.5 10V38C43.5 41.0376 41.0376 43.5 38 43.5H10C6.96243 43.5 4.5 41.0376 4.5 38V10ZM10 7.5C8.61929 7.5 7.5 8.61929 7.5 10V38C7.5 39.3807 8.61929 40.5 10 40.5H38C39.3807 40.5 40.5 39.3807 40.5 38V10C40.5 8.61929 39.3807 7.5 38 7.5H10Z" fill="#B480DE"/>
<path d="M12 14C12 12.8954 12.8954 12 14 12H19C20.1046 12 21 12.8954 21 14V19C21 20.1046 20.1046 21 19 21H14C12.8954 21 12 20.1046 12 19V14Z" fill="white"/>
<path fill-rule="evenodd" clip-rule="evenodd" d="M11 14C11 12.3431 12.3431 11 14 11H19C20.6569 11 22 12.3431 22 14V19C22 20.6569 20.6569 22 19 22H14C12.3431 22 11 20.6569 11 19V14ZM14 13C13.4477 13 13 13.4477 13 14V19C13 19.5523 13.4477 20 14 20H19C19.5523 20 20 19.5523 20 19V14C20 13.4477 19.5523 13 19 13H14Z" fill="#B480DE"/>
<path d="M12 29C12 27.8954 12.8954 27 14 27H19C20.1046 27 21 27.8954 21 29V34C21 35.1046 20.1046 36 19 36H14C12.8954 36 12 35.1046 12 34V29Z" fill="white"/>
<path fill-rule="evenodd" clip-rule="evenodd" d="M11 29C11 27.3431 12.3431 26 14 26H19C20.6569 26 22 27.3431 22 29V34C22 35.6569 20.6569 37 19 37H14C12.3431 37 11 35.6569 11 34V29ZM14 28C13.4477 28 13 28.4477 13 29V34C13 34.5523 13.4477 35 14 35H19C19.5523 35 20 34.5523 20 34V29C20 28.4477 19.5523 28 19 28H14Z" fill="#B480DE"/>
<path d="M27 14C27 12.8954 27.8954 12 29 12H34C35.1046 12 36 12.8954 36 14V19C36 20.1046 35.1046 21 34 21H29C27.8954 21 27 20.1046 27 19V14Z" fill="white"/>
<path fill-rule="evenodd" clip-rule="evenodd" d="M26 14C26 12.3431 27.3431 11 29 11H34C35.6569 11 37 12.3431 37 14V19C37 20.6569 35.6569 22 34 22H29C27.3431 22 26 20.6569 26 19V14ZM29 13C28.4477 13 28 13.4477 28 14V19C28 19.5523 28.4477 20 29 20H34C34.5523 20 35 19.5523 35 19V14C35 13.4477 34.5523 13 34 13H29Z" fill="#B480DE"/>
<path d="M27 29C27 27.8954 27.8954 27 29 27H34C35.1046 27 36 27.8954 36 29V34C36 35.1046 35.1046 36 34 36H29C27.8954 36 27 35.1046 27 34V29Z" fill="white"/>
<path fill-rule="evenodd" clip-rule="evenodd" d="M26 29C26 27.3431 27.3431 26 29 26H34C35.6569 26 37 27.3431 37 29V34C37 35.6569 35.6569 37 34 37H29C27.3431 37 26 35.6569 26 34V29ZM29 28C28.4477 28 28 28.4477 28 29V34C28 34.5523 28.4477 35 29 35H34C34.5523 35 35 34.5523 35 34V29C35 28.4477 34.5523 28 34 28H29Z" fill="#B480DE"/>
</svg>
