<svg width="48" height="48" viewBox="0 0 48 48" fill="none" xmlns="http://www.w3.org/2000/svg">
<path d="M4 11.5C4 9.29086 5.79086 7.5 8 7.5H40C42.2091 7.5 44 9.29086 44 11.5V37.5C44 39.7091 42.2091 41.5 40 41.5H8C5.79086 41.5 4 39.7091 4 37.5V11.5Z" fill="#E8E8E8"/>
<path fill-rule="evenodd" clip-rule="evenodd" d="M2.5 11.5C2.5 8.46243 4.96243 6 8 6H40C43.0376 6 45.5 8.46243 45.5 11.5V37.5C45.5 40.5376 43.0376 43 40 43H8C4.96244 43 2.5 40.5376 2.5 37.5V11.5ZM8 9C6.61929 9 5.5 10.1193 5.5 11.5V37.5C5.5 38.8807 6.61929 40 8 40H40C41.3807 40 42.5 38.8807 42.5 37.5V11.5C42.5 10.1193 41.3807 9 40 9H8Z" fill="#B480DE"/>
<path d="M14 15.5C14 16.6046 13.1046 17.5 12 17.5C10.8954 17.5 10 16.6046 10 15.5C10 14.3954 10.8954 13.5 12 13.5C13.1046 13.5 14 14.3954 14 15.5Z" fill="#B480DE"/>
<path d="M32 33.5C32 34.6046 31.1046 35.5 30 35.5C28.8954 35.5 28 34.6046 28 33.5C28 32.3954 28.8954 31.5 30 31.5C31.1046 31.5 32 32.3954 32 33.5Z" fill="#B480DE"/>
<path d="M28 18.5C28 20.1569 26.6569 21.5 25 21.5C23.3431 21.5 22 20.1569 22 18.5C22 16.8431 23.3431 15.5 25 15.5C26.6569 15.5 28 16.8431 28 18.5Z" fill="#B480DE"/>
<path d="M38 15.5C38 17.7091 36.2091 19.5 34 19.5C31.7909 19.5 30 17.7091 30 15.5C30 13.2909 31.7909 11.5 34 11.5C36.2091 11.5 38 13.2909 38 15.5Z" fill="#B480DE"/>
<path d="M16 33.5C16 35.7091 14.2091 37.5 12 37.5C9.79086 37.5 8 35.7091 8 33.5C8 31.2909 9.79086 29.5 12 29.5C14.2091 29.5 16 31.2909 16 33.5Z" fill="#B480DE"/>
<path d="M26 26.5C26 28.1569 24.6569 29.5 23 29.5C21.3431 29.5 20 28.1569 20 26.5C20 24.8431 21.3431 23.5 23 23.5C24.6569 23.5 26 24.8431 26 26.5Z" fill="#B480DE"/>
<path d="M14 22.5C14 24.1569 12.6569 25.5 11 25.5C9.34315 25.5 8 24.1569 8 22.5C8 20.8431 9.34315 19.5 11 19.5C12.6569 19.5 14 20.8431 14 22.5Z" fill="#B480DE"/>
<path d="M40 28.5C40 30.1569 38.6569 31.5 37 31.5C35.3431 31.5 34 30.1569 34 28.5C34 26.8431 35.3431 25.5 37 25.5C38.6569 25.5 40 26.8431 40 28.5Z" fill="#B480DE"/>
</svg>
