<svg width="48" height="48" viewBox="0 0 48 48" fill="none" xmlns="http://www.w3.org/2000/svg">
<path d="M4 11C4 8.79086 5.79086 7 8 7H40C42.2091 7 44 8.79086 44 11V37C44 39.2091 42.2091 41 40 41H8C5.79086 41 4 39.2091 4 37V11Z" fill="#E8E8E8"/>
<path fill-rule="evenodd" clip-rule="evenodd" d="M14.6021 25.736C12.3948 29.2457 9.71918 33.5 4 33.5V30.5C8.04233 30.5 9.86448 27.6166 12.3398 23.6988C14.6747 20.0032 17.5724 15.5 24 15.5C30.3943 15.5 33.5439 19.9524 36.0161 23.6693C36.1427 23.8596 36.2673 24.0477 36.3902 24.2333C37.5208 25.9402 38.515 27.4412 39.6817 28.5853C40.9129 29.7927 42.2396 30.5 44 30.5V33.5C41.2604 33.5 39.2178 32.3323 37.5812 30.7272C36.1726 29.3458 34.9957 27.5651 33.9013 25.9092C33.7725 25.7144 33.6449 25.5213 33.5182 25.3307C31.0018 21.5476 28.6514 18.5 24 18.5C19.3819 18.5 17.2796 21.4968 14.876 25.3012C14.7854 25.4446 14.6941 25.5897 14.6021 25.736Z" fill="#B480DE"/>
<path d="M18 23C18 24.6569 16.6569 26 15 26C13.3431 26 12 24.6569 12 23C12 21.3431 13.3431 20 15 20C16.6569 20 18 21.3431 18 23Z" fill="#E8E8E8"/>
<path fill-rule="evenodd" clip-rule="evenodd" d="M15 21C13.8954 21 13 21.8954 13 23C13 24.1046 13.8954 25 15 25C16.1046 25 17 24.1046 17 23C17 21.8954 16.1046 21 15 21ZM11 23C11 20.7909 12.7909 19 15 19C17.2091 19 19 20.7909 19 23C19 25.2091 17.2091 27 15 27C12.7909 27 11 25.2091 11 23Z" fill="#B480DE"/>
<path d="M28 17C28 18.6569 26.6569 20 25 20C23.3431 20 22 18.6569 22 17C22 15.3431 23.3431 14 25 14C26.6569 14 28 15.3431 28 17Z" fill="#E8E8E8"/>
<path fill-rule="evenodd" clip-rule="evenodd" d="M25 15C23.8954 15 23 15.8954 23 17C23 18.1046 23.8954 19 25 19C26.1046 19 27 18.1046 27 17C27 15.8954 26.1046 15 25 15ZM21 17C21 14.7909 22.7909 13 25 13C27.2091 13 29 14.7909 29 17C29 19.2091 27.2091 21 25 21C22.7909 21 21 19.2091 21 17Z" fill="#B480DE"/>
<path d="M36 23C36 24.6569 34.6569 26 33 26C31.3431 26 30 24.6569 30 23C30 21.3431 31.3431 20 33 20C34.6569 20 36 21.3431 36 23Z" fill="#E8E8E8"/>
<path fill-rule="evenodd" clip-rule="evenodd" d="M33 21C31.8954 21 31 21.8954 31 23C31 24.1046 31.8954 25 33 25C34.1046 25 35 24.1046 35 23C35 21.8954 34.1046 21 33 21ZM29 23C29 20.7909 30.7909 19 33 19C35.2091 19 37 20.7909 37 23C37 25.2091 35.2091 27 33 27C30.7909 27 29 25.2091 29 23Z" fill="#B480DE"/>
<path fill-rule="evenodd" clip-rule="evenodd" d="M2 10.5C2 7.46243 4.46243 5 7.5 5H39.5C42.5376 5 45 7.46243 45 10.5V36.5C45 39.5376 42.5376 42 39.5 42H7.5C4.46244 42 2 39.5376 2 36.5V10.5ZM7.5 8C6.11929 8 5 9.11929 5 10.5V36.5C5 37.8807 6.11929 39 7.5 39H39.5C40.8807 39 42 37.8807 42 36.5V10.5C42 9.11929 40.8807 8 39.5 8H7.5Z" fill="#B480DE"/>
</svg>
