<svg width="48" height="48" viewBox="0 0 48 48" fill="none" xmlns="http://www.w3.org/2000/svg">
<path d="M8 18C8 12.4772 12.4772 8 18 8H30C35.5228 8 40 12.4772 40 18V30C40 35.5228 35.5228 40 30 40H18C12.4772 40 8 35.5228 8 30V18Z" fill="#B480DE"/>
<path fill-rule="evenodd" clip-rule="evenodd" d="M7 18C7 11.9249 11.9249 7 18 7H30C36.0751 7 41 11.9249 41 18V30C41 36.0751 36.0751 41 30 41H18C11.9249 41 7 36.0751 7 30V18ZM18 9C13.0294 9 9 13.0294 9 18V30C9 34.9706 13.0294 39 18 39H30C34.9706 39 39 34.9706 39 30V18C39 13.0294 34.9706 9 30 9H18Z" fill="#B480DE"/>
<path d="M14 20C14 16.6863 16.6863 14 20 14H28C31.3137 14 34 16.6863 34 20V28C34 31.3137 31.3137 34 28 34H20C16.6863 34 14 31.3137 14 28V20Z" fill="#B480DE"/>
<path fill-rule="evenodd" clip-rule="evenodd" d="M28 16H20C17.7909 16 16 17.7909 16 20V28C16 30.2091 17.7909 32 20 32H28C30.2091 32 32 30.2091 32 28V20C32 17.7909 30.2091 16 28 16ZM20 14C16.6863 14 14 16.6863 14 20V28C14 31.3137 16.6863 34 20 34H28C31.3137 34 34 31.3137 34 28V20C34 16.6863 31.3137 14 28 14H20Z" fill="white"/>
</svg>
