<svg width="48" height="48" viewBox="0 0 48 48" fill="none" xmlns="http://www.w3.org/2000/svg">
<path d="M6.17812 15.8816L23.7781 4.14823C23.9125 4.05866 24.0875 4.05866 24.2219 4.14823L41.8219 15.8816C41.9332 15.9558 42 16.0806 42 16.2144V33.776C42 33.9153 41.9275 34.0446 41.8086 34.1173L24.2086 44.8728C24.0805 44.9511 23.9195 44.9511 23.7914 44.8728L6.19142 34.1173C6.07252 34.0446 6 33.9153 6 33.776V16.2144C6 16.0806 6.06684 15.9558 6.17812 15.8816Z" fill="#E8E8E8"/>
<path fill-rule="evenodd" clip-rule="evenodd" d="M24 5.80309L7.5 16.8031V33.1591L24 43.2424L40.5 33.1591V16.8031L24 5.80309ZM22.9461 2.90016C23.5843 2.47469 24.4157 2.47469 25.0539 2.90016L42.6539 14.6335C43.1825 14.9859 43.5 15.5791 43.5 16.2144V33.776C43.5 34.4379 43.1555 35.0521 42.5907 35.3972L24.9908 46.1528L24.2086 44.8728L24.9907 46.1528C24.3825 46.5245 23.6175 46.5244 23.0093 46.1528L23.0092 46.1528L5.40924 35.3972C4.84446 35.0521 4.5 34.4379 4.5 33.776V16.2144C4.5 15.5791 4.81749 14.9859 5.34607 14.6335L22.9461 2.90016Z" fill="#B480DE"/>
<path d="M16.1987 20.5437L23.7987 16.1178C23.9231 16.0454 24.0769 16.0454 24.2013 16.1178L31.8013 20.5437C31.9243 20.6153 32 20.747 32 20.8894V29.0086C32 29.1495 31.9258 29.2801 31.8047 29.3522L24.2047 33.8787C24.0786 33.9538 23.9214 33.9538 23.7953 33.8787L16.1953 29.3522C16.0742 29.2801 16 29.1495 16 29.0086V20.8894C16 20.747 16.0757 20.6153 16.1987 20.5437Z" fill="white"/>
<path fill-rule="evenodd" clip-rule="evenodd" d="M24 17.1578L17 21.2343V28.6675L24 32.8367L31 28.6675V21.2343L24 17.1578ZM16.7076 28.4934C16.7074 28.4933 16.7072 28.4932 16.707 28.4931L16.4 29.0086L16.707 28.4931L16.7076 28.4934ZM23.2955 15.2537C23.7309 15.0001 24.2691 15.0001 24.7045 15.2537L32.3045 19.6796C32.7351 19.9303 33 20.3911 33 20.8894V29.0086C33 29.5019 32.7403 29.9589 32.3164 30.2114L24.7164 34.7378C24.275 35.0007 23.725 35.0007 23.2836 34.7378L15.6836 30.2114C15.2597 29.9589 15 29.5019 15 29.0086V20.8894C15 20.3911 15.2649 19.9303 15.6955 19.6796L23.2955 15.2537Z" fill="#B480DE"/>
<path fill-rule="evenodd" clip-rule="evenodd" d="M15.1058 20.554C15.3528 20.06 15.9535 19.8598 16.4474 20.1068L24.0002 23.8832L31.553 20.1068C32.047 19.8598 32.6477 20.06 32.8946 20.554C33.1416 21.048 32.9414 21.6486 32.4474 21.8956L25.0002 25.6192V34.0012C25.0002 34.5535 24.5525 35.0012 24.0002 35.0012C23.4479 35.0012 23.0002 34.5535 23.0002 34.0012V25.6192L15.553 21.8956C15.059 21.6486 14.8588 21.048 15.1058 20.554Z" fill="#B480DE"/>
<path fill-rule="evenodd" clip-rule="evenodd" d="M16.8946 28.554C17.1416 29.048 16.9414 29.6486 16.4474 29.8956L16.2959 29.9714C15.8019 30.2184 15.2013 30.0181 14.9543 29.5242C14.7073 29.0302 14.9075 28.4295 15.4015 28.1825L15.553 28.1068C16.047 27.8598 16.6477 28.06 16.8946 28.554ZM13.7128 30.1449C13.9598 30.6389 13.7596 31.2395 13.2656 31.4865L12.9626 31.638C12.4686 31.885 11.8679 31.6848 11.6209 31.1908C11.374 30.6969 11.5742 30.0962 12.0682 29.8492L12.3712 29.6977C12.8652 29.4507 13.4658 29.6509 13.7128 30.1449ZM10.3795 31.8116C10.6265 32.3055 10.4263 32.9062 9.93228 33.1532L9.62925 33.3047C9.13527 33.5517 8.5346 33.3515 8.28761 32.8575C8.04062 32.3635 8.24085 31.7628 8.73482 31.5159L9.03785 31.3643C9.53183 31.1174 10.1325 31.3176 10.3795 31.8116ZM7.04616 33.4782C7.29315 33.9722 7.09293 34.5729 6.59895 34.8199L6.44743 34.8956C5.95345 35.1426 5.35278 34.9424 5.10579 34.4484C4.8588 33.9544 5.05903 33.3538 5.55301 33.1068L5.70452 33.031C6.1985 32.784 6.79917 32.9842 7.04616 33.4782Z" fill="#B480DE"/>
<path fill-rule="evenodd" clip-rule="evenodd" d="M31.1058 28.554C31.3528 28.06 31.9535 27.8598 32.4474 28.1068L32.5989 28.1825C33.0929 28.4295 33.2932 29.0302 33.0462 29.5242C32.7992 30.0181 32.1985 30.2184 31.7045 29.9714L31.553 29.8956C31.059 29.6486 30.8588 29.048 31.1058 28.554ZM34.2876 30.1449C34.5346 29.6509 35.1353 29.4507 35.6293 29.6977L35.9323 29.8492C36.4263 30.0962 36.6265 30.6969 36.3795 31.1908C36.1325 31.6848 35.5318 31.885 35.0379 31.638L34.7348 31.4865C34.2408 31.2395 34.0406 30.6389 34.2876 30.1449ZM37.6209 31.8116C37.8679 31.3176 38.4686 31.1174 38.9626 31.3643L39.2656 31.5159C39.7596 31.7628 39.9598 32.3635 39.7128 32.8575C39.4658 33.3515 38.8652 33.5517 38.3712 33.3047L38.0682 33.1532C37.5742 32.9062 37.374 32.3055 37.6209 31.8116ZM40.9543 33.4782C41.2013 32.9842 41.8019 32.784 42.2959 33.031L42.4474 33.1068C42.9414 33.3538 43.1416 33.9544 42.8946 34.4484C42.6477 34.9424 42.047 35.1426 41.553 34.8956L41.4015 34.8199C40.9075 34.5729 40.7073 33.9722 40.9543 33.4782Z" fill="#B480DE"/>
<path fill-rule="evenodd" clip-rule="evenodd" d="M24 4.00098C24.5523 4.00098 25 4.44869 25 5.00098V5.16764C25 5.71993 24.5523 6.16764 24 6.16764C23.4477 6.16764 23 5.71993 23 5.16764V5.00098C23 4.44869 23.4477 4.00098 24 4.00098ZM24 7.50098C24.5523 7.50098 25 7.94869 25 8.50098V8.83431C25 9.38659 24.5523 9.83431 24 9.83431C23.4477 9.83431 23 9.38659 23 8.83431V8.50098C23 7.94869 23.4477 7.50098 24 7.50098ZM24 11.1676C24.5523 11.1676 25 11.6154 25 12.1676V12.501C25 13.0533 24.5523 13.501 24 13.501C23.4477 13.501 23 13.0533 23 12.501V12.1676C23 11.6154 23.4477 11.1676 24 11.1676ZM24 14.8343C24.5523 14.8343 25 15.282 25 15.8343V16.001C25 16.5533 24.5523 17.001 24 17.001C23.4477 17.001 23 16.5533 23 16.001V15.8343C23 15.282 23.4477 14.8343 24 14.8343Z" fill="#B480DE"/>
</svg>
