<svg width="24" height="24" viewBox="0 0 24 24" fill="none" xmlns="http://www.w3.org/2000/svg">
<path d="M3.08906 7.94063L11.8891 2.07396C11.9562 2.02917 12.0438 2.02917 12.1109 2.07396L20.9109 7.94063C20.9666 7.97772 21 8.04017 21 8.10704V16.8878C21 16.9575 20.9637 17.0222 20.9043 17.0585L12.1043 22.4363C12.0403 22.4754 11.9597 22.4754 11.8957 22.4363L3.09571 17.0585C3.03626 17.0222 3 16.9575 3 16.8878V8.10704C3 8.04017 3.03342 7.97772 3.08906 7.94063Z" stroke="black" stroke-width="1.5" stroke-linecap="round"/>
<path d="M8.09935 10.2716L11.8994 8.05861C11.9616 8.02239 12.0384 8.02239 12.1006 8.05861L15.9006 10.2716C15.9622 10.3074 16 10.3732 16 10.4444V14.504C16 14.5745 15.9629 14.6397 15.9023 14.6758L12.1023 16.939C12.0393 16.9766 11.9607 16.9766 11.8977 16.939L8.09766 14.6758C8.0371 14.6397 8 14.5745 8 14.504V10.4444C8 10.3732 8.03784 10.3074 8.09935 10.2716Z" stroke="black" stroke-linecap="round"/>
<path d="M8 10.5L12 12.5M12 12.5L16 10.5M12 12.5V17" stroke="black" stroke-linecap="round"/>
<path d="M3 17L8 14.5" stroke="black" stroke-linecap="round" stroke-dasharray="0.2 2"/>
<path d="M16 14.5L21 17" stroke="black" stroke-linecap="round" stroke-dasharray="0.2 2"/>
<path d="M12 2.5V8" stroke="black" stroke-linecap="round" stroke-dasharray="0.2 2"/>
</svg>
