<svg width="48" height="48" viewBox="0 0 48 48" fill="none" xmlns="http://www.w3.org/2000/svg">
<path d="M6 12C6 9.79086 7.79086 8 10 8H38C40.2091 8 42 9.79086 42 12V38C42 40.2091 40.2091 42 38 42H10C7.79086 42 6 40.2091 6 38V12Z" fill="#E8E8E8"/>
<path fill-rule="evenodd" clip-rule="evenodd" d="M4.5 12C4.5 8.96243 6.96243 6.5 10 6.5H38C41.0376 6.5 43.5 8.96243 43.5 12V38C43.5 41.0376 41.0376 43.5 38 43.5H10C6.96243 43.5 4.5 41.0376 4.5 38V12ZM10 9.5C8.61929 9.5 7.5 10.6193 7.5 12V38C7.5 39.3807 8.61929 40.5 10 40.5H38C39.3807 40.5 40.5 39.3807 40.5 38V12C40.5 10.6193 39.3807 9.5 38 9.5H10Z" fill="#B480DE"/>
<path fill-rule="evenodd" clip-rule="evenodd" d="M17.5336 19.4008C17.9649 19.7458 18.0348 20.3751 17.6898 20.8064L13.4623 26.0908L17.6898 31.3752C18.0348 31.8064 17.9649 32.4357 17.5336 32.7807C17.1023 33.1257 16.4731 33.0558 16.128 32.6246L11.4008 26.7155C11.1086 26.3502 11.1086 25.8313 11.4008 25.4661L16.128 19.557C16.4731 19.1257 17.1023 19.0558 17.5336 19.4008Z" fill="#B480DE"/>
<path fill-rule="evenodd" clip-rule="evenodd" d="M30.4664 19.4008C30.0351 19.7458 29.9652 20.3751 30.3102 20.8064L34.5377 26.0908L30.3102 31.3752C29.9652 31.8064 30.0351 32.4357 30.4664 32.7807C30.8977 33.1257 31.5269 33.0558 31.872 32.6246L36.5992 26.7155C36.8914 26.3502 36.8914 25.8313 36.5992 25.4661L31.872 19.557C31.5269 19.1257 30.8977 19.0558 30.4664 19.4008Z" fill="#B480DE"/>
<path fill-rule="evenodd" clip-rule="evenodd" d="M24 22.7266C24.5523 22.7266 25 23.1743 25 23.7266V30.8175C25 31.3698 24.5523 31.8175 24 31.8175C23.4477 31.8175 23 31.3698 23 30.8175V23.7266C23 23.1743 23.4477 22.7266 24 22.7266Z" fill="#B480DE"/>
<path fill-rule="evenodd" clip-rule="evenodd" d="M24 17.5C24.8284 17.5 25.5 18.1716 25.5 19C25.5 19.8284 24.8284 20.5002 24 20.5002C23.1716 20.5002 22.5 19.8286 22.5 19.0002C22.5 18.1718 23.1716 17.5 24 17.5Z" fill="#B480DE"/>
</svg>
