<svg width="48" height="48" viewBox="0 0 48 48" fill="none" xmlns="http://www.w3.org/2000/svg">
<path d="M6 12C6 9.79086 7.79086 8 10 8H38C40.2091 8 42 9.79086 42 12V36C42 38.2091 40.2091 40 38 40H10C7.79086 40 6 38.2091 6 36V12Z" fill="#E8E8E8"/>
<path fill-rule="evenodd" clip-rule="evenodd" d="M4.5 12C4.5 8.96243 6.96243 6.5 10 6.5H38C41.0376 6.5 43.5 8.96243 43.5 12V36C43.5 39.0376 41.0376 41.5 38 41.5H10C6.96243 41.5 4.5 39.0376 4.5 36V12ZM10 9.5C8.61929 9.5 7.5 10.6193 7.5 12V36C7.5 37.3807 8.61929 38.5 10 38.5H38C39.3807 38.5 40.5 37.3807 40.5 36V12C40.5 10.6193 39.3807 9.5 38 9.5H10Z" fill="#B480DE"/>
<path fill-rule="evenodd" clip-rule="evenodd" d="M35.1219 23.533C33.9502 22.3613 32.0504 22.3614 30.8789 23.5333L25.2903 29.1238C23.4618 30.953 20.5401 31.0857 18.5532 29.43L17.6544 28.6809C16.6337 27.8304 15.1752 27.7525 14.0697 28.4895L7.55481 32.8327C7.09528 33.1391 6.47441 33.0149 6.16806 32.5554C5.8617 32.0958 5.98588 31.475 6.44541 31.1686L12.9603 26.8254C14.8028 25.5971 17.2336 25.7269 18.9347 27.1445L19.8336 27.8936C21.0257 28.887 22.7787 28.8073 23.8758 27.7099L29.4645 22.1194C31.417 20.1662 34.5833 20.1659 36.5361 22.1188L41.7072 27.2899C42.0977 27.6804 42.0977 28.3135 41.7072 28.7041C41.3167 29.0946 40.6835 29.0946 40.293 28.7041L35.1219 23.533Z" fill="#B480DE"/>
<path fill-rule="evenodd" clip-rule="evenodd" d="M16 15C14.3431 15 13 16.3431 13 18C13 19.6569 14.3431 21 16 21C17.6569 21 19 19.6569 19 18C19 16.3431 17.6569 15 16 15ZM11 18C11 15.2386 13.2386 13 16 13C18.7614 13 21 15.2386 21 18C21 20.7614 18.7614 23 16 23C13.2386 23 11 20.7614 11 18Z" fill="#B480DE"/>
</svg>
