<svg width="48" height="48" viewBox="0 0 48 48" fill="none" xmlns="http://www.w3.org/2000/svg">
<path d="M6 10C6 7.79086 7.79086 6 10 6H38C40.2091 6 42 7.79086 42 10V28C42 30.2091 40.2091 32 38 32H10C7.79086 32 6 30.2091 6 28V10Z" fill="#E8E8E8"/>
<path fill-rule="evenodd" clip-rule="evenodd" d="M4.5 10C4.5 6.96243 6.96243 4.5 10 4.5H38C41.0376 4.5 43.5 6.96243 43.5 10V28C43.5 31.0376 41.0376 33.5 38 33.5H10C6.96243 33.5 4.5 31.0376 4.5 28V10ZM10 7.5C8.61929 7.5 7.5 8.61929 7.5 10V28C7.5 29.3807 8.61929 30.5 10 30.5H38C39.3807 30.5 40.5 29.3807 40.5 28V10C40.5 8.61929 39.3807 7.5 38 7.5H10Z" fill="#B480DE"/>
<path fill-rule="evenodd" clip-rule="evenodd" d="M33.2898 20.2142C32.217 19.6063 30.8815 19.7167 29.9232 20.4925L25.2823 24.2495C23.574 25.6325 21.1629 25.7377 19.3406 24.5087L18.8347 24.1675C17.9193 23.5502 16.7387 23.4856 15.7614 23.9993L6.4655 28.8858C5.97664 29.1428 5.37202 28.9548 5.11505 28.466C4.85807 27.9771 5.04605 27.3725 5.53491 27.1155L14.8308 22.229C16.4597 21.3727 18.4272 21.4804 19.9529 22.5094L20.4589 22.8506C21.5522 23.5879 22.9989 23.5248 24.0239 22.695L28.6647 18.9381C30.262 17.645 32.4879 17.461 34.2758 18.4741L42.4932 23.1307C42.9737 23.4029 43.1425 24.0132 42.8702 24.4937C42.5979 24.9742 41.9877 25.143 41.5072 24.8707L33.2898 20.2142Z" fill="#B480DE"/>
<path fill-rule="evenodd" clip-rule="evenodd" d="M17 13C15.8954 13 15 13.8954 15 15C15 16.1046 15.8954 17 17 17C18.1046 17 19 16.1046 19 15C19 13.8954 18.1046 13 17 13ZM13 15C13 12.7909 14.7909 11 17 11C19.2091 11 21 12.7909 21 15C21 17.2091 19.2091 19 17 19C14.7909 19 13 17.2091 13 15Z" fill="#B480DE"/>
<path fill-rule="evenodd" clip-rule="evenodd" d="M13 40C13 39.4477 13.4477 39 14 39H16C16.5523 39 17 39.4477 17 40C17 40.5523 16.5523 41 16 41H14C13.4477 41 13 40.5523 13 40Z" fill="#B480DE"/>
<path fill-rule="evenodd" clip-rule="evenodd" d="M20.5 40C20.5 39.1716 21.1716 38.5 22 38.5H26C26.8284 38.5 27.5 39.1716 27.5 40C27.5 40.8284 26.8284 41.5 26 41.5H22C21.1716 41.5 20.5 40.8284 20.5 40Z" fill="#B480DE"/>
<path fill-rule="evenodd" clip-rule="evenodd" d="M31 40C31 39.4477 31.4477 39 32 39H34C34.5523 39 35 39.4477 35 40C35 40.5523 34.5523 41 34 41H32C31.4477 41 31 40.5523 31 40Z" fill="#B480DE"/>
</svg>
