<svg width="48" height="48" viewBox="0 0 48 48" fill="none" xmlns="http://www.w3.org/2000/svg">
<path fill-rule="evenodd" clip-rule="evenodd" d="M35.0002 23.2582C33.9392 22.8824 32.7571 23.1322 31.9388 23.905L24.5775 30.8576C22.776 32.5591 20 32.6844 18.0526 31.1521L16.6281 30.0313C15.6311 29.2469 14.2485 29.1744 13.175 29.8501L6.03283 34.3457C5.56542 34.6399 4.94802 34.4994 4.65382 34.032C4.35962 33.5646 4.50003 32.9472 4.96744 32.653L12.1096 28.1575C13.8989 27.0313 16.2032 27.1522 17.8648 28.4595L19.2893 29.5803C20.4577 30.4997 22.1233 30.4245 23.2042 29.4036L30.5655 22.451C31.9294 21.1629 33.8996 20.7466 35.6679 21.3729L41.834 23.5567C42.3546 23.7411 42.6271 24.3126 42.4428 24.8332C42.2584 25.3538 41.6869 25.6264 41.1663 25.442L35.0002 23.2582Z" fill="#B480DE"/>
<path fill-rule="evenodd" clip-rule="evenodd" d="M15.5 14.5C13.8431 14.5 12.5 15.8431 12.5 17.5C12.5 19.1569 13.8431 20.5 15.5 20.5C17.1569 20.5 18.5 19.1569 18.5 17.5C18.5 15.8431 17.1569 14.5 15.5 14.5ZM10.5 17.5C10.5 14.7386 12.7386 12.5 15.5 12.5C18.2614 12.5 20.5 14.7386 20.5 17.5C20.5 20.2614 18.2614 22.5 15.5 22.5C12.7386 22.5 10.5 20.2614 10.5 17.5Z" fill="#B480DE"/>
<path fill-rule="evenodd" clip-rule="evenodd" d="M4 11.5C4 8.46243 6.46243 6 9.5 6H37.5C40.5376 6 43 8.46243 43 11.5V25.5C43 26.3284 42.3284 27 41.5 27C40.6716 27 40 26.3284 40 25.5V11.5C40 10.1193 38.8807 9 37.5 9H9.5C8.11929 9 7 10.1193 7 11.5V35.5C7 36.8807 8.11929 38 9.5 38H27.5C28.3284 38 29 38.6716 29 39.5C29 40.3284 28.3284 41 27.5 41H9.5C6.46243 41 4 38.5376 4 35.5V11.5Z" fill="#B480DE"/>
<path fill-rule="evenodd" clip-rule="evenodd" d="M41.1026 30.6911L33.9549 37.9109C33.2975 38.575 32.852 39.4161 32.6704 40.3279C33.6806 40.1105 34.6098 39.6036 35.3418 38.8643L42.2953 31.8405C42.0063 31.3592 41.5947 30.9624 41.1026 30.6911ZM40.0408 28.9208C40.3958 28.5622 40.9297 28.4483 41.4002 28.6308L41.4397 28.6461C42.7624 29.1591 43.8172 30.1917 44.3582 31.5033C44.5516 31.9722 44.4454 32.5114 44.0885 32.872L36.7631 40.2714C35.5991 41.4471 34.0721 42.1952 32.4297 42.3942C31.3717 42.5225 30.4761 41.62 30.6124 40.5631L30.6343 40.393C30.8238 38.9234 31.4911 37.5568 32.5336 36.5038L40.0408 28.9208Z" fill="#B480DE"/>
<path d="M44 16L45 17" stroke="#B480DE" stroke-linecap="square"/>
</svg>
