<svg width="24" height="24" viewBox="0 0 24 24" fill="none" xmlns="http://www.w3.org/2000/svg">
<path d="M3 17L6.57107 14.7522C7.28679 14.3017 8.20851 14.3501 8.87315 14.873L9.58539 15.4334C10.3644 16.0463 11.4748 15.9962 12.1953 15.3156L15.876 11.8393C16.4216 11.3241 17.2096 11.1576 17.917 11.4081L21 12.5" stroke="black" stroke-linecap="round" stroke-linejoin="round"/>
<circle cx="8" cy="9" r="2" stroke="black"/>
<path d="M14 20H12H5C3.89543 20 3 19.1046 3 18V6C3 4.89543 3.89543 4 5 4H19C20.1046 4 21 4.89543 21 6V12V13" stroke="black" stroke-width="1.5" stroke-linecap="round"/>
<path d="M16.0631 20.5106L16.0521 20.5957C16.0257 20.8007 16.1994 20.9758 16.4047 20.9509C17.114 20.865 17.7735 20.5419 18.2762 20.0341L21.9389 16.3344C21.9759 16.297 21.987 16.2411 21.9669 16.1925C21.7486 15.6632 21.3229 15.2465 20.7891 15.0394L20.7693 15.0317C20.7196 15.0125 20.6632 15.0245 20.6258 15.0624L16.8722 18.8539C16.4281 19.3024 16.1438 19.8846 16.0631 20.5106Z" stroke="black"/>
<path d="M20 16L21 17" stroke="black" stroke-linecap="square"/>
</svg>
