<svg width="24" height="24" viewBox="0 0 24 24" fill="none" xmlns="http://www.w3.org/2000/svg">
<rect width="24" height="24" fill="white"/>
<path d="M18 7L22 7" stroke="black" stroke-width="1.5"/>
<path d="M18 19L22 19" stroke="black" stroke-width="1.5"/>
<path d="M20 7V19" stroke="black" stroke-width="1.5"/>
<path d="M4.56 15.33C4.78 15.33 4.97333 15.3267 5.14 15.32C5.31333 15.3067 5.45667 15.2867 5.57 15.26V13.71C5.50333 13.6767 5.39333 13.65 5.24 13.63C5.09333 13.6033 4.91333 13.59 4.7 13.59C4.56 13.59 4.41 13.6 4.25 13.62C4.09667 13.64 3.95333 13.6833 3.82 13.75C3.69333 13.81 3.58667 13.8967 3.5 14.01C3.41333 14.1167 3.37 14.26 3.37 14.44C3.37 14.7733 3.47667 15.0067 3.69 15.14C3.90333 15.2667 4.19333 15.33 4.56 15.33ZM4.48 10.67C4.85333 10.67 5.16667 10.72 5.42 10.82C5.68 10.9133 5.88667 11.05 6.04 11.23C6.2 11.4033 6.31333 11.6133 6.38 11.86C6.44667 12.1 6.48 12.3667 6.48 12.66V15.91C6.4 15.9233 6.28667 15.9433 6.14 15.97C6 15.99 5.84 16.01 5.66 16.03C5.48 16.05 5.28333 16.0667 5.07 16.08C4.86333 16.1 4.65667 16.11 4.45 16.11C4.15667 16.11 3.88667 16.08 3.64 16.02C3.39333 15.96 3.18 15.8667 3 15.74C2.82 15.6067 2.68 15.4333 2.58 15.22C2.48 15.0067 2.43 14.75 2.43 14.45C2.43 14.1633 2.48667 13.9167 2.6 13.71C2.72 13.5033 2.88 13.3367 3.08 13.21C3.28 13.0833 3.51333 12.99 3.78 12.93C4.04667 12.87 4.32667 12.84 4.62 12.84C4.71333 12.84 4.81 12.8467 4.91 12.86C5.01 12.8667 5.10333 12.88 5.19 12.9C5.28333 12.9133 5.36333 12.9267 5.43 12.94C5.49667 12.9533 5.54333 12.9633 5.57 12.97V12.71C5.57 12.5567 5.55333 12.4067 5.52 12.26C5.48667 12.1067 5.42667 11.9733 5.34 11.86C5.25333 11.74 5.13333 11.6467 4.98 11.58C4.83333 11.5067 4.64 11.47 4.4 11.47C4.09333 11.47 3.82333 11.4933 3.59 11.54C3.36333 11.58 3.19333 11.6233 3.08 11.67L2.97 10.9C3.09 10.8467 3.29 10.7967 3.57 10.75C3.85 10.6967 4.15333 10.67 4.48 10.67ZM8.95461 11.03C9.06794 10.9567 9.23794 10.88 9.46461 10.8C9.69794 10.72 9.96461 10.68 10.2646 10.68C10.6379 10.68 10.9679 10.7467 11.2546 10.88C11.5479 11.0133 11.7946 11.2 11.9946 11.44C12.1946 11.68 12.3446 11.9667 12.4446 12.3C12.5513 12.6333 12.6046 13 12.6046 13.4C12.6046 13.82 12.5413 14.2 12.4146 14.54C12.2946 14.8733 12.1213 15.1567 11.8946 15.39C11.6679 15.6233 11.3946 15.8033 11.0746 15.93C10.7546 16.0567 10.3946 16.12 9.99461 16.12C9.56128 16.12 9.17794 16.09 8.84461 16.03C8.51128 15.97 8.23794 15.91 8.02461 15.85V8.4L8.95461 8.24V11.03ZM8.95461 15.19C9.04794 15.2167 9.17794 15.2433 9.34461 15.27C9.51794 15.29 9.73128 15.3 9.98461 15.3C10.4846 15.3 10.8846 15.1367 11.1846 14.81C11.4846 14.4767 11.6346 14.0067 11.6346 13.4C11.6346 13.1333 11.6079 12.8833 11.5546 12.65C11.5013 12.4167 11.4146 12.2167 11.2946 12.05C11.1746 11.8767 11.0179 11.7433 10.8246 11.65C10.6379 11.55 10.4113 11.5 10.1446 11.5C9.89128 11.5 9.65794 11.5433 9.44461 11.63C9.23128 11.7167 9.06794 11.8067 8.95461 11.9V15.19ZM16.1733 16.12C15.7533 16.12 15.3833 16.0533 15.0633 15.92C14.7499 15.7867 14.4833 15.6 14.2633 15.36C14.0499 15.12 13.8899 14.8367 13.7833 14.51C13.6766 14.1767 13.6233 13.81 13.6233 13.41C13.6233 13.01 13.6799 12.6433 13.7933 12.31C13.9133 11.9767 14.0799 11.69 14.2933 11.45C14.5066 11.2033 14.7666 11.0133 15.0733 10.88C15.3866 10.74 15.7333 10.67 16.1133 10.67C16.3466 10.67 16.5799 10.69 16.8133 10.73C17.0466 10.77 17.2699 10.8333 17.4833 10.92L17.2733 11.71C17.1333 11.6433 16.9699 11.59 16.7833 11.55C16.6033 11.51 16.4099 11.49 16.2033 11.49C15.6833 11.49 15.2833 11.6533 15.0033 11.98C14.7299 12.3067 14.5933 12.7833 14.5933 13.41C14.5933 13.69 14.6233 13.9467 14.6833 14.18C14.7499 14.4133 14.8499 14.6133 14.9833 14.78C15.1233 14.9467 15.2999 15.0767 15.5133 15.17C15.7266 15.2567 15.9866 15.3 16.2933 15.3C16.5399 15.3 16.7633 15.2767 16.9633 15.23C17.1633 15.1833 17.3199 15.1333 17.4333 15.08L17.5633 15.86C17.5099 15.8933 17.4333 15.9267 17.3333 15.96C17.2333 15.9867 17.1199 16.01 16.9933 16.03C16.8666 16.0567 16.7299 16.0767 16.5833 16.09C16.4433 16.11 16.3066 16.12 16.1733 16.12Z" fill="black"/>
</svg>
