<svg width="24" height="24" viewBox="0 0 24 24" fill="none" xmlns="http://www.w3.org/2000/svg">
<rect width="24" height="24" fill="white"/>
<path d="M18 7L22 7" stroke="black"/>
<path d="M18 19L22 19" stroke="black"/>
<path d="M20 7V19" stroke="black"/>
<path d="M4.61 15.15C4.98333 15.15 5.26667 15.13 5.46 15.09V13.75C5.39333 13.73 5.29667 13.71 5.17 13.69C5.04333 13.67 4.90333 13.66 4.75 13.66C4.61667 13.66 4.48 13.67 4.34 13.69C4.20667 13.71 4.08333 13.7467 3.97 13.8C3.86333 13.8533 3.77667 13.93 3.71 14.03C3.64333 14.1233 3.61 14.2433 3.61 14.39C3.61 14.6767 3.7 14.8767 3.88 14.99C4.06 15.0967 4.30333 15.15 4.61 15.15ZM4.51 10.64C4.91 10.64 5.24667 10.69 5.52 10.79C5.79333 10.89 6.01 11.03 6.17 11.21C6.33667 11.39 6.45333 11.61 6.52 11.87C6.59333 12.1233 6.63 12.4033 6.63 12.71V15.88C6.44333 15.92 6.16 15.9667 5.78 16.02C5.40667 16.08 4.98333 16.11 4.51 16.11C4.19667 16.11 3.91 16.08 3.65 16.02C3.39 15.96 3.16667 15.8633 2.98 15.73C2.8 15.5967 2.65667 15.4233 2.55 15.21C2.45 14.9967 2.4 14.7333 2.4 14.42C2.4 14.12 2.45667 13.8667 2.57 13.66C2.69 13.4533 2.85 13.2867 3.05 13.16C3.25 13.0267 3.48 12.9333 3.74 12.88C4.00667 12.82 4.28333 12.79 4.57 12.79C4.70333 12.79 4.84333 12.8 4.99 12.82C5.13667 12.8333 5.29333 12.86 5.46 12.9V12.7C5.46 12.56 5.44333 12.4267 5.41 12.3C5.37667 12.1733 5.31667 12.0633 5.23 11.97C5.15 11.87 5.04 11.7933 4.9 11.74C4.76667 11.6867 4.59667 11.66 4.39 11.66C4.11 11.66 3.85333 11.68 3.62 11.72C3.38667 11.76 3.19667 11.8067 3.05 11.86L2.9 10.88C3.05333 10.8267 3.27667 10.7733 3.57 10.72C3.86333 10.6667 4.17667 10.64 4.51 10.64ZM11.5818 13.37C11.5818 12.8567 11.4785 12.45 11.2718 12.15C11.0718 11.85 10.7518 11.7 10.3118 11.7C10.1118 11.7 9.9218 11.73 9.7418 11.79C9.56846 11.85 9.42846 11.9167 9.3218 11.99V15C9.40846 15.02 9.51846 15.04 9.6518 15.06C9.7918 15.0733 9.95846 15.08 10.1518 15.08C10.5985 15.08 10.9485 14.93 11.2018 14.63C11.4551 14.3233 11.5818 13.9033 11.5818 13.37ZM12.8218 13.39C12.8218 13.81 12.7585 14.19 12.6318 14.53C12.5118 14.8633 12.3351 15.15 12.1018 15.39C11.8751 15.63 11.5985 15.8133 11.2718 15.94C10.9451 16.0667 10.5751 16.13 10.1618 16.13C9.7618 16.13 9.37846 16.1 9.0118 16.04C8.6518 15.98 8.3518 15.9133 8.1118 15.84V8.44L9.3218 8.24V10.95C9.4618 10.8767 9.6318 10.81 9.8318 10.75C10.0385 10.69 10.2651 10.66 10.5118 10.66C10.8785 10.66 11.2051 10.7267 11.4918 10.86C11.7851 10.9867 12.0285 11.17 12.2218 11.41C12.4151 11.65 12.5618 11.94 12.6618 12.28C12.7685 12.6133 12.8218 12.9833 12.8218 13.39ZM13.7788 13.39C13.7788 13.0033 13.8388 12.6433 13.9588 12.31C14.0788 11.97 14.2488 11.6767 14.4688 11.43C14.6955 11.1833 14.9688 10.99 15.2888 10.85C15.6088 10.71 15.9688 10.64 16.3688 10.64C16.8622 10.64 17.3288 10.73 17.7688 10.91L17.5088 11.9C17.3688 11.84 17.2088 11.79 17.0288 11.75C16.8555 11.71 16.6688 11.69 16.4688 11.69C15.9955 11.69 15.6355 11.84 15.3888 12.14C15.1422 12.4333 15.0188 12.85 15.0188 13.39C15.0188 13.91 15.1355 14.3233 15.3688 14.63C15.6022 14.93 15.9955 15.08 16.5488 15.08C16.7555 15.08 16.9588 15.06 17.1588 15.02C17.3588 14.98 17.5322 14.93 17.6788 14.87L17.8488 15.87C17.7155 15.9367 17.5122 15.9967 17.2388 16.05C16.9722 16.1033 16.6955 16.13 16.4088 16.13C15.9622 16.13 15.5722 16.0633 15.2388 15.93C14.9122 15.79 14.6388 15.6 14.4188 15.36C14.2055 15.1133 14.0455 14.8233 13.9388 14.49C13.8322 14.15 13.7788 13.7833 13.7788 13.39Z" fill="black"/>
</svg>
