<svg width="48" height="48" viewBox="0 0 48 48" fill="none" xmlns="http://www.w3.org/2000/svg">
<rect width="48" height="48" fill="white"/>
<path fill-rule="evenodd" clip-rule="evenodd" d="M44.001 15.5L36.001 15.5L36.001 12.5L44.001 12.5L44.001 15.5Z" fill="#B480DE"/>
<path fill-rule="evenodd" clip-rule="evenodd" d="M44.001 39.5L36.001 39.5L36.001 36.5L44.001 36.5L44.001 39.5Z" fill="#B480DE"/>
<path fill-rule="evenodd" clip-rule="evenodd" d="M38.501 38V14H41.501V38H38.501Z" fill="#B480DE"/>
<path d="M32.3471 32.2408C31.5071 32.2408 30.7671 32.1075 30.1271 31.8408C29.5004 31.5742 28.9671 31.2008 28.5271 30.7208C28.1004 30.2408 27.7804 29.6742 27.5671 29.0208C27.3537 28.3542 27.2471 27.6208 27.2471 26.8208C27.2471 26.0208 27.3604 25.2875 27.5871 24.6208C27.8271 23.9542 28.1604 23.3808 28.5871 22.9008C29.0137 22.4075 29.5337 22.0275 30.1471 21.7608C30.7737 21.4808 31.4671 21.3408 32.2271 21.3408C32.6937 21.3408 33.1604 21.3808 33.6271 21.4608C34.0937 21.5408 34.5404 21.6675 34.9671 21.8408L34.5471 23.4208C34.2671 23.2875 33.9404 23.1808 33.5671 23.1008C33.2071 23.0208 32.8204 22.9808 32.4071 22.9808C31.3671 22.9808 30.5671 23.3075 30.0071 23.9608C29.4604 24.6142 29.1871 25.5675 29.1871 26.8208C29.1871 27.3808 29.2471 27.8942 29.3671 28.3608C29.5004 28.8275 29.7004 29.2275 29.9671 29.5608C30.2471 29.8942 30.6004 30.1542 31.0271 30.3408C31.4537 30.5142 31.9737 30.6008 32.5871 30.6008C33.0804 30.6008 33.5271 30.5542 33.9271 30.4608C34.3271 30.3675 34.6404 30.2675 34.8671 30.1608L35.1271 31.7208C35.0204 31.7875 34.8671 31.8542 34.6671 31.9208C34.4671 31.9742 34.2404 32.0208 33.9871 32.0608C33.7337 32.1142 33.4604 32.1542 33.1671 32.1808C32.8871 32.2208 32.6137 32.2408 32.3471 32.2408Z" fill="#B480DE"/>
<path d="M17.9098 22.0605C18.1365 21.9138 18.4765 21.7605 18.9298 21.6005C19.3965 21.4405 19.9298 21.3605 20.5298 21.3605C21.2765 21.3605 21.9365 21.4938 22.5098 21.7605C23.0965 22.0271 23.5898 22.4005 23.9898 22.8805C24.3898 23.3605 24.6898 23.9338 24.8898 24.6005C25.1031 25.2671 25.2098 26.0005 25.2098 26.8005C25.2098 27.6405 25.0831 28.4005 24.8298 29.0805C24.5898 29.7471 24.2431 30.3138 23.7898 30.7805C23.3365 31.2471 22.7898 31.6071 22.1498 31.8605C21.5098 32.1138 20.7898 32.2405 19.9898 32.2405C19.1231 32.2405 18.3565 32.1805 17.6898 32.0605C17.0231 31.9405 16.4765 31.8205 16.0498 31.7005V16.8005L17.9098 16.4805V22.0605ZM17.9098 30.3805C18.0965 30.4338 18.3565 30.4871 18.6898 30.5405C19.0365 30.5805 19.4631 30.6005 19.9698 30.6005C20.9698 30.6005 21.7698 30.2738 22.3698 29.6205C22.9698 28.9538 23.2698 28.0138 23.2698 26.8005C23.2698 26.2671 23.2165 25.7671 23.1098 25.3005C23.0031 24.8338 22.8298 24.4338 22.5898 24.1005C22.3498 23.7538 22.0365 23.4871 21.6498 23.3005C21.2765 23.1005 20.8231 23.0005 20.2898 23.0005C19.7831 23.0005 19.3165 23.0871 18.8898 23.2605C18.4631 23.4338 18.1365 23.6138 17.9098 23.8005V30.3805Z" fill="#B480DE"/>
<path d="M9.12035 30.6608C9.56035 30.6608 9.94702 30.6542 10.2804 30.6408C10.627 30.6142 10.9137 30.5742 11.1404 30.5208V27.4208C11.007 27.3542 10.787 27.3008 10.4804 27.2608C10.187 27.2075 9.82702 27.1808 9.40035 27.1808C9.12035 27.1808 8.82035 27.2008 8.50035 27.2408C8.19368 27.2808 7.90702 27.3675 7.64035 27.5008C7.38702 27.6208 7.17368 27.7942 7.00035 28.0208C6.82702 28.2342 6.74035 28.5208 6.74035 28.8808C6.74035 29.5475 6.95369 30.0142 7.38035 30.2808C7.80702 30.5342 8.38702 30.6608 9.12035 30.6608ZM8.96035 21.3408C9.70702 21.3408 10.3337 21.4408 10.8404 21.6408C11.3604 21.8275 11.7737 22.1008 12.0804 22.4608C12.4004 22.8075 12.627 23.2275 12.7604 23.7208C12.8937 24.2008 12.9604 24.7342 12.9604 25.3208V31.8208C12.8004 31.8475 12.5737 31.8875 12.2804 31.9408C12.0004 31.9808 11.6804 32.0208 11.3204 32.0608C10.9604 32.1008 10.567 32.1342 10.1404 32.1608C9.72702 32.2008 9.31368 32.2208 8.90035 32.2208C8.31368 32.2208 7.77368 32.1608 7.28035 32.0408C6.78702 31.9208 6.36035 31.7342 6.00035 31.4808C5.64035 31.2142 5.36035 30.8675 5.16035 30.4408C4.96035 30.0142 4.86035 29.5008 4.86035 28.9008C4.86035 28.3275 4.97368 27.8342 5.20035 27.4208C5.44035 27.0075 5.76035 26.6742 6.16035 26.4208C6.56035 26.1675 7.02702 25.9808 7.56035 25.8608C8.09368 25.7408 8.65369 25.6808 9.24035 25.6808C9.42702 25.6808 9.62035 25.6942 9.82035 25.7208C10.0204 25.7342 10.207 25.7608 10.3804 25.8008C10.567 25.8275 10.727 25.8542 10.8604 25.8808C10.9937 25.9075 11.087 25.9275 11.1404 25.9408V25.4208C11.1404 25.1142 11.107 24.8142 11.0404 24.5208C10.9737 24.2142 10.8537 23.9475 10.6804 23.7208C10.507 23.4808 10.267 23.2942 9.96035 23.1608C9.66702 23.0142 9.28035 22.9408 8.80035 22.9408C8.18702 22.9408 7.64702 22.9875 7.18035 23.0808C6.72702 23.1608 6.38702 23.2475 6.16035 23.3408L5.94035 21.8008C6.18035 21.6942 6.58035 21.5942 7.14035 21.5008C7.70035 21.3942 8.30702 21.3408 8.96035 21.3408Z" fill="#B480DE"/>
</svg>
