<svg width="48" height="48" viewBox="0 0 48 48" fill="none" xmlns="http://www.w3.org/2000/svg">
<rect width="48" height="48" fill="white"/>
<path fill-rule="evenodd" clip-rule="evenodd" d="M43.999 15L35.999 15L35.999 13L43.999 13L43.999 15Z" fill="#B480DE"/>
<path fill-rule="evenodd" clip-rule="evenodd" d="M43.999 39L35.999 39L35.999 37L43.999 37L43.999 39Z" fill="#B480DE"/>
<path fill-rule="evenodd" clip-rule="evenodd" d="M38.999 38V14H40.999V38H38.999Z" fill="#B480DE"/>
<path d="M27.5576 26.7803C27.5576 26.0069 27.6776 25.2869 27.9176 24.6203C28.1576 23.9403 28.4976 23.3536 28.9376 22.8603C29.391 22.3669 29.9376 21.9803 30.5776 21.7003C31.2176 21.4203 31.9376 21.2803 32.7376 21.2803C33.7243 21.2803 34.6576 21.4603 35.5376 21.8203L35.0176 23.8003C34.7376 23.6803 34.4176 23.5803 34.0576 23.5003C33.711 23.4203 33.3376 23.3803 32.9376 23.3803C31.991 23.3803 31.271 23.6803 30.7776 24.2803C30.2843 24.8669 30.0376 25.7003 30.0376 26.7803C30.0376 27.8203 30.271 28.6469 30.7376 29.2603C31.2043 29.8603 31.991 30.1603 33.0976 30.1603C33.511 30.1603 33.9176 30.1203 34.3176 30.0403C34.7176 29.9603 35.0643 29.8603 35.3576 29.7403L35.6976 31.7403C35.431 31.8736 35.0243 31.9936 34.4776 32.1003C33.9443 32.2069 33.391 32.2603 32.8176 32.2603C31.9243 32.2603 31.1443 32.1269 30.4776 31.8603C29.8243 31.5803 29.2776 31.2003 28.8376 30.7203C28.411 30.2269 28.091 29.6469 27.8776 28.9803C27.6643 28.3003 27.5576 27.5669 27.5576 26.7803Z" fill="#B480DE"/>
<path d="M23.1636 26.7405C23.1636 25.7138 22.957 24.9005 22.5436 24.3005C22.1436 23.7005 21.5036 23.4005 20.6236 23.4005C20.2236 23.4005 19.8436 23.4605 19.4836 23.5805C19.137 23.7005 18.857 23.8338 18.6436 23.9805V30.0005C18.817 30.0405 19.037 30.0805 19.3036 30.1205C19.5836 30.1471 19.917 30.1605 20.3036 30.1605C21.197 30.1605 21.897 29.8605 22.4036 29.2605C22.9103 28.6471 23.1636 27.8071 23.1636 26.7405ZM25.6436 26.7805C25.6436 27.6205 25.517 28.3805 25.2636 29.0605C25.0236 29.7271 24.6703 30.3005 24.2036 30.7805C23.7503 31.2605 23.197 31.6271 22.5436 31.8805C21.8903 32.1338 21.1503 32.2605 20.3236 32.2605C19.5236 32.2605 18.757 32.2005 18.0236 32.0805C17.3036 31.9605 16.7036 31.8271 16.2236 31.6805V16.8805L18.6436 16.4805V21.9005C18.9236 21.7538 19.2636 21.6205 19.6636 21.5005C20.077 21.3805 20.5303 21.3205 21.0236 21.3205C21.757 21.3205 22.4103 21.4538 22.9836 21.7205C23.5703 21.9738 24.057 22.3405 24.4436 22.8205C24.8303 23.3005 25.1236 23.8805 25.3236 24.5605C25.537 25.2271 25.6436 25.9671 25.6436 26.7805Z" fill="#B480DE"/>
<path d="M9.2198 30.3003C9.96647 30.3003 10.5331 30.2603 10.9198 30.1803V27.5003C10.7865 27.4603 10.5931 27.4203 10.3398 27.3803C10.0865 27.3403 9.80647 27.3203 9.4998 27.3203C9.23314 27.3203 8.95981 27.3403 8.6798 27.3803C8.41314 27.4203 8.16647 27.4936 7.93981 27.6003C7.72647 27.7069 7.55314 27.8603 7.4198 28.0603C7.28647 28.2469 7.2198 28.4869 7.2198 28.7803C7.2198 29.3536 7.3998 29.7536 7.7598 29.9803C8.1198 30.1936 8.60647 30.3003 9.2198 30.3003ZM9.0198 21.2803C9.81981 21.2803 10.4931 21.3803 11.0398 21.5803C11.5865 21.7803 12.0198 22.0603 12.3398 22.4203C12.6731 22.7803 12.9065 23.2203 13.0398 23.7403C13.1865 24.2469 13.2598 24.8069 13.2598 25.4203V31.7603C12.8865 31.8403 12.3198 31.9336 11.5598 32.0403C10.8131 32.1603 9.96647 32.2203 9.0198 32.2203C8.39314 32.2203 7.8198 32.1603 7.2998 32.0403C6.7798 31.9203 6.33314 31.7269 5.9598 31.4603C5.5998 31.1936 5.31314 30.8469 5.0998 30.4203C4.8998 29.9936 4.7998 29.4669 4.7998 28.8403C4.7998 28.2403 4.91314 27.7336 5.1398 27.3203C5.3798 26.9069 5.6998 26.5736 6.0998 26.3203C6.4998 26.0536 6.95981 25.8669 7.4798 25.7603C8.01314 25.6403 8.56647 25.5803 9.1398 25.5803C9.40647 25.5803 9.68647 25.6003 9.9798 25.6403C10.2731 25.6669 10.5865 25.7203 10.9198 25.8003V25.4003C10.9198 25.1203 10.8865 24.8536 10.8198 24.6003C10.7531 24.3469 10.6331 24.1269 10.4598 23.9403C10.2998 23.7403 10.0798 23.5869 9.7998 23.4803C9.53314 23.3736 9.19314 23.3203 8.7798 23.3203C8.2198 23.3203 7.70647 23.3603 7.2398 23.4403C6.77314 23.5203 6.39314 23.6136 6.0998 23.7203L5.7998 21.7603C6.10647 21.6536 6.55314 21.5469 7.1398 21.4403C7.72647 21.3336 8.35314 21.2803 9.0198 21.2803Z" fill="#B480DE"/>
</svg>
