<svg width="48" height="48" viewBox="0 0 48 48" fill="none" xmlns="http://www.w3.org/2000/svg">
<path fill-rule="evenodd" clip-rule="evenodd" d="M26.5 12C26.5 11.1716 27.1716 10.5 28 10.5L42 10.5C42.8284 10.5 43.5 11.1716 43.5 12C43.5 12.8284 42.8284 13.5 42 13.5L28 13.5C27.1716 13.5 26.5 12.8284 26.5 12Z" fill="#DEDEDE"/>
<path fill-rule="evenodd" clip-rule="evenodd" d="M4.5 32C4.5 31.1716 5.17157 30.5 6 30.5L20 30.5C20.8284 30.5 21.5 31.1716 21.5 32C21.5 32.8284 20.8284 33.5 20 33.5L6 33.5C5.17157 33.5 4.5 32.8284 4.5 32Z" fill="#DEDEDE"/>
<path fill-rule="evenodd" clip-rule="evenodd" d="M12.5 38C12.5 37.1716 13.1716 36.5 14 36.5H20C20.8284 36.5 21.5 37.1716 21.5 38C21.5 38.8284 20.8284 39.5 20 39.5H14C13.1716 39.5 12.5 38.8284 12.5 38Z" fill="#DEDEDE"/>
<path fill-rule="evenodd" clip-rule="evenodd" d="M26.5 18C26.5 17.1716 27.1716 16.5 28 16.5L34 16.5C34.8284 16.5 35.5 17.1716 35.5 18C35.5 18.8284 34.8284 19.5 34 19.5H28C27.1716 19.5 26.5 18.8284 26.5 18Z" fill="#DEDEDE"/>
<path d="M6 14C6 9.58172 9.58172 6 14 6C18.4183 6 22 9.58172 22 14C22 18.4183 18.4183 22 14 22C9.58172 22 6 18.4183 6 14Z" fill="#B480DE"/>
<path fill-rule="evenodd" clip-rule="evenodd" d="M5 14C5 9.02944 9.02944 5 14 5C18.9706 5 23 9.02944 23 14C23 18.9706 18.9706 23 14 23C9.02944 23 5 18.9706 5 14ZM14 7C10.134 7 7 10.134 7 14C7 17.866 10.134 21 14 21C17.866 21 21 17.866 21 14C21 10.134 17.866 7 14 7Z" fill="#B480DE"/>
<path fill-rule="evenodd" clip-rule="evenodd" d="M14 9C13.4477 9 13 9.44772 13 10V13.6C13 14.3732 13.6268 15 14.4 15H18C18.5523 15 19 14.5523 19 14C19 13.4477 18.5523 13 18 13H15V10C15 9.44772 14.5523 9 14 9Z" fill="white"/>
<path d="M26 34C26 29.5817 29.5817 26 34 26C38.4183 26 42 29.5817 42 34C42 38.4183 38.4183 42 34 42C29.5817 42 26 38.4183 26 34Z" fill="#B480DE"/>
<path fill-rule="evenodd" clip-rule="evenodd" d="M25 34C25 29.0294 29.0294 25 34 25C38.9706 25 43 29.0294 43 34C43 38.9706 38.9706 43 34 43C29.0294 43 25 38.9706 25 34ZM34 27C30.134 27 27 30.134 27 34C27 37.866 30.134 41 34 41C37.866 41 41 37.866 41 34C41 30.134 37.866 27 34 27Z" fill="#B480DE"/>
<path fill-rule="evenodd" clip-rule="evenodd" d="M34 29C33.4477 29 33 29.4477 33 30V33.6C33 34.3732 33.6268 35 34.4 35H38C38.5523 35 39 34.5523 39 34C39 33.4477 38.5523 33 38 33H35V30C35 29.4477 34.5523 29 34 29Z" fill="white"/>
</svg>
