<svg width="48" height="48" viewBox="0 0 48 48" fill="none" xmlns="http://www.w3.org/2000/svg">
<rect width="48" height="48" fill="white"/>
<path fill-rule="evenodd" clip-rule="evenodd" d="M8.5 12C8.5 7.85786 11.8579 4.5 16 4.5H27.5147C29.5038 4.5 31.4115 5.29018 32.818 6.6967L37.3033 11.182C38.7098 12.5885 39.5 14.4962 39.5 16.4853V29C39.5 29.8284 38.8284 30.5 38 30.5C37.1716 30.5 36.5 29.8284 36.5 29V16.4853C36.5 15.2918 36.0259 14.1472 35.182 13.3033L30.6967 8.81802C29.8528 7.97411 28.7082 7.5 27.5147 7.5H16C13.5147 7.5 11.5 9.51472 11.5 12V29C11.5 29.8284 10.8284 30.5 10 30.5C9.17157 30.5 8.5 29.8284 8.5 29V12Z" fill="#B480DE"/>
<path d="M42.2787 43.3439C41.9142 42.7359 41.5067 42.0852 41.0564 41.3919C40.606 40.6879 40.1396 39.9839 39.6571 39.2799C39.1746 38.5652 38.6813 37.8772 38.1774 37.2159C37.6841 36.5439 37.2123 35.9412 36.762 35.4079V43.3439H34.7676V32.2559H36.4242C36.8531 32.7039 37.3142 33.2372 37.8074 33.8559C38.3007 34.4639 38.7939 35.0985 39.2871 35.7599C39.7911 36.4212 40.2736 37.0879 40.7347 37.7599C41.2065 38.4212 41.6247 39.0399 41.9892 39.6159V32.2559H43.9997V43.3439H42.2787Z" fill="#B480DE"/>
<path d="M23.8433 37.792C23.8433 38.4 23.9184 38.9547 24.0685 39.456C24.2186 39.9467 24.4331 40.368 24.7118 40.72C25.0014 41.0613 25.3498 41.328 25.7573 41.52C26.1648 41.712 26.6258 41.808 27.1405 41.808C27.6445 41.808 28.1002 41.712 28.5076 41.52C28.9151 41.328 29.2582 41.0613 29.537 40.72C29.8265 40.368 30.0463 39.9467 30.1964 39.456C30.3466 38.9547 30.4216 38.4 30.4216 37.792C30.4216 37.184 30.3466 36.6347 30.1964 36.144C30.0463 35.6427 29.8265 35.2213 29.537 34.88C29.2582 34.528 28.9151 34.256 28.5076 34.064C28.1002 33.872 27.6445 33.776 27.1405 33.776C26.6258 33.776 26.1648 33.872 25.7573 34.064C25.3498 34.256 25.0014 34.528 24.7118 34.88C24.4331 35.232 24.2186 35.6533 24.0685 36.144C23.9184 36.6347 23.8433 37.184 23.8433 37.792ZM32.5447 37.792C32.5447 38.7413 32.3999 39.5787 32.1104 40.304C31.8316 41.0293 31.4456 41.6373 30.9524 42.128C30.4699 42.608 29.9016 42.9707 29.2475 43.216C28.5934 43.4613 27.8965 43.584 27.1566 43.584C26.4167 43.584 25.7144 43.4613 25.0496 43.216C24.3955 42.9707 23.8219 42.608 23.3286 42.128C22.8461 41.6373 22.4601 41.0293 22.1706 40.304C21.8811 39.5787 21.7363 38.7413 21.7363 37.792C21.7363 36.8427 21.8811 36.0107 22.1706 35.296C22.4601 34.5707 22.8515 33.9627 23.3447 33.472C23.8487 32.9813 24.4277 32.6133 25.0818 32.368C25.7359 32.1227 26.4275 32 27.1566 32C27.8857 32 28.5773 32.1227 29.2314 32.368C29.8855 32.6133 30.4538 32.9813 30.9363 33.472C31.4295 33.9627 31.8209 34.5707 32.1104 35.296C32.3999 36.0107 32.5447 36.8427 32.5447 37.792Z" fill="#B480DE"/>
<path d="M16.203 41.84C16.9321 41.84 17.4629 41.7173 17.7953 41.472C18.1277 41.2267 18.2939 40.88 18.2939 40.432C18.2939 40.1653 18.2349 39.936 18.117 39.744C18.0097 39.552 17.8489 39.3813 17.6344 39.232C17.4307 39.072 17.1787 38.928 16.8785 38.8C16.5783 38.6613 16.2351 38.528 15.8491 38.4C15.4631 38.2613 15.0878 38.112 14.7233 37.952C14.3694 37.7813 14.0531 37.5733 13.7743 37.328C13.5062 37.0827 13.2864 36.7893 13.1149 36.448C12.954 36.1067 12.8736 35.696 12.8736 35.216C12.8736 34.2133 13.2221 33.4293 13.9191 32.864C14.616 32.288 15.565 32 16.7659 32C17.4629 32 18.0794 32.08 18.6156 32.24C19.1624 32.3893 19.5913 32.5547 19.9023 32.736L19.275 34.368C18.9104 34.1653 18.5083 34.0107 18.0687 33.904C17.6398 33.7973 17.1948 33.744 16.7337 33.744C16.1869 33.744 15.758 33.856 15.447 34.08C15.1468 34.304 14.9967 34.6187 14.9967 35.024C14.9967 35.2693 15.0449 35.4827 15.1414 35.664C15.2487 35.8347 15.3934 35.9893 15.5757 36.128C15.7687 36.2667 15.9885 36.3947 16.2351 36.512C16.4925 36.6293 16.7713 36.7413 17.0715 36.848C17.5969 37.04 18.0633 37.2373 18.4708 37.44C18.889 37.632 19.2375 37.8667 19.5162 38.144C19.8058 38.4107 20.0256 38.7307 20.1757 39.104C20.3258 39.4667 20.4009 39.9093 20.4009 40.432C20.4009 41.4347 20.0417 42.2133 19.3232 42.768C18.6156 43.312 17.5755 43.584 16.203 43.584C15.7419 43.584 15.3184 43.552 14.9323 43.488C14.5571 43.4347 14.2193 43.3653 13.9191 43.28C13.6296 43.1947 13.3776 43.1093 13.1631 43.024C12.9487 42.928 12.7771 42.8427 12.6484 42.768L13.2435 41.12C13.5331 41.28 13.9244 41.44 14.4177 41.6C14.9109 41.76 15.506 41.84 16.203 41.84Z" fill="#B480DE"/>
<path d="M10.9161 39.6959C10.9161 40.2399 10.8571 40.7465 10.7391 41.2159C10.6212 41.6852 10.4121 42.0959 10.1119 42.4479C9.82236 42.7999 9.42563 43.0772 8.92166 43.2799C8.42843 43.4825 7.80115 43.5839 7.03985 43.5839C6.33216 43.5839 5.71561 43.4879 5.19021 43.2959C4.67552 43.0932 4.27879 42.8799 4 42.6559L4.72377 41.0719C4.99184 41.2532 5.31888 41.4292 5.70489 41.5999C6.10163 41.7599 6.50372 41.8399 6.91118 41.8399C7.59743 41.8399 8.09603 41.6692 8.40698 41.3279C8.71794 40.9865 8.87341 40.3999 8.87341 39.5679V32.2559H10.9161V39.6959Z" fill="#B480DE"/>
<path d="M16.1699 24.844L16.0747 25.4901C16.0366 25.7487 16.2527 25.9737 16.5126 25.9462L17.4593 25.8458C19.1116 25.6705 20.6685 24.9851 21.9135 23.8847L31.8071 15.1403C31.9211 15.0396 31.9549 14.8757 31.89 14.7381L31.8409 14.634C31.299 13.4845 30.3528 12.5747 29.1829 12.0784C29.0704 12.0307 28.9407 12.0505 28.8476 12.1295L18.2239 21.1435C17.1125 22.0865 16.3823 23.402 16.1699 24.844Z" fill="#B480DE"/>
</svg>
