<svg width="24" height="24" viewBox="0 0 24 24" fill="none" xmlns="http://www.w3.org/2000/svg">
<rect x="4" y="4" width="16" height="3" rx="1" stroke="black" stroke-width="1.5" stroke-linejoin="round"/>
<rect x="10" y="11" width="10" height="3" rx="1" stroke="black" stroke-width="1.5" stroke-linejoin="round"/>
<rect x="14" y="18" width="6" height="3" rx="1" fill="black" stroke="black" stroke-width="1.5" stroke-linejoin="round"/>
<path d="M2.8584 14.8475C3.2264 14.8475 3.4944 14.7355 3.6624 14.5115C3.8384 14.2795 3.9264 14.0075 3.9264 13.6955V11.9315C3.9264 11.5555 3.9624 11.2235 4.0344 10.9355C4.1064 10.6395 4.2344 10.3955 4.4184 10.2035C4.6024 10.0035 4.8584 9.85552 5.1864 9.75952C5.5144 9.65552 5.9344 9.60352 6.4464 9.60352H6.5304V10.7555C6.2984 10.7555 6.1024 10.7715 5.9424 10.8035C5.7824 10.8355 5.6544 10.8955 5.5584 10.9835C5.4624 11.0635 5.3904 11.1755 5.3424 11.3195C5.3024 11.4555 5.2824 11.6315 5.2824 11.8475V13.5635C5.2824 14.0435 5.2184 14.4275 5.0904 14.7155C4.9704 14.9955 4.7624 15.2275 4.4664 15.4115C4.7624 15.5955 4.9704 15.8315 5.0904 16.1195C5.2184 16.4075 5.2824 16.7875 5.2824 17.2595V18.9875C5.2824 19.2035 5.3024 19.3795 5.3424 19.5155C5.3904 19.6515 5.4624 19.7595 5.5584 19.8395C5.6544 19.9275 5.7824 19.9875 5.9424 20.0195C6.1024 20.0515 6.2984 20.0675 6.5304 20.0675V21.2195C5.9944 21.2195 5.5584 21.1715 5.2224 21.0755C4.8864 20.9795 4.6224 20.8315 4.4304 20.6315C4.2384 20.4395 4.1064 20.1995 4.0344 19.9115C3.9624 19.6235 3.9264 19.2875 3.9264 18.9035V17.1275C3.9264 16.8235 3.8384 16.5595 3.6624 16.3355C3.4944 16.1035 3.2264 15.9875 2.8584 15.9875V14.8475Z" fill="black"/>
</svg>
