<svg width="24" height="24" viewBox="0 0 24 24" fill="none" xmlns="http://www.w3.org/2000/svg">
<rect width="24" height="24" fill="white"/>
<path d="M19 14.5V8.24264C19 7.44699 18.6839 6.68393 18.1213 6.12132L15.8787 3.87868C15.3161 3.31607 14.553 3 13.7574 3H12H8C6.34315 3 5 4.34315 5 6V14.5" stroke="black" stroke-width="1.5" stroke-linecap="round"/>
<path d="M21.1394 21.6719C20.9571 21.3679 20.7534 21.0426 20.5282 20.6959C20.303 20.3439 20.0698 19.9919 19.8285 19.6399C19.5873 19.2826 19.3407 18.9386 19.0887 18.6079C18.8421 18.2719 18.6062 17.9706 18.381 17.7039V21.6719H17.3838V16.1279H18.2121C18.4266 16.3519 18.6571 16.6186 18.9037 16.9279C19.1503 17.2319 19.397 17.5493 19.6436 17.8799C19.8956 18.2106 20.1368 18.5439 20.3673 18.8799C20.6032 19.2106 20.8123 19.5199 20.9946 19.8079V16.1279H21.9999V21.6719H21.1394Z" fill="black"/>
<path d="M11.9217 18.896C11.9217 19.2 11.9592 19.4773 12.0342 19.728C12.1093 19.9733 12.2165 20.184 12.3559 20.36C12.5007 20.5307 12.6749 20.664 12.8786 20.76C13.0824 20.856 13.3129 20.904 13.5703 20.904C13.8222 20.904 14.0501 20.856 14.2538 20.76C14.4575 20.664 14.6291 20.5307 14.7685 20.36C14.9133 20.184 15.0232 19.9733 15.0982 19.728C15.1733 19.4773 15.2108 19.2 15.2108 18.896C15.2108 18.592 15.1733 18.3173 15.0982 18.072C15.0232 17.8213 14.9133 17.6107 14.7685 17.44C14.6291 17.264 14.4575 17.128 14.2538 17.032C14.0501 16.936 13.8222 16.888 13.5703 16.888C13.3129 16.888 13.0824 16.936 12.8786 17.032C12.6749 17.128 12.5007 17.264 12.3559 17.44C12.2165 17.616 12.1093 17.8267 12.0342 18.072C11.9592 18.3173 11.9217 18.592 11.9217 18.896ZM16.2723 18.896C16.2723 19.3707 16.2 19.7893 16.0552 20.152C15.9158 20.5147 15.7228 20.8187 15.4762 21.064C15.2349 21.304 14.9508 21.4853 14.6237 21.608C14.2967 21.7307 13.9482 21.792 13.5783 21.792C13.2084 21.792 12.8572 21.7307 12.5248 21.608C12.1978 21.4853 11.9109 21.304 11.6643 21.064C11.4231 20.8187 11.2301 20.5147 11.0853 20.152C10.9405 19.7893 10.8682 19.3707 10.8682 18.896C10.8682 18.4213 10.9405 18.0053 11.0853 17.648C11.2301 17.2853 11.4257 16.9813 11.6724 16.736C11.9243 16.4907 12.2138 16.3067 12.5409 16.184C12.8679 16.0613 13.2137 16 13.5783 16C13.9429 16 14.2887 16.0613 14.6157 16.184C14.9427 16.3067 15.2269 16.4907 15.4682 16.736C15.7148 16.9813 15.9105 17.2853 16.0552 17.648C16.2 18.0053 16.2723 18.4213 16.2723 18.896Z" fill="black"/>
<path d="M8.10149 20.92C8.46605 20.92 8.73144 20.8587 8.89764 20.736C9.06384 20.6133 9.14694 20.44 9.14694 20.216C9.14694 20.0827 9.11745 19.968 9.05848 19.872C9.00486 19.776 8.92444 19.6907 8.81722 19.616C8.71535 19.536 8.58936 19.464 8.43925 19.4C8.28913 19.3307 8.11757 19.264 7.92456 19.2C7.73156 19.1307 7.54391 19.056 7.36163 18.976C7.18471 18.8907 7.02655 18.7867 6.88715 18.664C6.75312 18.5413 6.64322 18.3947 6.55744 18.224C6.47702 18.0533 6.43681 17.848 6.43681 17.608C6.43681 17.1067 6.61105 16.7147 6.95953 16.432C7.30802 16.144 7.78249 16 8.38295 16C8.73144 16 9.03971 16.04 9.30778 16.12C9.5812 16.1947 9.79565 16.2773 9.95113 16.368L9.6375 17.184C9.45521 17.0827 9.25416 17.0053 9.03435 16.952C8.8199 16.8987 8.59741 16.872 8.36687 16.872C8.09344 16.872 7.87899 16.928 7.72352 17.04C7.5734 17.152 7.49834 17.3093 7.49834 17.512C7.49834 17.6347 7.52247 17.7413 7.57072 17.832C7.62433 17.9173 7.69671 17.9947 7.78785 18.064C7.88435 18.1333 7.99426 18.1973 8.11757 18.256C8.24624 18.3147 8.38563 18.3707 8.53575 18.424C8.79845 18.52 9.03167 18.6187 9.2354 18.72C9.44449 18.816 9.61873 18.9333 9.75812 19.072C9.90288 19.2053 10.0128 19.3653 10.0878 19.552C10.1629 19.7333 10.2004 19.9547 10.2004 20.216C10.2004 20.7173 10.0208 21.1067 9.66162 21.384C9.30778 21.656 8.78773 21.792 8.10149 21.792C7.87095 21.792 7.65918 21.776 7.46617 21.744C7.27853 21.7173 7.10965 21.6827 6.95953 21.64C6.81478 21.5973 6.68879 21.5547 6.58156 21.512C6.47433 21.464 6.38855 21.4213 6.32422 21.384L6.62177 20.56C6.76653 20.64 6.96221 20.72 7.20883 20.8C7.45545 20.88 7.753 20.92 8.10149 20.92Z" fill="black"/>
<path d="M5.45803 19.8479C5.45803 20.1199 5.42855 20.3733 5.36957 20.6079C5.3106 20.8426 5.20605 21.0479 5.05594 21.2239C4.91118 21.3999 4.71281 21.5386 4.46083 21.6399C4.21421 21.7413 3.90058 21.7919 3.51993 21.7919C3.16608 21.7919 2.85781 21.7439 2.5951 21.6479C2.33776 21.5466 2.13939 21.4399 2 21.3279L2.36189 20.5359C2.49592 20.6266 2.65944 20.7146 2.85245 20.7999C3.05081 20.8799 3.25186 20.9199 3.45559 20.9199C3.79871 20.9199 4.04801 20.8346 4.20349 20.6639C4.35897 20.4933 4.43671 20.1999 4.43671 19.7839V16.1279H5.45803V19.8479Z" fill="black"/>
<path d="M8.08519 12.4217L8.0376 12.7448C8.01856 12.874 8.1266 12.9866 8.25656 12.9728L8.7299 12.9226C9.55608 12.835 10.3345 12.4922 10.957 11.942L15.9038 7.56985C15.9608 7.51948 15.9777 7.43754 15.9453 7.36876L15.9207 7.31669C15.6498 6.74193 15.1767 6.28707 14.5917 6.03891C14.5355 6.01505 14.4706 6.02494 14.424 6.06445L9.11222 10.5714C8.55649 11.043 8.19142 11.7007 8.08519 12.4217Z" stroke="black"/>
<path d="M13.5 7L14.5 8" stroke="black" stroke-linecap="square"/>
</svg>
