<svg width="48" height="48" viewBox="0 0 48 48" fill="none" xmlns="http://www.w3.org/2000/svg">
<path fill-rule="evenodd" clip-rule="evenodd" d="M6.5 10C6.5 8.067 8.067 6.5 10 6.5H38C39.933 6.5 41.5 8.067 41.5 10V12C41.5 13.933 39.933 15.5 38 15.5H10C8.067 15.5 6.5 13.933 6.5 12V10ZM10 9.5C9.72386 9.5 9.5 9.72386 9.5 10V12C9.5 12.2761 9.72386 12.5 10 12.5H38C38.2761 12.5 38.5 12.2761 38.5 12V10C38.5 9.72386 38.2761 9.5 38 9.5H10Z" fill="#B480DE"/>
<path fill-rule="evenodd" clip-rule="evenodd" d="M18.5 24C18.5 22.067 20.067 20.5 22 20.5H38C39.933 20.5 41.5 22.067 41.5 24V26C41.5 27.933 39.933 29.5 38 29.5H22C20.067 29.5 18.5 27.933 18.5 26V24ZM22 23.5C21.7239 23.5 21.5 23.7239 21.5 24V26C21.5 26.2761 21.7239 26.5 22 26.5H38C38.2761 26.5 38.5 26.2761 38.5 26V24C38.5 23.7239 38.2761 23.5 38 23.5H22Z" fill="#B480DE"/>
<path d="M28 38C28 36.8954 28.8954 36 30 36H38C39.1046 36 40 36.8954 40 38V40C40 41.1046 39.1046 42 38 42H30C28.8954 42 28 41.1046 28 40V38Z" fill="#B480DE"/>
<path fill-rule="evenodd" clip-rule="evenodd" d="M26.5 38C26.5 36.067 28.067 34.5 30 34.5H38C39.933 34.5 41.5 36.067 41.5 38V40C41.5 41.933 39.933 43.5 38 43.5H30C28.067 43.5 26.5 41.933 26.5 40V38ZM30 37.5C29.7239 37.5 29.5 37.7239 29.5 38V40C29.5 40.2761 29.7239 40.5 30 40.5H38C38.2761 40.5 38.5 40.2761 38.5 40V38C38.5 37.7239 38.2761 37.5 38 37.5H30Z" fill="#B480DE"/>
<path d="M5.7168 29.695C6.4528 29.695 6.9888 29.471 7.3248 29.023C7.6768 28.559 7.8528 28.015 7.8528 27.391V23.863C7.8528 23.111 7.9248 22.447 8.0688 21.871C8.2128 21.279 8.4688 20.791 8.8368 20.407C9.2048 20.007 9.7168 19.711 10.3728 19.519C11.0288 19.311 11.8688 19.207 12.8928 19.207H13.0608V21.511C12.5968 21.511 12.2048 21.543 11.8848 21.607C11.5648 21.671 11.3088 21.791 11.1168 21.967C10.9248 22.127 10.7808 22.351 10.6848 22.639C10.6048 22.911 10.5648 23.263 10.5648 23.695V27.127C10.5648 28.087 10.4368 28.855 10.1808 29.431C9.9408 29.991 9.5248 30.455 8.9328 30.823C9.5248 31.191 9.9408 31.663 10.1808 32.239C10.4368 32.815 10.5648 33.575 10.5648 34.519V37.975C10.5648 38.407 10.6048 38.759 10.6848 39.031C10.7808 39.303 10.9248 39.519 11.1168 39.679C11.3088 39.855 11.5648 39.975 11.8848 40.039C12.2048 40.103 12.5968 40.135 13.0608 40.135V42.439C11.9888 42.439 11.1168 42.343 10.4448 42.151C9.7728 41.959 9.2448 41.663 8.8608 41.263C8.4768 40.879 8.2128 40.399 8.0688 39.823C7.9248 39.247 7.8528 38.575 7.8528 37.807V34.255C7.8528 33.647 7.6768 33.119 7.3248 32.671C6.9888 32.207 6.4528 31.975 5.7168 31.975V29.695Z" fill="#B480DE"/>
</svg>
