<svg width="48" height="48" viewBox="0 0 48 48" fill="none" xmlns="http://www.w3.org/2000/svg">
<path d="M4 11C4 8.79086 5.79086 7 8 7H40C42.2091 7 44 8.79086 44 11V37C44 39.2091 42.2091 41 40 41H8C5.79086 41 4 39.2091 4 37V11Z" fill="#E8E8E8"/>
<path fill-rule="evenodd" clip-rule="evenodd" d="M2 10.5C2 7.46243 4.46243 5 7.5 5H39.5C42.5376 5 45 7.46243 45 10.5V36.5C45 39.5376 42.5376 42 39.5 42H7.5C4.46244 42 2 39.5376 2 36.5V10.5ZM7.5 8C6.11929 8 5 9.11929 5 10.5V36.5C5 37.8807 6.11929 39 7.5 39H39.5C40.8807 39 42 37.8807 42 36.5V10.5C42 9.11929 40.8807 8 39.5 8H7.5Z" fill="#B480DE"/>
<path d="M31.25 15.5249H37.7765C38.4519 15.5249 39 14.9951 39 14.3409V11.1832C39 10.5296 38.4519 9.99979 37.7765 9.99979H31.25C30.5746 9.99979 30.0265 10.5302 30.0265 11.1832V14.3409C30.0265 14.9951 30.5746 15.5249 31.25 15.5249Z" fill="#B480DE"/>
<path d="M31.25 22.6304H37.7765C38.4519 22.6304 39 22.0999 39 21.447V18.2893C39 17.635 38.4519 17.1053 37.7765 17.1053H31.25C30.5746 17.1053 30.0265 17.635 30.0265 18.2893V21.447C30.0265 22.1006 30.5746 22.6304 31.25 22.6304Z" fill="#B480DE"/>
<path d="M31.25 29.7358H37.7765C38.4519 29.7358 39 29.2061 39 28.5518V25.3941C39 24.7399 38.4519 24.2101 37.7765 24.2101H31.25C30.5746 24.2101 30.0265 24.7405 30.0265 25.3941V28.5518C30.0265 29.2054 30.5746 29.7358 31.25 29.7358Z" fill="#B480DE"/>
<path d="M20.2366 15.5249H26.7638C27.4392 15.5249 27.9873 14.9951 27.9873 14.3409V11.1832C27.9873 10.5296 27.4392 9.99979 26.7638 9.99979H20.2366C19.5619 9.99979 19.0138 10.5302 19.0138 11.1832V14.3409C19.0125 14.9951 19.5599 15.5249 20.2366 15.5249Z" fill="#B480DE"/>
<path d="M20.2366 22.6304H26.7638C27.4392 22.6304 27.9873 22.0999 27.9873 21.447V18.2893C27.9873 17.635 27.4392 17.1053 26.7638 17.1053H20.2366C19.5619 17.1053 19.0138 17.635 19.0138 18.2893V21.447C19.0125 22.1006 19.5599 22.6304 20.2366 22.6304Z" fill="#B480DE"/>
<path d="M9.22362 15.5249H15.7501C16.4249 15.5249 16.9736 14.9951 16.9736 14.3409V11.1832C16.9736 10.5296 16.4249 9.99979 15.7501 9.99979H9.22362C8.54822 9.99979 8.00011 10.5302 8.00011 11.1832V14.3409C8.00011 14.9951 8.54822 15.5249 9.22362 15.5249Z" fill="#B480DE"/>
<path d="M9.22362 22.6304H15.7501C16.4249 22.6304 16.9736 22.0999 16.9736 21.447V18.2893C16.9736 17.635 16.4249 17.1053 15.7501 17.1053H9.22362C8.54822 17.1053 8.00011 17.635 8.00011 18.2893V21.447C8.00011 22.1006 8.54822 22.6304 9.22362 22.6304Z" fill="#B480DE"/>
<path d="M9.22362 29.7358H15.7501C16.4249 29.7358 16.9736 29.2061 16.9736 28.5518V25.3941C16.9736 24.7399 16.4249 24.2101 15.7501 24.2101H9.22362C8.54822 24.2101 8.00011 24.7405 8.00011 25.3941V28.5518C8.00011 29.2054 8.54822 29.7358 9.22362 29.7358Z" fill="#B480DE"/>
<path d="M9.22362 36.8408H15.7501C16.4249 36.8408 16.9736 36.3104 16.9736 35.6568V32.4991C16.9736 31.8449 16.4249 31.3151 15.7501 31.3151H9.22362C8.54822 31.3151 8.00011 31.8449 8.00011 32.4991V35.6568C8.00011 36.311 8.54822 36.8408 9.22362 36.8408Z" fill="#B480DE"/>
</svg>
