<svg width="24" height="24" viewBox="0 0 24 24" fill="none" xmlns="http://www.w3.org/2000/svg">
<rect x="2" y="4" width="20" height="17" rx="2" stroke="black" stroke-width="1.5"/>
<path d="M15.4708 8.59961H18.4428C18.7504 8.59961 19 8.35031 19 8.04244V6.55656C19 6.24899 18.7504 5.99969 18.4428 5.99969H15.4708C15.1632 5.99969 14.9136 6.24929 14.9136 6.55656V8.04244C14.9136 8.35031 15.1632 8.59961 15.4708 8.59961Z" fill="black"/>
<path d="M15.4708 11.9438H18.4428C18.7504 11.9438 19 11.6942 19 11.387V9.9011C19 9.59323 18.7504 9.34393 18.4428 9.34393H15.4708C15.1632 9.34393 14.9136 9.59323 14.9136 9.9011V11.387C14.9136 11.6945 15.1632 11.9438 15.4708 11.9438Z" fill="black"/>
<path d="M15.4708 15.2871H18.4428C18.7504 15.2871 19 15.0378 19 14.7299V13.2441C19 12.9362 18.7504 12.6869 18.4428 12.6869H15.4708C15.1632 12.6869 14.9136 12.9365 14.9136 13.2441V14.7299C14.9136 15.0375 15.1632 15.2871 15.4708 15.2871Z" fill="black"/>
<path d="M10.4548 8.59961H13.4272C13.7348 8.59961 13.9844 8.35031 13.9844 8.04244V6.55656C13.9844 6.24899 13.7348 5.99969 13.4272 5.99969H10.4548C10.1476 5.99969 9.89797 6.24929 9.89797 6.55656V8.04244C9.89737 8.35031 10.1467 8.59961 10.4548 8.59961Z" fill="black"/>
<path d="M10.4548 11.9438H13.4272C13.7348 11.9438 13.9844 11.6942 13.9844 11.387V9.9011C13.9844 9.59323 13.7348 9.34393 13.4272 9.34393H10.4548C10.1476 9.34393 9.89797 9.59323 9.89797 9.9011V11.387C9.89737 11.6945 10.1467 11.9438 10.4548 11.9438Z" fill="black"/>
<path d="M5.44049 8.59961H8.41256C8.71983 8.59961 8.96973 8.35031 8.96973 8.04244V6.55656C8.96973 6.24899 8.71983 5.99969 8.41256 5.99969H5.44049C5.13292 5.99969 4.88332 6.24929 4.88332 6.55656V8.04244C4.88332 8.35031 5.13292 8.59961 5.44049 8.59961Z" fill="black"/>
<path d="M5.44049 11.9438H8.41256C8.71983 11.9438 8.96973 11.6942 8.96973 11.387V9.9011C8.96973 9.59323 8.71983 9.34393 8.41256 9.34393H5.44049C5.13292 9.34393 4.88332 9.59323 4.88332 9.9011V11.387C4.88332 11.6945 5.13292 11.9438 5.44049 11.9438Z" fill="black"/>
<path d="M5.44049 15.2871H8.41256C8.71983 15.2871 8.96973 15.0378 8.96973 14.7299V13.2441C8.96973 12.9362 8.71983 12.6869 8.41256 12.6869H5.44049C5.13292 12.6869 4.88332 12.9365 4.88332 13.2441V14.7299C4.88332 15.0375 5.13292 15.2871 5.44049 15.2871Z" fill="black"/>
<path d="M5.44049 18.6304H8.41256C8.71983 18.6304 8.96973 18.3808 8.96973 18.0732V16.5873C8.96973 16.2794 8.71983 16.0302 8.41256 16.0302H5.44049C5.13292 16.0302 4.88332 16.2794 4.88332 16.5873V18.0732C4.88332 18.3811 5.13292 18.6304 5.44049 18.6304Z" fill="black"/>
</svg>
