<svg width="24" height="24" viewBox="0 0 24 24" fill="none" xmlns="http://www.w3.org/2000/svg">
<path d="M3 6H21" stroke="black" stroke-linecap="round"/>
<path d="M3 11H21" stroke="black" stroke-linecap="round"/>
<path d="M3 16H21" stroke="black" stroke-linecap="round"/>
<path d="M3 20H21" stroke="black" stroke-width="1.5" stroke-linecap="round"/>
<path d="M20 7.08716C20 6.48811 19.5493 6 18.9962 6C18.443 6 17.9923 6.48811 17.9923 7.08716C17.9923 7.37559 18.0948 7.64184 18.2791 7.84152L16.3534 11.7021C16.1895 11.7021 16.0256 11.7464 15.8822 11.8352L14.4891 10.5483C14.5096 10.4818 14.5096 10.4152 14.5096 10.3487C14.5096 9.7496 14.0589 9.26149 13.5058 9.26149C12.9526 9.26149 12.5019 9.7496 12.5019 10.3487C12.5019 10.504 12.5429 10.6593 12.6044 10.7924L10.7196 14.5864C10.6991 14.5864 10.6991 14.5864 10.6786 14.5864C10.4328 14.5864 10.2074 14.6973 10.0435 14.8526L8.62996 13.5436C8.65045 13.4548 8.67093 13.3439 8.67093 13.233C8.67093 12.6339 8.22023 12.1458 7.66709 12.1458C7.11396 12.1458 6.66325 12.6339 6.66325 13.233C6.66325 13.4992 6.7452 13.7433 6.90909 13.9208L5.14725 17.8479C5.10627 17.8479 5.0653 17.8257 5.00384 17.8257C4.4507 17.8257 4 18.3138 4 18.9128C4 19.5119 4.4507 20 5.00384 20C5.55698 20 6.00768 19.5119 6.00768 18.9128C6.00768 18.691 5.94622 18.4913 5.84379 18.3138L7.6466 14.2979H7.66709C7.8105 14.2979 7.95391 14.2536 8.09731 14.187L9.67478 15.6513C9.67478 16.2504 10.1255 16.7163 10.6786 16.7163C11.2318 16.7163 11.6825 16.2282 11.6825 15.6292C11.6825 15.3629 11.6005 15.141 11.4571 14.9414L13.2599 11.3471C13.3419 11.3693 13.4443 11.3914 13.5262 11.3914C13.7106 11.3914 13.895 11.3249 14.0384 11.2361L15.3905 12.5008C15.37 12.5895 15.37 12.6561 15.37 12.7448C15.37 13.3439 15.8207 13.832 16.3739 13.832C16.927 13.832 17.3777 13.3439 17.3777 12.7448C17.3777 12.4786 17.2753 12.2346 17.1319 12.0349L19.0781 8.12995C19.5903 8.15214 20 7.68621 20 7.08716Z" fill="black"/>
</svg>
