<svg width="48" height="48" viewBox="0 0 48 48" fill="none" xmlns="http://www.w3.org/2000/svg">
<path fill-rule="evenodd" clip-rule="evenodd" d="M5 12C5 11.4477 5.44772 11 6 11H42C42.5523 11 43 11.4477 43 12C43 12.5523 42.5523 13 42 13H6C5.44772 13 5 12.5523 5 12Z" fill="#DEDEDE"/>
<path fill-rule="evenodd" clip-rule="evenodd" d="M5 22C5 21.4477 5.44772 21 6 21H42C42.5523 21 43 21.4477 43 22C43 22.5523 42.5523 23 42 23H6C5.44772 23 5 22.5523 5 22Z" fill="#DEDEDE"/>
<path fill-rule="evenodd" clip-rule="evenodd" d="M5 32C5 31.4477 5.44772 31 6 31H42C42.5523 31 43 31.4477 43 32C43 32.5523 42.5523 33 42 33H6C5.44772 33 5 32.5523 5 32Z" fill="#DEDEDE"/>
<path fill-rule="evenodd" clip-rule="evenodd" d="M5 42.5C5 41.6716 5.67157 41 6.5 41H42.5C43.3284 41 44 41.6716 44 42.5C44 43.3284 43.3284 44 42.5 44H6.5C5.67157 44 5 43.3284 5 42.5Z" fill="#DEDEDE"/>
<path d="M41 15.1743C41 13.9762 40.0423 13 38.8668 13C37.6914 13 36.7337 13.9762 36.7337 15.1743C36.7337 15.7512 36.9513 16.2837 37.3432 16.683L33.251 24.4041C32.9027 24.4041 32.5544 24.4929 32.2497 24.6704L29.2894 22.0967C29.3329 21.9635 29.3329 21.8304 29.3329 21.6973C29.3329 20.4992 28.3752 19.523 27.1997 19.523C26.0243 19.523 25.0666 20.4992 25.0666 21.6973C25.0666 22.0079 25.1537 22.3185 25.2843 22.5848L21.2791 30.1727C21.2356 30.1727 21.2356 30.1727 21.1921 30.1727C20.6697 30.1727 20.1908 30.3946 19.8425 30.7052L16.8387 28.0872C16.8822 27.9097 16.9257 27.6878 16.9257 27.4659C16.9257 26.2678 15.968 25.2916 14.7926 25.2916C13.6172 25.2916 12.6594 26.2678 12.6594 27.4659C12.6594 27.9984 12.8335 28.4865 13.1818 28.8415L9.4379 36.6957C9.35083 36.6957 9.26376 36.6513 9.13316 36.6513C7.95774 36.6513 7 37.6276 7 38.8257C7 40.0238 7.95774 41 9.13316 41C10.3086 41 11.2663 40.0238 11.2663 38.8257C11.2663 38.3819 11.1357 37.9826 10.9181 37.6276L14.749 29.5959H14.7926C15.0973 29.5959 15.402 29.5071 15.7068 29.374L19.0589 32.3027C19.0589 33.5008 20.0166 34.4326 21.1921 34.4326C22.3675 34.4326 23.3252 33.4564 23.3252 32.2583C23.3252 31.7258 23.1511 31.2821 22.8464 30.8827L26.6773 23.6941C26.8515 23.7385 27.0691 23.7829 27.2433 23.7829C27.6351 23.7829 28.0269 23.6498 28.3316 23.4723L31.2049 26.0016C31.1613 26.1791 31.1613 26.3122 31.1613 26.4897C31.1613 27.6878 32.1191 28.664 33.2945 28.664C34.4699 28.664 35.4277 27.6878 35.4277 26.4897C35.4277 25.9572 35.21 25.4691 34.9052 25.0697L39.041 17.2599C40.1293 17.3043 41 16.3724 41 15.1743Z" fill="#B480DE"/>
</svg>
