<svg width="24" height="24" viewBox="0 0 24 24" fill="none" xmlns="http://www.w3.org/2000/svg">
<rect width="24" height="24" fill="white"/>
<rect x="3" y="3" width="18" height="18" rx="2" stroke="black" stroke-width="1.5"/>
<path d="M13.482 12.2444L13.1751 12.5394V12.5394C12.1579 13.5168 10.541 13.4845 9.56361 12.4673V12.4673C8.58623 11.4502 8.61849 9.83326 9.63566 8.85588L12.0913 6.49627C13.1085 5.51889 14.7254 5.55115 15.7028 6.56832V6.56832C16.6802 7.5855 16.6479 9.20241 15.6308 10.1798V10.1798L15.3238 10.4747" stroke="black"/>
<path d="M10.4848 11.5832L10.7917 11.2882V11.2882C11.8089 10.3109 13.4258 10.3431 14.4032 11.3603V11.3603C15.3806 12.3775 15.3483 13.9944 14.3311 14.9718L11.8755 17.3314C10.8583 18.3088 9.24137 18.2765 8.26399 17.2593V17.2593C7.2866 16.2421 7.31886 14.6252 8.33604 13.6478V13.6478L8.643 13.3529" stroke="black"/>
</svg>
