<svg width="24" height="24" viewBox="0 0 24 24" fill="none" xmlns="http://www.w3.org/2000/svg">
<rect width="24" height="24" fill="white"/>
<rect x="3" y="3" width="18" height="18" rx="2" stroke="black" stroke-width="1.5"/>
<path d="M13.4815 12.2444L13.1746 12.5394V12.5394C12.1574 13.5168 10.5405 13.4845 9.56312 12.4673V12.4673C8.58574 11.4502 8.618 9.83326 9.63518 8.85588L12.0909 6.49627C13.108 5.51889 14.7249 5.55115 15.7023 6.56832V6.56832C16.6797 7.5855 16.6474 9.20241 15.6303 10.1798V10.1798L15.3233 10.4747" stroke="black"/>
<path d="M10.4843 11.5832L10.7912 11.2882V11.2882C11.8084 10.3109 13.4253 10.3431 14.4027 11.3603V11.3603C15.3801 12.3775 15.3478 13.9944 14.3306 14.9718L11.875 17.3314C10.8578 18.3088 9.24088 18.2765 8.2635 17.2593V17.2593C7.28612 16.2421 7.31838 14.6252 8.33555 13.6478V13.6478L8.64251 13.3529" stroke="black"/>
</svg>
