<svg width="48" height="48" viewBox="0 0 48 48" fill="none" xmlns="http://www.w3.org/2000/svg">
<rect width="48" height="48" fill="white"/>
<path d="M6 10C6 7.79086 7.79086 6 10 6H38C40.2091 6 42 7.79086 42 10V38C42 40.2091 40.2091 42 38 42H10C7.79086 42 6 40.2091 6 38V10Z" fill="#E8E8E8"/>
<path fill-rule="evenodd" clip-rule="evenodd" d="M4.5 10C4.5 6.96243 6.96243 4.5 10 4.5H38C41.0376 4.5 43.5 6.96243 43.5 10V38C43.5 41.0376 41.0376 43.5 38 43.5H10C6.96243 43.5 4.5 41.0376 4.5 38V10ZM10 7.5C8.61929 7.5 7.5 8.61929 7.5 10V38C7.5 39.3807 8.61929 40.5 10 40.5H38C39.3807 40.5 40.5 39.3807 40.5 38V10C40.5 8.61929 39.3807 7.5 38 7.5H10Z" fill="#B480DE"/>
<path fill-rule="evenodd" clip-rule="evenodd" d="M23.4898 12.2722C25.9223 9.93475 29.7892 10.0119 32.1266 12.4445C34.464 14.8771 34.3869 18.7439 31.9543 21.0814L31.3404 21.6713L29.9547 20.2291L30.5686 19.6392C32.2047 18.0671 32.2566 15.4663 30.6845 13.8302C29.1124 12.1941 26.5116 12.1422 24.8755 13.7143L19.9641 18.4335C18.328 20.0056 18.2761 22.6064 19.8482 24.2425C21.4203 25.8787 24.0211 25.9305 25.6572 24.3584L26.2711 23.7685L27.6569 25.2107L27.0429 25.8006C24.6103 28.138 20.7435 28.0608 18.4061 25.6283C16.0687 23.1957 16.1458 19.3288 18.5784 16.9914L23.4898 12.2722ZM20.89 21.8566C23.3226 19.5192 27.1895 19.5963 29.5269 22.0289C31.8643 24.4615 31.7872 28.3284 29.3546 30.6658L24.4432 35.385C22.0106 37.7224 18.1438 37.6453 15.8064 35.2127C13.4689 32.7801 13.5461 28.9132 15.9787 26.5758L16.5926 25.9859L17.9783 27.4281L17.3644 28.018C15.7283 29.5901 15.6764 32.1908 17.2485 33.827C18.8206 35.4631 21.4214 35.515 23.0575 33.9429L27.9689 29.2236C29.605 27.6515 29.6569 25.0508 28.0848 23.4146C26.5127 21.7785 23.9119 21.7266 22.2758 23.2987L21.6618 23.8886L20.2761 22.4465L20.89 21.8566Z" fill="#B480DE"/>
</svg>
