<svg width="48" height="48" viewBox="0 0 48 48" fill="none" xmlns="http://www.w3.org/2000/svg">
<path d="M6 10C6 7.79086 7.79086 6 10 6H38C40.2091 6 42 7.79086 42 10V38C42 40.2091 40.2091 42 38 42H10C7.79086 42 6 40.2091 6 38V10Z" fill="#E8E8E8"/>
<path fill-rule="evenodd" clip-rule="evenodd" d="M4.5 10C4.5 6.96243 6.96243 4.5 10 4.5H38C41.0376 4.5 43.5 6.96243 43.5 10V38C43.5 41.0376 41.0376 43.5 38 43.5H10C6.96243 43.5 4.5 41.0376 4.5 38V10ZM10 7.5C8.61929 7.5 7.5 8.61929 7.5 10V38C7.5 39.3807 8.61929 40.5 10 40.5H38C39.3807 40.5 40.5 39.3807 40.5 38V10C40.5 8.61929 39.3807 7.5 38 7.5H10Z" fill="#B480DE"/>
<path d="M12 14C12 12.8954 12.8954 12 14 12H20C21.1046 12 22 12.8954 22 14V20C22 21.1046 21.1046 22 20 22H14C12.8954 22 12 21.1046 12 20V14Z" fill="white"/>
<path fill-rule="evenodd" clip-rule="evenodd" d="M11 14C11 12.3431 12.3431 11 14 11H20C21.6569 11 23 12.3431 23 14V20C23 21.6569 21.6569 23 20 23H14C12.3431 23 11 21.6569 11 20V14ZM14 13C13.4477 13 13 13.4477 13 14V20C13 20.5523 13.4477 21 14 21H20C20.5523 21 21 20.5523 21 20V14C21 13.4477 20.5523 13 20 13H14Z" fill="#B480DE"/>
<path fill-rule="evenodd" clip-rule="evenodd" d="M25 14C25 13.4477 25.4477 13 26 13H36C36.5523 13 37 13.4477 37 14C37 14.5523 36.5523 15 36 15H26C25.4477 15 25 14.5523 25 14Z" fill="#B480DE"/>
<path fill-rule="evenodd" clip-rule="evenodd" d="M25 20C25 19.4477 25.4477 19 26 19H36C36.5523 19 37 19.4477 37 20C37 20.5523 36.5523 21 36 21H26C25.4477 21 25 20.5523 25 20Z" fill="#B480DE"/>
<path d="M12 28C12 26.8954 12.8954 26 14 26H20C21.1046 26 22 26.8954 22 28V34C22 35.1046 21.1046 36 20 36H14C12.8954 36 12 35.1046 12 34V28Z" fill="white"/>
<path fill-rule="evenodd" clip-rule="evenodd" d="M11 28C11 26.3431 12.3431 25 14 25H20C21.6569 25 23 26.3431 23 28V34C23 35.6569 21.6569 37 20 37H14C12.3431 37 11 35.6569 11 34V28ZM14 27C13.4477 27 13 27.4477 13 28V34C13 34.5523 13.4477 35 14 35H20C20.5523 35 21 34.5523 21 34V28C21 27.4477 20.5523 27 20 27H14Z" fill="#B480DE"/>
<path fill-rule="evenodd" clip-rule="evenodd" d="M25 28C25 27.4477 25.4477 27 26 27H36C36.5523 27 37 27.4477 37 28C37 28.5523 36.5523 29 36 29H26C25.4477 29 25 28.5523 25 28Z" fill="#B480DE"/>
<path fill-rule="evenodd" clip-rule="evenodd" d="M25 34C25 33.4477 25.4477 33 26 33H36C36.5523 33 37 33.4477 37 34C37 34.5523 36.5523 35 36 35H26C25.4477 35 25 34.5523 25 34Z" fill="#B480DE"/>
</svg>
