<svg width="24" height="24" viewBox="0 0 24 24" fill="none" xmlns="http://www.w3.org/2000/svg">
<rect x="3" y="3" width="18" height="18" rx="2" stroke="black" stroke-width="1.5"/>
<path d="M17.0449 6C13.7039 6 12.4717 8.44894 11.4782 10.417L10.8248 11.6748C9.77138 13.7621 8.98526 15.03 6.95905 15.03C6.83315 15.0298 6.70847 15.0552 6.59211 15.1046C6.47576 15.1541 6.37002 15.2266 6.28096 15.3181C6.19188 15.4096 6.12123 15.5182 6.07302 15.6378C6.02481 15.7574 6 15.8855 6 16.015C6 16.1444 6.02481 16.2726 6.07302 16.3922C6.12123 16.5118 6.19188 16.6204 6.28096 16.7119C6.37002 16.8034 6.47576 16.8759 6.59211 16.9253C6.70847 16.9748 6.83315 17.0001 6.95905 17C10.3 17 11.5322 14.5511 12.5257 12.583L13.1752 11.3252C14.2286 9.23795 15.0147 7.97005 17.0409 7.97005C17.1669 7.97019 17.2916 7.94484 17.4079 7.89537C17.5243 7.84595 17.63 7.77337 17.7191 7.6819C17.8081 7.59044 17.8788 7.48178 17.927 7.36222C17.9752 7.24266 18 7.11448 18 6.98506C18 6.85558 17.9752 6.7274 17.927 6.60784C17.8788 6.48825 17.8081 6.37962 17.7191 6.28814C17.63 6.19665 17.5243 6.12413 17.4079 6.07469C17.2916 6.02524 17.1669 5.99987 17.0409 6H17.0449Z" fill="black"/>
</svg>
