<svg width="48" height="48" viewBox="0 0 48 48" fill="none" xmlns="http://www.w3.org/2000/svg">
<path d="M6 10C6 7.79086 7.79086 6 10 6H38C40.2091 6 42 7.79086 42 10V38C42 40.2091 40.2091 42 38 42H10C7.79086 42 6 40.2091 6 38V10Z" fill="#E8E8E8"/>
<path fill-rule="evenodd" clip-rule="evenodd" d="M4.5 10C4.5 6.96243 6.96243 4.5 10 4.5H38C41.0376 4.5 43.5 6.96243 43.5 10V38C43.5 41.0376 41.0376 43.5 38 43.5H10C6.96243 43.5 4.5 41.0376 4.5 38V10ZM10 7.5C8.61929 7.5 7.5 8.61929 7.5 10V38C7.5 39.3807 8.61929 40.5 10 40.5H38C39.3807 40.5 40.5 39.3807 40.5 38V10C40.5 8.61929 39.3807 7.5 38 7.5H10Z" fill="#B480DE"/>
<path d="M34.0897 12C27.4078 12 24.9434 16.8979 22.9564 20.834L21.6495 23.3495C19.5428 27.5241 17.9705 30.0599 13.9181 30.0599C13.6663 30.0596 13.4169 30.1104 13.1842 30.2093C12.9515 30.3081 12.74 30.4533 12.5619 30.6362C12.3838 30.8192 12.2425 31.0365 12.146 31.2756C12.0496 31.5147 12 31.7711 12 32.0299C12 32.2889 12.0496 32.5452 12.146 32.7844C12.2425 33.0236 12.3838 33.2408 12.5619 33.4237C12.74 33.6067 12.9515 33.7518 13.1842 33.8506C13.4169 33.9496 13.6663 34.0003 13.9181 34C20.6 34 23.0645 29.1021 25.0514 25.1661L26.3505 22.6505C28.4572 18.4759 30.0295 15.9401 34.0819 15.9401C34.3338 15.9404 34.5831 15.8897 34.8158 15.7907C35.0486 15.6919 35.26 15.5467 35.4381 15.3638C35.6162 15.1809 35.7575 14.9636 35.854 14.7244C35.9504 14.4853 36 14.229 36 13.9701C36 13.7112 35.9504 13.4548 35.854 13.2157C35.7575 12.9765 35.6162 12.7592 35.4381 12.5763C35.26 12.3933 35.0486 12.2483 34.8158 12.1494C34.5831 12.0505 34.3338 11.9997 34.0819 12H34.0897Z" fill="#B480DE"/>
</svg>
