<svg width="48" height="48" viewBox="0 0 48 48" fill="none" xmlns="http://www.w3.org/2000/svg">
<rect width="48" height="48" fill="white"/>
<path d="M15.3559 39.6949L17.8254 23.6949C17.976 22.7197 18.8153 22 19.802 22H28.1981C29.1849 22 30.0242 22.7197 30.1747 23.6949L32.6443 39.6949C32.8313 40.9067 31.8939 42 30.6677 42H17.3325C16.1063 42 15.1688 40.9067 15.3559 39.6949Z" fill="white"/>
<path fill-rule="evenodd" clip-rule="evenodd" d="M19.8022 23C19.3089 23 18.8892 23.3598 18.8139 23.8475L16.3444 39.8475C16.2509 40.4534 16.7196 41 17.3327 41H30.6679C31.281 41 31.7497 40.4534 31.6562 39.8475L29.1867 23.8475C29.1114 23.3598 28.6917 23 28.1984 23H19.8022ZM16.8374 23.5424C17.0631 22.0795 18.3221 21 19.8022 21H28.1984C29.6785 21 30.9375 22.0795 31.1632 23.5424L33.6328 39.5424C33.9134 41.3601 32.5072 43 30.6679 43H17.3327C15.4934 43 14.0872 41.3601 14.3678 39.5424L16.8374 23.5424Z" fill="#B480DE"/>
<path fill-rule="evenodd" clip-rule="evenodd" d="M13 7H35V17.6C35 18.3732 34.3732 19 33.6 19H14.4C13.6268 19 13 18.3732 13 17.6V7ZM15 9V17H33V9H15Z" fill="#B480DE"/>
<path fill-rule="evenodd" clip-rule="evenodd" d="M8.5 8C8.5 7.17157 9.17157 6.5 10 6.5L38 6.5C38.8284 6.5 39.5 7.17158 39.5 8C39.5 8.82843 38.8284 9.5 38 9.5L10 9.5C9.17157 9.5 8.5 8.82843 8.5 8Z" fill="#B480DE"/>
<path fill-rule="evenodd" clip-rule="evenodd" d="M37.7491 23C36.6785 23 35.7491 23.9106 35.7491 25.1111C35.7491 26.3116 36.6785 27.2222 37.7491 27.2222C38.8197 27.2222 39.7491 26.3116 39.7491 25.1111C39.7491 23.9106 38.8197 23 37.7491 23ZM33.7491 25.1111C33.7491 22.8752 35.506 21 37.7491 21C39.9922 21 41.7491 22.8752 41.7491 25.1111C41.7491 27.347 39.9922 29.2222 37.7491 29.2222C35.506 29.2222 33.7491 27.347 33.7491 25.1111ZM41.4991 32.3333H33.4707V30.3333H41.4991C43.328 30.3333 44.7491 31.8603 44.7491 33.6667C44.7491 35.473 43.328 37 41.4991 37H35V35H41.4991C42.1555 35 42.7491 34.4376 42.7491 33.6667C42.7491 32.8957 42.1555 32.3333 41.4991 32.3333Z" fill="#B480DE"/>
<path fill-rule="evenodd" clip-rule="evenodd" d="M9.99922 23C11.0698 23 11.9992 23.9106 11.9992 25.1111C11.9992 26.3116 11.0698 27.2222 9.99922 27.2222C8.92862 27.2222 7.99922 26.3116 7.99922 25.1111C7.99922 23.9106 8.92862 23 9.99922 23ZM13.9992 25.1111C13.9992 22.8752 12.2423 21 9.99922 21C7.75612 21 5.99922 22.8752 5.99922 25.1111C5.99922 27.347 7.75612 29.2222 9.99922 29.2222C12.2423 29.2222 13.9992 27.347 13.9992 25.1111ZM6.24922 32.3333H14.5938V30.3333H6.24922C4.42033 30.3333 2.99922 31.8603 2.99922 33.6667C2.99922 35.473 4.42033 37 6.24922 37H13V35H6.24922C5.59283 35 4.99922 34.4376 4.99922 33.6667C4.99922 32.8957 5.59283 32.3333 6.24922 32.3333Z" fill="#B480DE"/>
</svg>
