<svg width="24" height="24" viewBox="0 0 24 24" fill="none" xmlns="http://www.w3.org/2000/svg">
<rect width="24" height="24" fill="white"/>
<path d="M7.67838 19.8475L8.91316 11.8475C8.98842 11.3598 9.40808 11 9.90146 11H14.0995C14.5929 11 15.0126 11.3598 15.0878 11.8475L16.3226 19.8475C16.4161 20.4534 15.9474 21 15.3343 21H8.66668C8.05359 21 7.58486 20.4534 7.67838 19.8475Z" stroke="black" stroke-linecap="round"/>
<path d="M7.00049 4H17.0005V8.8C17.0005 8.91046 16.9109 9 16.8005 9H7.20049C7.09003 9 7.00049 8.91046 7.00049 8.8V4Z" stroke="black"/>
<path d="M5.00049 4L19.0005 4" stroke="black" stroke-width="1.5" stroke-linecap="round"/>
<path d="M17.5005 18H20.75C21.3714 18 21.875 17.4777 21.875 16.8333C21.875 16.189 21.3714 15.6667 20.75 15.6667H16.7358M20.375 12.5556C20.375 13.4147 19.7035 14.1111 18.875 14.1111C18.0466 14.1111 17.375 13.4147 17.375 12.5556C17.375 11.6964 18.0466 11 18.875 11C19.7035 11 20.375 11.6964 20.375 12.5556Z" stroke="black"/>
<path d="M6.50049 18H3.1251C2.50378 18 2.0001 17.4777 2.0001 16.8333C2.0001 16.189 2.50378 15.6667 3.1251 15.6667H7.29736M3.5001 12.5556C3.5001 13.4147 4.17167 14.1111 5.0001 14.1111C5.82853 14.1111 6.5001 13.4147 6.5001 12.5556C6.5001 11.6964 5.82853 11 5.0001 11C4.17167 11 3.5001 11.6964 3.5001 12.5556Z" stroke="black"/>
</svg>
