<svg width="48" height="48" viewBox="0 0 48 48" fill="none" xmlns="http://www.w3.org/2000/svg">
<rect width="48" height="48" fill="white"/>
<path d="M14.6707 28.8167C14.3065 28.8167 14.0049 28.768 13.7659 28.6705C13.5268 28.5731 13.3276 28.4432 13.1683 28.2807C12.9179 28.4107 12.6163 28.5244 12.2634 28.6218C11.9106 28.7084 11.5577 28.7517 11.2049 28.7517C10.6585 28.7517 10.1577 28.6705 9.70244 28.5081C9.25854 28.3457 8.87155 28.1075 8.54146 27.7935C8.21138 27.4687 7.95528 27.0735 7.77317 26.6079C7.59106 26.1423 7.5 25.6009 7.5 24.9838C7.5 24.464 7.58537 23.9768 7.7561 23.522C7.92683 23.0565 8.17724 22.6558 8.50732 22.3202C8.84878 21.9737 9.25854 21.703 9.73659 21.5081C10.226 21.3132 10.778 21.2158 11.3927 21.2158C11.9732 21.2158 12.5024 21.2591 12.9805 21.3457C13.4699 21.4323 13.8455 21.5189 14.1073 21.6056V26.5754C14.1073 26.9219 14.1699 27.1655 14.2951 27.3063C14.4203 27.447 14.5854 27.5174 14.7902 27.5174C15.0862 27.5174 15.3423 27.42 15.5585 27.2251C15.7862 27.0302 15.9683 26.7757 16.1049 26.4617C16.2528 26.1477 16.361 25.7958 16.4293 25.406C16.4976 25.0054 16.5317 24.5994 16.5317 24.1879C16.5317 23.5058 16.4065 22.867 16.1561 22.2715C15.9057 21.6651 15.5472 21.1346 15.0805 20.6798C14.6138 20.2251 14.0447 19.8677 13.3732 19.6079C12.713 19.348 11.9675 19.2181 11.1366 19.2181C10.3057 19.2181 9.54309 19.3534 8.84878 19.6241C8.15447 19.884 7.55691 20.263 7.0561 20.761C6.55528 21.2483 6.1626 21.8492 5.87805 22.5638C5.60488 23.2784 5.46829 24.0905 5.46829 25C5.46829 25.9528 5.61626 26.792 5.9122 27.5174C6.20813 28.232 6.61789 28.8329 7.14146 29.3202C7.67642 29.7966 8.30244 30.1539 9.01951 30.3921C9.74797 30.6411 10.5447 30.7657 11.4098 30.7657C12.0813 30.7657 12.6333 30.7278 13.0659 30.652C13.5098 30.5762 13.7943 30.5166 13.9195 30.4733L14.0902 31.6752C13.8967 31.7401 13.5439 31.8105 13.0317 31.8863C12.5309 31.9621 11.9902 32 11.4098 32C10.3967 32 9.44065 31.8592 8.54146 31.5777C7.64228 31.307 6.85691 30.8848 6.18537 30.3109C5.51382 29.7479 4.97886 29.0278 4.58049 28.1508C4.1935 27.263 4 26.2127 4 25C4 23.8306 4.1935 22.8074 4.58049 21.9304C4.96748 21.0534 5.48537 20.3279 6.13415 19.7541C6.79431 19.1694 7.55122 18.7309 8.40488 18.4385C9.26992 18.1462 10.1805 18 11.1366 18C12.0699 18 12.952 18.1462 13.7829 18.4385C14.6138 18.72 15.3423 19.1369 15.9683 19.6891C16.5943 20.2305 17.0894 20.891 17.4537 21.6705C17.8179 22.4393 18 23.3109 18 24.2854C18 25.0217 17.9089 25.6713 17.7268 26.2343C17.5561 26.7974 17.3228 27.2738 17.0268 27.6636C16.7309 28.0425 16.378 28.3295 15.9683 28.5244C15.5585 28.7193 15.126 28.8167 14.6707 28.8167ZM11.2561 27.5012C11.4951 27.5012 11.7341 27.4795 11.9732 27.4362C12.2236 27.3821 12.4455 27.3063 12.639 27.2088C12.6049 27.0681 12.5821 26.9273 12.5707 26.7865C12.5594 26.6458 12.5537 26.5104 12.5537 26.3805V22.5638C12.4854 22.5422 12.3545 22.5205 12.161 22.4988C11.9675 22.4772 11.7512 22.4664 11.5122 22.4664C10.7041 22.4664 10.1008 22.7046 9.70244 23.181C9.30407 23.6574 9.10488 24.2583 9.10488 24.9838C9.10488 25.7525 9.29837 26.3643 9.68537 26.819C10.0724 27.2738 10.5959 27.5012 11.2561 27.5012Z" fill="#B480DE"/>
<path d="M22 19C22 17.8954 22.597 17 23.3333 17H28.6667C29.403 17 30 17.8954 30 19V21C30 22.1046 29.403 23 28.6667 23H23.3333C22.597 23 22 22.1046 22 21V19Z" fill="#E8E8E8"/>
<path d="M19 30C19 28.8954 20.0447 28 21.3333 28H30.6667C31.9553 28 33 28.8954 33 30V32C33 33.1046 31.9553 34 30.6667 34H21.3333C20.0447 34 19 33.1046 19 32V30Z" fill="#E8E8E8"/>
<path fill-rule="evenodd" clip-rule="evenodd" d="M26 17C24.3431 17 23 18.3431 23 20C23 21.6569 24.3431 23 26 23C27.6569 23 29 21.6569 29 20C29 18.3431 27.6569 17 26 17ZM21 20C21 17.2386 23.2386 15 26 15C28.7614 15 31 17.2386 31 20C31 22.7614 28.7614 25 26 25C23.2386 25 21 22.7614 21 20ZM17 31C17 28.7909 18.7909 27 21 27H31C33.2091 27 35 28.7909 35 31C35 33.2091 33.2091 35 31 35H21C18.7909 35 17 33.2091 17 31ZM21 29C19.8954 29 19 29.8954 19 31C19 32.1046 19.8954 33 21 33H31C32.1046 33 33 32.1046 33 31C33 29.8954 32.1046 29 31 29H21Z" fill="#B480DE"/>
<path fill-rule="evenodd" clip-rule="evenodd" d="M45 13L37 13L37 10L45 10L45 13Z" fill="#B480DE"/>
<path fill-rule="evenodd" clip-rule="evenodd" d="M45 37L37 37L37 34L45 34L45 37Z" fill="#B480DE"/>
<path fill-rule="evenodd" clip-rule="evenodd" d="M39.5 35.5V11.5H42.5V35.5H39.5Z" fill="#B480DE"/>
</svg>
