<svg width="24" height="24" viewBox="0 0 24 24" fill="none" xmlns="http://www.w3.org/2000/svg">
<rect width="24" height="24" fill="white"/>
<path d="M8.09756 14.181C7.88943 14.181 7.71707 14.1531 7.58049 14.0974C7.4439 14.0418 7.33008 13.9675 7.23903 13.8747C7.09594 13.949 6.92358 14.0139 6.72195 14.0696C6.52033 14.1191 6.3187 14.1439 6.11707 14.1439C5.80488 14.1439 5.5187 14.0974 5.25854 14.0046C5.00488 13.9118 4.78374 13.7757 4.59512 13.5963C4.4065 13.4107 4.26016 13.1848 4.1561 12.9188C4.05203 12.6527 4 12.3434 4 11.9907C4 11.6937 4.04878 11.4153 4.14634 11.1555C4.2439 10.8894 4.38699 10.6605 4.57561 10.4687C4.77073 10.2707 5.00488 10.116 5.27805 10.0046C5.55772 9.89327 5.87317 9.83759 6.22439 9.83759C6.5561 9.83759 6.85854 9.86234 7.13171 9.91183C7.41138 9.96133 7.62602 10.0108 7.77561 10.0603V12.9002C7.77561 13.0982 7.81138 13.2374 7.88293 13.3179C7.95447 13.3983 8.04878 13.4385 8.16585 13.4385C8.33496 13.4385 8.4813 13.3828 8.60488 13.2715C8.73496 13.1601 8.83903 13.0147 8.91707 12.8353C9.00163 12.6558 9.06342 12.4548 9.10244 12.232C9.14146 12.0031 9.16098 11.7711 9.16098 11.536C9.16098 11.1462 9.08943 10.7811 8.94634 10.4408C8.80325 10.0944 8.59837 9.79118 8.33171 9.53132C8.06504 9.27146 7.73984 9.06729 7.3561 8.91879C6.97886 8.7703 6.55285 8.69606 6.07805 8.69606C5.60325 8.69606 5.16748 8.7734 4.77073 8.92807C4.37398 9.07657 4.03252 9.29312 3.74634 9.57773C3.46016 9.85615 3.23577 10.1995 3.07317 10.6079C2.91707 11.0162 2.83902 11.4803 2.83902 12C2.83902 12.5445 2.92358 13.024 3.09268 13.4385C3.26179 13.8469 3.49594 14.1903 3.79512 14.4687C4.10081 14.7409 4.45854 14.9451 4.86829 15.0812C5.28455 15.2235 5.73984 15.2947 6.23415 15.2947C6.61789 15.2947 6.93333 15.273 7.18049 15.2297C7.43415 15.1864 7.59675 15.1524 7.66829 15.1276L7.76585 15.8144C7.65528 15.8515 7.45366 15.8917 7.16098 15.935C6.8748 15.9783 6.56585 16 6.23415 16C5.65528 16 5.10894 15.9196 4.59512 15.7587C4.0813 15.604 3.63252 15.3627 3.24878 15.0348C2.86504 14.7131 2.55935 14.3016 2.33171 13.8005C2.11057 13.2931 2 12.693 2 12C2 11.3318 2.11057 10.7471 2.33171 10.2459C2.55285 9.74478 2.84878 9.33024 3.21951 9.00232C3.59675 8.66821 4.02927 8.41763 4.51707 8.25058C5.01138 8.08353 5.53171 8 6.07805 8C6.61138 8 7.11545 8.08353 7.59024 8.25058C8.06504 8.41145 8.4813 8.64965 8.83902 8.9652C9.19675 9.27456 9.47968 9.65197 9.68781 10.0974C9.89594 10.5367 10 11.0348 10 11.5916C10 12.0124 9.94797 12.3836 9.8439 12.7053C9.74634 13.0271 9.61301 13.2993 9.4439 13.522C9.2748 13.7386 9.07317 13.9026 8.83902 14.0139C8.60488 14.1253 8.35772 14.181 8.09756 14.181ZM6.14634 13.4292C6.28293 13.4292 6.41951 13.4169 6.5561 13.3921C6.69919 13.3612 6.82602 13.3179 6.93659 13.2622C6.91707 13.1817 6.90407 13.1013 6.89756 13.0209C6.89106 12.9404 6.8878 12.8631 6.8878 12.7889V10.6079C6.84878 10.5955 6.77398 10.5831 6.66342 10.5708C6.55285 10.5584 6.42927 10.5522 6.29268 10.5522C5.83089 10.5522 5.48618 10.6883 5.25854 10.9606C5.03089 11.2328 4.91707 11.5762 4.91707 11.9907C4.91707 12.43 5.02764 12.7796 5.24878 13.0394C5.46992 13.2993 5.76911 13.4292 6.14634 13.4292Z" fill="black"/>
<path d="M17 10C17 11.1046 16.1046 12 15 12C13.8954 12 13 11.1046 13 10C13 8.89543 13.8954 8 15 8C16.1046 8 17 8.89543 17 10Z" stroke="black"/>
<path d="M11 15.5C11 14.6716 11.6716 14 12.5 14H17.5C18.3284 14 19 14.6716 19 15.5C19 16.3284 18.3284 17 17.5 17H12.5C11.6716 17 11 16.3284 11 15.5Z" stroke="black"/>
<path d="M19 4L23 4" stroke="black"/>
<path d="M19 20L23 20" stroke="black"/>
<path d="M21 4V20" stroke="black"/>
</svg>
