<svg width="48" height="48" viewBox="0 0 48 48" fill="none" xmlns="http://www.w3.org/2000/svg">
<rect width="48" height="48" fill="white"/>
<path d="M16.1951 28.3619C15.7789 28.3619 15.4341 28.3063 15.161 28.1949C14.8878 28.0835 14.6602 27.935 14.4781 27.7494C14.1919 27.8979 13.8472 28.0278 13.4439 28.1392C13.0406 28.2382 12.6374 28.2877 12.2341 28.2877C11.6098 28.2877 11.0374 28.1949 10.5171 28.0093C10.0098 27.8237 9.56748 27.5514 9.19024 27.1926C8.81301 26.8213 8.52033 26.3697 8.3122 25.8376C8.10406 25.3055 8 24.6868 8 23.9814C8 23.3875 8.09756 22.8306 8.29268 22.3109C8.48781 21.7788 8.77398 21.321 9.15122 20.9374C9.54146 20.5414 10.0098 20.232 10.5561 20.0093C11.1154 19.7865 11.7463 19.6752 12.4488 19.6752C13.1122 19.6752 13.7171 19.7247 14.2634 19.8237C14.8228 19.9227 15.252 20.0217 15.5512 20.1206V25.8005C15.5512 26.1964 15.6228 26.4749 15.7659 26.6357C15.9089 26.7966 16.0976 26.877 16.3317 26.877C16.6699 26.877 16.9626 26.7657 17.2098 26.5429C17.4699 26.3202 17.6781 26.0294 17.8341 25.6705C18.0033 25.3117 18.1268 24.9095 18.2049 24.464C18.2829 24.0062 18.322 23.5422 18.322 23.0719C18.322 22.2923 18.1789 21.5623 17.8927 20.8817C17.6065 20.1887 17.1967 19.5824 16.6634 19.0626C16.1301 18.5429 15.4797 18.1346 14.7122 17.8376C13.9577 17.5406 13.1057 17.3921 12.1561 17.3921C11.2065 17.3921 10.335 17.5468 9.54146 17.8561C8.74797 18.1531 8.06504 18.5862 7.49268 19.1555C6.92033 19.7123 6.47154 20.3991 6.14634 21.2158C5.83415 22.0325 5.67805 22.9606 5.67805 24C5.67805 25.0889 5.84715 26.048 6.18537 26.877C6.52358 27.6937 6.99187 28.3805 7.59024 28.9374C8.20163 29.4818 8.91707 29.8902 9.73659 30.1624C10.5691 30.447 11.4797 30.5893 12.4683 30.5893C13.2358 30.5893 13.8667 30.546 14.361 30.4594C14.8683 30.3728 15.1935 30.3047 15.3366 30.2552L15.5317 31.6288C15.3106 31.703 14.9073 31.7835 14.322 31.8701C13.7496 31.9567 13.1317 32 12.4683 32C11.3106 32 10.2179 31.8391 9.19024 31.5174C8.1626 31.208 7.26504 30.7254 6.49756 30.0696C5.73008 29.4261 5.1187 28.6032 4.66341 27.6009C4.22114 26.5862 4 25.3859 4 24C4 22.6636 4.22114 21.4942 4.66341 20.4919C5.10569 19.4896 5.69756 18.6605 6.43902 18.0046C7.1935 17.3364 8.05854 16.8353 9.03415 16.5012C10.0228 16.1671 11.0634 16 12.1561 16C13.2228 16 14.2309 16.1671 15.1805 16.5012C16.1301 16.8229 16.9626 17.2993 17.678 17.9304C18.3935 18.5491 18.9594 19.3039 19.3756 20.1949C19.7919 21.0735 20 22.0696 20 23.1833C20 24.0247 19.8959 24.7672 19.6878 25.4107C19.4927 26.0541 19.226 26.5986 18.8878 27.0441C18.5496 27.4772 18.1463 27.8051 17.678 28.0278C17.2098 28.2506 16.7154 28.3619 16.1951 28.3619ZM12.2927 26.8585C12.5659 26.8585 12.839 26.8337 13.1122 26.7842C13.3984 26.7224 13.652 26.6357 13.8732 26.5244C13.8341 26.3635 13.8081 26.2026 13.7951 26.0418C13.7821 25.8809 13.7756 25.7262 13.7756 25.5777V21.2158C13.6976 21.191 13.548 21.1663 13.3268 21.1415C13.1057 21.1168 12.8585 21.1044 12.5854 21.1044C11.6618 21.1044 10.9724 21.3766 10.5171 21.9211C10.0618 22.4656 9.83415 23.1524 9.83415 23.9814C9.83415 24.86 10.0553 25.5592 10.4976 26.0789C10.9398 26.5986 11.5382 26.8585 12.2927 26.8585Z" fill="#B480DE"/>
<path fill-rule="evenodd" clip-rule="evenodd" d="M30 17C28.3431 17 27 18.3431 27 20C27 21.6569 28.3431 23 30 23C31.6569 23 33 21.6569 33 20C33 18.3431 31.6569 17 30 17ZM25 20C25 17.2386 27.2386 15 30 15C32.7614 15 35 17.2386 35 20C35 22.7614 32.7614 25 30 25C27.2386 25 25 22.7614 25 20ZM21 31C21 28.7909 22.7909 27 25 27H35C37.2091 27 39 28.7909 39 31C39 33.2091 37.2091 35 35 35H25C22.7909 35 21 33.2091 21 31ZM25 29C23.8954 29 23 29.8954 23 31C23 32.1046 23.8954 33 25 33H35C36.1046 33 37 32.1046 37 31C37 29.8954 36.1046 29 35 29H25Z" fill="#B480DE"/>
<path fill-rule="evenodd" clip-rule="evenodd" d="M46 9L38 9L38 7L46 7L46 9Z" fill="#B480DE"/>
<path fill-rule="evenodd" clip-rule="evenodd" d="M46 41L38 41L38 39L46 39L46 41Z" fill="#B480DE"/>
<path fill-rule="evenodd" clip-rule="evenodd" d="M41 40V8H43V40H41Z" fill="#B480DE"/>
</svg>
