<svg width="48" height="48" viewBox="0 0 48 48" fill="none" xmlns="http://www.w3.org/2000/svg">
<rect width="48" height="48" fill="white"/>
<path d="M43.0913 8.01906C38.8665 7.83948 34.6942 9.00148 31.1809 11.3361C27.6675 13.6708 24.9964 17.0563 23.5558 21.0005C22.565 18.2821 20.9815 15.8141 18.9183 13.7728C16.9739 11.8397 14.6449 10.3297 12.0796 9.33903C9.51441 8.34838 6.76927 7.89884 4.01921 8.01906C3.89803 10.7474 4.35116 13.4708 5.3497 16.0157C6.34825 18.5607 7.8703 20.8713 9.81885 22.8003C10.6995 23.6744 11.66 24.4655 12.688 25.1634C14.1211 26.1399 15.2922 27.4487 16.0998 28.9762C16.9073 30.5036 17.3268 32.2035 17.3219 33.9283V39.9996H29.7886V33.9283C29.784 32.2036 30.2036 30.5038 31.0111 28.9764C31.8187 27.449 32.9896 26.1402 34.4225 25.1634C35.451 24.4661 36.4115 23.6749 37.2916 22.8003C39.2404 20.8715 40.7626 18.5609 41.7612 16.0159C42.7598 13.4709 43.2128 10.7474 43.0913 8.01906Z" fill="#B480DE"/>
<path d="M13.7775 34.0558C13.7837 32.9878 13.51 31.9345 12.9804 30.9877C12.4509 30.0409 11.6814 29.2293 10.7391 28.6236C9.45846 27.8073 8.26227 26.8812 7.16612 25.8572C5.98134 24.7495 4.92049 23.532 4 22.2236L4 40.0012H13.7775V34.0558Z" fill="#B480DE"/>
<path d="M33.3341 34.0558C33.328 32.9878 33.6016 31.9345 34.1312 30.9877C34.6607 30.0409 35.4302 29.2293 36.3725 28.6236C37.6529 27.807 38.8491 26.8809 39.9455 25.8572C41.1303 24.7495 42.1911 23.532 43.1116 22.2236V40.0012H33.3341V34.0558Z" fill="#B480DE"/>
</svg>
