<svg width="24" height="24" viewBox="0 0 24 24" fill="none" xmlns="http://www.w3.org/2000/svg">
<rect width="24" height="24" fill="white"/>
<path d="M21.5456 4.00953C19.4333 3.91974 17.3471 4.50074 15.5904 5.66806C13.8338 6.83538 12.4982 8.52816 11.7779 10.5003C11.2825 9.14104 10.4907 7.90706 9.45915 6.88641C8.48695 5.91985 7.32243 5.16484 6.03982 4.66951C4.7572 4.17419 3.38463 3.94942 2.00961 4.00953C1.94902 5.37368 2.17558 6.7354 2.67485 8.00787C3.17412 9.28034 3.93515 10.4357 4.90942 11.4002C5.34974 11.8372 5.82999 12.2327 6.344 12.5817C7.06053 13.07 7.64611 13.7244 8.04988 14.4881C8.45366 15.2518 8.66342 16.1018 8.66096 16.9642V19.9998H14.8943V16.9642C14.892 16.1018 15.1018 15.2519 15.5056 14.4882C15.9093 13.7245 16.4948 13.0701 17.2113 12.5817C17.7255 12.233 18.2058 11.8375 18.6458 11.4002C19.6202 10.4357 20.3813 9.28044 20.8806 8.00795C21.3799 6.73546 21.6064 5.3737 21.5456 4.00953Z" fill="black"/>
<path d="M6.88877 17.0274C6.89183 16.4934 6.75501 15.9668 6.49022 15.4934C6.22544 15.02 5.84072 14.6142 5.36956 14.3113C4.72923 13.9032 4.13113 13.4401 3.58306 12.9281C2.99067 12.3743 2.46025 11.7655 2 11.1113L2 20.0001H6.88877V17.0274Z" fill="black"/>
<path d="M16.667 17.0274C16.664 16.4934 16.8008 15.9668 17.0656 15.4934C17.3304 15.02 17.7151 14.6142 18.1863 14.3113C18.8265 13.903 19.4245 13.44 19.9728 12.9281C20.5651 12.3743 21.0956 11.7655 21.5558 11.1113V20.0001H16.667V17.0274Z" fill="black"/>
</svg>
