<svg width="48" height="48" viewBox="0 0 48 48" fill="none" xmlns="http://www.w3.org/2000/svg">
<path d="M6 16H16V23.4286H6V16Z" fill="#D9D9D9"/>
<path d="M18 16H30V23.4286H18V16Z" fill="#D9D9D9"/>
<path d="M32 16H42V23.4286H32V16Z" fill="#D9D9D9"/>
<path fill-rule="evenodd" clip-rule="evenodd" d="M34 20C34 19.4477 34.4477 19 35 19H38C38.5523 19 39 19.4477 39 20C39 20.5523 38.5523 21 38 21H35C34.4477 21 34 20.5523 34 20Z" fill="#B480DE"/>
<path fill-rule="evenodd" clip-rule="evenodd" d="M9 20C9 19.4477 9.44772 19 10 19H13C13.5523 19 14 19.4477 14 20C14 20.5523 13.5523 21 13 21H10C9.44772 21 9 20.5523 9 20Z" fill="#B480DE"/>
<path d="M6 25.2861H16V32.7147H6V25.2861Z" fill="#D9D9D9"/>
<path d="M18 25.2861H30V32.7147H18V25.2861Z" fill="#D9D9D9"/>
<path fill-rule="evenodd" clip-rule="evenodd" d="M21 29C21 28.4477 21.4477 28 22 28H26C26.5523 28 27 28.4477 27 29C27 29.5523 26.5523 30 26 30H22C21.4477 30 21 29.5523 21 29Z" fill="#B480DE"/>
<path d="M32 25.2861H42V32.7147H32V25.2861Z" fill="#D9D9D9"/>
<path fill-rule="evenodd" clip-rule="evenodd" d="M34 29C34 28.4477 34.4477 28 35 28H38C38.5523 28 39 28.4477 39 29C39 29.5523 38.5523 30 38 30H35C34.4477 30 34 29.5523 34 29Z" fill="#B480DE"/>
<path fill-rule="evenodd" clip-rule="evenodd" d="M9 29C9 28.4477 9.44772 28 10 28H13C13.5523 28 14 28.4477 14 29C14 29.5523 13.5523 30 13 30H10C9.44772 30 9 29.5523 9 29Z" fill="#B480DE"/>
<path d="M6 34.5713H16V41.9999H10C7.79086 41.9999 6 40.209 6 37.9999V34.5713Z" fill="#D9D9D9"/>
<path d="M18 34.5713H30V41.9999H18V34.5713Z" fill="#D9D9D9"/>
<path fill-rule="evenodd" clip-rule="evenodd" d="M21 38C21 37.4477 21.4477 37 22 37H26C26.5523 37 27 37.4477 27 38C27 38.5523 26.5523 39 26 39H22C21.4477 39 21 38.5523 21 38Z" fill="#B480DE"/>
<path d="M32 34.5713H42V37.9999C42 40.209 40.2091 41.9999 38 41.9999H32V34.5713Z" fill="#D9D9D9"/>
<path fill-rule="evenodd" clip-rule="evenodd" d="M34 38C34 37.4477 34.4477 37 35 37H38C38.5523 37 39 37.4477 39 38C39 38.5523 38.5523 39 38 39H35C34.4477 39 34 38.5523 34 38Z" fill="#B480DE"/>
<path fill-rule="evenodd" clip-rule="evenodd" d="M9 38C9 37.4477 9.44772 37 10 37H13C13.5523 37 14 37.4477 14 38C14 38.5523 13.5523 39 13 39H10C9.44772 39 9 38.5523 9 38Z" fill="#B480DE"/>
<path fill-rule="evenodd" clip-rule="evenodd" d="M5 15H43V17H5V15Z" fill="#B480DE"/>
<path fill-rule="evenodd" clip-rule="evenodd" d="M5 12C5 9.23858 7.23858 7 10 7H38C40.7614 7 43 9.23858 43 12V38C43 40.7614 40.7614 43 38 43H10C7.23858 43 5 40.7614 5 38V12ZM10 9C8.34315 9 7 10.3431 7 12V38C7 39.6569 8.34315 41 10 41H38C39.6569 41 41 39.6569 41 38V12C41 10.3431 39.6569 9 38 9H10Z" fill="#B480DE"/>
<path fill-rule="evenodd" clip-rule="evenodd" d="M21 20C21 19.4477 21.4477 19 22 19H26C26.5523 19 27 19.4477 27 20C27 20.5523 26.5523 21 26 21H22C21.4477 21 21 20.5523 21 20Z" fill="#B480DE"/>
</svg>
