<svg width="48" height="48" viewBox="0 0 48 48" fill="none" xmlns="http://www.w3.org/2000/svg">
<path d="M6 15H16V22.4286H6V15Z" fill="#D9D9D9"/>
<path d="M18 15H30V22.4286H18V15Z" fill="#D9D9D9"/>
<path d="M32 15H42V22.4286H32V15Z" fill="#D9D9D9"/>
<path fill-rule="evenodd" clip-rule="evenodd" d="M34 19C34 18.4477 34.4477 18 35 18H38C38.5523 18 39 18.4477 39 19C39 19.5523 38.5523 20 38 20H35C34.4477 20 34 19.5523 34 19Z" fill="#B480DE"/>
<path fill-rule="evenodd" clip-rule="evenodd" d="M9 19C9 18.4477 9.44772 18 10 18H13C13.5523 18 14 18.4477 14 19C14 19.5523 13.5523 20 13 20H10C9.44772 20 9 19.5523 9 19Z" fill="#B480DE"/>
<path d="M6 24.2861H16V31.7147H6V24.2861Z" fill="#D9D9D9"/>
<path d="M18 24.2861H30V31.7147H18V24.2861Z" fill="#D9D9D9"/>
<path fill-rule="evenodd" clip-rule="evenodd" d="M21 28C21 27.4477 21.4477 27 22 27H26C26.5523 27 27 27.4477 27 28C27 28.5523 26.5523 29 26 29H22C21.4477 29 21 28.5523 21 28Z" fill="#B480DE"/>
<path d="M32 24.2861H42V31.7147H32V24.2861Z" fill="#D9D9D9"/>
<path fill-rule="evenodd" clip-rule="evenodd" d="M34 28C34 27.4477 34.4477 27 35 27H38C38.5523 27 39 27.4477 39 28C39 28.5523 38.5523 29 38 29H35C34.4477 29 34 28.5523 34 28Z" fill="#B480DE"/>
<path fill-rule="evenodd" clip-rule="evenodd" d="M9 28C9 27.4477 9.44772 27 10 27H13C13.5523 27 14 27.4477 14 28C14 28.5523 13.5523 29 13 29H10C9.44772 29 9 28.5523 9 28Z" fill="#B480DE"/>
<path d="M6 33.5713H16V40.9999H10C7.79086 40.9999 6 39.209 6 36.9999V33.5713Z" fill="#D9D9D9"/>
<path d="M18 33.5713H30V40.9999H18V33.5713Z" fill="#D9D9D9"/>
<path fill-rule="evenodd" clip-rule="evenodd" d="M21 37C21 36.4477 21.4477 36 22 36H26C26.5523 36 27 36.4477 27 37C27 37.5523 26.5523 38 26 38H22C21.4477 38 21 37.5523 21 37Z" fill="#B480DE"/>
<path d="M32 33.5713H42V36.9999C42 39.209 40.2091 40.9999 38 40.9999H32V33.5713Z" fill="#D9D9D9"/>
<path fill-rule="evenodd" clip-rule="evenodd" d="M34 37C34 36.4477 34.4477 36 35 36H38C38.5523 36 39 36.4477 39 37C39 37.5523 38.5523 38 38 38H35C34.4477 38 34 37.5523 34 37Z" fill="#B480DE"/>
<path fill-rule="evenodd" clip-rule="evenodd" d="M9 37C9 36.4477 9.44772 36 10 36H13C13.5523 36 14 36.4477 14 37C14 37.5523 13.5523 38 13 38H10C9.44772 38 9 37.5523 9 37Z" fill="#B480DE"/>
<path fill-rule="evenodd" clip-rule="evenodd" d="M5 14H43V16H5V14Z" fill="#B480DE"/>
<path fill-rule="evenodd" clip-rule="evenodd" d="M5 11C5 8.23858 7.23858 6 10 6H38C40.7614 6 43 8.23858 43 11V37C43 39.7614 40.7614 42 38 42H10C7.23858 42 5 39.7614 5 37V11ZM10 8C8.34315 8 7 9.34315 7 11V37C7 38.6569 8.34315 40 10 40H38C39.6569 40 41 38.6569 41 37V11C41 9.34315 39.6569 8 38 8H10Z" fill="#B480DE"/>
<path fill-rule="evenodd" clip-rule="evenodd" d="M21 19C21 18.4477 21.4477 18 22 18H26C26.5523 18 27 18.4477 27 19C27 19.5523 26.5523 20 26 20H22C21.4477 20 21 19.5523 21 19Z" fill="#B480DE"/>
<path fill-rule="evenodd" clip-rule="evenodd" d="M4 10.6486C4 7.52899 6.52557 5 9.64103 5H38.359C41.4744 5 44 7.52899 44 10.6486V37.3514C44 40.471 41.4744 43 38.359 43H9.64103C6.52557 43 4 40.471 4 37.3514V10.6486ZM9.64103 8.08108C8.22491 8.08108 7.07692 9.23062 7.07692 10.6486V37.3514C7.07692 38.7694 8.22491 39.9189 9.64103 39.9189H38.359C39.7751 39.9189 40.9231 38.7694 40.9231 37.3514V10.6486C40.9231 9.23062 39.7751 8.08108 38.359 8.08108H9.64103Z" fill="#B480DE"/>
</svg>
