<svg width="48" height="48" viewBox="0 0 48 48" fill="none" xmlns="http://www.w3.org/2000/svg">
<path d="M6 10C6 7.79086 7.79086 6 10 6H38C40.2091 6 42 7.79086 42 10V38C42 40.2091 40.2091 42 38 42H10C7.79086 42 6 40.2091 6 38V10Z" fill="#E8E8E8"/>
<path fill-rule="evenodd" clip-rule="evenodd" d="M5 10C5 7.23858 7.23858 5 10 5H38C40.7614 5 43 7.23858 43 10V38C43 40.7614 40.7614 43 38 43H10C7.23858 43 5 40.7614 5 38V10ZM10 7C8.34315 7 7 8.34315 7 10V38C7 39.6569 8.34315 41 10 41H38C39.6569 41 41 39.6569 41 38V10C41 8.34315 39.6569 7 38 7H10Z" fill="#B480DE"/>
<path d="M12 14C12 12.8954 12.8954 12 14 12H34C35.1046 12 36 12.8954 36 14V34C36 35.1046 35.1046 36 34 36H14C12.8954 36 12 35.1046 12 34V14Z" fill="white"/>
<path fill-rule="evenodd" clip-rule="evenodd" d="M10.5 14C10.5 12.067 12.067 10.5 14 10.5H34C35.933 10.5 37.5 12.067 37.5 14V34C37.5 35.933 35.933 37.5 34 37.5H14C12.067 37.5 10.5 35.933 10.5 34V14ZM14 13.5C13.7239 13.5 13.5 13.7239 13.5 14V34C13.5 34.2761 13.7239 34.5 14 34.5H34C34.2761 34.5 34.5 34.2761 34.5 34V14C34.5 13.7239 34.2761 13.5 34 13.5H14Z" fill="#B480DE"/>
<path d="M24 29.4C24 29.1791 24.1791 29 24.4 29H31.6C31.8209 29 32 29.1791 32 29.4V30.6C32 30.8209 31.8209 31 31.6 31H24.4C24.1791 31 24 30.8209 24 30.6V29.4Z" fill="#B480DE"/>
<path fill-rule="evenodd" clip-rule="evenodd" d="M23 29.4C23 28.6268 23.6268 28 24.4 28H31.6C32.3732 28 33 28.6268 33 29.4V30.6C33 31.3732 32.3732 32 31.6 32H24.4C23.6268 32 23 31.3732 23 30.6V29.4Z" fill="#B480DE"/>
<path fill-rule="evenodd" clip-rule="evenodd" d="M15 18C15 17.4477 15.4477 17 16 17L23.3333 17C23.8856 17 24.3333 17.4477 24.3333 18C24.3333 18.5523 23.8856 19 23.3333 19L16 19C15.4477 19 15 18.5523 15 18Z" fill="#B480DE"/>
<path fill-rule="evenodd" clip-rule="evenodd" d="M15 22C15 21.4477 15.4477 21 16 21L32 21C32.5523 21 33 21.4477 33 22C33 22.5523 32.5523 23 32 23L16 23C15.4477 23 15 22.5523 15 22Z" fill="#B480DE"/>
</svg>
