<svg width="48" height="48" viewBox="0 0 48 48" fill="none" xmlns="http://www.w3.org/2000/svg">
<path d="M17 6.99992L23.6061 4.16875C23.8576 4.06094 24.1424 4.06094 24.3939 4.16875L31 6.99992V14.3405C31 14.7406 30.7616 15.1021 30.3939 15.2597L24 17.9999L17.6061 15.2597C17.2384 15.1021 17 14.7406 17 14.3405V6.99992Z" fill="#E8E8E8"/>
<path fill-rule="evenodd" clip-rule="evenodd" d="M23.2122 3.2496C23.7153 3.03399 24.2847 3.03399 24.7878 3.2496L32 6.34053V14.3405C32 15.1406 31.5232 15.8637 30.7878 16.1788L24 19.0879L17.2122 16.1788C16.4768 15.8637 16 15.1406 16 14.3405V6.34053L23.2122 3.2496ZM18 8.51646L23 10.6593V16.4834L18 14.3405V8.51646ZM25 16.4834L30 14.3405V8.51646L25 10.6593V16.4834ZM24 8.91196L28.4614 6.99992L24 5.08789L19.5386 6.99992L24 8.91196Z" fill="#B480DE"/>
<path fill-rule="evenodd" clip-rule="evenodd" d="M17.7071 15.7072L14 19.4143V27.0001H12V19.4143C12 18.8839 12.2107 18.3751 12.5858 18.0001L16.2929 14.293L17.7071 15.7072Z" fill="#B480DE"/>
<path d="M4 28.9999L10.6061 26.1687C10.8576 26.0609 11.1424 26.0609 11.3939 26.1687L18 28.9999V36.3405C18 36.7406 17.7616 37.1021 17.3939 37.2597L11 39.9999L4.60608 37.2597C4.2384 37.1021 4 36.7406 4 36.3405V28.9999Z" fill="#E8E8E8"/>
<path fill-rule="evenodd" clip-rule="evenodd" d="M10.2122 25.2496C10.7153 25.034 11.2847 25.034 11.7878 25.2496L19 28.3405V36.3405C19 37.1406 18.5232 37.8637 17.7878 38.1788L11 41.0879L4.21216 38.1788C3.47679 37.8637 3 37.1406 3 36.3405V28.3405L10.2122 25.2496ZM5 30.5165L10 32.6593V38.4834L5 36.3405V30.5165ZM12 38.4834L17 36.3405V30.5165L12 32.6593V38.4834ZM11 30.912L15.4614 28.9999L11 27.0879L6.53859 28.9999L11 30.912Z" fill="#B480DE"/>
<path d="M30 28.9999L36.6061 26.1687C36.8576 26.0609 37.1424 26.0609 37.3939 26.1687L44 28.9999V36.3405C44 36.7406 43.7616 37.1021 43.3939 37.2597L37 39.9999L30.6061 37.2597C30.2384 37.1021 30 36.7406 30 36.3405V28.9999Z" fill="#E8E8E8"/>
<path fill-rule="evenodd" clip-rule="evenodd" d="M36.2122 25.2496C36.7153 25.034 37.2847 25.034 37.7878 25.2496L45 28.3405V36.3405C45 37.1406 44.5232 37.8637 43.7878 38.1788L37 41.0879L30.2122 38.1788C29.4768 37.8637 29 37.1406 29 36.3405V28.3405L36.2122 25.2496ZM31 30.5165L36 32.6593V38.4834L31 36.3405V30.5165ZM38 38.4834L43 36.3405V30.5165L38 32.6593V38.4834ZM37 30.912L41.4614 28.9999L37 27.0879L32.5386 28.9999L37 30.912Z" fill="#B480DE"/>
<path fill-rule="evenodd" clip-rule="evenodd" d="M33.9997 19.4802L29.375 15.7805L30.6244 14.2188L35.2491 17.9185C35.7235 18.2981 35.9997 18.8727 35.9997 19.4802V26.9996H33.9997V19.4802Z" fill="#B480DE"/>
<path fill-rule="evenodd" clip-rule="evenodd" d="M22.8906 44.4623L14.4453 38.8321L15.5547 37.168L24 42.7982L32.4453 37.168L33.5547 38.8321L25.1094 44.4623C24.4376 44.9101 23.5624 44.9101 22.8906 44.4623Z" fill="#B480DE"/>
</svg>
