<svg width="24" height="24" viewBox="0 0 24 24" fill="none" xmlns="http://www.w3.org/2000/svg">
<path d="M8.5 3.5L11.803 2.08441C11.9288 2.03051 12.0712 2.03051 12.197 2.08441L15.5 3.5M8.5 3.5L12 5M8.5 3.5V7.1703C8.5 7.37032 8.6192 7.55109 8.80304 7.62987L12 9M15.5 3.5L12 5M15.5 3.5V7.1703C15.5 7.37032 15.3808 7.55109 15.197 7.62987L12 9M12 5V9" stroke="black"/>
<path d="M6.5 13.5V9.70711C6.5 9.5745 6.55268 9.44732 6.64645 9.35355L8.5 7.5" stroke="black"/>
<path d="M2 14.5L5.30304 13.0844C5.42881 13.0305 5.57119 13.0305 5.69696 13.0844L9 14.5M2 14.5L5.5 16M2 14.5V18.1703C2 18.3703 2.1192 18.5511 2.30304 18.6299L5.5 20M9 14.5L5.5 16M9 14.5V18.1703C9 18.3703 8.8808 18.5511 8.69696 18.6299L5.5 20M5.5 16V20" stroke="black"/>
<path d="M15 14.5L18.303 13.0844C18.4288 13.0305 18.5712 13.0305 18.697 13.0844L22 14.5M15 14.5L18.5 16M15 14.5V18.1703C15 18.3703 15.1192 18.5511 15.303 18.6299L18.5 20M22 14.5L18.5 16M22 14.5V18.1703C22 18.3703 21.8808 18.5511 21.697 18.6299L18.5 20M18.5 16V20" stroke="black"/>
<path d="M15 7.5L17.3123 9.34988C17.431 9.44476 17.5 9.58842 17.5 9.74031V13.5" stroke="black"/>
<path d="M7.5 19L11.7226 21.8151C11.8906 21.9271 12.1094 21.9271 12.2774 21.8151L16.5 19" stroke="black"/>
</svg>
