<svg width="48" height="48" viewBox="0 0 48 48" fill="none" xmlns="http://www.w3.org/2000/svg">
<rect width="48" height="48" fill="white"/>
<path fill-rule="evenodd" clip-rule="evenodd" d="M4 9.5C4 6.46243 6.46243 4 9.5 4H37.5C40.5376 4 43 6.46243 43 9.5V13.5C43 16.5376 40.5376 19 37.5 19H9.5C6.46243 19 4 16.5376 4 13.5V9.5ZM9.5 7C8.11929 7 7 8.11929 7 9.5V13.5C7 14.8807 8.11929 16 9.5 16H37.5C38.8807 16 40 14.8807 40 13.5V9.5C40 8.11929 38.8807 7 37.5 7H9.5Z" fill="#B480DE"/>
<path fill-rule="evenodd" clip-rule="evenodd" d="M30.7929 13.2071C31.1834 13.5976 31.8166 13.5976 32.2071 13.2071L33.5 11.9142L34.7929 13.2071C35.1834 13.5976 35.8166 13.5976 36.2071 13.2071C36.5976 12.8166 36.5976 12.1834 36.2071 11.7929L34.4899 10.0757C33.9432 9.529 33.0568 9.529 32.5101 10.0757L30.7929 11.7929C30.4024 12.1834 30.4024 12.8166 30.7929 13.2071Z" fill="#B480DE"/>
<path fill-rule="evenodd" clip-rule="evenodd" d="M4 27.5C4 26.6716 4.67157 26 5.5 26H29.5C30.3284 26 31 26.6716 31 27.5C31 28.3284 30.3284 29 29.5 29H5.5C4.67157 29 4 28.3284 4 27.5Z" fill="#B480DE"/>
<path fill-rule="evenodd" clip-rule="evenodd" d="M4 37.5C4 36.6716 4.67157 36 5.5 36H29.5C30.3284 36 31 36.6716 31 37.5C31 38.3284 30.3284 39 29.5 39H5.5C4.67157 39 4 38.3284 4 37.5Z" fill="#B480DE"/>
<path fill-rule="evenodd" clip-rule="evenodd" d="M43.2756 33.8688C43.6242 34.2971 43.5596 34.927 43.1313 35.2756L36.9884 40.2756C36.5835 40.6052 35.9931 40.5678 35.633 40.1897L32.7759 37.1897C32.395 36.7898 32.4104 36.1568 32.8103 35.7759C33.2103 35.395 33.8433 35.4104 34.2241 35.8104L36.4433 38.1405L41.8687 33.7245C42.2971 33.3758 42.9269 33.4404 43.2756 33.8688Z" fill="#B480DE"/>
<path fill-rule="evenodd" clip-rule="evenodd" d="M43.2756 24.8688C43.6242 25.2971 43.5596 25.927 43.1313 26.2756L36.9884 31.2756C36.5835 31.6052 35.9931 31.5678 35.633 31.1897L32.7759 28.1897C32.395 27.7898 32.4104 27.1568 32.8103 26.7759C33.2103 26.395 33.8433 26.4104 34.2241 26.8104L36.4433 29.1405L41.8687 24.7245C42.2971 24.3758 42.9269 24.4404 43.2756 24.8688Z" fill="#B480DE"/>
</svg>
