<svg width="48" height="48" viewBox="0 0 48 48" fill="none" xmlns="http://www.w3.org/2000/svg">
<path fill-rule="evenodd" clip-rule="evenodd" d="M3 20C3 17.2386 5.23858 15 8 15H40C42.7614 15 45 17.2386 45 20V28C45 30.7614 42.7614 33 40 33H8C5.23858 33 3 30.7614 3 28V20ZM8 17C6.34315 17 5 18.3431 5 20V28C5 29.6569 6.34315 31 8 31H40C41.6569 31 43 29.6569 43 28V20C43 18.3431 41.6569 17 40 17H8Z" fill="#DEDEDE"/>
<path fill-rule="evenodd" clip-rule="evenodd" d="M7 20.8C7 19.8059 7.80589 19 8.8 19H15.2C16.1941 19 17 19.8059 17 20.8V27.2C17 28.1941 16.1941 29 15.2 29H8.8C7.80589 29 7 28.1941 7 27.2V20.8ZM9 21V27H15V21H9Z" fill="#B480DE"/>
<path fill-rule="evenodd" clip-rule="evenodd" d="M19 20.8C19 19.8059 19.8059 19 20.8 19H27.2C28.1941 19 29 19.8059 29 20.8V27.2C29 28.1941 28.1941 29 27.2 29H20.8C19.8059 29 19 28.1941 19 27.2V20.8ZM21 21V27H27V21H21Z" fill="#B480DE"/>
<path d="M32 20.8C32 20.3582 32.3582 20 32.8 20H39.2C39.6418 20 40 20.3582 40 20.8V27.2C40 27.6418 39.6418 28 39.2 28H32.8C32.3582 28 32 27.6418 32 27.2V20.8Z" fill="#B480DE"/>
<path fill-rule="evenodd" clip-rule="evenodd" d="M30.5 20.8C30.5 19.5297 31.5297 18.5 32.8 18.5H39.2C40.4703 18.5 41.5 19.5297 41.5 20.8V27.2C41.5 28.4703 40.4703 29.5 39.2 29.5H32.8C31.5297 29.5 30.5 28.4703 30.5 27.2V20.8ZM33.5 21.5V26.5H38.5V21.5H33.5Z" fill="#B480DE"/>
</svg>
