<svg width="13" height="6" viewBox="0 0 13 6" fill="none" xmlns="http://www.w3.org/2000/svg">
<path d="M3.98864 0.636364V5H3.47727L1.09943 1.57386H1.05682V5H0.528409V0.636364H1.03977L3.42614 4.07102H3.46875V0.636364H3.98864ZM6.34996 5.06818C6.03462 5.06818 5.76261 4.99858 5.53391 4.85938C5.30664 4.71875 5.13121 4.52273 5.00763 4.27131C4.88548 4.01847 4.8244 3.72443 4.8244 3.3892C4.8244 3.05398 4.88548 2.75852 5.00763 2.50284C5.13121 2.24574 5.30309 2.04545 5.52326 1.90199C5.74485 1.7571 6.00337 1.68466 6.29883 1.68466C6.46928 1.68466 6.63761 1.71307 6.8038 1.76989C6.96999 1.8267 7.12127 1.91903 7.25764 2.04688C7.394 2.1733 7.50266 2.34091 7.58363 2.54972C7.6646 2.75852 7.70508 3.01562 7.70508 3.32102V3.53409H5.18235V3.09943H7.19371C7.19371 2.91477 7.15678 2.75 7.08292 2.60511C7.01048 2.46023 6.90678 2.34588 6.77184 2.26207C6.63832 2.17827 6.48065 2.13636 6.29883 2.13636C6.09854 2.13636 5.92525 2.18608 5.77894 2.28551C5.63406 2.38352 5.52255 2.51136 5.44442 2.66903C5.3663 2.8267 5.32724 2.99574 5.32724 3.17614V3.46591C5.32724 3.71307 5.36985 3.92259 5.45508 4.09446C5.54173 4.26491 5.66175 4.39489 5.81516 4.48438C5.96857 4.57244 6.14684 4.61648 6.34996 4.61648C6.48207 4.61648 6.60139 4.59801 6.70792 4.56108C6.81587 4.52273 6.90891 4.46591 6.98704 4.39062C7.06516 4.31392 7.12553 4.21875 7.16815 4.10511L7.65394 4.24148C7.60281 4.40625 7.51687 4.55114 7.39613 4.67614C7.27539 4.79972 7.12624 4.89631 6.94869 4.96591C6.77113 5.03409 6.57156 5.06818 6.34996 5.06818ZM9.21147 5L8.21431 1.72727H8.74272L9.45011 4.23295H9.4842L10.1831 1.72727H10.72L11.4103 4.22443H11.4444L12.1518 1.72727H12.6802L11.6831 5H11.1887L10.4728 2.4858H10.4217L9.70579 5H9.21147Z" fill="black"/>
</svg>
