<svg width="24" height="24" viewBox="0 0 24 24" fill="none" xmlns="http://www.w3.org/2000/svg">
<path d="M17 6L21 6" stroke="black" stroke-width="1.5"/>
<path d="M17 18L21 18" stroke="black" stroke-width="1.5"/>
<path d="M19 6V18" stroke="black" stroke-width="1.5"/>
<path d="M13.6817 15.1351C13.5197 15.1351 13.3517 15.1231 13.1777 15.0991C13.0097 15.0811 12.8477 15.0541 12.6917 15.0181C12.5417 14.9881 12.4037 14.9551 12.2777 14.9191C12.1517 14.8771 12.0557 14.8381 11.9897 14.8021L12.2057 13.8751C12.3317 13.9351 12.5147 14.0041 12.7547 14.0821C12.9947 14.1541 13.2917 14.1901 13.6457 14.1901C14.1197 14.1901 14.4617 14.1001 14.6717 13.9201C14.8817 13.7341 14.9867 13.4881 14.9867 13.1821C14.9867 12.9841 14.9447 12.8191 14.8607 12.6871C14.7827 12.5551 14.6717 12.4501 14.5277 12.3721C14.3897 12.2881 14.2277 12.2311 14.0417 12.2011C13.8617 12.1651 13.6697 12.1471 13.4657 12.1471H13.0967V11.2651H13.5467C13.6847 11.2651 13.8227 11.2531 13.9607 11.2291C14.1047 11.1991 14.2337 11.1511 14.3477 11.0851C14.4617 11.0131 14.5547 10.9201 14.6267 10.8061C14.6987 10.6921 14.7347 10.5451 14.7347 10.3651C14.7347 10.2211 14.7077 10.0981 14.6537 9.99614C14.5997 9.89414 14.5277 9.81014 14.4377 9.74414C14.3537 9.67814 14.2547 9.63014 14.1407 9.60014C14.0267 9.57014 13.9067 9.55514 13.7807 9.55514C13.5107 9.55514 13.2707 9.59714 13.0607 9.68114C12.8507 9.75914 12.6647 9.84914 12.5027 9.95114L12.1067 9.14114C12.1907 9.08714 12.2927 9.03014 12.4127 8.97014C12.5327 8.91014 12.6647 8.85314 12.8087 8.79914C12.9587 8.74514 13.1177 8.70314 13.2857 8.67314C13.4537 8.63714 13.6307 8.61914 13.8167 8.61914C14.1647 8.61914 14.4647 8.66114 14.7167 8.74514C14.9687 8.82914 15.1757 8.94914 15.3377 9.10514C15.5057 9.25514 15.6287 9.43514 15.7067 9.64514C15.7907 9.84914 15.8327 10.0741 15.8327 10.3201C15.8327 10.6081 15.7517 10.8661 15.5897 11.0941C15.4337 11.3221 15.2297 11.4961 14.9777 11.6161C15.3017 11.7301 15.5687 11.9191 15.7787 12.1831C15.9947 12.4471 16.1027 12.7861 16.1027 13.2001C16.1027 13.4761 16.0547 13.7341 15.9587 13.9741C15.8627 14.2081 15.7157 14.4121 15.5177 14.5861C15.3197 14.7541 15.0677 14.8891 14.7617 14.9911C14.4617 15.0871 14.1017 15.1351 13.6817 15.1351Z" fill="black"/>
<path d="M10.7717 10.3831C10.7717 10.5991 10.7267 10.8121 10.6367 11.0221C10.5467 11.2261 10.4297 11.4271 10.2857 11.6251C10.1477 11.8171 9.98866 12.0061 9.80866 12.1921C9.62866 12.3721 9.44866 12.5491 9.26866 12.7231C9.17266 12.8131 9.06466 12.9211 8.94466 13.0471C8.82466 13.1731 8.71066 13.2991 8.60266 13.4251C8.49466 13.5511 8.40166 13.6741 8.32366 13.7941C8.24566 13.9081 8.20366 14.0041 8.19766 14.0821H10.9697V15.0001H7.00066C6.99466 14.9521 6.99166 14.8951 6.99166 14.8291C6.99166 14.7571 6.99166 14.7031 6.99166 14.6671C6.99166 14.3791 7.03666 14.1151 7.12666 13.8751C7.22266 13.6291 7.34566 13.4011 7.49566 13.1911C7.64566 12.9811 7.81366 12.7831 7.99966 12.5971C8.18566 12.4111 8.37166 12.2281 8.55766 12.0481C8.70166 11.9101 8.83966 11.7751 8.97166 11.6431C9.10366 11.5111 9.21766 11.3821 9.31366 11.2561C9.41566 11.1241 9.49666 10.9921 9.55666 10.8601C9.61666 10.7221 9.64666 10.5811 9.64666 10.4371C9.64666 10.1251 9.55666 9.90314 9.37666 9.77114C9.19666 9.63914 8.97766 9.57314 8.71966 9.57314C8.55166 9.57314 8.39566 9.59714 8.25166 9.64514C8.10766 9.69314 7.97866 9.75014 7.86466 9.81614C7.75666 9.88214 7.66066 9.95114 7.57666 10.0231C7.49266 10.0891 7.42966 10.1431 7.38766 10.1851L6.84766 9.42014C7.09966 9.18014 7.39366 8.98814 7.72966 8.84414C8.07166 8.69414 8.43766 8.61914 8.82766 8.61914C9.49366 8.61914 9.98266 8.77814 10.2947 9.09614C10.6127 9.40814 10.7717 9.83714 10.7717 10.3831Z" fill="black"/>
<path d="M2.13721 10.0587C2.48521 9.9207 2.83321 9.7437 3.18121 9.5277C3.53521 9.3117 3.84721 9.0567 4.11721 8.7627H4.88221V14.9997H3.79321V10.2207C3.63121 10.3467 3.42721 10.4697 3.18121 10.5897C2.93521 10.7097 2.69821 10.8087 2.47021 10.8867L2.13721 10.0587Z" fill="black"/>
</svg>
