<svg width="24" height="24" viewBox="0 0 24 24" fill="none" xmlns="http://www.w3.org/2000/svg">
<path d="M17 6L21 6" stroke="black"/>
<path d="M17 18L21 18" stroke="black"/>
<path d="M19 6V18" stroke="black"/>
<path d="M13.6813 15.1351C13.5193 15.1351 13.3513 15.1231 13.1773 15.0991C13.0093 15.0811 12.8473 15.0541 12.6913 15.0181C12.5413 14.9881 12.4033 14.9551 12.2773 14.9191C12.1513 14.8771 12.0553 14.8381 11.9893 14.8021L12.2053 13.8751C12.3313 13.9351 12.5143 14.0041 12.7543 14.0821C12.9943 14.1541 13.2913 14.1901 13.6453 14.1901C14.1193 14.1901 14.4613 14.1001 14.6713 13.9201C14.8813 13.7341 14.9863 13.4881 14.9863 13.1821C14.9863 12.9841 14.9443 12.8191 14.8603 12.6871C14.7823 12.5551 14.6713 12.4501 14.5273 12.3721C14.3893 12.2881 14.2273 12.2311 14.0413 12.2011C13.8613 12.1651 13.6693 12.1471 13.4653 12.1471H13.0963V11.2651H13.5463C13.6843 11.2651 13.8223 11.2531 13.9603 11.2291C14.1043 11.1991 14.2333 11.1511 14.3473 11.0851C14.4613 11.0131 14.5543 10.9201 14.6263 10.8061C14.6983 10.6921 14.7343 10.5451 14.7343 10.3651C14.7343 10.2211 14.7073 10.0981 14.6533 9.99614C14.5993 9.89414 14.5273 9.81014 14.4373 9.74414C14.3533 9.67814 14.2543 9.63014 14.1403 9.60014C14.0263 9.57014 13.9063 9.55514 13.7803 9.55514C13.5103 9.55514 13.2703 9.59714 13.0603 9.68114C12.8503 9.75914 12.6643 9.84914 12.5023 9.95114L12.1063 9.14114C12.1903 9.08714 12.2923 9.03014 12.4123 8.97014C12.5323 8.91014 12.6643 8.85314 12.8083 8.79914C12.9583 8.74514 13.1173 8.70314 13.2853 8.67314C13.4533 8.63714 13.6303 8.61914 13.8163 8.61914C14.1643 8.61914 14.4643 8.66114 14.7163 8.74514C14.9683 8.82914 15.1753 8.94914 15.3373 9.10514C15.5053 9.25514 15.6283 9.43514 15.7063 9.64514C15.7903 9.84914 15.8323 10.0741 15.8323 10.3201C15.8323 10.6081 15.7513 10.8661 15.5893 11.0941C15.4333 11.3221 15.2293 11.4961 14.9773 11.6161C15.3013 11.7301 15.5683 11.9191 15.7783 12.1831C15.9943 12.4471 16.1023 12.7861 16.1023 13.2001C16.1023 13.4761 16.0543 13.7341 15.9583 13.9741C15.8623 14.2081 15.7153 14.4121 15.5173 14.5861C15.3193 14.7541 15.0673 14.8891 14.7613 14.9911C14.4613 15.0871 14.1013 15.1351 13.6813 15.1351Z" fill="black"/>
<path d="M10.7707 10.3831C10.7707 10.5991 10.7257 10.8121 10.6357 11.0221C10.5457 11.2261 10.4287 11.4271 10.2847 11.6251C10.1467 11.8171 9.98768 12.0061 9.80768 12.1921C9.62768 12.3721 9.44768 12.5491 9.26768 12.7231C9.17168 12.8131 9.06368 12.9211 8.94368 13.0471C8.82368 13.1731 8.70968 13.2991 8.60168 13.4251C8.49368 13.5511 8.40068 13.6741 8.32268 13.7941C8.24468 13.9081 8.20268 14.0041 8.19668 14.0821H10.9687V15.0001H6.99968C6.99368 14.9521 6.99068 14.8951 6.99068 14.8291C6.99068 14.7571 6.99068 14.7031 6.99068 14.6671C6.99068 14.3791 7.03568 14.1151 7.12568 13.8751C7.22168 13.6291 7.34468 13.4011 7.49468 13.1911C7.64468 12.9811 7.81268 12.7831 7.99868 12.5971C8.18468 12.4111 8.37068 12.2281 8.55668 12.0481C8.70068 11.9101 8.83868 11.7751 8.97068 11.6431C9.10268 11.5111 9.21668 11.3821 9.31268 11.2561C9.41468 11.1241 9.49568 10.9921 9.55568 10.8601C9.61568 10.7221 9.64568 10.5811 9.64568 10.4371C9.64568 10.1251 9.55568 9.90314 9.37568 9.77114C9.19568 9.63914 8.97668 9.57314 8.71868 9.57314C8.55068 9.57314 8.39468 9.59714 8.25068 9.64514C8.10668 9.69314 7.97768 9.75014 7.86368 9.81614C7.75568 9.88214 7.65968 9.95114 7.57568 10.0231C7.49168 10.0891 7.42868 10.1431 7.38668 10.1851L6.84668 9.42014C7.09868 9.18014 7.39268 8.98814 7.72868 8.84414C8.07068 8.69414 8.43668 8.61914 8.82668 8.61914C9.49268 8.61914 9.98168 8.77814 10.2937 9.09614C10.6117 9.40814 10.7707 9.83714 10.7707 10.3831Z" fill="black"/>
<path d="M2.13672 10.0592C2.48472 9.92118 2.83272 9.74418 3.18072 9.52818C3.53472 9.31218 3.84672 9.05718 4.11672 8.76318H4.88172V15.0002H3.79272V10.2212C3.63072 10.3472 3.42672 10.4702 3.18072 10.5902C2.93472 10.7102 2.69772 10.8092 2.46972 10.8872L2.13672 10.0592Z" fill="black"/>
</svg>
