<svg width="48" height="48" viewBox="0 0 48 48" fill="none" xmlns="http://www.w3.org/2000/svg">
<path d="M29.0891 30.2703C28.7651 30.2703 28.4291 30.2463 28.0811 30.1983C27.7451 30.1623 27.4211 30.1083 27.1091 30.0363C26.8091 29.9763 26.5331 29.9103 26.2811 29.8383C26.0291 29.7543 25.8371 29.6763 25.7051 29.6043L26.1371 27.7503C26.3891 27.8703 26.7551 28.0083 27.2351 28.1643C27.7151 28.3083 28.3091 28.3803 29.0171 28.3803C29.9651 28.3803 30.6491 28.2003 31.0691 27.8403C31.4891 27.4683 31.6991 26.9763 31.6991 26.3643C31.6991 25.9683 31.6151 25.6383 31.4471 25.3743C31.2911 25.1103 31.0691 24.9003 30.7811 24.7443C30.5051 24.5763 30.1811 24.4623 29.8091 24.4023C29.4491 24.3303 29.0651 24.2943 28.6571 24.2943H27.9191V22.5303H28.8191C29.0951 22.5303 29.3711 22.5063 29.6471 22.4583C29.9351 22.3983 30.1931 22.3023 30.4211 22.1703C30.6491 22.0263 30.8351 21.8403 30.9791 21.6123C31.1231 21.3843 31.1951 21.0903 31.1951 20.7303C31.1951 20.4423 31.1411 20.1963 31.0331 19.9923C30.9251 19.7883 30.7811 19.6203 30.6011 19.4883C30.4331 19.3563 30.2351 19.2603 30.0071 19.2003C29.7791 19.1403 29.5391 19.1103 29.2871 19.1103C28.7471 19.1103 28.2671 19.1943 27.8471 19.3623C27.4271 19.5183 27.0551 19.6983 26.7311 19.9023L25.9391 18.2823C26.1071 18.1743 26.3111 18.0603 26.5511 17.9403C26.7911 17.8203 27.0551 17.7063 27.3431 17.5983C27.6431 17.4903 27.9611 17.4063 28.2971 17.3463C28.6331 17.2743 28.9871 17.2383 29.3591 17.2383C30.0551 17.2383 30.6551 17.3223 31.1591 17.4903C31.6631 17.6583 32.0771 17.8983 32.4011 18.2103C32.7371 18.5103 32.9831 18.8703 33.1391 19.2903C33.3071 19.6983 33.3911 20.1483 33.3911 20.6403C33.3911 21.2163 33.2291 21.7323 32.9051 22.1883C32.5931 22.6443 32.1851 22.9923 31.6811 23.2323C32.3291 23.4603 32.8631 23.8383 33.2831 24.3663C33.7151 24.8943 33.9311 25.5723 33.9311 26.4003C33.9311 26.9523 33.8351 27.4683 33.6431 27.9483C33.4511 28.4163 33.1571 28.8243 32.7611 29.1723C32.3651 29.5083 31.8611 29.7783 31.2491 29.9823C30.6491 30.1743 29.9291 30.2703 29.0891 30.2703Z" fill="#B480DE"/>
<path d="M23.2679 20.7663C23.2679 21.1983 23.1779 21.6243 22.9979 22.0443C22.8179 22.4523 22.5839 22.8543 22.2959 23.2503C22.0199 23.6343 21.7019 24.0123 21.3419 24.3843C20.9819 24.7443 20.6219 25.0983 20.2619 25.4463C20.0699 25.6263 19.8539 25.8423 19.6139 26.0943C19.3739 26.3463 19.1459 26.5983 18.9299 26.8503C18.7139 27.1023 18.5279 27.3483 18.3719 27.5883C18.2159 27.8163 18.1319 28.0083 18.1199 28.1643H23.6639V30.0003H15.7259C15.7139 29.9043 15.7079 29.7903 15.7079 29.6583C15.7079 29.5143 15.7079 29.4063 15.7079 29.3343C15.7079 28.7583 15.7979 28.2303 15.9779 27.7503C16.1699 27.2583 16.4159 26.8023 16.7159 26.3823C17.0159 25.9623 17.3519 25.5663 17.7239 25.1943C18.0959 24.8223 18.4679 24.4563 18.8399 24.0963C19.1279 23.8203 19.4039 23.5503 19.6679 23.2863C19.9319 23.0223 20.1599 22.7643 20.3519 22.5123C20.5559 22.2483 20.7179 21.9843 20.8379 21.7203C20.9579 21.4443 21.0179 21.1623 21.0179 20.8743C21.0179 20.2503 20.8379 19.8063 20.4779 19.5423C20.1179 19.2783 19.6799 19.1463 19.1639 19.1463C18.8279 19.1463 18.5159 19.1943 18.2279 19.2903C17.9399 19.3863 17.6819 19.5003 17.4539 19.6323C17.2379 19.7643 17.0459 19.9023 16.8779 20.0463C16.7099 20.1783 16.5839 20.2863 16.4999 20.3703L15.4199 18.8403C15.9239 18.3603 16.5119 17.9763 17.1839 17.6883C17.8679 17.3883 18.5999 17.2383 19.3799 17.2383C20.7119 17.2383 21.6899 17.5563 22.3139 18.1923C22.9499 18.8163 23.2679 19.6743 23.2679 20.7663Z" fill="#B480DE"/>
<path d="M6 20.1174C6.696 19.8414 7.392 19.4874 8.088 19.0554C8.796 18.6234 9.42 18.1134 9.96 17.5254H11.49V29.9994H9.312V20.4414C8.988 20.6934 8.58 20.9394 8.088 21.1794C7.596 21.4194 7.122 21.6174 6.666 21.7734L6 20.1174Z" fill="#B480DE"/>
<path fill-rule="evenodd" clip-rule="evenodd" d="M43 13L35 13L35 10L43 10L43 13Z" fill="#B480DE"/>
<path fill-rule="evenodd" clip-rule="evenodd" d="M43 37L35 37L35 34L43 34L43 37Z" fill="#B480DE"/>
<path fill-rule="evenodd" clip-rule="evenodd" d="M37.5 35.5V11.5H40.5V35.5H37.5Z" fill="#B480DE"/>
</svg>
