<svg width="48" height="48" viewBox="0 0 48 48" fill="none" xmlns="http://www.w3.org/2000/svg">
<path fill-rule="evenodd" clip-rule="evenodd" d="M41.7256 13L33.7256 13L33.7256 11L41.7256 11L41.7256 13Z" fill="#B480DE"/>
<path fill-rule="evenodd" clip-rule="evenodd" d="M41.7256 37L33.7256 37L33.7256 35L41.7256 35L41.7256 37Z" fill="#B480DE"/>
<path fill-rule="evenodd" clip-rule="evenodd" d="M36.7256 36V12H38.7256V36H36.7256Z" fill="#B480DE"/>
<path d="M27.0891 30.2703C26.7651 30.2703 26.4291 30.2463 26.0811 30.1983C25.7451 30.1623 25.4211 30.1083 25.1091 30.0363C24.8091 29.9763 24.5331 29.9103 24.2811 29.8383C24.0291 29.7543 23.8371 29.6763 23.7051 29.6043L24.1371 27.7503C24.3891 27.8703 24.7551 28.0083 25.2351 28.1643C25.7151 28.3083 26.3091 28.3803 27.0171 28.3803C27.9651 28.3803 28.6491 28.2003 29.0691 27.8403C29.4891 27.4683 29.6991 26.9763 29.6991 26.3643C29.6991 25.9683 29.6151 25.6383 29.4471 25.3743C29.2911 25.1103 29.0691 24.9003 28.7811 24.7443C28.5051 24.5763 28.1811 24.4623 27.8091 24.4023C27.4491 24.3303 27.0651 24.2943 26.6571 24.2943H25.9191V22.5303H26.8191C27.0951 22.5303 27.3711 22.5063 27.6471 22.4583C27.9351 22.3983 28.1931 22.3023 28.4211 22.1703C28.6491 22.0263 28.8351 21.8403 28.9791 21.6123C29.1231 21.3843 29.1951 21.0903 29.1951 20.7303C29.1951 20.4423 29.1411 20.1963 29.0331 19.9923C28.9251 19.7883 28.7811 19.6203 28.6011 19.4883C28.4331 19.3563 28.2351 19.2603 28.0071 19.2003C27.7791 19.1403 27.5391 19.1103 27.2871 19.1103C26.7471 19.1103 26.2671 19.1943 25.8471 19.3623C25.4271 19.5183 25.0551 19.6983 24.7311 19.9023L23.9391 18.2823C24.1071 18.1743 24.3111 18.0603 24.5511 17.9403C24.7911 17.8203 25.0551 17.7063 25.3431 17.5983C25.6431 17.4903 25.9611 17.4063 26.2971 17.3463C26.6331 17.2743 26.9871 17.2383 27.3591 17.2383C28.0551 17.2383 28.6551 17.3223 29.1591 17.4903C29.6631 17.6583 30.0771 17.8983 30.4011 18.2103C30.7371 18.5103 30.9831 18.8703 31.1391 19.2903C31.3071 19.6983 31.3911 20.1483 31.3911 20.6403C31.3911 21.2163 31.2291 21.7323 30.9051 22.1883C30.5931 22.6443 30.1851 22.9923 29.6811 23.2323C30.3291 23.4603 30.8631 23.8383 31.2831 24.3663C31.7151 24.8943 31.9311 25.5723 31.9311 26.4003C31.9311 26.9523 31.8351 27.4683 31.6431 27.9483C31.4511 28.4163 31.1571 28.8243 30.7611 29.1723C30.3651 29.5083 29.8611 29.7783 29.2491 29.9823C28.6491 30.1743 27.9291 30.2703 27.0891 30.2703Z" fill="#B480DE"/>
<path d="M21.2679 20.7663C21.2679 21.1983 21.1779 21.6243 20.9979 22.0443C20.8179 22.4523 20.5839 22.8543 20.2959 23.2503C20.0199 23.6343 19.7019 24.0123 19.3419 24.3843C18.9819 24.7443 18.6219 25.0983 18.2619 25.4463C18.0699 25.6263 17.8539 25.8423 17.6139 26.0943C17.3739 26.3463 17.1459 26.5983 16.9299 26.8503C16.7139 27.1023 16.5279 27.3483 16.3719 27.5883C16.2159 27.8163 16.1319 28.0083 16.1199 28.1643H21.6639V30.0003H13.7259C13.7139 29.9043 13.7079 29.7903 13.7079 29.6583C13.7079 29.5143 13.7079 29.4063 13.7079 29.3343C13.7079 28.7583 13.7979 28.2303 13.9779 27.7503C14.1699 27.2583 14.4159 26.8023 14.7159 26.3823C15.0159 25.9623 15.3519 25.5663 15.7239 25.1943C16.0959 24.8223 16.4679 24.4563 16.8399 24.0963C17.1279 23.8203 17.4039 23.5503 17.6679 23.2863C17.9319 23.0223 18.1599 22.7643 18.3519 22.5123C18.5559 22.2483 18.7179 21.9843 18.8379 21.7203C18.9579 21.4443 19.0179 21.1623 19.0179 20.8743C19.0179 20.2503 18.8379 19.8063 18.4779 19.5423C18.1179 19.2783 17.6799 19.1463 17.1639 19.1463C16.8279 19.1463 16.5159 19.1943 16.2279 19.2903C15.9399 19.3863 15.6819 19.5003 15.4539 19.6323C15.2379 19.7643 15.0459 19.9023 14.8779 20.0463C14.7099 20.1783 14.5839 20.2863 14.4999 20.3703L13.4199 18.8403C13.9239 18.3603 14.5119 17.9763 15.1839 17.6883C15.8679 17.3883 16.5999 17.2383 17.3799 17.2383C18.7119 17.2383 19.6899 17.5563 20.3139 18.1923C20.9499 18.8163 21.2679 19.6743 21.2679 20.7663Z" fill="#B480DE"/>
<path d="M4 20.1174C4.696 19.8414 5.392 19.4874 6.088 19.0554C6.796 18.6234 7.42 18.1134 7.96 17.5254H9.49V29.9994H7.312V20.4414C6.988 20.6934 6.58 20.9394 6.088 21.1794C5.596 21.4194 5.122 21.6174 4.666 21.7734L4 20.1174Z" fill="#B480DE"/>
</svg>
