<svg width="48" height="48" viewBox="0 0 48 48" fill="none" xmlns="http://www.w3.org/2000/svg">
<path fill-rule="evenodd" clip-rule="evenodd" d="M4.5 10C4.5 6.96243 6.96243 4.5 10 4.5H38C41.0376 4.5 43.5 6.96243 43.5 10V38C43.5 41.0376 41.0376 43.5 38 43.5H10C6.96243 43.5 4.5 41.0376 4.5 38V10ZM10 7.5C8.61929 7.5 7.5 8.61929 7.5 10V38C7.5 39.3807 8.61929 40.5 10 40.5H38C39.3807 40.5 40.5 39.3807 40.5 38V10C40.5 8.61929 39.3807 7.5 38 7.5H10Z" fill="#B480DE"/>
<path d="M10 10.4C10 10.1791 10.1791 10 10.4 10H37.6C37.8209 10 38 10.1791 38 10.4V17.6C38 17.8209 37.8209 18 37.6 18H10.4C10.1791 18 10 17.8209 10 17.6V10.4Z" fill="white"/>
<path fill-rule="evenodd" clip-rule="evenodd" d="M9 10.4C9 9.6268 9.6268 9 10.4 9H37.6C38.3732 9 39 9.6268 39 10.4V17.6C39 18.3732 38.3732 19 37.6 19H10.4C9.6268 19 9 18.3732 9 17.6V10.4ZM11 11V17H37V11H11Z" fill="#B480DE"/>
<path fill-rule="evenodd" clip-rule="evenodd" d="M9 22.5C9 21.1082 9.41787 21 9.93333 21H28.0667C28.5821 21 29 21.1082 29 22.5V37.5C29 38.8918 28.5821 39 28.0667 39H9.93333C9.41787 39 9 38.8918 9 37.5V22.5ZM11 23V37H27V23H11Z" fill="#B480DE"/>
<path d="M32 22.4C32 22.1791 32.1791 22 32.4 22H37.6C37.8209 22 38 22.1791 38 22.4V37.6C38 37.8209 37.8209 38 37.6 38H32.4C32.1791 38 32 37.8209 32 37.6V22.4Z" fill="white"/>
<path fill-rule="evenodd" clip-rule="evenodd" d="M31 22.4C31 21.6268 31.6268 21 32.4 21H37.6C38.3732 21 39 21.6268 39 22.4V37.6C39 38.3732 38.3732 39 37.6 39H32.4C31.6268 39 31 38.3732 31 37.6V22.4ZM33 23V37H37V23H33Z" fill="#B480DE"/>
</svg>
