<svg width="24" height="24" viewBox="0 0 24 24" fill="none" xmlns="http://www.w3.org/2000/svg">
<path d="M17 6L21 6" stroke="black" stroke-width="1.5"/>
<path d="M17 18L21 18" stroke="black" stroke-width="1.5"/>
<path d="M19 6V18" stroke="black" stroke-width="1.5"/>
<path d="M4.74077 11.2307C4.91477 11.1167 5.10377 10.9967 5.30777 10.8707C5.51777 10.7447 5.72177 10.6487 5.91977 10.5827L6.05477 10.5377L6.36077 11.4737L6.21677 11.5187C6.02477 11.5787 5.80577 11.6207 5.55977 11.6447C5.31977 11.6627 5.09477 11.6747 4.88477 11.6807C5.05277 11.8127 5.22677 11.9567 5.40677 12.1127C5.59277 12.2627 5.74877 12.4247 5.87477 12.5987L5.96477 12.7247L5.16377 13.2917L5.07377 13.1747C4.95377 13.0007 4.84877 12.8027 4.75877 12.5807C4.66877 12.3587 4.58177 12.1517 4.49777 11.9597C4.41977 12.1517 4.33277 12.3587 4.23677 12.5807C4.14677 12.8027 4.04177 13.0007 3.92177 13.1747L3.84077 13.2917L3.03077 12.7247L3.12977 12.5987C3.24977 12.4247 3.39977 12.2627 3.57977 12.1127C3.76577 11.9567 3.94577 11.8127 4.11977 11.6807C3.90977 11.6747 3.68177 11.6657 3.43577 11.6537C3.19577 11.6357 2.97677 11.5907 2.77877 11.5187L2.63477 11.4737L2.94077 10.5377L3.07577 10.5827C3.27977 10.6487 3.48377 10.7447 3.68777 10.8707C3.89177 10.9967 4.08077 11.1167 4.25477 11.2307C4.20077 11.0207 4.14377 10.8017 4.08377 10.5737C4.02977 10.3457 4.00277 10.1267 4.00277 9.91667V9.76367H4.99277V9.91667C4.99277 10.1267 4.96277 10.3457 4.90277 10.5737C4.84877 10.8017 4.79477 11.0207 4.74077 11.2307Z" fill="black"/>
<path d="M9.74077 11.2307C9.91477 11.1167 10.1038 10.9967 10.3078 10.8707C10.5178 10.7447 10.7218 10.6487 10.9198 10.5827L11.0548 10.5377L11.3608 11.4737L11.2168 11.5187C11.0248 11.5787 10.8058 11.6207 10.5598 11.6447C10.3198 11.6627 10.0948 11.6747 9.88477 11.6807C10.0528 11.8127 10.2268 11.9567 10.4068 12.1127C10.5928 12.2627 10.7488 12.4247 10.8748 12.5987L10.9648 12.7247L10.1638 13.2917L10.0738 13.1747C9.95377 13.0007 9.84877 12.8027 9.75877 12.5807C9.66877 12.3587 9.58177 12.1517 9.49777 11.9597C9.41977 12.1517 9.33277 12.3587 9.23677 12.5807C9.14677 12.8027 9.04177 13.0007 8.92177 13.1747L8.84077 13.2917L8.03077 12.7247L8.12977 12.5987C8.24977 12.4247 8.39977 12.2627 8.57977 12.1127C8.76577 11.9567 8.94577 11.8127 9.11977 11.6807C8.90977 11.6747 8.68177 11.6657 8.43577 11.6537C8.19577 11.6357 7.97677 11.5907 7.77877 11.5187L7.63477 11.4737L7.94077 10.5377L8.07577 10.5827C8.27977 10.6487 8.48377 10.7447 8.68777 10.8707C8.89177 10.9967 9.08077 11.1167 9.25477 11.2307C9.20077 11.0207 9.14377 10.8017 9.08377 10.5737C9.02977 10.3457 9.00277 10.1267 9.00277 9.91667V9.76367H9.99277V9.91667C9.99277 10.1267 9.96277 10.3457 9.90277 10.5737C9.84877 10.8017 9.79477 11.0207 9.74077 11.2307Z" fill="black"/>
<path d="M14.7408 11.2307C14.9148 11.1167 15.1038 10.9967 15.3078 10.8707C15.5178 10.7447 15.7218 10.6487 15.9198 10.5827L16.0548 10.5377L16.3608 11.4737L16.2168 11.5187C16.0248 11.5787 15.8058 11.6207 15.5598 11.6447C15.3198 11.6627 15.0948 11.6747 14.8848 11.6807C15.0528 11.8127 15.2268 11.9567 15.4068 12.1127C15.5928 12.2627 15.7488 12.4247 15.8748 12.5987L15.9648 12.7247L15.1638 13.2917L15.0738 13.1747C14.9538 13.0007 14.8488 12.8027 14.7588 12.5807C14.6688 12.3587 14.5818 12.1517 14.4978 11.9597C14.4198 12.1517 14.3328 12.3587 14.2368 12.5807C14.1468 12.8027 14.0418 13.0007 13.9218 13.1747L13.8408 13.2917L13.0308 12.7247L13.1298 12.5987C13.2498 12.4247 13.3998 12.2627 13.5798 12.1127C13.7658 11.9567 13.9458 11.8127 14.1198 11.6807C13.9098 11.6747 13.6818 11.6657 13.4358 11.6537C13.1958 11.6357 12.9768 11.5907 12.7788 11.5187L12.6348 11.4737L12.9408 10.5377L13.0758 10.5827C13.2798 10.6487 13.4838 10.7447 13.6878 10.8707C13.8918 10.9967 14.0808 11.1167 14.2548 11.2307C14.2008 11.0207 14.1438 10.8017 14.0838 10.5737C14.0298 10.3457 14.0028 10.1267 14.0028 9.91667V9.76367H14.9928V9.91667C14.9928 10.1267 14.9628 10.3457 14.9028 10.5737C14.8488 10.8017 14.7948 11.0207 14.7408 11.2307Z" fill="black"/>
</svg>
