<svg width="48" height="48" viewBox="0 0 48 48" fill="none" xmlns="http://www.w3.org/2000/svg">
<path fill-rule="evenodd" clip-rule="evenodd" d="M42 13.5L34 13.5L34 10.5L42 10.5L42 13.5Z" fill="#B480DE"/>
<path fill-rule="evenodd" clip-rule="evenodd" d="M42 37.5L34 37.5L34 34.5L42 34.5L42 37.5Z" fill="#B480DE"/>
<path fill-rule="evenodd" clip-rule="evenodd" d="M36.5 36V12H39.5V36H36.5Z" fill="#B480DE"/>
<path d="M9.48153 22.4604C9.82953 22.2324 10.2075 21.9924 10.6155 21.7404C11.0355 21.4884 11.4435 21.2964 11.8395 21.1644L12.1095 21.0744L12.7215 22.9464L12.4335 23.0364C12.0495 23.1564 11.6115 23.2404 11.1195 23.2884C10.6395 23.3244 10.1895 23.3484 9.76953 23.3604C10.1055 23.6244 10.4535 23.9124 10.8135 24.2244C11.1855 24.5244 11.4975 24.8484 11.7495 25.1964L11.9295 25.4484L10.3275 26.5824L10.1475 26.3484C9.90753 26.0004 9.69753 25.6044 9.51753 25.1604C9.33753 24.7164 9.16353 24.3024 8.99553 23.9184C8.83953 24.3024 8.66553 24.7164 8.47353 25.1604C8.29353 25.6044 8.08353 26.0004 7.84353 26.3484L7.68153 26.5824L6.06153 25.4484L6.25953 25.1964C6.49953 24.8484 6.79953 24.5244 7.15953 24.2244C7.53153 23.9124 7.89153 23.6244 8.23953 23.3604C7.81953 23.3484 7.36353 23.3304 6.87153 23.3064C6.39153 23.2704 5.95353 23.1804 5.55753 23.0364L5.26953 22.9464L5.88153 21.0744L6.15153 21.1644C6.55953 21.2964 6.96753 21.4884 7.37553 21.7404C7.78353 21.9924 8.16153 22.2324 8.50953 22.4604C8.40153 22.0404 8.28753 21.6024 8.16753 21.1464C8.05953 20.6904 8.00553 20.2524 8.00553 19.8324V19.5264H9.98553V19.8324C9.98553 20.2524 9.92553 20.6904 9.80553 21.1464C9.69753 21.6024 9.58953 22.0404 9.48153 22.4604Z" fill="#B480DE"/>
<path d="M19.4815 22.4604C19.8295 22.2324 20.2075 21.9924 20.6155 21.7404C21.0355 21.4884 21.4435 21.2964 21.8395 21.1644L22.1095 21.0744L22.7215 22.9464L22.4335 23.0364C22.0495 23.1564 21.6115 23.2404 21.1195 23.2884C20.6395 23.3244 20.1895 23.3484 19.7695 23.3604C20.1055 23.6244 20.4535 23.9124 20.8135 24.2244C21.1855 24.5244 21.4975 24.8484 21.7495 25.1964L21.9295 25.4484L20.3275 26.5824L20.1475 26.3484C19.9075 26.0004 19.6975 25.6044 19.5175 25.1604C19.3375 24.7164 19.1635 24.3024 18.9955 23.9184C18.8395 24.3024 18.6655 24.7164 18.4735 25.1604C18.2935 25.6044 18.0835 26.0004 17.8435 26.3484L17.6815 26.5824L16.0615 25.4484L16.2595 25.1964C16.4995 24.8484 16.7995 24.5244 17.1595 24.2244C17.5315 23.9124 17.8915 23.6244 18.2395 23.3604C17.8195 23.3484 17.3635 23.3304 16.8715 23.3064C16.3915 23.2704 15.9535 23.1804 15.5575 23.0364L15.2695 22.9464L15.8815 21.0744L16.1515 21.1644C16.5595 21.2964 16.9675 21.4884 17.3755 21.7404C17.7835 21.9924 18.1615 22.2324 18.5095 22.4604C18.4015 22.0404 18.2875 21.6024 18.1675 21.1464C18.0595 20.6904 18.0055 20.2524 18.0055 19.8324V19.5264H19.9855V19.8324C19.9855 20.2524 19.9255 20.6904 19.8055 21.1464C19.6975 21.6024 19.5895 22.0404 19.4815 22.4604Z" fill="#B480DE"/>
<path d="M29.4815 22.4604C29.8295 22.2324 30.2075 21.9924 30.6155 21.7404C31.0355 21.4884 31.4435 21.2964 31.8395 21.1644L32.1095 21.0744L32.7215 22.9464L32.4335 23.0364C32.0495 23.1564 31.6115 23.2404 31.1195 23.2884C30.6395 23.3244 30.1895 23.3484 29.7695 23.3604C30.1055 23.6244 30.4535 23.9124 30.8135 24.2244C31.1855 24.5244 31.4975 24.8484 31.7495 25.1964L31.9295 25.4484L30.3275 26.5824L30.1475 26.3484C29.9075 26.0004 29.6975 25.6044 29.5175 25.1604C29.3375 24.7164 29.1635 24.3024 28.9955 23.9184C28.8395 24.3024 28.6655 24.7164 28.4735 25.1604C28.2935 25.6044 28.0835 26.0004 27.8435 26.3484L27.6815 26.5824L26.0615 25.4484L26.2595 25.1964C26.4995 24.8484 26.7995 24.5244 27.1595 24.2244C27.5315 23.9124 27.8915 23.6244 28.2395 23.3604C27.8195 23.3484 27.3635 23.3304 26.8715 23.3064C26.3915 23.2704 25.9535 23.1804 25.5575 23.0364L25.2695 22.9464L25.8815 21.0744L26.1515 21.1644C26.5595 21.2964 26.9675 21.4884 27.3755 21.7404C27.7835 21.9924 28.1615 22.2324 28.5095 22.4604C28.4015 22.0404 28.2875 21.6024 28.1675 21.1464C28.0595 20.6904 28.0055 20.2524 28.0055 19.8324V19.5264H29.9855V19.8324C29.9855 20.2524 29.9255 20.6904 29.8055 21.1464C29.6975 21.6024 29.5895 22.0404 29.4815 22.4604Z" fill="#B480DE"/>
</svg>
