<svg width="24" height="24" viewBox="0 0 24 24" fill="none" xmlns="http://www.w3.org/2000/svg">
<path d="M17 6L21 6" stroke="black"/>
<path d="M17 18L21 18" stroke="black"/>
<path d="M19 6V18" stroke="black"/>
<path d="M4.74077 11.2302C4.91477 11.1162 5.10377 10.9962 5.30777 10.8702C5.51777 10.7442 5.72177 10.6482 5.91977 10.5822L6.05477 10.5372L6.36077 11.4732L6.21677 11.5182C6.02477 11.5782 5.80577 11.6202 5.55977 11.6442C5.31977 11.6622 5.09477 11.6742 4.88477 11.6802C5.05277 11.8122 5.22677 11.9562 5.40677 12.1122C5.59277 12.2622 5.74877 12.4242 5.87477 12.5982L5.96477 12.7242L5.16377 13.2912L5.07377 13.1742C4.95377 13.0002 4.84877 12.8022 4.75877 12.5802C4.66877 12.3582 4.58177 12.1512 4.49777 11.9592C4.41977 12.1512 4.33277 12.3582 4.23677 12.5802C4.14677 12.8022 4.04177 13.0002 3.92177 13.1742L3.84077 13.2912L3.03077 12.7242L3.12977 12.5982C3.24977 12.4242 3.39977 12.2622 3.57977 12.1122C3.76577 11.9562 3.94577 11.8122 4.11977 11.6802C3.90977 11.6742 3.68177 11.6652 3.43577 11.6532C3.19577 11.6352 2.97677 11.5902 2.77877 11.5182L2.63477 11.4732L2.94077 10.5372L3.07577 10.5822C3.27977 10.6482 3.48377 10.7442 3.68777 10.8702C3.89177 10.9962 4.08077 11.1162 4.25477 11.2302C4.20077 11.0202 4.14377 10.8012 4.08377 10.5732C4.02977 10.3452 4.00277 10.1262 4.00277 9.91618V9.76318H4.99277V9.91618C4.99277 10.1262 4.96277 10.3452 4.90277 10.5732C4.84877 10.8012 4.79477 11.0202 4.74077 11.2302Z" fill="black"/>
<path d="M9.74077 11.2302C9.91477 11.1162 10.1038 10.9962 10.3078 10.8702C10.5178 10.7442 10.7218 10.6482 10.9198 10.5822L11.0548 10.5372L11.3608 11.4732L11.2168 11.5182C11.0248 11.5782 10.8058 11.6202 10.5598 11.6442C10.3198 11.6622 10.0948 11.6742 9.88477 11.6802C10.0528 11.8122 10.2268 11.9562 10.4068 12.1122C10.5928 12.2622 10.7488 12.4242 10.8748 12.5982L10.9648 12.7242L10.1638 13.2912L10.0738 13.1742C9.95377 13.0002 9.84877 12.8022 9.75877 12.5802C9.66877 12.3582 9.58177 12.1512 9.49777 11.9592C9.41977 12.1512 9.33277 12.3582 9.23677 12.5802C9.14677 12.8022 9.04177 13.0002 8.92177 13.1742L8.84077 13.2912L8.03077 12.7242L8.12977 12.5982C8.24977 12.4242 8.39977 12.2622 8.57977 12.1122C8.76577 11.9562 8.94577 11.8122 9.11977 11.6802C8.90977 11.6742 8.68177 11.6652 8.43577 11.6532C8.19577 11.6352 7.97677 11.5902 7.77877 11.5182L7.63477 11.4732L7.94077 10.5372L8.07577 10.5822C8.27977 10.6482 8.48377 10.7442 8.68777 10.8702C8.89177 10.9962 9.08077 11.1162 9.25477 11.2302C9.20077 11.0202 9.14377 10.8012 9.08377 10.5732C9.02977 10.3452 9.00277 10.1262 9.00277 9.91618V9.76318H9.99277V9.91618C9.99277 10.1262 9.96277 10.3452 9.90277 10.5732C9.84877 10.8012 9.79477 11.0202 9.74077 11.2302Z" fill="black"/>
<path d="M14.7408 11.2302C14.9148 11.1162 15.1038 10.9962 15.3078 10.8702C15.5178 10.7442 15.7218 10.6482 15.9198 10.5822L16.0548 10.5372L16.3608 11.4732L16.2168 11.5182C16.0248 11.5782 15.8058 11.6202 15.5598 11.6442C15.3198 11.6622 15.0948 11.6742 14.8848 11.6802C15.0528 11.8122 15.2268 11.9562 15.4068 12.1122C15.5928 12.2622 15.7488 12.4242 15.8748 12.5982L15.9648 12.7242L15.1638 13.2912L15.0738 13.1742C14.9538 13.0002 14.8488 12.8022 14.7588 12.5802C14.6688 12.3582 14.5818 12.1512 14.4978 11.9592C14.4198 12.1512 14.3328 12.3582 14.2368 12.5802C14.1468 12.8022 14.0418 13.0002 13.9218 13.1742L13.8408 13.2912L13.0308 12.7242L13.1298 12.5982C13.2498 12.4242 13.3998 12.2622 13.5798 12.1122C13.7658 11.9562 13.9458 11.8122 14.1198 11.6802C13.9098 11.6742 13.6818 11.6652 13.4358 11.6532C13.1958 11.6352 12.9768 11.5902 12.7788 11.5182L12.6348 11.4732L12.9408 10.5372L13.0758 10.5822C13.2798 10.6482 13.4838 10.7442 13.6878 10.8702C13.8918 10.9962 14.0808 11.1162 14.2548 11.2302C14.2008 11.0202 14.1438 10.8012 14.0838 10.5732C14.0298 10.3452 14.0028 10.1262 14.0028 9.91618V9.76318H14.9928V9.91618C14.9928 10.1262 14.9628 10.3452 14.9028 10.5732C14.8488 10.8012 14.7948 11.0202 14.7408 11.2302Z" fill="black"/>
</svg>
