<svg width="48" height="48" viewBox="0 0 48 48" fill="none" xmlns="http://www.w3.org/2000/svg">
<path fill-rule="evenodd" clip-rule="evenodd" d="M42.7305 14L34.7305 14L34.7305 12L42.7305 12L42.7305 14Z" fill="#B480DE"/>
<path fill-rule="evenodd" clip-rule="evenodd" d="M42.7305 38L34.7305 38L34.7305 36L42.7305 36L42.7305 38Z" fill="#B480DE"/>
<path fill-rule="evenodd" clip-rule="evenodd" d="M37.7305 37V13H39.7305V37H37.7305Z" fill="#B480DE"/>
<path d="M10.212 23.4594C10.56 23.2314 10.938 22.9914 11.346 22.7394C11.766 22.4874 12.174 22.2954 12.57 22.1634L12.84 22.0734L13.452 23.9454L13.164 24.0354C12.78 24.1554 12.342 24.2394 11.85 24.2874C11.37 24.3234 10.92 24.3474 10.5 24.3594C10.836 24.6234 11.184 24.9114 11.544 25.2234C11.916 25.5234 12.228 25.8474 12.48 26.1954L12.66 26.4474L11.058 27.5814L10.878 27.3474C10.638 26.9994 10.428 26.6034 10.248 26.1594C10.068 25.7154 9.894 25.3014 9.726 24.9174C9.57 25.3014 9.396 25.7154 9.204 26.1594C9.024 26.6034 8.814 26.9994 8.574 27.3474L8.412 27.5814L6.792 26.4474L6.99 26.1954C7.23 25.8474 7.53 25.5234 7.89 25.2234C8.262 24.9114 8.622 24.6234 8.97 24.3594C8.55 24.3474 8.094 24.3294 7.602 24.3054C7.122 24.2694 6.684 24.1794 6.288 24.0354L6 23.9454L6.612 22.0734L6.882 22.1634C7.29 22.2954 7.698 22.4874 8.106 22.7394C8.514 22.9914 8.892 23.2314 9.24 23.4594C9.132 23.0394 9.018 22.6014 8.898 22.1454C8.79 21.6894 8.736 21.2514 8.736 20.8314V20.5254H10.716V20.8314C10.716 21.2514 10.656 21.6894 10.536 22.1454C10.428 22.6014 10.32 23.0394 10.212 23.4594Z" fill="#B480DE"/>
<path d="M20.212 23.4594C20.56 23.2314 20.938 22.9914 21.346 22.7394C21.766 22.4874 22.174 22.2954 22.57 22.1634L22.84 22.0734L23.452 23.9454L23.164 24.0354C22.78 24.1554 22.342 24.2394 21.85 24.2874C21.37 24.3234 20.92 24.3474 20.5 24.3594C20.836 24.6234 21.184 24.9114 21.544 25.2234C21.916 25.5234 22.228 25.8474 22.48 26.1954L22.66 26.4474L21.058 27.5814L20.878 27.3474C20.638 26.9994 20.428 26.6034 20.248 26.1594C20.068 25.7154 19.894 25.3014 19.726 24.9174C19.57 25.3014 19.396 25.7154 19.204 26.1594C19.024 26.6034 18.814 26.9994 18.574 27.3474L18.412 27.5814L16.792 26.4474L16.99 26.1954C17.23 25.8474 17.53 25.5234 17.89 25.2234C18.262 24.9114 18.622 24.6234 18.97 24.3594C18.55 24.3474 18.094 24.3294 17.602 24.3054C17.122 24.2694 16.684 24.1794 16.288 24.0354L16 23.9454L16.612 22.0734L16.882 22.1634C17.29 22.2954 17.698 22.4874 18.106 22.7394C18.514 22.9914 18.892 23.2314 19.24 23.4594C19.132 23.0394 19.018 22.6014 18.898 22.1454C18.79 21.6894 18.736 21.2514 18.736 20.8314V20.5254H20.716V20.8314C20.716 21.2514 20.656 21.6894 20.536 22.1454C20.428 22.6014 20.32 23.0394 20.212 23.4594Z" fill="#B480DE"/>
<path d="M30.212 23.4594C30.56 23.2314 30.938 22.9914 31.346 22.7394C31.766 22.4874 32.174 22.2954 32.57 22.1634L32.84 22.0734L33.452 23.9454L33.164 24.0354C32.78 24.1554 32.342 24.2394 31.85 24.2874C31.37 24.3234 30.92 24.3474 30.5 24.3594C30.836 24.6234 31.184 24.9114 31.544 25.2234C31.916 25.5234 32.228 25.8474 32.48 26.1954L32.66 26.4474L31.058 27.5814L30.878 27.3474C30.638 26.9994 30.428 26.6034 30.248 26.1594C30.068 25.7154 29.894 25.3014 29.726 24.9174C29.57 25.3014 29.396 25.7154 29.204 26.1594C29.024 26.6034 28.814 26.9994 28.574 27.3474L28.412 27.5814L26.792 26.4474L26.99 26.1954C27.23 25.8474 27.53 25.5234 27.89 25.2234C28.262 24.9114 28.622 24.6234 28.97 24.3594C28.55 24.3474 28.094 24.3294 27.602 24.3054C27.122 24.2694 26.684 24.1794 26.288 24.0354L26 23.9454L26.612 22.0734L26.882 22.1634C27.29 22.2954 27.698 22.4874 28.106 22.7394C28.514 22.9914 28.892 23.2314 29.24 23.4594C29.132 23.0394 29.018 22.6014 28.898 22.1454C28.79 21.6894 28.736 21.2514 28.736 20.8314V20.5254H30.716V20.8314C30.716 21.2514 30.656 21.6894 30.536 22.1454C30.428 22.6014 30.32 23.0394 30.212 23.4594Z" fill="#B480DE"/>
</svg>
