<svg width="48" height="48" viewBox="0 0 48 48" fill="none" xmlns="http://www.w3.org/2000/svg">
<path d="M40 23.9997C41.1046 23.9997 42.0115 24.8979 41.889 25.9957C41.5706 28.8496 40.5726 31.5963 38.9665 34C36.9886 36.9601 34.1774 39.2672 30.8883 40.6296C27.5992 41.9919 23.98 42.3484 20.4884 41.6539C16.9967 40.9593 13.7894 39.245 11.2721 36.7277C8.75474 34.2103 7.04041 31.003 6.34587 27.5114C5.65134 24.0197 6.0078 20.4005 7.37018 17.1114C8.73255 13.8224 11.0397 11.0111 13.9997 9.03328C16.4035 7.42715 19.1502 6.42913 22.0041 6.11072C23.1018 5.98824 24 6.89516 24 7.99973V17.9997C24 21.3134 26.6863 23.9997 30 23.9997H40Z" fill="#DEDEDE"/>
<path fill-rule="evenodd" clip-rule="evenodd" d="M22.3715 7.67386C22.3086 7.61309 22.245 7.59313 22.1704 7.60145C19.5543 7.89333 17.0365 8.80818 14.8331 10.2805C12.1197 12.0935 10.0048 14.6705 8.756 17.6854C7.50715 20.7004 7.1804 24.018 7.81705 27.2187C8.45371 30.4194 10.0252 33.3594 12.3327 35.667C14.6403 37.9745 17.5803 39.546 20.781 40.1827C23.9817 40.8193 27.2993 40.4926 30.3143 39.2437C33.3293 37.9949 35.9062 35.88 37.7193 33.1666C39.1915 30.9632 40.1064 28.4454 40.3983 25.8293C40.4066 25.7547 40.3866 25.6911 40.3259 25.6282C40.2581 25.5581 40.1442 25.4997 40 25.4997H30C25.8579 25.4997 22.5 22.1418 22.5 17.9997V7.99971C22.5 7.85555 22.4416 7.74163 22.3715 7.67386ZM21.8378 4.61995C23.9365 4.38579 25.5 6.11771 25.5 7.99971V17.9997C25.5 20.485 27.5147 22.4997 30 22.4997H40C41.882 22.4997 43.6139 24.0632 43.3798 26.162C43.0348 29.2537 41.9536 32.2293 40.2137 34.8333C38.071 38.0401 35.0255 40.5395 31.4623 42.0154C27.8992 43.4913 23.9784 43.8774 20.1957 43.125C16.4131 42.3726 12.9385 40.5154 10.2114 37.7883C7.4843 35.0612 5.62711 31.5866 4.8747 27.804C4.12228 24.0213 4.50845 20.1005 5.98436 16.5374C7.46027 12.9742 9.95963 9.92874 13.1664 7.78606C15.7705 6.04607 18.746 4.9649 21.8378 4.61995Z" fill="#B480DE"/>
<path d="M41 19.0001C42.1046 19.0001 43.0146 18.1002 42.8574 17.0069C42.6915 15.8539 42.3821 14.7235 41.9343 13.6426C41.2307 11.944 40.1995 10.4007 38.8995 9.10063C37.5995 7.80061 36.0561 6.76938 34.3576 6.06581C33.2766 5.61805 32.1462 5.30859 30.9932 5.14274C29.8999 4.98548 29 5.89556 29 7.00013L29 17.0001C29 18.1047 29.8954 19.0001 31 19.0001H41Z" fill="#B480DE"/>
</svg>
