<svg width="24" height="24" viewBox="0 0 24 24" fill="none" xmlns="http://www.w3.org/2000/svg">
<path d="M20 12C20.5523 12 21.0057 12.4491 20.9445 12.998C20.7853 14.4249 20.2863 15.7983 19.4832 17.0001C18.4943 18.4802 17.0887 19.6337 15.4442 20.3149C13.7996 20.9961 11.99 21.1743 10.2442 20.8271C8.49836 20.4798 6.89471 19.6226 5.63604 18.364C4.37737 17.1053 3.5202 15.5016 3.17293 13.7558C2.82567 12.01 3.0039 10.2004 3.68508 8.55585C4.36627 6.91131 5.51983 5.50571 6.99987 4.51677C8.20174 3.71371 9.57507 3.2147 11.002 3.05549C11.5509 2.99425 12 3.44772 12 4V9C12 10.6569 13.3431 12 15 12H20Z" stroke="black" stroke-width="1.5"/>
<path d="M20.9672 6.82122C21.191 7.36171 21.3458 7.9269 21.4287 8.50339C21.5073 9.05005 21.0523 9.5 20.5 9.5H15.5C14.9477 9.5 14.5 9.05228 14.5 8.5L14.5 3.5C14.5 2.94772 14.95 2.49268 15.4966 2.57131C16.0731 2.65423 16.6383 2.80896 17.1788 3.03284C18.0281 3.38463 18.7997 3.90024 19.4497 4.55025C20.0998 5.20026 20.6154 5.97194 20.9672 6.82122Z" stroke="black"/>
</svg>
