<svg width="48" height="48" viewBox="0 0 48 48" fill="none" xmlns="http://www.w3.org/2000/svg">
<path d="M5.99902 9.99951C5.99902 7.79037 7.78988 5.99951 9.99902 5.99951H37.999C40.2082 5.99951 41.999 7.79037 41.999 9.99951V37.9995C41.999 40.2086 40.2082 41.9995 37.999 41.9995H9.99902C7.78988 41.9995 5.99902 40.2086 5.99902 37.9995V9.99951Z" fill="#E8E8E8"/>
<path fill-rule="evenodd" clip-rule="evenodd" d="M4.49902 9.99951C4.49902 6.96195 6.96146 4.49951 9.99902 4.49951H37.999C41.0366 4.49951 43.499 6.96195 43.499 9.99951V37.9995C43.499 41.0371 41.0366 43.4995 37.999 43.4995H9.99902C6.96146 43.4995 4.49902 41.0371 4.49902 37.9995V9.99951ZM9.99902 7.49951C8.61831 7.49951 7.49902 8.6188 7.49902 9.99951V37.9995C7.49902 39.3802 8.61831 40.4995 9.99902 40.4995H37.999C39.3797 40.4995 40.499 39.3802 40.499 37.9995V9.99951C40.499 8.6188 39.3797 7.49951 37.999 7.49951H9.99902Z" fill="#B480DE"/>
<path fill-rule="evenodd" clip-rule="evenodd" d="M41.999 14.9995H5.99902V12.9995H41.999V14.9995Z" fill="#B480DE"/>
<path fill-rule="evenodd" clip-rule="evenodd" d="M12.999 41.9995V5.99951H14.999V41.9995H12.999Z" fill="#B480DE"/>
<path fill-rule="evenodd" clip-rule="evenodd" d="M32.5544 29.8074V22.4438H34.5544V30.0559C34.5544 30.4272 34.4069 30.7833 34.1444 31.0459L31.0453 34.1449C30.7828 34.4075 30.4267 34.555 30.0554 34.555H22.7607V32.555H29.8069L32.5544 29.8074Z" fill="#B480DE"/>
<path d="M29.7928 21.7614L33.2715 18.2827C33.4277 18.1265 33.681 18.1265 33.8372 18.2827L37.316 21.7614C37.568 22.0134 37.3895 22.4443 37.0331 22.4443H30.0756C29.7192 22.4443 29.5408 22.0134 29.7928 21.7614Z" fill="#B480DE"/>
<path fill-rule="evenodd" clip-rule="evenodd" d="M33.5544 19.4141L31.5242 21.4443H35.5847L33.5544 19.4141ZM33.9783 18.9902L33.9787 18.9898L33.5544 18.5655L33.9787 18.9898C33.9785 18.9899 33.9784 18.9901 33.9783 18.9902ZM34.5444 17.5756L33.8485 18.2715L34.5444 17.5756L38.0231 21.0543L37.316 21.7614L38.0231 21.0543C38.9051 21.9363 38.2804 23.4443 37.0332 23.4443H30.0757C28.8284 23.4443 28.2038 21.9363 29.0857 21.0543L32.5645 17.5756C33.1112 17.0288 33.9976 17.0288 34.5444 17.5756Z" fill="#B480DE"/>
<path d="M22.8723 37.3171L19.3935 33.8383C19.2373 33.6821 19.2373 33.4289 19.3935 33.2727L22.8723 29.7939C23.1243 29.5419 23.5551 29.7204 23.5551 30.0767V37.0343C23.5551 37.3906 23.1243 37.5691 22.8723 37.3171Z" fill="#B480DE"/>
<path fill-rule="evenodd" clip-rule="evenodd" d="M20.5249 33.5554L22.5551 35.5857V31.5252L20.5249 33.5554ZM20.1011 33.1316L20.1006 33.1312L19.6764 33.5554L20.1006 33.1312C20.1008 33.1313 20.1009 33.1315 20.1011 33.1316ZM18.6864 32.5655L19.3823 33.2614L18.6864 32.5655L22.1652 29.0867L22.8723 29.7938L22.1652 29.0867C23.0471 28.2048 24.5551 28.8294 24.5551 30.0767V37.0342C24.5551 38.2815 23.0471 38.9061 22.1652 38.0242L18.6864 34.5454C18.1397 33.9987 18.1397 33.1122 18.6864 32.5655Z" fill="#B480DE"/>
</svg>
