<svg width="48" height="48" viewBox="0 0 48 48" fill="none" xmlns="http://www.w3.org/2000/svg">
<path d="M6 28C6 25.7909 7.79086 24 10 24H38C40.2091 24 42 25.7909 42 28V30C42 32.2091 40.2091 34 38 34H10C7.79086 34 6 32.2091 6 30V28Z" fill="#E8E8E8"/>
<path fill-rule="evenodd" clip-rule="evenodd" d="M5 28C5 25.2386 7.23858 23 10 23H38C40.7614 23 43 25.2386 43 28V30C43 32.7614 40.7614 35 38 35H10C7.23858 35 5 32.7614 5 30V28ZM10 25C8.34315 25 7 26.3431 7 28V30C7 31.6569 8.34315 33 10 33H38C39.6569 33 41 31.6569 41 30V28C41 26.3431 39.6569 25 38 25H10Z" fill="#B480DE"/>
<path fill-rule="evenodd" clip-rule="evenodd" d="M9.5 27.5H13V30.5H9.5V27.5Z" fill="#B480DE"/>
<path fill-rule="evenodd" clip-rule="evenodd" d="M14.5 27.5H18V30.5H14.5V27.5Z" fill="#B480DE"/>
<path fill-rule="evenodd" clip-rule="evenodd" d="M19.5 27.5H23V30.5H19.5V27.5Z" fill="#B480DE"/>
<path fill-rule="evenodd" clip-rule="evenodd" d="M24.5 27.5H28V30.5H24.5V27.5Z" fill="#B480DE"/>
<path fill-rule="evenodd" clip-rule="evenodd" d="M29.5 27.5H33C33.8284 27.5 34.5 28.1716 34.5 29C34.5 29.8284 33.8284 30.5 33 30.5H29.5V27.5Z" fill="#B480DE"/>
<path d="M29.3752 14.8524C29.3752 15.447 29.2216 15.9044 28.9145 16.2245C28.614 16.5447 28.2187 16.7048 27.7286 16.7048C27.4868 16.7048 27.2647 16.6656 27.0621 16.5872C26.8596 16.5022 26.6864 16.3814 26.5427 16.2245C26.3989 16.0677 26.2846 15.875 26.1996 15.6463C26.1212 15.4111 26.082 15.1464 26.082 14.8524C26.082 14.2513 26.2323 13.7939 26.5329 13.4803C26.84 13.1601 27.2386 13 27.7286 13C28.2187 13 28.614 13.1601 28.9145 13.4803C29.2216 13.7939 29.3752 14.2513 29.3752 14.8524ZM28.4441 14.8524C28.4441 14.5061 28.3787 14.248 28.2481 14.0781C28.1239 13.9017 27.9508 13.8135 27.7286 13.8135C27.5064 13.8135 27.3333 13.9017 27.2092 14.0781C27.085 14.248 27.0229 14.5061 27.0229 14.8524C27.0229 15.1987 27.085 15.4601 27.2092 15.6365C27.3333 15.8064 27.5064 15.8913 27.7286 15.8913C27.9508 15.8913 28.1239 15.8064 28.2481 15.6365C28.3787 15.4601 28.4441 15.1987 28.4441 14.8524ZM31.3648 13.147H32.4919L28.6597 19.9391H27.5326L31.3648 13.147ZM33.9523 18.2436C33.9523 18.8382 33.7987 19.2955 33.4916 19.6157C33.1911 19.9359 32.7957 20.096 32.3057 20.096C32.0639 20.096 31.8418 20.0535 31.6392 19.9685C31.4367 19.8901 31.2635 19.7725 31.1198 19.6157C30.976 19.4589 30.8617 19.2661 30.7767 19.0374C30.6983 18.8022 30.6591 18.5376 30.6591 18.2436C30.6591 17.6424 30.8094 17.185 31.11 16.8714C31.4171 16.5512 31.8156 16.3912 32.3057 16.3912C32.7957 16.3912 33.1911 16.5512 33.4916 16.8714C33.7987 17.185 33.9523 17.6424 33.9523 18.2436ZM33.0212 18.2436C33.0212 17.8973 32.9558 17.6392 32.8251 17.4693C32.701 17.2929 32.5278 17.2046 32.3057 17.2046C32.0835 17.2046 31.9104 17.2929 31.7862 17.4693C31.6621 17.6392 31.6 17.8973 31.6 18.2436C31.6 18.5899 31.6621 18.8512 31.7862 19.0276C31.9104 19.1975 32.0835 19.2825 32.3057 19.2825C32.5278 19.2825 32.701 19.1975 32.8251 19.0276C32.9558 18.8512 33.0212 18.5899 33.0212 18.2436Z" fill="#B480DE"/>
<path d="M23.8055 17.9985C23.8055 17.7829 23.763 17.5901 23.6781 17.4202C23.5931 17.2503 23.4429 17.1066 23.2272 16.989C23.0181 16.8714 22.7339 16.7832 22.3745 16.7244C22.0217 16.6655 21.5741 16.6361 21.0318 16.6361C21.1037 16.0089 21.1592 15.4143 21.1984 14.8524C21.2376 14.2839 21.2703 13.7154 21.2964 13.147H24.766V14.1467H22.3059C22.2994 14.2578 22.2896 14.3852 22.2765 14.5289C22.27 14.6661 22.2602 14.8066 22.2471 14.9504C22.2406 15.0941 22.2308 15.2313 22.2177 15.362C22.2047 15.4927 22.1916 15.6038 22.1785 15.6952C23.1456 15.7475 23.8578 15.9697 24.3151 16.3617C24.7791 16.7472 25.011 17.2765 25.011 17.9495C25.011 18.2566 24.9587 18.5408 24.8542 18.8022C24.7497 19.0635 24.5896 19.289 24.374 19.4784C24.1583 19.6679 23.8872 19.8182 23.5605 19.9293C23.2338 20.0338 22.8515 20.0861 22.4137 20.0861C22.2373 20.0861 22.0576 20.073 21.8747 20.0469C21.6917 20.0208 21.5153 19.9881 21.3454 19.9489C21.1821 19.9162 21.0351 19.8803 20.9044 19.8411C20.7737 19.8019 20.6757 19.7659 20.6104 19.7333L20.8358 18.7336C20.973 18.7989 21.169 18.8708 21.4238 18.9492C21.6852 19.0211 22.0021 19.057 22.3745 19.057C22.6294 19.057 22.8483 19.0309 23.0312 18.9786C23.2142 18.9198 23.3612 18.8414 23.4723 18.7434C23.5899 18.6454 23.6748 18.5343 23.7271 18.4101C23.7794 18.2795 23.8055 18.1422 23.8055 17.9985Z" fill="#B480DE"/>
<path d="M15.9899 19.9391C16.0291 19.4425 16.1173 18.9198 16.2545 18.3709C16.3917 17.8221 16.5584 17.2895 16.7544 16.7734C16.9569 16.2506 17.1758 15.7639 17.4111 15.313C17.6528 14.8556 17.8913 14.4734 18.1265 14.1663H15V13.147H19.5379V14.0487C19.3223 14.2904 19.087 14.6204 18.8322 15.0386C18.5774 15.4568 18.3356 15.9305 18.1069 16.4597C17.8782 16.9824 17.679 17.5444 17.5091 18.1455C17.3457 18.7466 17.2444 19.3445 17.2052 19.9391H15.9899Z" fill="#B480DE"/>
</svg>
