<svg width="24" height="24" viewBox="0 0 24 24" fill="none" xmlns="http://www.w3.org/2000/svg">
<circle cx="12" cy="12" r="7" stroke="#E8E8E8" stroke-width="4"/>
<path d="M5 12V12C5 15.866 8.13401 19 12 19V19C15.866 19 19 15.866 19 12V12C19 8.13401 15.866 5 12 5V5" stroke="black" stroke-width="4" stroke-linecap="round"/>
<path d="M9.462 13C9.474 12.848 9.501 12.688 9.543 12.52C9.585 12.352 9.636 12.189 9.696 12.031C9.758 11.871 9.825 11.722 9.897 11.584C9.971 11.444 10.044 11.327 10.116 11.233H9.159V10.921H10.548V11.197C10.482 11.271 10.41 11.372 10.332 11.5C10.254 11.628 10.18 11.773 10.11 11.935C10.04 12.095 9.979 12.267 9.927 12.451C9.877 12.635 9.846 12.818 9.834 13H9.462ZM11.8541 12.406C11.8541 12.34 11.8411 12.281 11.8151 12.229C11.7891 12.177 11.7431 12.133 11.6771 12.097C11.6131 12.061 11.5261 12.034 11.4161 12.016C11.3081 11.998 11.1711 11.989 11.0051 11.989C11.0271 11.797 11.0441 11.615 11.0561 11.443C11.0681 11.269 11.0781 11.095 11.0861 10.921H12.1481V11.227H11.3951C11.3931 11.261 11.3901 11.3 11.3861 11.344C11.3841 11.386 11.3811 11.429 11.3771 11.473C11.3751 11.517 11.3721 11.559 11.3681 11.599C11.3641 11.639 11.3601 11.673 11.3561 11.701C11.6521 11.717 11.8701 11.785 12.0101 11.905C12.1521 12.023 12.2231 12.185 12.2231 12.391C12.2231 12.485 12.2071 12.572 12.1751 12.652C12.1431 12.732 12.0941 12.801 12.0281 12.859C11.9621 12.917 11.8791 12.963 11.7791 12.997C11.6791 13.029 11.5621 13.045 11.4281 13.045C11.3741 13.045 11.3191 13.041 11.2631 13.033C11.2071 13.025 11.1531 13.015 11.1011 13.003C11.0511 12.993 11.0061 12.982 10.9661 12.97C10.9261 12.958 10.8961 12.947 10.8761 12.937L10.9451 12.631C10.9871 12.651 11.0471 12.673 11.1251 12.697C11.2051 12.719 11.3021 12.73 11.4161 12.73C11.4941 12.73 11.5611 12.722 11.6171 12.706C11.6731 12.688 11.7181 12.664 11.7521 12.634C11.7881 12.604 11.8141 12.57 11.8301 12.532C11.8461 12.492 11.8541 12.45 11.8541 12.406ZM13.5592 11.443C13.5592 11.625 13.5122 11.765 13.4182 11.863C13.3262 11.961 13.2052 12.01 13.0552 12.01C12.9812 12.01 12.9132 11.998 12.8512 11.974C12.7892 11.948 12.7362 11.911 12.6922 11.863C12.6482 11.815 12.6132 11.756 12.5872 11.686C12.5632 11.614 12.5512 11.533 12.5512 11.443C12.5512 11.259 12.5972 11.119 12.6892 11.023C12.7832 10.925 12.9052 10.876 13.0552 10.876C13.2052 10.876 13.3262 10.925 13.4182 11.023C13.5122 11.119 13.5592 11.259 13.5592 11.443ZM13.2742 11.443C13.2742 11.337 13.2542 11.258 13.2142 11.206C13.1762 11.152 13.1232 11.125 13.0552 11.125C12.9872 11.125 12.9342 11.152 12.8962 11.206C12.8582 11.258 12.8392 11.337 12.8392 11.443C12.8392 11.549 12.8582 11.629 12.8962 11.683C12.9342 11.735 12.9872 11.761 13.0552 11.761C13.1232 11.761 13.1762 11.735 13.2142 11.683C13.2542 11.629 13.2742 11.549 13.2742 11.443ZM14.1682 10.921H14.5132L13.3402 13H12.9952L14.1682 10.921ZM14.9602 12.481C14.9602 12.663 14.9132 12.803 14.8192 12.901C14.7272 12.999 14.6062 13.048 14.4562 13.048C14.3822 13.048 14.3142 13.035 14.2522 13.009C14.1902 12.985 14.1372 12.949 14.0932 12.901C14.0492 12.853 14.0142 12.794 13.9882 12.724C13.9642 12.652 13.9522 12.571 13.9522 12.481C13.9522 12.297 13.9982 12.157 14.0902 12.061C14.1842 11.963 14.3062 11.914 14.4562 11.914C14.6062 11.914 14.7272 11.963 14.8192 12.061C14.9132 12.157 14.9602 12.297 14.9602 12.481ZM14.6752 12.481C14.6752 12.375 14.6552 12.296 14.6152 12.244C14.5772 12.19 14.5242 12.163 14.4562 12.163C14.3882 12.163 14.3352 12.19 14.2972 12.244C14.2592 12.296 14.2402 12.375 14.2402 12.481C14.2402 12.587 14.2592 12.667 14.2972 12.721C14.3352 12.773 14.3882 12.799 14.4562 12.799C14.5242 12.799 14.5772 12.773 14.6152 12.721C14.6552 12.667 14.6752 12.587 14.6752 12.481Z" fill="black"/>
</svg>
