<svg width="48" height="48" viewBox="0 0 48 48" fill="none" xmlns="http://www.w3.org/2000/svg">
<path fill-rule="evenodd" clip-rule="evenodd" d="M24 14C18.4772 14 14 18.4772 14 24C14 29.5228 18.4772 34 24 34C29.5228 34 34 29.5228 34 24C34 18.4772 29.5228 14 24 14ZM6 24C6 14.0589 14.0589 6 24 6C33.9411 6 42 14.0589 42 24C42 33.9411 33.9411 42 24 42C14.0589 42 6 33.9411 6 24Z" fill="#E8E8E8"/>
<path fill-rule="evenodd" clip-rule="evenodd" d="M24 6C33.9411 6 42 14.0589 42 24C42 33.9411 33.9411 42 24 42C14.0589 42 6 33.9411 6 24C6 21.7909 7.79086 20 10 20C12.2091 20 14 21.7909 14 24C14 29.5228 18.4772 34 24 34C29.5228 34 34 29.5228 34 24C34 18.4772 29.5228 14 24 14V6Z" fill="#B480DE"/>
<path d="M27.1185 22.886C27.1185 23.25 27.0245 23.53 26.8365 23.726C26.6525 23.922 26.4105 24.02 26.1105 24.02C25.9625 24.02 25.8265 23.996 25.7025 23.948C25.5785 23.896 25.4725 23.822 25.3845 23.726C25.2965 23.63 25.2265 23.512 25.1745 23.372C25.1265 23.228 25.1025 23.066 25.1025 22.886C25.1025 22.518 25.1945 22.238 25.3785 22.046C25.5665 21.85 25.8105 21.752 26.1105 21.752C26.4105 21.752 26.6525 21.85 26.8365 22.046C27.0245 22.238 27.1185 22.518 27.1185 22.886ZM26.5485 22.886C26.5485 22.674 26.5085 22.516 26.4285 22.412C26.3525 22.304 26.2465 22.25 26.1105 22.25C25.9745 22.25 25.8685 22.304 25.7925 22.412C25.7165 22.516 25.6785 22.674 25.6785 22.886C25.6785 23.098 25.7165 23.258 25.7925 23.366C25.8685 23.47 25.9745 23.522 26.1105 23.522C26.2465 23.522 26.3525 23.47 26.4285 23.366C26.5085 23.258 26.5485 23.098 26.5485 22.886ZM28.3365 21.842H29.0265L26.6805 26H25.9905L28.3365 21.842ZM29.9205 24.962C29.9205 25.326 29.8265 25.606 29.6385 25.802C29.4545 25.998 29.2125 26.096 28.9125 26.096C28.7645 26.096 28.6285 26.07 28.5045 26.018C28.3805 25.97 28.2745 25.898 28.1865 25.802C28.0985 25.706 28.0285 25.588 27.9765 25.448C27.9285 25.304 27.9045 25.142 27.9045 24.962C27.9045 24.594 27.9965 24.314 28.1805 24.122C28.3685 23.926 28.6125 23.828 28.9125 23.828C29.2125 23.828 29.4545 23.926 29.6385 24.122C29.8265 24.314 29.9205 24.594 29.9205 24.962ZM29.3505 24.962C29.3505 24.75 29.3105 24.592 29.2305 24.488C29.1545 24.38 29.0485 24.326 28.9125 24.326C28.7765 24.326 28.6705 24.38 28.5945 24.488C28.5185 24.592 28.4805 24.75 28.4805 24.962C28.4805 25.174 28.5185 25.334 28.5945 25.442C28.6705 25.546 28.7765 25.598 28.9125 25.598C29.0485 25.598 29.1545 25.546 29.2305 25.442C29.3105 25.334 29.3505 25.174 29.3505 24.962Z" fill="#B480DE"/>
<path d="M23.7089 24.8118C23.7089 24.6798 23.6829 24.5618 23.6309 24.4578C23.5789 24.3538 23.4869 24.2658 23.3549 24.1938C23.2269 24.1218 23.0529 24.0678 22.8329 24.0318C22.6169 23.9958 22.3429 23.9778 22.0109 23.9778C22.0549 23.5938 22.0889 23.2298 22.1129 22.8858C22.1369 22.5378 22.1569 22.1898 22.1729 21.8418H24.2969V22.4538H22.7909C22.7869 22.5218 22.7809 22.5998 22.7729 22.6878C22.7689 22.7718 22.7629 22.8578 22.7549 22.9458C22.7509 23.0338 22.7449 23.1178 22.7369 23.1978C22.7289 23.2778 22.7209 23.3458 22.7129 23.4018C23.3049 23.4338 23.7409 23.5698 24.0209 23.8098C24.3049 24.0458 24.4469 24.3698 24.4469 24.7818C24.4469 24.9698 24.4149 25.1438 24.3509 25.3038C24.2869 25.4638 24.1889 25.6018 24.0569 25.7178C23.9249 25.8338 23.7589 25.9258 23.5589 25.9938C23.3589 26.0578 23.1249 26.0898 22.8569 26.0898C22.7489 26.0898 22.6389 26.0818 22.5269 26.0658C22.4149 26.0498 22.3069 26.0298 22.2029 26.0058C22.1029 25.9858 22.0129 25.9638 21.9329 25.9398C21.8529 25.9158 21.7929 25.8938 21.7529 25.8738L21.8909 25.2618C21.9749 25.3018 22.0949 25.3458 22.2509 25.3938C22.4109 25.4378 22.6049 25.4598 22.8329 25.4598C22.9889 25.4598 23.1229 25.4438 23.2349 25.4118C23.3469 25.3758 23.4369 25.3278 23.5049 25.2678C23.5769 25.2078 23.6289 25.1398 23.6609 25.0638C23.6929 24.9838 23.7089 24.8998 23.7089 24.8118Z" fill="#B480DE"/>
<path d="M18.9244 25.9998C18.9484 25.6958 19.0024 25.3758 19.0864 25.0398C19.1704 24.7038 19.2724 24.3778 19.3924 24.0618C19.5164 23.7418 19.6504 23.4438 19.7944 23.1678C19.9424 22.8878 20.0884 22.6538 20.2324 22.4658H18.3184V21.8418H21.0964V22.3938C20.9644 22.5418 20.8204 22.7438 20.6644 22.9998C20.5084 23.2558 20.3604 23.5458 20.2204 23.8698C20.0804 24.1898 19.9584 24.5338 19.8544 24.9018C19.7544 25.2698 19.6924 25.6358 19.6684 25.9998H18.9244Z" fill="#B480DE"/>
</svg>
