<svg width="24" height="24" viewBox="0 0 24 24" fill="none" xmlns="http://www.w3.org/2000/svg">
<rect x="3" y="13" width="18" height="5" rx="2" stroke="black"/>
<path d="M5.5 14.75H4.75V16.25H5.5V14.75ZM5.5 16.25H6.5V14.75H5.5V16.25Z" fill="black"/>
<path d="M8 14.75H7.25V16.25H8V14.75ZM8 16.25H9V14.75H8V16.25Z" fill="black"/>
<path d="M10.5 14.75H9.75V16.25H10.5V14.75ZM10.5 16.25H11.5V14.75H10.5V16.25Z" fill="black"/>
<path d="M13 14.75H12.25V16.25H13V14.75ZM13 16.25H14V14.75H13V16.25Z" fill="black"/>
<path d="M15.5 14.75H14.75V16.25H15.5V14.75ZM16.5 16.25C16.9142 16.25 17.25 15.9142 17.25 15.5C17.25 15.0858 16.9142 14.75 16.5 14.75V16.25ZM15.5 16.25H16.5V14.75H15.5V16.25Z" fill="black"/>
<path d="M8.616 11C8.632 10.7973 8.668 10.584 8.724 10.36C8.78 10.136 8.848 9.91867 8.928 9.708C9.01067 9.49467 9.1 9.296 9.196 9.112C9.29467 8.92533 9.392 8.76933 9.488 8.644H8.212V8.228H10.064V8.596C9.976 8.69467 9.88 8.82933 9.776 9C9.672 9.17067 9.57333 9.364 9.48 9.58C9.38667 9.79333 9.30533 10.0227 9.236 10.268C9.16933 10.5133 9.128 10.7573 9.112 11H8.616ZM11.8054 10.208C11.8054 10.12 11.7881 10.0413 11.7534 9.972C11.7188 9.90267 11.6574 9.844 11.5694 9.796C11.4841 9.748 11.3681 9.712 11.2214 9.688C11.0774 9.664 10.8948 9.652 10.6734 9.652C10.7028 9.396 10.7254 9.15333 10.7414 8.924C10.7574 8.692 10.7708 8.46 10.7814 8.228H12.1974V8.636H11.1934C11.1908 8.68133 11.1868 8.73333 11.1814 8.792C11.1788 8.848 11.1748 8.90533 11.1694 8.964C11.1668 9.02267 11.1628 9.07867 11.1574 9.132C11.1521 9.18533 11.1468 9.23067 11.1414 9.268C11.5361 9.28933 11.8268 9.38 12.0134 9.54C12.2028 9.69733 12.2974 9.91333 12.2974 10.188C12.2974 10.3133 12.2761 10.4293 12.2334 10.536C12.1908 10.6427 12.1254 10.7347 12.0374 10.812C11.9494 10.8893 11.8388 10.9507 11.7054 10.996C11.5721 11.0387 11.4161 11.06 11.2374 11.06C11.1654 11.06 11.0921 11.0547 11.0174 11.044C10.9428 11.0333 10.8708 11.02 10.8014 11.004C10.7348 10.9907 10.6748 10.976 10.6214 10.96C10.5681 10.944 10.5281 10.9293 10.5014 10.916L10.5934 10.508C10.6494 10.5347 10.7294 10.564 10.8334 10.596C10.9401 10.6253 11.0694 10.64 11.2214 10.64C11.3254 10.64 11.4148 10.6293 11.4894 10.608C11.5641 10.584 11.6241 10.552 11.6694 10.512C11.7174 10.472 11.7521 10.4267 11.7734 10.376C11.7948 10.3227 11.8054 10.2667 11.8054 10.208ZM14.0789 8.924C14.0789 9.16667 14.0162 9.35333 13.8909 9.484C13.7682 9.61467 13.6069 9.68 13.4069 9.68C13.3082 9.68 13.2175 9.664 13.1349 9.632C13.0522 9.59733 12.9815 9.548 12.9229 9.484C12.8642 9.42 12.8175 9.34133 12.7829 9.248C12.7509 9.152 12.7349 9.044 12.7349 8.924C12.7349 8.67867 12.7962 8.492 12.9189 8.364C13.0442 8.23333 13.2069 8.168 13.4069 8.168C13.6069 8.168 13.7682 8.23333 13.8909 8.364C14.0162 8.492 14.0789 8.67867 14.0789 8.924ZM13.6989 8.924C13.6989 8.78267 13.6722 8.67733 13.6189 8.608C13.5682 8.536 13.4975 8.5 13.4069 8.5C13.3162 8.5 13.2455 8.536 13.1949 8.608C13.1442 8.67733 13.1189 8.78267 13.1189 8.924C13.1189 9.06533 13.1442 9.172 13.1949 9.244C13.2455 9.31333 13.3162 9.348 13.4069 9.348C13.4975 9.348 13.5682 9.31333 13.6189 9.244C13.6722 9.172 13.6989 9.06533 13.6989 8.924ZM14.8909 8.228H15.3509L13.7869 11H13.3269L14.8909 8.228ZM15.9469 10.308C15.9469 10.5507 15.8842 10.7373 15.7589 10.868C15.6362 10.9987 15.4749 11.064 15.2749 11.064C15.1762 11.064 15.0855 11.0467 15.0029 11.012C14.9202 10.98 14.8495 10.932 14.7909 10.868C14.7322 10.804 14.6855 10.7253 14.6509 10.632C14.6189 10.536 14.6029 10.428 14.6029 10.308C14.6029 10.0627 14.6642 9.876 14.7869 9.748C14.9122 9.61733 15.0749 9.552 15.2749 9.552C15.4749 9.552 15.6362 9.61733 15.7589 9.748C15.8842 9.876 15.9469 10.0627 15.9469 10.308ZM15.5669 10.308C15.5669 10.1667 15.5402 10.0613 15.4869 9.992C15.4362 9.92 15.3655 9.884 15.2749 9.884C15.1842 9.884 15.1135 9.92 15.0629 9.992C15.0122 10.0613 14.9869 10.1667 14.9869 10.308C14.9869 10.4493 15.0122 10.556 15.0629 10.628C15.1135 10.6973 15.1842 10.732 15.2749 10.732C15.3655 10.732 15.4362 10.6973 15.4869 10.628C15.5402 10.556 15.5669 10.4493 15.5669 10.308Z" fill="black"/>
</svg>
