<svg width="48" height="48" viewBox="0 0 48 48" fill="none" xmlns="http://www.w3.org/2000/svg">
<path d="M6 22C6 19.7909 7.79086 18 10 18H38C40.2091 18 42 19.7909 42 22V24C42 26.2091 40.2091 28 38 28H10C7.79086 28 6 26.2091 6 24V22Z" fill="#E8E8E8"/>
<path fill-rule="evenodd" clip-rule="evenodd" d="M5 22C5 19.2386 7.23858 17 10 17H38C40.7614 17 43 19.2386 43 22V24C43 26.7614 40.7614 29 38 29H10C7.23858 29 5 26.7614 5 24V22ZM10 19C8.34315 19 7 20.3431 7 22V24C7 25.6569 8.34315 27 10 27H38C39.6569 27 41 25.6569 41 24V22C41 20.3431 39.6569 19 38 19H10Z" fill="#B480DE"/>
<path fill-rule="evenodd" clip-rule="evenodd" d="M9.5 21.5H13V24.5H9.5V21.5Z" fill="#B480DE"/>
<path fill-rule="evenodd" clip-rule="evenodd" d="M14.5 21.5H18V24.5H14.5V21.5Z" fill="#B480DE"/>
<path fill-rule="evenodd" clip-rule="evenodd" d="M19.5 21.5H23V24.5H19.5V21.5Z" fill="#B480DE"/>
<path fill-rule="evenodd" clip-rule="evenodd" d="M24.5 21.5H28V24.5H24.5V21.5Z" fill="#B480DE"/>
<path fill-rule="evenodd" clip-rule="evenodd" d="M29.5 21.5H33C33.8284 21.5 34.5 22.1716 34.5 23C34.5 23.8284 33.8284 24.5 33 24.5H29.5V21.5Z" fill="#B480DE"/>
</svg>
