<svg width="48" height="48" viewBox="0 0 48 48" fill="none" xmlns="http://www.w3.org/2000/svg">
<path d="M6 10C6 7.79086 7.79086 6 10 6H38C40.2091 6 42 7.79086 42 10V38C42 40.2091 40.2091 42 38 42H10C7.79086 42 6 40.2091 6 38V10Z" fill="#E8E8E8"/>
<path fill-rule="evenodd" clip-rule="evenodd" d="M4.5 10C4.5 6.96243 6.96243 4.5 10 4.5H38C41.0376 4.5 43.5 6.96243 43.5 10V38C43.5 41.0376 41.0376 43.5 38 43.5H10C6.96243 43.5 4.5 41.0376 4.5 38V10ZM10 7.5C8.61929 7.5 7.5 8.61929 7.5 10V38C7.5 39.3807 8.61929 40.5 10 40.5H38C39.3807 40.5 40.5 39.3807 40.5 38V10C40.5 8.61929 39.3807 7.5 38 7.5H10Z" fill="#B480DE"/>
<path fill-rule="evenodd" clip-rule="evenodd" d="M11 11H22.5994V22.5994H11V11ZM13 13V20.5994H20.5994V13H13Z" fill="#B480DE"/>
<path fill-rule="evenodd" clip-rule="evenodd" d="M11 25.4004H22.5994V36.9998H11V25.4004ZM13 27.4004V34.9998H20.5994V27.4004H13Z" fill="#B480DE"/>
<path fill-rule="evenodd" clip-rule="evenodd" d="M25.4004 11H36.9998V22.5994H25.4004V11ZM27.4004 13V20.5994H34.9998V13H27.4004Z" fill="#B480DE"/>
<path d="M26.4004 26.4004H28.8002V28.8002H26.4004V26.4004Z" fill="#B480DE"/>
<path d="M26.4004 33.5977H28.8002V35.9975H26.4004V33.5977Z" fill="#B480DE"/>
<path d="M28.7988 28.7988H31.1987V31.1987H28.7988V28.7988Z" fill="#B480DE"/>
<path d="M28.7988 31.1992H31.1987V33.5991H28.7988V31.1992Z" fill="#B480DE"/>
<path d="M31.1992 31.1992H33.5991V33.5991H31.1992V31.1992Z" fill="#B480DE"/>
<path d="M33.5977 31.1992H35.9975V33.5991H33.5977V31.1992Z" fill="#B480DE"/>
<path d="M33.5977 33.5977H35.9975V35.9975H33.5977V33.5977Z" fill="#B480DE"/>
</svg>
