<svg width="48" height="48" viewBox="0 0 48 48" fill="none" xmlns="http://www.w3.org/2000/svg">
<path d="M24.0002 3.99854L41.3207 13.9985V33.9985L24.0002 43.9985L6.67969 33.9985V13.9985L24.0002 3.99854Z" fill="#E8E8E8"/>
<path fill-rule="evenodd" clip-rule="evenodd" d="M24.0002 2.26807L42.8207 13.1341V34.8661L24.0002 45.7322L5.17969 34.8661V13.1341L24.0002 2.26807ZM8.17969 14.8661V33.1341L24.0002 42.2681L39.8207 33.1341V14.8661L24.0002 5.73217L8.17969 14.8661Z" fill="#B480DE"/>
<path fill-rule="evenodd" clip-rule="evenodd" d="M41.4883 15.8733L7.48834 34.8733L6.5127 33.1274L40.5127 14.1274L41.4883 15.8733Z" fill="#B480DE"/>
<path fill-rule="evenodd" clip-rule="evenodd" d="M40.4932 34.863L6.49316 14.863L7.5072 13.1392L41.5072 33.1392L40.4932 34.863Z" fill="#B480DE"/>
<path fill-rule="evenodd" clip-rule="evenodd" d="M23 42.9985V3.99854H25V42.9985H23Z" fill="#B480DE"/>
<path fill-rule="evenodd" clip-rule="evenodd" d="M23.9201 12.9556L38.67 16.3594L30.7917 27.614L24.0006 35.537L17.1462 27.5402L12.665 17.4576L23.9201 12.9556ZM24.0811 15.0453L15.3362 18.5432L18.855 26.4607L24.0006 32.4638L29.2095 26.3868L35.3312 17.6415L24.0811 15.0453Z" fill="#B480DE"/>
</svg>
