<svg width="48" height="48" viewBox="0 0 48 48" fill="none" xmlns="http://www.w3.org/2000/svg">
<path d="M6 24C6 14.0589 14.0589 6 24 6C33.9411 6 42 14.0589 42 24C42 33.9411 33.9411 42 24 42C14.0589 42 6 33.9411 6 24Z" fill="#E8E8E8"/>
<path fill-rule="evenodd" clip-rule="evenodd" d="M4.5 24C4.5 13.2304 13.2304 4.5 24 4.5C34.7696 4.5 43.5 13.2304 43.5 24C43.5 34.7696 34.7696 43.5 24 43.5C13.2304 43.5 4.5 34.7696 4.5 24ZM24 7.5C14.8873 7.5 7.5 14.8873 7.5 24C7.5 33.1127 14.8873 40.5 24 40.5C33.1127 40.5 40.5 33.1127 40.5 24C40.5 14.8873 33.1127 7.5 24 7.5Z" fill="#B480DE"/>
<path d="M16 24C16 19.5817 19.5817 16 24 16C28.4183 16 32 19.5817 32 24C32 28.4183 28.4183 32 24 32C19.5817 32 16 28.4183 16 24Z" fill="#B480DE"/>
<path fill-rule="evenodd" clip-rule="evenodd" d="M14.5 24C14.5 18.7533 18.7533 14.5 24 14.5C29.2467 14.5 33.5 18.7533 33.5 24C33.5 29.2467 29.2467 33.5 24 33.5C18.7533 33.5 14.5 29.2467 14.5 24ZM24 17.5C20.4101 17.5 17.5 20.4101 17.5 24C17.5 27.5899 20.4101 30.5 24 30.5C27.5899 30.5 30.5 27.5899 30.5 24C30.5 20.4101 27.5899 17.5 24 17.5Z" fill="#B480DE"/>
</svg>
