<svg width="48" height="48" viewBox="0 0 48 48" fill="none" xmlns="http://www.w3.org/2000/svg">
<path fill-rule="evenodd" clip-rule="evenodd" d="M5 24C5 23.4477 5.44772 23 6 23H12C12.5523 23 13 23.4477 13 24C13 24.5523 12.5523 25 12 25H6C5.44772 25 5 24.5523 5 24Z" fill="#B480DE"/>
<path fill-rule="evenodd" clip-rule="evenodd" d="M35 24C35 23.4477 35.4477 23 36 23H42C42.5523 23 43 23.4477 43 24C43 24.5523 42.5523 25 42 25H36C35.4477 25 35 24.5523 35 24Z" fill="#B480DE"/>
<path fill-rule="evenodd" clip-rule="evenodd" d="M18 24C18 22.8954 18.8954 22 20 22H28C29.1046 22 30 22.8954 30 24C30 25.1046 29.1046 26 28 26H20C18.8954 26 18 25.1046 18 24Z" fill="#B480DE"/>
<path d="M20 24C20 26.2091 18.2091 28 16 28C13.7909 28 12 26.2091 12 24C12 21.7909 13.7909 20 16 20C18.2091 20 20 21.7909 20 24Z" fill="white"/>
<path fill-rule="evenodd" clip-rule="evenodd" d="M16 21.5C14.6193 21.5 13.5 22.6193 13.5 24C13.5 25.3807 14.6193 26.5 16 26.5C17.3807 26.5 18.5 25.3807 18.5 24C18.5 22.6193 17.3807 21.5 16 21.5ZM10.5 24C10.5 20.9624 12.9624 18.5 16 18.5C19.0376 18.5 21.5 20.9624 21.5 24C21.5 27.0376 19.0376 29.5 16 29.5C12.9624 29.5 10.5 27.0376 10.5 24Z" fill="#B480DE"/>
<path d="M36 24C36 26.2091 34.2091 28 32 28C29.7909 28 28 26.2091 28 24C28 21.7909 29.7909 20 32 20C34.2091 20 36 21.7909 36 24Z" fill="white"/>
<path fill-rule="evenodd" clip-rule="evenodd" d="M32 21.5C30.6193 21.5 29.5 22.6193 29.5 24C29.5 25.3807 30.6193 26.5 32 26.5C33.3807 26.5 34.5 25.3807 34.5 24C34.5 22.6193 33.3807 21.5 32 21.5ZM26.5 24C26.5 20.9624 28.9624 18.5 32 18.5C35.0376 18.5 37.5 20.9624 37.5 24C37.5 27.0376 35.0376 29.5 32 29.5C28.9624 29.5 26.5 27.0376 26.5 24Z" fill="#B480DE"/>
</svg>
