<svg width="48" height="48" viewBox="0 0 48 48" fill="none" xmlns="http://www.w3.org/2000/svg">
<path d="M6 10C6 7.79086 7.79086 6 10 6H38C40.2091 6 42 7.79086 42 10V38C42 40.2091 40.2091 42 38 42H10C7.79086 42 6 40.2091 6 38V10Z" fill="#E8E8E8"/>
<path fill-rule="evenodd" clip-rule="evenodd" d="M9 25C9 24.4477 9.40294 24 9.9 24H14.1C14.5971 24 15 24.4477 15 25C15 25.5523 14.5971 26 14.1 26H9.9C9.40294 26 9 25.5523 9 25Z" fill="#B480DE"/>
<path fill-rule="evenodd" clip-rule="evenodd" d="M30.7773 25C30.7773 24.4477 31.2251 24 31.7773 24L37.9996 24C38.5519 24 38.9996 24.4477 38.9996 25C38.9996 25.5523 38.5519 26 37.9996 26L31.7773 26C31.2251 26 30.7773 25.5523 30.7773 25Z" fill="#B480DE"/>
<path d="M20 25C20 26.6569 18.6569 28 17 28C15.3431 28 14 26.6569 14 25C14 23.3431 15.3431 22 17 22C18.6569 22 20 23.3431 20 25Z" fill="white"/>
<path fill-rule="evenodd" clip-rule="evenodd" d="M16 23.5C15.1716 23.5 14.5 24.1716 14.5 25C14.5 25.8284 15.1716 26.5 16 26.5C16.8284 26.5 17.5 25.8284 17.5 25C17.5 24.1716 16.8284 23.5 16 23.5ZM11.5 25C11.5 22.5147 13.5147 20.5 16 20.5C18.4853 20.5 20.5 22.5147 20.5 25C20.5 27.4853 18.4853 29.5 16 29.5C13.5147 29.5 11.5 27.4853 11.5 25Z" fill="#B480DE"/>
<path d="M32 25C32 26.6569 30.6569 28 29 28C27.3431 28 26 26.6569 26 25C26 23.3431 27.3431 22 29 22C30.6569 22 32 23.3431 32 25Z" fill="white"/>
<path fill-rule="evenodd" clip-rule="evenodd" d="M29 23.5C28.1716 23.5 27.5 24.1716 27.5 25C27.5 25.8284 28.1716 26.5 29 26.5C29.8284 26.5 30.5 25.8284 30.5 25C30.5 24.1716 29.8284 23.5 29 23.5ZM24.5 25C24.5 22.5147 26.5147 20.5 29 20.5C31.4853 20.5 33.5 22.5147 33.5 25C33.5 27.4853 31.4853 29.5 29 29.5C26.5147 29.5 24.5 27.4853 24.5 25Z" fill="#B480DE"/>
<path fill-rule="evenodd" clip-rule="evenodd" d="M18.5 25C18.5 24.1716 19.1716 23.5 20 23.5L26 23.5C26.8284 23.5 27.5 24.1716 27.5 25C27.5 25.8284 26.8284 26.5 26 26.5L20 26.5C19.1716 26.5 18.5 25.8284 18.5 25Z" fill="#B480DE"/>
</svg>
