<svg width="48" height="48" viewBox="0 0 48 48" fill="none" xmlns="http://www.w3.org/2000/svg">
<path fill-rule="evenodd" clip-rule="evenodd" d="M21.9111 5.83665C22.7331 4.05444 25.2661 4.05445 26.0881 5.83665L30.6527 15.7327L41.475 17.0159C43.424 17.247 44.2067 19.656 42.7658 20.9885L34.7646 28.3878L36.8885 39.0769C37.271 41.0019 35.2218 42.4907 33.5092 41.5321L23.9996 36.209L14.49 41.5321C12.7774 42.4907 10.7282 41.0019 11.1107 39.0769L13.2346 28.3878L5.2334 20.9885C3.79244 19.6559 4.57518 17.247 6.52418 17.0159L17.3464 15.7327L21.9111 5.83665ZM24.3415 36.0176C24.3412 36.0178 24.3408 36.018 24.3405 36.0182L24.3415 36.0176ZM23.6587 36.0182C23.6583 36.018 23.658 36.0178 23.6577 36.0176L23.6587 36.0182ZM23.9996 8.47126L19.9065 17.3451C19.5715 18.0714 18.8831 18.5715 18.0888 18.6657L8.38445 19.8163L15.5591 26.4512C16.1464 26.9943 16.4093 27.8035 16.2534 28.5881L14.3489 38.173L22.8762 33.3998C23.5742 33.0091 24.425 33.0091 25.123 33.3998L33.6503 38.173L31.7458 28.5881C31.5899 27.8035 31.8528 26.9943 32.4401 26.4512L39.6147 19.8163L29.9104 18.6657C29.1161 18.5715 28.4277 18.0714 28.0927 17.3451L23.9996 8.47126ZM34.9745 38.9143L34.9735 38.9137L34.9745 38.9143Z" fill="#B480DE"/>
</svg>
