<svg width="24" height="24" viewBox="0 0 24 24" fill="none" xmlns="http://www.w3.org/2000/svg">
<path d="M11.6366 3.23246C11.7796 2.92251 12.2201 2.92251 12.3631 3.23246L14.7274 8.3584C14.7857 8.48472 14.9054 8.5717 15.0436 8.58808L20.6493 9.25272C20.9882 9.29291 21.1243 9.71186 20.8737 9.94361L16.7293 13.7763C16.6272 13.8707 16.5815 14.0114 16.6086 14.1479L17.7087 19.6846C17.7752 20.0194 17.4188 20.2783 17.121 20.1116L12.1952 17.3544C12.0738 17.2864 11.9259 17.2864 11.8045 17.3544L6.87872 20.1116C6.58088 20.2783 6.22449 20.0194 6.29101 19.6846L7.39115 14.1479C7.41826 14.0114 7.37254 13.8707 7.2704 13.7763L3.12598 9.94361C2.87538 9.71186 3.0115 9.29291 3.35046 9.25272L8.95614 8.58808C9.09429 8.5717 9.214 8.48472 9.27227 8.3584L11.6366 3.23246Z" stroke="black" stroke-width="1.5"/>
</svg>
