<svg width="48" height="48" viewBox="0 0 48 48" fill="none" xmlns="http://www.w3.org/2000/svg">
<path fill-rule="evenodd" clip-rule="evenodd" d="M4 11.5C4 8.46243 6.46243 6 9.5 6H37.5C40.5376 6 43 8.46243 43 11.5V20.5C43 21.3284 42.3284 22 41.5 22C40.6716 22 40 21.3284 40 20.5V11.5C40 10.1193 38.8807 9 37.5 9H9.5C8.11929 9 7 10.1193 7 11.5V29.5C7 30.8807 8.11929 32 9.5 32H25.5C26.3284 32 27 32.6716 27 33.5C27 34.3284 26.3284 35 25.5 35H9.5C6.46243 35 4 32.5376 4 29.5V11.5Z" fill="#B480DE"/>
<path fill-rule="evenodd" clip-rule="evenodd" d="M22.5 39.5V33.5H24.5V39.5H22.5Z" fill="#B480DE"/>
<path fill-rule="evenodd" clip-rule="evenodd" d="M27.5 40.5H19.5V38.5H27.5V40.5Z" fill="#B480DE"/>
<path d="M29.5 25.5C29.5 24.3954 30.3954 23.5 31.5 23.5H37.5C38.6046 23.5 39.5 24.3954 39.5 25.5V37.5C39.5 38.6046 38.6046 39.5 37.5 39.5H31.5C30.3954 39.5 29.5 38.6046 29.5 37.5V25.5Z" fill="#E8E8E8"/>
<path fill-rule="evenodd" clip-rule="evenodd" d="M28.5 25.5C28.5 23.8431 29.8431 22.5 31.5 22.5H37.5C39.1569 22.5 40.5 23.8431 40.5 25.5V37.5C40.5 39.1569 39.1569 40.5 37.5 40.5H31.5C29.8431 40.5 28.5 39.1569 28.5 37.5V25.5ZM31.5 24.5C30.9477 24.5 30.5 24.9477 30.5 25.5V37.5C30.5 38.0523 30.9477 38.5 31.5 38.5H37.5C38.0523 38.5 38.5 38.0523 38.5 37.5V25.5C38.5 24.9477 38.0523 24.5 37.5 24.5H31.5Z" fill="#B480DE"/>
</svg>
