<svg width="48" height="48" viewBox="0 0 48 48" fill="none" xmlns="http://www.w3.org/2000/svg">
<rect width="48" height="48" fill="white"/>
<path d="M24.8037 24.7803C24.8037 24.0069 24.9237 23.2869 25.1637 22.6203C25.4037 21.9403 25.7437 21.3536 26.1837 20.8603C26.637 20.3669 27.1837 19.9803 27.8237 19.7003C28.4637 19.4203 29.1837 19.2803 29.9837 19.2803C30.9704 19.2803 31.9037 19.4603 32.7837 19.8203L32.2637 21.8003C31.9837 21.6803 31.6637 21.5803 31.3037 21.5003C30.957 21.4203 30.5837 21.3803 30.1837 21.3803C29.237 21.3803 28.517 21.6803 28.0237 22.2803C27.5304 22.8669 27.2837 23.7003 27.2837 24.7803C27.2837 25.8203 27.517 26.6469 27.9837 27.2603C28.4504 27.8603 29.237 28.1603 30.3437 28.1603C30.757 28.1603 31.1637 28.1203 31.5637 28.0403C31.9637 27.9603 32.3104 27.8603 32.6037 27.7403L32.9437 29.7403C32.677 29.8736 32.2704 29.9936 31.7237 30.1003C31.1904 30.2069 30.637 30.2603 30.0637 30.2603C29.1704 30.2603 28.3904 30.1269 27.7237 29.8603C27.0704 29.5803 26.5237 29.2003 26.0837 28.7203C25.657 28.2269 25.337 27.6469 25.1237 26.9803C24.9104 26.3003 24.8037 25.5669 24.8037 24.7803Z" fill="#B480DE"/>
<path d="M17.277 30.1999C16.6637 30.1999 16.2037 30.0933 15.897 29.8799C15.6037 29.6666 15.457 29.2599 15.457 28.6599C15.457 28.2199 15.537 27.6733 15.697 27.0199C15.8037 26.5799 15.957 26.0133 16.157 25.3199C16.3704 24.6266 16.6104 23.8933 16.877 23.1199C17.157 22.3333 17.4437 21.5733 17.737 20.8399C18.0304 20.0933 18.317 19.4533 18.597 18.9199C18.9437 18.2533 19.217 17.7866 19.417 17.5199C19.617 17.2399 19.837 17.0733 20.077 17.0199C20.1837 16.9933 20.3104 16.9733 20.457 16.9599C20.617 16.9466 20.777 16.9399 20.937 16.9399C21.0837 16.9399 21.257 16.9399 21.457 16.9399C21.6704 16.9399 21.8037 16.9333 21.857 16.9199C21.6037 17.1066 21.2904 17.5066 20.917 18.1199C20.5437 18.7199 20.157 19.4466 19.757 20.2999C19.357 21.1533 18.977 22.0533 18.617 22.9999C18.257 23.9466 17.9637 24.8599 17.737 25.7399C17.9504 25.3666 18.1704 25.0066 18.397 24.6599C18.6237 24.3133 18.8437 24.0066 19.057 23.7399C19.4837 23.2199 19.937 22.7866 20.417 22.4399C20.897 22.0933 21.3637 21.9199 21.817 21.9199C22.2037 21.9199 22.5237 22.0599 22.777 22.3399C23.0437 22.6199 23.177 23.0933 23.177 23.7599C23.177 24.4666 23.0237 25.1799 22.717 25.8999C22.4104 26.6066 22.017 27.2533 21.537 27.8399C21.5504 28.0533 21.617 28.2333 21.737 28.3799C21.857 28.5133 22.0104 28.5799 22.197 28.5799C22.3837 28.5799 22.5704 28.5133 22.757 28.3799C22.957 28.2466 23.1437 28.0733 23.317 27.8599C23.5037 27.6466 23.677 27.4399 23.837 27.2399C24.1037 26.8933 24.357 26.5199 24.597 26.1199C24.8504 25.7199 25.0637 25.3533 25.237 25.0199C25.3037 24.9133 25.3504 24.8599 25.377 24.8599C25.457 24.8599 25.497 24.9733 25.497 25.1999C25.497 25.3066 25.477 25.4266 25.437 25.5599C25.4104 25.6933 25.3637 25.8266 25.297 25.9599C25.137 26.2266 24.9504 26.5399 24.737 26.8999C24.5237 27.2599 24.2837 27.6133 24.017 27.9599C23.7637 28.3066 23.4837 28.6066 23.177 28.8599C22.8837 29.0999 22.5637 29.2533 22.217 29.3199C22.1904 29.3199 22.157 29.3266 22.117 29.3399C22.077 29.3399 22.0437 29.3399 22.017 29.3399C21.7904 29.3399 21.5704 29.2733 21.357 29.1399C21.1437 29.0066 20.9904 28.8133 20.897 28.5599C20.737 28.7199 20.577 28.8666 20.417 28.9999C20.257 29.1333 20.097 29.2599 19.937 29.3799C19.5637 29.6333 19.1637 29.8333 18.737 29.9799C18.3104 30.1266 17.8237 30.1999 17.277 30.1999ZM17.737 29.4799C17.9637 29.4799 18.2237 29.3666 18.517 29.1399C18.8237 28.8999 19.117 28.6066 19.397 28.2599C19.6904 27.8999 19.937 27.5533 20.137 27.2199C20.4437 26.6999 20.7037 26.1599 20.917 25.5999C21.1304 25.0399 21.237 24.5733 21.237 24.1999C21.237 23.8666 21.137 23.6733 20.937 23.6199C20.9104 23.6066 20.877 23.5999 20.837 23.5999C20.797 23.5999 20.7637 23.5999 20.737 23.5999C20.4704 23.5999 20.1704 23.7333 19.837 23.9999C19.597 24.1866 19.3237 24.4599 19.017 24.8199C18.7104 25.1799 18.4104 25.5866 18.117 26.0399C17.837 26.4799 17.6037 26.9266 17.417 27.3799C17.2437 27.8333 17.157 28.2533 17.157 28.6399C17.157 28.6933 17.157 28.7533 17.157 28.8199C17.1704 28.8866 17.1837 28.9533 17.197 29.0199C17.2637 29.3266 17.4437 29.4799 17.737 29.4799Z" fill="#B480DE"/>
<path d="M9.00039 25.3003H9.58039V23.7603C9.58039 22.4936 9.50706 21.6469 9.36039 21.2203C9.22706 20.7803 8.96039 20.5603 8.56039 20.5603C8.32039 20.5603 8.10039 20.6269 7.90039 20.7603C7.71372 20.8803 7.62039 21.0536 7.62039 21.2803C7.62039 21.4936 7.66039 21.7136 7.74039 21.9403H8.24039C8.34706 22.2203 8.40039 22.5603 8.40039 22.9603C8.40039 23.3469 8.23372 23.6869 7.90039 23.9803C7.56706 24.2603 7.14706 24.4003 6.64039 24.4003C5.49372 24.4003 4.92039 23.8469 4.92039 22.7403C4.92039 21.1003 6.31372 20.2803 9.10039 20.2803C10.6871 20.2803 11.7804 20.5536 12.3804 21.1003C12.9937 21.6336 13.3004 22.6203 13.3004 24.0603V28.1203C13.3004 28.8136 13.4937 29.1603 13.8804 29.1603C14.3337 29.1603 14.6004 28.4736 14.6804 27.1003L14.9804 27.1203C14.9271 28.2936 14.7071 29.1003 14.3204 29.5403C13.9337 29.9803 13.3004 30.2003 12.4204 30.2003C10.8204 30.2003 9.90039 29.7069 9.66039 28.7203C9.48706 29.2269 9.22706 29.6003 8.88039 29.8403C8.53372 30.0803 8.02706 30.2003 7.36039 30.2003C5.38706 30.2003 4.40039 29.3936 4.40039 27.7803C4.40039 26.8336 4.77372 26.1869 5.52039 25.8403C6.28039 25.4803 7.44039 25.3003 9.00039 25.3003ZM8.20039 27.7603C8.20039 28.4536 8.23372 28.9003 8.30039 29.1003C8.38039 29.3003 8.52039 29.4003 8.72039 29.4003C8.93372 29.4003 9.12706 29.2336 9.30039 28.9003C9.48706 28.5536 9.58039 28.0803 9.58039 27.4803V25.6203H9.44039C8.61372 25.6203 8.20039 26.2269 8.20039 27.4403V27.7603Z" fill="#B480DE"/>
<path fill-rule="evenodd" clip-rule="evenodd" d="M43 13L35 13L35 10L43 10L43 13Z" fill="#B480DE"/>
<path fill-rule="evenodd" clip-rule="evenodd" d="M43 37L35 37L35 34L43 34L43 37Z" fill="#B480DE"/>
<path fill-rule="evenodd" clip-rule="evenodd" d="M37.5 35.5V11.5H40.5V35.5H37.5Z" fill="#B480DE"/>
</svg>
