<svg width="24" height="24" viewBox="0 0 24 24" fill="none" xmlns="http://www.w3.org/2000/svg">
<rect width="24" height="24" fill="white"/>
<path d="M18 6L22 6" stroke="black" stroke-width="1.5"/>
<path d="M18 18L22 18" stroke="black" stroke-width="1.5"/>
<path d="M20 6V18" stroke="black" stroke-width="1.5"/>
<path d="M4.5 12.65H4.79V11.88C4.79 11.2467 4.75333 10.8233 4.68 10.61C4.61333 10.39 4.48 10.28 4.28 10.28C4.16 10.28 4.05 10.3133 3.95 10.38C3.85667 10.44 3.81 10.5267 3.81 10.64C3.81 10.7467 3.83 10.8567 3.87 10.97H4.12C4.17333 11.11 4.2 11.28 4.2 11.48C4.2 11.6733 4.11667 11.8433 3.95 11.99C3.78333 12.13 3.57333 12.2 3.32 12.2C2.74667 12.2 2.46 11.9233 2.46 11.37C2.46 10.55 3.15667 10.14 4.55 10.14C5.34333 10.14 5.89 10.2767 6.19 10.55C6.49667 10.8167 6.65 11.31 6.65 12.03V14.06C6.65 14.4067 6.74667 14.58 6.94 14.58C7.16667 14.58 7.3 14.2367 7.34 13.55L7.49 13.56C7.46333 14.1467 7.35333 14.55 7.16 14.77C6.96667 14.99 6.65 15.1 6.21 15.1C5.41 15.1 4.95 14.8533 4.83 14.36C4.74333 14.6133 4.61333 14.8 4.44 14.92C4.26667 15.04 4.01333 15.1 3.68 15.1C2.69333 15.1 2.2 14.6967 2.2 13.89C2.2 13.4167 2.38667 13.0933 2.76 12.92C3.14 12.74 3.72 12.65 4.5 12.65ZM4.1 13.88C4.1 14.2267 4.11667 14.45 4.15 14.55C4.19 14.65 4.26 14.7 4.36 14.7C4.46667 14.7 4.56333 14.6167 4.65 14.45C4.74333 14.2767 4.79 14.04 4.79 13.74V12.81H4.72C4.30667 12.81 4.1 13.1133 4.1 13.72V13.88ZM8.63828 15.1C8.33161 15.1 8.10161 15.0467 7.94828 14.94C7.80161 14.8333 7.72828 14.63 7.72828 14.33C7.72828 14.11 7.76828 13.8367 7.84828 13.51C7.90161 13.29 7.97828 13.0067 8.07828 12.66C8.18495 12.3133 8.30495 11.9467 8.43828 11.56C8.57828 11.1667 8.72161 10.7867 8.86828 10.42C9.01495 10.0467 9.15828 9.72667 9.29828 9.46C9.47161 9.12667 9.60828 8.89333 9.70828 8.76C9.80828 8.62 9.91828 8.53667 10.0383 8.51C10.0916 8.49667 10.1549 8.48667 10.2283 8.48C10.3083 8.47333 10.3883 8.47 10.4683 8.47C10.5416 8.47 10.6283 8.47 10.7283 8.47C10.8349 8.47 10.9016 8.46667 10.9283 8.46C10.8016 8.55333 10.6449 8.75333 10.4583 9.06C10.2716 9.36 10.0783 9.72333 9.87828 10.15C9.67828 10.5767 9.48828 11.0267 9.30828 11.5C9.12828 11.9733 8.98161 12.43 8.86828 12.87C8.97495 12.6833 9.08495 12.5033 9.19828 12.33C9.31161 12.1567 9.42161 12.0033 9.52828 11.87C9.74161 11.61 9.96828 11.3933 10.2083 11.22C10.4483 11.0467 10.6816 10.96 10.9083 10.96C11.1016 10.96 11.2616 11.03 11.3883 11.17C11.5216 11.31 11.5883 11.5467 11.5883 11.88C11.5883 12.2333 11.5116 12.59 11.3583 12.95C11.2049 13.3033 11.0083 13.6267 10.7683 13.92C10.7749 14.0267 10.8083 14.1167 10.8683 14.19C10.9283 14.2567 11.0049 14.29 11.0983 14.29C11.1916 14.29 11.2849 14.2567 11.3783 14.19C11.4783 14.1233 11.5716 14.0367 11.6583 13.93C11.7516 13.8233 11.8383 13.72 11.9183 13.62C12.0516 13.4467 12.1783 13.26 12.2983 13.06C12.4249 12.86 12.5316 12.6767 12.6183 12.51C12.6516 12.4567 12.6749 12.43 12.6883 12.43C12.7283 12.43 12.7483 12.4867 12.7483 12.6C12.7483 12.6533 12.7383 12.7133 12.7183 12.78C12.7049 12.8467 12.6816 12.9133 12.6483 12.98C12.5683 13.1133 12.4749 13.27 12.3683 13.45C12.2616 13.63 12.1416 13.8067 12.0083 13.98C11.8816 14.1533 11.7416 14.3033 11.5883 14.43C11.4416 14.55 11.2816 14.6267 11.1083 14.66C11.0949 14.66 11.0783 14.6633 11.0583 14.67C11.0383 14.67 11.0216 14.67 11.0083 14.67C10.8949 14.67 10.7849 14.6367 10.6783 14.57C10.5716 14.5033 10.4949 14.4067 10.4483 14.28C10.3683 14.36 10.2883 14.4333 10.2083 14.5C10.1283 14.5667 10.0483 14.63 9.96828 14.69C9.78161 14.8167 9.58161 14.9167 9.36828 14.99C9.15495 15.0633 8.91161 15.1 8.63828 15.1ZM8.86828 14.74C8.98161 14.74 9.11161 14.6833 9.25828 14.57C9.41161 14.45 9.55828 14.3033 9.69828 14.13C9.84495 13.95 9.96828 13.7767 10.0683 13.61C10.2216 13.35 10.3516 13.08 10.4583 12.8C10.5649 12.52 10.6183 12.2867 10.6183 12.1C10.6183 11.9333 10.5683 11.8367 10.4683 11.81C10.4549 11.8033 10.4383 11.8 10.4183 11.8C10.3983 11.8 10.3816 11.8 10.3683 11.8C10.2349 11.8 10.0849 11.8667 9.91828 12C9.79828 12.0933 9.66161 12.23 9.50828 12.41C9.35495 12.59 9.20495 12.7933 9.05828 13.02C8.91828 13.24 8.80161 13.4633 8.70828 13.69C8.62161 13.9167 8.57828 14.1267 8.57828 14.32C8.57828 14.3467 8.57828 14.3767 8.57828 14.41C8.58495 14.4433 8.59161 14.4767 8.59828 14.51C8.63161 14.6633 8.72161 14.74 8.86828 14.74ZM12.4019 12.39C12.4019 12.0033 12.4619 11.6433 12.5819 11.31C12.7019 10.97 12.8719 10.6767 13.0919 10.43C13.3185 10.1833 13.5919 9.99 13.9119 9.85C14.2319 9.71 14.5919 9.64 14.9919 9.64C15.4852 9.64 15.9519 9.73 16.3919 9.91L16.1319 10.9C15.9919 10.84 15.8319 10.79 15.6519 10.75C15.4785 10.71 15.2919 10.69 15.0919 10.69C14.6185 10.69 14.2585 10.84 14.0119 11.14C13.7652 11.4333 13.6419 11.85 13.6419 12.39C13.6419 12.91 13.7585 13.3233 13.9919 13.63C14.2252 13.93 14.6185 14.08 15.1719 14.08C15.3785 14.08 15.5819 14.06 15.7819 14.02C15.9819 13.98 16.1552 13.93 16.3019 13.87L16.4719 14.87C16.3385 14.9367 16.1352 14.9967 15.8619 15.05C15.5952 15.1033 15.3185 15.13 15.0319 15.13C14.5852 15.13 14.1952 15.0633 13.8619 14.93C13.5352 14.79 13.2619 14.6 13.0419 14.36C12.8285 14.1133 12.6685 13.8233 12.5619 13.49C12.4552 13.15 12.4019 12.7833 12.4019 12.39Z" fill="black"/>
</svg>
