<svg width="48" height="48" viewBox="0 0 48 48" fill="none" xmlns="http://www.w3.org/2000/svg">
<path fill-rule="evenodd" clip-rule="evenodd" d="M4.5 43V6H7.5V43H4.5Z" fill="#B480DE"/>
<path fill-rule="evenodd" clip-rule="evenodd" d="M40.5 43V6H43.5V43H40.5Z" fill="#B480DE"/>
<path fill-rule="evenodd" clip-rule="evenodd" d="M14.4471 14.7818C12.0513 12.4752 9.41182 11 6 11V9C10.0882 9 13.1987 10.8037 15.8342 13.341C17.9549 15.3828 19.8318 17.9675 21.6861 20.5212C22.1008 21.0923 22.5144 21.6618 22.9293 22.2234C25.2371 25.3469 27.6199 28.2783 30.6071 30.2983C33.5549 32.2918 37.1276 33.4206 41.8816 32.8538L42.1184 34.8397C36.8724 35.4652 32.8201 34.2093 29.4867 31.9551C26.1926 29.7274 23.6379 26.5481 21.3207 23.4119C20.8804 22.8159 20.4496 22.2232 20.0243 21.6378C18.1748 19.0927 16.4278 16.6887 14.4471 14.7818Z" fill="#B480DE"/>
<path fill-rule="evenodd" clip-rule="evenodd" d="M13.1457 21.9604C10.8164 19.4752 8.47858 17.6517 5.75781 16.9715L6.24288 15.0312C9.52212 15.8511 12.1843 18.01 14.605 20.5927C15.8197 21.8886 16.9957 23.3161 18.1689 24.7688C18.4045 25.0604 18.6398 25.3529 18.8754 25.6458C19.82 26.8199 20.7694 28.0001 21.7601 29.1575C26.6939 34.9217 32.4002 39.8226 41.9015 38.8786L42.0992 40.8688C31.6005 41.9119 25.3068 36.3768 20.2406 30.458C19.2281 29.2751 18.2546 28.0649 17.3083 26.8885C17.0749 26.5985 16.8432 26.3104 16.613 26.0254C15.4425 24.576 14.306 23.1983 13.1457 21.9604Z" fill="#B480DE"/>
<path fill-rule="evenodd" clip-rule="evenodd" d="M14.3695 34.4454C11.9427 37.3847 9.32264 39.1914 6 39.1914V41.1914C10.1774 41.1914 13.3073 38.8731 15.9118 35.7187C18.021 33.164 19.8857 29.9337 21.7395 26.7222C22.1551 26.0022 22.5701 25.2831 22.9873 24.5728C25.3009 20.6334 27.6965 16.9257 30.6949 14.3749C33.6435 11.8664 37.1721 10.4784 41.8517 11.1803L42.1483 9.20247C36.8279 8.4044 32.7315 10.0164 29.3989 12.8516C26.116 15.6446 23.5741 19.6244 21.2627 23.56C20.8248 24.3057 20.3955 25.0488 19.9711 25.7837C18.1207 28.9871 16.3616 32.0325 14.3695 34.4454Z" fill="#B480DE"/>
</svg>
