<svg width="48" height="48" viewBox="0 0 48 48" fill="none" xmlns="http://www.w3.org/2000/svg">
<path fill-rule="evenodd" clip-rule="evenodd" d="M10 7.5C8.61929 7.5 7.5 8.61929 7.5 10V15H4.5V10C4.5 6.96243 6.96243 4.5 10 4.5H15V7.5H10ZM38 7.5H33V4.5H38C41.0376 4.5 43.5 6.96243 43.5 10V15H40.5V10C40.5 8.61929 39.3807 7.5 38 7.5ZM7.5 33V38C7.5 39.3807 8.61929 40.5 10 40.5H15V43.5H10C6.96243 43.5 4.5 41.0376 4.5 38V33H7.5ZM40.5 38V33H43.5V38C43.5 41.0376 41.0376 43.5 38 43.5H33V40.5H38C39.3807 40.5 40.5 39.3807 40.5 38Z" fill="#B480DE"/>
<path fill-rule="evenodd" clip-rule="evenodd" d="M5 24C5 23.4477 5.44772 23 6 23H42C42.5523 23 43 23.4477 43 24C43 24.5523 42.5523 25 42 25H6C5.44772 25 5 24.5523 5 24Z" fill="#B480DE"/>
</svg>
