<svg width="24" height="24" viewBox="0 0 24 24" fill="none" xmlns="http://www.w3.org/2000/svg">
<path d="M3 6H21" stroke="black" stroke-linecap="round"/>
<path d="M3 11H21" stroke="black" stroke-linecap="round"/>
<path d="M3 16H21" stroke="black" stroke-linecap="round"/>
<path d="M3 20H21" stroke="black" stroke-width="1.5" stroke-linecap="round"/>
<path d="M14.2857 15.2083C14.2857 16.1058 13.5182 16.8333 12.5714 16.8333C11.6247 16.8333 10.8571 16.1058 10.8571 15.2083C10.8571 14.3109 11.6247 13.5833 12.5714 13.5833C13.5182 13.5833 14.2857 14.3109 14.2857 15.2083Z" fill="black"/>
<path d="M18.2857 9.25C19.2325 9.25 20 8.52247 20 7.625C20 6.72753 19.2325 6 18.2857 6C17.339 6 16.5714 6.72753 16.5714 7.625C16.5714 8.52247 17.339 9.25 18.2857 9.25Z" fill="black"/>
<path d="M14.2857 10.875C14.2857 11.7725 13.5182 12.5 12.5714 12.5C11.6247 12.5 10.8571 11.7725 10.8571 10.875C10.8571 9.97753 11.6247 9.25 12.5714 9.25C13.5182 9.25 14.2857 9.97753 14.2857 10.875Z" fill="black"/>
<path d="M7.42857 17.375C7.42857 18.2724 6.66106 19 5.71429 19C4.76751 19 4 18.2724 4 17.375C4 16.4776 4.76751 15.75 5.71429 15.75C6.66106 15.75 7.42857 16.4776 7.42857 17.375Z" fill="black"/>
<path d="M7.49986 14.5488C8.97915 14.5488 10.1784 13.3176 10.1784 11.7988C10.1784 10.28 8.97915 9.04883 7.49986 9.04883C6.02057 9.04883 4.82129 10.28 4.82129 11.7988C4.82129 13.3176 6.02057 14.5488 7.49986 14.5488Z" fill="black"/>
<path d="M17.6786 17.2988C19.1579 17.2988 20.3571 16.0676 20.3571 14.5488C20.3571 13.03 19.1579 11.7988 17.6786 11.7988C16.1993 11.7988 15 13.03 15 14.5488C15 16.0676 16.1993 17.2988 17.6786 17.2988Z" fill="black"/>
</svg>
