<svg width="48" height="48" viewBox="0 0 48 48" fill="none" xmlns="http://www.w3.org/2000/svg">
<path fill-rule="evenodd" clip-rule="evenodd" d="M5 12C5 11.4477 5.44772 11 6 11H42C42.5523 11 43 11.4477 43 12C43 12.5523 42.5523 13 42 13H6C5.44772 13 5 12.5523 5 12Z" fill="#DEDEDE"/>
<path fill-rule="evenodd" clip-rule="evenodd" d="M5 22C5 21.4477 5.44772 21 6 21H42C42.5523 21 43 21.4477 43 22C43 22.5523 42.5523 23 42 23H6C5.44772 23 5 22.5523 5 22Z" fill="#DEDEDE"/>
<path fill-rule="evenodd" clip-rule="evenodd" d="M5 32C5 31.4477 5.44772 31 6 31H42C42.5523 31 43 31.4477 43 32C43 32.5523 42.5523 33 42 33H6C5.44772 33 5 32.5523 5 32Z" fill="#DEDEDE"/>
<path fill-rule="evenodd" clip-rule="evenodd" d="M5 42.5C5 41.6716 5.67157 41 6.5 41H42.5C43.3284 41 44 41.6716 44 42.5C44 43.3284 43.3284 44 42.5 44H6.5C5.67157 44 5 43.3284 5 42.5Z" fill="#DEDEDE"/>
<path d="M28.2798 32.8333C28.2798 34.7663 26.6267 36.3333 24.5875 36.3333C22.5484 36.3333 20.8952 34.7663 20.8952 32.8333C20.8952 30.9004 22.5484 29.3333 24.5875 29.3333C26.6267 29.3333 28.2798 30.9004 28.2798 32.8333Z" fill="#B480DE"/>
<path d="M36.8952 20C38.9343 20 40.5875 18.433 40.5875 16.5C40.5875 14.567 38.9343 13 36.8952 13C34.8561 13 33.2029 14.567 33.2029 16.5C33.2029 18.433 34.8561 20 36.8952 20Z" fill="#B480DE"/>
<path d="M28.2798 23.5C28.2798 25.433 26.6267 27 24.5875 27C22.5484 27 20.8952 25.433 20.8952 23.5C20.8952 21.567 22.5484 20 24.5875 20C26.6267 20 28.2798 21.567 28.2798 23.5Z" fill="#B480DE"/>
<path d="M13.5106 37.5C13.5106 39.4329 11.8575 41 9.81828 41C7.77907 41 6.12598 39.4329 6.12598 37.5C6.12598 35.5671 7.77907 34 9.81828 34C11.8575 34 13.5106 35.5671 13.5106 37.5Z" fill="#B480DE"/>
<path d="M13.6638 31.4126C16.8499 31.4126 19.433 28.7607 19.433 25.4895C19.433 22.2182 16.8499 19.5664 13.6638 19.5664C10.4776 19.5664 7.89453 22.2182 7.89453 25.4895C7.89453 28.7607 10.4776 31.4126 13.6638 31.4126Z" fill="#B480DE"/>
<path d="M35.5871 37.3356C38.7733 37.3356 41.3564 34.6838 41.3564 31.4126C41.3564 28.1413 38.7733 25.4895 35.5871 25.4895C32.401 25.4895 29.8179 28.1413 29.8179 31.4126C29.8179 34.6838 32.401 37.3356 35.5871 37.3356Z" fill="#B480DE"/>
</svg>
