<svg width="48" height="48" viewBox="0 0 48 48" fill="none" xmlns="http://www.w3.org/2000/svg">
<path d="M6 10C6 7.79086 7.79086 6 10 6H38C40.2091 6 42 7.79086 42 10V30C42 32.2091 40.2091 34 38 34H10C7.79086 34 6 32.2091 6 30V10Z" fill="#E8E8E8"/>
<path fill-rule="evenodd" clip-rule="evenodd" d="M4.5 10C4.5 6.96243 6.96243 4.5 10 4.5H38C41.0376 4.5 43.5 6.96243 43.5 10V30C43.5 33.0376 41.0376 35.5 38 35.5H10C6.96243 35.5 4.5 33.0376 4.5 30V10ZM10 7.5C8.61929 7.5 7.5 8.61929 7.5 10V30C7.5 31.3807 8.61929 32.5 10 32.5H38C39.3807 32.5 40.5 31.3807 40.5 30V10C40.5 8.61929 39.3807 7.5 38 7.5H10Z" fill="#B480DE"/>
<path fill-rule="evenodd" clip-rule="evenodd" d="M4.5 40C4.5 39.1716 5.17157 38.5 6 38.5H42C42.8284 38.5 43.5 39.1716 43.5 40C43.5 40.8284 42.8284 41.5 42 41.5H6C5.17157 41.5 4.5 40.8284 4.5 40Z" fill="#B480DE"/>
<path fill-rule="evenodd" clip-rule="evenodd" d="M24 16.1217L27.9393 20.061C28.5251 20.6468 29.4749 20.6468 30.0607 20.061C30.6464 19.4752 30.6464 18.5255 30.0607 17.9397L25.3435 13.2225C24.6015 12.4805 23.3985 12.4805 22.6565 13.2225L17.9393 17.9397C17.3536 18.5255 17.3536 19.4752 17.9393 20.061C18.5251 20.6468 19.4749 20.6468 20.0607 20.061L24 16.1217Z" fill="#B480DE"/>
<path fill-rule="evenodd" clip-rule="evenodd" d="M24 12.5C24.8284 12.5 25.5 13.1716 25.5 14V28C25.5 28.8284 24.8284 29.5 24 29.5C23.1716 29.5 22.5 28.8284 22.5 28V14C22.5 13.1716 23.1716 12.5 24 12.5Z" fill="#B480DE"/>
</svg>
