<svg width="48" height="48" viewBox="0 0 48 48" fill="none" xmlns="http://www.w3.org/2000/svg">
<path d="M6 10C6 7.79086 7.79086 6 10 6H38C40.2091 6 42 7.79086 42 10V30C42 32.2091 40.2091 34 38 34H10C7.79086 34 6 32.2091 6 30V10Z" fill="#E8E8E8"/>
<path fill-rule="evenodd" clip-rule="evenodd" d="M4.5 10C4.5 6.96243 6.96243 4.5 10 4.5H38C41.0376 4.5 43.5 6.96243 43.5 10V30C43.5 33.0376 41.0376 35.5 38 35.5H10C6.96243 35.5 4.5 33.0376 4.5 30V10ZM10 7.5C8.61929 7.5 7.5 8.61929 7.5 10V30C7.5 31.3807 8.61929 32.5 10 32.5H38C39.3807 32.5 40.5 31.3807 40.5 30V10C40.5 8.61929 39.3807 7.5 38 7.5H10Z" fill="#B480DE"/>
<path fill-rule="evenodd" clip-rule="evenodd" d="M4.5 40C4.5 39.1716 5.17157 38.5 6 38.5H42C42.8284 38.5 43.5 39.1716 43.5 40C43.5 40.8284 42.8284 41.5 42 41.5H6C5.17157 41.5 4.5 40.8284 4.5 40Z" fill="#B480DE"/>
<path fill-rule="evenodd" clip-rule="evenodd" d="M24 15.4145L28.2929 19.7074C28.6834 20.098 29.3166 20.098 29.7071 19.7074C30.0976 19.3169 30.0976 18.6837 29.7071 18.2932L24.9899 13.5761C24.4432 13.0293 23.5568 13.0293 23.0101 13.5761L18.2929 18.2932C17.9024 18.6837 17.9024 19.3169 18.2929 19.7074C18.6834 20.098 19.3166 20.098 19.7071 19.7074L24 15.4145Z" fill="#B480DE"/>
<path fill-rule="evenodd" clip-rule="evenodd" d="M24 13C24.5523 13 25 13.4477 25 14V28C25 28.5523 24.5523 29 24 29C23.4477 29 23 28.5523 23 28V14C23 13.4477 23.4477 13 24 13Z" fill="#B480DE"/>
</svg>
