<svg width="48" height="48" viewBox="0 0 48 48" fill="none" xmlns="http://www.w3.org/2000/svg">
<path d="M5 21C5 18.7909 6.79086 17 9 17H39C41.2091 17 43 18.7909 43 21V27C43 29.2091 41.2091 31 39 31H9C6.79086 31 5 29.2091 5 27V21Z" fill="#E8E8E8"/>
<path fill-rule="evenodd" clip-rule="evenodd" d="M4 21C4 18.2386 6.23858 16 9 16H39C41.7614 16 44 18.2386 44 21V27C44 29.7614 41.7614 32 39 32H9C6.23858 32 4 29.7614 4 27V21ZM9 18C7.34315 18 6 19.3431 6 21V27C6 28.6569 7.34315 30 9 30H39C40.6569 30 42 28.6569 42 27V21C42 19.3431 40.6569 18 39 18H9Z" fill="#B480DE"/>
<path fill-rule="evenodd" clip-rule="evenodd" d="M22 23H10V25H22V23ZM10 21C8.89543 21 8 21.8954 8 23V25C8 26.1046 8.89543 27 10 27H22C23.1046 27 24 26.1046 24 25V23C24 21.8954 23.1046 21 22 21H10Z" fill="#B480DE"/>
<path d="M26 23C26 21.8954 26.8954 21 28 21H38C39.1046 21 40 21.8954 40 23V25C40 26.1046 39.1046 27 38 27H28C26.8954 27 26 26.1046 26 25V23Z" fill="#B480DE"/>
</svg>
