<svg width="48" height="48" viewBox="0 0 48 48" fill="none" xmlns="http://www.w3.org/2000/svg">
<rect width="48" height="48" fill="white"/>
<path fill-rule="evenodd" clip-rule="evenodd" d="M4 11.5C4 8.46243 6.46243 6 9.5 6H37.5C40.5376 6 43 8.46243 43 11.5V15.5C43 18.5376 40.5376 21 37.5 21H9.5C6.46243 21 4 18.5376 4 15.5V11.5ZM9.5 9C8.11929 9 7 10.1193 7 11.5V15.5C7 16.8807 8.11929 18 9.5 18H37.5C38.8807 18 40 16.8807 40 15.5V11.5C40 10.1193 38.8807 9 37.5 9H9.5Z" fill="#B480DE"/>
<path fill-rule="evenodd" clip-rule="evenodd" d="M30.7929 15.2071C31.1834 15.5976 31.8166 15.5976 32.2071 15.2071L33.5 13.9142L34.7929 15.2071C35.1834 15.5976 35.8166 15.5976 36.2071 15.2071C36.5976 14.8166 36.5976 14.1834 36.2071 13.7929L34.4899 12.0757C33.9432 11.529 33.0568 11.529 32.5101 12.0757L30.7929 13.7929C30.4024 14.1834 30.4024 14.8166 30.7929 15.2071Z" fill="#B480DE"/>
<path fill-rule="evenodd" clip-rule="evenodd" d="M4 29.5C4 28.6716 4.67157 28 5.5 28H29.5C30.3284 28 31 28.6716 31 29.5C31 30.3284 30.3284 31 29.5 31H5.5C4.67157 31 4 30.3284 4 29.5Z" fill="#B480DE"/>
<path fill-rule="evenodd" clip-rule="evenodd" d="M4 39.5C4 38.6716 4.67157 38 5.5 38H29.5C30.3284 38 31 38.6716 31 39.5C31 40.3284 30.3284 41 29.5 41H5.5C4.67157 41 4 40.3284 4 39.5Z" fill="#B480DE"/>
<path fill-rule="evenodd" clip-rule="evenodd" d="M43.2756 35.8688C43.6242 36.2971 43.5596 36.927 43.1313 37.2756L36.9884 42.2756C36.5835 42.6052 35.9931 42.5678 35.633 42.1897L32.7759 39.1897C32.395 38.7898 32.4104 38.1568 32.8103 37.7759C33.2103 37.395 33.8433 37.4104 34.2241 37.8104L36.4433 40.1405L41.8687 35.7245C42.2971 35.3758 42.9269 35.4404 43.2756 35.8688Z" fill="#B480DE"/>
</svg>
