<svg width="48" height="48" viewBox="0 0 48 48" fill="none" xmlns="http://www.w3.org/2000/svg">
<rect width="48" height="48" fill="white"/>
<path fill-rule="evenodd" clip-rule="evenodd" d="M25.5 28C25.5 26.067 27.067 24.5 29 24.5H41C42.933 24.5 44.5 26.067 44.5 28V40C44.5 41.933 42.933 43.5 41 43.5H29C27.067 43.5 25.5 41.933 25.5 40V28ZM29 27.5C28.7239 27.5 28.5 27.7239 28.5 28V40C28.5 40.2761 28.7239 40.5 29 40.5H41C41.2761 40.5 41.5 40.2761 41.5 40V28C41.5 27.7239 41.2761 27.5 41 27.5H29Z" fill="#B480DE"/>
<path fill-rule="evenodd" clip-rule="evenodd" d="M3.5 34C3.5 28.7533 7.75329 24.5 13 24.5C18.2467 24.5 22.5 28.7533 22.5 34C22.5 39.2467 18.2467 43.5 13 43.5C7.75329 43.5 3.5 39.2467 3.5 34ZM13 27.5C9.41015 27.5 6.5 30.4101 6.5 34C6.5 37.5899 9.41015 40.5 13 40.5C16.5899 40.5 19.5 37.5899 19.5 34C19.5 30.4101 16.5899 27.5 13 27.5Z" fill="#B480DE"/>
<path fill-rule="evenodd" clip-rule="evenodd" d="M23.9994 7.35382L18.4264 18.4997H29.5723L23.9994 7.35382ZM22.3 4.04444C23.0002 2.64405 24.9986 2.64404 25.6988 4.04443L33.0516 18.75C33.6832 20.0133 32.7646 21.4997 31.3522 21.4997H16.6466C15.2342 21.4997 14.3155 20.0133 14.9472 18.75L22.3 4.04444Z" fill="#B480DE"/>
</svg>
