<svg width="24" height="24" viewBox="0 0 24 24" fill="none" xmlns="http://www.w3.org/2000/svg">
<path d="M8.32149 18.3279L8.06144 20.4893C8.03028 20.7483 8.25139 20.9674 8.51009 20.9338L10.0616 20.7323C10.9909 20.6116 11.8484 20.1684 12.4843 19.4802L21.8624 9.33073C21.9466 9.23956 21.9718 9.10845 21.9272 8.99261L21.8975 8.91546C21.4042 7.63418 20.4075 6.61092 19.1397 6.08403C19.0182 6.03355 18.8782 6.06421 18.7889 6.16081L9.09661 16.6503C8.66815 17.114 8.3969 17.7011 8.32149 18.3279Z" stroke="black" stroke-width="1.5"/>
<path d="M16.5 9.5L19 12" stroke="black" stroke-width="1.5" stroke-linecap="square"/>
<path d="M6.49957 9.5C6.49957 9.5 2.38595 10.0271 1.99957 12C1.62429 13.9162 4.7957 14.0581 4.99957 16C5.14799 17.4138 3.51013 17.1654 3.99957 18.5C4.43006 19.6738 6.49963 20.5 6.49963 20.5" stroke="black" stroke-linecap="round"/>
</svg>
