<svg width="48" height="48" viewBox="0 0 48 48" fill="none" xmlns="http://www.w3.org/2000/svg">
<path d="M15.7047 36.0368L15.1846 40.3596C15.1223 40.8776 15.5645 41.3157 16.0819 41.2485L19.185 40.8455C21.0436 40.6041 22.7585 39.7178 24.0304 38.3413L42.7865 18.0424C42.955 17.8601 43.0052 17.5979 42.916 17.3662C41.9105 14.7546 39.9406 12.6293 37.3411 11.549C37.0982 11.4481 36.8181 11.5094 36.6395 11.7026L17.2549 32.6816C16.398 33.609 15.8555 34.7831 15.7047 36.0368Z" fill="#E8E8E8"/>
<path fill-rule="evenodd" clip-rule="evenodd" d="M37.916 10.1639L37.3412 11.5472L37.916 10.164C40.9191 11.412 43.1722 13.8585 44.3152 16.8273C44.6097 17.5924 44.4439 18.4584 43.8875 19.0605L25.1314 39.3593C23.621 40.994 21.5846 42.0464 19.3775 42.3331L16.2744 42.7361C14.7868 42.9292 13.5155 41.6698 13.6946 40.1805L14.2147 35.8577C14.4033 34.2906 15.0814 32.823 16.1525 31.6637L35.5371 10.6847C36.1425 10.0295 37.0923 9.82163 37.916 10.1639ZM37.3115 13.185L18.3559 33.6996C17.7132 34.3952 17.3064 35.2758 17.1932 36.216L16.7807 39.6451L18.9911 39.358C20.5012 39.1619 21.8945 38.4418 22.928 37.3234L41.3148 17.4242C40.4847 15.5802 39.0883 14.079 37.3115 13.185ZM41.6841 17.0245L41.6833 17.0254L41.6841 17.0245ZM37.7398 12.7215C37.74 12.7212 37.7403 12.7209 37.7405 12.7206L37.0996 12.1284L37.7405 12.7206L37.7398 12.7215Z" fill="#B480DE"/>
<path fill-rule="evenodd" clip-rule="evenodd" d="M32.0617 16.2607L39.1831 23.3821L37.0617 25.5034L29.9404 18.3821L32.0617 16.2607Z" fill="#B480DE"/>
<path fill-rule="evenodd" clip-rule="evenodd" d="M12.1892 19.3736C12.1892 19.3736 12.1893 19.3736 12.1892 19.3736L12.1865 19.374L12.1726 19.3759L12.1114 19.3844C12.0563 19.3923 11.9732 19.4047 11.866 19.422C11.6514 19.4566 11.341 19.5108 10.9649 19.5878C10.2098 19.7425 9.20391 19.9868 8.18309 20.3456C7.15431 20.7071 6.1576 21.1687 5.39034 21.7387C4.6207 22.3104 4.17063 22.9228 4.04311 23.574C3.91817 24.2119 4.07301 24.6567 4.4095 25.0819C4.79312 25.5668 5.39589 26.0028 6.18465 26.5322C6.25538 26.5796 6.32764 26.6279 6.40113 26.6769C7.09373 27.1393 7.89537 27.6745 8.54956 28.3209C9.299 29.0614 9.92319 30.0095 10.0563 31.2774C10.1528 32.1962 9.95851 32.9237 9.58037 33.5176C9.26129 34.0188 8.82757 34.3862 8.52993 34.6383C8.50393 34.6603 8.47897 34.6815 8.45521 34.7017C8.10718 34.9988 7.97766 35.1406 7.91771 35.2762C7.88549 35.3492 7.81811 35.5398 8.00061 36.0375C8.14329 36.4265 8.44719 36.8456 8.89603 37.2732C9.33872 37.695 9.87533 38.0806 10.4107 38.4117C10.943 38.7409 11.4537 39.0038 11.8323 39.1844C12.0209 39.2744 12.1748 39.3431 12.2799 39.3886C12.3324 39.4114 12.3726 39.4283 12.3987 39.4391L12.4269 39.4507L12.4326 39.4531C12.9453 39.6579 13.1953 40.2397 12.9906 40.7525C12.7859 41.2655 12.2041 41.5153 11.6911 41.3105L12.0619 40.3818C11.6911 41.3105 11.6913 41.3106 11.6911 41.3105L11.6851 41.3081L11.673 41.3032L11.6317 41.2862C11.5967 41.2717 11.5471 41.2508 11.4848 41.2238C11.3601 41.1698 11.184 41.0911 10.971 40.9894C10.5466 40.7869 9.96872 40.4899 9.35868 40.1127C8.75162 39.7372 8.09201 39.2696 7.51646 38.7212C6.94707 38.1788 6.41071 37.5109 6.1229 36.7261C5.81596 35.8891 5.79096 35.1409 6.08835 34.4679C6.35476 33.865 6.83363 33.4563 7.14544 33.1902L7.17067 33.1687C7.52614 32.8653 7.74208 32.681 7.89329 32.4435C8.01527 32.2519 8.11918 31.9811 8.06722 31.4862C7.99645 30.8121 7.67489 30.2683 7.14382 29.7435C6.63361 29.2394 5.99383 28.8112 5.27067 28.3272C5.20451 28.2829 5.13765 28.2381 5.07013 28.1928C4.31604 27.6867 3.44834 27.0905 2.84105 26.3229C2.18661 25.4958 1.83006 24.4678 2.0804 23.1896C2.33925 21.8679 3.20737 20.8689 4.19768 20.1332C5.19037 19.3958 6.39536 18.8539 7.51998 18.4587C8.65257 18.0607 9.75184 17.7948 10.5635 17.6285C10.9707 17.5451 11.3091 17.486 11.5475 17.4476C11.6667 17.4283 11.7612 17.4142 11.827 17.4048L11.9037 17.394L11.9251 17.3911L11.9314 17.3903L11.9334 17.3901C11.9337 17.39 11.9347 17.3899 12.0618 18.3818L11.9334 17.3901C12.4812 17.3199 12.9834 17.7069 13.0536 18.2547C13.1238 18.8023 12.7368 19.3032 12.1892 19.3736Z" fill="#B480DE"/>
</svg>
