<svg width="48" height="48" viewBox="0 0 48 48" fill="none" xmlns="http://www.w3.org/2000/svg">
<path d="M6 11.2353C6 8.89621 7.79086 7 10 7H38C40.2091 7 42 8.89621 42 11.2353V38.7647C42 41.1038 40.2091 43 38 43H10C7.79086 43 6 41.1038 6 38.7647V11.2353Z" fill="#E8E8E8"/>
<path fill-rule="evenodd" clip-rule="evenodd" d="M9 24.8531C9 24.3657 9.39504 23.9707 9.88235 23.9707L38.1176 23.9707C38.605 23.9707 39 24.3657 39 24.8531C39 25.3404 38.605 25.7354 38.1176 25.7354L9.88235 25.7354C9.39504 25.7354 9 25.3404 9 24.8531Z" fill="#B480DE"/>
<path d="M32.8235 24.8531C32.8235 26.8024 31.2433 28.3826 29.2941 28.3826C27.3448 28.3826 25.7646 26.8024 25.7646 24.8531C25.7646 22.9039 27.3448 21.3237 29.2941 21.3237C31.2433 21.3237 32.8235 22.9039 32.8235 24.8531Z" fill="white"/>
<path fill-rule="evenodd" clip-rule="evenodd" d="M29.2943 22.6471C28.0761 22.6471 27.0885 23.6347 27.0885 24.8529C27.0885 26.0712 28.0761 27.0588 29.2943 27.0588C30.5126 27.0588 31.5002 26.0712 31.5002 24.8529C31.5002 23.6347 30.5126 22.6471 29.2943 22.6471ZM24.4414 24.8529C24.4414 22.1727 26.6141 20 29.2943 20C31.9746 20 34.1473 22.1727 34.1473 24.8529C34.1473 27.5331 31.9746 29.7059 29.2943 29.7059C26.6141 29.7059 24.4414 27.5331 24.4414 24.8529Z" fill="#B480DE"/>
</svg>
