<svg width="48" height="48" viewBox="0 0 48 48" fill="none" xmlns="http://www.w3.org/2000/svg">
<path fill-rule="evenodd" clip-rule="evenodd" d="M5 24C5 23.4477 5.44772 23 6 23H42C42.5523 23 43 23.4477 43 24C43 24.5523 42.5523 25 42 25H6C5.44772 25 5 24.5523 5 24Z" fill="#B480DE"/>
<path d="M36 24C36 26.2091 34.2091 28 32 28C29.7909 28 28 26.2091 28 24C28 21.7909 29.7909 20 32 20C34.2091 20 36 21.7909 36 24Z" fill="white"/>
<path fill-rule="evenodd" clip-rule="evenodd" d="M32 21.5C30.6193 21.5 29.5 22.6193 29.5 24C29.5 25.3807 30.6193 26.5 32 26.5C33.3807 26.5 34.5 25.3807 34.5 24C34.5 22.6193 33.3807 21.5 32 21.5ZM26.5 24C26.5 20.9624 28.9624 18.5 32 18.5C35.0376 18.5 37.5 20.9624 37.5 24C37.5 27.0376 35.0376 29.5 32 29.5C28.9624 29.5 26.5 27.0376 26.5 24Z" fill="#B480DE"/>
</svg>
