<svg width="24" height="24" viewBox="0 0 24 24" fill="none" xmlns="http://www.w3.org/2000/svg">
<path d="M22 20H21.3H17C15.8954 20 15 19.1046 15 18V6C15 4.89543 15.8954 4 17 4H22" stroke="black"/>
<path d="M2 20H2.7H7C8.10457 20 9 19.1046 9 18V6C9 4.89543 8.10457 4 7 4H2" stroke="black"/>
<path d="M12 4V20" stroke="black" stroke-width="1.5" stroke-linecap="round"/>
<path d="M20.2143 9L21.917 11.3838C21.9666 11.4533 21.9666 11.5467 21.917 11.6162L20.2143 14" stroke="black" stroke-linecap="round"/>
<path d="M22 11.5H17" stroke="black" stroke-linecap="round"/>
<path d="M3.78571 14L2.08303 11.6162C2.03336 11.5467 2.03336 11.4533 2.08303 11.3838L3.78571 9" stroke="black" stroke-linecap="round"/>
<path d="M2 11.5H7" stroke="black" stroke-linecap="round"/>
</svg>
