<svg width="24" height="24" viewBox="0 0 24 24" fill="none" xmlns="http://www.w3.org/2000/svg">
<path d="M17.5539 4.25C17.7439 4.17667 17.9289 4.08333 18.1089 3.97C18.2889 3.85333 18.4539 3.70833 18.6039 3.535H18.9339V7H18.4689V4.18C18.4289 4.21667 18.3789 4.255 18.3189 4.295C18.2622 4.335 18.1989 4.37333 18.1289 4.41C18.0622 4.44667 17.9905 4.48167 17.9139 4.515C17.8405 4.54833 17.7689 4.57667 17.6989 4.6L17.5539 4.25Z" fill="black"/>
<path d="M19.4239 11.42C19.4239 11.54 19.3989 11.6567 19.3489 11.77C19.3022 11.88 19.2389 11.99 19.1589 12.1C19.0789 12.2067 18.9889 12.3133 18.8889 12.42C18.7889 12.5233 18.6889 12.625 18.5889 12.725C18.5322 12.7817 18.4655 12.8483 18.3889 12.925C18.3155 13.0017 18.2455 13.0817 18.1789 13.165C18.1122 13.2483 18.0555 13.3283 18.0089 13.405C17.9655 13.4817 17.9439 13.5483 17.9439 13.605H19.5389V14H17.4389C17.4355 13.98 17.4339 13.96 17.4339 13.94C17.4339 13.92 17.4339 13.9017 17.4339 13.885C17.4339 13.7283 17.4589 13.5833 17.5089 13.45C17.5622 13.3133 17.6305 13.185 17.7139 13.065C17.7972 12.945 17.8905 12.8317 17.9939 12.725C18.0972 12.6183 18.1989 12.515 18.2989 12.415C18.3822 12.335 18.4605 12.2567 18.5339 12.18C18.6105 12.1 18.6772 12.0217 18.7339 11.945C18.7939 11.865 18.8405 11.7833 18.8739 11.7C18.9105 11.6167 18.9289 11.5283 18.9289 11.435C18.9289 11.335 18.9122 11.25 18.8789 11.18C18.8489 11.11 18.8072 11.0517 18.7539 11.005C18.7005 10.9583 18.6372 10.925 18.5639 10.905C18.4939 10.8817 18.4189 10.87 18.3389 10.87C18.2422 10.87 18.1539 10.8833 18.0739 10.91C17.9939 10.9367 17.9222 10.9683 17.8589 11.005C17.7955 11.0383 17.7422 11.075 17.6989 11.115C17.6555 11.1517 17.6222 11.18 17.5989 11.2L17.3689 10.87C17.3989 10.8367 17.4439 10.7967 17.5039 10.75C17.5639 10.7 17.6355 10.6533 17.7189 10.61C17.8022 10.5667 17.8955 10.53 17.9989 10.5C18.1022 10.47 18.2139 10.455 18.3339 10.455C18.6972 10.455 18.9689 10.54 19.1489 10.71C19.3322 10.8767 19.4239 11.1133 19.4239 11.42Z" fill="black"/>
<path d="M18.2189 20.66C18.5155 20.66 18.7272 20.6017 18.8539 20.485C18.9839 20.3683 19.0489 20.2117 19.0489 20.015C19.0489 19.8883 19.0222 19.7817 18.9689 19.695C18.9155 19.6083 18.8455 19.54 18.7589 19.49C18.6722 19.4367 18.5705 19.4 18.4539 19.38C18.3405 19.3567 18.2239 19.345 18.1039 19.345H17.9839V18.965H18.1489C18.2322 18.965 18.3172 18.9567 18.4039 18.94C18.4939 18.9233 18.5755 18.8933 18.6489 18.85C18.7222 18.8067 18.7822 18.7483 18.8289 18.675C18.8755 18.5983 18.8989 18.5033 18.8989 18.39C18.8989 18.2967 18.8822 18.2167 18.8489 18.15C18.8155 18.0833 18.7705 18.0283 18.7139 17.985C18.6605 17.9417 18.5972 17.9117 18.5239 17.895C18.4539 17.875 18.3789 17.865 18.2989 17.865C18.1389 17.865 18.0022 17.8883 17.8889 17.935C17.7789 17.9817 17.6855 18.03 17.6089 18.08L17.4289 17.725C17.4689 17.6983 17.5189 17.67 17.5789 17.64C17.6422 17.6067 17.7122 17.5767 17.7889 17.55C17.8655 17.5233 17.9472 17.5017 18.0339 17.485C18.1239 17.465 18.2172 17.455 18.3139 17.455C18.4972 17.455 18.6555 17.4783 18.7889 17.525C18.9222 17.5683 19.0322 17.6317 19.1189 17.715C19.2055 17.795 19.2705 17.8917 19.3139 18.005C19.3572 18.115 19.3789 18.235 19.3789 18.365C19.3789 18.545 19.3272 18.7 19.2239 18.83C19.1205 18.9567 18.9955 19.0533 18.8489 19.12C18.9389 19.1467 19.0255 19.185 19.1089 19.235C19.1922 19.285 19.2639 19.3483 19.3239 19.425C19.3872 19.5017 19.4372 19.59 19.4739 19.69C19.5139 19.79 19.5339 19.9017 19.5339 20.025C19.5339 20.175 19.5072 20.315 19.4539 20.445C19.4039 20.5717 19.3239 20.6817 19.2139 20.775C19.1072 20.8683 18.9722 20.9417 18.8089 20.995C18.6455 21.0483 18.4522 21.075 18.2289 21.075C18.1422 21.075 18.0522 21.0683 17.9589 21.055C17.8689 21.0417 17.7839 21.025 17.7039 21.005C17.6239 20.985 17.5539 20.965 17.4939 20.945C17.4339 20.925 17.3905 20.9083 17.3639 20.895L17.4539 20.49C17.5105 20.5167 17.6039 20.5517 17.7339 20.595C17.8672 20.6383 18.0289 20.66 18.2189 20.66Z" fill="black"/>
<path d="M5.5 7V17.5" stroke="black" stroke-linecap="round"/>
<path d="M10 5.5H14" stroke="black" stroke-width="1.5" stroke-linecap="round"/>
<path d="M10 12.5H14" stroke="black" stroke-width="1.5" stroke-linecap="round"/>
<path d="M10 19.5H14" stroke="black" stroke-width="1.5" stroke-linecap="round"/>
<rect x="4" y="11" width="3" height="3" rx="1.5" fill="white" stroke="black" stroke-width="1.5"/>
<rect x="4" y="18" width="3" height="3" rx="1.5" fill="white" stroke="black" stroke-width="1.5"/>
<rect x="4" y="4" width="3" height="3" rx="1.5" fill="white" stroke="black" stroke-width="1.5"/>
</svg>
