<svg width="48" height="48" viewBox="0 0 48 48" fill="none" xmlns="http://www.w3.org/2000/svg">
<path d="M35.1094 8.50031C35.4894 8.35365 35.8594 8.16698 36.2194 7.94031C36.5794 7.70698 36.9094 7.41698 37.2094 7.07031H37.8694V14.0003H36.9394V8.36031C36.8594 8.43365 36.7594 8.51031 36.6394 8.59031C36.526 8.67031 36.3994 8.74698 36.2594 8.82031C36.126 8.89365 35.9827 8.96365 35.8294 9.03031C35.6827 9.09698 35.5394 9.15365 35.3994 9.20031L35.1094 8.50031Z" fill="#B480DE"/>
<path d="M38.8483 22.8402C38.8483 23.0802 38.7983 23.3135 38.6983 23.5402C38.6049 23.7602 38.4783 23.9802 38.3183 24.2002C38.1583 24.4135 37.9783 24.6268 37.7783 24.8402C37.5783 25.0468 37.3783 25.2502 37.1783 25.4502C37.0649 25.5635 36.9316 25.6968 36.7783 25.8502C36.6316 26.0035 36.4916 26.1635 36.3583 26.3302C36.2249 26.4968 36.1116 26.6568 36.0183 26.8102C35.9316 26.9635 35.8883 27.0968 35.8883 27.2102H39.0783V28.0002H34.8783C34.8716 27.9602 34.8683 27.9202 34.8683 27.8802C34.8683 27.8402 34.8683 27.8035 34.8683 27.7702C34.8683 27.4568 34.9183 27.1668 35.0183 26.9002C35.1249 26.6268 35.2616 26.3702 35.4283 26.1302C35.5949 25.8902 35.7816 25.6635 35.9883 25.4502C36.1949 25.2368 36.3983 25.0302 36.5983 24.8302C36.7649 24.6702 36.9216 24.5135 37.0683 24.3602C37.2216 24.2002 37.3549 24.0435 37.4683 23.8902C37.5883 23.7302 37.6816 23.5668 37.7483 23.4002C37.8216 23.2335 37.8583 23.0568 37.8583 22.8702C37.8583 22.6702 37.8249 22.5002 37.7583 22.3602C37.6983 22.2202 37.6149 22.1035 37.5083 22.0102C37.4016 21.9168 37.2749 21.8502 37.1283 21.8102C36.9883 21.7635 36.8383 21.7402 36.6783 21.7402C36.4849 21.7402 36.3083 21.7668 36.1483 21.8202C35.9883 21.8735 35.8449 21.9368 35.7183 22.0102C35.5916 22.0768 35.4849 22.1502 35.3983 22.2302C35.3116 22.3035 35.2449 22.3602 35.1983 22.4002L34.7383 21.7402C34.7983 21.6735 34.8883 21.5935 35.0083 21.5002C35.1283 21.4002 35.2716 21.3068 35.4383 21.2202C35.6049 21.1335 35.7916 21.0602 35.9983 21.0002C36.2049 20.9402 36.4283 20.9102 36.6683 20.9102C37.3949 20.9102 37.9383 21.0802 38.2983 21.4202C38.6649 21.7535 38.8483 22.2268 38.8483 22.8402Z" fill="#B480DE"/>
<path d="M36.4385 41.3202C37.0318 41.3202 37.4552 41.2035 37.7085 40.9702C37.9685 40.7368 38.0985 40.4235 38.0985 40.0302C38.0985 39.7768 38.0452 39.5635 37.9385 39.3902C37.8318 39.2168 37.6918 39.0802 37.5185 38.9802C37.3452 38.8735 37.1418 38.8002 36.9085 38.7602C36.6818 38.7135 36.4485 38.6902 36.2085 38.6902H35.9685V37.9302H36.2985C36.4652 37.9302 36.6352 37.9135 36.8085 37.8802C36.9885 37.8468 37.1518 37.7868 37.2985 37.7002C37.4452 37.6135 37.5652 37.4968 37.6585 37.3502C37.7518 37.1968 37.7985 37.0068 37.7985 36.7802C37.7985 36.5935 37.7652 36.4335 37.6985 36.3002C37.6318 36.1668 37.5418 36.0568 37.4285 35.9702C37.3218 35.8835 37.1952 35.8235 37.0485 35.7902C36.9085 35.7502 36.7585 35.7302 36.5985 35.7302C36.2785 35.7302 36.0052 35.7768 35.7785 35.8702C35.5585 35.9635 35.3718 36.0602 35.2185 36.1602L34.8585 35.4502C34.9385 35.3968 35.0385 35.3402 35.1585 35.2802C35.2852 35.2135 35.4252 35.1535 35.5785 35.1002C35.7318 35.0468 35.8952 35.0035 36.0685 34.9702C36.2485 34.9302 36.4352 34.9102 36.6285 34.9102C36.9952 34.9102 37.3118 34.9568 37.5785 35.0502C37.8452 35.1368 38.0652 35.2635 38.2385 35.4302C38.4118 35.5902 38.5418 35.7835 38.6285 36.0102C38.7152 36.2302 38.7585 36.4702 38.7585 36.7302C38.7585 37.0902 38.6552 37.4002 38.4485 37.6602C38.2418 37.9135 37.9918 38.1068 37.6985 38.2402C37.8785 38.2935 38.0518 38.3702 38.2185 38.4702C38.3852 38.5702 38.5285 38.6968 38.6485 38.8502C38.7752 39.0035 38.8752 39.1802 38.9485 39.3802C39.0285 39.5802 39.0685 39.8035 39.0685 40.0502C39.0685 40.3502 39.0152 40.6302 38.9085 40.8902C38.8085 41.1435 38.6485 41.3635 38.4285 41.5502C38.2152 41.7368 37.9452 41.8835 37.6185 41.9902C37.2918 42.0968 36.9052 42.1502 36.4585 42.1502C36.2852 42.1502 36.1052 42.1368 35.9185 42.1102C35.7385 42.0835 35.5685 42.0502 35.4085 42.0102C35.2485 41.9702 35.1085 41.9302 34.9885 41.8902C34.8685 41.8502 34.7818 41.8168 34.7285 41.7902L34.9085 40.9802C35.0218 41.0335 35.2085 41.1035 35.4685 41.1902C35.7352 41.2768 36.0585 41.3202 36.4385 41.3202Z" fill="#B480DE"/>
<path fill-rule="evenodd" clip-rule="evenodd" d="M11 13C11.5523 13 12 13.4477 12 14V35C12 35.5523 11.5523 36 11 36C10.4477 36 10 35.5523 10 35V14C10 13.4477 10.4477 13 11 13Z" fill="#B480DE"/>
<path fill-rule="evenodd" clip-rule="evenodd" d="M18.5 11C18.5 10.1716 19.1716 9.5 20 9.5H28C28.8284 9.5 29.5 10.1716 29.5 11C29.5 11.8284 28.8284 12.5 28 12.5H20C19.1716 12.5 18.5 11.8284 18.5 11Z" fill="#B480DE"/>
<path fill-rule="evenodd" clip-rule="evenodd" d="M18.5 25C18.5 24.1716 19.1716 23.5 20 23.5H28C28.8284 23.5 29.5 24.1716 29.5 25C29.5 25.8284 28.8284 26.5 28 26.5H20C19.1716 26.5 18.5 25.8284 18.5 25Z" fill="#B480DE"/>
<path fill-rule="evenodd" clip-rule="evenodd" d="M18.5 39C18.5 38.1716 19.1716 37.5 20 37.5H28C28.8284 37.5 29.5 38.1716 29.5 39C29.5 39.8284 28.8284 40.5 28 40.5H20C19.1716 40.5 18.5 39.8284 18.5 39Z" fill="#B480DE"/>
<path d="M8 25C8 23.3431 9.34315 22 11 22C12.6569 22 14 23.3431 14 25C14 26.6569 12.6569 28 11 28C9.34315 28 8 26.6569 8 25Z" fill="white"/>
<path fill-rule="evenodd" clip-rule="evenodd" d="M6.5 25C6.5 22.5147 8.51472 20.5 11 20.5C13.4853 20.5 15.5 22.5147 15.5 25C15.5 27.4853 13.4853 29.5 11 29.5C8.51472 29.5 6.5 27.4853 6.5 25ZM11 23.5C10.1716 23.5 9.5 24.1716 9.5 25C9.5 25.8284 10.1716 26.5 11 26.5C11.8284 26.5 12.5 25.8284 12.5 25C12.5 24.1716 11.8284 23.5 11 23.5Z" fill="#B480DE"/>
<path d="M8 39C8 37.3431 9.34315 36 11 36C12.6569 36 14 37.3431 14 39C14 40.6569 12.6569 42 11 42C9.34315 42 8 40.6569 8 39Z" fill="white"/>
<path fill-rule="evenodd" clip-rule="evenodd" d="M6.5 39C6.5 36.5147 8.51472 34.5 11 34.5C13.4853 34.5 15.5 36.5147 15.5 39C15.5 41.4853 13.4853 43.5 11 43.5C8.51472 43.5 6.5 41.4853 6.5 39ZM11 37.5C10.1716 37.5 9.5 38.1716 9.5 39C9.5 39.8284 10.1716 40.5 11 40.5C11.8284 40.5 12.5 39.8284 12.5 39C12.5 38.1716 11.8284 37.5 11 37.5Z" fill="#B480DE"/>
<path d="M8 11C8 9.34315 9.34315 8 11 8C12.6569 8 14 9.34315 14 11C14 12.6569 12.6569 14 11 14C9.34315 14 8 12.6569 8 11Z" fill="white"/>
<path fill-rule="evenodd" clip-rule="evenodd" d="M6.5 11C6.5 8.51472 8.51472 6.5 11 6.5C13.4853 6.5 15.5 8.51472 15.5 11C15.5 13.4853 13.4853 15.5 11 15.5C8.51472 15.5 6.5 13.4853 6.5 11ZM11 9.5C10.1716 9.5 9.5 10.1716 9.5 11C9.5 11.8284 10.1716 12.5 11 12.5C11.8284 12.5 12.5 11.8284 12.5 11C12.5 10.1716 11.8284 9.5 11 9.5Z" fill="#B480DE"/>
</svg>
