<svg width="48" height="48" viewBox="0 0 48 48" fill="none" xmlns="http://www.w3.org/2000/svg">
<path d="M36 24C36 30.6274 30.6274 36 24 36C17.3726 36 12 30.6274 12 24C12 17.3726 17.3726 12 24 12C30.6274 12 36 17.3726 36 24Z" fill="#E8E8E8"/>
<path fill-rule="evenodd" clip-rule="evenodd" d="M24 13.5C18.201 13.5 13.5 18.201 13.5 24C13.5 29.799 18.201 34.5 24 34.5C29.799 34.5 34.5 29.799 34.5 24C34.5 18.201 29.799 13.5 24 13.5ZM10.5 24C10.5 16.5442 16.5442 10.5 24 10.5C31.4558 10.5 37.5 16.5442 37.5 24C37.5 31.4558 31.4558 37.5 24 37.5C16.5442 37.5 10.5 31.4558 10.5 24Z" fill="#B480DE"/>
<path d="M28 24C28 26.2091 26.2091 28 24 28C21.7909 28 20 26.2091 20 24C20 21.7909 21.7909 20 24 20C26.2091 20 28 21.7909 28 24Z" fill="#E8E8E8"/>
<path fill-rule="evenodd" clip-rule="evenodd" d="M24 21.5C22.6193 21.5 21.5 22.6193 21.5 24C21.5 25.3807 22.6193 26.5 24 26.5C25.3807 26.5 26.5 25.3807 26.5 24C26.5 22.6193 25.3807 21.5 24 21.5ZM18.5 24C18.5 20.9624 20.9624 18.5 24 18.5C27.0376 18.5 29.5 20.9624 29.5 24C29.5 27.0376 27.0376 29.5 24 29.5C20.9624 29.5 18.5 27.0376 18.5 24Z" fill="#B480DE"/>
<path fill-rule="evenodd" clip-rule="evenodd" d="M23 3H24C35.598 3 45 12.402 45 24V25H28V23H42.9741C42.4713 13.3026 34.6974 5.52871 25 5.02586V20H23V3ZM9.70115 8.58782L21.6981 20.284L20.3019 21.716L9.75174 11.4303C6.99952 14.5475 5.25529 18.5727 5.02585 23H20V25H3V24C3 18.2769 5.29072 13.0868 9.00303 9.29996L9.70115 8.58782ZM15.3658 40.9296L22.8731 27.4876L21.1269 26.5124L12.6466 41.6967L13.4993 42.19C16.5891 43.9773 20.1766 45 24 45H25V28H23V42.9742C20.2606 42.8322 17.6763 42.1105 15.3658 40.9296Z" fill="#B480DE"/>
</svg>
