<svg width="48" height="48" viewBox="0 0 48 48" fill="none" xmlns="http://www.w3.org/2000/svg">
<path d="M6 24C6 18.4772 10.4772 14 16 14H32C37.5228 14 42 18.4772 42 24C42 29.5228 37.5228 34 32 34H16C10.4772 34 6 29.5228 6 24Z" fill="#E8E8E8"/>
<path fill-rule="evenodd" clip-rule="evenodd" d="M4.5 24C4.5 17.6487 9.64873 12.5 16 12.5H32C38.3513 12.5 43.5 17.6487 43.5 24C43.5 30.3513 38.3513 35.5 32 35.5H16C9.64873 35.5 4.5 30.3513 4.5 24ZM16 15.5C11.3056 15.5 7.5 19.3056 7.5 24C7.5 28.6944 11.3056 32.5 16 32.5H32C36.6944 32.5 40.5 28.6944 40.5 24C40.5 19.3056 36.6944 15.5 32 15.5H16Z" fill="#B480DE"/>
<path d="M10 24C10 20.6863 12.6863 18 16 18C19.3137 18 22 20.6863 22 24C22 27.3137 19.3137 30 16 30C12.6863 30 10 27.3137 10 24Z" fill="#B480DE"/>
</svg>
