<svg width="48" height="48" viewBox="0 0 48 48" fill="none" xmlns="http://www.w3.org/2000/svg">
<path d="M42 36V16H26C24.8954 16 24 15.1046 24 14V8H8C6.89543 8 6 8.89543 6 10V36C6 38.2091 7.79086 40 10 40H38C40.2091 40 42 38.2091 42 36Z" fill="#E8E8E8"/>
<path fill-rule="evenodd" clip-rule="evenodd" d="M4.5 10C4.5 8.067 6.067 6.5 8 6.5H24C24.8284 6.5 25.5 7.17157 25.5 8V14C25.5 14.2761 25.7239 14.5 26 14.5H42C42.8284 14.5 43.5 15.1716 43.5 16V36C43.5 39.0376 41.0376 41.5 38 41.5H10C6.96243 41.5 4.5 39.0376 4.5 36V10ZM8 9.5C7.72386 9.5 7.5 9.72386 7.5 10V36C7.5 37.3807 8.61929 38.5 10 38.5H38C39.3807 38.5 40.5 37.3807 40.5 36V17.5H26C24.067 17.5 22.5 15.933 22.5 14V9.5H8Z" fill="#B480DE"/>
<path fill-rule="evenodd" clip-rule="evenodd" d="M22.5 8C22.5 7.17157 23.1716 6.5 24 6.5H40C41.933 6.5 43.5 8.067 43.5 10V16C43.5 16.8284 42.8284 17.5 42 17.5H24C23.1716 17.5 22.5 16.8284 22.5 16V8ZM25.5 9.5V14.5H40.5V10C40.5 9.72386 40.2761 9.5 40 9.5H25.5Z" fill="#B480DE"/>
<path fill-rule="evenodd" clip-rule="evenodd" d="M11 13C11 12.4477 11.4477 12 12 12L18 12C18.5523 12 19 12.4477 19 13C19 13.5523 18.5523 14 18 14L12 14C11.4477 14 11 13.5523 11 13Z" fill="#B480DE"/>
<path fill-rule="evenodd" clip-rule="evenodd" d="M11 24C11 23.4477 11.4477 23 12 23L36 23C36.5523 23 37 23.4477 37 24C37 24.5523 36.5523 25 36 25L12 25C11.4477 25 11 24.5523 11 24Z" fill="#B480DE"/>
<path fill-rule="evenodd" clip-rule="evenodd" d="M11 30C11 29.4477 11.4477 29 12 29L22 29C22.5523 29 23 29.4477 23 30C23 30.5523 22.5523 31 22 31L12 31C11.4477 31 11 30.5523 11 30Z" fill="#B480DE"/>
</svg>
