<svg width="48" height="48" viewBox="0 0 48 48" fill="none" xmlns="http://www.w3.org/2000/svg">
<path fill-rule="evenodd" clip-rule="evenodd" d="M22.5 7.5C22.5 6.94772 22.9477 6.5 23.5 6.5H37.5C39.1569 6.5 40.5 7.84315 40.5 9.5V13.5C40.5 15.1569 39.1569 16.5 37.5 16.5H23.5C22.9477 16.5 22.5 16.0523 22.5 15.5V7.5ZM24.5 8.5V14.5H37.5C38.0523 14.5 38.5 14.0523 38.5 13.5V9.5C38.5 8.94772 38.0523 8.5 37.5 8.5H24.5Z" fill="#DEDEDE"/>
<path d="M5.5 9.5C5.5 8.39543 6.39543 7.5 7.5 7.5H21.5C22.6046 7.5 23.5 8.39543 23.5 9.5V15.5H5.5V9.5Z" fill="#B480DE"/>
<path fill-rule="evenodd" clip-rule="evenodd" d="M4 9.5C4 7.567 5.567 6 7.5 6H21.5C23.433 6 25 7.567 25 9.5V15.5C25 16.3284 24.3284 17 23.5 17H5.5C4.67157 17 4 16.3284 4 15.5V9.5ZM7.5 9C7.22386 9 7 9.22386 7 9.5V14H22V9.5C22 9.22386 21.7761 9 21.5 9H7.5Z" fill="#B480DE"/>
<path fill-rule="evenodd" clip-rule="evenodd" d="M10.5 23.5C10.5 22.9477 10.9477 22.5 11.5 22.5L35.5 22.5C36.0523 22.5 36.5 22.9477 36.5 23.5C36.5 24.0523 36.0523 24.5 35.5 24.5L11.5 24.5C10.9477 24.5 10.5 24.0523 10.5 23.5Z" fill="#B480DE"/>
<path fill-rule="evenodd" clip-rule="evenodd" d="M10.5 29.5C10.5 28.9477 10.9477 28.5 11.5 28.5L21.5 28.5C22.0523 28.5 22.5 28.9477 22.5 29.5C22.5 30.0523 22.0523 30.5 21.5 30.5L11.5 30.5C10.9477 30.5 10.5 30.0523 10.5 29.5Z" fill="#B480DE"/>
<path fill-rule="evenodd" clip-rule="evenodd" d="M4 15.5C4 14.6716 4.67157 14 5.5 14H41.5C42.3284 14 43 14.6716 43 15.5V35.5C43 38.5376 40.5376 41 37.5 41H9.5C6.46243 41 4 38.5376 4 35.5V15.5ZM7 17V35.5C7 36.8807 8.11929 38 9.5 38H37.5C38.8807 38 40 36.8807 40 35.5V17H7Z" fill="#B480DE"/>
</svg>
