<svg width="48" height="48" viewBox="0 0 48 48" fill="none" xmlns="http://www.w3.org/2000/svg">
<path d="M6 16H16V23.4286H6V16Z" fill="#D9D9D9"/>
<path d="M6 25.2856H16V32.7142H6V25.2856Z" fill="#D9D9D9"/>
<path d="M6 34.5713H16V41.9999H6V34.5713Z" fill="#D9D9D9"/>
<path d="M18 16H30V23.4286H18V16Z" fill="#D9D9D9"/>
<path d="M18 25.2856H30V32.7142H18V25.2856Z" fill="#D9D9D9"/>
<path d="M18 34.5713H30V41.9999H18V34.5713Z" fill="#D9D9D9"/>
<path d="M32 16H42V23.4286H32V16Z" fill="#D9D9D9"/>
<path d="M32 25.2856H42V32.7142H32V25.2856Z" fill="#D9D9D9"/>
<path d="M32 34.5713H42V41.9999H32V34.5713Z" fill="#D9D9D9"/>
<path fill-rule="evenodd" clip-rule="evenodd" d="M4.5 12C4.5 8.96243 6.96243 6.5 10 6.5H38C41.0376 6.5 43.5 8.96243 43.5 12V38C43.5 41.0376 41.0376 43.5 38 43.5H10C6.96243 43.5 4.5 41.0376 4.5 38V12ZM10 9.5C8.61929 9.5 7.5 10.6193 7.5 12V38C7.5 39.3807 8.61929 40.5 10 40.5H38C39.3807 40.5 40.5 39.3807 40.5 38V12C40.5 10.6193 39.3807 9.5 38 9.5H10Z" fill="#B480DE"/>
<path fill-rule="evenodd" clip-rule="evenodd" d="M5 16C5 15.4477 5.44772 15 6 15H42C42.5523 15 43 15.4477 43 16C43 16.5523 42.5523 17 42 17H6C5.44772 17 5 16.5523 5 16Z" fill="#B480DE"/>
</svg>
