<svg width="48" height="48" viewBox="0 0 48 48" fill="none" xmlns="http://www.w3.org/2000/svg">
<path d="M6 16H16V23.4286H6V16Z" fill="#D9D9D9"/>
<path d="M18 16H30V23.4286H18V16Z" fill="#D9D9D9"/>
<path d="M32 16H42V23.4286H32V16Z" fill="#D9D9D9"/>
<path d="M6 25.2861H16V32.7147H6V25.2861Z" fill="#D9D9D9"/>
<path d="M18 25.2861H30V32.7147H18V25.2861Z" fill="#D9D9D9"/>
<path d="M32 25.2861H42V32.7147H32V25.2861Z" fill="#D9D9D9"/>
<path d="M6 34.5713H16V41.9999H10C7.79086 41.9999 6 40.209 6 37.9999V34.5713Z" fill="#D9D9D9"/>
<path d="M18 34.5713H30V41.9999H18V34.5713Z" fill="#D9D9D9"/>
<path d="M32 34.5713H42V37.9999C42 40.209 40.2091 41.9999 38 41.9999H32V34.5713Z" fill="#D9D9D9"/>
<path fill-rule="evenodd" clip-rule="evenodd" d="M5 15H43V17H5V15Z" fill="#B480DE"/>
<path fill-rule="evenodd" clip-rule="evenodd" d="M5 12C5 9.23858 7.23858 7 10 7H38C40.7614 7 43 9.23858 43 12V38C43 40.7614 40.7614 43 38 43H10C7.23858 43 5 40.7614 5 38V12ZM10 9C8.34315 9 7 10.3431 7 12V38C7 39.6569 8.34315 41 10 41H38C39.6569 41 41 39.6569 41 38V12C41 10.3431 39.6569 9 38 9H10Z" fill="#B480DE"/>
</svg>
