<svg width="48" height="48" viewBox="0 0 48 48" fill="none" xmlns="http://www.w3.org/2000/svg">
<path d="M22.5254 18.8674C22.5254 18.4034 22.5974 17.9714 22.7414 17.5714C22.8854 17.1634 23.0894 16.8114 23.3534 16.5154C23.6254 16.2194 23.9534 15.9874 24.3374 15.8194C24.7214 15.6514 25.1534 15.5674 25.6334 15.5674C26.2254 15.5674 26.7854 15.6754 27.3134 15.8914L27.0014 17.0794C26.8334 17.0074 26.6414 16.9474 26.4254 16.8994C26.2174 16.8514 25.9934 16.8274 25.7534 16.8274C25.1854 16.8274 24.7534 17.0074 24.4574 17.3674C24.1614 17.7194 24.0134 18.2194 24.0134 18.8674C24.0134 19.4914 24.1534 19.9874 24.4334 20.3554C24.7134 20.7154 25.1854 20.8954 25.8494 20.8954C26.0974 20.8954 26.3414 20.8714 26.5814 20.8234C26.8214 20.7754 27.0294 20.7154 27.2054 20.6434L27.4094 21.8434C27.2494 21.9234 27.0054 21.9954 26.6774 22.0594C26.3574 22.1234 26.0254 22.1554 25.6814 22.1554C25.1454 22.1554 24.6774 22.0754 24.2774 21.9154C23.8854 21.7474 23.5574 21.5194 23.2934 21.2314C23.0374 20.9354 22.8454 20.5874 22.7174 20.1874C22.5894 19.7794 22.5254 19.3394 22.5254 18.8674Z" fill="#B480DE"/>
<path d="M19.8896 18.8435C19.8896 18.2275 19.7656 17.7395 19.5176 17.3795C19.2776 17.0195 18.8936 16.8395 18.3656 16.8395C18.1256 16.8395 17.8976 16.8755 17.6816 16.9475C17.4736 17.0195 17.3056 17.0995 17.1776 17.1875V20.7995C17.2816 20.8235 17.4136 20.8475 17.5736 20.8715C17.7416 20.8875 17.9416 20.8955 18.1736 20.8955C18.7096 20.8955 19.1296 20.7155 19.4336 20.3555C19.7376 19.9875 19.8896 19.4835 19.8896 18.8435ZM21.3776 18.8675C21.3776 19.3715 21.3016 19.8275 21.1496 20.2355C21.0056 20.6355 20.7936 20.9795 20.5136 21.2675C20.2416 21.5555 19.9096 21.7755 19.5176 21.9275C19.1256 22.0795 18.6816 22.1555 18.1856 22.1555C17.7056 22.1555 17.2456 22.1195 16.8056 22.0475C16.3736 21.9755 16.0136 21.8955 15.7256 21.8075V12.9275L17.1776 12.6875V15.9395C17.3456 15.8515 17.5496 15.7715 17.7896 15.6995C18.0376 15.6275 18.3096 15.5915 18.6056 15.5915C19.0456 15.5915 19.4376 15.6715 19.7816 15.8315C20.1336 15.9835 20.4256 16.2035 20.6576 16.4915C20.8896 16.7795 21.0656 17.1275 21.1856 17.5355C21.3136 17.9355 21.3776 18.3795 21.3776 18.8675Z" fill="#B480DE"/>
<path d="M11.5231 20.9794C11.9711 20.9794 12.3111 20.9554 12.5431 20.9074V19.2994C12.4631 19.2754 12.3471 19.2514 12.1951 19.2274C12.0431 19.2034 11.8751 19.1914 11.6911 19.1914C11.5311 19.1914 11.3671 19.2034 11.1991 19.2274C11.0391 19.2514 10.8911 19.2954 10.7551 19.3594C10.6271 19.4234 10.5231 19.5154 10.4431 19.6354C10.3631 19.7474 10.3231 19.8914 10.3231 20.0674C10.3231 20.4114 10.4311 20.6514 10.6471 20.7874C10.8631 20.9154 11.1551 20.9794 11.5231 20.9794ZM11.4031 15.5674C11.8831 15.5674 12.2871 15.6274 12.6151 15.7474C12.9431 15.8674 13.2031 16.0354 13.3951 16.2514C13.5951 16.4674 13.7351 16.7314 13.8151 17.0434C13.9031 17.3474 13.9471 17.6834 13.9471 18.0514V21.8554C13.7231 21.9034 13.3831 21.9594 12.9271 22.0234C12.4791 22.0954 11.9711 22.1314 11.4031 22.1314C11.0271 22.1314 10.6831 22.0954 10.3711 22.0234C10.0591 21.9514 9.79109 21.8354 9.56709 21.6754C9.35109 21.5154 9.17909 21.3074 9.05109 21.0514C8.93109 20.7954 8.87109 20.4794 8.87109 20.1034C8.87109 19.7434 8.93909 19.4394 9.07509 19.1914C9.21909 18.9434 9.41109 18.7434 9.65109 18.5914C9.89109 18.4314 10.1671 18.3194 10.4791 18.2554C10.7991 18.1834 11.1311 18.1474 11.4751 18.1474C11.6351 18.1474 11.8031 18.1594 11.9791 18.1834C12.1551 18.1994 12.3431 18.2314 12.5431 18.2794V18.0394C12.5431 17.8714 12.5231 17.7114 12.4831 17.5594C12.4431 17.4074 12.3711 17.2754 12.2671 17.1634C12.1711 17.0434 12.0391 16.9514 11.8711 16.8874C11.7111 16.8234 11.5071 16.7914 11.2591 16.7914C10.9231 16.7914 10.6151 16.8154 10.3351 16.8634C10.0551 16.9114 9.82709 16.9674 9.65109 17.0314L9.47109 15.8554C9.65509 15.7914 9.92309 15.7274 10.2751 15.6634C10.6271 15.5994 11.0031 15.5674 11.4031 15.5674Z" fill="#B480DE"/>
<path d="M23.2423 36.1802C23.0263 36.1802 22.8023 36.1642 22.5703 36.1322C22.3463 36.1082 22.1303 36.0722 21.9223 36.0242C21.7223 35.9842 21.5383 35.9402 21.3703 35.8922C21.2023 35.8362 21.0743 35.7842 20.9863 35.7362L21.2743 34.5002C21.4423 34.5802 21.6863 34.6722 22.0063 34.7762C22.3263 34.8722 22.7223 34.9202 23.1943 34.9202C23.8263 34.9202 24.2823 34.8002 24.5623 34.5602C24.8423 34.3122 24.9823 33.9842 24.9823 33.5762C24.9823 33.3122 24.9263 33.0922 24.8143 32.9162C24.7103 32.7402 24.5623 32.6002 24.3703 32.4962C24.1863 32.3842 23.9703 32.3082 23.7223 32.2682C23.4823 32.2202 23.2263 32.1962 22.9543 32.1962H22.4623V31.0202H23.0623C23.2463 31.0202 23.4303 31.0042 23.6143 30.9722C23.8063 30.9322 23.9783 30.8682 24.1303 30.7802C24.2823 30.6842 24.4063 30.5602 24.5023 30.4082C24.5983 30.2562 24.6463 30.0602 24.6463 29.8202C24.6463 29.6282 24.6103 29.4642 24.5383 29.3282C24.4663 29.1922 24.3703 29.0802 24.2503 28.9922C24.1383 28.9042 24.0063 28.8402 23.8543 28.8002C23.7023 28.7602 23.5423 28.7402 23.3743 28.7402C23.0143 28.7402 22.6943 28.7962 22.4143 28.9082C22.1343 29.0122 21.8863 29.1322 21.6703 29.2682L21.1423 28.1882C21.2543 28.1162 21.3903 28.0402 21.5503 27.9602C21.7103 27.8802 21.8863 27.8042 22.0783 27.7322C22.2783 27.6602 22.4903 27.6042 22.7143 27.5642C22.9383 27.5162 23.1743 27.4922 23.4223 27.4922C23.8863 27.4922 24.2863 27.5482 24.6223 27.6602C24.9583 27.7722 25.2343 27.9322 25.4503 28.1402C25.6743 28.3402 25.8383 28.5802 25.9423 28.8602C26.0543 29.1322 26.1103 29.4322 26.1103 29.7602C26.1103 30.1442 26.0023 30.4882 25.7863 30.7922C25.5783 31.0962 25.3063 31.3282 24.9703 31.4882C25.4023 31.6402 25.7583 31.8922 26.0383 32.2442C26.3263 32.5962 26.4703 33.0482 26.4703 33.6002C26.4703 33.9682 26.4063 34.3122 26.2783 34.6322C26.1503 34.9442 25.9543 35.2162 25.6903 35.4482C25.4263 35.6722 25.0903 35.8522 24.6823 35.9882C24.2823 36.1162 23.8023 36.1802 23.2423 36.1802Z" fill="#B480DE"/>
<path d="M19.3619 29.8442C19.3619 30.1322 19.3019 30.4162 19.1819 30.6962C19.0619 30.9682 18.9059 31.2362 18.7139 31.5002C18.5299 31.7562 18.3179 32.0082 18.0779 32.2562C17.8379 32.4962 17.5979 32.7322 17.3579 32.9642C17.2299 33.0842 17.0859 33.2282 16.9259 33.3962C16.7659 33.5642 16.6139 33.7322 16.4699 33.9002C16.3259 34.0682 16.2019 34.2322 16.0979 34.3922C15.9939 34.5442 15.9379 34.6722 15.9299 34.7762H19.6259V36.0002H14.3339C14.3259 35.9362 14.3219 35.8602 14.3219 35.7722C14.3219 35.6762 14.3219 35.6042 14.3219 35.5562C14.3219 35.1722 14.3819 34.8202 14.5019 34.5002C14.6299 34.1722 14.7939 33.8682 14.9939 33.5882C15.1939 33.3082 15.4179 33.0442 15.6659 32.7962C15.9139 32.5482 16.1619 32.3042 16.4099 32.0642C16.6019 31.8802 16.7859 31.7002 16.9619 31.5242C17.1379 31.3482 17.2899 31.1762 17.4179 31.0082C17.5539 30.8322 17.6619 30.6562 17.7419 30.4802C17.8219 30.2962 17.8619 30.1082 17.8619 29.9162C17.8619 29.5002 17.7419 29.2042 17.5019 29.0282C17.2619 28.8522 16.9699 28.7642 16.6259 28.7642C16.4019 28.7642 16.1939 28.7962 16.0019 28.8602C15.8099 28.9242 15.6379 29.0002 15.4859 29.0882C15.3419 29.1762 15.2139 29.2682 15.1019 29.3642C14.9899 29.4522 14.9059 29.5242 14.8499 29.5802L14.1299 28.5602C14.4659 28.2402 14.8579 27.9842 15.3059 27.7922C15.7619 27.5922 16.2499 27.4922 16.7699 27.4922C17.6579 27.4922 18.3099 27.7042 18.7259 28.1282C19.1499 28.5442 19.3619 29.1162 19.3619 29.8442Z" fill="#B480DE"/>
<path d="M7.84961 29.4126C8.31361 29.2286 8.77761 28.9926 9.24161 28.7046C9.71361 28.4166 10.1296 28.0766 10.4896 27.6846H11.5096V36.0006H10.0576V29.6286C9.84161 29.7966 9.56961 29.9606 9.24161 30.1206C8.91361 30.2806 8.59761 30.4126 8.29361 30.5166L7.84961 29.4126Z" fill="#B480DE"/>
<path fill-rule="evenodd" clip-rule="evenodd" d="M40 13.5L32 13.5L32 10.5L40 10.5L40 13.5Z" fill="#B480DE"/>
<path fill-rule="evenodd" clip-rule="evenodd" d="M40 37.5L32 37.5L32 34.5L40 34.5L40 37.5Z" fill="#B480DE"/>
<path fill-rule="evenodd" clip-rule="evenodd" d="M34.5 36V12H37.5V36H34.5Z" fill="#B480DE"/>
</svg>
