<svg width="48" height="48" viewBox="0 0 48 48" fill="none" xmlns="http://www.w3.org/2000/svg">
<path d="M6 12C6 9.79086 7.79086 8 10 8H38C40.2091 8 42 9.79086 42 12V38C42 40.2091 40.2091 42 38 42H10C7.79086 42 6 40.2091 6 38V12Z" fill="#E8E8E8"/>
<path fill-rule="evenodd" clip-rule="evenodd" d="M4.5 12C4.5 8.96243 6.96243 6.5 10 6.5H38C41.0376 6.5 43.5 8.96243 43.5 12V38C43.5 41.0376 41.0376 43.5 38 43.5H10C6.96243 43.5 4.5 41.0376 4.5 38V12ZM10 9.5C8.61929 9.5 7.5 10.6193 7.5 12V38C7.5 39.3807 8.61929 40.5 10 40.5H38C39.3807 40.5 40.5 39.3807 40.5 38V12C40.5 10.6193 39.3807 9.5 38 9.5H10Z" fill="#B480DE"/>
<path fill-rule="evenodd" clip-rule="evenodd" d="M11 18C11 17.4477 11.4477 17 12 17H34C34.5523 17 35 17.4477 35 18C35 18.5523 34.5523 19 34 19H12C11.4477 19 11 18.5523 11 18Z" fill="#B480DE"/>
<path fill-rule="evenodd" clip-rule="evenodd" d="M11 24C11 23.4477 11.4477 23 12 23H34C34.5523 23 35 23.4477 35 24C35 24.5523 34.5523 25 34 25H12C11.4477 25 11 24.5523 11 24Z" fill="#B480DE"/>
<path fill-rule="evenodd" clip-rule="evenodd" d="M11 30C11 29.4477 11.4477 29 12 29H25.75C26.3023 29 26.75 29.4477 26.75 30C26.75 30.5523 26.3023 31 25.75 31H12C11.4477 31 11 30.5523 11 30Z" fill="#B480DE"/>
</svg>
