<svg width="24" height="24" viewBox="0 0 24 24" fill="none" xmlns="http://www.w3.org/2000/svg">
<path d="M5.76131 10.49C5.98531 10.49 6.15531 10.478 6.27131 10.454V9.65C6.23131 9.638 6.17331 9.626 6.09731 9.614C6.02131 9.602 5.93731 9.596 5.84531 9.596C5.76531 9.596 5.68331 9.602 5.59931 9.614C5.51931 9.626 5.44531 9.648 5.37731 9.68C5.31331 9.712 5.26131 9.758 5.22131 9.818C5.18131 9.874 5.16131 9.946 5.16131 10.034C5.16131 10.206 5.21531 10.326 5.32331 10.394C5.43131 10.458 5.57731 10.49 5.76131 10.49ZM5.70131 7.784C5.94131 7.784 6.14331 7.814 6.30731 7.874C6.47131 7.934 6.60131 8.018 6.69731 8.126C6.79731 8.234 6.86731 8.366 6.90731 8.522C6.95131 8.674 6.97331 8.842 6.97331 9.026V10.928C6.86131 10.952 6.69131 10.98 6.46331 11.012C6.23931 11.048 5.98531 11.066 5.70131 11.066C5.51331 11.066 5.34131 11.048 5.18531 11.012C5.02931 10.976 4.89531 10.918 4.78331 10.838C4.67531 10.758 4.58931 10.654 4.52531 10.526C4.46531 10.398 4.43531 10.24 4.43531 10.052C4.43531 9.872 4.46931 9.72 4.53731 9.596C4.60931 9.472 4.70531 9.372 4.82531 9.296C4.94531 9.216 5.08331 9.16 5.23931 9.128C5.39931 9.092 5.56531 9.074 5.73731 9.074C5.81731 9.074 5.90131 9.08 5.98931 9.092C6.07731 9.1 6.17131 9.116 6.27131 9.14V9.02C6.27131 8.936 6.26131 8.856 6.24131 8.78C6.22131 8.704 6.18531 8.638 6.13331 8.582C6.08531 8.522 6.01931 8.476 5.93531 8.444C5.85531 8.412 5.75331 8.396 5.62931 8.396C5.46131 8.396 5.30731 8.408 5.16731 8.432C5.02731 8.456 4.91331 8.484 4.82531 8.516L4.73531 7.928C4.82731 7.896 4.96131 7.864 5.13731 7.832C5.31331 7.8 5.50131 7.784 5.70131 7.784ZM9.94439 9.422C9.94439 9.114 9.88239 8.87 9.75839 8.69C9.63839 8.51 9.44639 8.42 9.18239 8.42C9.06239 8.42 8.94839 8.438 8.84039 8.474C8.73639 8.51 8.65239 8.55 8.58839 8.594V10.4C8.64039 10.412 8.70639 10.424 8.78639 10.436C8.87039 10.444 8.97039 10.448 9.08639 10.448C9.35439 10.448 9.56439 10.358 9.71639 10.178C9.86839 9.994 9.94439 9.742 9.94439 9.422ZM10.6884 9.434C10.6884 9.686 10.6504 9.914 10.5744 10.118C10.5024 10.318 10.3964 10.49 10.2564 10.634C10.1204 10.778 9.95439 10.888 9.75839 10.964C9.56239 11.04 9.34039 11.078 9.09239 11.078C8.85239 11.078 8.62239 11.06 8.40239 11.024C8.18639 10.988 8.00639 10.948 7.86239 10.904V6.464L8.58839 6.344V7.97C8.67239 7.926 8.77439 7.886 8.89439 7.85C9.01839 7.814 9.15439 7.796 9.30239 7.796C9.52239 7.796 9.71839 7.836 9.89039 7.916C10.0664 7.992 10.2124 8.102 10.3284 8.246C10.4444 8.39 10.5324 8.564 10.5924 8.768C10.6564 8.968 10.6884 9.19 10.6884 9.434ZM11.2626 9.434C11.2626 9.202 11.2986 8.986 11.3706 8.786C11.4426 8.582 11.5446 8.406 11.6766 8.258C11.8126 8.11 11.9766 7.994 12.1686 7.91C12.3606 7.826 12.5766 7.784 12.8166 7.784C13.1126 7.784 13.3926 7.838 13.6566 7.946L13.5006 8.54C13.4166 8.504 13.3206 8.474 13.2126 8.45C13.1086 8.426 12.9966 8.414 12.8766 8.414C12.5926 8.414 12.3766 8.504 12.2286 8.684C12.0806 8.86 12.0066 9.11 12.0066 9.434C12.0066 9.746 12.0766 9.994 12.2166 10.178C12.3566 10.358 12.5926 10.448 12.9246 10.448C13.0486 10.448 13.1706 10.436 13.2906 10.412C13.4106 10.388 13.5146 10.358 13.6026 10.322L13.7046 10.922C13.6246 10.962 13.5026 10.998 13.3386 11.03C13.1786 11.062 13.0126 11.078 12.8406 11.078C12.5726 11.078 12.3386 11.038 12.1386 10.958C11.9426 10.874 11.7786 10.76 11.6466 10.616C11.5186 10.468 11.4226 10.294 11.3586 10.094C11.2946 9.89 11.2626 9.67 11.2626 9.434Z" fill="black"/>
<path d="M3.92477 14.706C4.15677 14.614 4.38877 14.496 4.62077 14.352C4.85677 14.208 5.06477 14.038 5.24477 13.842H5.75477V18H5.02877V14.814C4.92077 14.898 4.78477 14.98 4.62077 15.06C4.45677 15.14 4.29877 15.206 4.14677 15.258L3.92477 14.706ZM9.68092 14.922C9.68092 15.066 9.65092 15.208 9.59092 15.348C9.53092 15.484 9.45292 15.618 9.35692 15.75C9.26492 15.878 9.15892 16.004 9.03892 16.128C8.91892 16.248 8.79892 16.366 8.67892 16.482C8.61492 16.542 8.54292 16.614 8.46292 16.698C8.38292 16.782 8.30692 16.866 8.23492 16.95C8.16292 17.034 8.10092 17.116 8.04892 17.196C7.99692 17.272 7.96892 17.336 7.96492 17.388H9.81292V18H7.16692C7.16292 17.968 7.16092 17.93 7.16092 17.886C7.16092 17.838 7.16092 17.802 7.16092 17.778C7.16092 17.586 7.19092 17.41 7.25092 17.25C7.31492 17.086 7.39692 16.934 7.49692 16.794C7.59692 16.654 7.70892 16.522 7.83292 16.398C7.95692 16.274 8.08092 16.152 8.20492 16.032C8.30092 15.94 8.39292 15.85 8.48092 15.762C8.56892 15.674 8.64492 15.588 8.70892 15.504C8.77692 15.416 8.83092 15.328 8.87092 15.24C8.91092 15.148 8.93092 15.054 8.93092 14.958C8.93092 14.75 8.87092 14.602 8.75092 14.514C8.63092 14.426 8.48492 14.382 8.31292 14.382C8.20092 14.382 8.09692 14.398 8.00092 14.43C7.90492 14.462 7.81892 14.5 7.74292 14.544C7.67092 14.588 7.60692 14.634 7.55092 14.682C7.49492 14.726 7.45292 14.762 7.42492 14.79L7.06492 14.28C7.23292 14.12 7.42892 13.992 7.65292 13.896C7.88092 13.796 8.12492 13.746 8.38492 13.746C8.82892 13.746 9.15492 13.852 9.36292 14.064C9.57492 14.272 9.68092 14.558 9.68092 14.922ZM11.6211 18.09C11.5131 18.09 11.4011 18.082 11.2851 18.066C11.1731 18.054 11.0651 18.036 10.9611 18.012C10.8611 17.992 10.7691 17.97 10.6851 17.946C10.6011 17.918 10.5371 17.892 10.4931 17.868L10.6371 17.25C10.7211 17.29 10.8431 17.336 11.0031 17.388C11.1631 17.436 11.3611 17.46 11.5971 17.46C11.9131 17.46 12.1411 17.4 12.2811 17.28C12.4211 17.156 12.4911 16.992 12.4911 16.788C12.4911 16.656 12.4631 16.546 12.4071 16.458C12.3551 16.37 12.2811 16.3 12.1851 16.248C12.0931 16.192 11.9851 16.154 11.8611 16.134C11.7411 16.11 11.6131 16.098 11.4771 16.098H11.2311V15.51H11.5311C11.6231 15.51 11.7151 15.502 11.8071 15.486C11.9031 15.466 11.9891 15.434 12.0651 15.39C12.1411 15.342 12.2031 15.28 12.2511 15.204C12.2991 15.128 12.3231 15.03 12.3231 14.91C12.3231 14.814 12.3051 14.732 12.2691 14.664C12.2331 14.596 12.1851 14.54 12.1251 14.496C12.0691 14.452 12.0031 14.42 11.9271 14.4C11.8511 14.38 11.7711 14.37 11.6871 14.37C11.5071 14.37 11.3471 14.398 11.2071 14.454C11.0671 14.506 10.9431 14.566 10.8351 14.634L10.5711 14.094C10.6271 14.058 10.6951 14.02 10.7751 13.98C10.8551 13.94 10.9431 13.902 11.0391 13.866C11.1391 13.83 11.2451 13.802 11.3571 13.782C11.4691 13.758 11.5871 13.746 11.7111 13.746C11.9431 13.746 12.1431 13.774 12.3111 13.83C12.4791 13.886 12.6171 13.966 12.7251 14.07C12.8371 14.17 12.9191 14.29 12.9711 14.43C13.0271 14.566 13.0551 14.716 13.0551 14.88C13.0551 15.072 13.0011 15.244 12.8931 15.396C12.7891 15.548 12.6531 15.664 12.4851 15.744C12.7011 15.82 12.8791 15.946 13.0191 16.122C13.1631 16.298 13.2351 16.524 13.2351 16.8C13.2351 16.984 13.2031 17.156 13.1391 17.316C13.0751 17.472 12.9771 17.608 12.8451 17.724C12.7131 17.836 12.5451 17.926 12.3411 17.994C12.1411 18.058 11.9011 18.09 11.6211 18.09Z" fill="black"/>
<path d="M16 6L20 6" stroke="black" stroke-width="1.5"/>
<path d="M16 18L20 18" stroke="black" stroke-width="1.5"/>
<path d="M18 6V18" stroke="black" stroke-width="1.5"/>
</svg>
