<svg width="48" height="48" viewBox="0 0 48 48" fill="none" xmlns="http://www.w3.org/2000/svg">
<path d="M6 12C6 9.79086 7.79086 8 10 8H38C40.2091 8 42 9.79086 42 12V38C42 40.2091 40.2091 42 38 42H10C7.79086 42 6 40.2091 6 38V12Z" fill="#E8E8E8"/>
<path fill-rule="evenodd" clip-rule="evenodd" d="M4.5 12C4.5 8.96243 6.96243 6.5 10 6.5H38C41.0376 6.5 43.5 8.96243 43.5 12V38C43.5 41.0376 41.0376 43.5 38 43.5H10C6.96243 43.5 4.5 41.0376 4.5 38V12ZM10 9.5C8.61929 9.5 7.5 10.6193 7.5 12V38C7.5 39.3807 8.61929 40.5 10 40.5H38C39.3807 40.5 40.5 39.3807 40.5 38V12C40.5 10.6193 39.3807 9.5 38 9.5H10Z" fill="#B480DE"/>
<path fill-rule="evenodd" clip-rule="evenodd" d="M35.9993 19L30.666 19L30.666 17L35.9993 17L35.9993 19Z" fill="#B480DE"/>
<path fill-rule="evenodd" clip-rule="evenodd" d="M35.9993 35L30.666 35L30.666 33L35.9993 33L35.9993 35Z" fill="#B480DE"/>
<path fill-rule="evenodd" clip-rule="evenodd" d="M32.332 34V18H34.332V34H32.332Z" fill="#B480DE"/>
<path fill-rule="evenodd" clip-rule="evenodd" d="M11 20.666C11 20.1137 11.4477 19.666 12 19.666H28C28.5523 19.666 29 20.1137 29 20.666C29 21.2183 28.5523 21.666 28 21.666H12C11.4477 21.666 11 21.2183 11 20.666Z" fill="#B480DE"/>
<path fill-rule="evenodd" clip-rule="evenodd" d="M11 26C11 25.4477 11.4477 25 12 25H28C28.5523 25 29 25.4477 29 26C29 26.5523 28.5523 27 28 27H12C11.4477 27 11 26.5523 11 26Z" fill="#B480DE"/>
<path fill-rule="evenodd" clip-rule="evenodd" d="M11 31.334C11 30.7817 11.4477 30.334 12 30.334H22.6667C23.219 30.334 23.6667 30.7817 23.6667 31.334C23.6667 31.8863 23.219 32.334 22.6667 32.334H12C11.4477 32.334 11 31.8863 11 31.334Z" fill="#B480DE"/>
</svg>
