<svg width="24" height="24" viewBox="0 0 24 24" fill="none" xmlns="http://www.w3.org/2000/svg">
<path d="M22.5 8.99285C21 8.99285 20.5 4.99266 18.5405 5.00001C17 5.00579 17.3616 6.67059 16.2432 6.95004C14.9718 7.26777 14.3269 5.8381 13.027 5.97503C11.5875 6.12666 11.235 7.65612 9.81081 7.92506C8.18214 8.2326 7.15369 9.44668 5.5 9.49285C4.02089 9.53415 2 12 2 12C2 12 4.19657 10.486 5.67568 10.4447C7.32937 10.3985 8.18214 11.2397 9.81081 10.9322C11.235 10.6633 11.5875 9.1338 13.027 8.98216C14.3269 8.84524 14.9718 10.2749 16.2432 9.95718C17.3616 9.67773 17.3987 7.87253 18.5405 8.00715C20.4101 8.22756 19.4167 11.4126 22.5 11" stroke="black"/>
<path d="M22.5 15.0071C21 15.0071 20.5 19.0073 18.5405 19C17 18.9942 17.3616 17.3294 16.2432 17.05C14.9718 16.7322 14.3269 18.1619 13.027 18.025C11.5875 17.8733 11.235 16.3439 9.81081 16.0749C8.18214 15.7674 7.15369 14.5533 5.5 14.5071C4.02089 14.4658 2 12 2 12C2 12 4.19657 13.514 5.67568 13.5553C7.32937 13.6015 8.18214 12.7603 9.81081 13.0678C11.235 13.3367 11.5875 14.8662 13.027 15.0178C14.3269 15.1548 14.9718 13.7251 16.2432 14.0428C17.3616 14.3223 17.3987 16.1275 18.5405 15.9929C20.4101 15.7724 19.4167 12.5874 22.5 13" stroke="black"/>
</svg>
