<svg width="48" height="48" viewBox="0 0 48 48" fill="none" xmlns="http://www.w3.org/2000/svg">
<path d="M11 18.9857C8.04179 19.0683 4 24 4 24C4 24 8.39314 20.9719 11.3514 20.8893C14.6587 20.797 16.3643 22.4795 19.6216 21.8644C22.4701 21.3265 23.175 18.2676 26.0541 17.9643C28.6538 17.6905 29.9435 20.5498 32.4865 19.9144C34.7231 19.3555 34.7973 15.7451 37.0811 16.0143C40.8202 16.4551 38.8335 22.8252 45 22V17.9857C42 17.9857 41 9.98533 37.0811 10C34 10.0116 34.7231 13.3412 32.4865 13.9001C29.9435 14.5355 28.6538 11.6762 26.0541 11.9501C23.175 12.2533 22.4701 15.3122 19.6216 15.8501C16.3643 16.4652 14.3074 18.8934 11 18.9857Z" fill="#E8E8E8"/>
<path d="M11 29.0143C8.04179 28.9317 4 24 4 24C4 24 8.39314 27.0281 11.3514 27.1107C14.6587 27.203 16.3643 25.5205 19.6216 26.1356C22.4701 26.6735 23.175 29.7324 26.0541 30.0357C28.6538 30.3095 29.9435 27.4502 32.4865 28.0856C34.7231 28.6445 34.7973 32.2549 37.0811 31.9857C40.8202 31.5449 38.8335 25.1748 45 26V30.0143C42 30.0143 41 38.0147 37.0811 38C34 37.9884 34.7231 34.6588 32.4865 34.0999C29.9435 33.4645 28.6538 36.3238 26.0541 36.0499C23.175 35.7467 22.4701 32.6878 19.6216 32.1499C16.3643 31.5348 14.3074 29.1066 11 29.0143Z" fill="#E8E8E8"/>
<path fill-rule="evenodd" clip-rule="evenodd" d="M38.8157 11.9205C38.2292 11.2864 37.68 10.9978 37.0848 11C36.5141 11.0022 36.2086 11.1506 36.0051 11.3145C35.7705 11.5035 35.58 11.785 35.3487 12.2169C35.308 12.2928 35.2643 12.3776 35.2173 12.4685C35.0321 12.8272 34.7977 13.2813 34.513 13.6587C34.1168 14.184 33.5623 14.662 32.7289 14.8703C31.0063 15.3007 29.7117 14.5004 28.7629 13.9095C27.7352 13.2694 27.0593 12.8497 26.1588 12.9446C25.1001 13.0561 24.4271 13.648 23.5245 14.5281C23.4863 14.5653 23.4477 14.6031 23.4086 14.6413C22.5683 15.4636 21.4948 16.5141 19.8072 16.8328C18.4985 17.0799 17.4099 17.6515 16.1918 18.2912C16.0601 18.3604 15.9268 18.4303 15.7916 18.5008C14.6889 19.0753 13.472 19.6687 12.0241 19.894C13.3395 19.947 14.4251 20.2428 15.3798 20.503C15.5098 20.5384 15.6373 20.5732 15.7627 20.6066C16.9666 20.9273 18.0311 21.1471 19.4361 20.8818C20.5184 20.6774 21.2015 20.014 22.1283 19.1104C23.01 18.2507 24.129 17.1616 25.9493 16.9698C27.5506 16.8012 28.7697 17.5667 29.6605 18.1261C29.7149 18.1603 29.7682 18.1937 29.8202 18.2261C30.802 18.8376 31.4237 19.1492 32.2441 18.9442C32.5396 18.8703 32.7974 18.6928 33.0705 18.3771C33.3251 18.0828 33.5396 17.7357 33.7992 17.3157C33.8374 17.254 33.8765 17.1908 33.9168 17.1258C34.2019 16.6673 34.5683 16.0941 35.0657 15.6703C35.6135 15.2036 36.3174 14.9173 37.1982 15.0212C38.4912 15.1736 39.3024 15.869 39.8577 16.6924C40.1221 17.0843 40.3317 17.508 40.5127 17.9023C40.5939 18.0792 40.6648 18.2393 40.733 18.3934C40.8306 18.6139 40.9227 18.8219 41.0318 19.0491C41.3818 19.7781 41.7315 20.306 42.2379 20.6403C42.7202 20.9586 43.4895 21.1932 44.8674 21.0088L45.1326 22.9911C43.4272 23.2194 42.1325 22.9671 41.1361 22.3094C40.1638 21.6676 39.6203 20.7302 39.2288 19.9147C39.1126 19.6727 38.9921 19.4012 38.8809 19.151C38.8147 19.0018 38.7518 18.8601 38.6951 18.7367C38.527 18.3705 38.3713 18.0652 38.1997 17.8108C37.8832 17.3415 37.5405 17.0754 36.964 17.0074C36.7029 16.9766 36.5411 17.0407 36.3628 17.1927C36.1341 17.3875 35.914 17.7014 35.6154 18.1817C35.581 18.237 35.5454 18.2948 35.5087 18.3545C35.2581 18.7616 34.9514 19.2598 34.5831 19.6856C34.1419 20.1956 33.5517 20.6789 32.7289 20.8845C31.0063 21.315 29.7117 20.5147 28.7629 19.9238C27.7352 19.2837 27.0593 18.864 26.1588 18.9588C25.1001 19.0703 24.4271 19.6623 23.5245 20.5424C23.4863 20.5796 23.4477 20.6173 23.4086 20.6556C22.5683 21.4779 21.4948 22.5284 19.8072 22.847C17.9548 23.1968 16.5379 22.8829 15.2478 22.5392C15.1166 22.5042 14.9873 22.4692 14.8594 22.4346C13.7308 22.129 12.7076 21.8519 11.3793 21.889C10.1493 21.9233 8.49005 22.5985 7.02957 23.3619C6.32322 23.7311 5.70392 24.0989 5.26114 24.3745C5.04019 24.512 4.8643 24.626 4.74476 24.7047C4.68501 24.7441 4.63942 24.7746 4.60939 24.7949L4.57622 24.8174L4.56875 24.8225C4.56875 24.8225 4.56734 24.8235 4.56656 24.8223L3.22657 23.3661L4 24C3.22657 23.3661 3.22643 23.3663 3.22657 23.3661L3.23127 23.3604L3.24183 23.3476L3.28006 23.3018C3.313 23.2625 3.36066 23.2062 3.42178 23.1353C3.54396 22.9934 3.7203 22.7926 3.94071 22.5523C4.38038 22.0728 5.00104 21.4297 5.7214 20.7808C6.43831 20.135 7.27471 19.4647 8.14614 18.9451C9.00113 18.4353 9.98333 18.0137 10.9721 17.9861C12.3795 17.9468 13.5445 17.4164 14.8675 16.7271C14.9999 16.6581 15.1343 16.5872 15.271 16.5152C16.4598 15.8883 17.8152 15.1736 19.4361 14.8675C20.5184 14.6631 21.2015 13.9997 22.1283 13.0961C23.01 12.2364 24.129 11.1473 25.9493 10.9556C27.5506 10.7869 28.7697 11.5524 29.6605 12.1118C29.7149 12.146 29.7682 12.1794 29.8202 12.2118C30.802 12.8233 31.4237 13.1349 32.2441 12.9299C32.529 12.8587 32.7228 12.7109 32.9163 12.4543C33.0891 12.2254 33.218 11.9768 33.3885 11.6481C33.448 11.5336 33.5124 11.4093 33.5856 11.2727C33.8382 10.8009 34.1844 10.2129 34.7506 9.75687C35.348 9.27577 36.1075 9.00366 37.0773 9.00003C38.4416 8.99491 39.487 9.70085 40.284 10.5626C41.0674 11.4097 41.7053 12.5087 42.2584 13.5001C42.3363 13.6397 42.4124 13.7769 42.487 13.9115C42.9691 14.7809 43.391 15.5416 43.8407 16.1261C44.3716 16.8162 44.7373 16.9857 45 16.9857V18.9857C43.7627 18.9857 42.8784 18.1552 42.2556 17.3456C41.7063 16.6317 41.2014 15.7195 40.7292 14.8662C40.656 14.7339 40.5835 14.603 40.5119 14.4746C39.9501 13.4677 39.4157 12.5694 38.8157 11.9205Z" fill="#B480DE"/>
<path fill-rule="evenodd" clip-rule="evenodd" d="M38.8157 36.0795C38.2292 36.7136 37.68 37.0022 37.0848 37C36.5141 36.9978 36.2086 36.8494 36.0051 36.6855C35.7705 36.4965 35.58 36.215 35.3487 35.7831C35.308 35.7072 35.2643 35.6224 35.2173 35.5315C35.0321 35.1728 34.7977 34.7187 34.513 34.3413C34.1168 33.816 33.5623 33.338 32.7289 33.1297C31.0063 32.6993 29.7117 33.4996 28.7629 34.0905C27.7352 34.7306 27.0593 35.1503 26.1588 35.0554C25.1001 34.9439 24.4271 34.352 23.5245 33.4719C23.4863 33.4347 23.4477 33.3969 23.4086 33.3587C22.5683 32.5364 21.4948 31.4859 19.8072 31.1672C18.4985 30.9201 17.4099 30.3485 16.1918 29.7088C16.0601 29.6396 15.9268 29.5697 15.7916 29.4992C14.6889 28.9247 13.472 28.3313 12.0241 28.106C13.3395 28.053 14.4251 27.7572 15.3798 27.497C15.5098 27.4616 15.6373 27.4268 15.7627 27.3934C16.9666 27.0727 18.0311 26.8529 19.4361 27.1182C20.5184 27.3226 21.2015 27.986 22.1283 28.8896C23.01 29.7493 24.129 30.8384 25.9493 31.0302C27.5506 31.1988 28.7697 30.4333 29.6605 29.8739C29.7149 29.8397 29.7682 29.8063 29.8202 29.7739C30.802 29.1624 31.4237 28.8508 32.2441 29.0558C32.5396 29.1297 32.7974 29.3072 33.0705 29.6229C33.3251 29.9172 33.5396 30.2643 33.7992 30.6843C33.8374 30.746 33.8765 30.8092 33.9168 30.8742C34.2019 31.3327 34.5683 31.9059 35.0657 32.3297C35.6135 32.7964 36.3174 33.0827 37.1982 32.9788C38.4912 32.8264 39.3024 32.131 39.8577 31.3076C40.1221 30.9157 40.3317 30.492 40.5127 30.0977C40.5939 29.9208 40.6648 29.7607 40.733 29.6066C40.8306 29.3861 40.9227 29.1781 41.0318 28.9509C41.3818 28.2219 41.7315 27.694 42.2379 27.3597C42.7202 27.0414 43.4895 26.8068 44.8674 26.9912L45.1326 25.0089C43.4272 24.7806 42.1325 25.0329 41.1361 25.6906C40.1638 26.3324 39.6203 27.2698 39.2288 28.0853C39.1126 28.3273 38.9921 28.5988 38.8809 28.849C38.8147 28.9982 38.7518 29.1399 38.6951 29.2633C38.527 29.6295 38.3713 29.9348 38.1997 30.1892C37.8832 30.6585 37.5405 30.9246 36.964 30.9926C36.7029 31.0234 36.5411 30.9593 36.3628 30.8073C36.1341 30.6125 35.914 30.2986 35.6154 29.8183C35.581 29.763 35.5454 29.7052 35.5087 29.6455C35.2581 29.2384 34.9514 28.7402 34.5831 28.3144C34.1419 27.8044 33.5517 27.3211 32.7289 27.1155C31.0063 26.685 29.7117 27.4853 28.7629 28.0762C27.7352 28.7163 27.0593 29.136 26.1588 29.0412C25.1001 28.9297 24.4271 28.3377 23.5245 27.4576C23.4863 27.4204 23.4477 27.3827 23.4086 27.3444C22.5683 26.5221 21.4948 25.4716 19.8072 25.153C17.9548 24.8032 16.5379 25.1171 15.2478 25.4608C15.1166 25.4958 14.9873 25.5308 14.8594 25.5654C13.7308 25.871 12.7076 26.1481 11.3793 26.111C10.1493 26.0767 8.49005 25.4015 7.02957 24.6381C6.32322 24.2689 5.70392 23.9011 5.26114 23.6255C5.04019 23.488 4.8643 23.374 4.74476 23.2953C4.68501 23.2559 4.63942 23.2254 4.60939 23.2051L4.57622 23.1826L4.56875 23.1775C4.56875 23.1775 4.56734 23.1765 4.56656 23.1777L3.22657 24.6339L4 24C3.22657 24.6339 3.22643 24.6337 3.22657 24.6339L3.23127 24.6396L3.24183 24.6524L3.28006 24.6982C3.313 24.7375 3.36066 24.7938 3.42178 24.8647C3.54396 25.0066 3.7203 25.2074 3.94071 25.4477C4.38038 25.9272 5.00104 26.5703 5.7214 27.2192C6.43831 27.865 7.27471 28.5353 8.14614 29.0549C9.00113 29.5647 9.98333 29.9863 10.9721 30.0139C12.3795 30.0532 13.5445 30.5836 14.8675 31.2729C14.9999 31.3419 15.1343 31.4128 15.271 31.4848C16.4598 32.1117 17.8152 32.8264 19.4361 33.1325C20.5184 33.3369 21.2015 34.0003 22.1283 34.9039C23.01 35.7636 24.129 36.8527 25.9493 37.0444C27.5506 37.2131 28.7697 36.4476 29.6605 35.8882C29.7149 35.854 29.7682 35.8206 29.8202 35.7882C30.802 35.1767 31.4237 34.8651 32.2441 35.0701C32.529 35.1413 32.7228 35.2891 32.9163 35.5457C33.0891 35.7746 33.218 36.0232 33.3885 36.3519C33.448 36.4664 33.5124 36.5907 33.5856 36.7273C33.8382 37.1991 34.1844 37.7871 34.7506 38.2431C35.348 38.7242 36.1075 38.9963 37.0773 39C38.4416 39.0051 39.487 38.2992 40.284 37.4374C41.0674 36.5903 41.7053 35.4913 42.2584 34.4999C42.3363 34.3603 42.4124 34.2231 42.487 34.0885C42.9691 33.2191 43.391 32.4584 43.8407 31.8739C44.3716 31.1838 44.7373 31.0143 45 31.0143V29.0143C43.7627 29.0143 42.8784 29.8448 42.2556 30.6544C41.7063 31.3683 41.2014 32.2805 40.7292 33.1338C40.656 33.2661 40.5835 33.397 40.5119 33.5254C39.9501 34.5323 39.4157 35.4306 38.8157 36.0795Z" fill="#B480DE"/>
</svg>
