<svg width="48" height="48" viewBox="0 0 48 48" fill="none" xmlns="http://www.w3.org/2000/svg">
<path d="M4 24C4 18.4772 8.47715 14 14 14C19.5228 14 24 18.4772 24 24C24 29.5228 19.5228 34 14 34C8.47715 34 4 29.5228 4 24Z" fill="#B480DE"/>
<path fill-rule="evenodd" clip-rule="evenodd" d="M14 18C13.4477 18 13 18.4477 13 19V23.6C13 24.3732 13.6268 25 14.4 25H19C19.5523 25 20 24.5523 20 24C20 23.4477 19.5523 23 19 23H15V19C15 18.4477 14.5523 18 14 18Z" fill="white"/>
<path fill-rule="evenodd" clip-rule="evenodd" d="M26.5 20C26.5 19.1716 27.1716 18.5 28 18.5L34 18.5C34.8284 18.5 35.5 19.1716 35.5 20C35.5 20.8284 34.8284 21.5 34 21.5L28 21.5C27.1716 21.5 26.5 20.8284 26.5 20Z" fill="#B480DE"/>
<path fill-rule="evenodd" clip-rule="evenodd" d="M26.5 26C26.5 25.1716 27.1716 24.5 28 24.5L30 24.5C30.8284 24.5 31.5 25.1716 31.5 26C31.5 26.8284 30.8284 27.5 30 27.5L28 27.5C27.1716 27.5 26.5 26.8284 26.5 26Z" fill="#B480DE"/>
<path fill-rule="evenodd" clip-rule="evenodd" d="M43.0607 20.9393C43.6465 21.5251 43.6465 22.4749 43.0607 23.0607L37.3704 28.7509C36.5804 29.541 35.2825 29.4821 34.5673 28.6238L32.8477 26.5603C32.3174 25.9239 32.4033 24.978 33.0398 24.4477C33.6762 23.9173 34.622 24.0033 35.1524 24.6397L36.1008 25.7779L40.9394 20.9393C41.5252 20.3536 42.4749 20.3536 43.0607 20.9393Z" fill="#B480DE"/>
</svg>
