<svg width="24" height="24" viewBox="0 0 24 24" fill="none" xmlns="http://www.w3.org/2000/svg">
<path d="M6 3V21" stroke="black" stroke-linecap="round"/>
<circle cx="6" cy="6" r="1" fill="white" stroke="black"/>
<circle cx="6" cy="12" r="2" fill="white" stroke="black" stroke-width="1.5"/>
<circle cx="6" cy="18" r="1" fill="white" stroke="black"/>
<path d="M10.9406 5.08906C10.9777 5.03342 11.0402 5 11.107 5H17.8C17.9105 5 18 5.08954 18 5.2V7.8C18 7.91046 17.9105 8 17.8 8H11.107C11.0402 8 10.9777 7.96658 10.9406 7.91094L10.074 6.61094C10.0292 6.54376 10.0292 6.45624 10.074 6.38906L10.9406 5.08906Z" stroke="black"/>
<path d="M10.9406 11.0891C10.9777 11.0334 11.0402 11 11.107 11H20.8C20.9105 11 21 11.0895 21 11.2V13.8C21 13.9105 20.9105 14 20.8 14H11.107C11.0402 14 10.9777 13.9666 10.9406 13.9109L10.074 12.6109C10.0292 12.5438 10.0292 12.4562 10.074 12.3891L10.9406 11.0891Z" stroke="black" stroke-width="1.5"/>
<path d="M10.9406 17.0891C10.9777 17.0334 11.0402 17 11.107 17H15.8C15.9105 17 16 17.0895 16 17.2V19.8C16 19.9105 15.9105 20 15.8 20H11.107C11.0402 20 10.9777 19.9666 10.9406 19.9109L10.074 18.6109C10.0292 18.5438 10.0292 18.4562 10.074 18.3891L10.9406 17.0891Z" stroke="black"/>
</svg>
