<svg width="48" height="48" viewBox="0 0 48 48" fill="none" xmlns="http://www.w3.org/2000/svg">
<path d="M4 13C4 8.02944 8.02944 4 13 4V4C17.9706 4 22 8.02944 22 13V13C22 17.9706 17.9706 22 13 22V22C8.02944 22 4 17.9706 4 13V13Z" fill="#B480DE"/>
<path fill-rule="evenodd" clip-rule="evenodd" d="M13 7.5C12.4477 7.5 12 7.94772 12 8.5V12.6C12 13.3732 12.6268 14 13.4 14H17.5C18.0523 14 18.5 13.5523 18.5 13C18.5 12.4477 18.0523 12 17.5 12H14V8.5C14 7.94772 13.5523 7.5 13 7.5Z" fill="white"/>
<path fill-rule="evenodd" clip-rule="evenodd" d="M26.5 10C26.5 9.17157 27.1716 8.5 28 8.5L34 8.5C34.8284 8.5 35.5 9.17157 35.5 10C35.5 10.8284 34.8284 11.5 34 11.5L28 11.5C27.1716 11.5 26.5 10.8284 26.5 10Z" fill="#B480DE"/>
<path fill-rule="evenodd" clip-rule="evenodd" d="M26.5 16C26.5 15.1716 27.1716 14.5 28 14.5L30 14.5C30.8284 14.5 31.5 15.1716 31.5 16C31.5 16.8284 30.8284 17.5 30 17.5L28 17.5C27.1716 17.5 26.5 16.8284 26.5 16Z" fill="#B480DE"/>
<path fill-rule="evenodd" clip-rule="evenodd" d="M43.0607 10.9393C43.6465 11.5251 43.6465 12.4749 43.0607 13.0607L37.3704 18.7509C36.5804 19.541 35.2825 19.4821 34.5673 18.6238L32.8477 16.5603C32.3174 15.9239 32.4033 14.978 33.0398 14.4477C33.6762 13.9173 34.622 14.0033 35.1524 14.6397L36.1008 15.7779L40.9394 10.9393C41.5252 10.3536 42.4749 10.3536 43.0607 10.9393Z" fill="#B480DE"/>
<path d="M26 35C26 30.0294 30.0294 26 35 26V26C39.9706 26 44 30.0294 44 35V35C44 39.9706 39.9706 44 35 44V44C30.0294 44 26 39.9706 26 35V35Z" fill="#B480DE"/>
<path fill-rule="evenodd" clip-rule="evenodd" d="M35 29.5C34.4477 29.5 34 29.9477 34 30.5V34.8343C34 35.2056 34.1475 35.5617 34.4101 35.8243L37.6679 39.0821C38.0584 39.4726 38.6916 39.4726 39.0821 39.0821C39.4726 38.6916 39.4726 38.0584 39.0821 37.6679L36 34.5858V30.5C36 29.9477 35.5523 29.5 35 29.5Z" fill="white"/>
<path fill-rule="evenodd" clip-rule="evenodd" d="M4.5 32C4.5 31.1716 5.17157 30.5 6 30.5L12 30.5C12.8284 30.5 13.5 31.1716 13.5 32C13.5 32.8284 12.8284 33.5 12 33.5L6 33.5C5.17157 33.5 4.5 32.8284 4.5 32Z" fill="#B480DE"/>
<path fill-rule="evenodd" clip-rule="evenodd" d="M4.5 38C4.5 37.1716 5.17157 36.5 6 36.5L8 36.5C8.82843 36.5 9.5 37.1716 9.5 38C9.5 38.8284 8.82843 39.5 8 39.5L6 39.5C5.17157 39.5 4.5 38.8284 4.5 38Z" fill="#B480DE"/>
<path fill-rule="evenodd" clip-rule="evenodd" d="M21.0607 32.9393C21.6465 33.5251 21.6465 34.4749 21.0607 35.0607L15.3704 40.7509C14.5804 41.541 13.2825 41.4821 12.5673 40.6238L10.8477 38.5603C10.3174 37.9239 10.4033 36.978 11.0398 36.4477C11.6762 35.9173 12.622 36.0033 13.1524 36.6397L14.1008 37.7779L18.9394 32.9393C19.5252 32.3536 20.4749 32.3536 21.0607 32.9393Z" fill="#B480DE"/>
</svg>
