<svg width="48" height="48" viewBox="0 0 48 48" fill="none" xmlns="http://www.w3.org/2000/svg">
<path fill-rule="evenodd" clip-rule="evenodd" d="M12 5C12.5523 5 13 5.44772 13 6V42C13 42.5523 12.5523 43 12 43C11.4477 43 11 42.5523 11 42V6C11 5.44772 11.4477 5 12 5Z" fill="#D9D9D9"/>
<path d="M14 12C14 13.1046 13.1046 14 12 14C10.8954 14 10 13.1046 10 12C10 10.8954 10.8954 10 12 10C13.1046 10 14 10.8954 14 12Z" fill="white"/>
<path fill-rule="evenodd" clip-rule="evenodd" d="M12 11C11.4477 11 11 11.4477 11 12C11 12.5523 11.4477 13 12 13C12.5523 13 13 12.5523 13 12C13 11.4477 12.5523 11 12 11ZM9 12C9 10.3431 10.3431 9 12 9C13.6569 9 15 10.3431 15 12C15 13.6569 13.6569 15 12 15C10.3431 15 9 13.6569 9 12Z" fill="#D9D9D9"/>
<path d="M16 24C16 26.2091 14.2091 28 12 28C9.79086 28 8 26.2091 8 24C8 21.7909 9.79086 20 12 20C14.2091 20 16 21.7909 16 24Z" fill="white"/>
<path fill-rule="evenodd" clip-rule="evenodd" d="M12 21.5C10.6193 21.5 9.5 22.6193 9.5 24C9.5 25.3807 10.6193 26.5 12 26.5C13.3807 26.5 14.5 25.3807 14.5 24C14.5 22.6193 13.3807 21.5 12 21.5ZM6.5 24C6.5 20.9624 8.96243 18.5 12 18.5C15.0376 18.5 17.5 20.9624 17.5 24C17.5 27.0376 15.0376 29.5 12 29.5C8.96243 29.5 6.5 27.0376 6.5 24Z" fill="#B480DE"/>
<path d="M14 36C14 37.1046 13.1046 38 12 38C10.8954 38 10 37.1046 10 36C10 34.8954 10.8954 34 12 34C13.1046 34 14 34.8954 14 36Z" fill="white"/>
<path fill-rule="evenodd" clip-rule="evenodd" d="M12 35C11.4477 35 11 35.4477 11 36C11 36.5523 11.4477 37 12 37C12.5523 37 13 36.5523 13 36C13 35.4477 12.5523 35 12 35ZM9 36C9 34.3431 10.3431 33 12 33C13.6569 33 15 34.3431 15 36C15 37.6569 13.6569 39 12 39C10.3431 39 9 37.6569 9 36Z" fill="#D9D9D9"/>
<path fill-rule="evenodd" clip-rule="evenodd" d="M21.0485 9.62342C21.3082 9.23394 21.7453 9 22.2134 9H35.5993C36.3725 9 36.9993 9.6268 36.9993 10.4V15.6C36.9993 16.3732 36.3725 17 35.5993 17H22.2134C21.7453 17 21.3082 16.7661 21.0485 16.3766L19.3152 13.7766C19.0017 13.3063 19.0017 12.6937 19.3152 12.2234L21.0485 9.62342ZM22.5345 11L21.2012 13L22.5345 15H34.9993V11H22.5345Z" fill="#D9D9D9"/>
<path d="M21.8806 22.1781C21.9548 22.0668 22.0797 22 22.2134 22H41.5993C41.8203 22 41.9993 22.1791 41.9993 22.4V27.6C41.9993 27.8209 41.8203 28 41.5993 28H22.2134C22.0797 28 21.9548 27.9332 21.8806 27.8219L20.1473 25.2219C20.0577 25.0875 20.0577 24.9125 20.1473 24.7781L21.8806 22.1781Z" fill="#B480DE"/>
<path fill-rule="evenodd" clip-rule="evenodd" d="M20.6325 21.3461C20.9849 20.8175 21.5781 20.5 22.2134 20.5H41.5993C42.6487 20.5 43.4993 21.3507 43.4993 22.4V27.6C43.4993 28.6493 42.6487 29.5 41.5993 29.5H22.2134C21.5781 29.5 20.9849 29.1825 20.6325 28.6539L18.8992 26.0539C18.4737 25.4157 18.4737 24.5843 18.8992 23.9461L20.6325 21.3461ZM22.8021 23.5L21.8021 25L22.8021 26.5H40.4993V23.5H22.8021Z" fill="#B480DE"/>
<path fill-rule="evenodd" clip-rule="evenodd" d="M21.0485 33.6234C21.3082 33.2339 21.7453 33 22.2134 33H31.5993C32.3725 33 32.9993 33.6268 32.9993 34.4V39.6C32.9993 40.3732 32.3725 41 31.5993 41H22.2134C21.7453 41 21.3082 40.7661 21.0485 40.3766L19.3152 37.7766C19.0017 37.3063 19.0017 36.6937 19.3152 36.2234L21.0485 33.6234ZM22.5345 35L21.2012 37L22.5345 39H30.9993V35H22.5345Z" fill="#D9D9D9"/>
</svg>
