<svg width="48" height="48" viewBox="0 0 48 48" fill="none" xmlns="http://www.w3.org/2000/svg">
<path d="M9 26C9 17.7157 15.7157 11 24 11C32.2843 11 39 17.7157 39 26C39 34.2843 32.2843 41 24 41C15.7157 41 9 34.2843 9 26Z" fill="#E8E8E8"/>
<path fill-rule="evenodd" clip-rule="evenodd" d="M7.5 26C7.5 16.8873 14.8873 9.5 24 9.5C33.1127 9.5 40.5 16.8873 40.5 26C40.5 35.1127 33.1127 42.5 24 42.5C14.8873 42.5 7.5 35.1127 7.5 26ZM24 12.5C16.5442 12.5 10.5 18.5442 10.5 26C10.5 33.4558 16.5442 39.5 24 39.5C31.4558 39.5 37.5 33.4558 37.5 26C37.5 18.5442 31.4558 12.5 24 12.5Z" fill="#B480DE"/>
<path fill-rule="evenodd" clip-rule="evenodd" d="M24 16C24.5523 16 25 16.4477 25 17V25.4197L31.4961 29.1318C31.9757 29.4058 32.1423 30.0166 31.8682 30.4961C31.5942 30.9757 30.9834 31.1423 30.5039 30.8682L23.5039 26.8682C23.1923 26.6902 23 26.3589 23 26V17C23 16.4477 23.4477 16 24 16Z" fill="#B480DE"/>
<path fill-rule="evenodd" clip-rule="evenodd" d="M19.5 6C19.5 5.17157 20.1716 4.5 21 4.5H27C27.8284 4.5 28.5 5.17157 28.5 6C28.5 6.82843 27.8284 7.5 27 7.5H21C20.1716 7.5 19.5 6.82843 19.5 6Z" fill="#B480DE"/>
<path fill-rule="evenodd" clip-rule="evenodd" d="M24 4.5C24.8284 4.5 25.5 5.17157 25.5 6V11C25.5 11.8284 24.8284 12.5 24 12.5C23.1716 12.5 22.5 11.8284 22.5 11V6C22.5 5.17157 23.1716 4.5 24 4.5Z" fill="#B480DE"/>
<path fill-rule="evenodd" clip-rule="evenodd" d="M37.0607 9.93934C37.6464 10.5251 37.6464 11.4749 37.0607 12.0607L34.0607 15.0607C33.4749 15.6464 32.5251 15.6464 31.9393 15.0607C31.3536 14.4749 31.3536 13.5251 31.9393 12.9393L34.9393 9.93934C35.5251 9.35355 36.4749 9.35355 37.0607 9.93934Z" fill="#B480DE"/>
</svg>
