<svg width="48" height="48" viewBox="0 0 48 48" fill="none" xmlns="http://www.w3.org/2000/svg">
<path d="M4 20C4 17.7909 5.79086 16 8 16H40C42.2091 16 44 17.7909 44 20V28C44 30.2091 42.2091 32 40 32H8C5.79086 32 4 30.2091 4 28V20Z" fill="#B480DE"/>
<path fill-rule="evenodd" clip-rule="evenodd" d="M2.5 20C2.5 16.9624 4.96243 14.5 8 14.5H40C43.0376 14.5 45.5 16.9624 45.5 20V28C45.5 31.0376 43.0376 33.5 40 33.5H8C4.96244 33.5 2.5 31.0376 2.5 28V20ZM8 17.5C6.61929 17.5 5.5 18.6193 5.5 20V28C5.5 29.3807 6.61929 30.5 8 30.5H40C41.3807 30.5 42.5 29.3807 42.5 28V20C42.5 18.6193 41.3807 17.5 40 17.5H8Z" fill="#B480DE"/>
<path fill-rule="evenodd" clip-rule="evenodd" d="M9 24C9 23.4477 9.44772 23 10 23H26C26.5523 23 27 23.4477 27 24C27 24.5523 26.5523 25 26 25H10C9.44772 25 9 24.5523 9 24Z" fill="white"/>
<path fill-rule="evenodd" clip-rule="evenodd" d="M31.1681 22.4454C31.4744 21.9859 32.0953 21.8617 32.5548 22.1681L35.0001 23.7983L37.4454 22.1681C37.9049 21.8617 38.5258 21.9859 38.8322 22.4454C39.1385 22.9049 39.0143 23.5258 38.5548 23.8322L35.7767 25.6842C35.3064 25.9977 34.6938 25.9977 34.2235 25.6842L31.4454 23.8322C30.9859 23.5258 30.8617 22.9049 31.1681 22.4454Z" fill="white"/>
</svg>
