<svg width="48" height="48" viewBox="0 0 48 48" fill="none" xmlns="http://www.w3.org/2000/svg">
<path d="M42 19C42 18.4477 42.4477 18 43 18C43.5523 18 44 18.4477 44 19V23C44 23.5523 43.5523 24 43 24C42.4477 24 42 23.5523 42 23V19Z" fill="white"/>
<path fill-rule="evenodd" clip-rule="evenodd" d="M41 19C41 17.8954 41.8954 17 43 17C44.1046 17 45 17.8954 45 19V23C45 24.1046 44.1046 25 43 25C41.8954 25 41 24.1046 41 23V19Z" fill="#B480DE"/>
<path d="M4 25C4 24.4477 4.44772 24 5 24C5.55228 24 6 24.4477 6 25V29C6 29.5523 5.55228 30 5 30C4.44772 30 4 29.5523 4 29V25Z" fill="white"/>
<path fill-rule="evenodd" clip-rule="evenodd" d="M3 25C3 23.8954 3.89543 23 5 23C6.10457 23 7 23.8954 7 25V29C7 30.1046 6.10457 31 5 31C3.89543 31 3 30.1046 3 29V25Z" fill="#B480DE"/>
<path fill-rule="evenodd" clip-rule="evenodd" d="M30.6148 13.0772C30.9871 12.9218 31.4163 13.0053 31.7032 13.289L38.7032 20.2121C38.8966 20.4034 39.0038 20.6653 38.9999 20.9374C38.996 21.2094 38.8814 21.4682 38.6826 21.6539L31.2708 28.577C30.9798 28.8488 30.5552 28.9221 30.1899 28.7634C29.8246 28.6047 29.5882 28.2444 29.5882 27.8462V25H17.4118C16.8595 25 16.4118 24.5523 16.4118 24V22.4563L11.465 27.077L16.4118 31.6976V30.1539C16.4118 29.6016 16.8595 29.1539 17.4118 29.1539H26.4706C27.0229 29.1539 27.4706 29.6016 27.4706 30.1539C27.4706 30.7062 27.0229 31.1539 26.4706 31.1539H18.4118V34C18.4118 34.3983 18.1754 34.7586 17.8101 34.9173C17.4448 35.0759 17.0202 35.0027 16.7292 34.7308L9.3174 27.8077C9.11493 27.6186 9 27.354 9 27.077C9 26.7999 9.11493 26.5353 9.3174 26.3462L16.7292 19.4231C17.0202 19.1512 17.4448 19.078 17.8101 19.2366C18.1754 19.3953 18.4118 19.7556 18.4118 20.1539V23H30.5882C31.1405 23 31.5882 23.4477 31.5882 24V25.5437L36.5571 20.9025L32 16.3955V17.4616C32 18.0139 31.5523 18.4616 31 18.4616H22.3529C21.8007 18.4616 21.3529 18.0139 21.3529 17.4616C21.3529 16.9093 21.8007 16.4616 22.3529 16.4616H30V14C30 13.5966 30.2424 13.2326 30.6148 13.0772Z" fill="#B480DE"/>
</svg>
