<svg width="48" height="48" viewBox="0 0 48 48" fill="none" xmlns="http://www.w3.org/2000/svg">
<path d="M5.39551 9.11619C5.39551 7.06118 7.06143 5.39526 9.11644 5.39526H38.8839C40.9389 5.39526 42.6048 7.06118 42.6048 9.11619V38.8836C42.6048 40.9386 40.9389 42.6046 38.8839 42.6046H9.11644C7.06143 42.6046 5.39551 40.9386 5.39551 38.8836V9.11619Z" fill="#E8E8E8"/>
<path fill-rule="evenodd" clip-rule="evenodd" d="M4 9.11628C4 6.29064 6.29064 4 9.11628 4H38.8837C41.7094 4 44 6.29064 44 9.11628V38.8837C44 41.7094 41.7094 44 38.8837 44H9.11628C6.29064 44 4 41.7094 4 38.8837V9.11628ZM9.11628 6.7907C7.8319 6.7907 6.7907 7.8319 6.7907 9.11628V38.8837C6.7907 40.1681 7.8319 41.2093 9.11628 41.2093H38.8837C40.1681 41.2093 41.2093 40.1681 41.2093 38.8837V9.11628C41.2093 7.8319 40.1681 6.7907 38.8837 6.7907H9.11628Z" fill="#B480DE"/>
<path fill-rule="evenodd" clip-rule="evenodd" d="M24.9304 5.39526V26.7906H5.39551V24.9301H23.0699V5.39526H24.9304Z" fill="#B480DE"/>
<path fill-rule="evenodd" clip-rule="evenodd" d="M23.0693 42.6045V25.8604H24.9298V42.6045H23.0693Z" fill="#B480DE"/>
<path fill-rule="evenodd" clip-rule="evenodd" d="M13.7676 42.6045V25.8604H15.628V42.6045H13.7676Z" fill="#B480DE"/>
<path fill-rule="evenodd" clip-rule="evenodd" d="M42.6047 34.2325H24V32.3721H42.6047V34.2325Z" fill="#B480DE"/>
</svg>
