<svg width="48" height="48" viewBox="0 0 48 48" fill="none" xmlns="http://www.w3.org/2000/svg">
<rect width="48" height="48" fill="white"/>
<path fill-rule="evenodd" clip-rule="evenodd" d="M12.2929 23.2929C12.6834 22.9024 13.3166 22.9024 13.7071 23.2929L15 24.5858L16.2929 23.2929C16.6834 22.9024 17.3166 22.9024 17.7071 23.2929C18.0976 23.6834 18.0976 24.3166 17.7071 24.7071L15.9899 26.4243C15.4432 26.971 14.5568 26.971 14.0101 26.4243L12.2929 24.7071C11.9024 24.3166 11.9024 23.6834 12.2929 23.2929Z" fill="#B480DE"/>
<path fill-rule="evenodd" clip-rule="evenodd" d="M21.5 24C21.5 23.1716 22.1716 22.5 23 22.5L43 22.5C43.8284 22.5 44.5 23.1716 44.5 24C44.5 24.8284 43.8284 25.5 43 25.5L23 25.5C22.1716 25.5 21.5 24.8284 21.5 24Z" fill="#B480DE"/>
<path fill-rule="evenodd" clip-rule="evenodd" d="M4.29289 11.2929C4.68342 10.9024 5.31658 10.9024 5.70711 11.2929L7 12.5858L8.29289 11.2929C8.68342 10.9024 9.31658 10.9024 9.70711 11.2929C10.0976 11.6834 10.0976 12.3166 9.70711 12.7071L7.98995 14.4243C7.44322 14.971 6.55679 14.971 6.01005 14.4243L4.29289 12.7071C3.90237 12.3166 3.90237 11.6834 4.29289 11.2929Z" fill="#B480DE"/>
<path fill-rule="evenodd" clip-rule="evenodd" d="M12.5 12C12.5 11.1716 13.1716 10.5 14 10.5H42C42.8284 10.5 43.5 11.1716 43.5 12C43.5 12.8284 42.8284 13.5 42 13.5H14C13.1716 13.5 12.5 12.8284 12.5 12Z" fill="#B480DE"/>
<path fill-rule="evenodd" clip-rule="evenodd" d="M22.2929 35.2929C22.6834 34.9024 23.3166 34.9024 23.7071 35.2929L25 36.5858L26.2929 35.2929C26.6834 34.9024 27.3166 34.9024 27.7071 35.2929C28.0976 35.6834 28.0976 36.3166 27.7071 36.7071L25.9899 38.4243C25.4432 38.971 24.5568 38.971 24.0101 38.4243L22.2929 36.7071C21.9024 36.3166 21.9024 35.6834 22.2929 35.2929Z" fill="#B480DE"/>
<path fill-rule="evenodd" clip-rule="evenodd" d="M31.5 36C31.5 35.1716 32.1716 34.5 33 34.5H43C43.8284 34.5 44.5 35.1716 44.5 36C44.5 36.8284 43.8284 37.5 43 37.5H33C32.1716 37.5 31.5 36.8284 31.5 36Z" fill="#B480DE"/>
</svg>
