<svg width="48" height="48" viewBox="0 0 48 48" fill="none" xmlns="http://www.w3.org/2000/svg">
<path fill-rule="evenodd" clip-rule="evenodd" d="M26.8228 15.5674C24.6691 13.3756 23.0001 10.9535 23.0003 8L25.0003 8.00019C25.0001 10.1467 26.2008 12.0809 28.2494 14.1656C29.2653 15.1995 30.452 16.2333 31.7378 17.3225C32.0257 17.5663 32.3188 17.8131 32.6155 18.063C33.6335 18.9204 34.6948 19.8142 35.7375 20.7495C41.1498 25.6045 46.3926 31.8744 44.6659 42.1656L42.6934 41.8346C44.247 32.5758 39.6496 26.9456 34.402 22.2382C33.385 21.3259 32.356 20.4593 31.342 19.6054C31.0415 19.3523 30.7423 19.1003 30.4451 18.8486C29.1557 17.7563 27.9081 16.6718 26.8228 15.5674Z" fill="#B480DE"/>
<path fill-rule="evenodd" clip-rule="evenodd" d="M21.5673 15.529C23.5164 13.325 25.0006 10.9148 25.0004 8L23.0004 8.00017C23.0006 10.1854 21.902 12.1315 20.0691 14.204C19.1563 15.2361 18.0899 16.2685 16.933 17.3573C16.6742 17.6009 16.4106 17.8475 16.1437 18.0973C15.2273 18.9548 14.2711 19.8495 13.332 20.7856C8.44206 25.6594 3.75428 31.9121 5.30022 42.1494L7.2778 41.8508C5.87149 32.5381 10.0398 26.8907 14.7439 22.2021C15.6584 21.2906 16.5835 20.4249 17.4959 19.5711C17.7665 19.3179 18.036 19.0657 18.3037 18.8137C19.4646 17.7211 20.589 16.6351 21.5673 15.529Z" fill="#B480DE"/>
<path fill-rule="evenodd" clip-rule="evenodd" d="M25.651 15.4332C24.1233 13.2121 22.9997 10.8347 22.9999 8L24.9999 8.00013C24.9998 10.2654 25.885 12.2443 27.2989 14.2997C28.0075 15.33 28.8354 16.3604 29.7346 17.4485C29.9355 17.6917 30.1403 17.938 30.3478 18.1877C31.0607 19.0453 31.8055 19.9414 32.5369 20.8786C36.3615 25.7799 39.9583 31.9876 38.7686 42.1167L36.7822 41.8834C37.8888 32.4625 34.5974 26.7702 30.9601 22.109C30.2497 21.1986 29.5314 20.3344 28.8219 19.4808C28.6113 19.2274 28.4015 18.975 28.1929 18.7225C27.2893 17.6292 26.4132 16.5412 25.651 15.4332Z" fill="#B480DE"/>
<path fill-rule="evenodd" clip-rule="evenodd" d="M22.74 15.3743C24.0513 13.1502 25.0002 10.7938 25 8L23 8.00011C23.0002 10.3063 22.2272 12.3062 21.0171 14.3586C20.2595 15.6437 19.3839 16.8713 18.4401 18.1946C17.8268 19.0546 17.1846 19.955 16.5272 20.9378C13.245 25.845 10.1832 32.0248 11.1975 42.1002L13.1874 41.8999C12.2336 32.4253 15.0758 26.7051 18.1896 22.0498C18.7689 21.1837 19.3799 20.3252 19.9846 19.4756C20.9759 18.0828 21.9503 16.7138 22.74 15.3743Z" fill="#B480DE"/>
<path fill-rule="evenodd" clip-rule="evenodd" d="M26.3221 19.3408C24.6124 15.7486 22.9998 12.3607 23 8L25 8.00007C24.9999 11.8699 26.3777 14.7767 28.0594 18.3247C28.4735 19.1984 28.9061 20.1111 29.3411 21.0865C31.5244 25.9829 33.5387 32.0962 32.8695 42.067L30.874 41.9331C31.5169 32.3539 29.5951 26.5672 27.5144 21.901C27.1245 21.0266 26.7207 20.1782 26.3221 19.3408Z" fill="#B480DE"/>
<path fill-rule="evenodd" clip-rule="evenodd" d="M22.5293 19.2281C23.8101 15.6383 25.0001 12.3027 25 8L23 8.00006C23.0001 11.9273 21.9479 14.8858 20.6842 18.4386C20.375 19.308 20.0531 20.2131 19.7308 21.1766C18.0994 26.0546 16.5981 32.13 17.0975 42.0503L19.0949 41.9498C18.6102 32.3201 20.0609 26.4954 21.6276 21.8109C21.9237 20.9255 22.229 20.0698 22.5293 19.2281Z" fill="#B480DE"/>
<path d="M26 8C26 9.10457 25.1046 10 24 10C22.8954 10 22 9.10457 22 8C22 6.89543 22.8954 6 24 6C25.1046 6 26 6.89543 26 8Z" fill="#E8E8E8"/>
<path fill-rule="evenodd" clip-rule="evenodd" d="M24 7C23.4477 7 23 7.44772 23 8C23 8.55228 23.4477 9 24 9C24.5523 9 25 8.55228 25 8C25 7.44772 24.5523 7 24 7ZM21 8C21 6.34315 22.3431 5 24 5C25.6569 5 27 6.34315 27 8C27 9.65685 25.6569 11 24 11C22.3431 11 21 9.65685 21 8Z" fill="#B480DE"/>
<path d="M8 42C8 43.1046 7.10457 44 6 44C4.89543 44 4 43.1046 4 42C4 40.8954 4.89543 40 6 40C7.10457 40 8 40.8954 8 42Z" fill="#E8E8E8"/>
<path fill-rule="evenodd" clip-rule="evenodd" d="M6 41C5.44772 41 5 41.4477 5 42C5 42.5523 5.44772 43 6 43C6.55228 43 7 42.5523 7 42C7 41.4477 6.55228 41 6 41ZM3 42C3 40.3431 4.34315 39 6 39C7.65685 39 9 40.3431 9 42C9 43.6569 7.65685 45 6 45C4.34315 45 3 43.6569 3 42Z" fill="#B480DE"/>
<path d="M14 42C14 43.1046 13.1046 44 12 44C10.8954 44 10 43.1046 10 42C10 40.8954 10.8954 40 12 40C13.1046 40 14 40.8954 14 42Z" fill="#E8E8E8"/>
<path fill-rule="evenodd" clip-rule="evenodd" d="M12 41C11.4477 41 11 41.4477 11 42C11 42.5523 11.4477 43 12 43C12.5523 43 13 42.5523 13 42C13 41.4477 12.5523 41 12 41ZM9 42C9 40.3431 10.3431 39 12 39C13.6569 39 15 40.3431 15 42C15 43.6569 13.6569 45 12 45C10.3431 45 9 43.6569 9 42Z" fill="#B480DE"/>
<path d="M20 42C20 43.1046 19.1046 44 18 44C16.8954 44 16 43.1046 16 42C16 40.8954 16.8954 40 18 40C19.1046 40 20 40.8954 20 42Z" fill="#E8E8E8"/>
<path fill-rule="evenodd" clip-rule="evenodd" d="M18 41C17.4477 41 17 41.4477 17 42C17 42.5523 17.4477 43 18 43C18.5523 43 19 42.5523 19 42C19 41.4477 18.5523 41 18 41ZM15 42C15 40.3431 16.3431 39 18 39C19.6569 39 21 40.3431 21 42C21 43.6569 19.6569 45 18 45C16.3431 45 15 43.6569 15 42Z" fill="#B480DE"/>
<path d="M34 42C34 43.1046 33.1046 44 32 44C30.8954 44 30 43.1046 30 42C30 40.8954 30.8954 40 32 40C33.1046 40 34 40.8954 34 42Z" fill="#E8E8E8"/>
<path fill-rule="evenodd" clip-rule="evenodd" d="M32 41C31.4477 41 31 41.4477 31 42C31 42.5523 31.4477 43 32 43C32.5523 43 33 42.5523 33 42C33 41.4477 32.5523 41 32 41ZM29 42C29 40.3431 30.3431 39 32 39C33.6569 39 35 40.3431 35 42C35 43.6569 33.6569 45 32 45C30.3431 45 29 43.6569 29 42Z" fill="#B480DE"/>
<path d="M40 42C40 43.1046 39.1046 44 38 44C36.8954 44 36 43.1046 36 42C36 40.8954 36.8954 40 38 40C39.1046 40 40 40.8954 40 42Z" fill="#E8E8E8"/>
<path fill-rule="evenodd" clip-rule="evenodd" d="M38 41C37.4477 41 37 41.4477 37 42C37 42.5523 37.4477 43 38 43C38.5523 43 39 42.5523 39 42C39 41.4477 38.5523 41 38 41ZM35 42C35 40.3431 36.3431 39 38 39C39.6569 39 41 40.3431 41 42C41 43.6569 39.6569 45 38 45C36.3431 45 35 43.6569 35 42Z" fill="#B480DE"/>
<path d="M46 42C46 43.1046 45.1046 44 44 44C42.8954 44 42 43.1046 42 42C42 40.8954 42.8954 40 44 40C45.1046 40 46 40.8954 46 42Z" fill="#E8E8E8"/>
<path fill-rule="evenodd" clip-rule="evenodd" d="M44 41C43.4477 41 43 41.4477 43 42C43 42.5523 43.4477 43 44 43C44.5523 43 45 42.5523 45 42C45 41.4477 44.5523 41 44 41ZM41 42C41 40.3431 42.3431 39 44 39C45.6569 39 47 40.3431 47 42C47 43.6569 45.6569 45 44 45C42.3431 45 41 43.6569 41 42Z" fill="#B480DE"/>
</svg>
