<svg width="48" height="48" viewBox="0 0 48 48" fill="none" xmlns="http://www.w3.org/2000/svg">
<rect width="48" height="48" fill="white"/>
<path fill-rule="evenodd" clip-rule="evenodd" d="M4 11.5C4 8.46243 6.46243 6 9.5 6H37.5C40.5376 6 43 8.46243 43 11.5V15.5C43 18.5376 40.5376 21 37.5 21H9.5C6.46243 21 4 18.5376 4 15.5V11.5ZM9.5 9C8.11929 9 7 10.1193 7 11.5V15.5C7 16.8807 8.11929 18 9.5 18H37.5C38.8807 18 40 16.8807 40 15.5V11.5C40 10.1193 38.8807 9 37.5 9H9.5Z" fill="#B480DE"/>
<path fill-rule="evenodd" clip-rule="evenodd" d="M30.7929 15.2071C31.1834 15.5976 31.8166 15.5976 32.2071 15.2071L33.5 13.9142L34.7929 15.2071C35.1834 15.5976 35.8166 15.5976 36.2071 15.2071C36.5976 14.8166 36.5976 14.1834 36.2071 13.7929L34.4899 12.0757C33.9432 11.529 33.0568 11.529 32.5101 12.0757L30.7929 13.7929C30.4024 14.1834 30.4024 14.8166 30.7929 15.2071Z" fill="#B480DE"/>
<path fill-rule="evenodd" clip-rule="evenodd" d="M4.79289 32.2071C4.40237 31.8166 4.40237 31.1834 4.79289 30.7929L6.08579 29.5L4.79289 28.2071C4.40237 27.8166 4.40237 27.1834 4.79289 26.7929C5.18342 26.4024 5.81658 26.4024 6.20711 26.7929L7.92426 28.5101C8.471 29.0568 8.471 29.9432 7.92426 30.4899L6.20711 32.2071C5.81658 32.5976 5.18342 32.5976 4.79289 32.2071Z" fill="#B480DE"/>
<path fill-rule="evenodd" clip-rule="evenodd" d="M11 29.5C11 28.6716 11.6716 28 12.5 28H40.5C41.3284 28 42 28.6716 42 29.5C42 30.3284 41.3284 31 40.5 31H12.5C11.6716 31 11 30.3284 11 29.5Z" fill="#B480DE"/>
<path fill-rule="evenodd" clip-rule="evenodd" d="M4.79289 42.2071C4.40237 41.8166 4.40237 41.1834 4.79289 40.7929L6.08579 39.5L4.79289 38.2071C4.40237 37.8166 4.40237 37.1834 4.79289 36.7929C5.18342 36.4024 5.81658 36.4024 6.20711 36.7929L7.92426 38.5101C8.471 39.0568 8.471 39.9432 7.92426 40.4899L6.20711 42.2071C5.81658 42.5976 5.18342 42.5976 4.79289 42.2071Z" fill="#B480DE"/>
<path fill-rule="evenodd" clip-rule="evenodd" d="M11 39.5C11 38.6716 11.6716 38 12.5 38H40.5C41.3284 38 42 38.6716 42 39.5C42 40.3284 41.3284 41 40.5 41H12.5C11.6716 41 11 40.3284 11 39.5Z" fill="#B480DE"/>
</svg>
