<svg width="48" height="48" viewBox="0 0 48 48" fill="none" xmlns="http://www.w3.org/2000/svg">
<path fill-rule="evenodd" clip-rule="evenodd" d="M23.52 9.88574C18.9321 9.88574 15.2129 13.605 15.2129 18.1928C15.2129 22.7807 18.9321 26.4999 23.52 26.4999C25.3003 26.4999 26.9457 25.9416 28.2965 24.9904L30.0237 27.4433C28.1839 28.7389 25.9386 29.4999 23.52 29.4999C17.2753 29.4999 12.2129 24.4376 12.2129 18.1928C12.2129 11.9481 17.2753 6.88574 23.52 6.88574C29.7647 6.88574 34.8271 11.9481 34.8271 18.1928H31.8271C31.8271 13.605 28.1079 9.88574 23.52 9.88574Z" fill="#B480DE"/>
<path d="M13.7676 17.3754L14.9225 18.1365L17.8383 20.0581C18.1358 20.2542 18.0477 20.7122 17.6987 20.7839L10.9453 22.1719C10.5962 22.2436 10.3347 21.8575 10.5308 21.56L13.2135 17.4893C13.335 17.3048 13.5831 17.2538 13.7676 17.3754Z" fill="#B480DE"/>
<path fill-rule="evenodd" clip-rule="evenodd" d="M12.378 16.9385C12.8035 16.2929 13.6718 16.1144 14.3174 16.5399L18.3881 19.2227C19.4295 19.909 19.1213 21.5119 17.8995 21.763L11.1461 23.1509C9.92439 23.402 9.00897 22.0506 9.69531 21.0092L12.378 16.9385ZM13.7178 18.5401L12.1624 20.9003L16.078 20.0955L13.7178 18.5401Z" fill="#B480DE"/>
<path d="M25.8224 8.67032L24.8504 9.6543L22.3963 12.1387C22.1459 12.3922 21.714 12.2164 21.7118 11.86L21.6695 4.9656C21.6673 4.60925 22.097 4.42814 22.3506 4.67858L25.8189 8.10464C25.9761 8.25989 25.9777 8.51315 25.8224 8.67032Z" fill="#B480DE"/>
<path fill-rule="evenodd" clip-rule="evenodd" d="M26.5216 7.3931C27.0717 7.93647 27.0771 8.82288 26.5337 9.37296L23.1077 12.8413C22.2311 13.7287 20.7193 13.1133 20.7117 11.8661L20.6694 4.97163C20.6617 3.72438 22.1659 3.09051 23.0532 3.96703L26.5216 7.3931ZM24.6892 8.39431L22.6782 6.40786L22.7028 10.4053L24.6892 8.39431Z" fill="#B480DE"/>
<path d="M33.0433 22.2787L32.0653 21.3007L29.596 18.8314C29.3441 18.5794 29.5225 18.1486 29.8789 18.1486L36.7735 18.1486C37.1298 18.1486 37.3083 18.5794 37.0563 18.8314L33.609 22.2787C33.4528 22.4349 33.1995 22.4349 33.0433 22.2787Z" fill="#B480DE"/>
<path fill-rule="evenodd" clip-rule="evenodd" d="M34.3161 22.9856C33.7694 23.5324 32.883 23.5324 32.3362 22.9856L28.8889 19.5384C28.007 18.6564 28.6316 17.1484 29.8789 17.1484L36.7735 17.1484C38.0207 17.1484 38.6454 18.6564 37.7634 19.5384L34.3161 22.9856ZM33.3262 21.1472L35.3249 19.1484H31.3274L33.3262 21.1472Z" fill="#B480DE"/>
<path d="M10 34C10 32.8954 10.8954 32 12 32H36C37.1046 32 38 32.8954 38 34V42C38 43.1046 37.1046 44 36 44H12C10.8954 44 10 43.1046 10 42V34Z" fill="#E8E8E8"/>
<path fill-rule="evenodd" clip-rule="evenodd" d="M9 34C9 32.3431 10.3431 31 12 31H36C37.6569 31 39 32.3431 39 34V42C39 43.6569 37.6569 45 36 45H12C10.3431 45 9 43.6569 9 42V34ZM12 33C11.4477 33 11 33.4477 11 34V42C11 42.5523 11.4477 43 12 43H36C36.5523 43 37 42.5523 37 42V34C37 33.4477 36.5523 33 36 33H12Z" fill="#B480DE"/>
<path d="M18.0856 40.1708L17.0498 40.466L16.0076 36.8095L17.0433 36.5143L18.0856 40.1708ZM16.8395 35.4299C16.8936 35.6199 16.874 35.7884 16.7806 35.9353C16.6905 36.0762 16.562 36.1705 16.3952 36.218C16.2283 36.2656 16.0671 36.2539 15.9116 36.183C15.7594 36.1061 15.6563 35.9726 15.6021 35.7826C15.5479 35.5926 15.5659 35.4272 15.656 35.2862C15.7495 35.1393 15.8796 35.0421 16.0464 34.9945C16.2133 34.947 16.3728 34.9617 16.525 35.0385C16.6805 35.1095 16.7853 35.2399 16.8395 35.4299Z" fill="#B480DE"/>
<path d="M21.3412 37.833C21.3014 37.5098 21.315 37.2 21.3821 36.9039C21.4542 36.6014 21.5766 36.333 21.7493 36.0987C21.9212 35.8587 22.1413 35.6588 22.4095 35.4991C22.6776 35.3394 22.9932 35.2372 23.3562 35.1924C23.5944 35.1631 23.8155 35.1589 24.0196 35.1798C24.223 35.195 24.4232 35.2308 24.6201 35.2871L24.4812 36.332C24.3565 36.3013 24.2211 36.2777 24.0752 36.2611C23.9292 36.2445 23.7683 36.2471 23.5925 36.2688C23.2182 36.3149 22.9518 36.4658 22.7933 36.7213C22.6404 36.9762 22.5874 37.2937 22.6343 37.6737C22.6839 38.0763 22.8074 38.3778 23.0048 38.578C23.2079 38.7775 23.5249 38.8507 23.9559 38.7976C24.1091 38.7787 24.2718 38.7443 24.4441 38.6942C24.6164 38.6442 24.7725 38.5789 24.9122 38.4984L25.2188 39.5142C25.079 39.5948 24.9013 39.6714 24.6858 39.744C24.4702 39.8166 24.2291 39.8694 23.9625 39.9022C23.5542 39.9525 23.1952 39.9363 22.8856 39.8536C22.5754 39.7651 22.3109 39.6279 22.0922 39.4418C21.8792 39.255 21.7098 39.0255 21.5841 38.7531C21.4634 38.4743 21.3824 38.1676 21.3412 37.833Z" fill="#B480DE"/>
<path d="M31.7273 39.8886C31.6526 40.1028 31.5456 40.287 31.4063 40.4413C31.2734 40.5925 31.11 40.709 30.9159 40.7907C30.7219 40.8725 30.4997 40.9124 30.2495 40.9105C30.0056 40.9055 29.7385 40.8523 29.4482 40.751C29.115 40.6347 28.8524 40.4923 28.6603 40.3238C28.4746 40.1522 28.3368 39.9733 28.2469 39.7871C28.1619 39.6025 28.119 39.4194 28.1184 39.2377C28.1194 39.0511 28.144 38.8889 28.1922 38.7509C28.242 38.6081 28.3067 38.4838 28.3863 38.3781C28.4659 38.2724 28.5557 38.1836 28.6555 38.1117C28.757 38.035 28.8624 37.9703 28.9715 37.9177C29.0854 37.8667 29.2024 37.8221 29.3225 37.7839C29.176 37.5459 29.081 37.3285 29.0376 37.1318C28.9989 36.9368 29.0235 36.7132 29.1116 36.4609C29.178 36.2705 29.28 36.1006 29.4177 35.9511C29.56 35.8032 29.725 35.69 29.9127 35.6113C30.102 35.5279 30.3098 35.483 30.5363 35.4766C30.7692 35.4671 31.0094 35.5055 31.2569 35.5919C31.5472 35.6933 31.7797 35.8225 31.9545 35.9796C32.1357 36.1336 32.2704 36.2981 32.3589 36.4731C32.4473 36.6481 32.4918 36.8265 32.4924 37.0082C32.4995 37.1869 32.4756 37.3548 32.4208 37.5118C32.341 37.7403 32.2044 37.9328 32.0109 38.0895C31.8238 38.2431 31.6199 38.3455 31.3992 38.3966C31.609 38.6674 31.737 38.9203 31.7831 39.1553C31.8356 39.3872 31.817 39.6316 31.7273 39.8886ZM29.2423 39.0693C29.2223 39.1264 29.2118 39.1948 29.2107 39.2745C29.216 39.3511 29.2372 39.428 29.2744 39.505C29.3116 39.5821 29.3687 39.6554 29.4459 39.725C29.523 39.7947 29.6258 39.8519 29.7543 39.8968C30.0018 39.9831 30.2035 39.9868 30.3592 39.9077C30.515 39.8285 30.6186 39.7152 30.6701 39.5677C30.7083 39.4582 30.7162 39.3515 30.6937 39.2476C30.676 39.1453 30.6351 39.0483 30.5711 38.9565C30.5087 38.86 30.4263 38.7671 30.3239 38.678C30.2279 38.5858 30.1208 38.495 30.0025 38.4057C29.8343 38.4591 29.6818 38.5367 29.5449 38.6384C29.4079 38.7401 29.3071 38.8837 29.2423 39.0693ZM31.3828 37.1816C31.4011 37.1292 31.4083 37.0703 31.4044 37.0049C31.407 36.9364 31.3912 36.8668 31.3571 36.7962C31.3278 36.7272 31.2809 36.6628 31.2164 36.6029C31.1535 36.5382 31.0673 36.4868 30.9579 36.4486C30.8532 36.4121 30.7569 36.3972 30.6691 36.4039C30.5814 36.4106 30.5013 36.4334 30.429 36.4723C30.3632 36.508 30.3075 36.5527 30.2622 36.6062C30.2168 36.6598 30.1841 36.7151 30.1642 36.7722C30.111 36.9245 30.1159 37.0864 30.1789 37.2579C30.2466 37.431 30.3995 37.6125 30.6375 37.8024C30.823 37.7604 30.9778 37.6916 31.1019 37.5961C31.226 37.5006 31.3197 37.3624 31.3828 37.1816Z" fill="#B480DE"/>
</svg>
