<svg width="24" height="24" viewBox="0 0 24 24" fill="none" xmlns="http://www.w3.org/2000/svg">
<path d="M16.6635 9.09642C16.6635 6.38826 14.4681 4.19287 11.76 4.19287C9.05184 4.19287 6.85645 6.38826 6.85645 9.09642C6.85645 11.8046 9.05184 14 11.76 14C12.8097 14 13.7824 13.6701 14.5801 13.1084" stroke="black" stroke-width="1.5"/>
<path d="M6.88379 8.6872L7.46123 9.06775L8.91914 10.0286C9.06791 10.1266 9.02387 10.3556 8.84934 10.3915L5.47263 11.0854C5.2981 11.1213 5.16733 10.9283 5.26538 10.7795L6.60674 8.74414C6.66752 8.65192 6.79156 8.62642 6.88379 8.6872Z" fill="white" stroke="black" stroke-linejoin="round"/>
<path d="M12.9112 4.33516L12.4252 4.82715L11.1982 6.06934C11.073 6.19611 10.857 6.1082 10.8559 5.93002L10.8347 2.4828C10.8336 2.30462 11.0485 2.21407 11.1753 2.33929L12.9095 4.05232C12.9881 4.12994 12.9888 4.25657 12.9112 4.33516Z" fill="white" stroke="black" stroke-linejoin="round"/>
<path d="M16.5217 11.1389L16.0327 10.6498L14.798 9.41521C14.672 9.28922 14.7613 9.07379 14.9394 9.07379L18.3867 9.07379C18.5649 9.07379 18.6541 9.28922 18.5281 9.41521L16.8045 11.1389C16.7264 11.217 16.5998 11.217 16.5217 11.1389Z" fill="white" stroke="black" stroke-linejoin="round"/>
<rect x="5" y="16" width="14" height="6" rx="1" stroke="black"/>
<path d="M9.0428 20.0854L8.52491 20.233L8.00378 18.4048L8.52167 18.2572L9.0428 20.0854ZM8.41974 17.715C8.44682 17.81 8.437 17.8942 8.39029 17.9676C8.34523 18.0381 8.281 18.0852 8.19758 18.109C8.11416 18.1328 8.03357 18.1269 7.95582 18.0915C7.87972 18.053 7.82813 17.9863 7.80105 17.8913C7.77397 17.7963 7.78296 17.7136 7.82801 17.6431C7.87473 17.5697 7.93979 17.5211 8.02321 17.4973C8.10663 17.4735 8.18639 17.4808 8.26248 17.5193C8.34024 17.5547 8.39266 17.62 8.41974 17.715Z" fill="black"/>
<path d="M10.6706 18.9165C10.6507 18.7549 10.6575 18.6 10.6911 18.4519C10.7271 18.3007 10.7883 18.1665 10.8746 18.0493C10.9606 17.9293 11.0706 17.8294 11.2047 17.7496C11.3388 17.6697 11.4966 17.6186 11.6781 17.5962C11.7972 17.5815 11.9078 17.5794 12.0098 17.5899C12.1115 17.5975 12.2116 17.6154 12.3101 17.6436L12.2406 18.166C12.1782 18.1506 12.1106 18.1388 12.0376 18.1305C11.9646 18.1223 11.8841 18.1236 11.7962 18.1344C11.6091 18.1574 11.4759 18.2329 11.3966 18.3607C11.3202 18.4881 11.2937 18.6468 11.3171 18.8368C11.3419 19.0382 11.4037 19.1889 11.5024 19.289C11.6039 19.3888 11.7625 19.4254 11.978 19.3988C12.0545 19.3894 12.1359 19.3721 12.2221 19.3471C12.3082 19.3221 12.3862 19.2895 12.4561 19.2492L12.6094 19.7571C12.5395 19.7974 12.4507 19.8357 12.3429 19.872C12.2351 19.9083 12.1145 19.9347 11.9813 19.9511C11.7771 19.9763 11.5976 19.9682 11.4428 19.9268C11.2877 19.8826 11.1554 19.8139 11.0461 19.7209C10.9396 19.6275 10.8549 19.5127 10.7921 19.3765C10.7317 19.2372 10.6912 19.0838 10.6706 18.9165Z" fill="black"/>
<path d="M15.8637 19.9443C15.8263 20.0514 15.7728 20.1435 15.7031 20.2207C15.6367 20.2962 15.555 20.3545 15.458 20.3954C15.3609 20.4362 15.2499 20.4562 15.1247 20.4552C15.0028 20.4527 14.8693 20.4261 14.7241 20.3755C14.5575 20.3173 14.4262 20.2461 14.3301 20.1619C14.2373 20.0761 14.1684 19.9866 14.1235 19.8935C14.0809 19.8013 14.0595 19.7097 14.0592 19.6188C14.0597 19.5256 14.072 19.4444 14.0961 19.3754C14.121 19.304 14.1534 19.2419 14.1932 19.1891C14.233 19.1362 14.2778 19.0918 14.3278 19.0559C14.3785 19.0175 14.4312 18.9852 14.4858 18.9588C14.5427 18.9333 14.6012 18.911 14.6613 18.892C14.588 18.7729 14.5405 18.6643 14.5188 18.5659C14.4994 18.4684 14.5118 18.3566 14.5558 18.2305C14.589 18.1353 14.64 18.0503 14.7088 17.9755C14.78 17.9016 14.8625 17.845 14.9563 17.8056C15.051 17.7639 15.1549 17.7415 15.2682 17.7383C15.3846 17.7335 15.5047 17.7528 15.6284 17.796C15.7736 17.8466 15.8899 17.9112 15.9772 17.9898C16.0678 18.0668 16.1352 18.149 16.1794 18.2365C16.2236 18.3241 16.2459 18.4132 16.2462 18.5041C16.2497 18.5934 16.2378 18.6774 16.2104 18.7559C16.1705 18.8701 16.1022 18.9664 16.0054 19.0448C15.9119 19.1216 15.81 19.1727 15.6996 19.1983C15.8045 19.3337 15.8685 19.4601 15.8915 19.5776C15.9178 19.6936 15.9085 19.8158 15.8637 19.9443ZM14.6211 19.5347C14.6112 19.5632 14.6059 19.5974 14.6053 19.6373C14.608 19.6756 14.6186 19.714 14.6372 19.7525C14.6558 19.791 14.6844 19.8277 14.7229 19.8625C14.7615 19.8973 14.8129 19.926 14.8772 19.9484C15.0009 19.9916 15.1017 19.9934 15.1796 19.9538C15.2575 19.9143 15.3093 19.8576 15.335 19.7838C15.3541 19.7291 15.3581 19.6758 15.3469 19.6238C15.338 19.5726 15.3176 19.5241 15.2855 19.4782C15.2543 19.43 15.2131 19.3836 15.1619 19.339C15.114 19.2929 15.0604 19.2475 15.0012 19.2028C14.9172 19.2295 14.8409 19.2683 14.7724 19.3192C14.704 19.37 14.6535 19.4419 14.6211 19.5347ZM15.6914 18.5908C15.7005 18.5646 15.7041 18.5352 15.7022 18.5025C15.7035 18.4682 15.6956 18.4334 15.6786 18.3981C15.6639 18.3636 15.6404 18.3314 15.6082 18.3015C15.5767 18.2691 15.5337 18.2434 15.4789 18.2243C15.4266 18.206 15.3785 18.1986 15.3346 18.2019C15.2907 18.2053 15.2507 18.2167 15.2145 18.2361C15.1816 18.254 15.1538 18.2763 15.1311 18.3031C15.1084 18.3299 15.092 18.3576 15.0821 18.3861C15.0555 18.4623 15.058 18.5432 15.0894 18.6289C15.1233 18.7155 15.1997 18.8063 15.3188 18.9012C15.4115 18.8802 15.4889 18.8458 15.551 18.798C15.613 18.7503 15.6598 18.6812 15.6914 18.5908Z" fill="black"/>
</svg>
