<svg width="48" height="48" viewBox="0 0 48 48" fill="none" xmlns="http://www.w3.org/2000/svg">
<path d="M6 10C6 7.79086 7.79086 6 10 6H38C40.2091 6 42 7.79086 42 10V38C42 40.2091 40.2091 42 38 42H10C7.79086 42 6 40.2091 6 38V10Z" fill="#E8E8E8"/>
<path fill-rule="evenodd" clip-rule="evenodd" d="M4.5 10C4.5 6.96243 6.96243 4.5 10 4.5H38C41.0376 4.5 43.5 6.96243 43.5 10V38C43.5 41.0376 41.0376 43.5 38 43.5H10C6.96243 43.5 4.5 41.0376 4.5 38V10ZM10 7.5C8.61929 7.5 7.5 8.61929 7.5 10V38C7.5 39.3807 8.61929 40.5 10 40.5H38C39.3807 40.5 40.5 39.3807 40.5 38V10C40.5 8.61929 39.3807 7.5 38 7.5H10Z" fill="#B480DE"/>
<path d="M29.5038 22.3366C30.6913 23.1282 30.6913 24.8732 29.5038 25.6648L23.1094 29.9278C21.7803 30.8138 20 29.8611 20 28.2637V19.7377C20 18.1403 21.7803 17.1876 23.1094 18.0736L29.5038 22.3366Z" fill="white"/>
<path fill-rule="evenodd" clip-rule="evenodd" d="M22.5547 18.9054C21.8901 18.4624 21 18.9388 21 19.7375V28.2634C21 29.0621 21.8901 29.5385 22.5547 29.0954L28.9491 24.8325C29.5429 24.4367 29.5429 23.5642 28.9491 23.1684L22.5547 18.9054ZM19 19.7375C19 17.3414 21.6704 15.9122 23.6641 17.2413L30.0585 21.5043C31.8397 22.6917 31.8397 25.3091 30.0585 26.4966L23.6641 30.7596C21.6704 32.0887 19 30.6595 19 28.2634V19.7375Z" fill="#B480DE"/>
</svg>
