<?xml version="1.0" encoding="UTF-8" standalone="no"?><!DOCTYPE svg PUBLIC "-//W3C//DTD SVG 1.1//EN"
        "http://www.w3.org/Graphics/SVG/1.1/DTD/svg11.dtd">
<svg width="140px" height="24px" viewBox="0 0 140 24" version="1.1" xmlns="http://www.w3.org/2000/svg"
     xmlns:xlink="http://www.w3.org/1999/xlink" xml:space="preserve" xmlns:serif="http://www.serif.com/"
     style="fill-rule:evenodd;clip-rule:evenodd;stroke-linejoin:round;stroke-miterlimit:2;"><g><g id="Mono"><g><path d="M1.592,14.178c-0.326,-0.188 -0.592,-0.649 -0.592,-1.025l0,-5.703c0,-0.376 0.266,-0.53 0.592,-0.342l1.919,1.108c0.325,0.188 0.592,0.65 0.592,1.026l-0,5.702c-0,0.376 -0.267,0.53 -0.592,0.342l-1.919,-1.108Z" style="fill:#fff;fill-rule:nonzero;"/><path
        d="M1.592,18.745c-0.326,-0.188 -0.592,-0.65 -0.592,-1.026l0,-2.19c0,-0.376 0.266,-0.529 0.592,-0.341l1.919,1.107c0.325,0.188 0.592,0.65 0.592,1.026l-0,2.19c-0,0.376 -0.267,0.53 -0.592,0.342l-1.919,-1.108Z"
        style="fill:#fff;fill-rule:nonzero;"/><path
        d="M5.531,21.02c-0.326,-0.189 -0.592,-0.65 -0.592,-1.026l-0,-2.19c-0,-0.376 0.266,-0.53 0.592,-0.342l5.014,2.9c0.326,0.188 0.592,0.65 0.592,1.026l0,2.19c0,0.376 -0.266,0.53 -0.592,0.342l-5.014,-2.9Z"
        style="fill:#fff;fill-rule:nonzero;"/></g><g><path d="M12.541,13.31c0,-0.376 0.266,-0.837 0.592,-1.025l8.943,-5.164c0.326,-0.188 0.593,-0.034 0.593,0.342l-0,2.19c-0,0.376 -0.267,0.838 -0.593,1.026l-8.943,5.163c-0.326,0.188 -0.592,0.034 -0.592,-0.342l0,-2.19Z" style="fill:#fff;fill-rule:nonzero;"/>
    <path d="M12.541,18.065c0,-0.377 0.266,-0.838 0.592,-1.026l1.919,-1.108c0.325,-0.188 0.592,-0.034 0.592,0.342l-0,5.504c-0,0.376 -0.267,0.838 -0.592,1.026l-1.919,1.107c-0.326,0.189 -0.592,0.035 -0.592,-0.342l0,-5.503Z"
          style="fill:#fff;fill-rule:nonzero;"/>
    <path d="M16.806,18.92c-0,-0.376 0.266,-0.838 0.592,-1.026l4.688,-2.706c0.326,-0.188 0.592,-0.035 0.592,0.341l0,2.19c0,0.376 -0.266,0.838 -0.592,1.026l-4.688,2.706c-0.326,0.189 -0.592,0.035 -0.592,-0.341l-0,-2.19Z"
          style="fill:#fff;fill-rule:nonzero;"/></g><g><path d="M6.289,3.643c0,0 -0.544,-0.324 0,-0.683l4.882,-2.819c0.326,-0.188 0.859,-0.188 1.184,0l4.941,2.852c0.325,0.188 0.325,0.496 -0,0.684l-4.882,2.819c-0.326,0.188 -0.859,0.188 -1.185,-0l-4.94,-2.853Z" style="fill:#fff;fill-rule:nonzero;"/>
    <path d="M13.308,7.714c-0.326,-0.188 -0.326,-0.496 -0,-0.684l4.914,-2.837c0.326,-0.188 0.859,-0.188 1.184,-0l1.919,1.107c0.325,0.188 0.325,0.496 -0,0.684l-4.915,2.837c-0.325,0.188 -0.858,0.188 -1.184,0l-1.918,-1.107Z"
          style="fill:#fff;fill-rule:nonzero;"/>
    <path d="M2.294,5.95c-0.326,-0.188 -0.326,-0.496 0,-0.684l1.897,-1.095c0.325,-0.188 0.858,-0.188 1.184,0l8.943,5.163c0.326,0.188 0.326,0.496 0,0.684l-1.896,1.095c-0.326,0.188 -0.859,0.188 -1.185,0l-8.943,-5.163Z"
          style="fill:#fff;fill-rule:nonzero;"/></g></g><g><path d="M38.911,17.136l5.55,-0l-0,2.59l-8.379,-0l0,-15.234l2.829,-0l0,12.644Z" style="fill:#fff;fill-rule:nonzero;"/>
    <path d="M51.795,19.943c-1.77,0 -3.221,-0.529 -4.353,-1.588c-1.131,-1.059 -1.697,-2.416 -1.697,-4.07c-0,-1.654 0.566,-3.01 1.697,-4.07c1.132,-1.059 2.583,-1.588 4.353,-1.588c1.755,-0 3.199,0.529 4.331,1.588c1.131,1.06 1.697,2.416 1.697,4.07c0,1.654 -0.566,3.011 -1.697,4.07c-1.132,1.059 -2.576,1.588 -4.331,1.588Zm-2.372,-3.242c0.624,0.624 1.414,0.936 2.372,0.936c0.958,-0 1.748,-0.316 2.372,-0.947c0.624,-0.631 0.936,-1.433 0.936,-2.405c-0,-0.972 -0.312,-1.774 -0.936,-2.405c-0.624,-0.631 -1.414,-0.946 -2.372,-0.946c-0.958,-0 -1.745,0.315 -2.361,0.946c-0.617,0.631 -0.925,1.433 -0.925,2.405c-0,0.972 0.304,1.777 0.914,2.416Z"
          style="fill:#fff;fill-rule:nonzero;"/>
    <path d="M62.437,19.726l-3.743,-10.882l2.829,0l2.35,7.966l0.087,-0l2.372,-7.966l2.699,0l2.394,8.009l0.087,0l2.35,-8.009l2.829,0l-3.743,10.882l-2.72,-0l-2.503,-8.161l-0.087,-0l-2.481,8.161l-2.72,-0Z"
          style="fill:#fff;fill-rule:nonzero;"/>
    <path d="M83.59,19.943l-0.022,0.022c-1.784,0 -3.231,-0.529 -4.341,-1.589c-1.11,-1.059 -1.665,-2.415 -1.665,-4.069c-0,-1.669 0.559,-3.029 1.676,-4.081c1.117,-1.052 2.56,-1.577 4.33,-1.577c1.408,-0 2.608,0.34 3.602,1.022c0.994,0.682 1.651,1.604 1.97,2.764l-2.916,0c-0.247,-0.45 -0.603,-0.809 -1.067,-1.077c-0.464,-0.268 -0.994,-0.403 -1.589,-0.403c-0.928,0 -1.693,0.312 -2.296,0.936c-0.602,0.624 -0.903,1.422 -0.903,2.394c0,0.972 0.301,1.77 0.903,2.394c0.603,0.624 1.382,0.936 2.34,0.936c0.972,-0 1.745,-0.323 2.318,-0.969c0.573,-0.645 0.809,-1.476 0.707,-2.491l2.829,-0c0.102,1.712 -0.399,3.104 -1.501,4.178c-1.103,1.074 -2.561,1.61 -4.375,1.61Z"
          style="fill:#fff;fill-rule:nonzero;"/>
    <path d="M97.04,19.943c-1.77,0 -3.221,-0.529 -4.353,-1.588c-1.132,-1.059 -1.697,-2.416 -1.697,-4.07c-0,-1.654 0.565,-3.01 1.697,-4.07c1.132,-1.059 2.583,-1.588 4.353,-1.588c1.755,-0 3.199,0.529 4.33,1.588c1.132,1.06 1.698,2.416 1.698,4.07c-0,1.654 -0.566,3.011 -1.698,4.07c-1.131,1.059 -2.575,1.588 -4.33,1.588Zm-2.373,-3.242c0.624,0.624 1.415,0.936 2.373,0.936c0.957,-0 1.748,-0.316 2.372,-0.947c0.624,-0.631 0.935,-1.433 0.935,-2.405c0,-0.972 -0.311,-1.774 -0.935,-2.405c-0.624,-0.631 -1.415,-0.946 -2.372,-0.946c-0.958,-0 -1.745,0.315 -2.362,0.946c-0.616,0.631 -0.925,1.433 -0.925,2.405c0,0.972 0.305,1.777 0.914,2.416Z"
          style="fill:#fff;fill-rule:nonzero;"/>
    <path d="M114.014,4.057l2.721,-0.022l-0,15.669l-2.721,-0l0,-2.155l-0.043,0c-0.363,0.755 -0.889,1.339 -1.578,1.752c-0.689,0.414 -1.483,0.621 -2.383,0.621c-1.523,-0 -2.796,-0.537 -3.819,-1.611c-1.023,-1.073 -1.535,-2.415 -1.535,-4.026c0,-1.625 0.512,-2.978 1.535,-4.059c1.023,-1.081 2.296,-1.621 3.819,-1.621c0.9,0 1.694,0.21 2.383,0.631c0.689,0.421 1.215,1.008 1.578,1.763l0.043,-0l0,-6.942Zm-3.22,13.536l0.021,-0.022c0.958,0 1.745,-0.301 2.362,-0.903c0.616,-0.602 0.939,-1.375 0.968,-2.318l0,-0.174c-0.029,-0.943 -0.355,-1.715 -0.979,-2.317c-0.624,-0.603 -1.415,-0.904 -2.372,-0.904c-0.973,0 -1.77,0.312 -2.394,0.936c-0.624,0.624 -0.936,1.415 -0.936,2.372c-0,0.972 0.312,1.77 0.936,2.394c0.624,0.624 1.421,0.936 2.394,0.936Z"
          style="fill:#fff;fill-rule:nonzero;"/>
    <path d="M127.921,15.243l2.764,-0c-0.087,1.392 -0.664,2.52 -1.73,3.384c-1.067,0.863 -2.391,1.295 -3.972,1.295c-1.756,-0 -3.188,-0.534 -4.298,-1.6c-1.11,-1.066 -1.665,-2.434 -1.665,-4.102c-0,-1.64 0.548,-2.985 1.643,-4.037c1.095,-1.052 2.506,-1.578 4.233,-1.578c1.726,0 3.101,0.508 4.124,1.523c1.023,1.016 1.505,2.373 1.447,4.07l-8.814,0c0.015,1.059 0.319,1.897 0.914,2.514c0.595,0.616 1.378,0.925 2.351,0.925c0.827,-0 1.519,-0.222 2.078,-0.664c0.558,-0.443 0.867,-1.019 0.925,-1.73Zm-3.069,-4.614c-1.349,-0 -2.292,0.544 -2.829,1.632l5.55,0c-0.45,-1.088 -1.357,-1.632 -2.721,-1.632Z"
          style="fill:#fff;fill-rule:nonzero;"/>
    <path d="M139.107,8.627l-0.022,-0.022c0.189,0 0.326,0.007 0.414,0.022l-0,2.698l-0.545,0c-2.306,0 -3.46,1.4 -3.46,4.201l0,4.2l-2.72,-0l-0,-10.882l2.611,0l0,3.2l0.022,-0c0.551,-2.278 1.785,-3.417 3.7,-3.417Z"
          style="fill:#fff;fill-rule:nonzero;"/></g></g></svg>
