<?xml version="1.0" encoding="UTF-8" standalone="no"?><!DOCTYPE svg PUBLIC "-//W3C//DTD SVG 1.1//EN" "http://www.w3.org/Graphics/SVG/1.1/DTD/svg11.dtd"><svg width="100%" height="100%" viewBox="0 0 24 24" version="1.1" xmlns="http://www.w3.org/2000/svg" xmlns:xlink="http://www.w3.org/1999/xlink" xml:space="preserve" xmlns:serif="http://www.serif.com/" style="fill-rule:evenodd;clip-rule:evenodd;stroke-linejoin:round;stroke-miterlimit:2;"><g id="Mono"><g><path d="M1.753,14.178c-0.326,-0.188 -0.592,-0.649 -0.592,-1.025l-0,-5.703c-0,-0.376 0.266,-0.53 0.592,-0.342l1.918,1.108c0.326,0.188 0.593,0.65 0.593,1.026l-0,5.702c-0,0.376 -0.267,0.53 -0.593,0.342l-1.918,-1.108Z" style="fill:#fff;fill-rule:nonzero;"/><path d="M1.753,18.745c-0.326,-0.188 -0.592,-0.65 -0.592,-1.026l-0,-2.19c-0,-0.376 0.266,-0.529 0.592,-0.341l1.918,1.107c0.326,0.188 0.593,0.65 0.593,1.026l-0,2.19c-0,0.376 -0.267,0.53 -0.593,0.342l-1.918,-1.108Z" style="fill:#fff;fill-rule:nonzero;"/><path d="M5.692,21.02c-0.326,-0.189 -0.592,-0.65 -0.592,-1.026l-0,-2.19c-0,-0.376 0.266,-0.53 0.592,-0.342l5.014,2.9c0.326,0.188 0.592,0.65 0.592,1.026l0,2.19c0,0.376 -0.266,0.53 -0.592,0.342l-5.014,-2.9Z" style="fill:#fff;fill-rule:nonzero;"/></g><g><path d="M12.702,13.31c-0,-0.376 0.266,-0.837 0.592,-1.025l8.943,-5.164c0.326,-0.188 0.592,-0.034 0.592,0.342l0,2.19c0,0.376 -0.266,0.838 -0.592,1.026l-8.943,5.163c-0.326,0.188 -0.592,0.034 -0.592,-0.342l-0,-2.19Z" style="fill:#fff;fill-rule:nonzero;"/><path d="M12.702,18.065c-0,-0.377 0.266,-0.838 0.592,-1.026l1.918,-1.108c0.326,-0.188 0.593,-0.034 0.593,0.342l-0,5.504c-0,0.376 -0.267,0.838 -0.593,1.026l-1.918,1.107c-0.326,0.189 -0.592,0.035 -0.592,-0.342l-0,-5.503Z" style="fill:#fff;fill-rule:nonzero;"/><path d="M16.967,18.92c-0,-0.376 0.266,-0.838 0.592,-1.026l4.688,-2.706c0.326,-0.188 0.592,-0.035 0.592,0.341l0,2.19c0,0.376 -0.266,0.838 -0.592,1.026l-4.688,2.706c-0.326,0.189 -0.592,0.035 -0.592,-0.341l-0,-2.19Z" style="fill:#fff;fill-rule:nonzero;"/></g><g><path d="M6.45,3.643c-0,0 -0.544,-0.324 -0,-0.683l4.882,-2.819c0.325,-0.188 0.858,-0.188 1.184,0l4.94,2.852c0.326,0.188 0.326,0.496 0,0.684l-4.881,2.819c-0.326,0.188 -0.859,0.188 -1.185,-0l-4.94,-2.853Z" style="fill:#fff;fill-rule:nonzero;"/><path d="M13.469,7.714c-0.326,-0.188 -0.326,-0.496 -0,-0.684l4.914,-2.837c0.326,-0.188 0.858,-0.188 1.184,-0l1.919,1.107c0.325,0.188 0.325,0.496 -0,0.684l-4.915,2.837c-0.325,0.188 -0.858,0.188 -1.184,0l-1.918,-1.107Z" style="fill:#fff;fill-rule:nonzero;"/><path d="M2.455,5.95c-0.326,-0.188 -0.326,-0.496 0,-0.684l1.896,-1.095c0.326,-0.188 0.859,-0.188 1.185,0l8.943,5.163c0.326,0.188 0.326,0.496 0,0.684l-1.896,1.095c-0.326,0.188 -0.859,0.188 -1.185,0l-8.943,-5.163Z" style="fill:#fff;fill-rule:nonzero;"/></g></g></svg>